/* XPM */
static char *magick[] = {
/* columns rows colors chars-per-pixel */
"48 48 256 2",
"   c Gray0",
".  c #020b00",
"X  c Gray6",
"o  c #111111",
"O  c #161616",
"+  c Gray12",
"@  c Gray17",
"#  c #343434",
"$  c #353535",
"%  c Gray21",
"&  c #393939",
"*  c Gray23",
"=  c Gray24",
"-  c #3e3e3e",
";  c #000040",
":  c #000046",
">  c #00004a",
",  c #00004e",
"<  c #000051",
"1  c #000057",
"2  c #000062",
"3  c #00006b",
"4  c #00006e",
"5  c #000072",
"6  c #000075",
"7  c #00007c",
"8  c #400000",
"9  c #460000",
"0  c #5a0000",
"q  c #6b0000",
"w  c #750000",
"e  c #780000",
"r  c #7d0000",
"t  c Gray25",
"y  c #414141",
"u  c #464646",
"i  c Gray30",
"p  c #515151",
"a  c #585858",
"s  c #5d5d5d",
"d  c #65795d",
"f  c #606060",
"g  c #626262",
"h  c Gray40",
"j  c Gray41",
"k  c #6b6c6b",
"l  c Gray43",
"z  c #727272",
"x  c #767676",
"c  c #797979",
"v  c #000080",
"b  c #00008a",
"n  c #00008e",
"m  c #000092",
"M  c #000096",
"N  c #000098",
"B  c #00009c",
"V  c #0000a2",
"C  c #0000a5",
"Z  c #0000ab",
"A  c #0000b3",
"S  c #0000b4",
"D  c #0000b7",
"F  c #0000bc",
"G  c #0000bf",
"H  c #0000c5",
"J  c #0000c9",
"K  c #0000cb",
"L  c #0000cf",
"P  c #0000d1",
"I  c #0000d5",
"U  c #0000d8",
"Y  c #0000db",
"T  c #0000de",
"R  c #0000e1",
"E  c #0000e3",
"W  c #0000e4",
"Q  c #0000e7",
"!  c #0000e9",
"~  c #0000ea",
"^  c #0000ec",
"/  c #0000ef",
"(  c #0000f2",
")  c #0000f3",
"_  c #0000f5",
"`  c #0000f6",
"'  c #0000f8",
"]  c #0000f9",
"[  c #0000fb",
"{  c #0000fc",
"}  c #0000fe",
"|  c Blue",
" . c #0101ff",
".. c #0303ff",
"X. c #0404ff",
"o. c #0606ff",
"O. c #0909ff",
"+. c #0a0aff",
"@. c #0d0dff",
"#. c #0f0fff",
"$. c #1010ff",
"%. c #1212ff",
"&. c #1616ff",
"*. c #1b1bff",
"=. c #1c1cff",
"-. c #1f1fff",
";. c #2121ff",
":. c #2222ff",
">. c #2424ff",
",. c #2727ff",
"<. c #2e2eff",
"1. c #3030ff",
"2. c #3131ff",
"3. c #3333ff",
"4. c #3737ff",
"5. c #3b3bff",
"6. c #3f3fff",
"7. c #4a4aff",
"8. c #5555ff",
"9. c #5b5bff",
"0. c #5d5dff",
"q. c #6060ff",
"w. c #6363ff",
"e. c #6464ff",
"r. c #6a6aff",
"t. c #6c6cff",
"y. c #6f6fff",
"u. c #7070ff",
"i. c #7676ff",
"p. c #7b7bff",
"a. c #7c7cff",
"s. c #7f7fff",
"d. c #810000",
"f. c #870000",
"g. c #8a0000",
"h. c #8e0000",
"j. c #920000",
"k. c #a10000",
"l. c #a20000",
"z. c #a50000",
"x. c #aa0000",
"c. c #ad0000",
"v. c #b30000",
"b. c #b90000",
"n. c #be0000",
"m. c #c30000",
"M. c #cf0000",
"N. c #d10000",
"B. c #d60000",
"V. c #d80000",
"C. c #db0000",
"Z. c #de0000",
"A. c #e00000",
"S. c #e30000",
"D. c #e60000",
"F. c #ea0000",
"G. c #ec0000",
"H. c #f00000",
"J. c #f20000",
"K. c #f30000",
"L. c #f60000",
"P. c #f80000",
"I. c #f90000",
"U. c #fb0000",
"Y. c #fc0000",
"T. c #fe0000",
"R. c Red",
"E. c #ff0101",
"W. c #ff0303",
"Q. c #ff0404",
"!. c #ff0606",
"~. c #ff0707",
"^. c #ff0909",
"/. c #ff0d0d",
"(. c #ff0f0f",
"). c #ff1010",
"_. c #ff1212",
"`. c #ff1616",
"'. c #ff1919",
"]. c #ff1b1b",
"[. c #ff1d1d",
"{. c #ff2222",
"}. c #ff2727",
"|. c #ff2b2b",
" X c #ff2d2d",
".X c #ff3030",
"XX c #ff3131",
"oX c #ff3333",
"OX c #ff3535",
"+X c #ff3a3a",
"@X c #ff3d3d",
"#X c #ff4343",
"$X c #ff4545",
"%X c #ff4646",
"&X c #ff4a4a",
"*X c #ff4f4f",
"=X c #ff5252",
"-X c #ff5b5b",
";X c #ff6060",
":X c #ff6363",
">X c #ff7676",
",X c #ff7e7e",
"<X c #808080",
"1X c #818181",
"2X c #848484",
"3X c #898989",
"4X c #8b8b8b",
"5X c #8d8d8d",
"6X c #8e8e8e",
"7X c #909090",
"8X c #929292",
"9X c #959595",
"0X c #979797",
"qX c #9a9a9a",
"wX c Gray61",
"eX c #9f9f9f",
"rX c #a0a0a0",
"tX c #a2a2a2",
"yX c #a5a5a5",
"uX c Gray65",
"iX c Gray66",
"pX c #a9a9a9",
"aX c #aeaeae",
"sX c #b6b6b6",
"dX c #8181ff",
"fX c #8282ff",
"gX c #8787ff",
"hX c #8d8dff",
"jX c #9292ff",
"kX c #9494ff",
"lX c #9a9aff",
"zX c #ff8181",
"xX c #ff8d8d",
"cX c #ff9393",
"vX c #ff9999",
"bX c #ff9c9c",
"nX c #ffa3a3",
"mX c #c0c0c0",
"MX c Gray77",
"NX c #cacaca",
"BX c #cecece",
"VX c Gray82",
"CX c Gray86",
"ZX c Gray87",
"AX c Gray89",
"SX c #e7e7e7",
"DX c #efefef",
"FX c Gray94",
"GX c Gray95",
"HX c #f6f6f6",
"JX c #f8f8f8",
"KX c #f9f9f9",
"LX c Gray99",
"PX c #fefefe",
"IX c Gray100",
"UX c None",
/* pixels */
"UXUXUXUXUXUXUXUXUXUXUXUXUXUXUXUXUXUXUXUXUXUXUXUXUXUXUXUXUXUXUXUXUXUXUXUXUXUXUXUXUXUXUXUXUXUXUXUX",
"UXUXUXUXUXUXUXUXUXUXUXUXUXUXUXUXUXUXUXUXUXUXUXUXUXUXUXUXUXUXUXUXUXUXUXUXUXUXUXUXUXUXUXUXUXUXUXUX",
"UXUXUXUXUXUXUXUXUXUXUXUXUXUXUXUXUXUXUXUXUXUXUXUXUXUXUXUXUXUXUXUXUXUXUXUXUXUXUXUXUXUXUXUXUXUXUXUX",
"UXUXUXUXUXUXUXUXUXUXUXUXUXUXUXtXeX0X8X6X6X6X6X6X6X6X6X6X6X4X1Xc l UXUXUXUXUXUXUXUXUXUXUXUXUXUXUX",
"UXUXUXUXUXUXUXUXUXUXUXiXuXuXtXeXkXhXgXdXIXzXzXzXzXzXIXdXdXp.i.u.j h f a UXUXUXUXUXUXUXUXUXUXUXUX",
"UXUXUXUXUXUXUXUXUXUXiXuXtXlXjXgXp.u.r.e.IX:X:X:X:X:XIXw.w.w.0.0.IXIX-X=Xi u UXUXUXUXUXUXUXUXUXUX",
"UXUXUXUXUXUXUXUXiXiXnXvXIXIXr.9.7.6.4.1.IXXXXXXXXXXXIX1.1.1.1.IXIX#X&X$X#X= & & UXUXUXUXUXUXUXUX",
"UXUXUXUXUXUXUXiXuXbXxX>X:XIXIX>.*.%.@.+.IX^.^.^.^.^.IX+.+.+.IXIX].{.|.XXXXOXIXk % UXUXUXUXUXUXUX",
"UXUXUXUXUXtXuXtXcX,X:X$X X[.(.IXIX . . .IXW.W.W.W.W.IX . .IXIXW.~.~.(.`.].IXIX4.% @ + UXUXUXUXUX",
"UXUXUXUXqXeXlXIXIX*XXX].^.~.W.W.IXIX . .IXW.W.W.W.W.IX .IXIXW.W.W.W.W.~.IXIX:.<.<.:.X   UXUXUXUX",
"UXUXUXUX0XjXdXw.IXIX_.~.W.W.W.W.W.IXIX .IXW.W.W.W.W.IXIXIXW.W.W.W.W.W.IXIX+.&.=.:.&. .  UXUXUXUX",
"UXUXUX8X6Xs.w.5.=.IXIXW.W.W.W.W.W.W.IXIXIXW.W.W.W.W.IXW.W.W.W.W.W.W.IXIX ...+.@.%.@.]     UXUXUX",
"UXUX4X4Xs.w.5.=.+.o. .IXIXW.W.W.W.W.W.W.IXW.W.W.W.W.IXW.W.W.W.W.W.IXIX . . . . .o.o.] !     UXUX",
"UXUX2Xs.y.7.>.@. . . . .IXIXW.W.W.W.W.W.IXW.W.W.W.W.IXW.W.W.W.W.IXIX . . . . . . . . ./ I   UXUX",
"UXz x y.8.1.%.o. . . . . .IXIXW.W.W.W.W.IXW.W.W.W.W.IXW.W.W.W.IXIX . . . . . . . . . .! L     UX",
"UXf IXIXIXIXIXIXIXIXIXIXIXIXIXIXIXIXIXIXIXW.W.W.W.W.IXIXIXIXIXIXIXIXIXIXIXIXIXIXIXIXIXSXMXtX  UX",
"UXp =X$X|.(.W.W.W.W.W.W.W.W.W.W.W.W.W.W.W.W.W.W.W.W.W.W.W.W.W.W.W.W.W.W.W.W.W.W.W.W.U.S.b.j.  UX",
"UXu $X+X{.~.W.W.W.W.W.W.W.W.W.W.W.W.W.W.W.W.W.W.W.W.W.W.W.W.W.W.W.W.W.W.W.W.W.W.W.W.U.S.v.f.  UX",
"UXt @XOX[.~.W.W.W.W.W.W.W.W.W.W.W.W.W.W.W.W.W.W.W.W.W.W.W.W.W.W.W.W.W.W.W.W.W.W.W.W.U.Z.c.d.  UX",
"UX= @XXX[.~.W.W.W.W.W.W.W.W.W.W.W.W.W.W.W.W.W.W.W.W.W.W.W.W.W.W.W.W.W.W.W.W.W.W.W.W.U.Z.c.d.  UX",
"UX= +XXX].~.W.W.W.W.W.W.W.W.W.W.W.W.W.W.W.W.W.W.W.W.W.W.W.W.W.W.W.W.W.W.W.W.W.W.W.W.U.V.x.r   UX",
"UX% XX|.].W.W.W.W.W.W.W.W.W.W.W.W.W.W.W.W.W.W.W.W.W.W.W.W.W.W.W.W.W.W.W.W.W.W.W.W.W.L.B.k.w   UX",
"UX@ IXIXIXIXIXIXIXIXIXIXIXIXIXIXIXIXIXIXIXW.W.W.W.W.IXIXIXIXIXIXIXIXIXIXIXIXIXIXIXLXDXNX0Xj   UX",
"UXO %.%.+. . . . . . . .IXIXW.W.W.W.W.W.IXW.W.W.W.W.IXW.W.W.W.W.W.IXIXIX . . . .] ` E A 7 <   UX",
"UX    ` ] ] ]  . . . .IXIXW.W.W.W.W.W.W.IXW.W.W.W.W.IXIXIXW.W.W.W.W.W.IXIX . . .] ! K m 1     UX",
"UXUX  E ! ( ]  . . .IXIXW.W.W.W.W.W.IXIXIXW.W.W.W.W.IX .IXIXW.W.W.W.W.W.IXIX .] ( Y Z 3 ;   UXUX",
"UXUX    Y Q ( ] ] IXIXW.W.W.W.W.W.IXIX .IXW.W.W.W.W.IX . .IXIXW.W.W.W.W.W.W.LXHXE G v : .   UXUX",
"UXUXUX    P T ! GXHXW.W.W.W.W.W.IXIX . .IXW.W.W.W.W.IX . . .IXIXW.W.W.W.W.U.H.AXmXn <     UXUXUX",
"UXUXUXUX  D G BXZXG.L.U.W.W.W.IXIX . . .IXW.W.W.W.W.IX . . . .IXIXW.W.U.L.F.V.b.4Xp ;   UXUXUXUX",
"UXUXUXUX    eXuXb.N.S.H.L.U.IXIX . . . .IXW.W.W.W.W.IX . . . . .IXJXH.F.V.m.k.e 9 t     UXUXUXUX",
"UXUXUXUXUX      h.z.n.N.S.DXHX]  . . . .IXW.W.W.W.W.IX . . .] ] ` ! CXMXz.d.0 8 8     UXUXUXUXUX",
"UXUXUXUXUXUXUX    r h.k.sXNXY Q / ( ` ` JXW.W.W.W.W.IX .] ` / E I G V 1Xs 8 8     UXUXUXUXUXUXUX",
"UXUXUXUXUXUXUXUX      z 1Xm C D G K P Y SXH.U.W.W.W.IX` ( E L D M 6 1 ; t o 8   UXUXUXUXUXUXUXUX",
"UXUXUXUXUXUXUXUXUXUX      2 3 6 7 b B A VXF.U.W.W.W.LX` E H B 6 , ; ;       UXUXUXUXUXUXUXUXUXUX",
"UXUXUXUXUXUXUXUXUXUXUXUX      : > 1 5 N MXD.U.W.W.W.JX! K N 2 ;         UXUXUXUXUXUXUXUXUXUXUXUX",
"UXUXUXUXUXUXUXUXUXUXUXUXUXUX              H.~.~.W.W.FXP V 2       UXUXUXUXUXUXUXUXUXUXUXUXUXUXUX",
"UXUXUXUXUXUXUXUXUXUXUXUXUXUXUXUXUXUXUXUX  _.`.(.W.H.CXZ 4 ;   UXUXUXUXUXUXUXUXUXUXUXUXUXUXUXUXUX",
"UXUXUXUXUXUXUXUXUXUXUXUXUXUXUXUXUXUXUX% % OX}.(.H.B.aX5 ; ;   UXUXUXUXUXUXUXUXUXUXUXUXUXUXUXUXUX",
"UXUXUXUXUXUXUXUXUXUXUXUXUXUXUXUXUXUXUXf d &X}.U.M.k.l ; ;     UXUXUXUXUXUXUXUXUXUXUXUXUXUXUXUXUX",
"UXUXUXUXUXUXUXUXUXUXUXUXUXUXUXUXUXUX6X1XIX@XW.n.g.0 t ;     UXUXUXUXUXUXUXUXUXUXUXUXUXUXUXUXUXUX",
"UXUXUXUXUXUXUXUXUXUXUXUXUXUXUXUXUXeX8Xi.IXH.z.q 8 8 .     UXUXUXUXUXUXUXUXUXUXUXUXUXUXUXUXUXUXUX",
"UXUXUXUXUXUXUXUXUXUXUXUXUXUXUX0X8X1X0.*.NXr 9 8 8       UXUXUXUXUXUXUXUXUXUXUXUXUXUXUXUXUXUXUXUX",
"UXUXUXUXUXUXUXUXUXUXUXUXUXh c l 8.:.Y n p 8         UXUXUXUXUXUXUXUXUXUXUXUXUXUXUXUXUXUXUXUXUXUX",
"UXUXUXUXUXUXUXUXUXUX& t t & >. .K b           UXUXUXUXUXUXUXUXUXUXUXUXUXUXUXUXUXUXUXUXUXUXUXUXUX",
"UXUXUXUXUXUXUXUXUXUXUX                UXUXUXUXUXUXUXUXUXUXUXUXUXUXUXUXUXUXUXUXUXUXUXUXUXUXUXUXUX",
"UXUXUXUXUXUXUXUXUXUXUXUXUXUXUXUXUXUXUXUXUXUXUXUXUXUXUXUXUXUXUXUXUXUXUXUXUXUXUXUXUXUXUXUXUXUXUXUX",
"UXUXUXUXUXUXUXUXUXUXUXUXUXUXUXUXUXUXUXUXUXUXUXUXUXUXUXUXUXUXUXUXUXUXUXUXUXUXUXUXUXUXUXUXUXUXUXUX",
"UXUXUXUXUXUXUXUXUXUXUXUXUXUXUXUXUXUXUXUXUXUXUXUXUXUXUXUXUXUXUXUXUXUXUXUXUXUXUXUXUXUXUXUXUXUXUXUX"
};
