/* XPM */
static char *magick[] = {
/* columns rows colors chars-per-pixel */
"48 48 257 2",
"   c Gray0",
".  c Gray19",
"X  c #3e3e3e",
"o  c #000040",
"O  c #000042",
"+  c #000047",
"@  c #000051",
"#  c #000059",
"$  c #00005f",
"%  c #000068",
"&  c #00006c",
"*  c #000074",
"=  c #000075",
"-  c Gray25",
";  c Gray27",
":  c Gray28",
">  c #494949",
",  c Gray29",
"<  c #505050",
"1  c #515151",
"2  c #535353",
"3  c Gray33",
"4  c Gray34",
"5  c Gray35",
"6  c #5a5a5a",
"7  c #5d5d5d",
"8  c #5f5f5f",
"9  c #626262",
"0  c Gray39",
"q  c Gray40",
"w  c #686868",
"e  c Gray41",
"r  c Gray42",
"t  c #6f6f6f",
"y  c #727272",
"u  c Gray46",
"i  c #777777",
"p  c Gray",
"a  c #000083",
"s  c #000084",
"d  c #000086",
"f  c #00008a",
"g  c #00008f",
"h  c #000092",
"j  c #000096",
"k  c #00009f",
"l  c #0000a2",
"z  c #0000a8",
"x  c #0000ad",
"c  c #0000b3",
"v  c #0000b6",
"b  c #0000b9",
"n  c #0000bc",
"m  c #0000c0",
"M  c #0000c6",
"N  c #0000c8",
"B  c #0000ce",
"V  c #0000d1",
"C  c #0000d4",
"Z  c #0000d7",
"A  c #0000de",
"S  c #0000e1",
"D  c #0000e6",
"F  c #0000ea",
"G  c #0000ec",
"H  c #0000ed",
"J  c #0000f0",
"K  c #0000f2",
"L  c #0000f3",
"P  c #0000f6",
"I  c #0000f8",
"U  c #0000f9",
"Y  c #0000fb",
"T  c #0000fc",
"R  c #0000fe",
"E  c Blue",
"W  c #0101ff",
"Q  c #0303ff",
"!  c #0404ff",
"~  c #0707ff",
"^  c #0c0cff",
"/  c #1010ff",
"(  c #1313ff",
")  c #1616ff",
"_  c #1818ff",
"`  c #1b1bff",
"'  c #1e1eff",
"]  c #2a2aff",
"[  c #2e2eff",
"{  c #3333ff",
"}  c #3737ff",
"|  c #3a3aff",
" . c #3d3dff",
".. c #4040ff",
"X. c #4343ff",
"o. c #4c4cff",
"O. c #4e4eff",
"+. c #5c5cff",
"@. c #6666ff",
"#. c #7373ff",
"$. c #c20000",
"%. c #cc0000",
"&. c #d80000",
"*. c #de0000",
"=. c #ea0000",
"-. c #ec0000",
";. c #f20000",
":. c #f50000",
">. c #fc0000",
",. c #fe0000",
"<. c Red",
"1. c #ff0101",
"2. c #ff0303",
"3. c #ff0404",
"4. c #ff0606",
"5. c #ff0707",
"6. c #ff0909",
"7. c #ff0a0a",
"8. c #ff0c0c",
"9. c #ff0d0d",
"0. c #ff1212",
"q. c #ff1313",
"w. c #ff1616",
"e. c #ff1818",
"r. c #ff1b1b",
"t. c #ff1c1c",
"y. c #ff1f1f",
"u. c #ff2222",
"i. c #ff2424",
"p. c #ff2525",
"a. c #ff2727",
"s. c #ff2828",
"d. c #ff2a2a",
"f. c #ff2b2b",
"g. c #ff2e2e",
"h. c #ff3030",
"j. c #ff3131",
"k. c #ff3333",
"l. c #ff3434",
"z. c #ff3636",
"x. c #ff3939",
"c. c #ff3a3a",
"v. c #ff3c3c",
"b. c #ff4141",
"n. c #ff4545",
"m. c #ff4646",
"M. c #ff4949",
"N. c #ff4c4c",
"B. c #ff4f4f",
"V. c #ff5252",
"C. c #ff5454",
"Z. c #ff5555",
"A. c #ff5757",
"S. c #ff5858",
"D. c #ff5a5a",
"F. c #ff5e5e",
"G. c #ff6161",
"H. c #ff6363",
"J. c #ff6666",
"K. c #ff6767",
"L. c #ff6d6d",
"P. c #ff6f6f",
"I. c #ff7070",
"U. c #ff7272",
"Y. c #ff7373",
"T. c #ff7676",
"R. c #ff7878",
"E. c #ff7b7b",
"W. c #ff7c7c",
"Q. c #ff7f7f",
"!. c #818181",
"~. c #838383",
"^. c #848484",
"/. c Gray53",
"(. c Gray54",
"). c #8d8d8d",
"_. c #909090",
"`. c #929292",
"'. c #959595",
"]. c Gray59",
"[. c #9b9b9b",
"{. c Gray61",
"}. c Gray62",
"|. c #9f9f9f",
" X c Gray63",
".X c #a4a4a4",
"XX c #a5a5a5",
"oX c Gray66",
"OX c #aaaaaa",
"+X c Gray68",
"@X c #b1b1b1",
"#X c #b4b4b4",
"$X c #b6b6b6",
"%X c #b7b7b7",
"&X c #bcbcbc",
"*X c #ff8282",
"=X c #ff8484",
"-X c #ff8787",
";X c #ff8888",
":X c #ff8b8b",
">X c #ff8d8d",
",X c #ff8e8e",
"<X c #ff9191",
"1X c #ff9393",
"2X c #ff9494",
"3X c #ff9696",
"4X c #ff9797",
"5X c #ff9999",
"6X c #ff9c9c",
"7X c #ff9d9d",
"8X c #ff9f9f",
"9X c #ffa0a0",
"0X c #ffa3a3",
"qX c #ffa5a5",
"wX c #ffa6a6",
"eX c #ffa8a8",
"rX c #ffa9a9",
"tX c #ffabab",
"yX c #c0c0c0",
"uX c #c3c3c3",
"iX c #c5c5c5",
"pX c #c6c6c6",
"aX c #c8c8c8",
"sX c Gray79",
"dX c #cbcbcb",
"fX c Gray80",
"gX c #cdcdcd",
"hX c #cecece",
"jX c Gray81",
"kX c Gray82",
"lX c #d2d2d2",
"zX c Gray83",
"xX c #d8d8d8",
"cX c Gray85",
"vX c #dadada",
"bX c Gray86",
"nX c Gray87",
"mX c Gray88",
"MX c #e1e1e1",
"NX c #e2e2e2",
"BX c Gray89",
"VX c #e9e9e9",
"CX c #eaeaea",
"ZX c Gray93",
"AX c #efefef",
"SX c Gray94",
"DX c Gray95",
"FX c #f3f3f3",
"GX c Gray96",
"HX c #f6f6f6",
"JX c #f8f8f8",
"KX c #f9f9f9",
"LX c #fbfbfb",
"PX c Gray99",
"IX c #fefefe",
"UX c Gray100",
"YX c None",
/* pixels */
"YXYXYXYXYXYXYXYXYXYXYXYXYXYXYXYXYXYXYXYXYXYXYXYXYXYXYXYXYXYXYXYXYXYXYXYXYXYXYXYXYXYXYXYXYXYXYXYX",
"YXYXYXYXYXYXYXYXYXYXYXYXYXYXYXYXYXYXYXYXYXYXYXYXYXYXYXYXYXYXYXYXYXYXYXYXYXYXYXYXYXYXYXYXYXYXYXYX",
"YXYXYXYXYXYXYXYXYXYXYXYXYXYXYXYXYXYXYXYXYXYXYXYXYXYXYXYXYXYXYXYXYXYXYXYXYXYXYXYXYXYXYXYXYXYXYXYX",
"YXYXYXYXYXYXYXYXYXYXYXYXYXYXYXYX9X7X2X1X>X>X>X>X>X>X>X>X;X*XQ.U.YXYXYXYXYXYXYXYXYXYXYXYXYXYXYXYX",
"YXYXYXYXYXYXYXYXYXYXYXYXYXrXwX9X5X>X=XQ.E.E.E.E.E.E.E.E.E.U.L.J.H.H.S.YXYXYXYXYXYXYXYXYXYXYXYXYX",
"YXYXYXYXYXYXYXYXYXYXYXtXwX9X2X;XE.L.H.F.S.S.S.S.S.S.S.S.A.A.A.A.A.A.A.V.B.YXYXYXYXYXYXYXYXYXYXYX",
"YXYXYXYXYXYXYXYXYXtXrX9X1X*XL.S.m.z.d.p.u.u.u.u.u.u.u.u.u.p.d.g.x.b.m.M.m.b.x.YXYXYXYXYXYXYXYXYX",
"YXYXYXYXYXYXYXYXrX9X2X*XJ.B.k.u.0.7.5.1.1.1.1.1.1.1.1.1.1.1.5.9.0.y.d.z.x.x.x.k.YXYXYXYXYXYXYXYX",
"YXYXYXYXYXYXrXwX7X;XL.B.g.r.9.5.1.1.1.1.1.1.1.1.1.1.1.1.1.1.1.1.1.5.9.r.u.g.z.g.p.r.YXYXYXYXYXYX",
"YXYXYXYXYX7X7X2XE.S.x.y.9.5.1.1.1.1.1.1.1.1.1.1.1.1.1.1.1.1.1.1.1.1.1.5.9.w.p.p.y.9.:.YXYXYXYXYX",
"YXYXYXYXYX2X>XU.B.d.0.5.1.1.1.1.1.1.1.1.1.1.1.1.1.1.1.1.1.1.1.1.1.1.1.1.1.5.0.w.0.5.-.YXYXYXYXYX",
"YXYXYXYX2X;XU.M.u.9.5.1.1.1.1.1.1.1.1.1.1.1.1.1.1.1.1.1.1.1.1.1.1.1.1.1.1.1.5.7.7.1.=.*.YXYXYXYX",
"YXYXYX>X;XT.B.p.9.1.1.1.1.1.1.1.1.1.1.1.1.1.1.1.1.1.1.1.1.1.1.1.1.1.1.1.1.1.1.1.1.1.=.&.%.YXYXYX",
"YXYXYX=XE.F.k.0.5.1.1.1.1.1.1.1.1.1.1.1.1.1.1.1.1.1.1.1.1.1.1.1.1.1.1.1.1.1.1.1.1.1.;.&.$.YXYXYX",
"YXYX#.#.@.X.` ~ W W W W W W W W W W W W W W W W W W W W W W W W W W W W W W W W W ~ J C v k YXYX",
"YXYX+.+.o.] ^ W W W W W W W W W W W W W W W W W W W W W W W W W W W W W W W W W W W H N l d YXYX",
"YXYXo.o. .` ~ W W W W W W W W W W W W W W W W W W W W W W W W W W W W W W W W W W W H m j = YXYX",
"YXYXX.X.{ ) W W W W W W W W W W W W W W W W W W W W W W W W W W W W W W W W W W W W F n g % YXYX",
"YXYX .| [ / W W W W W W W W W W W W W W W W W W W W W W W W W W W W W W W W W W W W F b f $ YXYX",
"YXYX} } ] / W W W W W W W W W W W W W W W W W W W W W W W W W W W W W W W W W W W W D c a $ YXYX",
"YXYX[ ] ' / W W W W W W W W W W W W W W W W W W W W W W W W W W W W W W W W W W W Y A z = @ YXYX",
"YXYX` ` ) ^ W W W W W W W W W W W W W W W W W W W W W W W W W W W W W W W W W W W J B h $ o YXYX",
"YXYXW Y W Y Y W W W W W W W W W W W W W W W W W W W W W W W W W W W W W W W W W Y S x & o o YXYX",
"YXYXYXS D H P Y W W W W W W W W W W W W W W W W W W W W W W W W W W W W W W W Y H M d + o YXYXYX",
"YXYXYXV C S J Y W W W W W W W W W W W W W W W W W W W W W W W W W W W W W W W J C k # o o YXYXYX",
"YXYXYXYXyXsXvXCXDXLXUXUXUXUXUXUXUXUXUXUXUXUXUXUXUXUXUXUXUXUXUXUXUXUXUXUXUXLXDXvXoXe - - YXYXYXYX",
"YXYXYXYXYX#X&XsXvXCXGXUXUXUXUXUXUXUXUXUXUXUXUXUXUXUXUXUXUXUXUXUXUXUXUXUXLXCXkX.Xr - - YXYXYXYXYX",
"YXYXYXYXYXoX|..X#XsXBXDXLXLXUXUXUXUXUXUXUXUXUXUXUXUXUXUXUXUXUXUXUXUXLXDXnX&X'.8 - - - YXYXYXYXYX",
"YXYXYXYXYXYX^.p ^.[.#XkXBXAXLXUXUXUXUXUXUXUXUXUXUXUXUXUXUXUXUXUXLXDXBXsX.Xu ; - - - YXYXYXYXYXYX",
"YXYXYXYXYXYXYXYXt u (.|.#XjXBXDXLXUXUXUXUXUXUXUXUXUXUXUXUXLXGXCXnXiX.X~.3 - - - YXYXYXYXYXYXYXYX",
"YXYXYXYXYXYXYXYXYX9 q y ^.|.#XsXzXvXnXBXAXDXLXUXUXUXUXLXDXBXjX#X'.u < - - - - YXYXYXYXYXYXYXYXYX",
"YXYXYXYXYXYXYXYXYXYXYX6 9 y ~.).`.'.[.+XiXnXAXLXUXUXLXDXvX#X`.e ; - - - - YXYXYXYXYXYXYXYXYXYXYX",
"YXYXYXYXYXYXYXYXYXYXYXYXYX6 6 6 3 6 e ^.+XkXAXUXUXUXGXBX&X~.< - - - - YXYXYXYXYXYXYXYXYXYXYXYXYX",
"YXYXYXYXYXYXYXYXYXYXYXYXYXYXYX- - - ; e  XkXDXUXUXUXAXsX'.< - - YXYXYXYXYXYXYXYXYXYXYXYXYXYXYXYX",
"YXYXYXYXYXYXYXYXYXYXYXYXYXYX> YXYXYXYXYXYXAXUXUXUXLXBX@Xu - YXYXYXYXYXYXYXYXYXYXYXYXYXYXYXYXYXYX",
"YXYXYXYXYXYXYXYXYXYXYXYXYXYXYXYXYXYXYXYXYXUXUXUXUXCXsX`.3 - YXYXYXYXYXYXYXYXYXYXYXYXYXYXYXYXYXYX",
"YXYXYXYXYXYXYXYXYXYXYXYXYXYXYXYXYXYXYXjXYXUXUXUXDXiX[.9 - - YXYXYXYXYXYXYXYXYXYXYXYXYXYXYXYXYXYX",
"YXYXYXYXYXYXYXYXYXYXYXYXYXYXYXYXYXYXYXYXUXUXUXGX&X(.8 - - YX. YXYXYXYXYXYXYXYXYXYXYXYXYXYXYXYXYX",
"YXYXYXYXYXYXYXYXYXYXYXYXYXYXYXYXYXYXBXYXUXUXDXoXt ; - - YX. YXYXYXYXYXYXYXYXYXYXYXYXYXYXYXYXYXYX",
"YXYXYXYXYXYXYXYXYXYXYXYXYXYXYXYXYXBXYXUXUXvX(.< - - - YX. YXYXYXYXYXYXYXYXYXYXYXYXYXYXYXYXYXYXYX",
"YXYXYXYXYXYXYXYXYXYXYXYXYXYXYXvXYXYXUXUX@Xq - - - YXYX. YXYXYXYXYXYXYXYXYXYXYXYXYXYXYXYXYXYXYXYX",
"YXYXYXYXYXYXYXYXYXYXYXYXYXjXYXYXUXUXiX~.> - YXYXYX. YXYXYXYXYXYXYXYXYXYXYXYXYXYXYXYXYXYXYXYXYXYX",
"YXYXYXYXYXYXYXYXYXYXYXYXYXYXUXCXyX'.YXYXYXYX. YXYXYXYXYXYXYXYXYXYXYXYXYXYXYXYXYXYXYXYXYXYXYXYXYX",
"YXYXYXYXYXYXYXYXYXYXYXYXYXYXYXYXYXYXX YXYXYXYXYXYXYXYXYXYXYXYXYXYXYXYXYXYXYXYXYXYXYXYXYXYXYXYXYX",
"YXYXYXYXYXYXYXYXYXYXYXYXYXYXYXYXYXYXYXYXYXYXYXYXYXYXYXYXYXYXYXYXYXYXYXYXYXYXYXYXYXYXYXYXYXYXYXYX",
"YXYXYXYXYXYXYXYXYXYXYXYXYXYXYXYXYXYXYXYXYXYXYXYXYXYXYXYXYXYXYXYXYXYXYXYXYXYXYXYXYXYXYXYXYXYXYXYX",
"YXYXYXYXYXYXYXYXYXYXYXYXYXYXYXYXYXYXYXYXYXYXYXYXYXYXYXYXYXYXYXYXYXYXYXYXYXYXYXYXYXYXYXYXYXYXYXYX",
"YXYXYXYXYXYXYXYXYXYXYXYXYXYXYXYXYXYXYXYXYXYXYXYXYXYXYXYXYXYXYXYXYXYXYXYXYXYXYXYXYXYXYXYXYXYXYXYX"
};
