/* XPM */
static char *magick[] = {
/* columns rows colors chars-per-pixel */
"48 48 256 2",
"   c Gray0",
".  c Transparent",
"X  c #0c0c0c",
"o  c #161616",
"O  c #1b1b1b",
"+  c #222222",
"@  c #272727",
"#  c #2a2a2a",
"$  c Gray18",
"%  c #313131",
"&  c #343434",
"*  c Gray21",
"=  c #373737",
"-  c #3c3c3c",
";  c Gray24",
":  c #3f3f3f",
">  c #000051",
",  c #000057",
"<  c #000068",
"1  c #000071",
"2  c #00007b",
"3  c #262640",
"4  c #480000",
"5  c #570000",
"6  c #620000",
"7  c #6e0000",
"8  c #750000",
"9  c #7e0000",
"0  c Gray25",
"q  c #414141",
"w  c Gray26",
"e  c Gray27",
"r  c #464646",
"t  c Gray29",
"y  c Gray30",
"u  c #4e4e4e",
"i  c #505050",
"p  c #515151",
"a  c Gray33",
"s  c Gray34",
"d  c Gray35",
"f  c #5a5a5a",
"g  c #606060",
"h  c Gray38",
"j  c Gray39",
"k  c #676767",
"l  c #6a6a6a",
"z  c Gray42",
"x  c #6d6d6d",
"c  c #6f6f6f",
"v  c #717171",
"b  c #727272",
"n  c #767676",
"m  c #797979",
"M  c Gray49",
"N  c Gray",
"B  c #000080",
"V  c #00008d",
"C  c #000092",
"Z  c #000095",
"A  c #0000a1",
"S  c #0000b3",
"D  c #0000b5",
"F  c #0000bd",
"G  c #0000c2",
"H  c #0000ca",
"J  c #0000cf",
"K  c #0000d1",
"L  c #0000d5",
"P  c #0000db",
"I  c #0000e1",
"U  c #0000e3",
"Y  c #0000e7",
"T  c #0000e9",
"R  c #0000ec",
"E  c #0000ef",
"W  c #0000f1",
"Q  c #0000f5",
"!  c #0000f6",
"~  c #0000f8",
"^  c #0000f9",
"/  c #0000fb",
"(  c #0000fc",
")  c #0000fe",
"_  c Blue",
"`  c #0101ff",
"'  c #0303ff",
"]  c #0404ff",
"[  c #0606ff",
"{  c #0909ff",
"}  c #0a0aff",
"|  c #0d0dff",
" . c #1010ff",
".. c #1212ff",
"X. c #1313ff",
"o. c #1515ff",
"O. c #1b1bff",
"+. c #1f1fff",
"@. c #2121ff",
"#. c #2424ff",
"$. c #2727ff",
"%. c #3030ff",
"&. c #3131ff",
"*. c #3333ff",
"=. c #3636ff",
"-. c #3d3dff",
";. c #65659b",
":. c #4848ff",
">. c #5555ff",
",. c #5858ff",
"<. c #6363ff",
"1. c #6464ff",
"2. c #6c6cff",
"3. c #6f6fff",
"4. c #7979ff",
"5. c #7f7fff",
"6. c #810000",
"7. c #870000",
"8. c #890000",
"9. c #920000",
"0. c #9b0000",
"q. c #a40000",
"w. c #aa0000",
"e. c #ad0000",
"r. c #b40000",
"t. c #b90000",
"y. c #bf0000",
"u. c #ca0000",
"i. c #d10000",
"p. c #d50000",
"a. c #db0000",
"s. c #de0000",
"d. c #e00000",
"f. c #e30000",
"g. c #e70000",
"h. c #ef0000",
"j. c #f30000",
"k. c #f60000",
"l. c #f90000",
"z. c #fb0000",
"x. c #fe0000",
"c. c Red",
"v. c #ff0101",
"b. c #ff0303",
"n. c #ff0404",
"m. c #ff0606",
"M. c #ff0909",
"N. c #ff0a0a",
"B. c #ff0e0e",
"V. c #ff1212",
"C. c #ff1818",
"Z. c #ff1b1b",
"A. c #ff1c1c",
"S. c #ff1e1e",
"D. c #ff2222",
"F. c #ff2a2a",
"G. c #ff3131",
"H. c #ff3333",
"J. c #ff3434",
"K. c #ff3737",
"L. c #ff3a3a",
"P. c #ff3d3d",
"I. c #ff3f3f",
"U. c #ff4646",
"Y. c #ff4c4c",
"T. c #ff5151",
"R. c #ff5b5b",
"E. c #ff6969",
"W. c #ff6c6c",
"Q. c #ff7070",
"!. c #ff7b7b",
"~. c #ff7e7e",
"^. c #818181",
"/. c #838383",
"(. c #848484",
"). c Gray52",
"_. c #868686",
"`. c #888888",
"'. c #898989",
"]. c #8b8b8b",
"[. c #8d8d8d",
"{. c #8e8e8e",
"}. c Gray56",
"|. c #929292",
" X c Gray59",
".X c #979797",
"XX c #989898",
"oX c #9a9a9a",
"OX c Gray61",
"+X c #9d9d9d",
"@X c Gray62",
"#X c #9f9f9f",
"$X c #a0a0a0",
"%X c #a2a2a2",
"&X c Gray64",
"*X c #a5a5a5",
"=X c Gray65",
"-X c #a7a7a7",
";X c Gray66",
":X c #a9a9a9",
">X c #aaaaaa",
",X c Gray67",
"<X c #b1b1b1",
"1X c Gray70",
"2X c #b4b4b4",
"3X c #b7b7b7",
"4X c #b9b9b9",
"5X c Gray73",
"6X c Gray74",
"7X c Gray75",
"8X c #8181ff",
"9X c #8282ff",
"0X c #8e8eff",
"qX c #9a9aff",
"wX c #a9a9ff",
"eX c #bcbcff",
"rX c #bfbfff",
"tX c #ff8787",
"yX c #ff8d8d",
"uX c #ff9191",
"iX c #ff9494",
"pX c #ff9a9a",
"aX c Gray76",
"sX c #c5c5c5",
"dX c #cbcbcb",
"fX c #cecece",
"gX c Gray82",
"hX c Gray83",
"jX c #d5d5d5",
"kX c #d8d8d8",
"lX c Gray86",
"zX c #dddddd",
"xX c Gray87",
"cX c #c7c7ff",
"vX c Gray88",
"bX c #e1e1e1",
"nX c Gray89",
"mX c #e4e4e4",
"MX c #e7e7e7",
"NX c #e9e9e9",
"BX c #eaeaea",
"VX c #ececec",
"CX c Gray93",
"ZX c #efefef",
"AX c Gray94",
"SX c Gray95",
"DX c #f3f3f3",
"FX c Gray96",
"GX c #f6f6f6",
"HX c #f8f8f8",
"JX c #f9f9f9",
"KX c #fbfbfb",
"LX c Gray99",
"PX c #fefefe",
"IX c Gray100",
"UX c None",
/* pixels */
"UXUXUXUXUXUXUXUXUXUXUXUXUXUXUXUXUXUXUXUXUXUXUXUXUXUXUXUXUXUXUXUXUXUXUXUXUXUXUXUXUXUXUXUXUXUXUXUX",
"UXUXUXUXUXUXUXUXUXUXUXUXUXUXUXUXUXUXUXUXUXUXUXUXUXUXUXUXUXUXUXUXUXUXUXUXUXUXUXUXUXUXUXUXUXUXUXUX",
"UXUXUXUXUXUXUXUXUXUXUXUXUXUXUXUXUXUXUXUXUXUXUXUXUXUXUXUXUXUXUXUXUXUXUXUXUXUXUXUXUXUXUXUXUXUXUXUX",
"UXUXUXUXUXUXUXUXUXUXUXUXUXUXUX&X#X.X|.{.{.{.{.{.{.{.{.{.{.].^.m c UXUXUXUXUXUXUXUXUXUXUXUXUXUXUX",
"UXUXUXUXUXUXUXUXUXUXUX;X=X=X&X#XiXyXtX9X9X9XIXIXIXIXIXIXIXIXIXIXk g g f UXUXUXUXUXUXUXUXUXUXUXUX",
"UXUXUXUXUXUXUXUXUXUX;X=X&XpXuXtX!.Q.E.1.<.<.IXIXIXIXIXIXIXIXIXIXIXIXIXs p t UXUXUXUXUXUXUXUXUXUX",
"UXUXUXUXUXUXUXUX;X;X&XqX0X~.W.R.Y.I.K.%.%.%.IXIXIXIXIXIXIXIXIXIXIXIXIXIXIXr 0 : UXUXUXUXUXUXUXUX",
"UXUXUXUXUXUXUX;X=XIX0X4.<.Y.K.F.Z.V.B.{ { { IXIXIXIXIXIXIXIXIXIXIXIXIXIXIXIXIX* % UXUXUXUXUXUXUX",
"UXUXUXUXUX&X=X&XIXIX1.:.%.S.V.M.m.x.x.' ' ' IXIXIXIXIXIXIXIXIXIXIXIXIXIXIXIXIXIX$ @ O UXUXUXUXUX",
"UXUXUXUXoX#XIXIXIXIX=.+.X.M.b.x.x.x.x.' ' ' IXIXIXIXIXIXIXIXIXIXIXIXIXIXIXIXIXIXIXIXX   UXUXUXUX",
"UXUXUXUX.XIXIXIXIXIXo.{ [ x.x.x.x.x.x.' ' ' IXIXIXIXIXIXIXIXIXIXIXIXIXIXIXIXIXIXIXIXIX  UXUXUXUX",
"UXUXUX|.{.IXIXIXIXIX[ ' ' x.x.x.x.x.x.' ' ' IXIXIXIXIXIXIXIXIXIXIXIXIXIXIXIXIXIXIXIXHX    UXUXUX",
"UXUX].].IXIXIXIXIXIX' ' ' x.x.x.x.x.x.' ' ' IXIXIXIXIXIXIXIXIXIXIXIXIXIXIXIXIXIXIXIXHXNX    UXUX",
"UXUX(.5.3.:.#.| ' ' ' ' ' x.x.x.x.x.x.' ' ' ' ' ' ' ' ' ' ' ' ' ' ' ' ' ' ' ' ' ' ' ' E L   UXUX",
"UXb n 3.>.%.X.[ ' ' ' ' ' x.x.x.x.x.x.' ' ' ' ' ' ' ' ' ' ' ' ' ' ' ' ' ' ' ' ' ' ' ' T J     UX",
"UXg <.,.-.O.{ ' ' ' ' ' ' x.x.x.x.x.x.' ' ' ' ' ' ' ' ' ' ' ' ' ' ' ' ' ' ' ' ' ' ' ' Y G A   UX",
"UXp T.U.F.B.x.x.x.x.x.x.x.x.x.x.x.x.x.x.x.x.x.x.x.x.x.x.x.x.x.x.x.x.x.x.x.x.x.x.x.x.z.f.t.9.  UX",
"UXr U.L.D.M.x.x.x.x.x.x.x.x.x.x.x.x.x.x.x.x.x.x.x.x.x.x.x.x.x.x.x.x.x.x.x.x.x.x.x.x.z.f.r.7.  UX",
"UX: I.H.S.m.x.x.x.x.x.x.x.x.x.x.x.x.x.x.x.x.x.x.x.x.x.x.x.x.x.x.x.x.x.x.x.x.x.x.x.x.z.s.e.6.  UX",
"UX: I.H.S.m.x.x.x.x.x.x.x.x.x.x.x.x.x.x.x.x.x.x.x.x.x.x.x.x.x.x.x.x.x.x.x.x.x.x.x.x.z.s.e.6.  UX",
"UX: L.H.Z.m.x.x.x.x.x.x.x.x.x.x.x.x.x.x.x.x.x.x.x.x.x.x.x.x.x.x.x.x.x.x.x.x.x.x.x.x.z.a.w.9   UX",
"UX* H.F.Z.b.x.x.x.x.x.x.x.x.x.x.x.x.x.x.x.x.x.x.x.x.x.x.x.x.x.x.x.x.x.x.x.x.x.x.x.x.k.p.q.8   UX",
"UX# #.@.X.' ' ' ' ' ' ' ' x.x.x.x.x.x.' ' ' ' ' ' ' ' ' ' ' ' ' ' ' ' ' ' ' ' ' ' ~ W H Z <   UX",
"UXo X.X.[ ' ' ' ' ' ' ' ' x.x.x.x.x.x.' ' ' ' ' ' ' ' ' ' ' ' ' ' ' ' ' ' ' ' ' ' ! U D 2 >   UX",
"UX    ! ~ ~ ~ ' ' ' ' ' ' x.x.x.x.x.x.' ' ' ' ' ' ' ' ' ' ' ' ' ' ' ' ' ' ' ' ' ~ E H C ,     UX",
"UXUX  vXNXSXHXIXIXIX' ' ' x.x.x.x.x.x.' ' ' IXIXIXIXIXIXIXIXIXIXIXIXIXIXIXIXIXKXSXkX;Xl 0   UXUX",
"UXUX    kXmXSXHXKXIX' ' ' x.x.x.x.x.x.' ' ' IXIXIXIXIXIXIXIXIXIXIXIXIXIXIXIXHXGXvX4XM r     UXUX",
"UXUXUX    gXxXNXSXGX' ' ' x.x.x.x.x.x.' ' ' IXIXIXIXIXIXIXIXIXIXIXIXIXIXKXHXSXvX7X].u     UXUXUX",
"UXUXUXUX  4X7XfXxXZX! ~ ' x.x.x.x.x.x.' ' ' IXIXIXIXIXIXIXIXIXIXIXIXIXHXGXNXhX3X(.p 0   UXUXUXUX",
"UXUXUXUX    #X=X4XgXU E ! z.x.x.x.x.x.' ' ' IXIXIXIXIXIXIXIXIXIXIXHXGXZXxXsX#Xb 0 0     UXUXUXUX",
"UXUXUXUXUX      {.=XF K U h.k.z.x.x.x.' ' ' IXIXIXIXIXIXIXIXKXHXGXZXvXdX;X^.f 0       UXUXUXUXUX",
"UXUXUXUXUXUXUX    M V A D u.a.g.h.j.k.~ ~ ' IXIXIXIXIXIXHXGXZXmXhXaX=X(.k 0 0     UXUXUXUXUXUXUX",
"UXUXUXUXUXUXUXUX      1 B 9.q.r.y.u.i.P Y W HXIXIXIXIXHXSXvXfX3X.Xm f : 0       UXUXUXUXUXUXUXUX",
"UXUXUXUXUXUXUXUXUXUX      6 7 8 9 8.0.S K T HXIXIXIXHXSXxX7XoXb u : 0       UXUXUXUXUXUXUXUXUXUX",
"UXUXUXUXUXUXUXUXUXUXUXUX      4 4 5 7 Z G U HXIXIXHXSXkX3X].s 0         UXUXUXUXUXUXUXUXUXUXUXUX",
"UXUXUXUXUXUXUXUXUXUXUXUXUXUX              ZXIXIXIXSXkX3X^.u       UXUXUXUXUXUXUXUXUXUXUXUXUXUXUX",
"UXUXUXUXUXUXUXUXUXUXUXUXUXUXUXUXUXUXUXUX  IXIXIXSXkX3X^.u 0   UXUXUXUXUXUXUXUXUXUXUXUXUXUXUXUXUX",
"UXUXUXUXUXUXUXUXUXUXUXUXUXUXUXUXUXUXUX* + IXIXIXxX1X^.u 0 3   UXUXUXUXUXUXUXUXUXUXUXUXUXUXUXUXUX",
"UXUXUXUXUXUXUXUXUXUXUXUXUXUXUXUXUXUXUXp 4XIXIXmX1XM t 0 3     UXUXUXUXUXUXUXUXUXUXUXUXUXUXUXUXUX",
"UXUXUXUXUXUXUXUXUXUXUXUXUXUXUXUXUXUX{.b IXIXSX;Xc 0 0 3     UXUXUXUXUXUXUXUXUXUXUXUXUXUXUXUXUXUX",
"UXUXUXUXUXUXUXUXUXUXUXUXUXUXUXUXUX#X(.cXIXZX#Xf 0 0 @     UXUXUXUXUXUXUXUXUXUXUXUXUXUXUXUXUXUXUX",
"UXUXUXUXUXUXUXUXUXUXUXUXUXUXUX.X(.n eXIXhX(.t 0 3       UXUXUXUXUXUXUXUXUXUXUXUXUXUXUXUXUXUXUXUX",
"UXUXUXUXUXUXUXUXUXUXUXUXUXk l g eXIXZX;Xl 3         UXUXUXUXUXUXUXUXUXUXUXUXUXUXUXUXUXUXUXUXUXUX",
"UXUXUXUXUXUXUXUXUXUX* : : * wXIXxX;.          UXUXUXUXUXUXUXUXUXUXUXUXUXUXUXUXUXUXUXUXUXUXUXUXUX",
"UXUXUXUXUXUXUXUXUXUXUX                UXUXUXUXUXUXUXUXUXUXUXUXUXUXUXUXUXUXUXUXUXUXUXUXUXUXUXUXUX",
"UXUXUXUXUXUXUXUXUXUXUXUXUXUXUXUXUXUXUXUXUXUXUXUXUXUXUXUXUXUXUXUXUXUXUXUXUXUXUXUXUXUXUXUXUXUXUXUX",
"UXUXUXUXUXUXUXUXUXUXUXUXUXUXUXUXUXUXUXUXUXUXUXUXUXUXUXUXUXUXUXUXUXUXUXUXUXUXUXUXUXUXUXUXUXUXUXUX",
"UXUXUXUXUXUXUXUXUXUXUXUXUXUXUXUXUXUXUXUXUXUXUXUXUXUXUXUXUXUXUXUXUXUXUXUXUXUXUXUXUXUXUXUXUXUXUXUX"
};
