/* XPM */
static char *magick[] = {
/* columns rows colors chars-per-pixel */
"48 48 256 2",
"   c Gray0",
".  c #0c0c0c",
"X  c #1b1b1b",
"o  c #0c2500",
"O  c #0c2600",
"+  c #0e2900",
"@  c #0f2d00",
"#  c #113400",
"$  c #123900",
"%  c #231600",
"&  c #2c1600",
"*  c #331600",
"=  c #351e00",
"-  c #381600",
";  c #3d1b00",
":  c #22301b",
">  c #22311b",
",  c #23341b",
"<  c #24321d",
"1  c #26341f",
"2  c #3d2100",
"3  c #272727",
"4  c Gray18",
"5  c #273620",
"6  c #2a3922",
"7  c #323232",
"8  c #373737",
"9  c #393939",
"0  c Gray24",
"q  c #3e3f3e",
"w  c #154100",
"e  c #164500",
"r  c #184a00",
"t  c #194e00",
"y  c #1a5000",
"u  c #1b5300",
"i  c #1c5600",
"p  c #1d5900",
"a  c #1f5e00",
"s  c #1f6100",
"d  c #2f4b22",
"f  c #33422c",
"g  c #384731",
"h  c #3f403f",
"j  c #3b4934",
"k  c #3f4e38",
"l  c #206200",
"z  c #216600",
"x  c #226900",
"c  c #236c00",
"v  c #246f00",
"b  c #257200",
"n  c #267400",
"m  c #277900",
"M  c #287a00",
"N  c #297e00",
"B  c #451600",
"V  c #451f00",
"C  c #4d2000",
"Z  c #562b00",
"A  c #5f3300",
"S  c #632c00",
"D  c #445f37",
"F  c #4e7939",
"G  c Gray25",
"H  c #434443",
"J  c Gray27",
"K  c #4e4e4e",
"L  c #535353",
"P  c #5a5b5a",
"I  c #5d5d5d",
"U  c #4d6641",
"Y  c #53634a",
"T  c #566d4a",
"R  c #5f615f",
"E  c #58734c",
"W  c #626262",
"Q  c #666766",
"!  c #666866",
"~  c #727271",
"^  c #777977",
"/  c Gray47",
"(  c #7b7d7b",
")  c #7c7c7c",
"_  c #002890",
"`  c #083898",
"'  c #103898",
"]  c #3d3dff",
"[  c #1848a0",
"{  c #2048a0",
"}  c #3868b0",
"|  c #2a8100",
" . c #2b8400",
".. c #2c8700",
"X. c #2d8a00",
"o. c #2e8c00",
"O. c #2e8f00",
"+. c #2f9000",
"@. c #2f9100",
"#. c #2f9200",
"$. c #309300",
"%. c #309400",
"&. c #319401",
"*. c #339604",
"=. c #369707",
"-. c #3f9c13",
";. c #4fa426",
":. c #5dab37",
">. c #698a5a",
",. c #7f807f",
"<. c #6ca252",
"1. c #74a95b",
"2. c #78a364",
"3. c #7fb466",
"4. c #be5300",
"5. c #cb5700",
"6. c #d55c00",
"7. c #d26900",
"8. c #df7000",
"9. c #da7c1e",
"0. c #e07000",
"q. c #e07101",
"w. c #e07203",
"e. c #e07204",
"r. c #e17306",
"t. c #e17407",
"y. c #e1760a",
"u. c #e1770c",
"i. c #e6731b",
"p. c #e27a12",
"a. c #e37c15",
"s. c #e37f1a",
"d. c #e97c2a",
"f. c #89c26d",
"g. c #8fc574",
"h. c #94c87b",
"j. c #e4811d",
"k. c #e48525",
"l. c #e58628",
"z. c #e5882a",
"x. c #e5882b",
"c. c #e68a2e",
"v. c #e68b30",
"b. c #e68d35",
"n. c #e98131",
"m. c #ea8438",
"M. c #e7913b",
"N. c #e89440",
"B. c #e89745",
"V. c #e9994a",
"C. c #ea9e53",
"Z. c #ed995a",
"A. c #ee9d61",
"S. c #eba156",
"D. c #eba158",
"F. c #eba35b",
"G. c #eba55e",
"H. c #efa065",
"J. c #eca661",
"K. c #efa76f",
"L. c #eca864",
"P. c #edab69",
"I. c #edae6f",
"U. c #eeaf70",
"Y. c #eeb275",
"T. c #efb378",
"R. c #efb57a",
"E. c #efb77e",
"W. c #f1ad7a",
"Q. c #848584",
"!. c #898989",
"~. c #8b8c8b",
"^. c #8d8d8d",
"/. c #8e8e8e",
"(. c #8e908e",
"). c Gray57",
"_. c Gray58",
"`. c #949694",
"'. c #979797",
"]. c #9d9d9d",
"[. c #9f9f9f",
"{. c #9fa29f",
"}. c Gray63",
"|. c #a3a5a3",
" X c Gray65",
".X c #a6a9a6",
"XX c #a9a9a9",
"oX c Gray67",
"OX c #acafac",
"+X c #aeb1ae",
"@X c #b2b5b2",
"#X c #b6b9b6",
"$X c #bbbdba",
"%X c #809cc8",
"&X c #98b4d8",
"*X c #a8bcd8",
"=X c #9dcc86",
"-X c #a9d395",
";X c #b0d69d",
":X c #bdc0bd",
">X c #b5d9a4",
",X c #b8cce0",
"<X c #e0b49a",
"1X c #e5b99c",
"2X c #f2b181",
"3X c #f3b588",
"4X c #f0b982",
"5X c #f0bc87",
"6X c #f3b88c",
"7X c #f1bd8a",
"8X c #e5bda3",
"9X c #e3bda9",
"0X c #c1c2bf",
"qX c #f3c787",
"wX c #f1c08e",
"eX c #f2c191",
"rX c #f2c496",
"tX c #f3c699",
"yX c #f4cc93",
"uX c #f4cf9b",
"iX c #e4c0ad",
"pX c #e8c2ab",
"aX c #e8c5af",
"sX c #e6c4b2",
"dX c #eac9b3",
"fX c #f6d4a4",
"gX c #ffff99",
"hX c #c3c7c3",
"jX c #c5c9c5",
"kX c #c8ccc8",
"lX c #ced2ce",
"zX c #d3d5d2",
"xX c #d7dad7",
"cX c #d9dcd9",
"vX c #c0cce0",
"bX c #dee1de",
"nX c #e3e6e3",
"mX c #e6e9e6",
"MX c #e9ede9",
"NX c #ecf0ec",
"BX c #eef2ee",
"VX c #f2f6f2",
"CX c #f4f8f4",
"ZX c #f5f9f5",
"AX c #f7fbf7",
"SX c #f8fbfa",
"DX c #fafbf8",
"FX c #f8fcf8",
"GX c #f9fcf9",
"HX c #f9fdf9",
"JX c #f9fcfa",
"KX c #fafcfb",
"LX c #fafdfa",
"PX c #fbfdfb",
"IX c #fbfdfc",
"UX c None",
/* pixels */
"UXUXUXUXUXUXUXUXUXUXUXUXUXUXUXUXUXUXUXUXUXUXUXUXUXUXUXUXUXUXUXUXUXUXUXUXUXUXUXUXUXUXUXUXUXUXUXUX",
"UXUXUXUXUXUXUXUXUXUXUXUXUXUXUXUXUXUXUXUXUXUXUXUXUXUXUXUXUXUXUXUXUXUXUXUXUXUXUXUXUXUXUXUXUXUXUXUX",
"UXUXUXUXUXUXUXUXUXUXUXUXUXUXUXUXUXUXUXUXUXUXUXUXUXUXUXUXUXUXUXUXUXUXUXUXUXUXUXUXUXUXUXUXUXUXUXUX",
"UXUXUXUXUXUXUXUXUXUXUXUXUXUXUX}.[._.).^.^.^.^.^.^.^.^.^.^.!.Q.) ~ UXUXUXUXUXUXUXUXUXUXUXUXUXUXUX",
"UXUXUXUXUXUXUXUXUXUXUXXX X}.[._.aXpX8X1X1X1X1X6X6X6X6X6X3X2XW.K.Q W W P UXUXUXUXUXUXUXUXUXUXUXUX",
"UXUXUXUXUXUXUXUXUXUXXX|.gXdXaXpX9XeX7X4XE.E.E.E.E.E.E.E.R.Y.I.H.A.A.Z.L L K UXUXUXUXUXUXUXUXUXUX",
"UXUXUXUXUXUXUXUXXXXX[.dXaXiXrXwX4XU.P.L.G.G.G.G.G.G.G.G.F.F.F.F.F.F.P.L.J.J G 0 UXUXUXUXUXUXUXUX",
"UXUXUXUXUXUXUXXX}.fXsXiXrX5XY.J.C.N.b.c.z.z.z.z.z.z.z.z.z.z.c.b.M.B.V.V.F.S.C.9 7 UXUXUXUXUXUXUX",
"UXUXUXUXUXXX X[.fXiXtX5XU.F.N.c.j.p.y.t.r.r.r.r.r.r.r.r.r.t.u.p.s.k.v.M.M.M.m.n.4 3 X UXUXUXUXUX",
"UXUXUXUX[.[.fXfX9XwXY.F.M.k.a.y.r.0.0.0.0.0.0.0.0.0.0.8.0.0.0.0.t.y.p.j.l.v.b.d.d.i..   UXUXUXUX",
"UXUXUXUX_.uXuXrX4XL.B.z.a.y.r.0.0.0.0.0.0.0.0.0.0.0.0.0.0.0.8.0.0.0.r.y.p.s.l.k.j.z.9.  UXUXUXUX",
"UXUXUX_.~.yXeXR.F.b.j.u.r.0.0.0.0.0.0.0.0.0.0.0.0.0.0.0.0.0.0.0.8.0.0.0.r.u.a.s.p.0.9.    UXUXUX",
"UXUX^.!.8XqXT.C.c.a.y.r.0.0.0.0.0.0.0.0.0.0.0.0.0.0.0.0.0.0.0.0.0.0.8.0.0.r.y.u.y.0.6.5.    UXUX",
"UXUXQ.1X<XE.S.c.p.r.0.0.0.0.0.0.0.0.0.0.0.0.0.0.0.0.0.0.0.0.0.0.0.0.0.8.0.0.0.0.r.8.7.5.4.  UXUX",
"UX~ ~ IXKXKXKXKXKXFXFXFXKXKXAXFXFXFXKXKXFXFX_ ` _ KXFXFXFXFXKXKXFXFXFXFXKXAXKXKXAXKXBXcXhX    UX",
"UXI KXKXKXKXKXKXFXFXFXFXKXAXFXFXFXFXFXFX` ' FX,XKX{ ` FXFXFXFXAXFXFXFXFXFXKXCXFXFXKXBXzX#X{.  UX",
"UXK KXKXKXKXFXFXFXFXFXFXFXFXFXFXFXFXFX_ KXKX} } } AXAX_ KXFXFXFXFXFXFXFXFXFXCXKXFXFXMXjX|.Q.  UX",
"UXH KXKXKXKXFXFXFXFXFXFXFXFXFXFXFXFX` KX[ &X*X` *X&X[ KX` FXFXFXFXKXFXFXFXFXKXCXFXFXmX:X_.~   UX",
"UX0 KXKXFXFXFXAXFXFXFXFXFXKXFXFXFXFX[ FX*X_ _ ` _ _ *XKX_ FXFXFXFXFXFXFXFXFXFXFXAXKXnX#X~.Q   UX",
"UX] KXKXFXKXKXAXFXKXFXFXFXFXFXFXFX` FX} ,X_ ` %X` _ ,X} FX` FXFXFXFXFXFXFXFXKXFXCXAXnX@XQ.R   UX",
"UX0 DXKXKXFXCXAXFXFXFXFXFXFXKXFXFX` ,X} ` ` %X` %X` ` } vX` FXFXFXFXFXFXFXFXKXKXAXAXbX+X,.P   UX",
"UX8 DXKXKXFXCXFXCXKXFXFXFXFXFXFXFX` FX} ,X_ ` %X` _ ,X} KX` FXFXFXFXFXFXFXFXFXAXAXCXxX|.~ K   UX",
"UX4 KXKXKXKXFXCXFXCXFXFXFXFXFXFXFXKX[ FX*X_ _ ` _ _ *XKX_ FXFXFXFXKXFXFXFXFXCXKXAXBXkX(.I G   UX",
"UXX CXBXVXVXVXCXFXCXFXFXFXFXFXFXFXFX` FX[ &X*X` *X&X[ FX` FXFXFXFXFXFXFXFXFXCXCXBXxX.X! h 0   UX",
"UX    zXxXbXmXBXCXCXCXKXKXFXFXFXFXFXFX_ FXKX} } } FXFX_ FXFXFXFXFXFXFXKXFXCXCXBXcX@X^ h 0     UX",
"UXUX  0X$XhXzXnXBXVXCXKXAXFXFXFXFXFXFXFX` _ KXvXFX_ ` FXFXFXFXFXFXFXFXCXCXVXMXcX#X,.H 0 0   UXUX",
"UXUX    |..X@XhXxXmXBXCXAXCXKXKXFXFXKXFXFXFX_ ` _ KXFXKXFXKXFXFXKXKXCXCXBXnXlX+X( H h h G   UXUX",
"UXUXUX    >.p l c M  .O.#.#.%.$.%.%.%.%.%.%.%.%.%.%.%.%.%.%.%.%.$.#.#.X. .n a w o o f     UXUXUX",
"UXUXUXUX  A S u i z b N ..O.#.#.$.$.%.%.%.%.%.%.%.%.%.%.%.%.$.#.#.O...M x u # o o * %   UXUXUXUX",
"UXUXUXUX    Z Z S t p z b N ..O.#.#.$.$.%.$.%.%.%.%.%.$.#.#.O.X. .M x p w + o B & :     UXUXUXUX",
"UXUXUXUXUX      U E e t i z b N  ...X.O.O.O.#.#.$.$.#.#.O...N n z i w @ o o g <       UXUXUXUXUX",
"UXUXUXUXUXUXUX    D U T w r u a z c v b M  .X.#.#.#.#.X.N b a t $ + o o j 6 :     UXUXUXUXUXUXUX",
"UXUXUXUXUXUXUXUX      2 V C $ w w e r u s n  .O.$.#.X.N x u $ o o o - & %       UXUXUXUXUXUXUXUX",
"UXUXUXUXUXUXUXUXUXUX      = ; ; + o + $ t x | O.%.#. .v u # o B * % %       UXUXUXUXUXUXUXUXUXUX",
"UXUXUXUXUXUXUXUXUXUXUXUX      6 6 f k Y >.2. .$.*.O.m a $ Y j 1         UXUXUXUXUXUXUXUXUXUXUXUX",
"UXUXUXUXUXUXUXUXUXUXUXUXUXUXUX            3.=.-.=. .x e o j       UXUXUXUXUXUXUXUXUXUXUXUXUXUXUX",
"UXUXUXUXUXUXUXUXUXUXUXUXUXUXUXUXUXUXUXUX  h.;.;.#.b t @ o :   UXUXUXUXUXUXUXUXUXUXUXUXUXUXUXUXUX",
"UXUXUXUXUXUXUXUXUXUXUXUXUXUXUXUXUXUXUXUX7 -X:.-.M u @ o < :   UXUXUXUXUXUXUXUXUXUXUXUXUXUXUXUXUX",
"UXUXUXUXUXUXUXUXUXUXUXUXUXUXUXUXUXUXUXI >X-X;.| t + o < :   UXUXUXUXUXUXUXUXUXUXUXUXUXUXUXUXUXUX",
"UXUXUXUXUXUXUXUXUXUXUXUXUXUXUXUXUXUXUX,.;X;.| t o o : :   UXUXUXUXUXUXUXUXUXUXUXUXUXUXUXUXUXUXUX",
"UXUXUXUXUXUXUXUXUXUXUXUXUXUXUXUXUXUX_.-Xh.M r o 5 : :   UXUXUXUXUXUXUXUXUXUXUXUXUXUXUXUXUXUXUXUX",
"UXUXUXUXUXUXUXUXUXUXUXUXUXUXUXUX[.!.=Xf.b D 5 : :     UXUXUXUXUXUXUXUXUXUXUXUXUXUXUXUXUXUXUXUXUX",
"UXUXUXUXUXUXUXUXUXUXUXUXUXUXQ./ =Xg.1.F d ,       UXUXUXUXUXUXUXUXUXUXUXUXUXUXUXUXUXUXUXUXUXUXUX",
"UXUXUXUXUXUXUXUXUXUXJ K K J g.f.<.F         UXUXUXUXUXUXUXUXUXUXUXUXUXUXUXUXUXUXUXUXUXUXUXUXUXUX",
"UXUXUXUXUXUXUXUXUXUXUX              UXUXUXUXUXUXUXUXUXUXUXUXUXUXUXUXUXUXUXUXUXUXUXUXUXUXUXUXUXUX",
"UXUXUXUXUXUXUXUXUXUXUXUXUXUXUXUXUXUXUXUXUXUXUXUXUXUXUXUXUXUXUXUXUXUXUXUXUXUXUXUXUXUXUXUXUXUXUXUX",
"UXUXUXUXUXUXUXUXUXUXUXUXUXUXUXUXUXUXUXUXUXUXUXUXUXUXUXUXUXUXUXUXUXUXUXUXUXUXUXUXUXUXUXUXUXUXUXUX",
"UXUXUXUXUXUXUXUXUXUXUXUXUXUXUXUXUXUXUXUXUXUXUXUXUXUXUXUXUXUXUXUXUXUXUXUXUXUXUXUXUXUXUXUXUXUXUXUX"
};
