/* XPM */
static char *magick[] = {
/* columns rows colors chars-per-pixel */
"48 48 198 2",
"   c Gray0",
".  c #0c0c0c",
"X  c #161616",
"o  c #1b1b1b",
"O  c #272727",
"+  c #2a2a2a",
"@  c Gray18",
"#  c #313131",
"$  c Gray21",
"%  c #373737",
"&  c #393939",
"*  c #3c3c3c",
"=  c Gray24",
"-  c #3f3f3f",
";  c #400000",
":  c #420000",
">  c #440000",
",  c #470000",
"<  c #4a0000",
"1  c #4e0000",
"2  c #500000",
"3  c #510000",
"4  c #570000",
"5  c #590000",
"6  c #5a0000",
"7  c #5d0000",
"8  c #620000",
"9  c #630000",
"0  c #680000",
"q  c #6b0000",
"w  c #6c0000",
"e  c #6f0000",
"r  c #710000",
"t  c #720000",
"y  c #740000",
"u  c #750000",
"i  c #780000",
"p  c #7a0000",
"a  c #7b0000",
"s  c #7d0000",
"d  c #7e0000",
"f  c Gray25",
"g  c Gray26",
"h  c Gray27",
"j  c #464646",
"k  c #494949",
"l  c #515151",
"z  c Gray33",
"x  c #585858",
"c  c #606060",
"v  c Gray39",
"b  c #676767",
"n  c #6d6d6d",
"m  c #6f6f6f",
"M  c Gray45",
"N  c #767676",
"B  c Gray47",
"V  c #797979",
"C  c #800000",
"Z  c #830000",
"A  c #840000",
"S  c #860000",
"D  c #890000",
"F  c #8a0000",
"G  c #8d0000",
"H  c #8f0000",
"J  c #920000",
"K  c #950000",
"L  c #960000",
"P  c #980000",
"I  c #9b0000",
"U  c #9c0000",
"Y  c #9f0000",
"T  c #a10000",
"R  c #a20000",
"E  c #a50000",
"W  c #a70000",
"Q  c #a80000",
"!  c #aa0000",
"~  c #ab0000",
"^  c #ad0000",
"/  c #b10000",
"(  c #b30000",
")  c #b40000",
"_  c #b60000",
"`  c #b70000",
"'  c #b90000",
"]  c #ba0000",
"[  c #bd0000",
"{  c #bf0000",
"}  c #c20000",
"|  c #c50000",
" . c #c60000",
".. c #c90000",
"X. c #cb0000",
"o. c #ce0000",
"O. c #d10000",
"+. c #d20000",
"@. c #d50000",
"#. c #d80000",
"$. c #da0000",
"%. c #db0000",
"&. c #de0000",
"*. c #e00000",
"=. c #e10000",
"-. c #e30000",
";. c #e40000",
":. c #e70000",
">. c #e90000",
",. c #ea0000",
"<. c #ec0000",
"1. c #ed0000",
"2. c #ef0000",
"3. c #f00000",
"4. c #f20000",
"5. c #f30000",
"6. c #f50000",
"7. c #f60000",
"8. c #f80000",
"9. c #f90000",
"0. c #fb0000",
"q. c #fc0000",
"w. c #fe0000",
"e. c Red",
"r. c #ff0101",
"t. c #ff0303",
"y. c #ff0404",
"u. c #ff0606",
"i. c #ff0707",
"p. c #ff0909",
"a. c #ff0d0d",
"s. c #ff0f0f",
"d. c #ff1010",
"f. c #ff1212",
"g. c #ff1313",
"h. c #ff1515",
"j. c #ff1818",
"k. c #ff1919",
"l. c #ff1b1b",
"z. c #ff2121",
"x. c #ff2525",
"c. c #ff2727",
"v. c #ff2828",
"b. c #ff2b2b",
"n. c #ff3131",
"m. c #ff3333",
"M. c #ff3939",
"N. c #ff3a3a",
"B. c #ff3c3c",
"V. c #ff4b4b",
"C. c #ff5555",
"Z. c #ff5d5d",
"A. c #ff5e5e",
"S. c #ff6767",
"D. c #ff7373",
"F. c #808080",
"G. c #818181",
"H. c Gray51",
"J. c #848484",
"K. c Gray53",
"L. c #888888",
"P. c #8b8b8b",
"I. c #8d8d8d",
"U. c #8e8e8e",
"Y. c Gray57",
"T. c #929292",
"R. c #939393",
"E. c #979797",
"W. c #9a9a9a",
"Q. c Gray61",
"!. c #9d9d9d",
"~. c #9f9f9f",
"^. c #a0a0a0",
"/. c Gray63",
"(. c #a2a2a2",
"). c Gray64",
"_. c #a5a5a5",
"`. c Gray65",
"'. c Gray66",
"]. c Gray68",
"[. c Gray70",
"{. c #b9b9b9",
"}. c #c3c3c3",
"|. c Gray81",
" X c #d5d5d5",
".X c #dddddd",
"XX c Gray87",
"oX c Gray88",
"OX c Gray89",
"+X c #e7e7e7",
"@X c #e9e9e9",
"#X c #ececec",
"$X c Gray93",
"%X c #f9f9f9",
"&X c #fbfbfb",
"*X c Gray99",
"=X c Gray100",
"-X c None",
/* pixels */
"-X-X-X-X-X-X-X-X-X-X-X-X-X-X-X-X-X-X-X-X-X-X-X-X-X-X-X-X-X-X-X-X-X-X-X-X-X-X-X-X-X-X-X-X-X-X-X-X",
"-X-X-X-X-X-X-X-X-X-X-X-X-X-X-X-X-X-X-X-X-X-X-X-X-X-X-X-X-X-X-X-X-X-X-X-X-X-X-X-X-X-X-X-X-X-X-X-X",
"-X-X-X-X-X-X-X-X-X-X-X-X-X-X-X-X-X-X-X-X-X-X-X-X-X-X-X-X-X-X-X-X-X-X-X-X-X-X-X-X-X-X-X-X-X-X-X-X",
"-X-X-X-X-X-X-X-X-X-X-X-X-X-X-X).~.E.R.U.U.U.U.U.U.U.U.U.U.P.G.B m -X-X-X-X-X-X-X-X-X-X-X-X-X-X-X",
"-X-X-X-X-X-X-X-X-X-X-X-X`.`.).~.=X=X=X=X=X=X=X=X=X=X=X=X=X=X=X=Xb c c x -X-X-X-X-X-X-X-X-X-X-X-X",
"-X-X-X-X-X-X-X-X-X-X'.`.).=X=X=X=X=X=X=X=X=X=X=X=X=X=X=X=X=X=X=X=X=X=Xz l k -X-X-X-X-X-X-X-X-X-X",
"-X-X-X-X-X-X-X-X'.'.).=X=X=X=X=X=X=X=X=X=X=X=X=X=X=X=X=X=X=X=X=X=X=X=X=X=Xj f - -X-X-X-X-X-X-X-X",
"-X-X-X-X-X-X-X'.`.=X=X=X=X=X=X=X=X=X=X=X=X=X=X=X=X=X=X=X=X=X=X=X=X=X=X=X=X=X=X$ # -X-X-X-X-X-X-X",
"-X-X-X-X-X).`.).=X=X=X=X=X=X=X=X=X=X=X=X=X=X=X=X=X=X=X=X=X=X=X=X=X=X=X=X=X=X=X=X@ O o -X-X-X-X-X",
"-X-X-X-XW.~.=X=X=X=X=X=X=X=X=X=X=X=X=X=X=X=X=X=X=X=X=X=X=X=X=X=X=X=X=X=X=X=X=X=X=X=X.   -X-X-X-X",
"-X-X-X-XE.=X=X=X=X=X=X=X=X=X=X=X=X=X=X=X=X=X=X=X=X=X=X=X=X=X=X=X=X=X=X=X=X=X=X=X=X=X=X  -X-X-X-X",
"-X-X-XR.U.=X=X=X=X=X=X=X=X=X=X=X=X=X=X=X=X=X=X=X=X=X=X=X=X=X=X=X=X=X=X=X=X=X=X=X=X=X&X    -X-X-X",
"-X-XP.P.=X=X=X=X=X=X=X=X=X=X=X=X=X=X=X=X=X=X=X=X=X=X=X=X=X=X=X=X=X=X=X=X=X=X=X=X=X=X&X@X    -X-X",
"-X-XJ.=X=X=X=X=X=X=X=X=X=X=X=X=X=X=X=X=X=X=X=X=X=X=X=X=X=X=X=X=X=X=X=X=X=X=X=X=X=X=X=X#X X  -X-X",
"-XM N =X=X=X=X=X=X=X=X=X=X=X=X=X=X=X=X=X=X=X=X=X=X=X=X=X=X=X=X=X=X=X=X=X=X=X=X=X=X=X=X#X|.    -X",
"-Xc =X=X=X=X=X=X=X=X=X=X=X=X=X=X=X=X=X=X=X=X=X=X=X=X=X=X=X=X=X=X=X=X=X=X=X=X=X=X=X=X=X+X}.).  -X",
"-Xl =X=X=X=X=X=X=X=X=X=X=X=X=X=X=X=X=X=X=X=X=X=X=X=X=X=X=X=X=X=X=X=X=X=X=X=X=X=X=X=X&XOX{.R.  -X",
"-Xj =X=X=X=X=X=X=X=X=X=X=X=X=X=X=X=X=X=X=X=X=X=X=X=X=X=X=X=X=X=X=X=X=X=X=X=X=X=X=X=X&XOX[.J.  -X",
"-X- =X=X=X=X=X=X=X=X=X=X=X=X=X=X=X=X=X=X=X=X=X=X=X=X=X=X=X=X=X=X=X=X=X=X=X=X=X=X=X=X&X.X].G.  -X",
"-X- =X=X=X=X=X=X=X=X=X=X=X=X=X=X=X=X=X=X=X=X=X=X=X=X=X=X=X=X=X=X=X=X=X=X=X=X=X=X=X=X&X.X].G.  -X",
"-X- M.n.j.y.e.e.e.e.e.e.e.e.e.e.e.e.e.e.e.e.e.e.e.e.e.e.e.e.e.e.e.e.e.e.e.e.e.e.e.e.8.%.Q s   -X",
"-X$ n.b.j.y.e.e.e.e.e.e.e.e.e.e.e.e.e.e.e.e.e.e.e.e.e.e.e.e.e.e.e.e.e.e.e.e.e.e.e.e.7.@.T u   -X",
"-X+ c.z.g.e.e.e.e.e.e.e.e.e.e.e.e.e.e.e.e.e.e.e.e.e.e.e.e.e.e.e.e.e.e.e.e.e.e.e.e.8.5.X.K q   -X",
"-XX g.g.p.e.e.e.e.e.e.e.e.e.e.e.e.e.e.e.e.e.e.e.e.e.e.e.e.e.e.e.e.e.e.e.e.e.e.e.e.7.-.( p 2   -X",
"-X    7.8.8.8.e.e.e.e.e.e.e.e.e.e.e.e.e.e.e.e.e.e.e.e.e.e.e.e.e.e.e.e.e.e.e.e.e.8.2.X.J 4     -X",
"-X-X  -.>.5.8.e.e.e.e.e.e.e.e.e.e.e.e.e.e.e.e.e.e.e.e.e.e.e.e.e.e.e.e.e.e.e.e.8.5.%.Q q ;   -X-X",
"-X-X    %.;.5.8.e.e.e.e.e.e.e.e.e.e.e.e.e.e.e.e.e.e.e.e.e.e.e.e.e.e.e.e.e.e.8.7.-.' s ,     -X-X",
"-X-X-X    O.&.>.5.7.e.e.e.e.e.e.e.e.e.e.e.e.e.e.e.e.e.e.e.e.e.e.e.e.e.e.e.8.5.-.[ F 1     -X-X-X",
"-X-X-X-X  _ [ o.&.2.7.8.e.e.e.e.e.e.e.e.e.e.e.e.e.e.e.e.e.e.e.e.e.e.e.8.7.>.@._ C 2 ;   -X-X-X-X",
"-X-X-X-X    I E ' O.-.2.7.8.e.e.e.e.e.e.e.e.e.e.e.e.e.e.e.e.e.e.e.8.7.2.&.| Y r ; ;     -X-X-X-X",
"-X-X-X-X-X      G E [ O.-.2.7.8.e.e.e.e.e.e.e.e.e.e.e.e.e.e.e.8.7.2.-.X.Q A 5 ;       -X-X-X-X-X",
"-X-X-X-X-X-X-X    s G T _ X.%.;.2.5.7.8.8.e.e.e.e.e.e.e.8.7.2.;.@.} E A 8 ; ;     -X-X-X-X-X-X-X",
"-X-X-X-X-X-X-X-X      r C J E _ [ X.O.%.;.5.8.e.e.e.e.8.5.-.o._ K p 5 ; ;       -X-X-X-X-X-X-X-X",
"-X-X-X-X-X-X-X-X-X-X      8 w u s F I ( O.>.8.e.e.e.e.7.-.| I u 1 ; ;       -X-X-X-X-X-X-X-X-X-X",
"-X-X-X-X-X-X-X-X-X-X-X-X      , < 5 r I | ;.8.e.e.e.8.>.X.I 8 ;         -X-X-X-X-X-X-X-X-X-X-X-X",
"-X-X-X-X-X-X-X-X-X-X-X-X-X-X-X            7.y.y.y.e.5.O.T 8       -X-X-X-X-X-X-X-X-X-X-X-X-X-X-X",
"-X-X-X-X-X-X-X-X-X-X-X-X-X-X-X-X-X-X-X-X  h.j.s.e.5.%.^ w ;   -X-X-X-X-X-X-X-X-X-X-X-X-X-X-X-X-X",
"-X-X-X-X-X-X-X-X-X-X-X-X-X-X-X-X-X-X-X-X& M.b.s.7.%.( u ; ;   -X-X-X-X-X-X-X-X-X-X-X-X-X-X-X-X-X",
"-X-X-X-X-X-X-X-X-X-X-X-X-X-X-X-X-X-X-Xc Z.V.c.8.O.Q r ; ;   -X-X-X-X-X-X-X-X-X-X-X-X-X-X-X-X-X-X",
"-X-X-X-X-X-X-X-X-X-X-X-X-X-X-X-X-X-X-XG.S.M.8.[ G 7 ; ;   -X-X-X-X-X-X-X-X-X-X-X-X-X-X-X-X-X-X-X",
"-X-X-X-X-X-X-X-X-X-X-X-X-X-X-X-X-X-XR.D.B.2.T q ; ; ;   -X-X-X-X-X-X-X-X-X-X-X-X-X-X-X-X-X-X-X-X",
"-X-X-X-X-X-X-X-X-X-X-X-X-X-X-X-XR.G.Z.j.| u ; ; ;     -X-X-X-X-X-X-X-X-X-X-X-X-X-X-X-X-X-X-X-X-X",
"-X-X-X-X-X-X-X-X-X-X-X-X-X-XB m C.z.%.G 2 ;       -X-X-X-X-X-X-X-X-X-X-X-X-X-X-X-X-X-X-X-X-X-X-X",
"-X-X-X-X-X-X-X-X-X-X& f f - c.e.X.F         -X-X-X-X-X-X-X-X-X-X-X-X-X-X-X-X-X-X-X-X-X-X-X-X-X-X",
"-X-X-X-X-X-X-X-X-X-X-X              -X-X-X-X-X-X-X-X-X-X-X-X-X-X-X-X-X-X-X-X-X-X-X-X-X-X-X-X-X-X",
"-X-X-X-X-X-X-X-X-X-X-X-X-X-X-X-X-X-X-X-X-X-X-X-X-X-X-X-X-X-X-X-X-X-X-X-X-X-X-X-X-X-X-X-X-X-X-X-X",
"-X-X-X-X-X-X-X-X-X-X-X-X-X-X-X-X-X-X-X-X-X-X-X-X-X-X-X-X-X-X-X-X-X-X-X-X-X-X-X-X-X-X-X-X-X-X-X-X",
"-X-X-X-X-X-X-X-X-X-X-X-X-X-X-X-X-X-X-X-X-X-X-X-X-X-X-X-X-X-X-X-X-X-X-X-X-X-X-X-X-X-X-X-X-X-X-X-X"
};
