/* XPM */
static char *magick[] = {
/* columns rows colors chars-per-pixel */
"48 48 253 2",
"   c Gray0",
".  c #0c0c0c",
"X  c #101010",
"o  c Gray9",
"O  c #1b1b1b",
"+  c #272727",
"@  c Gray17",
"#  c Gray18",
"$  c #313131",
"%  c Gray21",
"&  c #373737",
"*  c Gray22",
"=  c #3c3c3c",
"-  c #3e3e3e",
";  c #3d3d6e",
":  c #400000",
">  c #420000",
",  c #440000",
"<  c #470000",
"1  c #4a0000",
"2  c #4e0000",
"3  c #500000",
"4  c #510000",
"5  c #570000",
"6  c #590000",
"7  c #5a0000",
"8  c #5d0000",
"9  c #620000",
"0  c #630000",
"q  c #6b0000",
"w  c #6c0000",
"e  c #6f0000",
"r  c #710000",
"t  c #720000",
"y  c #740000",
"u  c #750000",
"i  c #780000",
"p  c #7a0000",
"a  c #7b0000",
"s  c #7d0000",
"d  c #7e0000",
"f  c Gray25",
"g  c #444444",
"h  c Gray27",
"j  c Gray29",
"k  c #505050",
"l  c #515151",
"z  c Gray33",
"x  c Gray35",
"c  c #5f5f5f",
"v  c #606060",
"b  c Gray38",
"n  c Gray39",
"m  c #676767",
"M  c #686868",
"N  c Gray43",
"B  c #717171",
"V  c Gray45",
"C  c Gray46",
"Z  c #797979",
"A  c #7c7c7c",
"S  c Gray",
"D  c #800000",
"F  c #830000",
"G  c #840000",
"H  c #860000",
"J  c #890000",
"K  c #8a0000",
"L  c #8d0000",
"P  c #8f0000",
"I  c #920000",
"U  c #960000",
"Y  c #980000",
"T  c #9b0000",
"R  c #9c0000",
"E  c #9f0000",
"W  c #a10000",
"Q  c #a50000",
"!  c #a70000",
"~  c #a80000",
"^  c #aa0000",
"/  c #ab0000",
"(  c #ad0000",
")  c #b10000",
"_  c #b30000",
"`  c #b40000",
"'  c #b60000",
"]  c #b70000",
"[  c #b90000",
"{  c #ba0000",
"}  c #bd0000",
"|  c #bf0000",
" . c #c20000",
".. c #c30000",
"X. c #c50000",
"o. c #c60000",
"O. c #c90000",
"+. c #cb0000",
"@. c #ce0000",
"#. c #cf0000",
"$. c #d10000",
"%. c #d20000",
"&. c #d50000",
"*. c #d80000",
"=. c #da0000",
"-. c #db0000",
";. c #de0000",
":. c #e00000",
">. c #e10000",
",. c #e30000",
"<. c #e40000",
"1. c #e70000",
"2. c #e90000",
"3. c #ea0000",
"4. c #ec0000",
"5. c #ed0000",
"6. c #ef0000",
"7. c #f00000",
"8. c #f20000",
"9. c #f30000",
"0. c #f50000",
"q. c #f60000",
"w. c #f80000",
"e. c #f90000",
"r. c #fb0000",
"t. c #fc0000",
"y. c #fe0000",
"u. c Red",
"i. c #ff0101",
"p. c #ff0303",
"a. c #ff0404",
"s. c #ff0606",
"d. c #ff0707",
"f. c #ff0909",
"g. c #ff0a0a",
"h. c #ff0c0c",
"j. c #ff0d0d",
"k. c #ff0f0f",
"l. c #ff1010",
"z. c #ff1212",
"x. c #ff1313",
"c. c #ff1515",
"v. c #ff1616",
"b. c #ff1818",
"n. c #ff1919",
"m. c #ff1b1b",
"M. c #ff1c1c",
"N. c #ff1e1e",
"B. c #ff1f1f",
"V. c #ff2121",
"C. c #ff2222",
"Z. c #ff2424",
"A. c #ff2525",
"S. c #ff2727",
"D. c #ff2828",
"F. c #ff2b2b",
"G. c #ff3030",
"H. c #ff3131",
"J. c #ff3333",
"K. c #ff3434",
"L. c #ff3636",
"P. c #ff3737",
"I. c #ff3939",
"U. c #ff3a3a",
"Y. c #ff3c3c",
"T. c #ff3d3d",
"R. c #ff3f3f",
"E. c #ff4242",
"W. c #ff4343",
"Q. c #ff4848",
"!. c #ff4949",
"~. c #ff4b4b",
"^. c #ff4c4c",
"/. c #ff5151",
"(. c #ff5555",
"). c #ff5858",
"_. c #ff5a5a",
"`. c #ff5b5b",
"'. c #ff5d5d",
"]. c #ff5e5e",
"[. c #ff6060",
"{. c #ff6363",
"}. c #ff6464",
"|. c #ff6767",
" X c #ff6969",
".X c #ff6c6c",
"XX c #ff6f6f",
"oX c #ff7070",
"OX c #ff7373",
"+X c #ff7676",
"@X c #ff7979",
"#X c #ff7b7b",
"$X c #ff7c7c",
"%X c #ff7e7e",
"&X c #ff7f7f",
"*X c #808080",
"=X c #818181",
"-X c Gray51",
";X c #848484",
":X c Gray53",
">X c #898989",
",X c Gray54",
"<X c Gray55",
"1X c #8d8d8d",
"2X c #8e8e8e",
"3X c Gray57",
"4X c #929292",
"5X c #939393",
"6X c #959595",
"7X c #979797",
"8X c #9b9b9b",
"9X c Gray61",
"0X c #9f9f9f",
"qX c #a0a0a0",
"wX c Gray63",
"eX c #a2a2a2",
"rX c #a4a4a4",
"tX c #a5a5a5",
"yX c Gray65",
"uX c Gray66",
"iX c #a9a9a9",
"pX c #aaaaaa",
"aX c Gray68",
"sX c #b9b9a0",
"dX c Gray70",
"fX c #b9b9b9",
"gX c #ff8181",
"hX c #ff8282",
"jX c #ff8787",
"kX c #ff8a8a",
"lX c #ff8d8d",
"zX c #ff8e8e",
"xX c #ff9191",
"cX c #ff9393",
"vX c #ff9494",
"bX c #ff9a9a",
"nX c #ff9c9c",
"mX c #cbcbcb",
"MX c #d5d5d5",
"NX c Gray86",
"BX c #dddddd",
"VX c Gray87",
"CX c Gray88",
"ZX c Gray89",
"AX c Gray94",
"SX c #f6f6f6",
"DX c #f8f8f8",
"FX c #f9f9f9",
"GX c #fbfbfb",
"HX c Gray99",
"JX c #fefefe",
"KX c Gray100",
"LX c None",
/* pixels */
"LXLXLXLXLXLXLXLXLXLXLXLXLXLXLXLXLXLXLXLXLXLXLXLXLXLXLXLXLXLXLXLXLXLXLXLXLXLXLXLXLXLXLXLXLXLXLXLX",
"LXLXLXLXLXLXLXLXLXLXLXLXLXLXLXLXLXLXLXLXLXLXLXLXLXLXLXLXLXLXLXLXLXLXLXLXLXLXLXLXLXLXLXLXLXLXLXLX",
"LXLXLXLXLXLXLXLXLXLXLXLXLXLXLXLXLXLXLXLXLXLXLXLXLXLXLXLXLXLXLXLXLXLXLXLXLXLXLXLXLXLXLXLXLXLXLXLX",
"LXLXLXLXLXLXLXLXLXLXLXLXLXLXLXwX0X7X5X<X<X<X<X<X<X<X5X<X<X,X-XZ N LXLXLXLXLXLXLXLXLXLXLXLXLXLXLX",
"LXLXLXLXLXLXLXLXLXLXLXuXrXrXwX8XvXlXkXgXgXgXgXgXgXgXgXgXgX&X+XXXM b b x LXLXLXLXLXLXLXLXLXLXLXLX",
"LXLXLXLXLXLXLXLXLXLXuXrXsXbXcXjX@XoX X}.{.{.{.{.{.{.{.{.{.{.'.).).).).z k j LXLXLXLXLXLXLXLXLXLX",
"LXLXLXLXLXLXLXLXuXuXwXbXlX&XXX).Q.T.L.G.G.G.G.G.G.G.G.G.G.G.G.L.T.W.Q.Q.Q.h f - LXLXLXLXLXLXLXLX",
"LXLXLXLXLXLXLXuXrXnXlX@X{.^.L.Z.M.x.j.f.f.f.f.f.f.f.f.f.f.f.j.x.m.V.D.L.T.T.T.* $ LXLXLXLXLXLXLX",
"LXLXLXLXLXrXrX0XvX&X}.Q.G.M.x.f.s.p.p.p.p.p.p.p.p.p.p.p.p.p.p.p.s.f.j.m.Z.D.G.L.# + O LXLXLXLXLX",
"LXLXLXLX8X0XbXkXXX/.L.M.j.s.s.p.p.p.p.p.p.p.p.p.p.p.p.p.p.p.p.p.p.p.p.s.j.c.V.Z.Z.M..   LXLXLXLX",
"LXLXLXLX7XcXgX}.W.Z.c.f.p.p.p.p.p.p.p.p.p.p.p.p.p.p.p.p.p.p.p.p.p.p.p.p.s.s.x.m.m.x.p.  LXLXLXLX",
"LXLXLX5X<X&X{.U.M.j.s.p.p.p.p.p.p.p.p.p.p.p.p.p.p.p.p.p.p.p.p.p.p.p.p.p.p.p.s.j.j.f.w.    LXLXLX",
"LXLX<X,X&X{.T.M.f.s.p.p.p.p.p.p.p.p.p.p.p.p.p.p.p.p.p.p.p.p.p.p.p.p.p.p.p.p.p.p.s.s.w.2.    LXLX",
"LXLX;X&XXXQ.Z.j.p.p.p.p.p.p.p.p.p.p.p.p.p.p.p.p.p.p.p.p.p.p.p.p.p.p.p.p.p.p.p.p.p.p.p.6.&.  LXLX",
"LXV C XX(.G.x.s.p.p.p.p.p.p.p.p.p.p.p.p.p.p.p.p.p.p.p.p.p.p.p.p.p.p.p.p.p.p.p.p.p.p.p.6.@.    LX",
"LXc {.).T.m.f.p.p.p.p.p.p.p.p.p.p.p.p.p.p.p.p.p.p.p.p.p.p.p.p.p.p.p.p.p.p.p.p.p.p.p.p.<. .W   LX",
"LXk JXJXJXJXJXJXJXJXJXJXJXJXJXJXJXJXJXJXJXJXJXJXJXJXJXJXJXJXJXJXJXJXJXJXJXJXJXJXJXJXGXZXfX5X  LX",
"LXh JXJXJXJXJXJXJXJXJXJXJXJXJXJXJXJXJXJXJXJXJXJXJXJXJXJXJXJXJXJXJXJXJXJXJXJXJXJXJXJXGXZXdX;X  LX",
"LX- JXJXJXJXJXJXJXJXJXJXJXJXJXJXJXJXJXJXJXJXJXJXJXJXJXJXJXJXJXJXJXJXJXJXJXJXJXJXJXJXGXVXaX-X  LX",
"LX; JXJXJXJXJXJXJXJXJXJXJXJXJXJXJXJXJXJXJXJXJXJXJXJXJXJXJXJXJXJXJXJXJXJXJXJXJXJXJXJXGXVXaX-X  LX",
"LX- JXJXJXJXJXJXJXJXJXJXJXJXJXJXJXJXJXJXJXJXJXJXJXJXJXJXJXJXJXJXJXJXJXJXJXJXJXJXJXJXGXNXuXA   LX",
"LX% JXJXJXJXJXJXJXJXJXJXJXJXJXJXJXJXJXJXJXJXJXJXJXJXJXJXJXJXJXJXJXJXJXJXJXJXJXJXJXJXSXMXwXC   LX",
"LX@ JXJXJXJXJXJXJXJXJXJXJXJXJXJXJXJXJXJXJXJXJXJXJXJXJXJXJXJXJXJXJXJXJXJXJXJXJXJXJXJXAXmX7XM   LX",
"LXo x.x.s.p.p.p.p.p.p.p.p.p.p.p.p.p.p.p.p.p.p.p.p.p.p.p.p.p.p.p.p.p.p.p.p.p.p.p.p.q.,._ i 3   LX",
"LX    q.w.w.w.p.p.p.p.p.p.p.p.p.p.p.p.p.p.p.p.p.p.p.p.p.p.p.p.p.p.p.p.p.p.p.p.p.w.6.+.I 5     LX",
"LXLX  ,.2.9.w.p.p.p.p.p.p.p.p.p.p.p.p.p.p.p.p.p.p.p.p.p.p.p.p.p.p.p.p.p.p.p.p.w.9.-.~ q :   LXLX",
"LXLX    -.<.9.w.p.p.p.p.p.p.p.p.p.p.p.p.p.p.p.p.p.p.p.p.p.p.p.p.p.p.p.p.p.p.w.q.,.[ s < X   LXLX",
"LXLXLX    $.;.2.9.q.p.p.p.p.p.p.p.p.p.p.p.p.p.p.p.p.p.p.p.p.p.p.p.p.p.p.p.w.9.,.} K 2     LXLXLX",
"LXLXLXLX  ' } @.;.6.q.w.p.p.p.p.p.p.p.p.p.p.p.p.p.p.p.p.p.p.p.p.p.p.p.w.q.2.&.' D 3 :   LXLXLXLX",
"LXLXLXLX    T Q [ $.,.6.q.w.p.p.p.p.p.p.p.p.p.p.p.p.p.p.p.p.p.p.p.w.q.6.;.X.E r : :     LXLXLXLX",
"LXLXLXLXLX      L Q } $.,.6.q.w.p.p.p.p.p.p.p.p.p.p.p.p.p.p.p.w.q.6.,.+.~ G 6 :       LXLXLXLXLX",
"LXLXLXLXLXLXLX    s L W ' +.-.<.6.9.q.w.w.p.p.p.p.p.p.p.w.q.6.<.&. .Q G 9 : :     LXLXLXLXLXLXLX",
"LXLXLXLXLXLXLXLX      r D I Q ' } +.$.-.<.9.w.p.p.p.p.w.9.,.@.' U i 6 : :       LXLXLXLXLXLXLXLX",
"LXLXLXLXLXLXLXLXLXLX      9 w u s K T _ $.2.w.p.p.p.p.q.,.X.T u 2 : :       LXLXLXLXLXLXLXLXLXLX",
"LXLXLXLXLXLXLXLXLXLXLXLX      < 1 6 r T X.<.w.p.p.p.w.2.+.T 9 :         LXLXLXLXLXLXLXLXLXLXLXLX",
"LXLXLXLXLXLXLXLXLXLXLXLXLXLXLX            q.s.s.p.p.9.$.W 9       LXLXLXLXLXLXLXLXLXLXLXLXLXLXLX",
"LXLXLXLXLXLXLXLXLXLXLXLXLXLXLXLXLXLXLXLX  c.m.j.p.9.-.( w :   LXLXLXLXLXLXLXLXLXLXLXLXLXLXLXLXLX",
"LXLXLXLXLXLXLXLXLXLXLXLXLXLXLXLXLXLXLXLX% U.D.j.q.-._ u : :   LXLXLXLXLXLXLXLXLXLXLXLXLXLXLXLXLX",
"LXLXLXLXLXLXLXLXLXLXLXLXLXLXLXLXLXLXLXb '.Q.Z.w.$.~ r : :   LXLXLXLXLXLXLXLXLXLXLXLXLXLXLXLXLXLX",
"LXLXLXLXLXLXLXLXLXLXLXLXLXLXLXLXLXLXLX-X}.U.w.} L 8 : :   LXLXLXLXLXLXLXLXLXLXLXLXLXLXLXLXLXLXLX",
"LXLXLXLXLXLXLXLXLXLXLXLXLXLXLXLXLXLX5XoXT.6.W q : : :   LXLXLXLXLXLXLXLXLXLXLXLXLXLXLXLXLXLXLXLX",
"LXLXLXLXLXLXLXLXLXLXLXLXLXLXLXLX7X;X'.m.X.u : : :     LXLXLXLXLXLXLXLXLXLXLXLXLXLXLXLXLXLXLXLXLX",
"LXLXLXLXLXLXLXLXLXLXLXLXLXLXA V (.V.-.L 3 :       LXLXLXLXLXLXLXLXLXLXLXLXLXLXLXLXLXLXLXLXLXLXLX",
"LXLXLXLXLXLXLXLXLXLX- h h - Z.p.+.K         LXLXLXLXLXLXLXLXLXLXLXLXLXLXLXLXLXLXLXLXLXLXLXLXLXLX",
"LXLXLXLXLXLXLXLXLXLXLX              LXLXLXLXLXLXLXLXLXLXLXLXLXLXLXLXLXLXLXLXLXLXLXLXLXLXLXLXLXLX",
"LXLXLXLXLXLXLXLXLXLXLXLXLXLXLXLXLXLXLXLXLXLXLXLXLXLXLXLXLXLXLXLXLXLXLXLXLXLXLXLXLXLXLXLXLXLXLXLX",
"LXLXLXLXLXLXLXLXLXLXLXLXLXLXLXLXLXLXLXLXLXLXLXLXLXLXLXLXLXLXLXLXLXLXLXLXLXLXLXLXLXLXLXLXLXLXLXLX",
"LXLXLXLXLXLXLXLXLXLXLXLXLXLXLXLXLXLXLXLXLXLXLXLXLXLXLXLXLXLXLXLXLXLXLXLXLXLXLXLXLXLXLXLXLXLXLXLX"
};
