/* XPM */
static char *magick[] = {
/* columns rows colors chars-per-pixel */
"48 48 256 2",
"   c Gray0",
".  c #0c0c0c",
"X  c #161616",
"o  c #1b1b1b",
"O  c #272727",
"+  c #2a2a2a",
"@  c Gray18",
"#  c #313131",
"$  c #373737",
"%  c #393939",
"&  c #3c3c3c",
"*  c Gray24",
"=  c #3f3f3f",
"-  c #000068",
";  c #000074",
":  c #404000",
">  c #424200",
",  c #454500",
"<  c #474700",
"1  c #4b4b00",
"2  c #505000",
"3  c #515100",
"4  c #535300",
"5  c #545400",
"6  c #565600",
"7  c #595900",
"8  c #5d5d00",
"9  c #5f5f00",
"0  c #606000",
"q  c #626200",
"w  c #636300",
"e  c #666600",
"r  c #686800",
"t  c #6b6b00",
"y  c #6c6c00",
"u  c #6f6f00",
"i  c #717100",
"p  c #757500",
"a  c #777700",
"s  c #787800",
"d  c #7b7b00",
"f  c #7e7e00",
"g  c Gray25",
"h  c Gray26",
"j  c #464646",
"k  c #494949",
"l  c #515151",
"z  c Gray33",
"x  c #585858",
"c  c #606060",
"v  c Gray39",
"b  c #676767",
"n  c #6d6d6d",
"m  c #6f6f6f",
"M  c Gray45",
"N  c #767676",
"B  c #797979",
"V  c #000084",
"C  c #000093",
"Z  c #00009f",
"A  c #0000a2",
"S  c #0000b6",
"D  c #0000bc",
"F  c #0000c1",
"G  c #0000c8",
"H  c #0000cc",
"J  c #0000d4",
"K  c #0000d8",
"L  c #0000de",
"P  c #0000ea",
"I  c #0000ec",
"U  c #0000f2",
"Y  c #0000f5",
"T  c #0000fc",
"R  c #0000fe",
"E  c Blue",
"W  c #0101ff",
"Q  c #0303ff",
"!  c #0404ff",
"~  c #0606ff",
"^  c #0707ff",
"/  c #0909ff",
"(  c #0c0cff",
")  c #0d0dff",
"_  c #1212ff",
"`  c #1313ff",
"'  c #1616ff",
"]  c #1818ff",
"[  c #1b1bff",
"{  c #1c1cff",
"}  c #1f1fff",
"|  c #2222ff",
" . c #2424ff",
".. c #2525ff",
"X. c #2727ff",
"o. c #2828ff",
"O. c #2a2aff",
"+. c #2b2bff",
"@. c #2e2eff",
"#. c #3030ff",
"$. c #3333ff",
"%. c #3434ff",
"&. c #3636ff",
"*. c #3939ff",
"=. c #3a3aff",
"-. c #3c3cff",
";. c #4040ff",
":. c #4242ff",
">. c #4343ff",
",. c #4646ff",
"<. c #4949ff",
"1. c #4c4cff",
"2. c #4e4eff",
"3. c #5252ff",
"4. c #5454ff",
"5. c #5555ff",
"6. c #5757ff",
"7. c #5858ff",
"8. c #5b5bff",
"9. c #5d5dff",
"0. c #6161ff",
"q. c #6363ff",
"w. c #6666ff",
"e. c #6d6dff",
"r. c #6f6fff",
"t. c #7070ff",
"y. c #7272ff",
"u. c #7373ff",
"i. c #7777ff",
"p. c #7b7bff",
"a. c #7c7cff",
"s. c #7f7fff",
"d. c #818100",
"f. c #838300",
"g. c #848400",
"h. c #868600",
"j. c #878700",
"k. c #8a8a00",
"l. c #8c8c00",
"z. c #909000",
"x. c #929200",
"c. c #969600",
"v. c #999900",
"b. c #9b9b00",
"n. c #9c9c00",
"m. c #9e9e00",
"M. c #a4a400",
"N. c #a5a500",
"B. c #a7a700",
"V. c #a8a800",
"C. c #aaaa00",
"Z. c #adad00",
"A. c #b2b200",
"S. c #b4b400",
"D. c #b6b600",
"F. c #b7b700",
"G. c #baba00",
"H. c #bcbc00",
"J. c #c0c000",
"K. c #c5c500",
"L. c #c6c600",
"P. c #c9c900",
"I. c #cbcb00",
"U. c #cece00",
"Y. c #cfcf00",
"T. c #d1d100",
"R. c #d2d200",
"E. c #d4d400",
"W. c #d7d700",
"Q. c #d8d800",
"!. c #dada00",
"~. c #dbdb00",
"^. c #dddd00",
"/. c #dede00",
"(. c #e1e100",
"). c #e3e300",
"_. c #e6e600",
"`. c #e9e900",
"'. c #eaea00",
"]. c #ecec00",
"[. c #eded00",
"{. c #efef00",
"}. c #f0f000",
"|. c #f2f200",
" X c #f3f300",
".X c #f5f500",
"XX c #f6f600",
"oX c #f8f800",
"OX c #f9f900",
"+X c #fbfb00",
"@X c #fcfc00",
"#X c #fefe00",
"$X c Yellow",
"%X c #ffff01",
"&X c #ffff03",
"*X c #ffff07",
"=X c #ffff0c",
"-X c #ffff10",
";X c #ffff13",
":X c #ffff16",
">X c #ffff19",
",X c #ffff1e",
"<X c #ffff22",
"1X c #ffff27",
"2X c #ffff2a",
"3X c #ffff2e",
"4X c #ffff33",
"5X c #ffff36",
"6X c #ffff3a",
"7X c #ffff3e",
"8X c #ffff42",
"9X c #ffff4c",
"0X c #ffff60",
"qX c #ffff66",
"wX c #ffff6f",
"eX c #ffff72",
"rX c #818181",
"tX c #848484",
"yX c #888888",
"uX c #8b8b8b",
"iX c #8d8d8d",
"pX c #8e8e8e",
"aX c Gray57",
"sX c #939393",
"dX c #979797",
"fX c #9a9a9a",
"gX c #9d9d9d",
"hX c #9f9f9f",
"jX c #a0a0a0",
"kX c #a2a2a2",
"lX c Gray64",
"zX c #a5a5a5",
"xX c Gray65",
"cX c Gray66",
"vX c #8282ff",
"bX c #8484ff",
"nX c #8787ff",
"mX c #8888ff",
"MX c #8b8bff",
"NX c #8d8dff",
"BX c #8e8eff",
"VX c #9191ff",
"CX c #9393ff",
"ZX c #9494ff",
"AX c #9696ff",
"SX c #9797ff",
"DX c #9999ff",
"FX c #9d9dff",
"GX c #9f9fff",
"HX c #a0a0ff",
"JX c #a3a3ff",
"KX c #a6a6ff",
"LX c #a8a8ff",
"PX c #a9a9ff",
"IX c #ababff",
"UX c None",
/* pixels */
"UXUXUXUXUXUXUXUXUXUXUXUXUXUXUXUXUXUXUXUXUXUXUXUXUXUXUXUXUXUXUXUXUXUXUXUXUXUXUXUXUXUXUXUXUXUXUXUX",
"UXUXUXUXUXUXUXUXUXUXUXUXUXUXUXUXUXUXUXUXUXUXUXUXUXUXUXUXUXUXUXUXUXUXUXUXUXUXUXUXUXUXUXUXUXUXUXUX",
"UXUXUXUXUXUXUXUXUXUXUXUXUXUXUXUXUXUXUXUXUXUXUXUXUXUXUXUXUXUXUXUXUXUXUXUXUXUXUXUXUXUXUXUXUXUXUXUX",
"UXUXUXUXUXUXUXUXUXUXUXUXUXUXUXlXhXdXsXpXpXpXpXpXpXpXpXpXpXuXrXB m UXUXUXUXUXUXUXUXUXUXUXUXUXUXUX",
"UXUXUXUXUXUXUXUXUXUXUXUXxXxXlXhXJXGXDXCXNXNXNXNXNXNXNXNXMXbXs.y.b c c x UXUXUXUXUXUXUXUXUXUXUXUX",
"UXUXUXUXUXUXUXUXUXUXcXxXlXLXKXGXDXNXbXs.p.p.p.p.p.p.p.p.i.y.e.w.q.q.7.z l k UXUXUXUXUXUXUXUXUXUX",
"UXUXUXUXUXUXUXUXcXcXlXLXKXJXZXMXp.e.q.9.7.7.7.7.7.7.7.7.6.6.6.6.6.6.3.3.2.j g = UXUXUXUXUXUXUXUX",
"UXUXUXUXUXUXUXcXxXLXLXGXCXvXe.6.,.%.O...| | | | | | | | | | O.@.*.>.,.<.,.>.*.$ # UXUXUXUXUXUXUX",
"UXUXUXUXUXlXxXlXLXJXZXvXw.2.%.| _ / ^ W W W W W W W W W W W ^ ) _ { O.%.*.*.*.$.@ O o UXUXUXUXUX",
"UXUXUXUXfXhXLXKXGXMXe.2.@.[ ) ^ W W W W W W W W W W W W W W W W W ^ ) [ | @.%.@...[ .   UXUXUXUX",
"UXUXUXUXdXGXGXCXp.7.*.{ ) ^ W W W W W W W W W W W W W W W W W W W W W ^ ) ' ....{ ) Y   UXUXUXUX",
"UXUXUXsXpXZXNXy.2.O._ ^ W W W W W W W W W W W W W W W W W W W W W W W W W ^ _ ' _ ^ I     UXUXUX",
"UXUXuXuXZXMXy.<...) W W W W W W W W W W W W W W W W W W W W W W W W W W W W ^ / / W P L     UXUX",
"UXUXtXNXMXi.2...) W W W W W W W W W W W W W W W W W W W W W W W W W W W W W W W W W P K H   UXUX",
"UXM N bXp.9.$._ ^ W W W W W W W W W W W W W W W W W W W W W W W W W W W W W W W W W U K F     UX",
"UXc y.y.w.>.{ ^ W W W W W W W W W W W W W W W W W W W W W W W W W W W W W W W W W ^ U J S Z   UX",
"UXl 9.7.2.O./ W W W W W W W W W W W W W W W W W W W W W W W W W W W W W W W W W W W I G A V   UX",
"UXj 2.2.-.{ ^ W W W W W W W W W W W W W W W W W W W W W W W W W W W W W W W W W W W I F C ;   UX",
"UX= >.>.$.' W W W W W W W W W W W W W W W W W W W W W W W W W W W W W W W W W W W W P D C -   UX",
"UX= 7X6X3X-X$X$X$X$X$X$X$X$X$X$X$X$X$X$X$X$X$X$X$X$X$X$X$X$X$X$X$X$X$X$X$X$X$X$X$X$X'.G.k.q   UX",
"UX= 5X5X2X-X$X$X$X$X$X$X$X$X$X$X$X$X$X$X$X$X$X$X$X$X$X$X$X$X$X$X$X$X$X$X$X$X$X$X$X$X_.A.d.8   UX",
"UX$ 3X2X<X-X$X$X$X$X$X$X$X$X$X$X$X$X$X$X$X$X$X$X$X$X$X$X$X$X$X$X$X$X$X$X$X$X$X$X$X+X/.V.p 2   UX",
"UX+ >X>X:X=X$X$X$X$X$X$X$X$X$X$X$X$X$X$X$X$X$X$X$X$X$X$X$X$X$X$X$X$X$X$X$X$X$X$X$X|.Y.x.8 :   UX",
"UXX $X+X+X+X+X$X$X$X$X$X$X$X$X$X$X$X$X$X$X$X$X$X$X$X$X$X$X$X$X$X$X$X$X$X$X$X$X$X+X).Z.r : :   UX",
"UX    )._.|..X+X$X$X$X$X$X$X$X$X$X$X$X$X$X$X$X$X$X$X$X$X$X$X$X$X$X$X$X$X$X$X$X+X{.K.j.< :     UX",
"UXUX  T.E.).{.+X$X$X$X$X$X$X$X$X$X$X$X$X$X$X$X$X$X$X$X$X$X$X$X$X$X$X$X$X$X$X$X|.E.m.7 : :   UXUX",
"UXUX    J.I.Q.'.|.+X$X$X$X$X$X$X$X$X$X$X$X$X$X$X$X$X$X$X$X$X$X$X$X$X$X$X$X+X|.Q.V.r : :     UXUX",
"UXUXUX    S.H.I.Q.'..X$X$X$X$X$X$X$X$X$X$X$X$X$X$X$X$X$X$X$X$X$X$X$X$X$X+X'.T.M.r : :     UXUXUX",
"UXUXUXUX  V.m.M.S.I.).|.+X+X$X$X$X$X$X$X$X$X$X$X$X$X$X$X$X$X$X$X$X$X+X|./.J.c.8 : : :   UXUXUXUX",
"UXUXUXUX    j.f j.v.S.T.).{.+X$X$X$X$X$X$X$X$X$X$X$X$X$X$X$X$X$X$X|.).I.M.p < : : :     UXUXUXUX",
"UXUXUXUXUX      u p j.m.S.Y.).{.+X$X$X$X$X$X$X$X$X$X$X$X$X+X.X'.Q.K.M.d.6 : : :       UXUXUXUXUX",
"UXUXUXUXUXUXUX    q e u d.v.A.K.T.Q./.).'.|.+X$X$X$X$X+X|.).Y.S.c.s 2 : : : :     UXUXUXUXUXUXUX",
"UXUXUXUXUXUXUXUX      6 8 r s j.l.x.m.Z.K./.{.+X$X$X+X{.Q.S.x.r 1 : : : :       UXUXUXUXUXUXUXUX",
"UXUXUXUXUXUXUXUXUXUX      2 2 2 2 6 q f M.Y.{.$X$X$X.X).H.d.2 : : : :       UXUXUXUXUXUXUXUXUXUX",
"UXUXUXUXUXUXUXUXUXUXUXUX      : : : : q v.I.{.$X$X$X{.I.x.1 : :         UXUXUXUXUXUXUXUXUXUXUXUX",
"UXUXUXUXUXUXUXUXUXUXUXUXUXUXUX            '.*X-X*X+X/.M.e :       UXUXUXUXUXUXUXUXUXUXUXUXUXUXUX",
"UXUXUXUXUXUXUXUXUXUXUXUXUXUXUXUXUXUXUXUX  ,X1X,X*X_.H.s : :   UXUXUXUXUXUXUXUXUXUXUXUXUXUXUXUXUX",
"UXUXUXUXUXUXUXUXUXUXUXUXUXUXUXUXUXUXUXUX% 9X7X,X{.G.d.: : :   UXUXUXUXUXUXUXUXUXUXUXUXUXUXUXUXUX",
"UXUXUXUXUXUXUXUXUXUXUXUXUXUXUXUXUXUXUXc eX0X5X.XZ.i : : :   UXUXUXUXUXUXUXUXUXUXUXUXUXUXUXUXUXUX",
"UXUXUXUXUXUXUXUXUXUXUXUXUXUXUXUXUXUXUXrXwX7X{.v.6 : : :   UXUXUXUXUXUXUXUXUXUXUXUXUXUXUXUXUXUXUX",
"UXUXUXUXUXUXUXUXUXUXUXUXUXUXUXUXUXUXsXqX4XQ.d.: : : :   UXUXUXUXUXUXUXUXUXUXUXUXUXUXUXUXUXUXUXUX",
"UXUXUXUXUXUXUXUXUXUXUXUXUXUXUXUXsXrX9X-XG.q : : :     UXUXUXUXUXUXUXUXUXUXUXUXUXUXUXUXUXUXUXUXUX",
"UXUXUXUXUXUXUXUXUXUXUXUXUXUXB m 8X>XQ.l.1 :       UXUXUXUXUXUXUXUXUXUXUXUXUXUXUXUXUXUXUXUXUXUXUX",
"UXUXUXUXUXUXUXUXUXUX% g g = :X$XQ.M.        UXUXUXUXUXUXUXUXUXUXUXUXUXUXUXUXUXUXUXUXUXUXUXUXUXUX",
"UXUXUXUXUXUXUXUXUXUXUX              UXUXUXUXUXUXUXUXUXUXUXUXUXUXUXUXUXUXUXUXUXUXUXUXUXUXUXUXUXUX",
"UXUXUXUXUXUXUXUXUXUXUXUXUXUXUXUXUXUXUXUXUXUXUXUXUXUXUXUXUXUXUXUXUXUXUXUXUXUXUXUXUXUXUXUXUXUXUXUX",
"UXUXUXUXUXUXUXUXUXUXUXUXUXUXUXUXUXUXUXUXUXUXUXUXUXUXUXUXUXUXUXUXUXUXUXUXUXUXUXUXUXUXUXUXUXUXUXUX",
"UXUXUXUXUXUXUXUXUXUXUXUXUXUXUXUXUXUXUXUXUXUXUXUXUXUXUXUXUXUXUXUXUXUXUXUXUXUXUXUXUXUXUXUXUXUXUXUX"
};
