/* XPM */
static char *magick[] = {
/* columns rows colors chars-per-pixel */
"48 48 26 1",
"  c Gray0",
". c #313163",
"X c #333366",
"o c #666600",
"O c #002e8b",
"+ c #002f8d",
"@ c #002f8f",
"# c #003193",
"$ c #003297",
"% c #003399",
"& c #339900",
"* c #cb3200",
"= c #cc3300",
"- c #cb3232",
"; c #cc3333",
": c #fc6464",
"> c #fe6565",
", c #ff9966",
"< c Gray74",
"1 c #ff9999",
"2 c #fcc997",
"3 c #ffcc99",
"4 c #fdcaca",
"5 c #ffcccc",
"6 c Gray100",
"7 c None",
/* pixels */
"777777777777777777777777777777777777777777777777",
"777777777777777777777777777777777777777777777777",
"777777777777777                  777777777777777",
"777777777777    %%%%%%%%%%%%%%%%    777777777777",
"7777777777   %%%%%%%%%%%%%%%%%%%%%%   7777777777",
"77777777   %%%%%%%%%%%%%%%%%%%%%%%%%%   77777777",
"7777777  %%%%%%%%%%%%%%%%%%%%%%%%%%%%%%  7777777",
"77777   %%%%%%%%%%%%%%%%%%%%%%%%%%%%%%%%   77777",
"7777  %%%%%%%%%%%%%%%%%%%%%%%%%%%%%%%%%%%%  7777",
"7777 %%%%%%%%%%%%%%%%%%%%%%%%%%%%%%%%%%%%%% 7777",
"777  %%%%%%%%%%%%%%%%%%%%%%%%%%%%%%%%%%%%%%  777",
"77  %%%%%%%%%%%%%%%%%%%%%%%%%%%%%%%%%%%%%%%%  77",
"77 %%%%%%%%%%%%%%%%%%%%%%%%%%%%%%%%%%%%%%%%%% 77",
"7  %%%%%%%%%%%%%%%%%%%%%%%%%%%%%%%%%%%%%%%%%%  7",
"7 XXXXXXXXXXXXXXXXXXXXXXXXXXXXXXXXXXXXXXXXXXXX 7",
"7 ==================:442:******=============== 7",
"7 ================;561---:****================ 7",
"7 ================56,===***;================== 7",
"7 ===============;65======151:================ 7",
"7 ===============:61=====;566:================ 7",
"7 ===============:61=====;566:================ 7",
"7 ===============;65======151:================ 7",
"7 ================56,======;================== 7",
"7  ===============;561;;;:===================  7",
"77 =================:553:==================== 77",
"77  oooooooooooooooooooooooooooooooooooooooo  77",
"777  &&&&&&&&&&&&&&&&&&&&&&&&&&&&&&&&&&&&&&  777",
"7777 &&&&&&&&&&&&&&&&&&&&&&&&&&&&&&&&&&&&&& 7777",
"7777  &&&&&&&&&&&&&&&&&&&&&&&&&&&&&&&&&&&&  7777",
"77777   &&&&&&&&&&&&&&&&&&&&&&&&&&&&&&&&   77777",
"7777777  &&&&&&&&&&&&&&&&&&&&&&&&&&&&&&  7777777",
"77777777   &&&&&&&&&&&&&&&&&&&&&&&&&&   77777777",
"7777777777   &&&&&&&&&&&&&&&&&&&&&&   7777777777",
"777777777777   &&&&&&&&&&&&&&&&&    777777777777",
"777777777777777      &&&&&&&&&   777777777777777",
"77777777777777777777 &&&&&&&&& 77777777777777777",
"77777777777777777777 &&&&&&&&& 77777777777777777",
"7777777777777777777 &&&&&&&&& 777777777777777777",
"7777777777777777777 &&&&&&&& 7777777777777777777",
"777777777777777777 &&&&&&&& 77777777777777777777",
"7777777777777777  &&&&&&&  777777777777777777777",
"77777777777777  &&&&&&   77777777777777777777777",
"7777777777    &&&&    77777777777777777777777777",
"77777777777       777777777777777777777777777777",
"777777777777777777777777777777777777777777777777",
"777777777777777777777777777777777777777777777777",
"777777777777777777777777777777777777777777777777",
"777777777777777777777777777777777777777777777777"
};
