/* XPM */
static char *magick[] = {
/* columns rows colors chars-per-pixel */
"48 48 256 2",
"   c Gray0",
".  c #010101",
"X  c Gray1",
"o  c #040404",
"O  c #060606",
"+  c Gray4",
"@  c Gray5",
"#  c Gray6",
"$  c #101010",
"%  c Gray7",
"&  c #131313",
"*  c #151515",
"=  c #181818",
"-  c Gray11",
";  c #222222",
":  c #252525",
">  c #272727",
",  c #282828",
"<  c #2a2a2a",
"1  c Gray18",
"2  c #313131",
"3  c Gray20",
"4  c #373737",
"5  c #393939",
"6  c #3a3a3a",
"7  c Gray24",
"8  c #005c00",
"9  c #005e00",
"0  c #006100",
"q  c #006700",
"w  c #006a00",
"e  c #006e00",
"r  c #007200",
"t  c #007500",
"y  c #007a00",
"u  c #007c00",
"i  c #007d00",
"p  c #007e00",
"a  c Gray25",
"s  c #434343",
"d  c #464646",
"f  c #494949",
"g  c #4b4b4b",
"h  c #4c4c4c",
"j  c Gray31",
"k  c Gray32",
"l  c #555555",
"z  c #5b5b5b",
"x  c Gray37",
"c  c Gray38",
"v  c Gray39",
"b  c Gray40",
"n  c #6d6d6d",
"m  c #6f6f6f",
"M  c Gray44",
"N  c #727272",
"B  c Gray46",
"V  c Gray49",
"C  c #00009e",
"Z  c #0000a0",
"A  c #0000a3",
"S  c #0000a6",
"D  c #0000a9",
"F  c #0000ab",
"G  c #0000ae",
"H  c #0000b3",
"J  c #0000b4",
"K  c #0000b5",
"L  c #0000b7",
"P  c #0000bd",
"I  c #0000c2",
"U  c #0000c4",
"Y  c #0000c6",
"T  c #0000c9",
"R  c #0000ca",
"E  c #0000ce",
"W  c #0000d1",
"Q  c #0000d3",
"!  c #0000d7",
"~  c #0000d8",
"^  c #0000da",
"/  c #0000dc",
"(  c #0000de",
")  c #0000e0",
"_  c #0000e4",
"`  c #0000e6",
"'  c #0000e8",
"]  c #0000ea",
"[  c #0000eb",
"{  c #0000ec",
"}  c #0000ee",
"|  c #0000f0",
" . c #0000f1",
".. c #0000f2",
"X. c #0000f4",
"o. c #0000f5",
"O. c #0000f6",
"+. c #0000f7",
"@. c #0000f8",
"#. c #0000fa",
"$. c #0000fb",
"%. c #0000fc",
"&. c #0000fd",
"*. c #0000fe",
"=. c Blue",
"-. c #0101ff",
";. c #0303ff",
":. c #0404ff",
">. c #0707ff",
",. c #0a0aff",
"<. c #0d0dff",
"1. c #1212ff",
"2. c #1818ff",
"3. c #1f1fff",
"4. c #2424ff",
"5. c #2a2aff",
"6. c #3131ff",
"7. c #4040ff",
"8. c #4646ff",
"9. c #4949ff",
"0. c #5151ff",
"q. c #008000",
"w. c #008200",
"e. c #018201",
"r. c #038303",
"t. c #078507",
"y. c #0f890f",
"u. c #1b8f1b",
"i. c #1f911f",
"p. c #2e992e",
"a. c #43a343",
"s. c #5aae5a",
"d. c #5eb05e",
"f. c #71ba71",
"g. c #c60000",
"h. c #ce0000",
"j. c #d60000",
"k. c #db0000",
"l. c #e10000",
"z. c #e60000",
"x. c #ed0000",
"c. c #f10000",
"v. c #f70000",
"b. c #fa0000",
"n. c #fd0000",
"m. c Red",
"M. c #ff0101",
"N. c #ff0303",
"B. c #ff0404",
"V. c #ff0606",
"C. c #ff0707",
"Z. c #ff0909",
"A. c #ff0d0d",
"S. c #ff0f0f",
"D. c #ff1111",
"F. c #ff1616",
"G. c #ff1919",
"H. c #ff1b1b",
"J. c #ff1c1c",
"K. c #ff1e1e",
"L. c #ff2222",
"P. c #ff2424",
"I. c #ff2727",
"U. c #ff2828",
"Y. c #ff2a2a",
"T. c #ff3030",
"R. c #ff3535",
"E. c #ff3939",
"W. c #ff3e3e",
"Q. c #ff4040",
"!. c #ff4949",
"~. c #ff4b4b",
"^. c #ff4c4c",
"/. c #ff4e4e",
"(. c #ff5353",
"). c #ff5d5d",
"_. c #ff6060",
"`. c #ff6666",
"'. c #ff6a6a",
"]. c #ff6c6c",
"[. c #ff6f6f",
"{. c #ff7373",
"}. c #ff7979",
"|. c #ff7c7c",
" X c #c3c300",
".X c #cbcb00",
"XX c #d0d000",
"oX c #d7d700",
"OX c #e0e000",
"+X c #ebeb00",
"@X c #f1f100",
"#X c #f7f700",
"$X c #fbfb00",
"%X c #fdfd00",
"&X c #fefe00",
"*X c Yellow",
"=X c #ffff01",
"-X c #ffff03",
";X c #ffff04",
":X c #ffff0a",
">X c #ffff10",
",X c #ffff16",
"<X c #ffff1f",
"1X c #ffff34",
"2X c #ffff45",
"3X c #ffff52",
"4X c #ffff60",
"5X c #ffff7b",
"6X c Gray51",
"7X c Gray52",
"8X c Gray53",
"9X c #888888",
"0X c #8b8b8b",
"qX c #8d8d8d",
"wX c #8e8e8e",
"eX c #929292",
"rX c Gray58",
"tX c #979797",
"yX c Gray60",
"uX c #9d9d9d",
"iX c #a0a0a0",
"pX c Gray64",
"aX c #a5a5a5",
"sX c Gray66",
"dX c Gray67",
"fX c #acacac",
"gX c #afafaf",
"hX c Gray75",
"jX c #84c384",
"kX c #93ca93",
"lX c #9dcf9d",
"zX c #9fd09f",
"xX c #ff8181",
"cX c #ff8282",
"vX c #ff8484",
"bX c #ff8b8b",
"nX c #ff8e8e",
"mX c #ff9696",
"MX c #ffff87",
"NX c #ffff90",
"BX c #ffff99",
"VX c #ffffa3",
"CX c #c3c3c3",
"ZX c Gray80",
"AX c #d3d3d3",
"SX c #d8d8d8",
"DX c Gray88",
"FX c #e6e6e6",
"GX c Gray92",
"HX c #efefef",
"JX c Gray97",
"KX c #f9f9f9",
"LX c Gray99",
"PX c #fefefe",
"IX c Gray100",
"UX c None",
/* pixels */
"UXUXUXUXUXUXUXUXUXUXUXUXUXUXUXUXUXUXUXUXUXUXUXUXUXUXUXUXUXUXUXUXUXUXUXUXUXUXUXUXUXUXUXUXUXUXUXUX",
"UXUXUXUXUXUXUXUXUXUXUXUXUXUXUXUXUXUXUXUXUXUXUXUXUXUXUXUXUXUXUXUXUXUXUXUXUXUXUXUXUXUXUXUXUXUXUXUX",
"UXUXUXUXUXUXUXUXUXUXUXUXUXUXUXiXuXyXtXeXqXqXqXqXqXqXqXqXqX0X8XV N UXUXUXUXUXUXUXUXUXUXUXUXUXUXUX",
"UXUXUXUXUXUXUXUXUXUXUXUXdXaXiXuXmXnXbXvXxXxXxXxXxXxXxXxXxX|.}.{.m b c z UXUXUXUXUXUXUXUXUXUXUXUX",
"UXUXUXUXUXUXUXUXUXUXfXdXaXIXIXbXxX}.{.[.[.[.[.[.[.[.'.[.'.'.`.`._.).).l h h UXUXUXUXUXUXUXUXUXUX",
"UXUXUXUXUXUXUXUXfXdXaXlXkXIXIXIX).(.(.^.!.!.!.!.!.!.!.!.!.!.!.!.!.^.^.^.^.d a 5 UXUXUXUXUXUXUXUX",
"UXUXUXUXUXUXUXdXdXzXkXjXf.d.IXIXIXI.L.K.K.H.H.H.K.K.H.H.H.K.K.L.U.T.E.W.W.Q.W.4 1 UXUXUXUXUXUXUX",
"UXUXUXUXUXdXdXVXBXMXf.s.a.p.i.IXIXIXN.N.N.N.N.N.N.N.N.N.N.N.N.V.A.D.H.I.U.R.R.R.< ; = UXUXUXUXUX",
"UXUXUXUXiXiXuXNX5X4X2Xp.u.y.t.w.IXIXIXN.N.N.N.N.N.N.N.N.N.N.N.N.N.N.V.Z.F.K.U.U.L.H.+   UXUXUXUX",
"UXUXUXUXuXtX0XN 3X1X<X>Xt.w.w.w.w.IXIXIXN.N.N.N.N.N.N.N.N.N.N.N.N.N.N.N.V.A.F.H.H.D.N.  UXUXUXUX",
"UXUXUXtXeX8Xm h 1 ,X:X;X=Xw.w.w.w.w.IXIXIXN.N.N.N.N.N.N.N.N.N.N.N.N.N.N.N.N.Z.A.D.A.N.    UXUXUX",
"UXUX0X0X6Xm h < & O =X=X=X=Xw.w.w.w.w.IXIXIXN.N.N.N.N.N.N.N.N.N.N.N.N.N.N.N.N.V.V.V.b.c.    UXUX",
"UXUX6XV m k 1 & O     =X=X=X=Xw.w.w.w.w.IXIXIXN.N.N.N.N.N.N.N.N.N.N.N.N.N.N.N.N.N.N.b.x.z.  UXUX",
"UXN B m x 7 - +         =X=X=X=Xw.w.w.w.w.IXIXIXN.N.N.N.N.N.N.N.N.N.N.N.N.N.N.N.N.N.b.x.l.    UX",
"UXc c z f < # O           =X=X=X=Xw.w.w.w.w.IXIXIXN.N.N.N.N.N.N.N.N.N.N.N.N.N.N.N.N.b.x.k.h.  UX",
"UXk k f 5 - O               =X=X=X=Xw.w.w.w.w.IXIXIXN.N.N.N.N.N.N.N.N.N.N.N.N.N.N.N.v.z.j.g.  UX",
"UXf f a 2 *                   =X=X=X=Xw.w.w.w.w.IXIXIXIXIXIXIXIXIXIXIXIXIXIXIXIXIXIXJXFXAXCX  UX",
"UXa a 5 < &                     =X=X=X=Xw.w.w.w.w.w.w.w.w.w.w.w.w.w.w.w.w.w.w.w.w.w.i t w 0   UX",
"UX7 7 4 < &                     =X=X=X=Xw.w.w.w.w.w.w.w.w.w.w.w.w.w.w.w.w.w.w.w.w.w.i r w 0   UX",
"UX5 5 2 : #                     =X=X=X=Xw.w.w.w.w.w.w.w.w.w.w.w.w.w.w.w.w.w.w.w.w.w.i r q 9   UX",
"UX2 2 1 ; #                   =X=X=X=Xw.w.w.w.w.w.w.w.w.w.w.w.w.w.w.w.w.w.w.w.w.w.w.i r q 9   UX",
"UX: : : - #                 =X=X=X=Xw.w.w.w.w.IXIXIXIXIXIXIXIXIXIXIXIXIXIXIXIXIXIXIXHXSXCXfX  UX",
"UX* & & # O               =X=X=X=Xw.w.w.w.w.IXIXIX=.=.=.=.=.=.=.=.=.=.=.=.=.=.=.=.+.] E J S   UX",
"UX                      =X=X=X=Xw.w.w.w.w.IXIXIX=.=.=.=.=.=.=.=.=.=.=.=.=.=.=.=.#.} ~ P S     UX",
"UXUX                  =X=X=X=Xw.w.w.w.w.IXIXIX=.=.=.=.=.=.=.=.=.=.=.=.=.=.=.=.=.+._ R G C   UXUX",
"UXUX                =X=X=X=Xw.w.w.w.w.IXIXIX=.=.=.=.=.=.=.=.=.=.=.=.=.=.=.=.#.+.] W J C     UXUX",
"UXUXUX            $X=X=X=Xw.w.w.w.w.IXIXIX=.=.=.=.=.=.=.=.=.=.=.=.=.=.=.=.#. .] W J C     UXUXUX",
"UXUXUXUX        +X@X#X$Xw.w.w.w.w.IXIXIX=.=.=.=.=.=.=.=.=.=.=.=.=.=.=.#.+.} ) E J C C   UXUXUXUX",
"UXUXUXUX      XXoXOX+Xi i w.w.w.IXIXIX=.=.=.=.=.=.=.=.=.=.=.=.=.=.#.+. ._ ! U G C C     UXUXUXUX",
"UXUXUXUXUX       X.Xe r t y i LXIXLX=.=.=.=.=.=.=.=.=.=.=.=.=.#.+.} _ ~ R J A C       UXUXUXUXUX",
"UXUXUXUXUXUXUX    9 0 q w e DXFXGX . .+.#.=.=.=.=.=.=.=.#.+. .] ) W U J S C C     UXUXUXUXUXUXUX",
"UXUXUXUXUXUXUXUX      9 9 hXCXZXW ~ ) ] } +.#.=.=.=.=.#.+.} ) W I H S C C       UXUXUXUXUXUXUXUX",
"UXUXUXUXUXUXUXUXUXUX      dXfXJ P U W ( ] +.#.=.=.=.=.+.] ( R J A C C       UXUXUXUXUXUXUXUXUXUX",
"UXUXUXUXUXUXUXUXUXUXUXUX      A F J U ~ ] +.=.=.=.=.+.] ~ U F C         UXUXUXUXUXUXUXUXUXUXUXUX",
"UXUXUXUXUXUXUXUXUXUXUXUXUXUXUX            #.>.>.=.#.} ( U F       UXUXUXUXUXUXUXUXUXUXUXUXUXUXUX",
"UXUXUXUXUXUXUXUXUXUXUXUXUXUXUXUXUXUXUXUX  <.1.,.#.} ( U F C   UXUXUXUXUXUXUXUXUXUXUXUXUXUXUXUXUX",
"UXUXUXUXUXUXUXUXUXUXUXUXUXUXUXUXUXUXUXUX< 5.3.>. .( U F C C   UXUXUXUXUXUXUXUXUXUXUXUXUXUXUXUXUX",
"UXUXUXUXUXUXUXUXUXUXUXUXUXUXUXUXUXUXUXh 8.6.1. .! P S C C   UXUXUXUXUXUXUXUXUXUXUXUXUXUXUXUXUXUX",
"UXUXUXUXUXUXUXUXUXUXUXUXUXUXUXUXUXUXUXx 7.1.} E J C C C   UXUXUXUXUXUXUXUXUXUXUXUXUXUXUXUXUXUXUX",
"UXUXUXUXUXUXUXUXUXUXUXUXUXUXUXUXUXUXB 0.2.] U F C C C   UXUXUXUXUXUXUXUXUXUXUXUXUXUXUXUXUXUXUXUX",
"UXUXUXUXUXUXUXUXUXUXUXUXUXUXUXUX8XN 9.<.) P A C C     UXUXUXUXUXUXUXUXUXUXUXUXUXUXUXUXUXUXUXUXUX",
"UXUXUXUXUXUXUXUXUXUXUXUXUXUXN c 9.2.] R F C       UXUXUXUXUXUXUXUXUXUXUXUXUXUXUXUXUXUXUXUXUXUXUX",
"UXUXUXUXUXUXUXUXUXUXa a a 5 4.=.] R         UXUXUXUXUXUXUXUXUXUXUXUXUXUXUXUXUXUXUXUXUXUXUXUXUXUX",
"UXUXUXUXUXUXUXUXUXUXUX              UXUXUXUXUXUXUXUXUXUXUXUXUXUXUXUXUXUXUXUXUXUXUXUXUXUXUXUXUXUX",
"UXUXUXUXUXUXUXUXUXUXUXUXUXUXUXUXUXUXUXUXUXUXUXUXUXUXUXUXUXUXUXUXUXUXUXUXUXUXUXUXUXUXUXUXUXUXUXUX",
"UXUXUXUXUXUXUXUXUXUXUXUXUXUXUXUXUXUXUXUXUXUXUXUXUXUXUXUXUXUXUXUXUXUXUXUXUXUXUXUXUXUXUXUXUXUXUXUX",
"UXUXUXUXUXUXUXUXUXUXUXUXUXUXUXUXUXUXUXUXUXUXUXUXUXUXUXUXUXUXUXUXUXUXUXUXUXUXUXUXUXUXUXUXUXUXUXUX",
"UXUXUXUXUXUXUXUXUXUXUXUXUXUXUXUXUXUXUXUXUXUXUXUXUXUXUXUXUXUXUXUXUXUXUXUXUXUXUXUXUXUXUXUXUXUXUXUX"
};
