/* XPM */
static char *magick[] = {
/* columns rows colors chars-per-pixel */
"48 48 223 2",
"   c Gray0",
".  c Gray6",
"X  c #000010",
"o  c #111111",
"O  c #161616",
"+  c Gray12",
"@  c #2a2a2a",
"#  c Gray17",
"$  c Gray18",
"%  c #343434",
"&  c #353535",
"*  c Gray21",
"=  c Gray22",
"-  c Gray23",
";  c #3c3c3c",
":  c Gray24",
">  c #3e3e3e",
",  c #3f3f3f",
"<  c #000040",
"1  c #000045",
"2  c #00004b",
"3  c #00004d",
"4  c #111140",
"5  c #121247",
"6  c #000069",
"7  c #00007d",
"8  c Gray25",
"9  c Gray27",
"0  c #464646",
"q  c Gray29",
"w  c Gray30",
"e  c #4e4e4e",
"r  c #515151",
"t  c Gray32",
"y  c #535353",
"u  c Gray33",
"i  c #565656",
"p  c Gray34",
"a  c #5a5a5a",
"s  c Gray36",
"d  c #5d5d5d",
"f  c #5f5f5f",
"g  c #52527a",
"h  c #606060",
"j  c #646464",
"k  c Gray40",
"l  c #686868",
"z  c Gray42",
"x  c #6d6d6d",
"c  c Gray43",
"v  c #6f6f6f",
"b  c #717171",
"n  c #727272",
"m  c Gray45",
"M  c Gray46",
"N  c #767676",
"B  c #777777",
"V  c Gray47",
"C  c #797979",
"Z  c Gray48",
"A  c Gray49",
"S  c Gray",
"D  c #000080",
"F  c #000084",
"G  c #000098",
"H  c #00009b",
"J  c #0000a5",
"K  c #0000ab",
"L  c #0000b6",
"P  c #0000b7",
"I  c #0000b9",
"U  c #0000bd",
"Y  c #0000bf",
"T  c #2c2c93",
"R  c #0000ce",
"E  c #0000d1",
"W  c #0000d7",
"Q  c #0000d8",
"!  c #0000db",
"~  c #0000de",
"^  c #0000e3",
"/  c #0000e4",
"(  c #0000e7",
")  c #0000e9",
"_  c #0000ea",
"`  c #0000ec",
"'  c #0000ef",
"]  c #0000f0",
"[  c #0000f2",
"{  c #0000f3",
"}  c #0000f5",
"|  c #0000f6",
" . c #0000f8",
".. c #0000f9",
"X. c #0000fb",
"o. c #0000fc",
"O. c #0000fe",
"+. c Blue",
"@. c #0101ff",
"#. c #0303ff",
"$. c #0404ff",
"%. c #0606ff",
"&. c #0707ff",
"*. c #0909ff",
"=. c #0a0aff",
"-. c #0c0cff",
";. c #0d0dff",
":. c #0f0fff",
">. c #1010ff",
",. c #1515ff",
"<. c #1616ff",
"1. c #1818ff",
"2. c #1919ff",
"3. c #1c1cff",
"4. c #1e1eff",
"5. c #1f1fff",
"6. c #2121ff",
"7. c #2222ff",
"8. c #2424ff",
"9. c #2525ff",
"0. c #2a2aff",
"q. c #2e2eff",
"w. c #3a3aff",
"e. c #3c3cff",
"r. c #4343ff",
"t. c #5555ff",
"y. c #5f5fff",
"u. c #6060ff",
"i. c #6363ff",
"p. c #6464ff",
"a. c #7272ff",
"s. c #7e7eff",
"d. c #7f7fff",
"f. c #808080",
"g. c #818181",
"h. c #838383",
"j. c #848484",
"k. c Gray52",
"l. c #868686",
"z. c Gray53",
"x. c #888888",
"c. c #898989",
"v. c #8b8b8b",
"b. c #8d8d8d",
"n. c #8e8e8e",
"m. c Gray56",
"M. c Gray57",
"N. c #929292",
"B. c #939393",
"V. c Gray59",
"C. c #979797",
"Z. c #989898",
"A. c #9a9a9a",
"S. c #9b9b9b",
"D. c Gray61",
"F. c #9d9d9d",
"G. c Gray62",
"H. c #9f9f9f",
"J. c #a0a0a0",
"K. c Gray63",
"L. c #a2a2a2",
"P. c Gray64",
"I. c #a5a5a5",
"U. c Gray65",
"Y. c #a7a7a7",
"T. c Gray66",
"R. c #a9a9a9",
"E. c #aaaaaa",
"W. c Gray68",
"Q. c #aeaeae",
"!. c #b1b1b1",
"~. c Gray70",
"^. c #b4b4b4",
"/. c #b6b6b6",
"(. c #b7b7b7",
"). c #b9b9b9",
"_. c Gray73",
"`. c #bbbbbb",
"'. c Gray74",
"]. c Gray75",
"[. c #8181ff",
"{. c #8787ff",
"}. c #8a8aff",
"|. c #9393ff",
" X c #9797ff",
".X c #9a9aff",
"XX c Gray76",
"oX c #c3c3c3",
"OX c #c5c5c5",
"+X c #cbcbcb",
"@X c Gray80",
"#X c #cecece",
"$X c Gray81",
"%X c Gray82",
"&X c #d2d2d2",
"*X c #d5d5d5",
"=X c #dadada",
"-X c Gray86",
";X c #dddddd",
":X c Gray87",
">X c Gray88",
",X c #e1e1e1",
"<X c Gray89",
"1X c #e4e4e4",
"2X c #e6e6e6",
"3X c #e7e7e7",
"4X c #e9e9e9",
"5X c #eaeaea",
"6X c #ececec",
"7X c Gray93",
"8X c #efefef",
"9X c Gray94",
"0X c Gray95",
"qX c #f3f3f3",
"wX c Gray96",
"eX c #f6f6f6",
"rX c #f8f8f8",
"tX c #f9f9f9",
"yX c #fbfbfb",
"uX c Gray99",
"iX c #fefefe",
"pX c Gray100",
"aX c None",
/* pixels */
"aXaXaXaXaXaXaXaXaXaXaXaXaXaXaXaXaXaXaXaXaXaXaXaXaXaXaXaXaXaXaXaXaXaXaXaXaXaXaXaXaXaXaXaXaXaXaXaX",
"aXaXaXaXaXaXaXaXaXaXaXaXaXaXaXaXaXaXaXaXaXaXaXaXaXaXaXaXaXaXaXaXaXaXaXaXaXaXaXaXaXaXaXaXaXaXaXaX",
"aXaXaXaXaXaXaXaXaXaXaXaXaXaXaXaXaXaXaXaXaXaXaXaXaXaXaXaXaXaXaXaXaXaXaXaXaXaXaXaXaXaXaXaXaXaXaXaX",
"aXaXaXaXaXaXaXaXaXaXaXaXaXaXaXP.H.C.B.n.n.n.n.n.n.n.n.n.n.v.g.V z aXaXaXaXaXaXaXaXaXaXaXaXaXaXaX",
"aXaXaXaXaXaXaXaXaXaXaXT.U.U.P.H.pXpXpXpXpXpXpXpXpXpXpXpXpXpXpXpXj f f p aXaXaXaXaXaXaXaXaXaXaXaX",
"aXaXaXaXaXaXaXaXaXaXU.U.P.pXpXpXpXpXpXpXpXpXpXpXpXpXpXpXpXpXpXpXpXpXpXg.r q aXaXaXaXaXaXaXaXaXaX",
"aXaXaXaXaXaXaXaXT.U._.pXpXpXpXpXpXpXpXpXpXpXpXpXpXpXpXpXpXpXpXpXpXpXpXpXpX0 , = aXaXaXaXaXaXaXaX",
"aXaXaXaXaXaXaXT.U.pXpXpXpXpXpXpXpXpXpXpXpXpXpXpXpXpXpXpXpXpXpXpXpXpXpXpXpXpXpXz * aXaXaXaXaXaXaX",
"aXaXaXaXaXP.U.P.pXpXpXpXpXpXpXpXpXpXpXpXpXpXpXpXpXpXpXpXpXpXpXpXpXpXpXpXpXpXpXpX* @ + aXaXaXaXaX",
"aXaXaXaXA.H..X}.a.t.e.9.,.=.#.#.#.#.#.#.#.#.#.#.#.#.#.#.#.#.#.#.#.#.%.=.>.1.9.q.q.7..   aXaXaXaX",
"aXaXaXaXC.|.[.p.r.0.1.;.%.#.#.#.#.#.#.#.#.#.#.#.#.#.#.#.#.#.#.#.#.#.#.#.%.=.,.3.7.,.#.  aXaXaXaX",
"aXaXaXB.n.d.i.w.3.;.%.#.#.#.#.#.#.#.#.#.#.#.#.#.#.#.#.#.#.#.#.#.#.#.#.#.#.#.=.;.>.;.X.    aXaXaX",
"aXaXv.v.d.i.e.3.=.%.#.#.#.#.#.#.#.#.#.#.#.#.#.#.#.#.#.#.#.#.#.#.#.#.#.#.#.#.#.#.%.%.X.)     aXaX",
"aXaXj.pXpXpXpXpXpXpXpXpXpXpXpXpXpXpXpXpXpXpXpX#.pXpXpXpXpXpXpXpXpXpXpXpXpXpXpXpXpXpXyX8X*X  aXaX",
"aXm N pXpXpXpXpXpXpXpXpXpXpXpXpXpXpXpXpXpXpX#.pX#.pXpXpXpXpXpXpXpXpXpXpXpXpXpXpXpXpXpX8X$X    aX",
"aXh pXpXpXpXpXpXpXpXpXpXpXpXpXpXpXpXpXpXpX#.pXpXpX#.pXpXpXpXpXpXpXpXpXpXpXpXpXpXpXpXpX2XXXP.  aX",
"aXr pXpXpXpXpXpXpXpXpXpXpXpXpX#.#.#.#.#.#.#.#.#.#.#.#.#.#.#.#.#.pXpXpXpXpXpXpXpXpXpXyX>X_.B.  aX",
"aX0 pXpXpXpXpXpXpXpXpXpXpXpXpXpX#.#.pXpX#.#.pXpXpX#.#.pXpX#.#.pXpXpXpXpXpXpXpXpXpXpXyX>X!.j.  aX",
"aX, pXpXpXpXpXpXpXpXpXpXpXpXpXpXpX#.#.#.pXpXpXpXpXpXpX#.#.#.pXpXpXpXpXpXpXpXpXpXpXpXyX;XQ.g.  aX",
"aX, pXpXpXpXpXpXpXpXpXpXpXpXpXpXpXpXpX#.pXpXpXpXpXpXpX#.pXpXpXpXpXpXpXpXpXpXpXpXpXpXyX;XQ.g.  aX",
"aX, pXpXpXpXpXpXpXpXpXpXpXpXpXpXpX#.#.#.pXpXpXpXpXpXpX#.#.#.pXpXpXpXpXpXpXpXpXpXpXpXyX=XT.A   aX",
"aX* pXpXpXpXpXpXpXpXpXpXpXpXpXpX#.#.pXpX#.#.pXpXpX#.#.pXpX#.#.pXpXpXpXpXpXpXpXpXpXpXwX*XP.N   aX",
"aX@ pXpXpXpXpXpXpXpXpXpXpXpXpX#.#.#.#.#.#.#.#.#.#.#.#.#.#.#.#.#.pXpXpXpXpXpXpXpXpXyX9X$XC.z   aX",
"aXO pXpXpXpXpXpXpXpXpXpXpXpXpXpXpXpXpXpXpX#.pXpXpX#.pXpXpXpXpXpXpXpXpXpXpXpXpXpXpXyX2X_.A r   aX",
"aX    wXyXyXyXpXpXpXpXpXpXpXpXpXpXpXpXpXpXpX#.pX#.pXpXpXpXpXpXpXpXpXpXpXpXpXpXpXyX8X$XC.a     aX",
"aXaX  >X4X9XyXpXpXpXpXpXpXpXpXpXpXpXpXpXpXpXpX#.pXpXpXpXpXpXpXpXpXpXpXpXpXpXpXpX9X;XQ.c 8   aXaX",
"aXaX    Q ( [ X.#.#.#.#.#.#.#.#.#.#.#.#.#.#.#.#.#.#.#.#.#.#.#.#.#.#.#.#.#.#.X.` ~ I D 1 <   aXaX",
"aXaXaX    E ~ ) [ | #.#.#.#.#.#.#.#.#.#.#.#.#.#.#.#.#.#.#.#.#.#.#.#.#.#.X.| ) W P F 2     aXaXaX",
"aXaXaXaX  P Y R ~ ` | X.#.#.#.#.#.#.#.#.#.#.#.#.#.#.#.#.#.#.#.#.#.#.#.X.[ ^ R K 7 3 <   aXaXaXaX",
"aXaXaXaX    H J I E ^ ` | X.#.#.#.#.#.#.#.#.#.#.#.#.#.#.#.#.#.#.#.X.| ` Q Y H 6 < <     aXaXaXaX",
"aXaXaXaXaX      n.U.'.%X>X4X9XwXyXyXpXpXpXpXpXpXpXpXpXpXpXpXyXrXwX8X>X+XT.g.p 8 o     aXaXaXaXaX",
"aXaXaXaXaXaXaX    A n.H.!.XX$X=X2X8XqXrXrXyXpXpXpXpXpXpXyXwX8X<X*XXXU.j.h 8 8     aXaXaXaXaXaXaX",
"aXaXaXaXaXaXaXaX      c V j.C.T._.OX%X;X2X9XyXpXpXpXpXyX9X2X$X!.C.V a 8 8       aXaXaXaXaXaXaXaX",
"aXaXaXaXaXaXaXaXaXaX      p f z V j.H.^.%X4XyXpXpXpXyX8X;X'.A.m e 8 8       aXaXaXaXaXaXaXaXaXaX",
"aXaXaXaXaXaXaXaXaXaXaXaX      5 e f N A.XX2XyXpXpXyX8X=X^.v.p 8         aXaXaXaXaXaXaXaXaXaXaXaX",
"aXaXaXaXaXaXaXaXaXaXaXaXaXaXaX            9XpXpXpX8X=X^.g.e       aXaXaXaXaXaXaXaXaXaXaXaXaXaXaX",
"aXaXaXaXaXaXaXaXaXaXaXaXaXaXaXaXaXaXaXaX  pXpXpXwX;X_.j.e 8   aXaXaXaXaXaXaXaXaXaXaXaXaXaXaXaXaX",
"aXaXaXaXaXaXaXaXaXaXaXaXaXaXaXaXaXaXaXaX$ pXpXpX>X_.v.r 8 4   aXaXaXaXaXaXaXaXaXaXaXaXaXaXaXaXaX",
"aXaXaXaXaXaXaXaXaXaXaXaXaXaXaXaXaXaXaXp g pXpX2X^.j.r 8 4   aXaXaXaXaXaXaXaXaXaXaXaXaXaXaXaXaXaX",
"aXaXaXaXaXaXaXaXaXaXaXaXaXaXaXaXaXaXaXm pXpX4XT.N q 8 4   aXaXaXaXaXaXaXaXaXaXaXaXaXaXaXaXaXaXaX",
"aXaXaXaXaXaXaXaXaXaXaXaXaXaXaXaXaXaXj. XpX>XA.a 8 8 X   aXaXaXaXaXaXaXaXaXaXaXaXaXaXaXaXaXaXaXaX",
"aXaXaXaXaXaXaXaXaXaXaXaXaXaXaXaXv.V {.pX$XA 0 8 4     aXaXaXaXaXaXaXaXaXaXaXaXaXaXaXaXaXaXaXaXaX",
"aXaXaXaXaXaXaXaXaXaXaXaXaXaXc j [.pX4XT.j 4       aXaXaXaXaXaXaXaXaXaXaXaXaXaXaXaXaXaXaXaXaXaXaX",
"aXaXaXaXaXaXaXaXaXaX= , , = y.pX;XT         aXaXaXaXaXaXaXaXaXaXaXaXaXaXaXaXaXaXaXaXaXaXaXaXaXaX",
"aXaXaXaXaXaXaXaXaXaXaX              aXaXaXaXaXaXaXaXaXaXaXaXaXaXaXaXaXaXaXaXaXaXaXaXaXaXaXaXaXaX",
"aXaXaXaXaXaXaXaXaXaXaXaXaXaXaXaXaXaXaXaXaXaXaXaXaXaXaXaXaXaXaXaXaXaXaXaXaXaXaXaXaXaXaXaXaXaXaXaX",
"aXaXaXaXaXaXaXaXaXaXaXaXaXaXaXaXaXaXaXaXaXaXaXaXaXaXaXaXaXaXaXaXaXaXaXaXaXaXaXaXaXaXaXaXaXaXaXaX",
"aXaXaXaXaXaXaXaXaXaXaXaXaXaXaXaXaXaXaXaXaXaXaXaXaXaXaXaXaXaXaXaXaXaXaXaXaXaXaXaXaXaXaXaXaXaXaXaX"
};
