/* XPM */
static char *magick[] = {
/* columns rows colors chars-per-pixel */
"48 48 238 2",
"   c Gray0",
".  c #010101",
"X  c Gray1",
"o  c #040404",
"O  c #060606",
"+  c #090909",
"@  c Gray4",
"#  c #0c0c0c",
"$  c Gray5",
"%  c Gray6",
"&  c #101010",
"*  c Gray7",
"=  c #151515",
"-  c #161616",
";  c #1b1b1b",
":  c #1e1e1e",
">  c Gray12",
",  c #272727",
"<  c #2a2a2a",
"1  c Gray18",
"2  c Gray19",
"3  c #313131",
"4  c Gray20",
"5  c Gray21",
"6  c #373737",
"7  c Gray22",
"8  c #393939",
"9  c #3a3a3a",
"0  c #3c3c3c",
"q  c Gray24",
"w  c #3f3f3f",
"e  c #400000",
"r  c #420000",
"t  c #440000",
"y  c #470000",
"u  c #4a0000",
"i  c #4e0000",
"p  c #500000",
"a  c #510000",
"s  c #570000",
"d  c #590000",
"f  c #5a0000",
"g  c #5d0000",
"h  c #620000",
"j  c #630000",
"k  c #680000",
"l  c #6b0000",
"z  c #6c0000",
"x  c #6f0000",
"c  c #710000",
"v  c #720000",
"b  c #740000",
"n  c #750000",
"m  c #780000",
"M  c #7a0000",
"N  c #7b0000",
"B  c #7d0000",
"V  c #7e0000",
"C  c Gray25",
"Z  c Gray26",
"A  c Gray27",
"S  c #464646",
"D  c #484848",
"F  c #494949",
"G  c #4b4b4b",
"H  c #4c4c4c",
"J  c #515151",
"K  c Gray33",
"L  c #585858",
"P  c #5b5b5b",
"I  c #606060",
"U  c #626262",
"Y  c Gray39",
"T  c #646464",
"R  c #676767",
"E  c Gray41",
"W  c #6c6c6c",
"Q  c #6d6d6d",
"!  c Gray43",
"~  c #6f6f6f",
"^  c Gray44",
"/  c Gray45",
"(  c #767676",
")  c Gray47",
"_  c #797979",
"`  c #7b7b7b",
"'  c Gray",
"]  c Gray50",
"[  c #800000",
"{  c #810000",
"}  c #830000",
"|  c #840000",
" . c #860000",
".. c #870000",
"X. c #890000",
"o. c #8a0000",
"O. c #8d0000",
"+. c #8f0000",
"@. c #920000",
"#. c #950000",
"$. c #960000",
"%. c #980000",
"&. c #9b0000",
"*. c #9c0000",
"=. c #9f0000",
"-. c #a10000",
";. c #a20000",
":. c #a50000",
">. c #a70000",
",. c #a80000",
"<. c #aa0000",
"1. c #ab0000",
"2. c #ad0000",
"3. c #b10000",
"4. c #b30000",
"5. c #b40000",
"6. c #b60000",
"7. c #b70000",
"8. c #b90000",
"9. c #ba0000",
"0. c #bd0000",
"q. c #bf0000",
"w. c #c20000",
"e. c #c30000",
"r. c #c50000",
"t. c #c60000",
"y. c #c90000",
"u. c #cb0000",
"i. c #ce0000",
"p. c #cf0000",
"a. c #d10000",
"s. c #d20000",
"d. c #d50000",
"f. c #d80000",
"g. c #da0000",
"h. c #db0000",
"j. c #dd0000",
"k. c #de0000",
"l. c #e00000",
"z. c #e10000",
"x. c #e30000",
"c. c #e40000",
"v. c #e70000",
"b. c #e90000",
"n. c #ea0000",
"m. c #ec0000",
"M. c #ed0000",
"N. c #ef0000",
"B. c #f00000",
"V. c #f20000",
"C. c #f30000",
"Z. c #f50000",
"A. c #f60000",
"S. c #f80000",
"D. c #f90000",
"F. c #fb0000",
"G. c #fc0000",
"H. c #fe0000",
"J. c Red",
"K. c #ff0101",
"L. c #ff0303",
"P. c #ff0404",
"I. c #ff0606",
"U. c #ff0707",
"Y. c #ff0909",
"T. c #ff0a0a",
"R. c #ff0c0c",
"E. c #ff0d0d",
"W. c #ff0f0f",
"Q. c #ff1010",
"!. c #ff1212",
"~. c #ff1313",
"^. c #ff1515",
"/. c #ff1616",
"(. c #ff1818",
"). c #ff1919",
"_. c #ff1b1b",
"`. c #ff1c1c",
"'. c #ff2121",
"]. c #ff2222",
"[. c #ff2424",
"{. c #ff2525",
"}. c #ff2727",
"|. c #ff2828",
" X c #ff2b2b",
".X c #ff3131",
"XX c #ff3333",
"oX c #ff3434",
"OX c #ff3636",
"+X c #ff3939",
"@X c #ff3a3a",
"#X c #ff3c3c",
"$X c #ff4343",
"%X c #ff4949",
"&X c #ff4b4b",
"*X c #ff5555",
"=X c #ff5858",
"-X c #ff5a5a",
";X c #ff5b5b",
":X c #ff5d5d",
">X c #ff5e5e",
",X c #ff6060",
"<X c #ff6363",
"1X c #ff6767",
"2X c #ff7070",
"3X c #ff7373",
"4X c #ff7676",
"5X c #ff7c7c",
"6X c #808080",
"7X c #818181",
"8X c Gray51",
"9X c #848484",
"0X c Gray53",
"qX c #888888",
"wX c Gray54",
"eX c #8b8b8b",
"rX c #8d8d8d",
"tX c #8e8e8e",
"yX c #909090",
"uX c Gray57",
"iX c #929292",
"pX c #939393",
"aX c Gray58",
"sX c #979797",
"dX c #9a9a9a",
"fX c Gray61",
"gX c #9d9d9d",
"hX c #9f9f9f",
"jX c #a0a0a0",
"kX c #a2a2a2",
"lX c Gray64",
"zX c #a5a5a5",
"xX c Gray65",
"cX c Gray66",
"vX c #a9a9a9",
"bX c #ff8181",
"nX c Gray100",
"mX c None",
/* pixels */
"mXmXmXmXmXmXmXmXmXmXmXmXmXmXmXmXmXmXmXmXmXmXmXmXmXmXmXmXmXmXmXmXmXmXmXmXmXmXmXmXmXmXmXmXmXmXmXmX",
"mXmXmXmXmXmXmXmXmXmXmXmXmXmXmXmXmXmXmXmXmXmXmXmXmXmXmXmXmXmXmXmXmXmXmXmXmXmXmXmXmXmXmXmXmXmXmXmX",
"mXmXmXmXmXmXmXmXmXmXmXmXmXmXmXmXmXmXmXmXmXmXmXmXmXmXmXmXmXmXmXmXmXmXmXmXmXmXmXmXmXmXmXmXmXmXmXmX",
"mXmXmXmXmXmXmXmXmXmXmXmXmXmXmXlXhXsXpXtXtXtXtXtXtXtXtXtXtXeX7X_ ~ mXmXmXmXmXmXmXmXmXmXmXmXmXmXmX",
"mXmXmXmXmXmXmXmXmXmXmXcXxXxXlXhXpXtXeX7X7X7X7XbXbXbXbXbXbX5X4X2XT I I P mXmXmXmXmXmXmXmXmXmXmXmX",
"mXmXmXmXmXmXmXmXmXmXcXxXlXdXpX9X_ / E T I I T <X<X<X<X<X<X<X:X-X-X-X-XK J D mXmXmXmXmXmXmXmXmXmX",
"mXmXmXmXmXmXmXmXcXcXlXdXtX' ~ P D w 5 2 2 2 2 .X.X.X.X.X.X.X.XOX#X$X&X&X&XS Z w mXmXmXmXmXmXmXmX",
"mXmXmXmXmXmXmXcXxXhXtX_ I H 5 , ; & % + + + + T.T.T.T.T.T.T.E.!.(.'. XOX#X#X#X5 2 mXmXmXmXmXmXmX",
"mXmXmXmXmXlXxXlXpX' T D 2 > & + O             J.J.J.J.J.J.J.J.J.P.T.!.(.}. X.XOX1 , ; mXmXmXmXmX",
"mXmXmXmXdXhXdXeX~ J 5 > & + O                 J.J.J.J.J.J.J.J.J.J.J.P.P.E.^.'. X}.`.%   mXmXmXmX",
"mXmXmXmXsXpX7XT Z , = + O                     J.J.J.J.J.J.J.J.J.J.J.J.J.P.T.!.(.(.!.J.  mXmXmXmX",
"mXmXmXpXtX' I 9 > % O                         J.J.J.J.J.J.J.J.J.J.J.J.J.J.J.P.E.E.T.S.    mXmXmX",
"mXmXeXeXnXnXnXnXnXnXnXnXnXnXnXnXnXnXnXnXnXnXnXJ.J.J.J.J.J.J.J.J.J.J.J.J.J.J.J.J.P.P.S.b.    mXmX",
"mXmX9XnXnXnXnXnXnXnXnXnXnXnXnXnXnXnXnXnXnXnXnXJ.J.J.J.J.J.J.J.J.J.J.J.J.J.J.J.J.J.J.J.N.d.  mXmX",
"mX/ ( nXnXnXnXnXnXnXnXnXnXnXnXnXnXnXnXnXnXnXnXJ.J.J.J.J.J.J.J.J.J.J.J.J.J.J.J.J.J.P.J.N.i.    mX",
"mXI nXnXnXnXnXnXnXnXnXnXnXnXnXnXnXnXnXnXnXnXnXJ.J.J.J.J.J.J.J.J.J.J.J.J.J.J.J.J.J.J.J.c.w.-.  mX",
"mXJ nXnXnXnXnXnXnXnXnXnXnXnXnXnXnXnXnXnXnXnXnXJ.J.J.J.J.J.J.J.J.J.J.J.J.J.J.J.J.J.J.S.x.8.@.  mX",
"mXS nXnXnXnXnXnXnXnXnXnXnXnXnXnXnXnXnXnXnXnXnXJ.J.J.J.J.J.J.J.J.J.J.J.J.J.J.J.J.J.J.S.x.6.|   mX",
"mXw nXnXnXnXnXnXnXnXnXnXnXnXnXnXnXnXnXnXnXnXnXJ.J.J.J.J.J.J.J.J.J.J.J.J.J.J.J.J.J.J.S.k.2.[   mX",
"mXw nXnXnXnXnXnXnXnXnXnXnXnXnXnXnXnXnXnXnXnXnXJ.J.J.J.J.J.J.J.J.J.J.J.J.J.J.J.J.J.J.S.k.2.[   mX",
"mXw +X.X(.P.J.J.J.J.J.J.J.J.J.J.J.J.J.J.J.J.J.J.J.J.J.J.J.J.J.J.J.J.J.J.J.J.J.J.J.J.S.h.,.B   mX",
"mX5 .X X(.P.J.J.J.J.J.J.J.J.J.J.J.J.J.J.J.J.J.J.J.J.J.J.J.J.J.J.J.J.J.J.J.J.J.J.J.J.A.d.-.n   mX",
"mX< }.'.!.J.J.J.J.J.J.J.J.J.J.J.J.J.J.J.J.J.J.J.J.J.J.J.J.J.J.J.J.J.J.J.J.J.J.J.J.S.C.u.#.l   mX",
"mX= !.!.T.J.J.J.J.J.J.J.J.J.J.J.J.J.J.J.J.J.J.J.J.J.J.J.J.J.J.J.J.J.J.J.J.J.J.J.J.A.x.4.m p   mX",
"mX    A.S.S.S.J.J.J.J.J.J.J.J.J.J.J.J.J.J.J.J.J.J.J.J.J.J.J.J.J.J.J.J.J.J.J.J.J.S.N.u.@.s     mX",
"mXmX  x.b.C.S.J.J.J.J.J.J.J.J.J.J.J.J.J.J.J.J.J.J.J.J.J.J.J.J.J.J.J.J.J.J.J.J.S.C.h.,.l e   mXmX",
"mXmX    h.c.C.S.J.J.J.J.J.J.J.J.J.J.J.J.J.J.J.J.J.J.J.J.J.J.J.J.J.J.J.J.J.J.S.A.x.8.B y     mXmX",
"mXmXmX    a.k.b.C.A.J.J.J.J.J.J.J.J.J.J.J.J.J.J.J.J.J.J.J.J.J.J.J.J.J.J.J.S.C.x.0.o.i     mXmXmX",
"mXmXmXmX  6.0.i.k.N.A.S.J.J.J.J.J.J.J.J.J.J.J.J.J.J.J.J.J.J.J.J.J.J.J.S.A.b.d.6.[ p e   mXmXmXmX",
"mXmXmXmX    &.:.8.a.x.N.A.S.J.J.J.J.J.J.J.J.J.J.J.J.J.J.J.J.J.J.J.S.A.N.k.r.=.c e e     mXmXmXmX",
"mXmXmXmXmX      O.:.0.a.x.N.A.S.J.J.J.J.J.J.J.J.J.J.J.J.J.J.J.S.A.N.x.u.,.| d e       mXmXmXmXmX",
"mXmXmXmXmXmXmX    B O.-.6.u.h.c.N.C.A.S.S.J.J.J.J.J.J.J.S.A.N.c.d.w.:.| h e e     mXmXmXmXmXmXmX",
"mXmXmXmXmXmXmXmX      c [ @.:.6.0.u.a.h.c.C.S.J.J.J.J.S.C.x.i.6.#.m d e e       mXmXmXmXmXmXmXmX",
"mXmXmXmXmXmXmXmXmXmX      h z n B o.&.4.a.b.S.J.J.J.J.A.x.r.&.n i e e       mXmXmXmXmXmXmXmXmXmX",
"mXmXmXmXmXmXmXmXmXmXmXmX      y u d c &.r.c.S.J.J.J.S.b.u.&.h e         mXmXmXmXmXmXmXmXmXmXmXmX",
"mXmXmXmXmXmXmXmXmXmXmXmXmXmXmX            A.P.P.P.J.C.a.-.h       mXmXmXmXmXmXmXmXmXmXmXmXmXmXmX",
"mXmXmXmXmXmXmXmXmXmXmXmXmXmXmXmXmXmXmXmX  ^.(.E.J.C.h.2.z e   mXmXmXmXmXmXmXmXmXmXmXmXmXmXmXmXmX",
"mXmXmXmXmXmXmXmXmXmXmXmXmXmXmXmXmXmXmXmX9 +X XE.A.h.4.n e e   mXmXmXmXmXmXmXmXmXmXmXmXmXmXmXmXmX",
"mXmXmXmXmXmXmXmXmXmXmXmXmXmXmXmXmXmXmXI :X&X}.S.a.,.c e e   mXmXmXmXmXmXmXmXmXmXmXmXmXmXmXmXmXmX",
"mXmXmXmXmXmXmXmXmXmXmXmXmXmXmXmXmXmXmX7X<X+XS.0.O.g e e   mXmXmXmXmXmXmXmXmXmXmXmXmXmXmXmXmXmXmX",
"mXmXmXmXmXmXmXmXmXmXmXmXmXmXmXmXmXmXpX3X#Xb.-.l e e e   mXmXmXmXmXmXmXmXmXmXmXmXmXmXmXmXmXmXmXmX",
"mXmXmXmXmXmXmXmXmXmXmXmXmXmXmXmXpX7X:X(.r.m e e e     mXmXmXmXmXmXmXmXmXmXmXmXmXmXmXmXmXmXmXmXmX",
"mXmXmXmXmXmXmXmXmXmXmXmXmXmX_ ~ *X'.h.O.p e       mXmXmXmXmXmXmXmXmXmXmXmXmXmXmXmXmXmXmXmXmXmXmX",
"mXmXmXmXmXmXmXmXmXmX9 Z Z w }.J.u.o.        mXmXmXmXmXmXmXmXmXmXmXmXmXmXmXmXmXmXmXmXmXmXmXmXmXmX",
"mXmXmXmXmXmXmXmXmXmXmX              mXmXmXmXmXmXmXmXmXmXmXmXmXmXmXmXmXmXmXmXmXmXmXmXmXmXmXmXmXmX",
"mXmXmXmXmXmXmXmXmXmXmXmXmXmXmXmXmXmXmXmXmXmXmXmXmXmXmXmXmXmXmXmXmXmXmXmXmXmXmXmXmXmXmXmXmXmXmXmX",
"mXmXmXmXmXmXmXmXmXmXmXmXmXmXmXmXmXmXmXmXmXmXmXmXmXmXmXmXmXmXmXmXmXmXmXmXmXmXmXmXmXmXmXmXmXmXmXmX",
"mXmXmXmXmXmXmXmXmXmXmXmXmXmXmXmXmXmXmXmXmXmXmXmXmXmXmXmXmXmXmXmXmXmXmXmXmXmXmXmXmXmXmXmXmXmXmXmX"
};
