/* XPM */
static char *magick[] = {
/* columns rows colors chars-per-pixel */
"48 48 37 1",
"  c Gray0",
". c #210808",
"X c #212421",
"o c #292839",
"O c #520000",
"+ c #730000",
"@ c #423842",
"# c #424142",
"$ c #524d52",
"% c #5a5d5a",
"& c #6b6d6b",
"* c #7b797b",
"= c Blue",
"- c #8c0000",
"; c #a50000",
": c #b50000",
"> c #bd0000",
", c #ce0000",
"< c #de0000",
"1 c #e70000",
"2 c #ef0000",
"3 c #f70000",
"4 c Red",
"5 c #ff0808",
"6 c #ff1010",
"7 c #ff2021",
"8 c #ff3031",
"9 c #ff4542",
"0 c #ff6563",
"q c Yellow",
"w c #848284",
"e c #8c8a8c",
"r c #949294",
"t c #9c9a9c",
"y c #a5a2a5",
"u c Gray74",
"i c None",
/* pixels */
"iiiiiiiiiiiiiiiiiiiiiiiiiiiiiiiiiiiiiiiiiiiiiiii",
"iiiiiiiiiiiiiiiiiiiiiiiiiiiiiiiiiiiiiiiiiiiiiiii",
"iiiiiiiiiiiiiiiiiiiiiiiiiiiiiiiiiiiiiiiiiiiiiiii",
"iiiiiiiiiiiiiiiytrreeeeeeeeeeew*&iiiiiiiiiiiiiii",
"iiiiiiiiiiiyyyyt4==============0%%%%iiiiiiiiiiii",
"iiiiiiiiiiyyy4444==============0000$$$iiiiiiiiii",
"iiiiiiiiyyy444444==============889999##@iiiiiiii",
"iiiiiiiyy44444444==============67778888oXiiiiiii",
"iiiiiyyy444444444==============445577788XXXiiiii",
"iiiitt44qq4444444==============44444567777. iiii",
"iiiir444qq4444444==============444444467764 iiii",
"iiire444444444444==============444444445553  iii",
"iiee4444qq4444444==============4444444444431  ii",
"iiw4444qqqq444444==============4444444444442, ii",
"i&&4444qqqq444444==============4444444444442,  i",
"i%444444qq4444444==============4444444444441>; i",
"i$444444444444444==============4444444444431>- i",
"i#44qq4qqqq4qq444==============4444444444431:- i",
"i#44qq4qqqq4qq444==============444444444443<;- i",
"i@44qq44qq44qq444==============444444444443<;- i",
"i@44qq4qqqq4qq444==============444444444443,;+ i",
"io44qq4qqqq4qq444==============444444444443,;+ i",
"iX44qq44qq44qq444==============444444444432>-+ i",
"i.44qq44qq44qq444==============444444444431:+O i",
"ii 4qq44qq44qq444==============44444444432>-O ii",
"ii 4qq4qqqq4qq444==============4444444432,;+.iii",
"iii qq4qqqq4qq444==============4444444331>+.iiii",
"iiii q44qq44qq444==============444444321>-O iiii",
"iiiii ;4444444444==============4444331,:-O.iiiii",
"iiiiii ;444444444==============44332<>;+..iiiiii",
"iiiiiii ;;4444444==============3321>;-O.iiiiiiii",
"iiiiiiii  ;;44444==============1,>;-O..iiiiiiiii",
"iiiiiiiiii  ;;;;4==============:-+O..iiiiiiiiiii",
"iiiiiiiiiiii    ;==============+O..iiiiiiiiiiiii",
"iiiiiiiiiiiiiii       ========$.iiiiiiiiiiiiiiii",
"iiiiiiiiiiiiiiiiiiiii =======$ iiiiiiiiiiiiiiiii",
"iiiiiiiiiiiiiiiiiiii =======$#iiiiiiiiiiiiiiiiii",
"iiiiiiiiiiiiiiiiiiioX=======#oiiiiiiiiiiiiiiiiii",
"iiiiiiiiiiiiiiiiiii =======#oiiiiiiiiiiiiiiiiiii",
"iiiiiiiiiiiiiiiiii ======#@oiiiiiiiiiiiiiiiiiiii",
"iiiiiiiiiiiiiiiii =====%##Xiiiiiiiiiiiiiiiiiiiii",
"iiiiiiiiiiiiiii w====w$#oiiiiiiiiiiiiiiiiiiiiiii",
"iiiiiiiiiiiii% %== y&oiiiiiiiiiiiiiiiiiiiiiiiiii",
"iiiiiiiiiio@@o    iiiiiiiiiiiiiiiiiiiiiiiiiiiiii",
"iiiiiiiiiiiiiiiiiiiiiiiiiiiiiiiiiiiiiiiiiiiiiiii",
"iiiiiiiiiiiiiiiiiiiiiiiiiiiiiiiiiiiiiiiiiiiiiiii",
"iiiiiiiiiiiiiiiiiiiiiiiiiiiiiiiiiiiiiiiiiiiiiiii",
"iiiiiiiiiiiiiiiiiiiiiiiiiiiiiiiiiiiiiiiiiiiiiiii"
};
