/* XPM */
static char *magick[] = {
/* columns rows colors chars-per-pixel */
"46 43 255 2",
"   c #363a04",
".  c #034f00",
"X  c #084b00",
"o  c #0a4c00",
"O  c #0a4d00",
"+  c #0a4e00",
"@  c #0a4f00",
"#  c #035400",
"$  c #0b5100",
"%  c #0b5500",
"&  c #0e5107",
"*  c #0f5707",
"=  c #095900",
"-  c #0c5800",
";  c #0c5a00",
":  c #0c5c00",
">  c #036800",
",  c #0d6000",
"<  c #0d6300",
"1  c #0d6500",
"2  c #0e6800",
"3  c #0e6b00",
"4  c #0c6e00",
"5  c #0e6d00",
"6  c #0e6e00",
"7  c #047600",
"8  c #017c00",
"9  c #047c00",
"0  c #0f7200",
"q  c #0f7300",
"w  c #0f7500",
"e  c #0f7700",
"r  c #116f05",
"t  c #107700",
"y  c #107800",
"u  c #107900",
"i  c #107a00",
"p  c #107b00",
"a  c #137d03",
"s  c #147d04",
"d  c #414505",
"f  c #4d5206",
"g  c #545907",
"h  c #565c06",
"j  c #585e07",
"k  c #5d6713",
"l  c #048000",
"z  c #0c830a",
"x  c #1a810b",
"c  c #228513",
"v  c #258616",
"b  c #29891b",
"n  c #479a3b",
"m  c #4c9c40",
"M  c #4f9e43",
"N  c #519f45",
"B  c #53a048",
"V  c #60a755",
"C  c #71b067",
"Z  c #78b46f",
"A  c #79b570",
"S  c #95140f",
"D  c #9a120f",
"F  c #9e201b",
"G  c #a1120b",
"H  c #a71711",
"J  c #bf150d",
"K  c #b61912",
"L  c #b12a24",
"P  c #877e6f",
"I  c #a85652",
"U  c #be4f4a",
"Y  c #c51714",
"T  c #cc1c15",
"R  c #de150c",
"E  c #d11d15",
"W  c #d71e16",
"Q  c #de1f16",
"!  c #c33f39",
"~  c #e51d17",
"^  c #ef1e15",
"/  c #f01e15",
"(  c #f21c18",
")  c #f91a16",
"_  c #f91d19",
"`  c #e62017",
"'  c #e92017",
"]  c #ea2018",
"[  c #ed2118",
"{  c #ee2118",
"}  c #ef2118",
"|  c #ef2219",
" . c #ef221a",
".. c #ef241b",
"X. c #ef241c",
"o. c #ef261d",
"O. c #ef271e",
"+. c #f02118",
"@. c #f02a21",
"#. c #f02c23",
"$. c #f12c23",
"%. c #f02c24",
"&. c #f02f26",
"*. c #fa2824",
"=. c #f03128",
"-. c #f03229",
";. c #f1332b",
":. c #f0372f",
">. c #f13931",
",. c #f13b33",
"<. c #f13c34",
"1. c #f13f37",
"2. c #f23c34",
"3. c #f1413a",
"4. c #f2443c",
"5. c #f2463d",
"6. c #f2463f",
"7. c #cd4943",
"8. c #da6f69",
"9. c #d6716c",
"0. c #f34740",
"q. c #f24a43",
"w. c #f24c45",
"e. c #f24e47",
"r. c #f25049",
"t. c #f3534c",
"y. c #f3534d",
"u. c #f3564e",
"i. c #f35b55",
"p. c #f35e57",
"a. c #f45e56",
"s. c #f5615a",
"d. c #f4635d",
"f. c #f5655e",
"g. c #ec726c",
"h. c #e47974",
"j. c #f56760",
"k. c #f46861",
"l. c #f46862",
"z. c #f56a62",
"x. c #f46a64",
"c. c #f46d66",
"v. c #f56f69",
"b. c #f5706a",
"n. c #f6706b",
"m. c #f5756f",
"M. c #f57872",
"N. c #f57873",
"B. c #f77a74",
"V. c #f67c77",
"C. c #f67f7a",
"Z. c #80b978",
"A. c #ef837c",
"S. c #f7807b",
"D. c #87bd81",
"F. c #a39a87",
"G. c #a09394",
"H. c #b19c9d",
"J. c #b3b09e",
"K. c #b7b3a2",
"L. c #b9b5a5",
"P. c #bdb4a7",
"I. c #bcb8a8",
"U. c #8dc085",
"Y. c #94c48d",
"T. c #98c691",
"R. c #9dc996",
"E. c #a7cfa1",
"W. c #aed2a9",
"Q. c #b0d4ab",
"!. c #b2d5ad",
"~. c #b6d7b1",
"^. c #b5d8b1",
"/. c #bad9b5",
"(. c #d48480",
"). c #db8682",
"_. c #d09d9a",
"`. c #c2b9a2",
"'. c #c5bdb2",
"]. c #d4bcbd",
"[. c #f78680",
"{. c #f78b86",
"}. c #f78e89",
"|. c #f88e88",
" X c #f7918d",
".X c #f8948e",
"XX c #f79590",
"oX c #f89b96",
"OX c #f89b98",
"+X c #f99e98",
"@X c #f9a09b",
"#X c #f8a09c",
"$X c #f8a29d",
"%X c #f9a39e",
"&X c #eab1ae",
"*X c #f1a3a0",
"=X c #f7afab",
"-X c #f9a5a1",
";X c #f9a6a2",
":X c #faa7a3",
">X c #faa9a5",
",X c #faaca7",
"<X c #f9aeab",
"1X c #f9b0ac",
"2X c #f0b8b5",
"3X c #fab4b1",
"4X c #fab7b3",
"5X c #f9b8b4",
"6X c #fab8b5",
"7X c #fab8b6",
"8X c #fabab7",
"9X c #fcbbb6",
"0X c #fdbbb7",
"qX c #fcbcb7",
"wX c #fabbb9",
"eX c #fbbdb9",
"rX c #fbbfbc",
"tX c #fdbdb8",
"yX c #fdbeb9",
"uX c #c9c5b8",
"iX c #cbc8bc",
"pX c #dfc1b0",
"aX c #fac0bd",
"sX c #fbc1be",
"dX c #e6c3c1",
"fX c #fbc3c1",
"gX c #fbc5c1",
"hX c #fcc6c3",
"jX c #fcc6c4",
"kX c #fac9c6",
"lX c #fccbc9",
"zX c #fdd1cd",
"xX c #f1dede",
"cX c #fcd7d5",
"vX c #fdd8d5",
"bX c #fcd8d6",
"nX c #fcd9d6",
"mX c #fdd8d6",
"MX c #fdd9d6",
"NX c #fdd9d7",
"BX c #fddad7",
"VX c #fddbd8",
"CX c #fddddb",
"ZX c #fddfdc",
"AX c #fde1de",
"SX c #fee2e0",
"DX c #fee4e2",
"FX c #fee7e5",
"GX c #ffe9e7",
"HX c #fdeae8",
"JX c #ffeceb",
"KX c #ffeeec",
"LX c #fff6f5",
"PX c Gray100",
"IX c None",
/* pixels */
"IXIXIXIXIXIXIXIXIXIXIXIXIXIXIXIXIXIXIXIXIXIXIXIXIXIXIXIXIXIXIXIXIXIXIXIXIXIXIXIXIXIXIXIXIXIX",
"IXIXIXIXIXIXIXIXIXIXIXIXIXIXIXXX{.S.N.N.N.N.N.N.N.N.N.N.N.N.b.p.e.IXIXIXIXIXIXIXIXIXIXIXIXIX",
"IXIXIXIXIXIXIXIXIXIXIXIX8X3X<X#X XC.N.N.N.N.N.N.N.N.N.N.N.N.m.x.l.x.b.l.IXIXIXIXIXIXIXIXIXIX",
"IXIXIXIXIXIXIXIXIXIXfXwX3X-XXXC.x.i.y.y.y.y.y.y.y.y.y.y.y.y.y.u.p.l.b.c.l.d.IXIXIXIXIXIXIXIX",
"IXIXIXIXIXIXIXIXLXHX8X#X[.d.e.,.%.X.} } } } } } } } } }  .}  .X.%.2.q.u.p.p.i.y.IXIXIXIXIXIX",
"IXIXIXIXIXIXIXSXLXDX{.a.3.%...}  . .} } } } } } } }  .}  .} }  .}  .X.%.2.r.y.e.q.IXIXIXIXIX",
"IXIXIXIXIX8XrXbXLXzXe.X.X. .}  .} } } }  .} } } } } } } } } } } } } }  .X.&.,.6.e.q.,.IXIXIX",
"IXIXIXIXsXsX@X XJXgX%.^ }  .} } } } } } } } } } } } } } } } } } } }  . . . .X.;.6.3.X.@.IXIX",
"IXIXIXIX1XgXl.q.DXyX#.^ } } } } } } } } } } } } } } } } } } } } } } } } } }  .X.&.=. . .IXIX",
"IXIXIX3X<XOX:.m.JX9X#.^ } } } } } } } } } } } } } } } } } } } }  .} } } } } } }  . . .%.s.IX",
"IXIXZXsXsX-X .|.DXqX#.^ } }  .} } } } } }  .} } } }  .} } } }  .} } } } } } } } }  .X.:.p.C.",
"IXIXHX1X,XwXu.#XSXqX#.^ } } } } }  .} } } } } } } } } } } } } } } } } } } } }  .}  .X.;.6.u.",
"IXFXAX#X{.lXVXOXbXyX#.^  . .} } } } } } } }  .} } } } } } } } } } } } } } } } } } }  ...#.%.",
"IXPXsXrX#X3XPXj.bXyX#.^ } } } } } } } } } } } }  .} } } } } } } }  .} } } }  .} } } }  .} } ",
"IXKX+XcXeX.XHX6.CXyX#.^ } } } } } } } } } } } } } } } } } } } } } } } } } } } } } } } } } } ",
"IX@X XlXsXb.}...SXyX#.^ } } } }  .} } } } } } } } } } } } } }  .} } } } } } } } } } } } } } ",
"IXi.-XbXkXl.6.a.JXqX#.^ } } } } } } } } } } } } } } } } } }  .} } } } } } } } } }  .} } } } ",
"IXf.jXN.S.-X;.@XGX9X#.^ } } } } } } } } } } } }  .} } } } } } } } } } } }  .} } } } } }  .} ",
"IXhXlXN.|.rX-XoXZXqX#.^ } } }  .} } } } } }  .} } } } } } } } } } } }  .} } } } } } } } } } ",
"IXB.lXm.S.3X6.@XFX9X#.^ } } } } } } } } } } } } } } } } } } } } } } } } } } } } } } } } } } ",
"IX0.>XjX8Xm.,.b.KX9X#.^ } } } }  .} } } }  .} } } }  .} } } }  .} } } } } } } } } } } } } } ",
"IXb.[.zXkXc.V.#.DXyX#.^ } } } } } } } } } } } } } } } } } } } } } } } } } } } } } } }  .} } ",
"IXdXg.kX8X{.bX2.ZXyX#.^ } }  .} } } } } } } } } } } } } } } } } } } } } } } } }  .} } ' ` ` ",
"IXIX).&X*X=XPXs.bXyX#.^ } } } } } } } } } } } } } } } } } } } } } } }  .} } } } } } ` W T E ",
"IXIX_.8.h.dXHX{.bXyX#.^  . .} }  . .} } } }  . .} }  . .} } } }  . .} } } }  . . .' E K H H ",
"IXIXIX7.8.2Xc.,XAXqX#./ +.+.+.+.+.+.+.+.+.+.+.+.+.+.+.+.+.+.+.+.+.+.+.+.+.+.+.+. .Q K S S IX",
"IXIXIXIX(.).R A.AX9X*.) _ _ _ _ _ _ _ _ _ _ _ _ _ _ _ _ _ _ _ _ _ _ _ _ _ _ _ / ~ Y D D IXIX",
"IXIXIXIX! U J 9.xXpXk h j j j j j j j j j j j j j j j j j j j j j j j j j j g f d       IXIX",
"IXIXIXIXIXI G L ].`.z 8 l l l l l l l l l l l l l l l 9 l l l l 9 l l 9 9 7 > # . . . IXIXIX",
"IXIXIXIXIXIXIXF H.F.r 6 e p p p p p p p p p p p p p p p p p p p p p p 0 3 - + X + IXIXIXIXIX",
"IXIXIXIXIXIXIXIXG.P * = 1 3 0 e p p p p p p p p p p p p p p p p e 6 3 - + X + + IXIXIXIXIXIX",
"IXIXIXIXIXIXIXIXIXIX& X + % - < 3 3 6 0 e p p p p p p p p p 0 3 < - X + X + IXIXIXIXIXIXIXIX",
"IXIXIXIXIXIXIXIXIXIXIXIX+ + + X + + % < 6 t p p p p p p p 6 < $ X X + X P.'.IXIXIXIXIXIXIXIX",
"IXIXIXIXIXIXIXIXIXIXIXIXIXIXIX+ + + + - 6 p a p p p p p 0 < + + + K.J.L.I.IXIXIXIXIXIXIXIXIX",
"IXIXIXIXIXIXIXIXIXIXIXIXIXIXIXIXIXIXIXIXp c x p p p p e 1 + + uXL.K.IXIXIXIXIXIXIXIXIXIXIXIX",
"IXIXIXIXIXIXIXIXIXIXIXIXIXIXIXIXIXIXIXIXm n v p p p e 1 $ X + iXIXIXIXIXIXIXIXIXIXIXIXIXIXIX",
"IXIXIXIXIXIXIXIXIXIXIXIXIXIXIXIXIXIXIXZ.A B v p p e 3 $ X + IXIXIXIXIXIXIXIXIXIXIXIXIXIXIXIX",
"IXIXIXIXIXIXIXIXIXIXIXIXIXIXIXIXIXIXIXR.Z.n s t 0 < + X X IXIXIXIXIXIXIXIXIXIXIXIXIXIXIXIXIX",
"IXIXIXIXIXIXIXIXIXIXIXIXIXIXIXIXIXIXQ.T.V s 6 < % X + + IXIXIXIXIXIXIXIXIXIXIXIXIXIXIXIXIXIX",
"IXIXIXIXIXIXIXIXIXIXIXIXIXIXIXIX/.!.Y.m 0 : + X X + X IXIXIXIXIXIXIXIXIXIXIXIXIXIXIXIXIXIXIX",
"IXIXIXIXIXIXIXIXIXIXIXIXIXIX/.~.E.Z b 3 % X + + + IXIXIXIXIXIXIXIXIXIXIXIXIXIXIXIXIXIXIXIXIX",
"IXIXIXIXIXIXIXIXIXIX^.~.!.W.E.U.N 0 < % + + IXIXIXIXIXIXIXIXIXIXIXIXIXIXIXIXIXIXIXIXIXIXIXIX",
"IXIXIXIXIXIXIXIXIXIXIXD.C m v 0 1 - IXIXIXIXIXIXIXIXIXIXIXIXIXIXIXIXIXIXIXIXIXIXIXIXIXIXIXIX"
};
