/* XPM */
static char *magick[] = {
/* columns rows colors chars-per-pixel */
"48 48 244 2",
"   c Gray0",
".  c #0c0c0c",
"X  c Gray9",
"o  c #1b1b1b",
"O  c #272727",
"+  c Gray17",
"@  c Gray18",
"#  c #313131",
"$  c #343434",
"%  c Gray21",
"&  c #373737",
"*  c Gray22",
"=  c #3c3c3c",
"-  c Gray24",
";  c #3e3e3e",
":  c #004000",
">  c #004200",
",  c #004400",
"<  c #004700",
"1  c #004a00",
"2  c #004e00",
"3  c #005000",
"4  c #005100",
"5  c #005700",
"6  c #005900",
"7  c #005a00",
"8  c #005d00",
"9  c #006200",
"0  c #006300",
"q  c #006800",
"w  c #006b00",
"e  c #006c00",
"r  c #006f00",
"t  c #007100",
"y  c #007200",
"u  c #007400",
"i  c #007500",
"p  c #007800",
"a  c #007a00",
"s  c #007b00",
"d  c #007d00",
"f  c #007e00",
"g  c Gray25",
"h  c #444444",
"j  c Gray27",
"k  c Gray29",
"l  c #505050",
"z  c #515151",
"x  c Gray33",
"c  c Gray35",
"v  c #5f5f5f",
"b  c #606060",
"n  c Gray38",
"m  c Gray39",
"M  c Gray40",
"N  c #676767",
"B  c Gray43",
"V  c #717171",
"C  c Gray45",
"Z  c Gray46",
"A  c #797979",
"S  c #7c7c7c",
"D  c #008000",
"F  c #008100",
"G  c #008300",
"H  c #008400",
"J  c #008600",
"K  c #008700",
"L  c #008900",
"P  c #008a00",
"I  c #008d00",
"U  c #008f00",
"Y  c #009200",
"T  c #009500",
"R  c #009600",
"E  c #009800",
"W  c #009b00",
"Q  c #009c00",
"!  c #009f00",
"~  c #00a100",
"^  c #00a200",
"/  c #00a500",
"(  c #00a700",
")  c #00a800",
"_  c #00aa00",
"`  c #00ab00",
"'  c #00ad00",
"]  c #00b100",
"[  c #00b300",
"{  c #00b400",
"}  c #00b600",
"|  c #00b700",
" . c #00b900",
".. c #00ba00",
"X. c #00bd00",
"o. c #00bf00",
"O. c #00c200",
"+. c #00c300",
"@. c #00c500",
"#. c #00c600",
"$. c #00c900",
"%. c #00cb00",
"&. c #00ce00",
"*. c #00cf00",
"=. c #00d100",
"-. c #00d200",
";. c #00d500",
":. c #00d800",
">. c #00da00",
",. c #00db00",
"<. c #00dd00",
"1. c #00de00",
"2. c #00e000",
"3. c #00e100",
"4. c #00e300",
"5. c #00e400",
"6. c #00e700",
"7. c #00e900",
"8. c #00ea00",
"9. c #00ec00",
"0. c #00ed00",
"q. c #00ef00",
"w. c #00f000",
"e. c #00f200",
"r. c #00f300",
"t. c #00f500",
"y. c #00f600",
"u. c #00f800",
"i. c #00f900",
"p. c #00fb00",
"a. c #00fc00",
"s. c #00fe00",
"d. c Green",
"f. c #01ff01",
"g. c #03ff03",
"h. c #04ff04",
"j. c #06ff06",
"k. c #07ff07",
"l. c #09ff09",
"z. c #0aff0a",
"x. c #0cff0c",
"c. c #0dff0d",
"v. c #0fff0f",
"b. c #10ff10",
"n. c #12ff12",
"m. c #13ff13",
"M. c #15ff15",
"N. c #16ff16",
"B. c #18ff18",
"V. c #19ff19",
"C. c #1bff1b",
"Z. c #1cff1c",
"A. c #1eff1e",
"S. c #1fff1f",
"D. c #21ff21",
"F. c #22ff22",
"G. c #24ff24",
"H. c #25ff25",
"J. c #27ff27",
"K. c #28ff28",
"L. c #2bff2b",
"P. c #30ff30",
"I. c #31ff31",
"U. c #33ff33",
"Y. c #34ff34",
"T. c #36ff36",
"R. c #37ff37",
"E. c #39ff39",
"W. c #3aff3a",
"Q. c #3cff3c",
"!. c #3dff3d",
"~. c #3fff3f",
"^. c #42ff42",
"/. c #43ff43",
"(. c #45ff45",
"). c #46ff46",
"_. c #48ff48",
"`. c #49ff49",
"'. c #4bff4b",
"]. c #4cff4c",
"[. c #51ff51",
"{. c #55ff55",
"}. c #58ff58",
"|. c #5aff5a",
" X c #5bff5b",
".X c #5dff5d",
"XX c #5eff5e",
"oX c #60ff60",
"OX c #63ff63",
"+X c #64ff64",
"@X c #67ff67",
"#X c #69ff69",
"$X c #6cff6c",
"%X c #6fff6f",
"&X c #70ff70",
"*X c #73ff73",
"=X c #76ff76",
"-X c #79ff79",
";X c #7bff7b",
":X c #7cff7c",
">X c #7eff7e",
",X c #7fff7f",
"<X c #808080",
"1X c Gray51",
"2X c #848484",
"3X c #898989",
"4X c Gray54",
"5X c Gray55",
"6X c #8d8d8d",
"7X c #8e8e8e",
"8X c Gray57",
"9X c #929292",
"0X c #939393",
"qX c #959595",
"wX c Gray59",
"eX c #979797",
"rX c #9b9b9b",
"tX c Gray61",
"yX c #9f9f9f",
"uX c Gray63",
"iX c #a2a2a2",
"pX c #a4a4a4",
"aX c #a5a5a5",
"sX c Gray65",
"dX c #a7a7a7",
"fX c Gray66",
"gX c #a9a9a9",
"hX c #81ff81",
"jX c #82ff82",
"kX c #87ff87",
"lX c #8aff8a",
"zX c #8dff8d",
"xX c #8eff8e",
"cX c #91ff91",
"vX c #93ff93",
"bX c #94ff94",
"nX c #9aff9a",
"mX c #9cff9c",
"MX c Gray88",
"NX c Gray93",
"BX c #fbfbfb",
"VX c #fefefe",
"CX c Gray100",
"ZX c None",
/* pixels */
"ZXZXZXZXZXZXZXZXZXZXZXZXZXZXZXZXZXZXZXZXZXZXZXZXZXZXZXZXZXZXZXZXZXZXZXZXZXZXZXZXZXZXZXZXZXZXZXZX",
"ZXZXZXZXZXZXZXZXZXZXZXZXZXZXZXZXZXZXZXZXZXZXZXZXZXZXZXZXZXZXZXZXZXZXZXZXZXZXZXZXZXZXZXZXZXZXZXZX",
"ZXZXZXZXZXZXZXZXZXZXZXZXZXZXZXZXZXZXZXZXZXZXZXZXZXZXZXZXZXZXZXZXZXZXZXZXZXZXZXZXZXZXZXZXZXZXZXZX",
"ZXZXZXZXZXZXZXZXZXZXZXZXZXZXZXuXyXeX0X5X5X5X5X5X5X5X0X5X5X4X1XA B ZXZXZXZXZXZXZXZXZXZXZXZXZXZXZX",
"ZXZXZXZXZXZXZXZXZXZXZXfXpXpXuXyXbXzXlXhXhXhXhXhXhXhXhXhXhX,X=X%XM n n c ZXZXZXZXZXZXZXZXZXZXZXZX",
"ZXZXZXZXZXZXZXZXZXZXfXpXuXnXvXkX-X&X#X+XOXOXOXOXOXOXOXOXOXOX.X}.}.}.}.x l k ZXZXZXZXZXZXZXZXZXZX",
"ZXZXZXZXZXZXZXZXfXfXuXnXzX,X%X}._.!.T.P.P.P.P.P.P.P.P.P.P.P.P.T.!./._._._.j g ; ZXZXZXZXZXZXZXZX",
"ZXZXZXZXZXZXZXfXpXmXzX-XOX].T.G.Z.m.c.l.l.l.l.l.l.l.l.l.l.l.c.m.C.F.L.T.!.!.!.* # ZXZXZXZXZXZXZX",
"ZXZXZXZXZXpXpXyXbX,X+X_.P.Z.m.l.j.g.g.g.g.g.g.g.g.CXg.g.g.CXg.g.j.CXc.C.CXL.P.T.@ O o ZXZXZXZXZX",
"ZXZXZXZXrXyXnXlX%X[.T.Z.c.j.j.CXg.CXg.g.g.g.CXg.g.g.CXg.g.CXg.g.g.CXg.j.CXM.F.G.G.Z..   ZXZXZXZX",
"ZXZXZXZXeXvXhX+X/.G.M.l.g.g.CXg.g.g.CXg.g.g.CXg.CXg.CXg.g.CXg.g.g.CXg.g.CXj.m.C.C.m.g.  ZXZXZXZX",
"ZXZXZX0X5X,XOXW.Z.c.j.CXg.g.CXg.g.CXCXg.g.g.CXg.CXg.g.g.g.CXg.CXg.CXg.g.g.CXj.c.c.l.u.    ZXZXZX",
"ZXZX5X4X,XOX!.Z.l.j.g.CXg.CXCXg.g.CXg.g.g.CXCXg.g.g.g.CXCXCXg.CXg.CXg.g.CXCXg.g.j.j.u.7.    ZXZX",
"ZXZX2X,X%X_.G.c.g.g.CXg.g.g.g.g.g.g.CXg.g.CXg.g.g.g.g.g.g.g.g.CXg.g.g.g.CXg.g.g.g.g.g.q.;.  ZXZX",
"ZXC Z %X{.P.m.j.g.g.CXg.g.g.g.g.CXg.CXg.g.g.g.g.CXg.g.g.g.g.CXg.g.g.CXg.CXCXg.g.g.g.g.q.&.    ZX",
"ZXv OX}.!.C.l.g.g.g.CXCXCXCXg.CXCXCXCXg.CXg.g.CXg.g.CXg.g.g.CXCXCXg.g.g.CXCXg.g.g.g.g.5.O.~   ZX",
"ZXl [.).L.c.g.g.g.g.g.g.g.g.g.g.g.g.g.g.g.CXCXCXg.g.CXCXCXCXg.CXCXg.g.g.CXg.g.g.g.g.u.4. .Y   ZX",
"ZXj ).W.F.j.g.g.g.g.g.g.g.g.g.g.g.g.g.g.g.g.g.g.g.g.g.g.g.g.g.g.g.g.g.g.CXg.g.g.g.g.u.4.} H   ZX",
"ZX; !.T.Z.j.g.g.g.g.g.g.g.g.g.g.g.g.g.g.g.g.g.g.g.g.g.g.g.g.g.g.g.g.g.g.g.g.g.g.g.g.u.1.' D   ZX",
"ZX; !.P.Z.j.g.g.g.g.g.g.g.g.g.g.g.g.g.g.g.g.g.g.g.g.g.g.g.g.g.g.g.g.g.g.g.g.g.g.g.g.u.1.' D   ZX",
"ZX; W.P.C.j.g.g.g.g.g.g.g.g.g.g.g.g.g.g.g.g.g.g.g.g.g.g.g.g.g.g.g.g.g.g.g.g.g.g.g.g.u.,.) d   ZX",
"ZX% P.L.C.g.g.g.g.g.g.g.g.g.g.g.g.g.g.g.g.g.g.g.g.g.g.g.g.g.g.g.g.g.g.g.g.g.g.g.g.g.y.;.~ i   ZX",
"ZX+ G.F.m.g.g.g.g.g.g.g.g.g.g.g.g.g.g.g.g.g.g.g.g.g.g.g.g.g.g.CXCXg.g.g.g.g.g.g.g.u.r.%.T w   ZX",
"ZXX m.m.j.g.g.g.CXCXCXCXCXCXg.g.g.g.g.g.g.g.g.g.g.g.g.g.g.g.g.g.CXCXg.g.g.g.g.g.g.y.4.[ p 3   ZX",
"ZX    y.u.u.u.g.g.CXCXCXCXCXCXCXCXCXg.g.g.g.g.g.g.g.g.g.g.g.g.g.CXCXg.g.g.g.g.g.u.q.%.Y 5     ZX",
"ZXZX  4.7.r.u.g.g.g.CXCXCXCXCXCXCXCXCXCXCXCXCXCXCXCXCXCXCXCXCXCXCXCXCXCXCXCXCXg.r.,.) w :   ZXZX",
"ZXZX    ,.5.r.u.g.g.g.g.CXCXCXCXCXCXCXCXCXCXCXCXCXCXCXCXCXCXCXCXCXCXCXCXCXCXBXy.4. .d <     ZXZX",
"ZXZXZX    =.1.7.r.y.g.g.g.g.g.g.g.CXCXCXCXCXCXCXCXCXCXCXCXCXCXCXCXCXg.g.g.u.r.1.X.P 2     ZXZXZX",
"ZXZXZXZX  } X.&.1.q.y.u.g.g.g.g.g.g.g.g.g.g.g.g.g.g.g.g.g.g.g.g.CXCXg.u.y.7.;.} D 3 :   ZXZXZXZX",
"ZXZXZXZX    W /  .=.4.q.y.u.g.g.g.g.g.g.g.g.g.g.g.g.g.g.g.g.g.g.CXBXy.q.1.@.! t : :     ZXZXZXZX",
"ZXZXZXZXZX      I / X.=.4.q.y.u.g.g.g.g.g.g.g.g.g.g.g.g.g.g.g.u.y.NXMX%.) H 6 :       ZXZXZXZXZX",
"ZXZXZXZXZXZXZX    d I ~ } %.,.5.q.r.y.u.u.g.g.g.g.g.g.g.u.y.q.5.;.O./ H 9 : :     ZXZXZXZXZXZXZX",
"ZXZXZXZXZXZXZXZX      t D Y / } X.%.=.,.5.r.u.g.g.g.g.u.r.4.&.} T p 6 : :       ZXZXZXZXZXZXZXZX",
"ZXZXZXZXZXZXZXZXZXZX      9 e i d P W [ =.7.u.g.g.g.g.y.4.@.W i 2 : :       ZXZXZXZXZXZXZXZXZXZX",
"ZXZXZXZXZXZXZXZXZXZXZXZX      < 1 6 t W @.5.u.g.g.g.u.7.%.W 9 :         ZXZXZXZXZXZXZXZXZXZXZXZX",
"ZXZXZXZXZXZXZXZXZXZXZXZXZXZX              y.j.j.g.g.r.=.~ 9       ZXZXZXZXZXZXZXZXZXZXZXZXZXZXZX",
"ZXZXZXZXZXZXZXZXZXZXZXZXZXZXZXZXZXZXZXZX  M.C.c.g.r.,.' e :   ZXZXZXZXZXZXZXZXZXZXZXZXZXZXZXZXZX",
"ZXZXZXZXZXZXZXZXZXZXZXZXZXZXZXZXZXZXZX% % W.L.c.y.,.[ i : :   ZXZXZXZXZXZXZXZXZXZXZXZXZXZXZXZXZX",
"ZXZXZXZXZXZXZXZXZXZXZXZXZXZXZXZXZXZXZXn .X_.G.u.=.) t : :     ZXZXZXZXZXZXZXZXZXZXZXZXZXZXZXZXZX",
"ZXZXZXZXZXZXZXZXZXZXZXZXZXZXZXZXZXZX5X1X+XW.u.X.I 8 : :     ZXZXZXZXZXZXZXZXZXZXZXZXZXZXZXZXZXZX",
"ZXZXZXZXZXZXZXZXZXZXZXZXZXZXZXZXZXyX0X&X!.7.~ w : : :     ZXZXZXZXZXZXZXZXZXZXZXZXZXZXZXZXZXZXZX",
"ZXZXZXZXZXZXZXZXZXZXZXZXZXZXZXeXeX2X.XC.@.p : : :       ZXZXZXZXZXZXZXZXZXZXZXZXZXZXZXZXZXZXZXZX",
"ZXZXZXZXZXZXZXZXZXZXZXZXZXM S C {.F.,.I 3 :         ZXZXZXZXZXZXZXZXZXZXZXZXZXZXZXZXZXZXZXZXZXZX",
"ZXZXZXZXZXZXZXZXZXZX; j j ; G.g.%.P           ZXZXZXZXZXZXZXZXZXZXZXZXZXZXZXZXZXZXZXZXZXZXZXZXZX",
"ZXZXZXZXZXZXZXZXZXZXZX                ZXZXZXZXZXZXZXZXZXZXZXZXZXZXZXZXZXZXZXZXZXZXZXZXZXZXZXZXZX",
"ZXZXZXZXZXZXZXZXZXZXZXZXZXZXZXZXZXZXZXZXZXZXZXZXZXZXZXZXZXZXZXZXZXZXZXZXZXZXZXZXZXZXZXZXZXZXZXZX",
"ZXZXZXZXZXZXZXZXZXZXZXZXZXZXZXZXZXZXZXZXZXZXZXZXZXZXZXZXZXZXZXZXZXZXZXZXZXZXZXZXZXZXZXZXZXZXZXZX",
"ZXZXZXZXZXZXZXZXZXZXZXZXZXZXZXZXZXZXZXZXZXZXZXZXZXZXZXZXZXZXZXZXZXZXZXZXZXZXZXZXZXZXZXZXZXZXZXZX"
};
