/* XPM */
static char *magick[] = {
/* columns rows colors chars-per-pixel */
"48 48 12 1",
"  c Gray0",
". c #ff3000",
"X c #ff3030",
"o c #ff6500",
"O c #ff6530",
"+ c #ff6141",
"@ c #ff9a00",
"# c #ff9a30",
"$ c #ffcf30",
"% c #ffe341",
"& c Gray74",
"* c None",
/* pixels */
"************************************************",
"************************************************",
"***************                  ***************",
"************    .....$$$$$#.....    ************",
"**********   +.......$$$$$o........   **********",
"********   +++.......#$$$$O..........   ********",
"*******  ............o$$$$...........++  *******",
"****** $$o............$$$$...........+%%   *****",
"***** $$$$$...........$$$#...........%%%%+  ****",
"**** .o#$$$$#.........#$$o.........o$%%++++ ****",
"*** ....o$$$$$........#$$.........#$%++++++  ***",
"**  ......O#$$$o......o$$.......o$$$#+++++++  **",
"** +........o$$$#......$#.....o$$$#O.++++++++ **",
"*  +..........O$$$o...####...#$$#O...++++++++  *",
"* ++++++++++++..O$$#o$$$$$$O$$#O.....+++++++++ *",
"* Oo....++++++....o#$$$$$$$$#o...........oooO@ *",
"* $$$$$oO......oOoX@$$$$$$$$#..ooO@##$$$$$$$$$ *",
"* $$$$$$$$$$$##$$$$#$$$$$$$$#$$$$$$$$$$$$$$$$$ *",
"* $$$$$$$$$$$$$$$###$$$$$$$$#O#@#$$$$$$$$$$$$$ *",
"* $$$$$$$$$$$$$....#$$$$$$$$#.......OoO####$$$ *",
"* $$$$$###oOoO....o#$$$$$$$$#o................ *",
"* #@#OoO++++++..o$$#o$$$$$$o$$#O.....+++++++++ *",
"* ++++++++++++O$$%O...###O...O$$#O...+++++++++ *",
"*  +++++++++++$%%......$$......#$$#o.++++++++  *",
"** +++.....O$$$o......O$$.......O$$$#++++++++ **",
"**  ++...o$$$$#.......o$$O........#$$%%+++++  **",
"***  +.O$$$$$O........#$$O.........O%%%%%++  ***",
"**** +$$$$$#..........$$$#...........%%%%%% ****",
"****  $$$$O...........$$$$...........++%%%  ****",
"*****  %%+++++.......O$$$$...........+++   *****",
"*******  +++++.......#$$$$O..........++  *******",
"********   +++.......#$$$$@..........   ********",
"**********   +.......$$$$$$O.......   **********",
"************    +++++%$$$$$O...+    ************",
"***************      %$$$$$#...  ***************",
"******************** %$$$$$$.  *****************",
"******************** %$$$$$$  ******************",
"******************* +%$$$$$$ *******************",
"******************* +%$$$$$ ********************",
"****************** ++%$$$$ *********************",
"****************  +++$$$  **********************",
"**************  ++++++  ************************",
"**********    ++++    **************************",
"***********       ******************************",
"************************************************",
"************************************************",
"************************************************",
"************************************************"
};
