/* XPM */
static char * opensls_xpm[] = {
"48 20 51 1",
" 	c None",
".	c #AAAAAA",
"+	c #96959C",
"@	c #848098",
"#	c #442AA8",
"$	c #4B35A4",
"%	c #8D8A99",
"&	c #432AA7",
"*	c #736A98",
"=	c #3315AD",
"-	c #6B5F99",
";	c #A09FA2",
">	c #2C0AB2",
",	c #3C1FAB",
"'	c #2500B6",
")	c #63559C",
"!	c #533FA1",
"~	c #736A99",
"{	c #3315AE",
"]	c #A09FA1",
"^	c #3B1FA9",
"/	c #2C0AB1",
"(	c #6B609A",
"_	c #442AA7",
":	c #5B4A9E",
"<	c #2400B5",
"[	c #4B35A3",
"}	c #4B35A2",
"|	c #533F9F",
"1	c #3B1FAB",
"2	c #6B5F9A",
"3	c #63559B",
"4	c #847F97",
"5	c #2400B4",
"6	c #7C7597",
"7	c #847F98",
"8	c #3B1FA8",
"9	c #3B1FAA",
"0	c #6B5F98",
"a	c #2400B3",
"b	c #432AA6",
"c	c #63559A",
"d	c #5B4A9D",
"e	c #432AA5",
"f	c #2B0AB1",
"g	c #2B0AB0",
"h	c #2B0AAF",
"i	c #3315AC",
"j	c #2400B2",
"k	c #736A97",
"l	c #5A4A9C",
"................................................",
"................................................",
"................................................",
"......+.++.......................@#$..%&.....*=-",
".....;>,'').....................!>'~..${...]^//%",
".....(')@_'+...................:{:%...<[...^}|].",
".....1)..+'2..+@...............'!....@<3..45*...",
"....@'@...>3..!-....26.........{>%...*57..+58]..",
"...._'....<*.+<+...:<[..;[*....@>9]..45]...0a|..",
"....3<...*>].b^[*.]<{@.]9<-*6...75b..c=.....cac.",
"....3<..]{%.d5=5/]-5-..^}5e5/]...d5+.c}......88]",
"....*<6@^*..+fg6|4+g^=++|5|%5^..*88c.e}0e0.]0he6",
"....]^5b%...]58....6c+..g|..%]+ia|...|ai0.6hjk..",
"............4al.........4......0%.........]0+...",
"............6a%.................................",
"............ci..................................",
"............+4..................................",
"................................................",
"................................................",
"................................................"};
