/* XPM */
static char *magick[] = {
/* columns rows colors chars-per-pixel */
"48 48 256 2",
"   c Gray0",
".  c #000200",
"X  c #0c0c0c",
"o  c #100505",
"O  c #161616",
"+  c #1b1b1b",
"@  c #272727",
"#  c #2a2a2a",
"$  c Gray18",
"%  c #313131",
"&  c #353535",
"*  c #373d37",
"=  c #393939",
"-  c #3c3c3c",
";  c #3f3f3f",
":  c #400000",
">  c #420000",
",  c #440000",
"<  c #4b0000",
"1  c #4e0000",
"2  c #500000",
"3  c #5a0000",
"4  c #5d0000",
"5  c #620000",
"6  c #6a0000",
"7  c #6f0000",
"8  c #710000",
"9  c #720000",
"0  c #740000",
"q  c #780000",
"w  c #7b0000",
"e  c #7e0000",
"r  c #404000",
"t  c #515100",
"y  c #575700",
"u  c #686800",
"i  c #6b6b00",
"p  c #757500",
"a  c #7b7b00",
"s  c #7e7e00",
"d  c Gray25",
"f  c #464646",
"g  c #494949",
"h  c #515151",
"j  c #545954",
"k  c #585858",
"l  c #5f5f5f",
"z  c #606060",
"x  c Gray39",
"c  c #676767",
"v  c #6d6d6d",
"b  c Gray45",
"n  c #767676",
"m  c Gray47",
"M  c Gray",
"N  c #840000",
"B  c #890000",
"V  c #8a0000",
"C  c #8d0000",
"Z  c #8f0000",
"A  c #960000",
"S  c #980000",
"D  c #9b0000",
"F  c #9c0000",
"G  c #9f0000",
"H  c #a10000",
"J  c #a50000",
"K  c #a70000",
"L  c #aa0000",
"P  c #ad0000",
"I  c #b10000",
"U  c #b40000",
"Y  c #b70000",
"T  c #ba0000",
"R  c #bd0000",
"E  c #bf0000",
"W  c #c20000",
"Q  c #c50000",
"!  c #c60000",
"~  c #c80000",
"^  c #cb0000",
"/  c #ce0000",
"(  c #d10000",
")  c #d20000",
"_  c #d50000",
"`  c #d80000",
"'  c #db0000",
"]  c #dd0000",
"[  c #de0000",
"{  c #e00000",
"}  c #e10000",
"|  c #e30000",
" . c #e40000",
".. c #e70000",
"X. c #e90000",
"o. c #ea0000",
"O. c #ec0000",
"+. c #ed0000",
"@. c #ef0000",
"#. c #f00000",
"$. c #f20000",
"%. c #f30000",
"&. c #f50000",
"*. c #f60000",
"=. c #f80000",
"-. c #f90000",
";. c #fb0000",
":. c #fc0000",
">. c #fe0000",
",. c Red",
"<. c #ff0101",
"1. c #ff0303",
"2. c #ff0404",
"3. c #ff0606",
"4. c #ff0707",
"5. c #ff0909",
"6. c #ff0a0a",
"7. c #ff0d0d",
"8. c #ff0f0f",
"9. c #ff1010",
"0. c #ff1212",
"q. c #ff1515",
"w. c #ff1818",
"e. c #ff1919",
"r. c #ff1b1b",
"t. c #ff1c1c",
"y. c #ff1f1f",
"u. c #ff2121",
"i. c #ff2525",
"p. c #ff2727",
"a. c #ff2828",
"s. c #ff2b2b",
"d. c #ff3030",
"f. c #ff3131",
"g. c #ff3333",
"h. c #ff3434",
"j. c #ff3636",
"k. c #ff3737",
"l. c #ff3939",
"z. c #ff3c3c",
"x. c #ff3f3f",
"c. c #ff4343",
"v. c #ff4949",
"b. c #ff4b4b",
"n. c #ff4c4c",
"m. c #ff5151",
"M. c #ff5555",
"N. c #ff5858",
"B. c #ff5a5a",
"V. c #ff5b5b",
"C. c #ff5d5d",
"Z. c #ff6060",
"A. c #ff6363",
"S. c #ff6464",
"D. c #ff6767",
"F. c #ff6969",
"G. c #ff6c6c",
"H. c #ff6f6f",
"J. c #ff7070",
"K. c #ff7373",
"L. c #ff7676",
"P. c #ff7a7a",
"I. c #ff7c7c",
"U. c #ff7f7f",
"Y. c #818100",
"T. c #878700",
"R. c #929200",
"E. c #959500",
"W. c #a2a200",
"Q. c #aaaa00",
"!. c #adad00",
"~. c #b4b400",
"^. c #b9b900",
"/. c #c3c300",
"(. c #cccc00",
"). c #d5d500",
"_. c #d8d800",
"`. c #dbdb00",
"'. c #dede00",
"]. c #e0e000",
"[. c #e3e300",
"{. c #e7e700",
"}. c #e9e900",
"|. c #ecec00",
" X c #f0f000",
".X c #f2f200",
"XX c #f6f600",
"oX c #f8f800",
"OX c #f9f900",
"+X c #fbfb00",
"@X c #fcfc00",
"#X c #fefe00",
"$X c Yellow",
"%X c #ffff01",
"&X c #ffff03",
"*X c #ffff04",
"=X c #ffff06",
"-X c #ffff09",
";X c #ffff0a",
":X c #ffff0c",
">X c #ffff0d",
",X c #ffff0f",
"<X c #ffff10",
"1X c #ffff13",
"2X c #ffff18",
"3X c #ffff1b",
"4X c #ffff1c",
"5X c #ffff1e",
"6X c #ffff22",
"7X c #ffff26",
"8X c #ffff2b",
"9X c #ffff31",
"0X c #ffff33",
"qX c #ffff34",
"wX c #ffff3a",
"eX c #ffff3c",
"rX c #ffff3d",
"tX c #ffff46",
"yX c #ffff51",
"uX c #ffff55",
"iX c #ffff58",
"pX c #ffff60",
"aX c #ffff63",
"sX c #ffff6c",
"dX c #ffff6f",
"fX c #ffff7f",
"gX c #818181",
"hX c #848484",
"jX c #888888",
"kX c #8b8b8b",
"lX c #8d8d8d",
"zX c #8e8e8e",
"xX c Gray56",
"cX c Gray57",
"vX c #939393",
"bX c #979797",
"nX c #9a9a9a",
"mX c Gray61",
"MX c #9f9f9f",
"NX c #a0a0a0",
"BX c #a2a2a2",
"VX c #a3a6a3",
"CX c #a5a5a5",
"ZX c Gray65",
"AX c Gray66",
"SX c #a9a9a9",
"DX c #ff8181",
"FX c #ff8282",
"GX c #ff8787",
"HX c #ff8a8a",
"JX c #ff8d8d",
"KX c #ff9292",
"LX c #ff9494",
"PX c #ff9a9a",
"IX c #ff9c9c",
"UX c None",
/* pixels */
"UXUXUXUXUXUXUXUXUXUXUXUXUXUXUXUXUXUXUXUXUXUXUXUXUXUXUXUXUXUXUXUXUXUXUXUXUXUXUXUXUXUXUXUXUXUXUXUX",
"UXUXUXUXUXUXUXUXUXUXUXUXUXUXUXUXUXUXUXUXUXUXUXUXUXUXUXUXUXUXUXUXUXUXUXUXUXUXUXUXUXUXUXUXUXUXUXUX",
"UXUXUXUXUXUXUXUXUXUXUXUXUXUXUXUXUXUXUXUXUXUXUXUXUXUXUXUXUXUXUXUXUXUXUXUXUXUXUXUXUXUXUXUXUXUXUXUX",
"UXUXUXUXUXUXUXUXUXUXUXUXUXUXUXBXMXbXvXzXzXzXzXzXzXzXzXzXzXkXgXm v UXUXUXUXUXUXUXUXUXUXUXUXUXUXUX",
"UXUXUXUXUXUXUXUXUXUXUXAXZXZXBXMXKXJXHXDXDXDXDXDXDXDXDXDXDXP.L.J.c z z k UXUXUXUXUXUXUXUXUXUXUXUX",
"UXUXUXUXUXUXUXUXUXUXAXZXBXPXKXGXP.J.F.S.A.A.A.A.A.A.A.A.A.A.C.V.V.V.V.j h g UXUXUXUXUXUXUXUXUXUX",
"UXUXUXUXUXUXUXUXAXAXVXPXJXU.H.V.v.x.j.d.d.d.d.d.d.d.d.d.d.d.d.j.x.c.v.v.v.f d - UXUXUXUXUXUXUXUX",
"UXUXUXUXUXUXUXAXZXIXJXP.A.v.j.p.r.0.7.5.5.5.5.5.5.5.5.5.5.5.7.0.r.u.a.d.x.x.x.* % UXUXUXUXUXUXUX",
"UXUXUXUXUXBXZXBXLXU.S.v.d.y.0.5.2.,.,.,.,.,.,.,.,.,.,.,.,.,.,.,.2.5.0.r.p.a.d.j.$ @ + UXUXUXUXUX",
"UXUXUXUXnXMXPXHXH.m.j.y.8.5.2.,.,.,.,.,.,.,.,.,.,.,.,.,.,.,.,.,.,.,.2.2.7.q.u.a.p.y.X   UXUXUXUX",
"UXUXUXUXbXKXDXS.c.p.q.5.1.,.,.,.,.,.,.,.,.,.,.,.,.,.,.,.,.,.,.,.,.,.,.,.2.2.0.r.r.0.,.  UXUXUXUX",
"UXUXUXvXzXfXaXwX4X>X=X&X&X&X&X&X&X&X&X&X&X&X&X&X&X&X&X&X&X&X&X&X&X&X&X&X&X&X=X>X>X-XoX    UXUXUX",
"UXUXkXkXfXaXrX4X-X=X&X&X&X&X&X&X&X&X&X&X&X&X&X&X&X&X&X&X&X&X&X&X&X&X&X&X&X&X&X&X=X=XoX}.    UXUX",
"UXUXhXfXdXtX7X>X&X&X&X&X&X&X&X&X&X&X&X&X&X&X&X&X&X&X&X&X&X&X&X&X&X&X&X&X&X&X&X&X&X&X&X|.).  UXUX",
"UXb n dXuX9X1X=X&X&X&X&X&X&X&X&X&X&X&X&X&X&X&X&X&X&X&X&X&X&X&X&X&X&X&X&X&X&X&X&X&X&X&X|.(.    UX",
"UXz aXiXrX3X-X&X&X&X&X&X&X&X&X&X&X&X&X&X&X&X&X&X&X&X&X&X&X&X&X&X&X&X&X&X&X&X&X&X&X&X&X{./.W.  UX",
"UXh yXtX8X>X&X&X&X&X&X&X&X&X&X&X&X&X&X&X&X&X&X&X&X&X&X&X&X&X&X&X&X&X&X&X&X&X&X&X&X&XoX].^.R.  UX",
"UXf tXwX6X=X&X&X&X&X&X&X&X&X&X&X&X&X&X&X&X&X&X&X&X&X&X&X&X&X&X&X&X&X&X&X&X&X&X&X&X&X&X].~.T.  UX",
"UX; rXqX4X=X&X&X&X&X&X&X&X&X&X&X&X&X&X&X&X&X&X&X&X&X&X&X&X&X&X&X&X&X&X&X&X&X&X&X&X&XoX'.!.Y.  UX",
"UX; rX9X4X=X&X&X&X&X&X&X&X&X&X&X&X&X&X&X&X&X&X&X&X&X&X&X&X&X&X&X&X&X&X&X&X&X&X&X&X&XoX'.!.Y.  UX",
"UX; wX9X3X=X&X&X&X&X&X&X&X&X&X&X&X&X&X&X&X&X&X&X&X&X&X&X&X&X&X&X&X&X&X&X&X&X&X&X&X&XoX_.Q.s   UX",
"UX& 9X8X3X&X&X&X&X&X&X&X&X&X&X&X&X&X&X&X&X&X&X&X&X&X&X&X&X&X&X&X&X&X&X&X&X&X&X&X&X&XXX).W.p   UX",
"UX# 7X6X1X&X&X&X&X&X&X&X&X&X&X&X&X&X&X&X&X&X&X&X&X&X&X&X&X&X&X&X&X&X&X&X&X&X&X&X&XoX.X(.E.i   UX",
"UXO 1X1X=X&X&X&X&X&X&X&X&X&X&X&X&X&X&X&X&X&X&X&X&X&X&X&X&X&X&X&X&X&X&X&X&X&X&X&X&XXX].~.a t   UX",
"UX    XXoXoXoX&X&X&X&X&X&X&X&X&X&X&X&X&X&X&X&X&X&X&X&X&X&X&X&X&X&X&X&X&X&X&X&X&XoX|.(.R.y     UX",
"UXUX  ].}..XoX&X&X&X&X&X&X&X&X&X&X&X&X&X&X&X&X&X&X&X&X&X&X&X&X&X&X&X&X&X&X&X&X&X.X_.Q.i r   UXUX",
"UXUX    `  .$.=.,.,.,.,.,.,.,.,.,.,.,.,.,.,.,.,.,.,.,.,.,.,.,.,.,.,.,.,.,.,.=.*.} T e ,     UXUX",
"UXUXUX    ( [ o.$.*.,.,.,.,.,.,.,.,.,.,.,.,.,.,.,.,.,.,.,.,.,.,.,.,.,.,.,.=.$.} R V 1     UXUXUX",
"UXUXUXUX  T R / [ @.*.=.,.,.,.,.,.,.,.,.,.,.,.,.,.,.,.,.,.,.,.,.,.,.,.=.*.o._ U N 2 :   UXUXUXUX",
"UXUXUXUX    D J T ( } @.*.=.,.,.,.,.,.,.,.,.,.,.,.,.,.,.,.,.,.,.,.=.*.@.[ Q G 9 : :     UXUXUXUX",
"UXUXUXUXUX      C J R ( } @.*.=.,.,.,.,.,.,.,.,.,.,.,.,.,.,.,.=.*.@.} ~ L N 3 :       UXUXUXUXUX",
"UXUXUXUXUXUXUX    e C G U ~ `  .o.$.*.=.=.,.,.,.,.,.,.,.=.*.@. ._ W J N 5 : :     UXUXUXUXUXUXUX",
"UXUXUXUXUXUXUXUX      7 e C G I R ~ ( [  .$.=.,.,.,.,.=.$.} / U A w 3 : :       UXUXUXUXUXUXUXUX",
"UXUXUXUXUXUXUXUXUXUX      4 6 9 w V D U ( o.=.,.,.,.,.*.} Q G 0 1 : :       UXUXUXUXUXUXUXUXUXUX",
"UXUXUXUXUXUXUXUXUXUXUXUX      o < 3 0 D Q  .=.,.,.,.=.o.~ D 5 :         UXUXUXUXUXUXUXUXUXUXUXUX",
"UXUXUXUXUXUXUXUXUXUXUXUXUXUX              *.2.2.2.,.$.( H 5       UXUXUXUXUXUXUXUXUXUXUXUXUXUXUX",
"UXUXUXUXUXUXUXUXUXUXUXUXUXUXUXUXUXUXUXUX  q.r.7.,.$.` P 7 :   UXUXUXUXUXUXUXUXUXUXUXUXUXUXUXUXUX",
"UXUXUXUXUXUXUXUXUXUXUXUXUXUXUXUXUXUXUX& & l.a.7.*.` I 0 : :   UXUXUXUXUXUXUXUXUXUXUXUXUXUXUXUXUX",
"UXUXUXUXUXUXUXUXUXUXUXUXUXUXUXUXUXUXUXz C.v.p.=.( J 9 : :     UXUXUXUXUXUXUXUXUXUXUXUXUXUXUXUXUX",
"UXUXUXUXUXUXUXUXUXUXUXUXUXUXUXUXUXUXzXM S.l.=.R C 4 : :     UXUXUXUXUXUXUXUXUXUXUXUXUXUXUXUXUXUX",
"UXUXUXUXUXUXUXUXUXUXUXUXUXUXUXUXUXMXzXJ.x.@.H 6 : : :     UXUXUXUXUXUXUXUXUXUXUXUXUXUXUXUXUXUXUX",
"UXUXUXUXUXUXUXUXUXUXUXUXUXUXUXbXvXgXC.r.Q 0 : : :       UXUXUXUXUXUXUXUXUXUXUXUXUXUXUXUXUXUXUXUX",
"UXUXUXUXUXUXUXUXUXUXUXUXUXc n v M.u.` C 2 :         UXUXUXUXUXUXUXUXUXUXUXUXUXUXUXUXUXUXUXUXUXUX",
"UXUXUXUXUXUXUXUXUXUX= d d ; p.,.~ V           UXUXUXUXUXUXUXUXUXUXUXUXUXUXUXUXUXUXUXUXUXUXUXUXUX",
"UXUXUXUXUXUXUXUXUXUXUX                UXUXUXUXUXUXUXUXUXUXUXUXUXUXUXUXUXUXUXUXUXUXUXUXUXUXUXUXUX",
"UXUXUXUXUXUXUXUXUXUXUXUXUXUXUXUXUXUXUXUXUXUXUXUXUXUXUXUXUXUXUXUXUXUXUXUXUXUXUXUXUXUXUXUXUXUXUXUX",
"UXUXUXUXUXUXUXUXUXUXUXUXUXUXUXUXUXUXUXUXUXUXUXUXUXUXUXUXUXUXUXUXUXUXUXUXUXUXUXUXUXUXUXUXUXUXUXUX",
"UXUXUXUXUXUXUXUXUXUXUXUXUXUXUXUXUXUXUXUXUXUXUXUXUXUXUXUXUXUXUXUXUXUXUXUXUXUXUXUXUXUXUXUXUXUXUXUX"
};
