/* XPM */
static char *magick[] = {
/* columns rows colors chars-per-pixel */
"48 48 162 2",
"   c Gray0",
".  c #000100",
"X  c #010101",
"o  c Gray1",
"O  c #040404",
"+  c #060606",
"@  c #090909",
"#  c Gray4",
"$  c #0c0c0c",
"%  c Gray5",
"&  c #101010",
"*  c Gray7",
"=  c #121512",
"-  c #161616",
";  c #181818",
":  c #191919",
">  c #1b1b1b",
",  c Gray11",
"<  c #1e1e1e",
"1  c #222222",
"2  c Gray14",
"3  c #272727",
"4  c #282828",
"5  c #2a2a2a",
"6  c Gray17",
"7  c Gray18",
"8  c Gray19",
"9  c #313131",
"0  c Gray20",
"q  c #343434",
"w  c Gray21",
"e  c #373737",
"r  c Gray22",
"t  c #3a3a3a",
"y  c #3c3c3c",
"u  c Gray24",
"i  c #3e3e3e",
"p  c #3f3f3f",
"a  c #404011",
"s  c Gray25",
"d  c #414141",
"f  c Gray26",
"g  c #434343",
"h  c Gray27",
"j  c #464646",
"k  c #494949",
"l  c Gray29",
"z  c #4b4b4b",
"x  c Gray30",
"c  c #4e4e4e",
"v  c #505050",
"b  c #515151",
"n  c Gray33",
"m  c #555555",
"M  c #565656",
"N  c Gray34",
"B  c #585858",
"V  c #5a5a5a",
"C  c #5b5b5b",
"Z  c Gray36",
"A  c #5f5f5f",
"S  c #606060",
"D  c Gray39",
"F  c #646464",
"G  c Gray40",
"H  c #676767",
"J  c #686868",
"K  c Gray42",
"L  c #6c6c6c",
"P  c #6d6d6d",
"I  c #6f6f6f",
"U  c #717171",
"Y  c #727272",
"T  c Gray45",
"R  c #747474",
"E  c Gray46",
"W  c #767676",
"Q  c Gray47",
"!  c #797979",
"~  c #7b7b7b",
"^  c Gray49",
"/  c #93932c",
"(  c #ffff5f",
")  c #818181",
"_  c #838383",
"`  c #848484",
"'  c #868686",
"]  c Gray53",
"[  c #888888",
"{  c #898989",
"}  c Gray54",
"|  c #8b8b8b",
" . c #8d8d8d",
".. c #8e8e8e",
"X. c Gray57",
"o. c #929292",
"O. c #939393",
"+. c #959595",
"@. c Gray59",
"#. c #979797",
"$. c #989898",
"%. c #9a9a9a",
"&. c #9b9b9b",
"*. c Gray61",
"=. c #9d9d9d",
"-. c Gray62",
";. c #9f9f9f",
":. c #a0a0a0",
">. c Gray63",
",. c #a2a2a2",
"<. c Gray64",
"1. c #a5a5a5",
"2. c Gray65",
"3. c Gray66",
"4. c #a9a9a9",
"5. c #aaaaaa",
"6. c Gray67",
"7. c #baa3a3",
"8. c #b1b1b1",
"9. c Gray70",
"0. c #b4b4b4",
"q. c #b6b6b6",
"w. c #b7b7b7",
"e. c #b9b9b9",
"r. c Gray74",
"t. c Gray75",
"y. c #ffff81",
"u. c #ffff87",
"i. c #ffff88",
"p. c #ffff97",
"a. c #c0c0c0",
"s. c #c3c3c3",
"d. c #c5c5c5",
"f. c #cbcbcb",
"g. c #cecece",
"h. c Gray82",
"j. c Gray83",
"k. c #d5d5d5",
"l. c #d8d8d8",
"z. c #dadada",
"x. c Gray86",
"c. c #dddddd",
"v. c Gray87",
"b. c Gray88",
"n. c #e1e1e1",
"m. c Gray89",
"M. c #e7e7e7",
"N. c #e9e9e9",
"B. c #eaeaea",
"V. c #ececec",
"C. c #efefef",
"Z. c Gray94",
"A. c Gray95",
"S. c #f3f3f3",
"D. c #f6f6f6",
"F. c #f8f8f8",
"G. c #f9f9f9",
"H. c #fbfbfb",
"J. c Gray99",
"K. c #fefefe",
"L. c Gray100",
"P. c None",
/* pixels */
"P.P.P.P.P.P.P.P.P.P.P.P.P.P.P.P.P.P.P.P.P.P.P.P.P.P.P.P.P.P.P.P.P.P.P.P.P.P.P.P.P.P.P.P.P.P.P.P.",
"P.P.P.P.P.P.P.P.P.P.P.P.P.P.P.P.P.P.P.P.P.P.P.P.P.P.P.P.P.P.P.P.P.P.P.P.P.P.P.P.P.P.P.P.P.P.P.P.",
"P.P.P.P.P.P.P.P.P.P.P.P.P.P.P.P.P.P.P.P.P.P.P.P.P.P.P.P.P.P.P.P.P.P.P.P.P.P.P.P.P.P.P.P.P.P.P.P.",
"P.P.P.P.P.P.P.P.P.P.P.P.P.P.P.<.;.#.O.....................| ) ! I P.P.P.P.P.P.P.P.P.P.P.P.P.P.P.",
"P.P.P.P.P.P.P.P.P.P.P.3.2.2.<.;.L.L.L.L.L.L.L.L.L.L.L.L.L.L.L.L.F S S B P.P.P.P.P.P.P.P.P.P.P.P.",
"P.P.P.P.P.P.P.P.P.P.3.2.<.L.L.L.! L.L.L.L.L.L.L.L.L.L.L.L.L.L.L.L.L.L.m b z P.P.P.P.P.P.P.P.P.P.",
"P.P.P.P.P.P.P.P.3.3.7.%.L.L.L.B z u L.8 8 8 8 8 8 8 8 8 8 8 8 w u f z z z j f u P.P.P.P.P.P.P.P.",
"P.P.P.P.P.P.P.3.2.;...! L.L.L.3 > * L.@ @ @ @ @ @ @ @ @ @ @ % * - 1 6 w u u u w 8 P.P.P.P.P.P.P.",
"P.P.P.P.P.<.2.<.L.L.S L.L.L.L.L.O L.L.                          O @ * > 3 6 8 w 7 3 > P.P.P.P.P.",
"P.P.P.P.%.;.L.| L.L.L.L.L.@ L.L.L.L.L.L.L.L.L.L.L.L.L.L.L.L.L.L.L.L.L.L.L.L.L.L.L.L.%   P.P.P.P.",
"P.P.P.P.#.L.) F f L.L.L.O     L.L.L.L.L.L.L.L.L.L.L.L.L.L.L.L.L.L.L.L.L.L.L.L.L.L.L.L.  P.P.P.P.",
"P.P.P.O...L.S t , L.L.L.      L.L.L.L.L.L.L.L.L.L.L.L.L.L.L.L.L.L.L.L.L.L.L.L.L.L.L.H.    P.P.P.",
"P.P.| | L.L.L., L.L.L.L.L.  L.L.L.L.L.                                          O O         P.P.",
"P.P.` L.I L.L.L.L.L.  L.L.L.L.L.  L.L.                                                      P.P.",
"P.T W I m 8 L.L.L.      L.L.L.      L.                                                        P.",
"P.S L.B u > L.L.L.      L.L.L.      L.L.L.L.L.L.L.L.L.L.L.L.L.L.L.L.L.L.L.L.L.L.L.L.L.B.a.<.  P.",
"P.b L.L.6 L.L.L.L.L.  L.L.L.L.L.  L.L.L.L.L.L.L.L.L.L.L.L.L.L.L.L.L.L.L.L.L.L.L.L.L.H.m.e.O.  P.",
"P.j L.L.L.L.L.L.L.L.L.L.L.L.L.L.L.L.L.L.L.L.L.L.L.L.L.L.L.L.L.L.L.L.L.L.L.L.L.L.L.L.H.m.9.`   P.",
"P.u u w , O                                                                                   P.",
"P.u u w , O                                                                                   P.",
"P.u t 8 > O                                                                                   P.",
"P.w L.L.L.L.L.L.L.L.L.L.L.L.L.L.L.L.L.L.L.L.L.L.L.L.L.L.L.L.L.L.L.L.L.L.L.L.L.L.L.L.D.j.<.W   P.",
"P.6 L.L.L.L.L.L.L.L.L.L.L.L.L.L.L.L.L.L.L.L.L.L.L.L.L.L.L.L.L.L.L.L.L.L.L.L.L.L.L.H.Z.f.#.K   P.",
"P.- L.L.L.L.L.L.L.L.L.L.L.L.L.L.L.L.L.L.L.L.L.L.L.L.L.L.L.L.L.L.L.L.L.L.L.L.L.L.L.D.m.9.! b   P.",
"P.                                                                                            P.",
"P.P.                                                                                        P.P.",
"P.P.                                                                                        P.P.",
"P.P.P.    h.v.B.Z.H.L.L.L.L.L.L.L.L.L.L.L.L.L.L.L.L.L.L.L.L.L.L.L.L.L.L.L.H.Z.m.t.| c     P.P.P.",
"P.P.P.P.  w.t.g.v.V.D.H.L.L.L.L.L.L.L.L.L.L.L.L.L.L.L.L.L.L.L.L.L.L.L.H.D.B.j.w.) b f   P.P.P.P.",
"P.P.P.P.    %.2.e.h.m.V.D.H.L.L.L.L.L.L.L.L.L.L.L.L.L.L.L.L.L.L.L.H.D.V.v.d.;.T f f     P.P.P.P.",
"P.P.P.P.P.                                                                            P.P.P.P.P.",
"P.P.P.P.P.P.P.                                                                    P.P.P.P.P.P.P.",
"P.P.P.P.P.P.P.P.                                                                P.P.P.P.P.P.P.P.",
"P.P.P.P.P.P.P.P.P.P.      m A K ! ` ;.9.h.B.H.L.L.L.H.Z.v.t.%.T c f f       P.P.P.P.P.P.P.P.P.P.",
"P.P.P.P.P.P.P.P.P.P.P.P.      = c A W %.a.m.H.L.L.H.Z.z.w.| m f         P.P.P.P.P.P.P.P.P.P.P.P.",
"P.P.P.P.P.P.P.P.P.P.P.P.P.P.              V.L.L.L.V.z.w.) c       P.P.P.P.P.P.P.P.P.P.P.P.P.P.P.",
"P.P.P.P.P.P.P.P.P.P.P.P.P.P.P.P.P.P.P.P.  L.L.L.Z.z.w.) c f   P.P.P.P.P.P.P.P.P.P.P.P.P.P.P.P.P.",
"P.P.P.P.P.P.P.P.P.P.P.P.P.P.P.P.P.P.P.w 6 L.L.L.v.9.) c f a   P.P.P.P.P.P.P.P.P.P.P.P.P.P.P.P.P.",
"P.P.P.P.P.P.P.P.P.P.P.P.P.P.P.P.P.P.P.m i.L.L.M.9.^ z f a     P.P.P.P.P.P.P.P.P.P.P.P.P.P.P.P.P.",
"P.P.P.P.P.P.P.P.P.P.P.P.P.P.P.P.P.P...W L.L.Z.3.I f u a     P.P.P.P.P.P.P.P.P.P.P.P.P.P.P.P.P.P.",
"P.P.P.P.P.P.P.P.P.P.P.P.P.P.P.P.P.;.` p.L.V.;.B f f a     P.P.P.P.P.P.P.P.P.P.P.P.P.P.P.P.P.P.P.",
"P.P.P.P.P.P.P.P.P.P.P.P.P.P.P.#.| ! u.L.j.` z f a       P.P.P.P.P.P.P.P.P.P.P.P.P.P.P.P.P.P.P.P.",
"P.P.P.P.P.P.P.P.P.P.P.P.P.F I F y.L.V.3.K a         P.P.P.P.P.P.P.P.P.P.P.P.P.P.P.P.P.P.P.P.P.P.",
"P.P.P.P.P.P.P.P.P.P.t u u t ( L.v./           P.P.P.P.P.P.P.P.P.P.P.P.P.P.P.P.P.P.P.P.P.P.P.P.P.",
"P.P.P.P.P.P.P.P.P.P.P.                P.P.P.P.P.P.P.P.P.P.P.P.P.P.P.P.P.P.P.P.P.P.P.P.P.P.P.P.P.",
"P.P.P.P.P.P.P.P.P.P.P.P.P.P.P.P.P.P.P.P.P.P.P.P.P.P.P.P.P.P.P.P.P.P.P.P.P.P.P.P.P.P.P.P.P.P.P.P.",
"P.P.P.P.P.P.P.P.P.P.P.P.P.P.P.P.P.P.P.P.P.P.P.P.P.P.P.P.P.P.P.P.P.P.P.P.P.P.P.P.P.P.P.P.P.P.P.P.",
"P.P.P.P.P.P.P.P.P.P.P.P.P.P.P.P.P.P.P.P.P.P.P.P.P.P.P.P.P.P.P.P.P.P.P.P.P.P.P.P.P.P.P.P.P.P.P.P."
};
