/* XPM */
static char *magick[] = {
/* columns rows colors chars-per-pixel */
"48 48 256 2",
"   c Gray0",
".  c #0c0c0c",
"X  c #161616",
"o  c #1b1b1b",
"O  c #272727",
"+  c #2a2a2a",
"@  c Gray18",
"#  c #313131",
"$  c Gray21",
"%  c #373737",
"&  c #393939",
"*  c #3c3c3c",
"=  c Gray24",
"-  c #3f3f3f",
";  c #004000",
":  c #004200",
">  c #004400",
",  c #004700",
"<  c #004a00",
"1  c #004e00",
"2  c #005000",
"3  c #005900",
"4  c #005a00",
"5  c #005d00",
"6  c #006200",
"7  c #006300",
"8  c #006b00",
"9  c #006c00",
"0  c #006f00",
"q  c #007100",
"w  c #007200",
"e  c #007400",
"r  c #007500",
"t  c #007900",
"y  c #007d00",
"u  c #007e00",
"i  c Gray25",
"p  c Gray26",
"a  c Gray27",
"s  c #464646",
"d  c #494949",
"f  c #515151",
"g  c Gray33",
"h  c Gray34",
"j  c #585858",
"k  c #606060",
"l  c Gray39",
"z  c #676767",
"x  c #686868",
"c  c Gray42",
"v  c Gray43",
"b  c Gray45",
"n  c #767676",
"m  c Gray47",
"M  c #7b7b7b",
"N  c Gray",
"B  c #008000",
"V  c #008300",
"C  c #008500",
"Z  c #008900",
"A  c #008a00",
"S  c #008d00",
"D  c #008f00",
"F  c #009200",
"G  c #009600",
"H  c #009800",
"J  c #009b00",
"K  c #009c00",
"L  c #009f00",
"P  c #00a100",
"I  c #00a500",
"U  c #00a700",
"Y  c #00a800",
"T  c #00ac00",
"R  c #00b100",
"E  c #00b400",
"W  c #00b700",
"Q  c #00ba00",
"!  c #00bd00",
"~  c #00bf00",
"^  c #00c200",
"/  c #00c500",
"(  c #00c600",
")  c #00c900",
"_  c #00cb00",
"`  c #00ce00",
"'  c #00d100",
"]  c #00d200",
"[  c #00d500",
"{  c #00d800",
"}  c #00da00",
"|  c #00db00",
" . c #00de00",
".. c #00e000",
"X. c #00e100",
"o. c #00e300",
"O. c #00e400",
"+. c #00e700",
"@. c #00e900",
"#. c #00ea00",
"$. c #00ec00",
"%. c #00ef00",
"&. c #00f000",
"*. c #00f200",
"=. c #00f300",
"-. c #00f500",
";. c #00f600",
":. c #00f800",
">. c #00f900",
",. c #00fb00",
"<. c #00fc00",
"1. c #00fe00",
"2. c Green",
"3. c #01ff01",
"4. c #03ff03",
"5. c #07ff07",
"6. c #0eff0e",
"7. c #15ff15",
"8. c #19ff19",
"9. c #21ff21",
"0. c #26ff26",
"q. c #28ff28",
"w. c #39ff39",
"e. c #3cff3c",
"r. c #4bff4b",
"t. c #55ff55",
"y. c #5eff5e",
"u. c #67ff67",
"i. c #73ff73",
"p. c #cf0000",
"a. c #d50000",
"s. c #e90000",
"d. c #ed0000",
"f. c #fa0000",
"g. c #fc0000",
"h. c Red",
"j. c #ff0101",
"k. c #ff0303",
"l. c #ff0404",
"z. c #ff0606",
"x. c #ff0707",
"c. c #ff0909",
"v. c #ff0a0a",
"b. c #ff0c0c",
"n. c #ff0d0d",
"m. c #ff0f0f",
"M. c #ff1010",
"N. c #ff1212",
"B. c #ff1313",
"V. c #ff1616",
"C. c #ff1818",
"Z. c #ff1919",
"A. c #ff1b1b",
"S. c #ff1c1c",
"D. c #ff1e1e",
"F. c #ff1f1f",
"G. c #ff2222",
"H. c #ff2424",
"J. c #ff2727",
"K. c #ff2828",
"L. c #ff2b2b",
"P. c #ff3030",
"I. c #ff3131",
"U. c #ff3333",
"Y. c #ff3434",
"T. c #ff3636",
"R. c #ff3737",
"E. c #ff3a3a",
"W. c #ff3c3c",
"Q. c #ff3f3f",
"!. c #ff4343",
"~. c #ff4848",
"^. c #ff4949",
"/. c #ff4b4b",
"(. c #ff4c4c",
"). c #ff5151",
"_. c #ff5555",
"`. c #ff5858",
"'. c #ff5a5a",
"]. c #ff5b5b",
"[. c #ff5d5d",
"{. c #ff6060",
"}. c #ff6363",
"|. c #ff6464",
" X c #ff6969",
".X c #ff6c6c",
"XX c #ff6f6f",
"oX c #ff7070",
"OX c #ff7676",
"+X c #ff7a7a",
"@X c #ff7c7c",
"#X c #ff7e7e",
"$X c #ff7f7f",
"%X c #808080",
"&X c #818181",
"*X c #848484",
"=X c Gray53",
"-X c #888888",
";X c #8b8b8b",
":X c #8d8d8d",
">X c #8e8e8e",
",X c #909090",
"<X c #929292",
"1X c #939393",
"2X c #959595",
"3X c #979797",
"4X c #9a9a9a",
"5X c #9d9d9d",
"6X c #9f9f9f",
"7X c #a0a0a0",
"8X c Gray63",
"9X c #a2a2a2",
"0X c Gray64",
"qX c #a5a5a5",
"wX c Gray65",
"eX c Gray66",
"rX c #a9a9a9",
"tX c #aaaaaa",
"yX c Gray68",
"uX c Gray70",
"iX c #b4b4b4",
"pX c #b9b9b9",
"aX c #ff8181",
"sX c #ff8282",
"dX c #ff8787",
"fX c #ff8a8a",
"gX c #ff8d8d",
"hX c #ff8e8e",
"jX c #ff9191",
"kX c #ff9494",
"lX c #ff9a9a",
"zX c #ff9c9c",
"xX c #c3c3c3",
"cX c Gray79",
"vX c #cbcbcb",
"bX c #d5d5d5",
"nX c #d8d8d8",
"mX c Gray86",
"MX c Gray87",
"NX c Gray88",
"BX c #e1e1e1",
"VX c Gray89",
"CX c #e7e7e7",
"ZX c #e9e9e9",
"AX c #ececec",
"SX c Gray94",
"DX c Gray95",
"FX c Gray96",
"GX c #f6f6f6",
"HX c #f8f8f8",
"JX c #f9f9f9",
"KX c #fbfbfb",
"LX c Gray99",
"PX c #fefefe",
"IX c Gray100",
"UX c None",
/* pixels */
"UXUXUXUXUXUXUXUXUXUXUXUXUXUXUXUXUXUXUXUXUXUXUXUXUXUXUXUXUXUXUXUXUXUXUXUXUXUXUXUXUXUXUXUXUXUXUXUX",
"UXUXUXUXUXUXUXUXUXUXUXUXUXUXUXUXUXUXUXUXUXUXUXUXUXUXUXUXUXUXUXUXUXUXUXUXUXUXUXUXUXUXUXUXUXUXUXUX",
"UXUXUXUXUXUXUXUXUXUXUXUXUXUXUXUXUXUXUXUXUXUXUXUXUXUXUXUXUXUXUXUXUXUXUXUXUXUXUXUXUXUXUXUXUXUXUXUX",
"UXUXUXUXUXUXUXUXUXUXUXUXUXUXUX0X6X3X1X>X>X>X>X>X>X>X>X>X>X;X&Xm v UXUXUXUXUXUXUXUXUXUXUXUXUXUXUX",
"UXUXUXUXUXUXUXUXUXUXUXeXwXwX0X6XkXgXfXaXaXaXaXaXaXaXaXaXaX+XOXoXz k k h UXUXUXUXUXUXUXUXUXUXUXUX",
"UXUXUXUXUXUXUXUXUXUXeXwX0XlXjXdX+XoX X|.}.}.}.}.}.}.}.}.}.}.[.].].].].h f d UXUXUXUXUXUXUXUXUXUX",
"UXUXUXUXUXUXUXUXeXeX0XlXgX$XXX].~.W.T.P.P.P.P.P.P.P.P.P.P.P.P.T.W.!.~.~.~.s i - UXUXUXUXUXUXUXUX",
"UXUXUXUXUXUXUXeXwXzXgX+X}.(.T.H.A.B.n.c.c.c.c.c.c.c.c.c.c.c.n.B.A.G.L.T.W.W.W.$ # UXUXUXUXUXUXUX",
"UXUXUXUXUX0XwX0XkX$X|.~.P.S.B.c.z.k.k.k.k.k.k.k.k.k.k.k.k.k.k.k.z.c.n.A.H.L.P.T.@ O o UXUXUXUXUX",
"UXUXUXUX4X6XlXfXXX).T.S.n.z.z.k.k.k.k.k.k.k.k.k.k.k.k.k.k.k.k.k.k.k.k.z.n.V.G.H.H.S..   UXUXUXUX",
"UXUXUXUX3XkXaX|.!.H.V.c.k.k.k.k.k.k.k.k.k.k.k.k.k.k.k.k.k.k.k.k.k.k.k.k.z.z.B.A.A.B.k.  UXUXUXUX",
"UXUXUX1X>X$X}.E.S.n.z.k.k.k.k.k.k.k.k.k.k.k.k.k.k.k.k.k.k.k.k.k.k.k.k.k.k.k.z.n.n.c.f.    UXUXUX",
"UXUX;X;X$X}.W.S.c.z.k.k.k.k.k.k.k.k.k.k.k.k.k.k.k.k.k.k.k.k.k.k.k.k.k.k.k.k.k.k.z.z.f.s.    UXUX",
"UXUX*X$XXX~.H.n.k.k.k.k.k.k.k.k.k.k.k.k.k.k.k.k.k.k.k.k.k.k.k.k.k.k.k.k.k.k.k.k.k.k.k.d.a.  UXUX",
"UXb n XX_.P.B.z.k.k.k.k.k.k.k.k.k.k.k.k.k.k.k.k.k.k.k.k.k.k.k.k.k.k.k.k.k.k.k.k.k.k.k.d.p.    UX",
"UXk IXIXIXIXIXIXIXIXIXIXIXIXIXIXIXIXIXIXIXIXIXIXIXIXIXIXIXIXIXIXIXIXIXIXIXIXIXIXIXIXKXCXxX0X  UX",
"UXf IXIXIXIXIXIXIXIXIXIXIXIXIXIXIXIXIXIXIXIXIXIXIXIXIXIXIXIXIXIXIXIXIXIXIXIXIXIXIXIXHXNXpX1X  UX",
"UXs IXIXIXIXIXIXIXIXIXIXIXIXIXIXIXIXIXIXIXIXIXIXIXIXIXIXIXIXIXIXIXIXIXIXIXIXIXIXIXIXIXNXuX*X  UX",
"UX- IXIXIXIXIXIXIXIXIXIXIXIXIXIXIXIXIXIXIXIXIXIXIXIXIXIXIXIXIXIXIXIXIXIXIXIXIXIXIXIXHXMXyX&X  UX",
"UX- IXIXIXIXIXIXIXIXIXIXIXIXIXIXIXIXIXIXIXIXIXIXIXIXIXIXIXIXIXIXIXIXIXIXIXIXIXIXIXIXHXMXyX&X  UX",
"UX- IXIXIXIXIXIXIXIXIXIXIXIXIXIXIXIXIXIXIXIXIXIXIXIXIXIXIXIXIXIXIXIXIXIXIXIXIXIXIXIXHXnXeXN   UX",
"UX$ IXIXIXIXIXIXIXIXIXIXIXIXIXIXIXIXIXIXIXIXIXIXIXIXIXIXIXIXIXIXIXIXIXIXIXIXIXIXIXIXFXbX0Xn   UX",
"UX+ IXIXIXIXIXIXIXIXIXIXIXIXIXIXIXIXIXIXIXIXIXIXIXIXIXIXIXIXIXIXIXIXIXIXIXIXIXIXIXIXAXcX3Xc   UX",
"UXX IXIXIXIXIXIXIXIXIXIXIXIXIXIXIXIXIXIXIXIXIXIXIXIXIXIXIXIXIXIXIXIXIXIXIXIXIXIXIXFXNXiXm f   UX",
"UX    FXHXHXHXIXIXIXIXIXIXIXIXIXIXIXIXIXIXIXIXIXIXIXIXIXIXIXIXIXIXIXIXIXIXIXIXIXHXAXcX1Xh     UX",
"UXUX  NXZXDXHXIXIXIXIXIXIXIXIXIXIXIXIXIXIXIXIXIXIXIXIXIXIXIXIXIXIXIXIXIXIXIXIXLXDXnXeXc i   UXUX",
"UXUX    | O.=.:.2.2.2.2.2.2.2.2.2.2.2.2.2.2.2.2.2.2.2.2.2.2.2.2.2.2.2.2.2.2.:.;.o.Q y ,     UXUX",
"UXUXUX    '  .#.=.;.2.2.2.2.2.2.2.2.2.2.2.2.2.2.2.2.2.2.2.2.2.2.2.2.2.2.2.:.=.o.! A 1     UXUXUX",
"UXUXUXUX  W ! `  .%.;.:.2.2.2.2.2.2.2.2.2.2.2.2.2.2.2.2.2.2.2.2.2.2.2.:.;.#.[ W C 2 ;   UXUXUXUX",
"UXUXUXUX    J I Q ' o.%.;.:.2.2.2.2.2.2.2.2.2.2.2.2.2.2.2.2.2.2.2.:.;.%. ./ L q ; ;     UXUXUXUX",
"UXUXUXUXUX      S I ! ' o.%.;.:.2.2.2.2.2.2.2.2.2.2.2.2.2.2.2.:.;.%.o._ T B 3 ;       UXUXUXUXUX",
"UXUXUXUXUXUXUX    y S P W _ | O.%.=.;.:.:.2.2.2.2.2.2.2.:.;.%.O.[ ^ I C 6 ; ;     UXUXUXUXUXUXUX",
"UXUXUXUXUXUXUXUX      q B F I W ! _ ' | O.=.:.2.2.2.2.:.=.o.` W G t 3 ; ;       UXUXUXUXUXUXUXUX",
"UXUXUXUXUXUXUXUXUXUX      6 9 r y A J W ' #.:.2.2.2.2.;.o./ J r 1 ; ;       UXUXUXUXUXUXUXUXUXUX",
"UXUXUXUXUXUXUXUXUXUXUXUX      , < 3 q J / O.:.2.2.2.:.#._ J 6 ;         UXUXUXUXUXUXUXUXUXUXUXUX",
"UXUXUXUXUXUXUXUXUXUXUXUXUXUXUX            ;.5.5.2.:.=.' P 6       UXUXUXUXUXUXUXUXUXUXUXUXUXUXUX",
"UXUXUXUXUXUXUXUXUXUXUXUXUXUXUXUXUXUXUXUX  7.8.6.2.=.| T 9 ;   UXUXUXUXUXUXUXUXUXUXUXUXUXUXUXUXUX",
"UXUXUXUXUXUXUXUXUXUXUXUXUXUXUXUXUXUXUXUX$ e.q.6.;.| R r ; ;   UXUXUXUXUXUXUXUXUXUXUXUXUXUXUXUXUX",
"UXUXUXUXUXUXUXUXUXUXUXUXUXUXUXUXUXUXUXk y.r.0.:.' Y q ; ;   UXUXUXUXUXUXUXUXUXUXUXUXUXUXUXUXUXUX",
"UXUXUXUXUXUXUXUXUXUXUXUXUXUXUXUXUXUXUX&Xu.e.:.! S 5 ; ;   UXUXUXUXUXUXUXUXUXUXUXUXUXUXUXUXUXUXUX",
"UXUXUXUXUXUXUXUXUXUXUXUXUXUXUXUXUXUX1Xi.e.#.P 8 ; ; ;   UXUXUXUXUXUXUXUXUXUXUXUXUXUXUXUXUXUXUXUX",
"UXUXUXUXUXUXUXUXUXUXUXUXUXUXUXUX1X&Xy.8./ t ; ; ;     UXUXUXUXUXUXUXUXUXUXUXUXUXUXUXUXUXUXUXUXUX",
"UXUXUXUXUXUXUXUXUXUXUXUXUXUXm v t.9.| S 2 ;       UXUXUXUXUXUXUXUXUXUXUXUXUXUXUXUXUXUXUXUXUXUXUX",
"UXUXUXUXUXUXUXUXUXUX& i i - 0.2._ A         UXUXUXUXUXUXUXUXUXUXUXUXUXUXUXUXUXUXUXUXUXUXUXUXUXUX",
"UXUXUXUXUXUXUXUXUXUXUX              UXUXUXUXUXUXUXUXUXUXUXUXUXUXUXUXUXUXUXUXUXUXUXUXUXUXUXUXUXUX",
"UXUXUXUXUXUXUXUXUXUXUXUXUXUXUXUXUXUXUXUXUXUXUXUXUXUXUXUXUXUXUXUXUXUXUXUXUXUXUXUXUXUXUXUXUXUXUXUX",
"UXUXUXUXUXUXUXUXUXUXUXUXUXUXUXUXUXUXUXUXUXUXUXUXUXUXUXUXUXUXUXUXUXUXUXUXUXUXUXUXUXUXUXUXUXUXUXUX",
"UXUXUXUXUXUXUXUXUXUXUXUXUXUXUXUXUXUXUXUXUXUXUXUXUXUXUXUXUXUXUXUXUXUXUXUXUXUXUXUXUXUXUXUXUXUXUXUX"
};
