/* XPM */
static char *magick[] = {
/* columns rows colors chars-per-pixel */
"48 48 19 1",
"  c Gray0",
". c #070100",
"X c #100000",
"o c #150100",
"O c #210000",
"+ c #310000",
"@ c #350500",
"# c #420000",
"$ c #420500",
"% c #520000",
"& c #630000",
"* c #730000",
"= c #8c0000",
"- c #9c0000",
"; c #ad0000",
": c #bd0000",
"> c #ce3100",
", c Gray74",
"< c None",
/* pixels */
"<<<<<<<<<<<<<<<<<<<<<<<<<<<<<<<<<<<<<<<<<<<<<<<<",
"<<<<<<<<<<<<<<<<<<<<<<<<<<<<<<<<<<<<<<<<<<<<<<<<",
"<<<<<<<<<<<<<<<                  <<<<<<<<<<<<<<<",
"<<<<<<<<<<<<    >>>>>>>>>>>>>>>>    <<<<<<<<<<<<",
"<<<<<<<<<<   >>>>>>>>>>>>>>>>>>>>>>   <<<<<<<<<<",
"<<<<<<<<   >>>>>>>>>>>>>>>>>>>>>>>>>>   <<<<<<<<",
"<<<<<<<  >>>>>>>>>>>>>>>>>>>>>>>>>>>>>>  <<<<<<<",
"<<<<<   >>>>>>>>>>>>>>>>>>>>>>>>>>>>>>>>   <<<<<",
"<<<<  >>>>>>>>>>>>>>>>>>>>>>>>>>>>>>>>>>>>  <<<<",
"<<<< >>>>>>>>>>>>>>>>>>>>>>>>>>>>>>>>>>>>>> <<<<",
"<<<  >>>>>>>>>>>>>>>=*;>>;=*>>>>>>>>>>>>>>>  <<<",
"<<  >>>>>>>>>>>=%*-+X X:>O XO-**&>>>>>>>>>>>  <<",
"<< >>>>>>>>>>>>:X>:%&% &= %&%;>X;>>>>>>>>>>>> <<",
"<  >>>>>>>>>>>>-#+%  +%O++%  #+%=>>>>>>>>>>>>  <",
"< >>>>>>>>>>>>>:O+%  X-  *O  %+O;>>>>>>>>>>>>> <",
"< >>>>>>>>>>>>>=+#+  XO  XO  +++&>>>>>>>>>>>>> <",
"< >>>>>>>>>>>>>;&&#X         #&&;>>>>>>>>>>>>> <",
"< >>>>>>>>>>>>>;#&%O        O%&#->>>>>>>>>>>>> <",
"< >>>>>>>>>>>>>*O###+      +###O&>>>>>>>>>>>>> <",
"< >>>>>>>>>>>>>;&#%-%#    ##;##&->>>>>>>>>>>>> <",
"< >>>>>>>>>>>>>* *#;*%    #*-%*X&>>>>>>>>>>>>> <",
"< >>>>>>>>>>>>>;=+=+>#    +>+=+=->>>>>>>>>>>>> <",
"< >>>>>>>>>>>>>-O=:=O *  *XX=:-+=>>>>>>>>>>>>> <",
"<  >>>>>>>>>>>>>:#;#X*O  X*X+:#;>>>>>>>>>>>>>  <",
"<< >>>>>>>>>>>>>&  ;*%    %&:  %>>>>>>>>>>>>> <<",
"<<  >>>>>>>>>>>>:+&=;+#  #+-=%#;>>>>>>>>>>>>  <<",
"<<<  >>>>>>>>>>>>>>>>-#&#%=>>>>>>>>>>>>>>>>  <<<",
"<<<< >>>>>>>>>>>>>>>>>>o.>>>>>>>>>>>>>>>>>> <<<<",
"<<<<  >>>>>>>>>>>>>>>>>$@>>>>>>>>>>>>>>>>>  <<<<",
"<<<<<   >>>>>>>>>>>>>>>>>>>>>>>>>>>>>>>>   <<<<<",
"<<<<<<<  >>>>>>>>>>>>>>>>>>>>>>>>>>>>>>  <<<<<<<",
"<<<<<<<<   >>>>>>>>>>>>>>>>>>>>>>>>>>   <<<<<<<<",
"<<<<<<<<<<   >>>>>>>>>>>>>>>>>>>>>>   <<<<<<<<<<",
"<<<<<<<<<<<<   >>>>>>>>>>>>>>>>>    <<<<<<<<<<<<",
"<<<<<<<<<<<<<<<      >>>>>>>>>   <<<<<<<<<<<<<<<",
"<<<<<<<<<<<<<<<<<<<< >>>>>>>>> <<<<<<<<<<<<<<<<<",
"<<<<<<<<<<<<<<<<<<<< >>>>>>>>> <<<<<<<<<<<<<<<<<",
"<<<<<<<<<<<<<<<<<<< >>>>>>>>> <<<<<<<<<<<<<<<<<<",
"<<<<<<<<<<<<<<<<<<< >>>>>>>> <<<<<<<<<<<<<<<<<<<",
"<<<<<<<<<<<<<<<<<< >>>>>>>> <<<<<<<<<<<<<<<<<<<<",
"<<<<<<<<<<<<<<<<  >>>>>>>  <<<<<<<<<<<<<<<<<<<<<",
"<<<<<<<<<<<<<<  >>>>>>   <<<<<<<<<<<<<<<<<<<<<<<",
"<<<<<<<<<<    >>>>    <<<<<<<<<<<<<<<<<<<<<<<<<<",
"<<<<<<<<<<<       <<<<<<<<<<<<<<<<<<<<<<<<<<<<<<",
"<<<<<<<<<<<<<<<<<<<<<<<<<<<<<<<<<<<<<<<<<<<<<<<<",
"<<<<<<<<<<<<<<<<<<<<<<<<<<<<<<<<<<<<<<<<<<<<<<<<",
"<<<<<<<<<<<<<<<<<<<<<<<<<<<<<<<<<<<<<<<<<<<<<<<<",
"<<<<<<<<<<<<<<<<<<<<<<<<<<<<<<<<<<<<<<<<<<<<<<<<"
};
