/* XPM */
static char *magick[] = {
/* columns rows colors chars-per-pixel */
"48 48 256 2",
"   c Gray0",
".  c #0c0c0c",
"X  c #161616",
"o  c #1b1b1b",
"O  c #272727",
"+  c #2a2a2a",
"@  c Gray18",
"#  c #313131",
"$  c #373737",
"%  c #393939",
"&  c #3c3c3c",
"*  c Gray24",
"=  c #3f3f3f",
"-  c #000040",
";  c #000042",
":  c #000044",
">  c #000047",
",  c #00004a",
"<  c #00004e",
"1  c #000050",
"2  c #000059",
"3  c #00005a",
"4  c #00005d",
"5  c #000062",
"6  c #000063",
"7  c #00006b",
"8  c #00006c",
"9  c #00006f",
"0  c #000071",
"q  c #000072",
"w  c #000074",
"e  c #000075",
"r  c #000079",
"t  c #00007d",
"y  c #00007e",
"u  c Gray25",
"i  c Gray26",
"p  c #464646",
"a  c #494949",
"s  c #515151",
"d  c Gray33",
"f  c Gray34",
"g  c #585858",
"h  c #606060",
"j  c Gray39",
"k  c #676767",
"l  c #686868",
"z  c #6d6d6d",
"x  c #6f6f6f",
"c  c Gray45",
"v  c #767676",
"b  c Gray47",
"n  c #797979",
"m  c #7b7b7b",
"M  c Gray",
"N  c #000080",
"B  c #000083",
"V  c #000085",
"C  c #000089",
"Z  c #00008a",
"A  c #00008d",
"S  c #00008f",
"D  c #000092",
"F  c #000096",
"G  c #000098",
"H  c #00009b",
"J  c #00009c",
"K  c #00009f",
"L  c #0000a1",
"P  c #0000a5",
"I  c #0000a7",
"U  c #0000a8",
"Y  c #0000aa",
"T  c #0000ab",
"R  c #0000ad",
"E  c #0000b1",
"W  c #0000b3",
"Q  c #0000b4",
"!  c #0000b7",
"~  c #0000ba",
"^  c #0000bd",
"/  c #0000bf",
"(  c #0000c2",
")  c #0000c5",
"_  c #0000c6",
"`  c #0000c9",
"'  c #0000cb",
"]  c #0000ce",
"[  c #0000d1",
"{  c #0000d2",
"}  c #0000d5",
"|  c #0000d8",
" . c #0000da",
".. c #0000db",
"X. c #0000de",
"o. c #0000e0",
"O. c #0000e1",
"+. c #0000e3",
"@. c #0000e4",
"#. c #0000e7",
"$. c #0000e9",
"%. c #0000ea",
"&. c #0000ec",
"*. c #0000ed",
"=. c #0000ef",
"-. c #0000f0",
";. c #0000f2",
":. c #0000f3",
">. c #0000f5",
",. c #0000f6",
"<. c #0000f8",
"1. c #0000f9",
"2. c #0000fb",
"3. c #0000fc",
"4. c #0000fe",
"5. c Blue",
"6. c #0101ff",
"7. c #0303ff",
"8. c #0707ff",
"9. c #0e0eff",
"0. c #1515ff",
"q. c #1919ff",
"w. c #2121ff",
"e. c #2525ff",
"r. c #2727ff",
"t. c #2828ff",
"y. c #3939ff",
"u. c #3c3cff",
"i. c #4b4bff",
"p. c #5555ff",
"a. c #5e5eff",
"s. c #6767ff",
"d. c #7373ff",
"f. c #d50000",
"g. c #e90000",
"h. c #ec0000",
"j. c #fa0000",
"k. c #fc0000",
"l. c Red",
"z. c #ff0101",
"x. c #ff0303",
"c. c #ff0404",
"v. c #ff0606",
"b. c #ff0707",
"n. c #ff0909",
"m. c #ff0a0a",
"M. c #ff0c0c",
"N. c #ff0d0d",
"B. c #ff0f0f",
"V. c #ff1010",
"C. c #ff1212",
"Z. c #ff1616",
"A. c #ff1818",
"S. c #ff1919",
"D. c #ff1b1b",
"F. c #ff1c1c",
"G. c #ff1e1e",
"H. c #ff1f1f",
"J. c #ff2222",
"K. c #ff2424",
"L. c #ff2727",
"P. c #ff2828",
"I. c #ff2b2b",
"U. c #ff3030",
"Y. c #ff3131",
"T. c #ff3333",
"R. c #ff3434",
"E. c #ff3636",
"W. c #ff3737",
"Q. c #ff3a3a",
"!. c #ff3c3c",
"~. c #ff3f3f",
"^. c #ff4242",
"/. c #ff4343",
"(. c #ff4848",
"). c #ff4949",
"_. c #ff4b4b",
"`. c #ff4c4c",
"'. c #ff5151",
"]. c #ff5858",
"[. c #ff5a5a",
"{. c #ff5b5b",
"}. c #ff5d5d",
"|. c #ff6060",
" X c #ff6363",
".X c #ff6464",
"XX c #ff6969",
"oX c #ff6c6c",
"OX c #ff6f6f",
"+X c #ff7070",
"@X c #ff7676",
"#X c #ff7a7a",
"$X c #ff7c7c",
"%X c #ff7e7e",
"&X c #ff7f7f",
"*X c #808080",
"=X c #818181",
"-X c Gray51",
";X c #848484",
":X c Gray53",
">X c #888888",
",X c #8b8b8b",
"<X c #8e8e8e",
"1X c Gray57",
"2X c #929292",
"3X c #939393",
"4X c #959595",
"5X c #979797",
"6X c #9a9a9a",
"7X c #9d9d9d",
"8X c #9f9f9f",
"9X c #a0a0a0",
"0X c Gray63",
"qX c #a2a2a2",
"wX c Gray64",
"eX c #a5a5a5",
"rX c Gray65",
"tX c Gray66",
"yX c #a9a9a9",
"uX c #aaaaaa",
"iX c Gray68",
"pX c #b4b4b4",
"aX c #b9b9b9",
"sX c #ff8181",
"dX c #ff8282",
"fX c #ff8787",
"gX c #ff8a8a",
"hX c #ff8d8d",
"jX c #ff8e8e",
"kX c #ff9191",
"lX c #ff9393",
"zX c #ff9494",
"xX c #ff9a9a",
"cX c #ff9c9c",
"vX c #c3c3c3",
"bX c Gray79",
"nX c #cbcbcb",
"mX c Gray81",
"MX c #d5d5d5",
"NX c Gray86",
"BX c #dddddd",
"VX c Gray87",
"CX c Gray88",
"ZX c #e1e1e1",
"AX c Gray90",
"SX c Gray93",
"DX c Gray94",
"FX c Gray96",
"GX c #f6f6f6",
"HX c #f8f8f8",
"JX c #f9f9f9",
"KX c #fbfbfb",
"LX c Gray99",
"PX c #fefefe",
"IX c Gray100",
"UX c None",
/* pixels */
"UXUXUXUXUXUXUXUXUXUXUXUXUXUXUXUXUXUXUXUXUXUXUXUXUXUXUXUXUXUXUXUXUXUXUXUXUXUXUXUXUXUXUXUXUXUXUXUX",
"UXUXUXUXUXUXUXUXUXUXUXUXUXUXUXUXUXUXUXUXUXUXUXUXUXUXUXUXUXUXUXUXUXUXUXUXUXUXUXUXUXUXUXUXUXUXUXUX",
"UXUXUXUXUXUXUXUXUXUXUXUXUXUXUXUXUXUXUXUXUXUXUXUXUXUXUXUXUXUXUXUXUXUXUXUXUXUXUXUXUXUXUXUXUXUXUXUX",
"UXUXUXUXUXUXUXUXUXUXUXUXUXUXUXwX8X5X3X<X<X<X<X<X<X<X<X<X<X,X=Xb x UXUXUXUXUXUXUXUXUXUXUXUXUXUXUX",
"UXUXUXUXUXUXUXUXUXUXUXtXrXrXwX8XzXhXgXsXsXsXsXsXsXsXsXsXsX#X@X+Xk h h f UXUXUXUXUXUXUXUXUXUXUXUX",
"UXUXUXUXUXUXUXUXUXUXtXrXwXxXlXfX#X+XXX.X X X X X X X X X X X}.{.{.{.{.f s a UXUXUXUXUXUXUXUXUXUX",
"UXUXUXUXUXUXUXUXtXtXwXxXhX&XoX{.(.!.Q.U.U.U.U.U.U.U.U.U.U.U.U.W.!./.(.(.(.p u = UXUXUXUXUXUXUXUX",
"UXUXUXUXUXUXUXtXrXcXhX#X X(.W.K.D.C.N.n.n.n.n.n.n.n.n.n.n.n.N.C.D.J.I.W.!.!.!.$ # UXUXUXUXUXUXUX",
"UXUXUXUXUXwXrXwXzX&X.X(.U.F.C.n.v.x.x.x.x.x.x.x.x.x.x.x.x.x.x.x.v.n.N.D.J.I.U.W.@ O o UXUXUXUXUX",
"UXUXUXUX6X8XxXgXoX'.W.F.N.n.v.x.x.x.x.x.x.x.x.x.x.x.x.x.x.x.x.x.x.x.v.v.N.Z.J.K.K.F..   UXUXUXUX",
"UXUXUXUX5XlXsX.X/.K.Z.n.x.x.x.                                    x.x.x.v.v.C.D.D.C.x.  UXUXUXUX",
"UXUXUX3X<X&X XQ.F.N.v.x.x.x.    4.IXIX4.4.IXIX4.4.IXIX4.4.IXIX4.    x.x.x.x.v.N.N.n.j.    UXUXUX",
"UXUX,X,X&X X!.F.n.v.x.x.x.x.  4.4.4.4.4.4.4.4.4.4.4.4.4.4.4.4.4.4.  x.x.x.x.x.x.v.v.j.g.    UXUX",
"UXUX;X&XoX(.K.N.x.x.x.x.x.x.  4.4.4.4.4.4.4.4.4.4.4.4.4.4.4.4.4.4.  x.x.x.x.x.x.x.x.x.h.f.  UXUX",
"UXc v IXIXIXIXIXIXIXIXIXIXIX                                        IXIXIXIXIXIXIXIXIXSXmX    UX",
"UXh IXIXIXIXIXIXIXIXIXIXIXIX  x.x.x.IXIXIXx.x.x.IXIXIXx.x.x.IXIXIX  IXIXIXIXIXIXIXIXKXAXvXwX  UX",
"UXs IXIXIXIXIXIXIXIXIXIXIXIX  x.x.x.IXIXIXx.x.x.IXIXIXx.x.x.IXIXIX  IXIXIXIXIXIXIXIXHXZXaX3X  UX",
"UXp IXIXIXIXIXIXIXIXIXIXIXIX  x.x.x.IXIXIXx.x.x.IXIXIXx.x.x.IXIXIX  IXIXIXIXIXIXIXIXHXZXpX;X  UX",
"UX= IXIXIXIXIXIXIXIXIXIXIXIX  IXIXIXx.x.x.IXIXIXx.x.x.IXIXIXx.x.x.  IXIXIXIXIXIXIXIXHXVXiX=X  UX",
"UX= IXIXIXIXIXIXIXIXIXIXIXIX  IXIXIXx.x.x.IXIXIXx.x.x.IXIXIXx.x.x.  IXIXIXIXIXIXIXIXHXVXiX=X  UX",
"UX= IXIXIXIXIXIXIXIXIXIXIXIX  IXIXIXx.x.x.IXIXIXx.x.x.IXIXIXx.x.x.  IXIXIXIXIXIXIXIXHXNXtXM   UX",
"UX$ IXIXIXIXIXIXIXIXIXIXIXIX  x.x.x.IXIXIXx.x.x.IXIXIXx.x.x.IXIXIX  IXIXIXIXIXIXIXIXFXMXwXv   UX",
"UX+ IXIXIXIXIXIXIXIXIXIXIXIX  x.x.x.IXIXIXx.x.x.IXIXIXx.x.x.IXIXIX  IXIXIXIXIXIXIXIXSXbX5Xl   UX",
"UXX IXIXIXIXIXIXIXIXIXIXIXIX  x.x.x.IXIXIXx.x.x.IXIXIXx.x.x.IXIXIX  IXIXIXIXIXIXIXFXZXpXb s   UX",
"UX    FXHXHXHXIXIXIXIXIXIXIX  IXIXIXx.x.x.IXIXIXx.x.x.IXIXIXx.x.x.  IXIXIXIXIXIXHXSXbX3Xf     UX",
"UXUX  +.$.:.1.4.4.4.4.4.4.4.  IXIXIXx.x.x.IXIXIXx.x.x.IXIXIXx.x.x.  4.4.4.4.4.1.:...U 7 -   UXUX",
"UXUX    ..@.:.1.4.4.4.4.4.4.  IXIXIXx.x.x.IXIXIXx.x.x.IXIXIXx.x.x.  4.4.4.4.1.,.+.~ t >     UXUX",
"UXUXUX    [ X.$.:.1.4.4.4.4.                                        4.4.4.1.:.+.^ Z <     UXUXUX",
"UXUXUXUX  ! ^ ] X.=.,.1.4.4.4.4.4.4.4.4.4.4.      4.4.4.4.4.4.4.4.4.4.1.,.$.} ! V 1 -   UXUXUXUX",
"UXUXUXUX    H P ~ [ +.=.,.1.4.4.4.4.4.4.4.4.4.4.4.4.4.4.4.4.4.4.4.1.,.=.X.) K 0 - -     UXUXUXUX",
"UXUXUXUXUX      A P ^ [ +.=.,.1.4.4.4.4.4.4.4.4.4.4.4.4.4.4.4.1.,.=.+.] U N 2 -       UXUXUXUXUX",
"UXUXUXUXUXUXUX    t A L ! ' ..@.=.:.,.1.1.4.4.4.4.4.4.4.1.,.=.@.} ( P V 5 - -     UXUXUXUXUXUXUX",
"UXUXUXUXUXUXUXUX      0 N D P ! ^ ' [ ..@.:.1.4.4.4.4.1.:.+.] ! F r 2 - -       UXUXUXUXUXUXUXUX",
"UXUXUXUXUXUXUXUXUXUX      5 8 e t Z H W [ $.1.4.4.4.4.,.+.) H e < - -       UXUXUXUXUXUXUXUXUXUX",
"UXUXUXUXUXUXUXUXUXUXUXUX      > , 2 0 H ) @.1.4.4.4.1.$.' H 5 -         UXUXUXUXUXUXUXUXUXUXUXUX",
"UXUXUXUXUXUXUXUXUXUXUXUXUXUXUX            ,.8.8.4.4.:.[ L 5       UXUXUXUXUXUXUXUXUXUXUXUXUXUXUX",
"UXUXUXUXUXUXUXUXUXUXUXUXUXUXUXUXUXUXUXUX  0.q.9.4.:...R 8 -   UXUXUXUXUXUXUXUXUXUXUXUXUXUXUXUXUX",
"UXUXUXUXUXUXUXUXUXUXUXUXUXUXUXUXUXUXUXUX$ y.t.9.,...W e - -   UXUXUXUXUXUXUXUXUXUXUXUXUXUXUXUXUX",
"UXUXUXUXUXUXUXUXUXUXUXUXUXUXUXUXUXUXUXh a.i.r.1.[ U 0 - -   UXUXUXUXUXUXUXUXUXUXUXUXUXUXUXUXUXUX",
"UXUXUXUXUXUXUXUXUXUXUXUXUXUXUXUXUXUXUX=Xs.y.1.^ A 4 - -   UXUXUXUXUXUXUXUXUXUXUXUXUXUXUXUXUXUXUX",
"UXUXUXUXUXUXUXUXUXUXUXUXUXUXUXUXUXUX3Xd.u.=.L 7 - - -   UXUXUXUXUXUXUXUXUXUXUXUXUXUXUXUXUXUXUXUX",
"UXUXUXUXUXUXUXUXUXUXUXUXUXUXUXUX3X=Xa.q.) r - - -     UXUXUXUXUXUXUXUXUXUXUXUXUXUXUXUXUXUXUXUXUX",
"UXUXUXUXUXUXUXUXUXUXUXUXUXUXb x p.w...A < -       UXUXUXUXUXUXUXUXUXUXUXUXUXUXUXUXUXUXUXUXUXUXUX",
"UXUXUXUXUXUXUXUXUXUX% u u = r.4.' Z         UXUXUXUXUXUXUXUXUXUXUXUXUXUXUXUXUXUXUXUXUXUXUXUXUXUX",
"UXUXUXUXUXUXUXUXUXUXUX              UXUXUXUXUXUXUXUXUXUXUXUXUXUXUXUXUXUXUXUXUXUXUXUXUXUXUXUXUXUX",
"UXUXUXUXUXUXUXUXUXUXUXUXUXUXUXUXUXUXUXUXUXUXUXUXUXUXUXUXUXUXUXUXUXUXUXUXUXUXUXUXUXUXUXUXUXUXUXUX",
"UXUXUXUXUXUXUXUXUXUXUXUXUXUXUXUXUXUXUXUXUXUXUXUXUXUXUXUXUXUXUXUXUXUXUXUXUXUXUXUXUXUXUXUXUXUXUXUX",
"UXUXUXUXUXUXUXUXUXUXUXUXUXUXUXUXUXUXUXUXUXUXUXUXUXUXUXUXUXUXUXUXUXUXUXUXUXUXUXUXUXUXUXUXUXUXUXUX"
};
