/* XPM */
static char *magick[] = {
/* columns rows colors chars-per-pixel */
"46 43 256 2",
"   c Gray0",
".  c #010101",
"X  c #040404",
"o  c #060606",
"O  c #070707",
"+  c Gray4",
"@  c #0c0c0c",
"#  c Gray5",
"$  c #101010",
"%  c #131313",
"&  c #161616",
"*  c #181818",
"=  c #1b1b1b",
"-  c Gray11",
";  c #1e1e1e",
":  c Gray12",
">  c #222222",
",  c #232323",
"<  c Gray14",
"1  c #252525",
"2  c Gray15",
"3  c #272727",
"4  c #282828",
"5  c Gray17",
"6  c #2d2d2d",
"7  c Gray19",
"8  c Gray20",
"9  c #343434",
"0  c Gray21",
"q  c #393939",
"w  c #3a3a3a",
"e  c Gray24",
"r  c #434343",
"t  c Gray27",
"y  c #464646",
"u  c #494949",
"i  c #4b4b4b",
"p  c #4c4c4c",
"a  c Gray31",
"s  c #515151",
"d  c Gray32",
"f  c Gray33",
"g  c Gray34",
"h  c Gray35",
"j  c #5b5b5b",
"k  c #5f5f5f",
"l  c #646464",
"z  c #6a6a6a",
"x  c #6c6c6c",
"c  c #6d6d6d",
"v  c Gray45",
"b  c Gray46",
"n  c #7b7b7b",
"m  c Gray50",
"M  c #880000",
"N  c #890000",
"B  c #880303",
"V  c #8a0000",
"C  c #8c0000",
"Z  c #8d0000",
"A  c #8f0000",
"S  c #910000",
"D  c #930000",
"F  c #950000",
"G  c #940303",
"H  c #960000",
"J  c #980000",
"K  c #9b0000",
"L  c #a20000",
"P  c #a30000",
"I  c #a60000",
"U  c #aa0000",
"Y  c #af0000",
"T  c #b10000",
"R  c #b10303",
"E  c #b30000",
"W  c #b40000",
"Q  c #b70000",
"!  c #b80000",
"~  c #ba0000",
"^  c #bb0000",
"/  c #bc0000",
"(  c #987474",
")  c #c00000",
"_  c #c20000",
"`  c #c30000",
"'  c #c50000",
"]  c #c60303",
"[  c #c90000",
"{  c #cb0000",
"}  c #cb0404",
"|  c #cc0000",
" . c #cd0000",
".. c #ce0000",
"X. c #d10000",
"o. c #d20000",
"O. c #d30000",
"+. c #d40000",
"@. c #d50000",
"#. c #d60000",
"$. c #d60505",
"%. c #d80000",
"&. c #d90000",
"*. c #da0000",
"=. c #db0000",
"-. c #db0404",
";. c #dc0000",
":. c #dd0000",
">. c #dc0202",
",. c #dc0303",
"<. c #dd0303",
"1. c #dc0404",
"2. c #de0404",
"3. c #de0909",
"4. c #df0c0c",
"5. c #df0f0f",
"6. c #df1212",
"7. c #df1f1f",
"8. c #ce3535",
"9. c #e00f0f",
"0. c #e01313",
"q. c #e01616",
"w. c #e11b1b",
"e. c #e21c1c",
"r. c #e32222",
"t. c #e22424",
"y. c #e22727",
"u. c #e42b2b",
"i. c #e23333",
"p. c #e33232",
"a. c #e33535",
"s. c #e53737",
"d. c #e53939",
"f. c #e43b3b",
"g. c #e43c3c",
"h. c #e53c3c",
"j. c #e53f3f",
"k. c #e64040",
"l. c #e64343",
"z. c #e74848",
"x. c #e75454",
"c. c #e85555",
"v. c #ea5656",
"b. c #e96363",
"n. c #ea6060",
"m. c #ec6363",
"M. c #ed6565",
"N. c #ec6969",
"B. c #ee6868",
"V. c #ec6f6f",
"C. c #ef6c6c",
"Z. c #ec7070",
"A. c #ef7676",
"S. c #ed7878",
"D. c #f07979",
"F. c #ab8b7d",
"G. c Gray51",
"H. c Gray52",
"J. c #888888",
"K. c #8e8e8e",
"L. c #939393",
"P. c Gray58",
"I. c #979797",
"U. c #9a9a9a",
"Y. c #9d9d9d",
"T. c Gray62",
"R. c #9f9f9f",
"E. c #ac8383",
"W. c #ad8e81",
"Q. c #af9084",
"!. c #b29487",
"~. c #b5978c",
"^. c #bda399",
"/. c #bfa69c",
"(. c #a2a2a2",
"). c Gray64",
"_. c #a5a5a5",
"`. c #a7a7a7",
"'. c Gray66",
"]. c #a9a9a9",
"[. c #aaaaaa",
"{. c Gray67",
"}. c #acacac",
"|. c #aeaeae",
" X c #b2b2b2",
".X c #b4b4b4",
"XX c Gray71",
"oX c #b7b7b7",
"OX c Gray72",
"+X c Gray74",
"@X c #c19393",
"#X c #c2aaa0",
"$X c #d6a2a2",
"%X c #e38c8c",
"&X c #ee8282",
"*X c #f08d8d",
"=X c #f09191",
"-X c #f19696",
";X c #f29a9a",
":X c #f39d9d",
">X c #f59e9e",
",X c #e6afaf",
"<X c #edb2b2",
"1X c #f2a0a0",
"2X c #f3a6a6",
"3X c #f4aaaa",
"4X c #f4acac",
"5X c #f6afaf",
"6X c #f0b7b7",
"7X c #f5b1b1",
"8X c #f4b3b3",
"9X c #f5b5b5",
"0X c #f3baba",
"qX c #f4baba",
"wX c #f7b9b9",
"eX c #f6bbbb",
"rX c #f7bfbf",
"tX c Gray79",
"yX c #cecece",
"uX c #d3d3d3",
"iX c #d8d8d8",
"pX c Gray86",
"aX c gainsboro",
"sX c Gray87",
"dX c #f7c4c4",
"fX c #fac3c3",
"gX c #fbd6d6",
"hX c #fbdbdb",
"jX c #fcdfdf",
"kX c Gray90",
"lX c #e7e7e7",
"zX c Gray91",
"xX c Gray92",
"cX c Gray93",
"vX c #efefef",
"bX c #fde5e5",
"nX c #feebeb",
"mX c #feefef",
"MX c Gray95",
"NX c Gray97",
"BX c #fdf3f3",
"VX c #fef1f1",
"CX c #fef5f5",
"ZX c #fff4f4",
"AX c #fef6f6",
"SX c #fef7f7",
"DX c #fff7f7",
"FX c #f9f9f9",
"GX c #fef8f8",
"HX c #fff8f8",
"JX c #fffbfb",
"KX c Gray99",
"LX c #fdfdfd",
"PX c #fffcfc",
"IX c Gray100",
"UX c None",
/* pixels */
"UXUXUXUXUXUXUXUXUXUXUXUXUXUXUXUXUXUXUXUXUXUXUXUXUXUXUXUXUXUXUXUXUXUXUXUXUXUXUXUXUXUXUXUXUXUX",
"UXUXUXUXUXUXUXUXUXUXUXUXUXUXUXH.n c l l l l l l l l l l l l j y 7 UXUXUXUXUXUXUXUXUXUXUXUXUX",
"UXUXUXUXUXUXUXUXUXUXUXUX}.'.).P.G.c l l l l l l l l l l l l k g s g j s UXUXUXUXUXUXUXUXUXUX",
"UXUXUXUXUXUXUXUXUXUXXX X'.P.H.c g r w w w w w w w w w w w w w e y s j g s a UXUXUXUXUXUXUXUX",
"UXUXUXUXUXUXUXUXOXXX'.L.v a 0 ; # X . . . . . . . . . . . . . X % ; 6 e y i r w UXUXUXUXUXUX",
"UXUXUXUXUXUXUXXX}.P.v i 1 # . . . . . . . . . . . . . . . . . . . . X % > 0 w 0 6 UXUXUXUXUX",
"UXUXUXUXUXXX X).G.s 1 # X . . . . . . . . . . . . . . . . . . . . . . . X % ; 5 7 7 ; UXUXUX",
"UXUXUXUX_.'.P.z w & X . . . . . . . . . . . . . . . . . . . . . . . . . . . X & 5 1 X + UXUX",
"UXUXUXUXU.J.g 1 # X . . . . . . . . . . . . . . . . . . . . . . . . . . . . . X % % . . UXUX",
"UXUXUXY.K.k > X . . . . . . . . . . . . . . . . . . . . . . . . . . . . . . . . . . . # i UX",
"UXUXY.P.b 0 # . . . . . . . . . . . . . . . . . . . . . . . . . . . . . . . . . . . X * y z ",
"UXUXL.m i & X . . . . . . . . . . . . . . . . . . . . . . . . . . . . . . . . . . . X % 5 e ",
"UXuXuXtXXX'.'.'.'.'.'.'.'.'.'.'.'.'.'.'.'.'.'.'.'.}.).z > . . . . . . . . . . . . . . . # % ",
"UXIXIXIXIXIXIXIXIXIXIXIXIXIXIXIXIXIXIXIXIXIXIXIXIXIXIXIXaXk . . . . . . . . . . . . . . . . ",
"UXIXIXIXIXIXIXIXIXIXIXIXIXIXIXIXIXIXIXIXIXIXIXIXIXIXIXIXIXIXj . . . . . . . . . . . . . . . ",
"UXIXIXIXIXIXIXIXIXIXIXIXIXIXIXIXIXIXIXIXIXIXIXIXIXIXIXIXIXIXlX1 . . . . . . . . . . . . . . ",
"UXIXIXIXIXIXIXIXIXIXIXIXIXIXIXIXIXIXIXIXIXIXIXIXIXIXIXIXIXIXIXm . . . . . . . . . . . . . . ",
"UXHXHXAXAXAXAXAXAXAXAXAXAXAXAXAXAXAXAXAXBXBXAXAXAXIXIXIXIXIXIXtX+ . . . . . . . . . . . . . ",
"UXn.n.x.g.g.g.g.g.g.g.g.g.g.g.g.g.f.i.i.f.s.i.a.k.D.BXIXIXIXIXaX> . . . . . . . . . . . . . ",
"UXi.i.7.*.*.*.*.*.*.*.*.*.*.*.*.*.*.k.>XdXrXA.9.*.*.N.HXIXIXIXlX1 . . . . . . . . . . . . . ",
"UXt.y.e.:.:.:.:.:.:.:.:.:.:.:.:.*.N.AXIXIXIXIXgXs.*.2.fXIXIXIXpX% . . . . . . . . . . . . . ",
"UX:.5.6.:.:.:.:.:.:.:.:.:.:.:.:.v.HXIXIXIXIXIXIXgXu.*.:XIXIXIX_.. . . . . . . . . . . . . . ",
"UX[ X.:.*.:.:.:.:.:.:.:.:.:.:.r.bXIXIXIXIXIXIXIXIX5X:.;XIXIXMX0 . . . . . . . . . . . . . . ",
"UXUX)  .@.*.:.:.:.:.:.:.:.:.*.C.IXIXIXIXIXIXIXIXIXhXe.wXIXIXG.. . . . . . . . . . . . . . . ",
"UXUXW )  .*.:.:.:.:.:.:.:.:.:.3XIXIXIXIXIXIXIXIXIXbXC.mXIX_.. . . . . . . . . . . . . . . . ",
"UXUXUX^ ' @.*.:.:.:.:.:.:.:.:.8XIXIXIXIXIXIXIXIXIXHXnXIX}.6 > 1 1 1 1 1 1 1 1 1 1 > ; * * UX",
"UXUXUXUX/ )  .@.*.:.:.:.:.:.:.;XIXIXIXIXIXIXIXIXIXIXIXIXvXzXvXvXvXvXvXvXvXvXvXzXaX+XP.P.UXUX",
"UXUXUXUXT Y T ) X.*.:.:.:.:.*.m.IXIXIXIXIXIXIXIXIXIXIXIXIXIXIXIXIXIXIXIXIXIXMXaX+XY.Y.Y.UXUX",
"UXUXUXUXUXF F P ^ [ @.*.:.:.*.w.jXIXIXIXIXIXIXIXIXIXIXIXIXIXIXIXIXIXIXIXNXvXyX_.Y.Y.Y.UXUXUX",
"UXUXUXUXUXUXUXD J U ^ [ @.*.:.*.M.IXIXIXIXIXIXIXIXIXIXIXIXIXIXIXIXIXFXvXpXOXY.Y.Y.UXUXUXUXUX",
"UXUXUXUXUXUXUXUXM M D P W )  .@.*.n.nXIXIXIXIXIXIXIXIXIXIXIXIXFXMXzXpX+XY.Y.Y.Y.UXUXUXUXUXUX",
"UXUXUXUXUXUXUXUXUXUXM M C F P T ^ ) 8.%X<X0XwXrXwXwXwXwXwX6X,X$X@XE.( ( ( ( UXUXUXUXUXUXUXUX",
"UXUXUXUXUXUXUXUXUXUXUXUXM M M M M C J Y ' } -.2.2.2.-.2.$.} T F B B B B ~.^.UXUXUXUXUXUXUXUX",
"UXUXUXUXUXUXUXUXUXUXUXUXUXUXUXM M M M P ) *.:.:.*.:.*.*. .T M M M W.F.Q.!.UXUXUXUXUXUXUXUXUX",
"UXUXUXUXUXUXUXUXUXUXUXUXUXUXUXUXUXUXUXUX*.0.5.:.:.:.*.X.W C M /.Q.W.UXUXUXUXUXUXUXUXUXUXUXUX",
"UXUXUXUXUXUXUXUXUXUXUXUXUXUXUXUXUXUXUXUXk.f.q.:.:.*.X.^ D M M #XUXUXUXUXUXUXUXUXUXUXUXUXUXUX",
"UXUXUXUXUXUXUXUXUXUXUXUXUXUXUXUXUXUXUXA.Z.z.q.:.*.X.^ D M M UXUXUXUXUXUXUXUXUXUXUXUXUXUXUXUX",
"UXUXUXUXUXUXUXUXUXUXUXUXUXUXUXUXUXUXUX-XS.g.3.@. .T C M M UXUXUXUXUXUXUXUXUXUXUXUXUXUXUXUXUX",
"UXUXUXUXUXUXUXUXUXUXUXUXUXUXUXUXUXUX5X=Xv.2.' T J M M M UXUXUXUXUXUXUXUXUXUXUXUXUXUXUXUXUXUX",
"UXUXUXUXUXUXUXUXUXUXUXUXUXUXUXUX9X5X*Xk. .I C M M M M UXUXUXUXUXUXUXUXUXUXUXUXUXUXUXUXUXUXUX",
"UXUXUXUXUXUXUXUXUXUXUXUXUXUX9X8X1XC.w.^ J M M M M UXUXUXUXUXUXUXUXUXUXUXUXUXUXUXUXUXUXUXUXUX",
"UXUXUXUXUXUXUXUXUXUX8X9X8X5X2X*Xx.*.W P F C UXUXUXUXUXUXUXUXUXUXUXUXUXUXUXUXUXUXUXUXUXUXUXUX",
"UXUXUXUXUXUXUXUXUXUXUX2X;X&XN.g.3.[ UXUXUXUXUXUXUXUXUXUXUXUXUXUXUXUXUXUXUXUXUXUXUXUXUXUXUXUX"
};
