/* XPM */
static char *magick[] = {
/* columns rows colors chars-per-pixel */
"48 48 256 2",
"   c Gray0",
".  c #0c0c0c",
"X  c #1b1b1b",
"o  c #272727",
"O  c Gray18",
"+  c #313131",
"@  c Gray20",
"#  c #373737",
"$  c #393939",
"%  c #3c3c3c",
"&  c Gray24",
"*  c #400000",
"=  c #470000",
"-  c #530000",
";  c #5d0000",
":  c #680000",
">  c #690000",
",  c #6b0000",
"<  c #6c0000",
"1  c #770000",
"2  c #7a0000",
"3  c Gray25",
"4  c #434343",
"5  c Gray27",
"6  c #464646",
"7  c Gray28",
"8  c Gray29",
"9  c #4c4c4c",
"0  c Gray30",
"q  c #4e4e4e",
"w  c Gray32",
"e  c Gray33",
"r  c #565656",
"t  c #5a5a5a",
"y  c Gray37",
"u  c Gray38",
"i  c Gray39",
"p  c #676767",
"a  c #686868",
"s  c Gray42",
"d  c Gray44",
"f  c #727272",
"g  c Gray46",
"h  c #777777",
"j  c Gray47",
"k  c Gray48",
"l  c #7b7b7b",
"z  c #7c7c7c",
"x  c Gray50",
"c  c Blue",
"v  c #0101ff",
"b  c #0404ff",
"n  c #0707ff",
"m  c #0d0dff",
"M  c #1313ff",
"N  c #1616ff",
"B  c #1818ff",
"V  c #1919ff",
"C  c #1c1cff",
"Z  c #1f1fff",
"A  c #2424ff",
"S  c #2828ff",
"D  c #2929ff",
"F  c #2a2aff",
"G  c #2e2eff",
"H  c #3030ff",
"J  c #3333ff",
"K  c #3737ff",
"L  c #3939ff",
"P  c #3a3aff",
"I  c #3c3cff",
"U  c #3d3dff",
"Y  c #3e3eff",
"T  c #3f3fff",
"R  c #4040ff",
"E  c #4343ff",
"W  c #4949ff",
"Q  c #4c4cff",
"!  c #5252ff",
"~  c #5555ff",
"^  c #5858ff",
"/  c #5b5bff",
"(  c #5e5eff",
")  c #6161ff",
"_  c #6666ff",
"`  c #6868ff",
"'  c #6a6aff",
"]  c #6c6cff",
"[  c #7272ff",
"{  c #7373ff",
"}  c #7676ff",
"|  c #7b7bff",
" . c #830000",
".. c #860000",
"X. c #8a0000",
"o. c #8d0000",
"O. c #8f0000",
"+. c #920000",
"@. c #950000",
"#. c #960000",
"$. c #9c0000",
"%. c #a10000",
"&. c #a40000",
"*. c #a50000",
"=. c #ae0000",
"-. c #b30000",
";. c #b40000",
":. c #b70000",
">. c #b90000",
",. c #bc0000",
"<. c #c00000",
"1. c #c50000",
"2. c #c60000",
"3. c #cb0000",
"4. c #cf0000",
"5. c #d10000",
"6. c #d20000",
"7. c #d80000",
"8. c #da0000",
"9. c #db0000",
"0. c #de0000",
"q. c #e10000",
"w. c #e30000",
"e. c #e60000",
"r. c #e90000",
"t. c #ea0000",
"y. c #ec0000",
"u. c #f00000",
"i. c #f20000",
"p. c #f60000",
"a. c #f80000",
"s. c #f90000",
"d. c #fb0000",
"f. c #fc0000",
"g. c #fe0000",
"h. c Red",
"j. c #ff0101",
"k. c #ff0303",
"l. c #ff0606",
"z. c #ff0d0d",
"x. c #ff1313",
"c. c #ff1616",
"v. c #ff1818",
"b. c #ff1c1c",
"n. c #ff2222",
"m. c #ff2424",
"M. c #ff2a2a",
"N. c #ff2d2d",
"B. c #ff2e2e",
"V. c #ff3434",
"C. c #ff3636",
"Z. c #ff3a3a",
"A. c #ff5454",
"S. c #ff5555",
"D. c #ff5757",
"F. c #ff5858",
"G. c #ff6f6f",
"H. c #ff7373",
"J. c #ff7878",
"K. c #ff7b7b",
"L. c Yellow",
"P. c #ffff01",
"I. c #ffff04",
"U. c #ffff07",
"Y. c #ffff0a",
"T. c #ffff0c",
"R. c #ffff12",
"E. c #ffff25",
"W. c #ffff33",
"Q. c #ffff49",
"!. c #ffff4c",
"~. c #ffff4f",
"^. c #ffff72",
"/. c #ffff7b",
"(. c #818181",
"). c #838383",
"_. c #848484",
"`. c Gray52",
"'. c Gray53",
"]. c #888888",
"[. c Gray54",
"{. c #8b8b8b",
"}. c #8d8d8d",
"|. c #8e8e8e",
" X c #929292",
".X c Gray58",
"XX c Gray59",
"oX c #979797",
"OX c #9b9b9b",
"+X c Gray61",
"@X c #9d9d9d",
"#X c #9f9f9f",
"$X c #a0a0a0",
"%X c Gray63",
"&X c #a2a2a2",
"*X c Gray64",
"=X c #a4a4a4",
"-X c #a5a5a5",
";X c Gray65",
":X c Gray66",
">X c #a9a9a9",
",X c Gray67",
"<X c Gray68",
"1X c Gray69",
"2X c Gray70",
"3X c #b4b4b4",
"4X c #b7b7b7",
"5X c #b9b9b9",
"6X c Gray73",
"7X c Gray74",
"8X c #8585ff",
"9X c #8787ff",
"0X c #8b8bff",
"qX c #8e8eff",
"wX c #9292ff",
"eX c #9898ff",
"rX c #9999ff",
"tX c #ffff88",
"yX c #ffff8d",
"uX c #ffff93",
"iX c #ffff99",
"pX c #c3c3c3",
"aX c #c5c5c5",
"sX c #c6c6c6",
"dX c #c8c8c8",
"fX c Gray79",
"gX c #cbcbcb",
"hX c Gray80",
"jX c #cecece",
"kX c Gray82",
"lX c Gray83",
"zX c #d5d5d5",
"xX c #d7d7d7",
"cX c #d8d8d8",
"vX c #dadada",
"bX c Gray86",
"nX c #dddddd",
"mX c Gray87",
"MX c #e1e1e1",
"NX c Gray89",
"BX c #e6e6e6",
"VX c #e9e9e9",
"CX c #eaeaea",
"ZX c Gray93",
"AX c Gray94",
"SX c Gray95",
"DX c #f3f3f3",
"FX c Gray96",
"GX c #f6f6f6",
"HX c #f8f8f8",
"JX c #f9f9f9",
"KX c #fbfbfb",
"LX c Gray99",
"PX c #fefefe",
"IX c Gray100",
"UX c None",
/* pixels */
"UXUXUXUXUXUXUXUXUXUXUXUXUXUXUXUXUXUXUXUXUXUXUXUXUXUXUXUXUXUXUXUXUXUXUXUXUXUXUXUXUXUXUXUXUXUXUXUX",
"UXUXUXUXUXUXUXUXUXUXUXUXUXUXUXUXUXUXUXUXUXUXUXUXUXUXUXUXUXUXUXUXUXUXUXUXUXUXUXUXUXUXUXUXUXUXUXUX",
"UXUXUXUXUXUXUXUXUXUXUXUXUXUXUXUXUXUXUXUXUXUXUXUXUXUXUXUXUXUXUXUXUXUXUXUXUXUXUXUXUXUXUXUXUXUXUXUX",
"UXUXUXUXUXUXUXUXUXUXUXUXUXUXUX&X@X.X X}.}.}.}.}.}.}.}.}.}.]._.z f UXUXUXUXUXUXUXUXUXUXUXUXUXUXUX",
"UXUXUXUXUXUXUXUXUXUXUX>X;X&X@X.XeXwX0X8X8X8X8XK.K.K.K.K.K.K.H.G.p i i t UXUXUXUXUXUXUXUXUXUXUXUX",
"UXUXUXUXUXUXUXUXUXUX>X&XiXeXqX8X| { ] ' ' ' ' F.F.F.F.D.F.D.D.D.D.D.D.e w q UXUXUXUXUXUXUXUXUXUX",
"UXUXUXUXUXUXUXUX>X>X@XeX8X{ ) ~ W Y L K K K K IXIXIXIXIXIXIXIXIXIXIXIXIXIX6 4 % UXUXUXUXUXUXUXUX",
"UXUXUXUXUXUXUX>X&XuX| ] ! Y H F Y.C L.V V V V IXIXIXIXIXIXIXIXIXIXIXIXIXIXIXIX$ @ UXUXUXUXUXUXUX",
"UXUXUXUXUX>X;X@XtX' W Y F U.V L.L.L.L.V L.V V h.h.h.h.h.h.h.h.h.h.h.k.z.v.m.B.C.O o X UXUXUXUXUX",
"UXUXUXUX@X$XuX/./ L C A C V L.L.L.L.L.L.V V V h.h.h.h.h.h.h.h.h.h.h.h.k.k.z.c.m.m.b..   UXUXUXUX",
"UXUXUXUX.XyX^.~.F M n V L.L.L.L.L.L.L.L.L.L.V IXIXIXIXIXIXIXIXIXIXIXIXIXIXIXIXIXIXIXIX  UXUXUXUX",
"UXUXUX.X].^.Q.E.m n v V V V L.L.L.L.L.L.V V V IXIXIXIXIXIXIXIXIXIXIXIXIXIXIXIXIXIXIXIX    UXUXUX",
"UXUX}.].} ~.E.T.v v v V L.L.L.L.L.L.L.L.L.L.V h.h.h.h.h.h.h.h.h.h.h.h.h.h.h.h.h.h.k.h.t.    UXUX",
"UXUX_.| ( W.R.U.v v v V V V L.L.L.L.L.L.V V V h.h.h.h.h.h.h.h.h.h.h.h.h.h.h.h.h.h.h.k.i.9.  UXUX",
"UXf f _ E C U.L.L.v v V V L.V L.L.L.L.V L.V V IXIXIXIXIXIXIXIXIXIXIXIXIXIXIXIXIXIXIXIXSXzX    UX",
"UXy / Q F m v L.L.L.v V V V V V V V L.V V V V IXIXIXIXIXIXIXIXIXIXIXIXIXIXIXIXIXIXIXIXZXfX&X  UX",
"UXq Q Y V n v L.L.L.v V V V V V V V V V V V V h.h.h.h.h.h.h.h.h.h.h.h.h.h.h.h.h.h.h.h.y.<.#.  UX",
"UX4 E H N v v v L.L.L.L.L.V V V V V V V V V V h.h.h.h.h.h.h.h.h.h.h.h.h.h.h.h.h.h.h.h.t.,.O.  UX",
"UX& L G M v v v v L.L.L.V V V V V V V V V V V IXIXIXIXIXIXIXIXIXIXIXIXIXIXIXIXIXIXIXIXVX6X].  UX",
"UXY L G M v v v v v v V V V V V V V V V V V V IXIXIXIXIXIXIXIXIXIXIXIXIXIXIXIXIXIXIXIXVX6X].  UX",
"UX& Z.B.x.h.h.h.h.h.h.h.h.h.h.h.h.h.h.h.h.h.h.h.h.h.h.h.h.h.h.h.h.h.h.h.h.h.h.h.h.h.h.t.>.X.  UX",
"UX# C.M.x.h.h.h.h.h.h.h.h.h.h.h.h.h.h.h.h.h.h.h.h.h.h.h.h.h.h.h.h.h.h.h.h.h.h.h.h.h.h.e.-. .  UX",
"UXO IXIXIXIXIXIXIXIXIXIXIXIXIXIXIXIXIXIXIXIXIXIXIXIXIXIXIXIXIXIXIXIXIXIXIXIXIXIXIXIXKXnX>Xh   UX",
"UXX IXIXIXIXIXIXIXIXIXIXIXIXIXIXIXIXIXIXIXIXIXIXIXIXIXIXIXIXIXIXIXIXIXIXIXIXIXIXIXIXSXhX Xy   UX",
"UX    h.h.s.h.h.h.h.h.h.h.h.h.h.h.h.h.h.h.h.h.h.h.h.h.h.h.h.h.h.h.h.h.h.h.h.h.h.h.s.w.=.<     UX",
"UXUX  e.y.p.s.h.h.h.h.h.h.h.h.h.h.h.h.h.h.h.h.h.h.h.h.h.h.h.h.h.h.h.h.h.h.h.h.h.s.y.1...=   UXUX",
"UXUX    NXZXKXIXIXIXIXIXIXIXIXIXIXIXIXIXIXIXIXIXIXIXIXIXIXIXIXIXIXIXIXIXIXIXIXIXSXzX@Xt 4   UXUX",
"UXUXUX    bXVXSXKXIXIXIXIXIXIXIXIXIXIXIXIXIXIXIXIXIXIXIXIXIXIXIXIXIXIXIXIXIXKXSXbX>Xs     UXUXUX",
"UXUXUXUX  ,.3.9.t.p.h.h.h.h.h.h.h.h.h.h.h.h.h.h.h.h.h.h.h.h.h.h.h.h.h.h.h.s.t.5.&.: *   UXUXUXUX",
"UXUXUXUX    &.;.3.w.i.s.h.h.h.h.h.h.h.h.h.h.h.h.h.h.h.h.h.h.h.h.h.h.h.s.i.0.<.#.; 4     UXUXUXUX",
"UXUXUXUXUX      OX4XkXNXAXKXKXIXIXIXIXIXIXIXIXIXIXIXIXIXIXIXIXIXIXKXSXNXfX;Xh 6       UXUXUXUXUX",
"UXUXUXUXUXUXUX    _.+X2XfXbXVXSXKXIXIXIXIXIXIXIXIXIXIXIXIXIXKXFXVXbXsX;X).r 4     UXUXUXUXUXUXUX",
"UXUXUXUXUXUXUXUX      2 O.%.;.1.5.9.w.y.i.s.h.h.h.h.h.h.s.i.w.4.;.#.1 - *       UXUXUXUXUXUXUXUX",
"UXUXUXUXUXUXUXUXUXUX      : 1  .O.$.=.1.0.i.s.h.h.h.h.s.i.9.;.+.: = *       UXUXUXUXUXUXUXUXUXUX",
"UXUXUXUXUXUXUXUXUXUXUXUX      q r s _.2XzXSXIXIXIXIXIXSXnX4Xj 8         UXUXUXUXUXUXUXUXUXUXUXUX",
"UXUXUXUXUXUXUXUXUXUXUXUXUXUXUX            FXIXIXIXIXKXNX6Xj       UXUXUXUXUXUXUXUXUXUXUXUXUXUXUX",
"UXUXUXUXUXUXUXUXUXUXUXUXUXUXUXUXUXUXUXUX  IXIXIXIXFXBX7X).4   UXUXUXUXUXUXUXUXUXUXUXUXUXUXUXUXUX",
"UXUXUXUXUXUXUXUXUXUXUXUXUXUXUXUXUXUXUXUX@ IXIXIXKXBXpX_.6 4   UXUXUXUXUXUXUXUXUXUXUXUXUXUXUXUXUX",
"UXUXUXUXUXUXUXUXUXUXUXUXUXUXUXUXUXUXUXy IXIXIXKXnX6X_.6 4   UXUXUXUXUXUXUXUXUXUXUXUXUXUXUXUXUXUX",
"UXUXUXUXUXUXUXUXUXUXUXUXUXUXUXUXUXUXUXz IXIXIXhX&Xf 4 &   UXUXUXUXUXUXUXUXUXUXUXUXUXUXUXUXUXUXUX",
"UXUXUXUXUXUXUXUXUXUXUXUXUXUXUXUXUXUX.XIXIXSX<Xj q 4 4   UXUXUXUXUXUXUXUXUXUXUXUXUXUXUXUXUXUXUXUX",
"UXUXUXUXUXUXUXUXUXUXUXUXUXUXUXUX@X].IXIXfX).q 4 &     UXUXUXUXUXUXUXUXUXUXUXUXUXUXUXUXUXUXUXUXUX",
"UXUXUXUXUXUXUXUXUXUXUXUXUXUX_.j IXIXbX}.w 4       UXUXUXUXUXUXUXUXUXUXUXUXUXUXUXUXUXUXUXUXUXUXUX",
"UXUXUXUXUXUXUXUXUXUX6 q q 6 IXIXsX).        UXUXUXUXUXUXUXUXUXUXUXUXUXUXUXUXUXUXUXUXUXUXUXUXUXUX",
"UXUXUXUXUXUXUXUXUXUXUX              UXUXUXUXUXUXUXUXUXUXUXUXUXUXUXUXUXUXUXUXUXUXUXUXUXUXUXUXUXUX",
"UXUXUXUXUXUXUXUXUXUXUXUXUXUXUXUXUXUXUXUXUXUXUXUXUXUXUXUXUXUXUXUXUXUXUXUXUXUXUXUXUXUXUXUXUXUXUXUX",
"UXUXUXUXUXUXUXUXUXUXUXUXUXUXUXUXUXUXUXUXUXUXUXUXUXUXUXUXUXUXUXUXUXUXUXUXUXUXUXUXUXUXUXUXUXUXUXUX",
"UXUXUXUXUXUXUXUXUXUXUXUXUXUXUXUXUXUXUXUXUXUXUXUXUXUXUXUXUXUXUXUXUXUXUXUXUXUXUXUXUXUXUXUXUXUXUXUX"
};
