/* XPM */
static char * postgres_xpm[] = {
"48 48 29 1",
" 	c None",
".	c #AEAEAE",
"+	c #B8B8B8",
"@	c #C7C7C7",
"#	c #D6D6D6",
"$	c #E0E0E0",
"%	c #A2A2A2",
"&	c #2D2D2D",
"*	c #4F4F4F",
"=	c #686868",
"-	c #C0C0C0",
";	c #7B7B7B",
">	c #E8E8E8",
",	c #FBFBFB",
"'	c #EDEDED",
")	c #969696",
"!	c #D1D1D1",
"~	c #C9C9C9",
"{	c #DBDBDB",
"]	c #DADADA",
"^	c #F2F2F2",
"/	c #E4E4E4",
"(	c #8A8A8A",
"_	c #080808",
":	c #F7F7F7",
"<	c #EEEEEE",
"[	c #000000",
"}	c #F3F3F3",
"|	c #F8F8F8",
"        .+@@#$%&&*=*&*==**=&*                   ",
"    -=&&&&&**;+$+==.>,,,'$-)%!#~!##{#]^         ",
" /]=&*%@#$#!)=&=~,,~)=**=;.!;**&&**=(.!#/       ",
"#~*&-,,,,,,,,,'%;=*&=(%%)=*_&&).%;*&__*;.!$     ",
"#;&$,,,,,,,,,:,,._;$,,,,,,,+=&='^><$+=_[&)(#    ",
".&~,,,,,,,,,,,,+&),,,,,,,,,,,+&*#'#!<:/;__;;+   ",
";*,,,,,,,,,,,,]&%,,,,,,,,,,,,,>**!,<<>':~&_)=!  ",
"=;,,,,,,,,,,,,=;,,,,,,,,,,,,,,,}=*$,/$^',~_*(=  ",
"*%,,,,,,,,,,,-&>,,,,,,,,,,,,,,,,:**'^<:,,,;_)*~ ",
"*+,,,,,,,,,,,=(,,,,,,,,,,,,,,,:,,$&;,:,,,,~_)*% ",
"*-,,,,,,,,,,$*],,,,,,,,,,,:,,,,,,,%&#,,}:,>&;*( ",
"*~,,,,,,,,,,%&^,,,,,,,,,,,:,,,,,,,}&(,,,,,]_;*; ",
"*-,,,,,,,,,,;=^~.%.$,,,,,,,,,,,,,,,;*^,,,,~_)*; ",
"*~,,,,,,,,,,*&*&=;*&+,,,,,,,,,,>);(*&/,,,,._%*( ",
"*+,,,,,,,,,,*&%>,@!)*$,,,,,,,,@&*;;*&#,,,,;&%&( ",
"*.,,,,,,,,,,*;,,,;*$&%,,,,,,,,&=@;$'&#,,,,&*(&) ",
"=),,,,,,,,,,*;,,,,>,*;,,,,,,,]&>]%^%&],,,$_(**- ",
";;,,,,,,,,,,*;,,,,,,==,,,,,,,-&!,,,*&:,,,)_-&;] ",
")=,,,,,,,,,,*),,,,,,=*,,,,,,,]&.,<^&;,,,,&=)&)  ",
"+*:,,,,,,,,]&-,,,,,,=*,:,,,,,,&;,:^&(,,,~_.*=+  ",
"#*#,,,,,,,,.&$,,,,,,*;,,,,,,,,=&:}}&(,,,*&%&;!  ",
"$*.,,,,,,,,)&,,,,,,,*+,,,,,,,,-&~,,*(,,#_%*=)   ",
"#;;,,,,,,,,(*,,,,,,~&],,,,,,,,,&;,,*=,,**.&=-   ",
"#%*,,,,,,,,.&,,,,,,*=,,,,,,,,,,.&>,*=,-_-==)    ",
"$~&],,,,,,,$&!,,,,!_~,,,,,,,},,:&;,&(,&;.*=@    ",
">{*%,,,,,,,,=*,,,,=*,,,,,,,:,:,,)&._-(&]**)     ",
"^#(=,,,,,,,,^*=>,>&.,,,}^,,,,::,:&_*@_#;&;!     ",
" !-&$,,,,,,,:*_&=*&',,:::,,,,,:^,._(*%+&=-      ",
" $!*%,,,,,,:*&!+=&&&+,,:,,,,}}:}:,&_*>)=%++.    ",
"  !%*|,,,,,*&$,,+_;)&],},::::^:,,;__&))(***==   ",
"  -{*%,,,,*&!'~;_;,,&(,|<:}}^::,-_->*&&&&_[(&.  ",
"  $+.*~,'*&.*&&=~,,~_(,^::$^::,,=*,,,,>]%&&.&(  ",
"   --+*=&*^+[(^,,$(__%,::},,,:::&&().%;&_*%*=(  ",
"    +#$%-$~>;&*=*&&;&.,^}^}^:}:'&*(;=**(--**=%  ",
"     %(.%;(-^~(;)-,:&~}>^::<<},#_@,#$#@%=**=(   ",
"     ~(;==;;(+]^~.>@_#>'^}}}<:,-_+)=*=**=;)+    ",
"       #-!$!%;;;*=!(&>^<<^<::<,%_@==(.+-!       ",
"             $-%.+$=&^:<>}}^:<,;_-*;]           ",
"                 '!**^<^:^}<<^,*&+*%            ",
"                  !**}}<<<>><,<_*.*.            ",
"                  -**><>^'>}<,-[(;=.            ",
"                  ~=&/><}^<><,=_-*;.            ",
"                  ~(&!<<>^^:,#_=%*(!            ",
"                  ])&(,<><},,*&!=;(             ",
"                   %;&!,,,,>;_%%=;.             ",
"                   ~(=&;)(=*&.-*=($             ",
"                    %)(***=)!+**;~              ",
"                                                "};
