/* XPM */
static char *magick[] = {
/* columns rows colors chars-per-pixel */
"48 48 234 2",
"   c Gray0",
".  c #0c0c0c",
"X  c #161616",
"o  c #1b1b1b",
"O  c #222222",
"+  c #272727",
"@  c #2a2a2a",
"#  c #2d2d2d",
"$  c Gray18",
"%  c #313131",
"&  c #343434",
"*  c Gray21",
"=  c #373737",
"-  c #3c3c3c",
";  c Gray24",
":  c #3f3f3f",
">  c #000047",
",  c #000048",
"<  c #000057",
"1  c #000062",
"2  c #000068",
"3  c #00006c",
"4  c #00006f",
"5  c #000075",
"6  c #00007d",
"7  c #00007e",
"8  c #2d2d40",
"9  c Gray25",
"0  c #414141",
"q  c Gray26",
"w  c #444444",
"e  c Gray27",
"r  c #464646",
"t  c #494949",
"y  c Gray29",
"u  c #4b4b4b",
"i  c Gray30",
"p  c #4e4e4e",
"a  c #505050",
"s  c #515151",
"d  c Gray33",
"f  c Gray34",
"g  c #585858",
"h  c Gray35",
"j  c #5a5a5a",
"k  c #606060",
"l  c #626262",
"z  c Gray39",
"x  c Gray40",
"c  c #676767",
"v  c Gray41",
"b  c Gray42",
"n  c #6d6d6d",
"m  c #6f6f6f",
"M  c #717171",
"N  c #727272",
"B  c Gray45",
"V  c #767676",
"C  c Gray47",
"Z  c Gray48",
"A  c #7b7b7b",
"S  c Gray49",
"D  c Gray",
"F  c #000080",
"G  c #000081",
"H  c #000087",
"J  c #000089",
"K  c #000092",
"L  c #000095",
"P  c #00009b",
"I  c #0000a1",
"U  c #0000a2",
"Y  c #0000a5",
"T  c #0000aa",
"R  c #0000ad",
"E  c #0000b3",
"W  c #0000b4",
"Q  c #0000b6",
"!  c #0000b9",
"~  c #0000bf",
"^  c #0000c3",
"/  c #0000c9",
"(  c #0000cb",
")  c #0000d1",
"_  c #0000d5",
"`  c #0000db",
"'  c #0000dd",
"]  c #0000de",
"[  c #0000e0",
"{  c #0000e3",
"}  c #0000e7",
"|  c #0000ef",
" . c #0000f0",
".. c #0000f3",
"X. c #0000f6",
"o. c #0000f8",
"O. c #0000f9",
"+. c #0000fb",
"@. c #0000fc",
"#. c #0000fe",
"$. c Blue",
"%. c #0101ff",
"&. c #0303ff",
"*. c #0404ff",
"=. c #0606ff",
"-. c #0909ff",
";. c #0a0aff",
":. c #0d0dff",
">. c #0f0fff",
",. c #1010ff",
"<. c #1212ff",
"1. c #1313ff",
"2. c #1818ff",
"3. c #1b1bff",
"4. c #1c1cff",
"5. c #1e1eff",
"6. c #2121ff",
"7. c #2222ff",
"8. c #2727ff",
"9. c #2b2bff",
"0. c #3030ff",
"q. c #3131ff",
"w. c #3333ff",
"e. c #3434ff",
"r. c #3737ff",
"t. c #3a3aff",
"y. c #3c3cff",
"u. c #3d3dff",
"i. c #3f3fff",
"p. c #77779f",
"a. c #4545ff",
"s. c #4646ff",
"d. c #4b4bff",
"f. c #4c4cff",
"g. c #5151ff",
"h. c #5858ff",
"j. c #5b5bff",
"k. c #6363ff",
"l. c #6464ff",
"z. c #6969ff",
"x. c #6c6cff",
"c. c #7070ff",
"v. c #7b7bff",
"b. c #7e7eff",
"n. c #818181",
"m. c #838383",
"M. c #848484",
"N. c #868686",
"B. c #888888",
"V. c #898989",
"C. c #8b8b8b",
"Z. c #8d8d8d",
"A. c #8e8e8e",
"S. c Gray56",
"D. c Gray57",
"F. c #929292",
"G. c #939393",
"H. c Gray59",
"J. c #979797",
"K. c #989898",
"L. c #9a9a9a",
"P. c #9b9b9b",
"I. c Gray61",
"U. c #9d9d9d",
"Y. c Gray62",
"T. c #9f9f9f",
"R. c #a0a0a0",
"E. c Gray63",
"W. c #a2a2a2",
"Q. c Gray64",
"!. c #a5a5a5",
"~. c Gray65",
"^. c #a7a7a7",
"/. c Gray66",
"(. c #a9a9a9",
"). c #aaaaaa",
"_. c Gray67",
"`. c #b1b1b1",
"'. c Gray70",
"]. c #b4b4b4",
"[. c #b6b6b6",
"{. c #b7b7b7",
"}. c #b9b9b9",
"|. c Gray73",
" X c Gray74",
".X c Gray75",
"XX c #8282ff",
"oX c #8787ff",
"OX c #8d8dff",
"+X c #9191ff",
"@X c #9494ff",
"#X c #9a9aff",
"$X c #bfbfff",
"%X c #c0c0c0",
"&X c Gray76",
"*X c #c5c5c5",
"=X c Gray79",
"-X c #cbcbcb",
";X c Gray80",
":X c #cecece",
">X c Gray81",
",X c Gray82",
"<X c Gray83",
"1X c #d5d5d5",
"2X c #d8d8d8",
"3X c #dadada",
"4X c Gray86",
"5X c #dddddd",
"6X c Gray87",
"7X c #cdcdff",
"8X c #d0d0ff",
"9X c #d5d5ff",
"0X c Gray88",
"qX c #e1e1e1",
"wX c Gray89",
"eX c #e4e4e4",
"rX c #e7e7e7",
"tX c #e9e9e9",
"yX c #eaeaea",
"uX c #ececec",
"iX c Gray93",
"pX c #efefef",
"aX c Gray94",
"sX c Gray95",
"dX c #f3f3f3",
"fX c Gray96",
"gX c #f6f6f6",
"hX c #f8f8f8",
"jX c #f9f9f9",
"kX c #fbfbfb",
"lX c Gray99",
"zX c #fefefe",
"xX c Gray100",
"cX c None",
/* pixels */
"cXcXcXcXcXcXcXcXcXcXcXcXcXcXcXcXcXcXcXcXcXcXcXcXcXcXcXcXcXcXcXcXcXcXcXcXcXcXcXcXcXcXcXcXcXcXcXcX",
"cXcXcXcXcXcXcXcXcXcXcXcXcXcXcXcXcXcXcXcXcXcXcXcXcXcXcXcXcXcXcXcXcXcXcXcXcXcXcXcXcXcXcXcXcXcXcXcX",
"cXcXcXcXcXcXcXcXcXcXcXcXcXcXcXcXcXcXcXcXcXcXcXcXcXcXcXcXcXcXcXcXcXcXcXcXcXcXcXcXcXcXcXcXcXcXcXcX",
"cXcXcXcXcXcXcXcXcXcXcXcXcXcXcXQ.T.J.G.A.A.A.A.A.A.A.A.A.A.C.n.C m cXcXcXcXcXcXcXcXcXcXcXcXcXcXcX",
"cXcXcXcXcXcXcXcXcXcXcX/.~.~.Q.T.+XOXoXXXxXxXxXxXxXxXxXxXxXxXxXxXx k k j cXcXcXcXcXcXcXcXcXcXcXcX",
"cXcXcXcXcXcXcXcXcXcX/.~.Q.#X+XoXv.c.z.l.xXxXxXxXxXxXxXxXxXxXxXxXxXxXxXf s y cXcXcXcXcXcXcXcXcXcX",
"cXcXcXcXcXcXcXcX/./.Q.xXOXb.x.h.d.u.r.w.xXxXxXxXxXxXxXxXxXxXxXxXxXxXxXxXxXr 9 : cXcXcXcXcXcXcXcX",
"cXcXcXcXcXcXcX/.~.xXxXxXk.f.r.8.3.<.>.-.xXxXxXxXxXxXxXxXxXxXxXxXxXxXxXxXxXxXxX* % cXcXcXcXcXcXcX",
"cXcXcXcXcXQ.~.Q.xXxXxXxX9.5.<.-.=.&.&.&.xXxXxXxXxXxXxXxXxXxXxXxXxXxXxXxXxXxXxXxX# + o cXcXcXcXcX",
"cXcXcXcXL.T.xXxXxXxXxXxX>.=.=.&.&.&.&.&.xXxXxXxXxXxXxXxXxXxXxXxXxXxXxXxXxXxXxXxXxXxX.   cXcXcXcX",
"cXcXcXcXJ.xXxXxXxXxXxXxX&.&.&.&.&.&.&.&.xXxXxXxXxXxXxXxXxXxXxXxXxXxXxXxXxXxXxXxXxXxXxX  cXcXcXcX",
"cXcXcXG.A.xXxXxXxXxXxXxX&.&.&.&.&.&.&.&.xXxXxXxXxXxXxXxXxXxXxXxXxXxXxXxXxXxXxXxXxXxXhX    cXcXcX",
"cXcXC.C.xXxXxXxXxXxXxXxX&.&.&.&.&.&.&.&.xXxXxXxXxXxXxXxXxXxXxXxXxXxXxXxXxXxXxXxXxXxXhXtX    cXcX",
"cXcXM.xXxXxXxXxXxXxXxXxX&.&.&.&.&.&.&.&.xXxXxXxXxXxXxXxXxXxXxXxXxXxXxXxXxXxXxXxXxXxXxXpX<X  cXcX",
"cXB V xXxXxXxXxXxXxXxXxX&.&.&.&.&.&.&.&.xXxXxXxXxXxXxXxXxXxXxXxXxXxXxXxXxXxXxXxXxXxXxXpX:X    cX",
"cXk k.h.u.3.-.&.&.&.&.&.&.&.&.&.&.&.&.&.&.&.&.&.&.&.&.&.&.&.&.&.&.&.&.&.&.&.&.&.&.&.o.} ^ U   cX",
"cXs g.a.9.>.&.&.&.&.&.&.&.&.&.&.&.&.&.&.&.&.&.&.&.&.&.&.&.&.&.&.&.&.&.&.&.&.&.&.&.&.o.{ ! K   cX",
"cXr a.t.6.=.&.&.&.&.&.&.&.&.&.&.&.&.&.&.&.&.&.&.&.&.&.&.&.&.&.&.&.&.&.&.&.&.&.&.&.&.o.{ E H   cX",
"cX: u.r.5.=.&.&.&.&.&.&.&.&.&.&.&.&.&.&.&.&.&.&.&.&.&.&.&.&.&.&.&.&.&.&.&.&.&.&.&.&.o.] R F   cX",
"cX: u.w.3.=.&.&.&.&.&.&.&.&.&.&.&.&.&.&.&.&.&.&.&.&.&.&.&.&.&.&.&.&.&.&.&.&.&.&.&.&.o.] R F   cX",
"cX: t.w.3.=.&.&.&.&.&.&.&.&.&.&.&.&.&.&.&.&.&.&.&.&.&.&.&.&.&.&.&.&.&.&.&.&.&.&.&.&.X.` T 6   cX",
"cX* w.9.2.&.&.&.&.&.&.&.&.&.&.&.&.&.&.&.&.&.&.&.&.&.&.&.&.&.&.&.&.&.&.&.&.&.&.&.&.&.X._ U 5   cX",
"cX@ 8.6.<.&.&.&.&.&.&.&.&.&.&.&.&.&.&.&.&.&.&.&.&.&.&.&.&.&.&.&.&.&.&.&.&.&.&.&.&.&...( L 2   cX",
"cXX xXxXxXxXxXxXxXxXxXxX&.&.&.&.&.&.&.&.xXxXxXxXxXxXxXxXxXxXxXxXxXxXxXxXxXxXxXxXkXgXwX'.C s   cX",
"cX    gXhXhXhXxXxXxXxXxX&.&.&.&.&.&.&.&.xXxXxXxXxXxXxXxXxXxXxXxXxXxXxXxXxXxXxXxXhXpX=XG.f     cX",
"cXcX  wXtXsXhXxXxXxXxXxX&.&.&.&.&.&.&.&.xXxXxXxXxXxXxXxXxXxXxXxXxXxXxXxXxXxXxXhXsX2X/.v 9   cXcX",
"cXcX    2XeXsXhXxXxXxXxX&.&.&.&.&.&.&.&.xXxXxXxXxXxXxXxXxXxXxXxXxXxXxXxXxXxXhXgXwX}.S r     cXcX",
"cXcXcX    ,X6XtXsXgXxXxX&.&.&.&.&.&.&.&.xXxXxXxXxXxXxXxXxXxXxXxXxXxXxXxXxXhXsXwX XC.p     cXcXcX",
"cXcXcXcX  }. X:X6XpXgXhX&.&.&.&.&.&.&.&.xXxXxXxXxXxXxXxXxXxXxXxXxXxXxXhXgXtX<X[.M.s 9   cXcXcXcX",
"cXcXcXcX    L.~.}.,XwXpXX.o.&.&.&.&.&.&.xXxXxXxXxXxXxXxXxXxXxXxXxXhXgXpX6X*XT.B 9 9     cXcXcXcX",
"cXcXcXcXcX      A.~. X,X{ | X.o.&.&.&.&.xXxXxXxXxXxXxXxXxXxXxXhXgXpXwX:X/.n.j 9       cXcXcXcXcX",
"cXcXcXcXcXcXcX    S A.Q.Q ( ` } | ..X.o.hXxXxXxXxXxXxXxXhXgXpXeX<X%X~.M.k 9 9     cXcXcXcXcXcXcX",
"cXcXcXcXcXcXcXcX      B F K Y Q ~ ( ) ` eXsXhXxXxXxXxXhXsXwX:X'.J.C j 9 9       cXcXcXcXcXcXcXcX",
"cXcXcXcXcXcXcXcXcXcX      1 3 5 6 J P E ,XtXhXxXxXxXhXsX6X XL.B p 9 9       cXcXcXcXcXcXcXcXcXcX",
"cXcXcXcXcXcXcXcXcXcXcXcX      > , < 3 L %XwXhXxXxXhXsX2X[.C.f 9         cXcXcXcXcXcXcXcXcXcXcXcX",
"cXcXcXcXcXcXcXcXcXcXcXcXcXcX              pXxXxXxXsX2X[.n.p       cXcXcXcXcXcXcXcXcXcXcXcXcXcXcX",
"cXcXcXcXcXcXcXcXcXcXcXcXcXcXcXcXcXcXcXcX  xXxXxXsX2X[.n.p 9   cXcXcXcXcXcXcXcXcXcXcXcXcXcXcXcXcX",
"cXcXcXcXcXcXcXcXcXcXcXcXcXcXcXcXcXcXcX* O xXxXxX6X'.n.p 9 8   cXcXcXcXcXcXcXcXcXcXcXcXcXcXcXcXcX",
"cXcXcXcXcXcXcXcXcXcXcXcXcXcXcXcXcXcXcXs :XxXxXeX'.S y 9 8     cXcXcXcXcXcXcXcXcXcXcXcXcXcXcXcXcX",
"cXcXcXcXcXcXcXcXcXcXcXcXcXcXcXcXcXcXA.B xXxXsX/.m 9 9 8     cXcXcXcXcXcXcXcXcXcXcXcXcXcXcXcXcXcX",
"cXcXcXcXcXcXcXcXcXcXcXcXcXcXcXcXcXT.M.9XxXpXT.j 9 9 #     cXcXcXcXcXcXcXcXcXcXcXcXcXcXcXcXcXcXcX",
"cXcXcXcXcXcXcXcXcXcXcXcXcXcXcXJ.M.V 8XxX<XM.y 9 8       cXcXcXcXcXcXcXcXcXcXcXcXcXcXcXcXcXcXcXcX",
"cXcXcXcXcXcXcXcXcXcXcXcXcXx v k 7XxXpX/.v 8         cXcXcXcXcXcXcXcXcXcXcXcXcXcXcXcXcXcXcXcXcXcX",
"cXcXcXcXcXcXcXcXcXcX* : : * $XxX6Xp.          cXcXcXcXcXcXcXcXcXcXcXcXcXcXcXcXcXcXcXcXcXcXcXcXcX",
"cXcXcXcXcXcXcXcXcXcXcX                cXcXcXcXcXcXcXcXcXcXcXcXcXcXcXcXcXcXcXcXcXcXcXcXcXcXcXcXcX",
"cXcXcXcXcXcXcXcXcXcXcXcXcXcXcXcXcXcXcXcXcXcXcXcXcXcXcXcXcXcXcXcXcXcXcXcXcXcXcXcXcXcXcXcXcXcXcXcX",
"cXcXcXcXcXcXcXcXcXcXcXcXcXcXcXcXcXcXcXcXcXcXcXcXcXcXcXcXcXcXcXcXcXcXcXcXcXcXcXcXcXcXcXcXcXcXcXcX",
"cXcXcXcXcXcXcXcXcXcXcXcXcXcXcXcXcXcXcXcXcXcXcXcXcXcXcXcXcXcXcXcXcXcXcXcXcXcXcXcXcXcXcXcXcXcXcXcX"
};
