/* XPM */
static char *magick[] = {
/* columns rows colors chars-per-pixel */
"48 48 256 2",
"   c Gray0",
".  c #040404",
"X  c #0c0c0c",
"o  c #161616",
"O  c #1b1b1b",
"+  c #272727",
"@  c #2a2a2a",
"#  c Gray18",
"$  c #313131",
"%  c #373737",
"&  c #393939",
"*  c #3c3c3c",
"=  c #3f3f3f",
"-  c #3d3d49",
";  c #09470b",
":  c #0a4c0c",
">  c #0b5b0e",
",  c #0d6610",
"<  c #0e6b10",
"1  c #0e6f11",
"2  c #0e7011",
"3  c #0f7612",
"4  c #107f13",
"5  c #400000",
"6  c #420000",
"7  c #460000",
"8  c #4a0000",
"9  c #4e0000",
"0  c #500000",
"q  c #590000",
"w  c #5d0000",
"e  c #620000",
"r  c #6b0000",
"t  c #6f0000",
"y  c #710000",
"u  c #720000",
"i  c #750000",
"p  c #790000",
"a  c #7d0000",
"s  c #414141",
"d  c #434343",
"f  c #464646",
"g  c #494949",
"h  c #515151",
"j  c Gray33",
"k  c #585858",
"l  c #606060",
"z  c Gray39",
"x  c #676767",
"c  c #6d6d6d",
"v  c Gray44",
"b  c Gray45",
"n  c #767676",
"m  c #797979",
"M  c #108214",
"N  c #128d16",
"B  c #139417",
"V  c #139717",
"C  c #149d18",
"Z  c #14a119",
"A  c #15aa1a",
"S  c #16af1b",
"D  c #17b31c",
"F  c #17b91c",
"G  c #18bf1d",
"H  c #18c11e",
"J  c #19c41e",
"K  c #19c91f",
"L  c #1ace20",
"P  c #1ad120",
"I  c #1bd621",
"U  c #1bd821",
"Y  c #1bd921",
"T  c #1cdb21",
"R  c #1cdb22",
"E  c #1cdd22",
"W  c #1cde22",
"Q  c #1dde23",
"!  c #1fde25",
"~  c #20df25",
"^  c #21df27",
"/  c #24df2a",
"(  c #29e02f",
")  c #2ae030",
"_  c #2de032",
"`  c #31e137",
"'  c #35e23a",
"]  c #3ae23f",
"[  c #3fe344",
"{  c #42e447",
"}  c #47e44c",
"|  c #48e44c",
" . c #49e54e",
".. c #4ae54f",
"X. c #50e654",
"o. c #51e656",
"O. c #52e657",
"+. c #5ae75f",
"@. c #64e868",
"#. c #69e96d",
"$. c #74eb78",
"%. c #7fec82",
"&. c #820000",
"*. c #850000",
"=. c #890000",
"-. c #8d0000",
";. c #8f0000",
":. c #940000",
">. c #980000",
",. c #9b0000",
"<. c #a10000",
"1. c #a60000",
"2. c #aa0000",
"3. c #ad0000",
"4. c #b10000",
"5. c #b40000",
"6. c #b70000",
"7. c #ba0000",
"8. c #bd0000",
"9. c #bf0000",
"0. c #c20000",
"q. c #c50000",
"w. c #c60000",
"e. c #c90000",
"r. c #cb0000",
"t. c #ce0000",
"y. c #d10000",
"u. c #d20000",
"i. c #d50000",
"p. c #d80000",
"a. c #da0000",
"s. c #db0000",
"d. c #de0000",
"f. c #e00000",
"g. c #e10000",
"h. c #e30000",
"j. c #e40000",
"k. c #e70000",
"l. c #e90000",
"z. c #ea0000",
"x. c #ec0000",
"c. c #ef0000",
"v. c #f00000",
"b. c #f20000",
"n. c #f30000",
"m. c #f50000",
"M. c #f60000",
"N. c #f80000",
"B. c #f90000",
"V. c #fb0000",
"C. c #fc0000",
"Z. c #fe0000",
"A. c Red",
"S. c #ff0101",
"D. c #ff0303",
"F. c #ff0707",
"G. c #ff0e0e",
"H. c #ff1515",
"J. c #ff1919",
"K. c #ff2121",
"L. c #ff2626",
"P. c #ff2828",
"I. c #ff3939",
"U. c #ff3c3c",
"Y. c #ff4b4b",
"T. c #ff5555",
"R. c #ff5e5e",
"E. c #ff6767",
"W. c #ff7373",
"Q. c #d5d500",
"!. c #e9e900",
"~. c #ecec00",
"^. c #fafa00",
"/. c #fcfc00",
"(. c Yellow",
"). c #ffff01",
"_. c #ffff03",
"`. c #ffff04",
"'. c #ffff06",
"]. c #ffff07",
"[. c #ffff09",
"{. c #ffff0a",
"}. c #ffff0c",
"|. c #ffff0d",
" X c #ffff0f",
".X c #ffff10",
"XX c #ffff12",
"oX c #ffff16",
"OX c #ffff19",
"+X c #ffff1b",
"@X c #ffff1c",
"#X c #ffff1e",
"$X c #ffff22",
"%X c #ffff24",
"&X c #ffff27",
"*X c #ffff28",
"=X c #ffff2b",
"-X c #ffff30",
";X c #ffff31",
":X c #ffff33",
">X c #ffff34",
",X c #ffff36",
"<X c #ffff37",
"1X c #ffff3a",
"2X c #ffff3c",
"3X c #ffff3f",
"4X c #ffff43",
"5X c #ffff48",
"6X c #ffff4b",
"7X c #ffff4c",
"8X c #ffff51",
"9X c #ffff58",
"0X c #ffff5a",
"qX c #ffff5b",
"wX c #ffff5d",
"eX c #ffff60",
"rX c #ffff63",
"tX c #ffff64",
"yX c #ffff69",
"uX c #ffff6c",
"iX c #ffff6f",
"pX c #ffff70",
"aX c #ffff76",
"sX c #ffff7a",
"dX c #ffff7c",
"fX c #ffff7e",
"gX c #ffff7f",
"hX c #818181",
"jX c #838383",
"kX c #848484",
"lX c #888888",
"zX c #8b8b8b",
"xX c #8d8d8d",
"cX c #8e8e8e",
"vX c Gray57",
"bX c Gray58",
"nX c #979797",
"mX c #9a9a9a",
"MX c Gray61",
"NX c #9f9f9f",
"BX c #a0a0a0",
"VX c #a2a2a2",
"CX c #a5a5a5",
"ZX c Gray65",
"AX c #a8a8a1",
"SX c Gray66",
"DX c #a9a9a9",
"FX c #ffff81",
"GX c #ffff82",
"HX c #ffff87",
"JX c #ffff8d",
"KX c #ffff92",
"LX c #ffff94",
"PX c #ffff9a",
"IX c #ffff9c",
"UX c None",
/* pixels */
"UXUXUXUXUXUXUXUXUXUXUXUXUXUXUXUXUXUXUXUXUXUXUXUXUXUXUXUXUXUXUXUXUXUXUXUXUXUXUXUXUXUXUXUXUXUXUXUX",
"UXUXUXUXUXUXUXUXUXUXUXUXUXUXUXUXUXUXUXUXUXUXUXUXUXUXUXUXUXUXUXUXUXUXUXUXUXUXUXUXUXUXUXUXUXUXUXUX",
"UXUXUXUXUXUXUXUXUXUXUXUXUXUXUXUXUXUXUXUXUXUXUXUXUXUXUXUXUXUXUXUXUXUXUXUXUXUXUXUXUXUXUXUXUXUXUXUX",
"UXUXUXUXUXUXUXUXUXUXUXUXUXUXUXVXNXbXvXcXcXcXcXcXcXcXcXcXcXzXhXm c UXUXUXUXUXUXUXUXUXUXUXUXUXUXUX",
"UXUXUXUXUXUXUXUXUXUXUXSXZXZXVXNXLXJXHXFXFXFXFXFXFXFXFXFXFXsXaXpXx l l k UXUXUXUXUXUXUXUXUXUXUXUX",
"UXUXUXUXUXUXUXUXUXUXSXZXAXPXKXHXsXpXyXtXrXtXrXrXrXrXrXrXrXrXwXqXqXqXqXj h g UXUXUXUXUXUXUXUXUXUX",
"UXUXUXUXUXUXUXUXSXSXVXPXJXgXuXqX5X2X1X-X-X-X-X-X-X-X-X-X-X-X-X,X2X4X5X5X5Xf s = UXUXUXUXUXUXUXUX",
"UXUXUXUXUXUXUXSXZXIXJXsXrX7X,X%X+XXX|.[.[.[.[.[.[.[.[.[.[.[.|.XX+X$X=X,X2X2X2X% $ UXUXUXUXUXUXUX",
"UXUXUXUXUXVXZXVXLXgXtX5X-X@XXX[.'._._._._._._._._._._._._._._._.'.[.|.+X%X=X-X,X# + O UXUXUXUXUX",
"UXUXUXUXmXNXPXJXuX8X,X@X|.'.'._._._._._._._._._._._._._._._._._._._._.'.|.oX$X%X%X@XX   UXUXUXUX",
"UXUXUXUXbXKXFXtX4X%XoX[._._._._._._._._._._._._._._._._._._._._._._._._.'.'.XX+X+XXX_.  UXUXUXUX",
"UXUXUXbXcXgXrX1X@X|.'._._._._._._._._._._._._._._._._._._._._._._._._._._._.'.|.|.[.^.    UXUXUX",
"UXUXzXzXgXrX2X@X[.'._._._._._._._._._._._._._._._._._._._._._._._._._._._._._._.'.'.^.!.    UXUX",
"UXUXkXgXuX5X%X|._._._._._._._._._._._._._._._._._._._._._._._._._._._._._._._._._._._.~.Q.  UXUX",
"UXb n %.#.} _ ^ Q Q Q Q Q Q Q Q Q Q Q Q Q Q Q Q Q Q Q Q Q Q Q Q Q Q Q Q Q Q Q Q Q ! Q K D     UX",
"UXl $.#.O.' / ! Q Q Q Q Q Q Q Q Q Q Q Q Q Q Q Q Q Q Q Q Q Q Q Q Q Q Q Q Q Q Q Q Q Q Q K A N   UX",
"UXh @.+.{ ( ! Q Q Q Q Q Q Q Q Q Q Q Q Q Q Q Q Q Q Q Q Q Q Q Q Q Q Q Q Q Q Q Q Q Q Q T J Z M   UX",
"UXf +.O.] / Q Q Q Q Q Q Q Q Q Q Q Q Q Q Q Q Q Q Q Q Q Q Q Q Q Q Q Q Q Q Q Q Q Q Q Q T J C 3   UX",
"UX= O. .' ^ Q Q Q Q Q Q Q Q Q Q Q Q Q Q Q Q Q Q Q Q Q Q Q Q Q Q Q Q Q Q Q Q Q Q Q Q U H B 2   UX",
"UX- O. .' ^ Q Q Q Q Q Q Q Q Q Q Q Q Q Q Q Q Q Q Q Q Q Q Q Q Q Q Q Q Q Q Q Q Q Q Q Q U G B 1   UX",
"UX= O.} ' ^ Q Q Q Q Q Q Q Q Q Q Q Q Q Q Q Q Q Q Q Q Q Q Q Q Q Q Q Q Q Q Q Q Q Q Q Q U G B 1   UX",
"UX%  .{ ` ^ Q Q Q Q Q Q Q Q Q Q Q Q Q Q Q Q Q Q Q Q Q Q Q Q Q Q Q Q Q Q Q Q Q Q Q Q I F N ,   UX",
"UX@ [ ] _ ! Q Q Q Q Q Q Q Q E E Q Q Q Q Q Q Q Q Q Q Q Q Q Q Q Q Q Q Q Q Q Q Q Q Q T P S M >   UX",
"UXo _ ( / Q Q Q Q Q Q Q E E E E Q Q Q Q Q Q Q Q Q Q Q Q Q Q Q Q Q Q Q Q Q Q Q Q T I J C < ;   UX",
"UX    I U U T Q E E E E E E E E Q Q Q Q Q Q Q Q Q Q Q Q Q Q Q Q Q Q Q Q Q Q Q Q U L S 4 :     UX",
"UXUX  h.l.n.N.A.A.A.A.A.A.A.A.A.A.A.A.A.A.A.A.A.A.A.A.A.A.A.A.A.A.A.A.A.A.A.A.N.n.s.2.r 5   UXUX",
"UXUX    s.j.n.N.A.A.A.A.A.A.A.A.A.A.A.A.A.A.A.A.A.A.A.A.A.A.A.A.A.A.A.A.A.A.N.M.h.7.a 7 .   UXUX",
"UXUXUX    y.d.l.n.M.A.A.A.A.A.A.A.A.A.A.A.A.A.A.A.A.A.A.A.A.A.A.A.A.A.A.A.N.n.h.8.=.9     UXUXUX",
"UXUXUXUX  6.8.t.d.c.M.N.A.A.A.A.A.A.A.A.A.A.A.A.A.A.A.A.A.A.A.A.A.A.A.N.M.l.i.6.*.0 5   UXUXUXUX",
"UXUXUXUX    ,.1.7.y.h.c.M.N.A.A.A.A.A.A.A.A.A.A.A.A.A.A.A.A.A.A.A.N.M.c.d.q.<.y 5 5     UXUXUXUX",
"UXUXUXUXUX      -.1.8.y.h.c.M.N.A.A.A.A.A.A.A.A.A.A.A.A.A.A.A.N.M.c.h.r.2.&.q 5       UXUXUXUXUX",
"UXUXUXUXUXUXUX    a -.<.6.r.s.j.c.n.M.N.N.A.A.A.A.A.A.A.N.M.c.j.i.0.1.*.e 5 5     UXUXUXUXUXUXUX",
"UXUXUXUXUXUXUXUX      y &.:.1.6.8.r.y.s.j.n.N.A.A.A.A.N.n.h.t.4.:.p q 5 5       UXUXUXUXUXUXUXUX",
"UXUXUXUXUXUXUXUXUXUX      e r i a =.,.6.y.l.N.A.A.A.A.M.h.q.,.i 9 5 5       UXUXUXUXUXUXUXUXUXUX",
"UXUXUXUXUXUXUXUXUXUXUXUX      7 8 q y ,.q.j.N.A.A.A.N.l.r.,.e 5         UXUXUXUXUXUXUXUXUXUXUXUX",
"UXUXUXUXUXUXUXUXUXUXUXUXUXUXUX            M.F.F.A.A.n.y.<.e       UXUXUXUXUXUXUXUXUXUXUXUXUXUXUX",
"UXUXUXUXUXUXUXUXUXUXUXUXUXUXUXUXUXUXUXUX  H.J.G.A.n.s.3.t 5   UXUXUXUXUXUXUXUXUXUXUXUXUXUXUXUXUX",
"UXUXUXUXUXUXUXUXUXUXUXUXUXUXUXUXUXUXUXUX& I.P.G.M.s.4.i 5 5   UXUXUXUXUXUXUXUXUXUXUXUXUXUXUXUXUX",
"UXUXUXUXUXUXUXUXUXUXUXUXUXUXUXUXUXUXUXl R.Y.L.N.y.1.y 5 5   UXUXUXUXUXUXUXUXUXUXUXUXUXUXUXUXUXUX",
"UXUXUXUXUXUXUXUXUXUXUXUXUXUXUXUXUXUXUXhXE.I.N.8.-.w 5 5   UXUXUXUXUXUXUXUXUXUXUXUXUXUXUXUXUXUXUX",
"UXUXUXUXUXUXUXUXUXUXUXUXUXUXUXUXUXUXvXW.U.c.<.r 5 5 5   UXUXUXUXUXUXUXUXUXUXUXUXUXUXUXUXUXUXUXUX",
"UXUXUXUXUXUXUXUXUXUXUXUXUXUXUXUXbXhXR.J.q.p 5 5 5     UXUXUXUXUXUXUXUXUXUXUXUXUXUXUXUXUXUXUXUXUX",
"UXUXUXUXUXUXUXUXUXUXUXUXUXUXm b T.K.s.-.0 5       UXUXUXUXUXUXUXUXUXUXUXUXUXUXUXUXUXUXUXUXUXUXUX",
"UXUXUXUXUXUXUXUXUXUX& s s = L.A.r.=.        UXUXUXUXUXUXUXUXUXUXUXUXUXUXUXUXUXUXUXUXUXUXUXUXUXUX",
"UXUXUXUXUXUXUXUXUXUXUX              UXUXUXUXUXUXUXUXUXUXUXUXUXUXUXUXUXUXUXUXUXUXUXUXUXUXUXUXUXUX",
"UXUXUXUXUXUXUXUXUXUXUXUXUXUXUXUXUXUXUXUXUXUXUXUXUXUXUXUXUXUXUXUXUXUXUXUXUXUXUXUXUXUXUXUXUXUXUXUX",
"UXUXUXUXUXUXUXUXUXUXUXUXUXUXUXUXUXUXUXUXUXUXUXUXUXUXUXUXUXUXUXUXUXUXUXUXUXUXUXUXUXUXUXUXUXUXUXUX",
"UXUXUXUXUXUXUXUXUXUXUXUXUXUXUXUXUXUXUXUXUXUXUXUXUXUXUXUXUXUXUXUXUXUXUXUXUXUXUXUXUXUXUXUXUXUXUXUX"
};
