/* XPM */
static char *magick[] = {
/* columns rows colors chars-per-pixel */
"48 48 219 2",
"   c Gray0",
".  c #0c0c0c",
"X  c #1b1b1b",
"o  c #272727",
"O  c #2d2d2d",
"+  c Gray18",
"@  c #313131",
"#  c Gray20",
"$  c #373737",
"%  c #393939",
"&  c #3c3c3c",
"*  c Gray24",
"=  c #400000",
"-  c #420000",
";  c #450000",
":  c #470000",
">  c #4a0000",
",  c #4d0000",
"<  c #4e0000",
"1  c #510000",
"2  c #530000",
"3  c #540000",
"4  c #560000",
"5  c #590000",
"6  c #5d0000",
"7  c #5f0000",
"8  c #680000",
"9  c #690000",
"0  c #6b0000",
"q  c #6c0000",
"w  c #710000",
"e  c #750000",
"r  c #770000",
"t  c #7a0000",
"y  c #7b0000",
"u  c Gray25",
"i  c #434343",
"p  c Gray27",
"a  c #464646",
"s  c #4c4c4c",
"d  c #4e4e4e",
"f  c Gray32",
"g  c Gray33",
"h  c #5a5a5a",
"j  c #5d5d5d",
"k  c Gray38",
"l  c Gray39",
"z  c #676767",
"x  c Gray44",
"c  c #727272",
"v  c Gray45",
"b  c Gray47",
"n  c #7c7c7c",
"m  c Gray50",
"M  c #810000",
"N  c #830000",
"B  c #840000",
"V  c #860000",
"C  c #870000",
"Z  c #8a0000",
"A  c #8d0000",
"S  c #8f0000",
"D  c #920000",
"F  c #950000",
"G  c #960000",
"H  c #9b0000",
"J  c #9c0000",
"K  c #9f0000",
"L  c #a10000",
"P  c #a20000",
"I  c #a40000",
"U  c #a50000",
"Y  c #a80000",
"T  c #aa0000",
"R  c #ad0000",
"E  c #ae0000",
"W  c #b00000",
"Q  c #b30000",
"!  c #b40000",
"~  c #b60000",
"^  c #b70000",
"/  c #b90000",
"(  c #ba0000",
")  c #bc0000",
"_  c #bd0000",
"`  c #c00000",
"'  c #c30000",
"]  c #c50000",
"[  c #c60000",
"{  c #c80000",
"}  c #c90000",
"|  c #cb0000",
" . c #cc0000",
".. c #ce0000",
"X. c #cf0000",
"o. c #d10000",
"O. c #d20000",
"+. c #d40000",
"@. c #d50000",
"#. c #d70000",
"$. c #d80000",
"%. c #da0000",
"&. c #db0000",
"*. c #dd0000",
"=. c #de0000",
"-. c #e10000",
";. c #e30000",
":. c #e60000",
">. c #e90000",
",. c #ea0000",
"<. c #ec0000",
"1. c #ed0000",
"2. c #f00000",
"3. c #f20000",
"4. c #f30000",
"5. c #f50000",
"6. c #f60000",
"7. c #f80000",
"8. c #f90000",
"9. c #fb0000",
"0. c #fc0000",
"q. c #fe0000",
"w. c Red",
"e. c #ff0101",
"r. c #ff0303",
"t. c #ff0404",
"y. c #ff0606",
"u. c #ff0707",
"i. c #ff0909",
"p. c #ff0a0a",
"a. c #ff0c0c",
"s. c #ff0d0d",
"d. c #ff0f0f",
"f. c #ff1010",
"g. c #ff1212",
"h. c #ff1313",
"j. c #ff1616",
"k. c #ff1818",
"l. c #ff1b1b",
"z. c #ff1c1c",
"x. c #ff1e1e",
"c. c #ff1f1f",
"v. c #ff2222",
"b. c #ff2424",
"n. c #ff2525",
"m. c #ff2a2a",
"M. c #ff2b2b",
"N. c #ff2d2d",
"B. c #ff2e2e",
"V. c #ff3030",
"C. c #ff3333",
"Z. c #ff3434",
"A. c #ff3636",
"S. c #ff3939",
"D. c #ff3a3a",
"F. c #ff3c3c",
"G. c #ff3f3f",
"H. c #ff4040",
"J. c #ff4242",
"K. c #ff4343",
"L. c #ff4646",
"P. c #ff4949",
"I. c #ff4c4c",
"U. c #ff4e4e",
"Y. c #ff4f4f",
"T. c #ff5454",
"R. c #ff5555",
"E. c #ff5757",
"W. c #ff5858",
"Q. c #ff5a5a",
"!. c #ff5b5b",
"~. c #ff5d5d",
"^. c #ff5e5e",
"/. c #ff6161",
"(. c #ff6363",
"). c #ff6464",
"_. c #ff6666",
"`. c #ff6d6d",
"'. c #ff6f6f",
"]. c #ff7272",
"[. c #ff7373",
"{. c #ff7676",
"}. c #ff7878",
"|. c #ff7b7b",
" X c #ff7f7f",
".X c #848484",
"XX c Gray52",
"oX c #888888",
"OX c Gray54",
"+X c #8b8b8b",
"@X c #8d8d8d",
"#X c #8e8e8e",
"$X c Gray57",
"%X c Gray58",
"&X c Gray59",
"*X c #979797",
"=X c Gray60",
"-X c Gray61",
";X c #9d9d9d",
":X c #9f9f9f",
">X c #a0a0a0",
",X c Gray64",
"<X c #a5a5a5",
"1X c Gray65",
"2X c Gray66",
"3X c #a9a9a9",
"4X c Gray67",
"5X c #ff8181",
"6X c #ff8282",
"7X c #ff8787",
"8X c #ff8888",
"9X c #ff8d8d",
"0X c #ff8e8e",
"qX c #ff9393",
"wX c #ff9494",
"eX c #ff9696",
"rX c #fefefe",
"tX c Gray100",
"yX c None",
/* pixels */
"yXyXyXyXyXyXyXyXyXyXyXyXyXyXyXyXyXyXyXyXyXyXyXyXyXyXyXyXyXyXyXyXyXyXyXyXyXyXyXyXyXyXyXyXyXyXyXyX",
"yXyXyXyXyXyXyXyXyXyXyXyXyXyXyXyXyXyXyXyXyXyXyXyXyXyXyXyXyXyXyXyXyXyXyXyXyXyXyXyXyXyXyXyXyXyXyXyX",
"yXyXyXyXyXyXyXyXyXyXyXyXyXyXyXyXyXyXyXyXyXyXyXyXyXyXyXyXyXyXyXyXyXyXyXyXyXyXyXyXyXyXyXyXyXyXyXyX",
"yXyXyXyXyXyXyXyXyXyXyXyXyXyXyX>X;X%X$X@X@X@X@X@X@X@X@X@X@XoX.Xn c yXyXyXyXyXyXyXyXyXyXyXyXyXyXyX",
"yXyXyXyXyXyXyXyXyXyXyX3X3X1X:X=X0X7X X|.|.|.|.|.|.|.|.|.|.|.].`.z l l h yXyXyXyXyXyXyXyXyXyXyXyX",
"yXyXyXyXyXyXyXyXyXyX3X1X>XwX8X|.`.(.^.!.!.E.!.E.E.!.E.!.!.E.E.E.E.E.E.g f d yXyXyXyXyXyXyXyXyXyX",
"yXyXyXyXyXyXyXyX4X3X>XqX6X`.!.L.Z.m.n.v.v.v.v.v.v.v.v.v.v.v.v.tXC.S.K.L.P.a i * yXyXyXyXyXyXyXyX",
"yXyXyXyXyXyXyX3X>XwX6X_.I.Z.v.f.p.u.e.e.e.e.e.e.e.e.e.e.e.e.e.tXa.f.z.m.Z.S.S.% # yXyXyXyXyXyXyX",
"yXyXyXyXyX3X1X;X8X`.I.C.l.a.u.e.e.tXtXtXtXtXtXtXtXtXtXtXtXtXtXtXe.e.u.a.l.v.B.Z.O o X yXyXyXyXyX",
"yXyXyXyX;X>XqX|.!.S.z.a.u.e.e.tXtXtXtXtXtXtXtXtXtXtXtXtXtXtXtXtXe.e.e.e.u.a.j.n.n.z..   yXyXyXyX",
"yXyXyXyX%X0X].I.m.f.u.e.e.e.tXtXtXtXtXtXtXtXtXtXtXtXtXtXtXtXtXtXe.e.e.e.e.e.u.f.j.f.u.  yXyXyXyX",
"yXyXyX%XoX].P.n.a.u.e.e.e.e.tXtXtXtXtXtXtXtXtXtXtXtXtXtXtXtXtXtXe.e.e.e.e.e.e.u.p.p.e.    yXyXyX",
"yXyX@XoX{.I.n.a.e.e.e.e.e.e.tXtXtXtXtXe.e.e.e.e.e.e.e.e.e.e.e.e.e.e.e.e.e.e.e.e.e.e.e.>.    yXyX",
"yXyX.X|.^.C.f.u.e.e.e.e.e.e.e.tXtXtXtXtXe.e.e.e.e.e.e.e.e.e.e.e.e.e.e.e.e.e.e.e.e.e.e.3.&.  yXyX",
"yXc c _.K.z.u.e.e.e.e.e.e.e.e.tXtXtXtXtXtXtXe.e.e.e.e.e.e.e.e.e.tXtXtXtXtXe.e.e.e.e.u.3.#.    yX",
"yXj !.I.m.a.e.e.e.e.e.e.e.e.e.e.tXtXtXtXtXtXtXe.e.e.e.e.e.e.tXtXtXtXtXtXtXtXe.e.e.e.e.1.} L   yX",
"yXd I.F.l.u.e.e.e.e.e.e.e.e.e.e.e.tXtXtXtXtXtXtXe.e.e.e.tXtXtXtXtXtXtXtXtXtXe.e.e.e.e.1.' G   yX",
"yXi K.C.j.e.e.e.e.e.e.e.e.e.e.e.e.e.tXtXtXtXtXtXtXtXtXtXtXtXtXtXtXtXtXtXtXtXe.e.e.e.e.>.) S   yX",
"yX* S.B.f.e.e.e.e.e.e.e.e.e.e.e.e.e.e.tXtXtXtXtXtXtXtXtXtXtXtXtXtXe.tXtXtXtXe.e.e.e.e.>.( Z   yX",
"yX* S.B.f.e.e.e.e.e.e.e.e.e.e.e.e.e.e.e.tXtXtXtXtXtXtXtXtXtXtXe.e.e.tXtXtXtXe.e.e.e.e.>.( Z   yX",
"yX* S.B.f.e.e.e.e.e.e.tXtXe.e.e.e.e.e.e.e.tXtXtXtXtXtXtXtXe.e.e.e.e.tXtXtXtXe.e.e.e.e.>.( Z   yX",
"yX$ Z.m.f.e.e.e.e.e.e.tXtXtXe.e.e.e.e.e.e.e.tXtXtXtXtXe.e.e.e.e.e.e.tXtXtXtXe.e.e.e.e.:.Q N   yX",
"yXO m.v.f.e.e.e.e.e.e.tXtXtXtXtXe.e.e.e.e.e.tXtXtXtXtXe.e.e.e.e.e.e.tXtXtXtXe.e.e.e.9.=.T r   yX",
"yXX l.j.a.e.e.e.e.e.e.tXtXtXtXtXtXe.e.e.e.e.tXtXtXtXtXe.e.e.e.e.e.e.tXtXtXtXe.e.e.e.3. .D 6   yX",
"yX    e.e.9.e.e.e.e.e.tXtXtXtXtXtXtXtXe.e.e.tXtXtXtXtXe.e.e.e.e.e.e.tXtXtXtXe.e.e.9.;.R q     yX",
"yXyX  :.1.5.9.e.e.e.e.tXtXtXtXtXtXtXtXtXe.e.tXtXtXtXtXe.e.e.e.e.e.e.tXtXtXtXtXtX9.1.] C ;   yXyX",
"yXyX    ;.3.9.e.e.e.e.tXe.tXtXtXtXtXtXtXtXtXtXtXtXtXtXe.e.e.e.e.e.e.e.e.e.e.e.e.3.#.J 5     yXyX",
"yXyXyX    #.>.3.9.e.e.tXe.e.e.tXtXtXtXtXtXtXtXtXtXtXtXe.e.e.e.e.e.e.e.e.e.e.9.3.&.T 8     yXyXyX",
"yXyXyXyX  ) } &.>.5.e.tXe.e.e.e.e.tXtXtXtXtXtXtXtXtXtXe.e.e.e.e.e.e.e.e.e.9.>.o.I 8 =   yXyXyXyX",
"yXyXyXyX    I ^ } ;.3.9.e.e.e.e.e.e.e.tXtXtXtXtXtXtXtXe.e.e.e.e.e.e.e.9.3.=.' G 6 =     yXyXyXyX",
"yXyXyXyXyX      H ^ o.;.1.9.9.e.e.e.e.e.e.tXtXtXtXtXtXe.e.e.e.e.e.9.3.;.} I r ;       yXyXyXyXyX",
"yXyXyXyXyXyXyX    C J Q } &.>.3.9.e.e.e.e.e.e.tXtXtXe.e.e.e.9.5.>.&.] I N 4 =     yXyXyXyXyXyXyX",
"yXyXyXyXyXyXyXyX      t S L ^ ] o.&.;.1.3.9.e.e.e.e.e.e.9.3.;. .^ G r 1 =       yXyXyXyXyXyXyXyX",
"yXyXyXyXyXyXyXyXyXyX      8 r N S J R ] =.3.9.e.e.e.e.9.1.&.^ D 8 ; =       yXyXyXyXyXyXyXyXyXyX",
"yXyXyXyXyXyXyXyXyXyXyXyX      , 4 8 C Q #.3.e.e.e.e.e.3.=.^ t >         yXyXyXyXyXyXyXyXyXyXyXyX",
"yXyXyXyXyXyXyXyXyXyXyXyXyXyXyX            5.u.u.e.e.5.;.^ t       yXyXyXyXyXyXyXyXyXyXyXyXyXyXyX",
"yXyXyXyXyXyXyXyXyXyXyXyXyXyXyXyXyXyXyXyX  a.f.u.e.9.:.) N =   yXyXyXyXyXyXyXyXyXyXyXyXyXyXyXyXyX",
"yXyXyXyXyXyXyXyXyXyXyXyXyXyXyXyXyXyXyXyX# C.z.p.5.:.' C ; =   yXyXyXyXyXyXyXyXyXyXyXyXyXyXyXyXyX",
"yXyXyXyXyXyXyXyXyXyXyXyXyXyXyXyXyXyXyXj E.K.z.9.=.( C ; =   yXyXyXyXyXyXyXyXyXyXyXyXyXyXyXyXyXyX",
"yXyXyXyXyXyXyXyXyXyXyXyXyXyXyXyXyXyXyXn _.Z.e. .L w = =   yXyXyXyXyXyXyXyXyXyXyXyXyXyXyXyXyXyXyX",
"yXyXyXyXyXyXyXyXyXyXyXyXyXyXyXyXyXyX%X{.F.3.R t , = =   yXyXyXyXyXyXyXyXyXyXyXyXyXyXyXyXyXyXyXyX",
"yXyXyXyXyXyXyXyXyXyXyXyXyXyXyXyX;XoX(.z.} N , = =     yXyXyXyXyXyXyXyXyXyXyXyXyXyXyXyXyXyXyXyXyX",
"yXyXyXyXyXyXyXyXyXyXyXyXyXyX.Xb !.n.&.S 1 =       yXyXyXyXyXyXyXyXyXyXyXyXyXyXyXyXyXyXyXyXyXyXyX",
"yXyXyXyXyXyXyXyXyXyXa d d a m.e.] N         yXyXyXyXyXyXyXyXyXyXyXyXyXyXyXyXyXyXyXyXyXyXyXyXyXyX",
"yXyXyXyXyXyXyXyXyXyXyX              yXyXyXyXyXyXyXyXyXyXyXyXyXyXyXyXyXyXyXyXyXyXyXyXyXyXyXyXyXyX",
"yXyXyXyXyXyXyXyXyXyXyXyXyXyXyXyXyXyXyXyXyXyXyXyXyXyXyXyXyXyXyXyXyXyXyXyXyXyXyXyXyXyXyXyXyXyXyXyX",
"yXyXyXyXyXyXyXyXyXyXyXyXyXyXyXyXyXyXyXyXyXyXyXyXyXyXyXyXyXyXyXyXyXyXyXyXyXyXyXyXyXyXyXyXyXyXyXyX",
"yXyXyXyXyXyXyXyXyXyXyXyXyXyXyXyXyXyXyXyXyXyXyXyXyXyXyXyXyXyXyXyXyXyXyXyXyXyXyXyXyXyXyXyXyXyXyXyX"
};
