/* XPM */
static char *magick[] = {
/* columns rows colors chars-per-pixel */
"48 48 153 2",
"   c Gray0",
".  c #0c0c0c",
"X  c #161616",
"o  c #1b1b1b",
"O  c #272727",
"+  c #282828",
"@  c #2a2a2a",
"#  c Gray18",
"$  c #313131",
"%  c Gray21",
"&  c #373737",
"*  c Gray22",
"=  c #3c3c3c",
"-  c Gray24",
";  c #3e3e3e",
":  c #3f3f3f",
">  c #401111",
",  c #471212",
"<  c Gray25",
"1  c #414141",
"2  c Gray26",
"3  c #444444",
"4  c Gray27",
"5  c #464646",
"6  c #494949",
"7  c Gray29",
"8  c #4b4b4b",
"9  c Gray30",
"0  c #4e4e4e",
"q  c #505050",
"w  c #515151",
"e  c Gray33",
"r  c #555555",
"t  c Gray34",
"y  c #585858",
"u  c Gray35",
"i  c #5a5a5a",
"p  c Gray36",
"a  c #5f5f5f",
"s  c #606060",
"d  c #626262",
"f  c Gray39",
"g  c #646464",
"h  c #676767",
"j  c #686868",
"k  c Gray42",
"l  c #6d6d6d",
"z  c Gray43",
"x  c #6f6f6f",
"c  c #717171",
"v  c #727272",
"b  c Gray45",
"n  c #747474",
"m  c Gray46",
"M  c #767676",
"N  c Gray47",
"B  c #797979",
"V  c Gray48",
"C  c #7b7b7b",
"Z  c Gray49",
"A  c Gray",
"S  c #932c2c",
"D  c Red",
"F  c #ff5f5f",
"G  c #808080",
"H  c #818181",
"J  c #838383",
"K  c #848484",
"L  c #868686",
"P  c Gray53",
"I  c #888888",
"U  c #898989",
"Y  c #8b8b8b",
"T  c #8d8d8d",
"R  c #8e8e8e",
"E  c Gray56",
"W  c Gray57",
"Q  c #929292",
"!  c #939393",
"~  c #959595",
"^  c Gray59",
"/  c #979797",
"(  c #989898",
")  c #9a9a9a",
"_  c #9b9b9b",
"`  c Gray61",
"'  c #9d9d9d",
"]  c Gray62",
"[  c #9f9f9f",
"{  c #a0a0a0",
"}  c Gray63",
"|  c #a2a2a2",
" . c Gray64",
".. c #a5a5a5",
"X. c Gray65",
"o. c #a7a7a7",
"O. c Gray66",
"+. c #a9a9a9",
"@. c #aaaaaa",
"#. c Gray67",
"$. c Gray68",
"%. c #b1b1b1",
"&. c Gray70",
"*. c #b4b4b4",
"=. c #b6b6b6",
"-. c #b7b7b7",
";. c #b9b9b9",
":. c Gray73",
">. c Gray74",
",. c Gray75",
"<. c #ff8181",
"1. c #ff8787",
"2. c #ff8888",
"3. c #ff9797",
"4. c #c0c0c0",
"5. c Gray76",
"6. c #c3c3c3",
"7. c #c5c5c5",
"8. c Gray79",
"9. c #cbcbcb",
"0. c #cecece",
"q. c Gray81",
"w. c Gray82",
"e. c #d2d2d2",
"r. c Gray83",
"t. c #d5d5d5",
"y. c #d8d8d8",
"u. c #dadada",
"i. c Gray86",
"p. c #dddddd",
"a. c Gray87",
"s. c Gray88",
"d. c #e1e1e1",
"f. c Gray89",
"g. c #e4e4e4",
"h. c #e7e7e7",
"j. c #e9e9e9",
"k. c #eaeaea",
"l. c #ececec",
"z. c Gray93",
"x. c #efefef",
"c. c Gray94",
"v. c Gray95",
"b. c #f3f3f3",
"n. c Gray96",
"m. c #f6f6f6",
"M. c #f8f8f8",
"N. c #f9f9f9",
"B. c #fbfbfb",
"V. c Gray99",
"C. c #fefefe",
"Z. c Gray100",
"A. c None",
/* pixels */
"A.A.A.A.A.A.A.A.A.A.A.A.A.A.A.A.A.A.A.A.A.A.A.A.A.A.A.A.A.A.A.A.A.A.A.A.A.A.A.A.A.A.A.A.A.A.A.A.",
"A.A.A.A.A.A.A.A.A.A.A.A.A.A.A.A.A.A.A.A.A.A.A.A.A.A.A.A.A.A.A.A.A.A.A.A.A.A.A.A.A.A.A.A.A.A.A.A.",
"A.A.A.A.A.A.A.A.A.A.A.A.A.A.A.A.A.A.A.A.A.A.A.A.A.A.A.A.A.A.A.A.A.A.A.A.A.A.A.A.A.A.A.A.A.A.A.A.",
"A.A.A.A.A.A.A.A.A.A.A.A.A.A.A. .[ / ! R R R R R R R R R R Y H N z A.A.A.A.A.A.A.A.A.A.A.A.A.A.A.",
"A.A.A.A.A.A.A.A.A.A.A.O.X.X. .[ Z.Z.Z.Z.Z.Z.Z.Z.Z.Z.Z.Z.Z.Z.Z.Z.g s s i A.A.A.A.A.A.A.A.A.A.A.A.",
"A.A.A.A.A.A.A.A.A.A.O.X. .Z.Z.Z.Z.Z.Z.Z.Z.Z.Z.Z.Z.Z.Z.Z.Z.Z.Z.Z.Z.Z.Z.t w 7 A.A.A.A.A.A.A.A.A.A.",
"A.A.A.A.A.A.A.A.O.O. .Z.Z.Z.Z.Z.Z.Z.Z.Z.Z.Z.Z.Z.Z.Z.Z.Z.Z.Z.Z.Z.Z.Z.Z.Z.Z.5 < : A.A.A.A.A.A.A.A.",
"A.A.A.A.A.A.A.O.X.Z.Z.Z.Z.Z.Z.Z.Z.Z.Z.Z.Z.Z.Z.Z.Z.Z.Z.Z.Z.Z.Z.Z.Z.Z.Z.Z.Z.Z.Z.% $ A.A.A.A.A.A.A.",
"A.A.A.A.A. .X. .Z.Z.Z.Z.Z.Z.Z.Z.Z.Z.Z.Z.Z.Z.Z.Z.Z.Z.Z.Z.Z.Z.Z.Z.Z.Z.Z.Z.Z.Z.Z.Z.# O o A.A.A.A.A.",
"A.A.A.A.) [ Z.Z.Z.Z.Z.Z.Z.Z.Z.Z.Z.Z.Z.Z.Z.Z.Z.Z.Z.Z.Z.Z.Z.Z.Z.Z.Z.Z.Z.Z.Z.Z.Z.Z.Z.Z..   A.A.A.A.",
"A.A.A.A./ Z.Z.Z.Z.Z.Z.Z.Z.Z.Z.Z.Z.Z.Z.Z.Z.Z.Z.Z.Z.Z.Z.Z.Z.Z.Z.Z.Z.Z.Z.Z.Z.Z.Z.Z.Z.Z.Z.  A.A.A.A.",
"A.A.A.! R Z.Z.Z.Z.Z.Z.Z.Z.Z.Z.Z.Z.Z.Z.Z.Z.Z.Z.Z.Z.Z.Z.Z.Z.Z.Z.Z.Z.Z.Z.Z.Z.Z.Z.Z.Z.Z.M.    A.A.A.",
"A.A.Y Y Z.Z.Z.Z.Z.Z.Z.Z.Z.Z.Z.Z.Z.Z.Z.Z.Z.Z.D D D D Z.Z.Z.Z.Z.Z.Z.Z.Z.Z.Z.Z.Z.Z.Z.Z.M.k.    A.A.",
"A.A.K Z.Z.Z.Z.Z.Z.Z.Z.Z.Z.Z.Z.Z.Z.Z.Z.Z.D D D D D D D D Z.Z.Z.Z.Z.Z.Z.Z.Z.Z.Z.Z.Z.Z.Z.x.r.  A.A.",
"A.b M Z.Z.Z.Z.Z.Z.Z.Z.Z.Z.Z.Z.Z.Z.Z.Z.D D D D D D D D D D Z.Z.Z.Z.Z.Z.Z.Z.Z.Z.Z.Z.Z.Z.x.q.    A.",
"A.s Z.Z.Z.Z.Z.Z.Z.Z.Z.Z.Z.Z.Z.Z.Z.Z.D D D D D D D D D D D D Z.Z.Z.Z.Z.Z.Z.Z.Z.Z.Z.Z.Z.g.5. .  A.",
"A.w Z.Z.Z.Z.Z.Z.Z.Z.Z.Z.Z.Z.Z.Z.Z.Z.D D D D D D D D D D D D Z.Z.Z.Z.Z.Z.Z.Z.Z.Z.Z.Z.M.s.;.!   A.",
"A.5 Z.Z.Z.Z.Z.Z.Z.Z.Z.Z.Z.Z.Z.Z.Z.D D D D D D D D D D D D D D Z.Z.Z.Z.Z.Z.Z.Z.Z.Z.Z.Z.s.%.K   A.",
"A.: Z.Z.Z.Z.Z.Z.Z.Z.Z.Z.Z.Z.Z.Z.Z.D D D D D D D D D D D D D D Z.Z.Z.Z.Z.Z.Z.Z.Z.Z.Z.M.p.$.H   A.",
"A.: Z.Z.Z.Z.Z.Z.Z.Z.Z.Z.Z.Z.Z.Z.Z.D D D D D D D D D D D D D D Z.Z.Z.Z.Z.Z.Z.Z.Z.Z.Z.M.p.$.H   A.",
"A.: Z.Z.Z.Z.Z.Z.Z.Z.Z.Z.Z.Z.Z.Z.Z.D D D D D D D D D D D D D D Z.Z.Z.Z.Z.Z.Z.Z.Z.Z.Z.M.y.O.Z   A.",
"A.% Z.Z.Z.Z.Z.Z.Z.Z.Z.Z.Z.Z.Z.Z.Z.Z.D D D D D D D D D D D D Z.Z.Z.Z.Z.Z.Z.Z.Z.Z.Z.Z.m.r. .M   A.",
"A.+ Z.Z.Z.Z.Z.Z.Z.Z.Z.Z.Z.Z.Z.Z.Z.Z.D D D D D D D D D D D D Z.Z.Z.Z.Z.Z.Z.Z.Z.Z.Z.M.c.8./ k   A.",
"A.X Z.Z.Z.Z.Z.Z.Z.Z.Z.Z.Z.Z.Z.Z.Z.Z.Z.D D D D D D D D D D Z.Z.Z.Z.Z.Z.Z.Z.Z.Z.Z.Z.m.s.-.N w   A.",
"A.    m.M.M.M.Z.Z.Z.Z.Z.Z.Z.Z.Z.Z.Z.Z.Z.D D D D D D D D Z.Z.Z.Z.Z.Z.Z.Z.Z.Z.Z.Z.M.x.8.! t     A.",
"A.A.  s.k.c.M.Z.Z.Z.Z.Z.Z.Z.Z.Z.Z.Z.Z.Z.Z.Z.D D D D Z.Z.Z.Z.Z.Z.Z.Z.Z.Z.Z.Z.Z.Z.c.y.O.k <   A.A.",
"A.A.    y.k.c.M.Z.Z.Z.Z.Z.Z.Z.Z.Z.Z.Z.Z.Z.Z.Z.Z.Z.Z.Z.Z.Z.Z.Z.Z.Z.Z.Z.Z.Z.Z.M.m.s.;.Z 5     A.A.",
"A.A.A.    w.p.k.c.m.Z.Z.Z.Z.Z.Z.Z.Z.Z.Z.Z.Z.Z.Z.Z.Z.Z.Z.Z.Z.Z.Z.Z.Z.Z.Z.Z.M.c.s.>.Y 0     A.A.A.",
"A.A.A.A.  -.>.q.p.x.m.M.Z.Z.Z.Z.Z.Z.Z.Z.Z.Z.Z.Z.Z.Z.Z.Z.Z.Z.Z.Z.Z.Z.Z.M.m.k.r.-.K w <   A.A.A.A.",
"A.A.A.A.    ) X.;.w.s.x.m.M.Z.Z.Z.Z.Z.Z.Z.Z.Z.Z.Z.Z.Z.Z.Z.Z.Z.Z.Z.M.m.x.p.7.[ b < <     A.A.A.A.",
"A.A.A.A.A.      R X.>.w.s.k.c.m.M.M.Z.Z.Z.Z.Z.Z.Z.Z.Z.Z.Z.Z.Z.M.m.x.s.q.O.K i <       A.A.A.A.A.",
"A.A.A.A.A.A.A.    Z R [ %.5.q.p.g.x.m.M.M.Z.Z.Z.Z.Z.Z.Z.M.m.x.g.r.5.X.K s < <     A.A.A.A.A.A.A.",
"A.A.A.A.A.A.A.A.      z N K / O.;.7.w.p.g.c.M.Z.Z.Z.Z.M.c.s.q.-./ N i < <       A.A.A.A.A.A.A.A.",
"A.A.A.A.A.A.A.A.A.A.      t a k N K [ -.w.k.M.Z.Z.Z.M.c.p.>.) b 0 : <       A.A.A.A.A.A.A.A.A.A.",
"A.A.A.A.A.A.A.A.A.A.A.A.      , 0 a M ) 5.s.M.Z.Z.M.c.y.-.Y t <         A.A.A.A.A.A.A.A.A.A.A.A.",
"A.A.A.A.A.A.A.A.A.A.A.A.A.A.A.            x.Z.Z.Z.c.y.-.H 0       A.A.A.A.A.A.A.A.A.A.A.A.A.A.A.",
"A.A.A.A.A.A.A.A.A.A.A.A.A.A.A.A.A.A.A.A.  Z.Z.Z.c.y.-.H 0 <   A.A.A.A.A.A.A.A.A.A.A.A.A.A.A.A.A.",
"A.A.A.A.A.A.A.A.A.A.A.A.A.A.A.A.A.A.A.A.+ Z.Z.Z.p.%.H 0 < >   A.A.A.A.A.A.A.A.A.A.A.A.A.A.A.A.A.",
"A.A.A.A.A.A.A.A.A.A.A.A.A.A.A.A.A.A.A.t 2.Z.Z.g.%.Z 7 < >   A.A.A.A.A.A.A.A.A.A.A.A.A.A.A.A.A.A.",
"A.A.A.A.A.A.A.A.A.A.A.A.A.A.A.A.A.A.A.M Z.Z.c.O.z < < >   A.A.A.A.A.A.A.A.A.A.A.A.A.A.A.A.A.A.A.",
"A.A.A.A.A.A.A.A.A.A.A.A.A.A.A.A.A.A.K 3.Z.x.[ i < < >   A.A.A.A.A.A.A.A.A.A.A.A.A.A.A.A.A.A.A.A.",
"A.A.A.A.A.A.A.A.A.A.A.A.A.A.A.A.Y N 1.Z.r.K 7 < >     A.A.A.A.A.A.A.A.A.A.A.A.A.A.A.A.A.A.A.A.A.",
"A.A.A.A.A.A.A.A.A.A.A.A.A.A.z g <.Z.x.O.k >       A.A.A.A.A.A.A.A.A.A.A.A.A.A.A.A.A.A.A.A.A.A.A.",
"A.A.A.A.A.A.A.A.A.A.* : : * F Z.p.S         A.A.A.A.A.A.A.A.A.A.A.A.A.A.A.A.A.A.A.A.A.A.A.A.A.A.",
"A.A.A.A.A.A.A.A.A.A.A.              A.A.A.A.A.A.A.A.A.A.A.A.A.A.A.A.A.A.A.A.A.A.A.A.A.A.A.A.A.A.",
"A.A.A.A.A.A.A.A.A.A.A.A.A.A.A.A.A.A.A.A.A.A.A.A.A.A.A.A.A.A.A.A.A.A.A.A.A.A.A.A.A.A.A.A.A.A.A.A.",
"A.A.A.A.A.A.A.A.A.A.A.A.A.A.A.A.A.A.A.A.A.A.A.A.A.A.A.A.A.A.A.A.A.A.A.A.A.A.A.A.A.A.A.A.A.A.A.A.",
"A.A.A.A.A.A.A.A.A.A.A.A.A.A.A.A.A.A.A.A.A.A.A.A.A.A.A.A.A.A.A.A.A.A.A.A.A.A.A.A.A.A.A.A.A.A.A.A."
};
