/* XPM */
static char *magick[] = {
/* columns rows colors chars-per-pixel */
"48 48 103 2",
"   c Gray0",
".  c #00760f",
"X  c #00780f",
"o  c #007812",
"O  c #047a16",
"+  c #057b19",
"@  c #057c1a",
"#  c #d7101f",
"$  c #da1121",
"%  c #d81423",
"&  c #da2230",
"*  c #e8bf36",
"=  c #e7c039",
"-  c #eac33e",
";  c #efc53b",
":  c #efc63d",
">  c #eac445",
",  c #e8c653",
"<  c #ebc850",
"1  c #eac857",
"2  c #ecc951",
"3  c #ebc958",
"4  c #ebcc5f",
"5  c #f3ca43",
"6  c #f3cb44",
"7  c #f6cd58",
"8  c #eaca62",
"9  c #eccd61",
"0  c #eccd65",
"q  c #eed271",
"w  c #ecd076",
"e  c #ead17e",
"r  c #ecd37d",
"t  c #f0d063",
"y  c #f0d065",
"u  c #f0d165",
"i  c #fad877",
"p  c #fad878",
"a  c Gray74",
"s  c #c6dbb9",
"d  c #e8d181",
"f  c #ebd483",
"g  c #edd581",
"h  c #edd68a",
"j  c #efd88a",
"k  c #eed88d",
"l  c #ebd793",
"z  c #ead794",
"x  c #f5d782",
"c  c #f5d884",
"v  c #fbdc83",
"b  c #eedeaa",
"n  c #f0dfa0",
"m  c #fce095",
"M  c #fce195",
"N  c #efe0ad",
"B  c #f2e1a1",
"V  c #f0e0a5",
"C  c #f6e4a7",
"Z  c #f6e4a8",
"A  c #f0e2b2",
"S  c #f0e3b6",
"D  c #f2e4b2",
"F  c #f2e5b7",
"G  c #f2e6be",
"H  c #c8e0c6",
"J  c #cae3ce",
"K  c #c8e3d6",
"L  c #cbe7dd",
"P  c #cce8dd",
"I  c #f2e7c1",
"U  c #f0e7c7",
"Y  c #f1e8c9",
"T  c #f3eacc",
"R  c #f2ead1",
"E  c #f2ebd5",
"W  c #f4ecd0",
"Q  c #f4edd6",
"!  c #f5efd9",
"~  c #f4efdc",
"^  c #f7f2df",
"/  c #f8f0d5",
"(  c #fbf3da",
")  c #f5f0e0",
"_  c #f6f3e7",
"`  c #f5f2ea",
"'  c #f5f3ec",
"]  c #f7f4e9",
"[  c #f7f5ed",
"{  c #f8f3e2",
"}  c #f8f5e7",
"|  c #faf7ea",
" . c #f9f7ef",
".. c #fdf1f2",
"X. c #faf8f1",
"o. c #fdfaf2",
"O. c #fdfbf7",
"+. c #fbfbfa",
"@. c #fbfcfb",
"#. c #fbfdff",
"$. c #fcfbf9",
"%. c Gray100",
"&. c None",
/* pixels */
"&.&.&.&.&.&.&.&.&.&.&.&.&.&.&.&.&.&.&.&.&.&.&.&.&.&.&.&.&.&.&.&.&.&.&.&.&.&.&.&.&.&.&.&.&.&.&.&.",
"&.&.&.&.&.&.&.&.&.&.&.&.&.&.&.&.&.&.&.&.&.&.&.&.&.&.&.&.&.&.&.&.&.&.&.&.&.&.&.&.&.&.&.&.&.&.&.&.",
"&.&.&.&.&.&.&.&.&.&.&.&.&.&.&.                                    &.&.&.&.&.&.&.&.&.&.&.&.&.&.&.",
"&.&.&.&.&.&.&.&.&.&.&.&.        % % % % % % % % % % % % % % % %         &.&.&.&.&.&.&.&.&.&.&.&.",
"&.&.&.&.&.&.&.&.&.&.      % % % % % % % % % % % % % % % % % % % % % %       &.&.&.&.&.&.&.&.&.&.",
"&.&.&.&.&.&.&.&.      $ $ $ $ $ $ $ $ $ $ $ $ $ $ $ $ $ $ $ $ $ $ $ $ $ $       &.&.&.&.&.&.&.&.",
"&.&.&.&.&.&.&.    % % % % % % % % % % % % % % % % % % % % % % % % % % % % % %     &.&.&.&.&.&.&.",
"&.&.&.&.&.      % % % % % % % % % % % % % % % % % % % % % % % % % % % % % % % %       &.&.&.&.&.",
"&.&.&.&.    % % % % % % % % % % % % % % % % % % % % % % % % % % % % % % % % % % % %     &.&.&.&.",
"&.&.&.&.  % % % % % % % % % % % % % % % % % % % % % % % % % % % % % % % % % % % % % %   &.&.&.&.",
"&.&.&.    # # # # # # # # # # # # # # # # # # # # # # # # # # # # # # # # # # # # # #     &.&.&.",
"&.&.    & & & & & & & & & & & & & & & & & & & & & & & & & & & & & & & & & & & & & & & &     &.&.",
"&.&.  ....................................................................................  &.&.",
"&.    %.%.%.%.%.%.%.%.%.%.%.%.%.%.%.%.%.%.%.%.%.%.%.%.%.%.%.%.%.%.%.%.%.%.%.%.%.%.%.%.%.%.    &.",
"&.  %.%.%.%.%.%.%.%.%.%.%.%.%.%.%.%.%.%.#.%.@.g r +.%.#.%.%.%.%.%.%.%.%.%.%.%.%.%.%.%.%.%.%.  &.",
"&.  %.%.%.%.%.%.%.%.%.%.%.%.%.%.%.%.%.! 8 T %.k h %.W 8 Q %.%.%.%.%.%.%.%.%.%.%.%.%.%.%.%.%.  &.",
"&.  %.%.%.%.%.%.%.%.%.%.%.%.%.%.%.%.%.) 3 R %.%.%.%.E 1 ~ %.%.%.%.%.%.%.%.%.%.%.%.%.%.%.%.%.  &.",
"&.  %.%.%.%.%.%.%.%.%.%.%.%.%.%.%.} T $.%.%.%.o.o.%.%.%.$.T } %.%.%.%.%.%.%.%.%.%.%.%.%.%.%.  &.",
"&.  %.%.%.%.%.%.%.%.%.%.%.%.%.%.%.f * [ %.%./ l z W %.%.[ = e %.%.%.%.%.%.%.%.%.%.%.%.%.%.%.  &.",
"&.  %.%.%.%.%.%.%.%.%.%.%.%.%.%.%.^ U %.%.%.N d d b %.%.%.Y ^ %.%.%.%.%.%.%.%.%.%.%.%.%.%.%.  &.",
"&.  %.%.%.%.%.%.%.%.%.%.%.%.%.%.%.%.%.%.%.%.%.V n %.%.%.%.%.%.%.%.%.%.%.%.%.%.%.%.%.%.%.%.%.  &.",
"&.  %.%.%.%.%.%.%.%.%.%.%.%.%.%.I w _ %.%.%.%.F D %.%.%.%.] w G %.%.%.%.%.%.%.%.%.%.%.%.%.%.  &.",
"&.  %.%.%.%.%.%.%.%.%.%.%.%.%.%.S ,  .%.O.%.%.y t %.%.O.%.X., A %.%.%.%.%.%.%.%.%.%.%.%.%.%.  &.",
"&.    %.%.%.%.%.%.%.%.%.%.%.%.%.%.' | ( 9 y 6 t y 5 y 4 ( | ` %.%.%.%.%.%.%.%.%.%.%.%.%.%.    &.",
"&.&.  %.%.%.%.%.%.%.%.%.%.%.%.%.%.} 2 ; q 0 C k j Z 0 q : < { %.%.%.%.%.%.%.%.%.%.%.%.%.%.  &.&.",
"&.&.    %.%.%.%.%.%.%.%.%.%.%.%.%.%.o.| h - B > > B - g | o.%.%.%.%.%.%.%.%.%.%.%.%.%.%.    &.&.",
"&.&.&.    %.%.%.%.%.%.%.%.%.%.%.%.%.%.c 7 i v M M v p 7 x %.%.%.%.%.%.%.%.%.%.%.%.%.%.    &.&.&.",
"&.&.&.&.  J J J J J J J J J J J J J J s H K L P L L K H s J J J J J J J J J J J J J J   &.&.&.&.",
"&.&.&.&.    O O O O O O O O O O O O O @ + O O O O O O + @ O O O O O O O O O O O O O     &.&.&.&.",
"&.&.&.&.&.      . . . . . . . . . . . . . . . . . . . . . . . . . . . . . . . .       &.&.&.&.&.",
"&.&.&.&.&.&.&.    o o o o o o o o o o o o o o o o o o o o o o o o o o o o o o     &.&.&.&.&.&.&.",
"&.&.&.&.&.&.&.&.      o o o o o o o o o o o o o o o o o o o o o o o o o o       &.&.&.&.&.&.&.&.",
"&.&.&.&.&.&.&.&.&.&.      o o o o o o o o o o o o o o o o o o o o o o       &.&.&.&.&.&.&.&.&.&.",
"&.&.&.&.&.&.&.&.&.&.&.&.      o o o o o o o o o o o o o o o o o         &.&.&.&.&.&.&.&.&.&.&.&.",
"&.&.&.&.&.&.&.&.&.&.&.&.&.&.&.            X X X X X X X X X       &.&.&.&.&.&.&.&.&.&.&.&.&.&.&.",
"&.&.&.&.&.&.&.&.&.&.&.&.&.&.&.&.&.&.&.&.  o o o o o o o o o   &.&.&.&.&.&.&.&.&.&.&.&.&.&.&.&.&.",
"&.&.&.&.&.&.&.&.&.&.&.&.&.&.&.&.&.&.&.&.  o o o o o o o o o   &.&.&.&.&.&.&.&.&.&.&.&.&.&.&.&.&.",
"&.&.&.&.&.&.&.&.&.&.&.&.&.&.&.&.&.&.&.  o o o o o o o o o   &.&.&.&.&.&.&.&.&.&.&.&.&.&.&.&.&.&.",
"&.&.&.&.&.&.&.&.&.&.&.&.&.&.&.&.&.&.&.  o o o o o o o o   &.&.&.&.&.&.&.&.&.&.&.&.&.&.&.&.&.&.&.",
"&.&.&.&.&.&.&.&.&.&.&.&.&.&.&.&.&.&.  o o o o o o o o   &.&.&.&.&.&.&.&.&.&.&.&.&.&.&.&.&.&.&.&.",
"&.&.&.&.&.&.&.&.&.&.&.&.&.&.&.&.    o o o o o o o     &.&.&.&.&.&.&.&.&.&.&.&.&.&.&.&.&.&.&.&.&.",
"&.&.&.&.&.&.&.&.&.&.&.&.&.&.    o o o o o o       &.&.&.&.&.&.&.&.&.&.&.&.&.&.&.&.&.&.&.&.&.&.&.",
"&.&.&.&.&.&.&.&.&.&.        o o o o         &.&.&.&.&.&.&.&.&.&.&.&.&.&.&.&.&.&.&.&.&.&.&.&.&.&.",
"&.&.&.&.&.&.&.&.&.&.&.              &.&.&.&.&.&.&.&.&.&.&.&.&.&.&.&.&.&.&.&.&.&.&.&.&.&.&.&.&.&.",
"&.&.&.&.&.&.&.&.&.&.&.&.&.&.&.&.&.&.&.&.&.&.&.&.&.&.&.&.&.&.&.&.&.&.&.&.&.&.&.&.&.&.&.&.&.&.&.&.",
"&.&.&.&.&.&.&.&.&.&.&.&.&.&.&.&.&.&.&.&.&.&.&.&.&.&.&.&.&.&.&.&.&.&.&.&.&.&.&.&.&.&.&.&.&.&.&.&.",
"&.&.&.&.&.&.&.&.&.&.&.&.&.&.&.&.&.&.&.&.&.&.&.&.&.&.&.&.&.&.&.&.&.&.&.&.&.&.&.&.&.&.&.&.&.&.&.&.",
"&.&.&.&.&.&.&.&.&.&.&.&.&.&.&.&.&.&.&.&.&.&.&.&.&.&.&.&.&.&.&.&.&.&.&.&.&.&.&.&.&.&.&.&.&.&.&.&."
};
