/* XPM */
static char *magick[] = {
/* columns rows colors chars-per-pixel */
"48 48 220 2",
"   c Gray0",
".  c #0c0c0c",
"X  c #1b1b1b",
"o  c #272727",
"O  c #2d2d2d",
"+  c Gray18",
"@  c #313131",
"#  c Gray20",
"$  c #343434",
"%  c #373737",
"&  c #393939",
"*  c #3c3c3c",
"=  c Gray24",
"-  c #0a530d",
";  c #0c5e0e",
":  c #0d6610",
">  c #0e7211",
",  c #0f7812",
"<  c #107c13",
"1  c #107f13",
"2  c #400000",
"3  c #420000",
"4  c #450000",
"5  c #470000",
"6  c #4a0000",
"7  c #4d0000",
"8  c #4e0000",
"9  c #510000",
"0  c #530000",
"q  c #540000",
"w  c #560000",
"e  c #590000",
"r  c #5d0000",
"t  c #680000",
"y  c #690000",
"u  c #6b0000",
"i  c #710000",
"p  c #770000",
"a  c #7a0000",
"s  c #7b0000",
"d  c Gray25",
"f  c #434343",
"g  c Gray27",
"h  c #464646",
"j  c #4c4c4c",
"k  c #4e4e4e",
"l  c Gray32",
"z  c Gray33",
"x  c #5a5a5a",
"c  c #5d5d5d",
"v  c Gray38",
"b  c Gray39",
"n  c Gray40",
"m  c #676767",
"M  c Gray44",
"N  c #727272",
"B  c Gray45",
"V  c Gray47",
"C  c #7c7c7c",
"Z  c Gray50",
"A  c #108314",
"S  c #128d16",
"D  c #129216",
"F  c #139717",
"G  c #149c18",
"H  c #14a119",
"J  c #15a419",
"K  c #15a71a",
"L  c #16ae1b",
"P  c #17b31b",
"I  c #17b91c",
"U  c #18c11e",
"Y  c #19c41e",
"T  c #19c81f",
"R  c #1acb1f",
"E  c #1acc1f",
"W  c #1acd1f",
"Q  c #1ace20",
"!  c #1bd320",
"~  c #1bd420",
"^  c #1bd821",
"/  c #1bd921",
"(  c #1cdb21",
")  c #1cdb22",
"_  c #1cdd22",
"`  c #1cde22",
"'  c #1dde23",
"]  c #1fde25",
"[  c #20df25",
"{  c #22df28",
"}  c #27e02c",
"|  c #2ae030",
" . c #2ce032",
".. c #2de032",
"X. c #30e135",
"o. c #31e137",
"O. c #35e23a",
"+. c #3ae23f",
"@. c #41e346",
"#. c #45e44a",
"$. c #49e54e",
"%. c #4ce551",
"&. c #50e654",
"*. c #51e656",
"=. c #55e659",
"-. c #58e75c",
";. c #60e864",
":. c #6dea71",
">. c #77eb7a",
",. c #810000",
"<. c #830000",
"1. c #840000",
"2. c #860000",
"3. c #870000",
"4. c #8d0000",
"5. c #8f0000",
"6. c #920000",
"7. c #950000",
"8. c #960000",
"9. c #9b0000",
"0. c #9c0000",
"q. c #9f0000",
"w. c #a10000",
"e. c #a40000",
"r. c #a50000",
"t. c #aa0000",
"y. c #ad0000",
"u. c #ae0000",
"i. c #b00000",
"p. c #b30000",
"a. c #b40000",
"s. c #b60000",
"d. c #b70000",
"f. c #ba0000",
"g. c #bc0000",
"h. c #bd0000",
"j. c #c00000",
"k. c #c30000",
"l. c #c50000",
"z. c #c60000",
"x. c #c90000",
"c. c #cb0000",
"v. c #cc0000",
"b. c #cf0000",
"n. c #d10000",
"m. c #d20000",
"M. c #d50000",
"N. c #d70000",
"B. c #d80000",
"V. c #da0000",
"C. c #db0000",
"Z. c #dd0000",
"A. c #de0000",
"S. c #e10000",
"D. c #e30000",
"F. c #e60000",
"G. c #e90000",
"H. c #ea0000",
"J. c #ec0000",
"K. c #f00000",
"L. c #f20000",
"P. c #f30000",
"I. c #f50000",
"U. c #f60000",
"Y. c #f80000",
"T. c #f90000",
"R. c #fb0000",
"E. c #fc0000",
"W. c #fe0000",
"Q. c Red",
"!. c #ff0101",
"~. c #ff0404",
"^. c #ff0606",
"/. c #ff0707",
"(. c #ff0909",
"). c #ff0f0f",
"_. c #ff1010",
"`. c #ff1c1c",
"'. c #ff1e1e",
"]. c #ff1f1f",
"[. c #ff2424",
"{. c #ff2b2b",
"}. c #ff3030",
"|. c #ff3636",
" X c #ff3f3f",
".X c #ff4040",
"XX c #ff5757",
"oX c #ff5a5a",
"OX c #ff6161",
"+X c #ff6464",
"@X c #ff7676",
"#X c #848484",
"$X c Gray52",
"%X c #888888",
"&X c Gray54",
"*X c #8b8b8b",
"=X c #8d8d8d",
"-X c #8e8e8e",
";X c Gray57",
":X c Gray58",
">X c Gray59",
",X c #979797",
"<X c Gray60",
"1X c Gray61",
"2X c #9d9d9d",
"3X c #9f9f9f",
"4X c #a0a0a0",
"5X c Gray64",
"6X c #a5a5a5",
"7X c Gray65",
"8X c Gray66",
"9X c #a9a9a9",
"0X c Gray67",
"qX c #d8d8d8",
"wX c #eaeaea",
"eX c Gray95",
"rX c Gray99",
"tX c #fefefe",
"yX c Gray100",
"uX c None",
/* pixels */
"uXuXuXuXuXuXuXuXuXuXuXuXuXuXuXuXuXuXuXuXuXuXuXuXuXuXuXuXuXuXuXuXuXuXuXuXuXuXuXuXuXuXuXuXuXuXuXuX",
"uXuXuXuXuXuXuXuXuXuXuXuXuXuXuXuXuXuXuXuXuXuXuXuXuXuXuXuXuXuXuXuXuXuXuXuXuXuXuXuXuXuXuXuXuXuXuXuX",
"uXuXuXuXuXuXuXuXuXuXuXuXuXuXuXuXuXuXuXuXuXuXuXuXuXuXuXuXuXuXuXuXuXuXuXuXuXuXuXuXuXuXuXuXuXuXuXuX",
"uXuXuXuXuXuXuXuXuXuXuXuXuXuXuX4X2X:X;X=X=X=X=X=X=X=X=X=X=X%X#XC N uXuXuXuXuXuXuXuXuXuXuXuXuXuXuX",
"uXuXuXuXuXuXuXuXuXuXuX9X9X7X4X<XyXyXyXyXyXyXyXyXyXyXyXyXyXyXyXyXn b b x uXuXuXuXuXuXuXuXuXuXuXuX",
"uXuXuXuXuXuXuXuXuXuX9X7X4XyXyXyXyXyXyXyXyXyXyXyXyXyXyXyXyXyXyXyXyXyXyXz l k uXuXuXuXuXuXuXuXuXuX",
"uXuXuXuXuXuXuXuX9X9X4XyXyXyXyXyXyXyXyXyXyXyXyXyXyXyXyXyXyXyXyXyXyXyXyXyXyXh f = uXuXuXuXuXuXuXuX",
"uXuXuXuXuXuXuX9X4XyXyXyXyXyXyXyXyXyXyXyXyXyXyXyXyXyXyXyXyXyXyXyXyXyXyXyXyXyXyX& # uXuXuXuXuXuXuX",
"uXuXuXuXuX9X7X2XyXyXyXyXyXyXyXyXyXyXyXyXyXyXyXyXyXyXyXyXyXyXyXyXyXyXyXyXyXyXyXyXO o X uXuXuXuXuX",
"uXuXuXuX2X4XyXyXyXyXyXyXyXyXyXyXyXyXyXyXyXyXyXyXyXyXyXyXyXyXyXyXyXyXyXyXyXyXyXyXyXyX.   uXuXuXuX",
"uXuXuXuX:XyXyXyXyXyXyXyXyXyXyXyXyXyXyXyXyXyXyXyXyXyXyXyXyXyXyXyXyXyXyXyXyXyXyXyXyXyXyX  uXuXuXuX",
"uXuXuX:X%XyXyXyXyXyXyXyXyXyXyXyXyXyXyXyXyXyXyXyXyXyXyXyXyXyXyXyXyXyXyXyXyXyXyXyXyXyXyX    uXuXuX",
"uXuX=X%XyXyXyXyXyXyXyXyXyXyXyXyXyXyXyXyXyXyXyXyXyXyXyXyXyXyXyXyXyXyXyXyXyXyXyXyXyXyXyXwX    uXuX",
"uXuX#XyXyXyXyXyXyXyXyXyXyXyXyXyXyXyXyXyXyXyXyXyXyXyXyXyXyXyXyXyXyXyXyXyXyXyXyXyXyXyXyXeXqX  uXuX",
"uXN N >.-.O.{ ' ' ' ' ' ' ' ' ' ' ' ' ' ' ' ' ' ' ' ' ' ' ' ' ' ' ' ' ' ' ' ' ' ' ] [ ! I     uX",
"uXc :.;.@.} ' ' ' ' ' ' ' ' ' ' ' ' ' ' ' ' ' ' ' ' ' ' ' ' ' ' ' ' ' ' ' ' ' ' ' ' ' Q L S   uX",
"uXk ;.&.O.[ ' ' ' ' ' ' ' ' ' ' ' ' ' ' ' ' ' ' ' ' ' ' ' ' ' ' ' ' ' ' ' ' ' ' ' ' ' W J A   uX",
"uXf =.$.X.' ' ' ' ' ' ' ' ' ' ' ' ' ' ' ' ' ' ' ' ' ' ' ' ' ' ' ' ' ' ' ' ' ' ' ' ' ' W J 1   uX",
"uX= &.#. .' ' ' ' ' ' ' ' ' ' ' ' ' ' ' ' ' ' ' ' ' ' ' ' ' ' ' ' ' ' ' ' ' ' ' ' ' ' R H ,   uX",
"uX= &.#. .' ' ' ' ' ' ' ' ' ' ' ' ' ' ' ' ' ' ' ' ' ' ' ' ' ' ' ' ' ' ' ' ' ' ' ' ' ' R H ,   uX",
"uX= &.#. .' ' ' ' ' ' ' ' ' ' ' ' ' ' ' ' ' ' ' ' ' ' ' ' ' ' ' ' ' ' ' ' ' ' ' ' ' ' R H ,   uX",
"uX% %.@. .' ' ' ' ' ' ' ' ' ' ' ' ' ' ' ' ' ' ' ' ' ' ' ' ' ' ' ' ' ' ' ' ' ' ' ' ' ' R G >   uX",
"uXO @.+.| ' ' ' ' ' ' ' ' ' ' ' ' ' ' ' ' ' ' ' ' ' ' ' ' ' ' ' ' ' ' ' ' ' ' ' ' ' ) U D :   uX",
"uXX X.X.} ' ' ' ' ' ' ' ' ' ' ' ' ' ' ' ' ' ' ' ' ' ' ' ' ' ' ' ' ' ' ' ' ' ' ' ' ' ~ P 1 -   uX",
"uX    ) ) / ) ' ` ` ` ` ` ` ' ' ' ' ' ' ' ' ' ' ' ' ' ' ' ' ' ' ' ' ' ' ' ' ' ' ' / Y F ;     uX",
"uXuX  F.L.I.R.Q.Q.Q.Q.Q.Q.Q.Q.Q.Q.Q.Q.Q.Q.Q.Q.Q.Q.Q.Q.Q.Q.Q.Q.Q.Q.Q.Q.Q.Q.Q.Q.Q.R.J.l.3.4   uXuX",
"uXuX    D.J.R.Q.Q.Q.Q.Q.Q.Q.Q.Q.Q.Q.Q.Q.Q.Q.Q.Q.Q.Q.Q.Q.Q.Q.Q.Q.Q.Q.Q.Q.Q.Q.Q.Q.L.M.0.e     uXuX",
"uXuXuX    C.G.L.R.Q.Q.Q.Q.Q.Q.Q.Q.Q.Q.Q.Q.Q.Q.Q.Q.Q.Q.Q.Q.Q.Q.Q.Q.Q.Q.Q.Q.Q.R.L.C.t.t     uXuXuX",
"uXuXuXuX  g.x.C.G.I.Q.Q.Q.Q.Q.Q.Q.Q.Q.Q.Q.Q.Q.Q.Q.Q.Q.Q.Q.Q.Q.Q.Q.Q.Q.Q.Q.R.G.n.e.t 2   uXuXuXuX",
"uXuXuXuX    e.d.x.D.L.R.Q.Q.Q.Q.Q.Q.Q.Q.Q.Q.Q.Q.Q.Q.Q.Q.Q.Q.Q.Q.Q.Q.Q.R.L.A.k.8.r 2     uXuXuXuX",
"uXuXuXuXuX      9.d.n.D.J.R.R.Q.Q.Q.Q.Q.Q.Q.Q.Q.Q.Q.Q.Q.Q.Q.Q.Q.Q.R.L.D.x.e.p 4       uXuXuXuXuX",
"uXuXuXuXuXuXuX    3.0.p.x.C.G.L.R.Q.Q.Q.Q.Q.Q.Q.Q.Q.Q.Q.Q.Q.R.I.G.C.l.e.<.w 2     uXuXuXuXuXuXuX",
"uXuXuXuXuXuXuXuX      a 5.w.d.l.n.C.D.J.L.R.Q.Q.Q.Q.Q.Q.R.L.D.v.d.8.p 9 2       uXuXuXuXuXuXuXuX",
"uXuXuXuXuXuXuXuXuXuX      t p <.5.0.y.l.A.L.R.Q.Q.Q.Q.R.J.C.d.6.t 4 2       uXuXuXuXuXuXuXuXuXuX",
"uXuXuXuXuXuXuXuXuXuXuXuX      7 w t 3.p.M.L.Q.Q.Q.Q.Q.L.A.d.a 6         uXuXuXuXuXuXuXuXuXuXuXuX",
"uXuXuXuXuXuXuXuXuXuXuXuXuXuX              I././.Q.Q.I.D.d.a       uXuXuXuXuXuXuXuXuXuXuXuXuXuXuX",
"uXuXuXuXuXuXuXuXuXuXuXuXuXuXuXuXuXuXuXuX  )._./.Q.R.F.g.<.2   uXuXuXuXuXuXuXuXuXuXuXuXuXuXuXuXuX",
"uXuXuXuXuXuXuXuXuXuXuXuXuXuXuXuXuXuXuX% # }.`.(.I.F.k.3.4 2   uXuXuXuXuXuXuXuXuXuXuXuXuXuXuXuXuX",
"uXuXuXuXuXuXuXuXuXuXuXuXuXuXuXuXuXuXuXc XX.X`.R.A.f.3.4 2     uXuXuXuXuXuXuXuXuXuXuXuXuXuXuXuXuX",
"uXuXuXuXuXuXuXuXuXuXuXuXuXuXuXuXuXuX=XC +X|.Q.v.w.i 2 2     uXuXuXuXuXuXuXuXuXuXuXuXuXuXuXuXuXuX",
"uXuXuXuXuXuXuXuXuXuXuXuXuXuXuXuXuX2X:X@X XL.y.a 7 2 2     uXuXuXuXuXuXuXuXuXuXuXuXuXuXuXuXuXuXuX",
"uXuXuXuXuXuXuXuXuXuXuXuXuXuXuX:X2X%XOX`.x.<.7 2 2       uXuXuXuXuXuXuXuXuXuXuXuXuXuXuXuXuXuXuXuX",
"uXuXuXuXuXuXuXuXuXuXuXuXuXn #XV oX[.C.5.9 2         uXuXuXuXuXuXuXuXuXuXuXuXuXuXuXuXuXuXuXuXuXuX",
"uXuXuXuXuXuXuXuXuXuXh k k h {.Q.l.<.          uXuXuXuXuXuXuXuXuXuXuXuXuXuXuXuXuXuXuXuXuXuXuXuXuX",
"uXuXuXuXuXuXuXuXuXuXuX                uXuXuXuXuXuXuXuXuXuXuXuXuXuXuXuXuXuXuXuXuXuXuXuXuXuXuXuXuX",
"uXuXuXuXuXuXuXuXuXuXuXuXuXuXuXuXuXuXuXuXuXuXuXuXuXuXuXuXuXuXuXuXuXuXuXuXuXuXuXuXuXuXuXuXuXuXuXuX",
"uXuXuXuXuXuXuXuXuXuXuXuXuXuXuXuXuXuXuXuXuXuXuXuXuXuXuXuXuXuXuXuXuXuXuXuXuXuXuXuXuXuXuXuXuXuXuXuX",
"uXuXuXuXuXuXuXuXuXuXuXuXuXuXuXuXuXuXuXuXuXuXuXuXuXuXuXuXuXuXuXuXuXuXuXuXuXuXuXuXuXuXuXuXuXuXuXuX"
};
