/* XPM */
static char *magick[] = {
/* columns rows colors chars-per-pixel */
"46 43 245 2",
"   c #4e4e56",
".  c #595962",
"X  c #676772",
"o  c #00009e",
"O  c #0000a0",
"+  c #0000a1",
"@  c #0000a2",
"#  c #0000a4",
"$  c #0000a6",
"%  c #0000a8",
"&  c #0000ac",
"*  c #0000ad",
"=  c #0000af",
"-  c #0000b0",
";  c #0000b1",
":  c #0000b2",
">  c #0000b6",
",  c #0000b7",
"<  c #0000b8",
"1  c #0000ba",
"2  c #0000bb",
"3  c #0000bd",
"4  c #0000be",
"5  c #0000bf",
"6  c #0000c0",
"7  c #0000c2",
"8  c #0000c4",
"9  c #0000c7",
"0  c #0000c8",
"q  c #0000ca",
"w  c #0000cc",
"e  c #0000cd",
"r  c #0000ce",
"t  c #0000d3",
"y  c #0000d4",
"u  c #0000d5",
"i  c #0000d6",
"p  c #0000d7",
"a  c #0000db",
"s  c #0000dc",
"d  c #0000dd",
"f  c #0000df",
"g  c #0000e0",
"h  c #0000e4",
"j  c #0000e6",
"k  c #0000e7",
"l  c #0000e8",
"z  c #0000ea",
"x  c #0000eb",
"c  c #0000ec",
"v  c #0000ed",
"b  c #0000ee",
"n  c #0000ef",
"m  c #0000f0",
"M  c #0000f1",
"N  c #0000f4",
"B  c #0000f5",
"V  c #0000f6",
"C  c #0000f7",
"Z  c #0000f8",
"A  c #0000fa",
"S  c #0000fb",
"D  c #0000fd",
"F  c #0000fe",
"G  c Blue",
"H  c #0101ff",
"J  c #0303ff",
"K  c #0404ff",
"L  c #0606ff",
"P  c #0707ff",
"I  c #0909ff",
"U  c #0c0cff",
"Y  c #0d0dff",
"T  c #1010ff",
"R  c #1212ff",
"E  c #1616ff",
"W  c #1c1cff",
"Q  c #1e1eff",
"!  c #2121ff",
"~  c #2222ff",
"^  c #2424ff",
"/  c #2525ff",
"(  c #2828ff",
")  c #2b2bff",
"_  c #2d2dff",
"`  c #2e2eff",
"'  c #3131ff",
"]  c #3333ff",
"[  c #3434ff",
"{  c #3636ff",
"}  c #3737ff",
"|  c #3a3aff",
" . c #3c3cff",
".. c #3d3dff",
"X. c #4d4dac",
"o. c #5555b0",
"O. c #797984",
"+. c #7c7c87",
"@. c #5959c9",
"#. c #4040ff",
"$. c #4242ff",
"%. c #4343ff",
"&. c #4545ff",
"*. c #4848ff",
"=. c #4c4cff",
"-. c #4e4eff",
";. c #4f4fff",
":. c #5252ff",
">. c #5555ff",
",. c #5757ff",
"<. c #5858ff",
"1. c #5b5bff",
"2. c #5d5dff",
"3. c #5e5eff",
"4. c #6060ff",
"5. c #6363ff",
"6. c #6666ff",
"7. c #6969ff",
"8. c #6a6aff",
"9. c #6c6cff",
"0. c #6d6dff",
"q. c #7272ff",
"w. c #7878ff",
"e. c #7f7fff",
"r. c Gray62",
"t. c #9b9ba3",
"y. c #9d9da5",
"u. c Gray65",
"i. c #a5a5a8",
"p. c #a6a6a9",
"a. c #a6a6aa",
"s. c #a7a7ab",
"d. c #a8a8ac",
"f. c #a9a9ad",
"g. c #ababaf",
"h. c #aeaeae",
"j. c #acacb0",
"k. c #adadb0",
"l. c #adadb1",
"z. c #aeaeb2",
"x. c #b0b0b5",
"c. c #b1b1b6",
"v. c #b2b2b7",
"b. c #b7b7b7",
"n. c #b3b3b9",
"m. c #b6b6bc",
"M. c #b7b7bc",
"N. c Gray73",
"B. c #bbbbbb",
"V. c #b8b8bd",
"C. c #8181ff",
"Z. c #8484ff",
"A. c #8787ff",
"S. c #8a8aff",
"D. c #8b8bff",
"F. c #8e8eff",
"G. c #9191f6",
"H. c #9090ff",
"J. c #9191ff",
"K. c #9393ff",
"L. c #9999ff",
"P. c #9a9aff",
"I. c #9c9cff",
"U. c #9d9dff",
"Y. c #babac0",
"T. c #bcbcc2",
"R. c #bfbfc5",
"E. c #a0a0ff",
"W. c #a6a6ff",
"Q. c #a8a8f8",
"!. c #a9a9ff",
"~. c #ababff",
"^. c #acacff",
"/. c #bdbdfa",
"(. c #c1c1c1",
"). c #c2c2c7",
"_. c #c5c5c5",
"`. c #c3c3c8",
"'. c #c6c6ca",
"]. c #c6c6cb",
"[. c #c7c7cb",
"{. c Gray79",
"}. c #c8c8cc",
"|. c #c9c9ce",
" X c #cacacf",
".X c #cbcbcf",
"XX c #cdcdd1",
"oX c #cdcdd2",
"OX c #ceced2",
"+X c #cfcfd3",
"@X c #d2d2d2",
"#X c #d1d1d4",
"$X c #d2d2d5",
"%X c Gray83",
"&X c #d7d7d7",
"*X c #d4d4d8",
"=X c #d5d5d8",
"-X c #d5d5d9",
";X c #d6d6d9",
":X c #dadada",
">X c #dadadd",
",X c #dbdbde",
"<X c #dcdcde",
"1X c #dddddf",
"2X c Gray87",
"3X c #c8c8fa",
"4X c #cbcbfb",
"5X c #ccccfb",
"6X c #dedee1",
"7X c #e0e0e3",
"8X c Gray89",
"9X c #e1e1e4",
"0X c #e2e2e4",
"qX c #e2e2e5",
"wX c #e3e3e5",
"eX c #e3e3e6",
"rX c #e4e4e4",
"tX c #e5e5e7",
"yX c #e7e7e7",
"uX c #e5e5e8",
"iX c #e6e6e8",
"pX c #e7e7e9",
"aX c Gray91",
"sX c #e8e8ea",
"dX c #e9e9ea",
"fX c #e9e9eb",
"gX c #eaeaeb",
"hX c Gray92",
"jX c #eaeaec",
"kX c #efefef",
"lX c Gray94",
"zX c #f1f1f1",
"xX c Gray95",
"cX c #f3f3f3",
"vX c #f4f4f4",
"bX c #f6f6f6",
"nX c Gray97",
"mX c #f8f8f8",
"MX c Gray98",
"NX c #fbfbfb",
"BX c Gray99",
"VX c #fdfdfd",
"CX c #fefefe",
"ZX c Gray100",
"AX c None",
/* pixels */
"AXAXAXAXAXAXAXAXAXAXAXAXAXAXAXAXAXAXAXAXAXAXAXAXAXAXAXAXAXAXAXAXAXAXAXAXAXAXAXAXAXAXAXAXAXAX",
"AXAXAXAXAXAXAXAXAXAXAXAXAXAXAXAXAXAXAXAXAXAXAXAXAXAXAXAXAXAXAXAXAXAXAXAXAXAXAXAXAXAXAXAXAXAX",
"AXAXAXAXAXAXAXAXAXAXAXAXAXAXAXfXiXtXeXeX7XeXeXeX7XeXeX7XeXeX6X,X=XAXAXAXAXAXAXAXAXAXAXAXAXAX",
"AXAXAXAXAXAXAXAXAXAXAXAXfXfXfXfXW.U.H.F.F.F.F.F.F.F.F.F.F.S.C.q.=X=X=X#XAXAXAXAXAXAXAXAXAXAX",
"AXAXAXAXAXAXAXAXAXAXfXfXfXZXZXP.S.w.8.6.6.6.6.6.6.6.6.6.6.5.3.1.3.5.5.#X+X+XAXAXAXAXAXAXAXAX",
"AXAXAXAXAXAXAXAXfXjXfXZXZXZXZX1.&.' ! Q ! ! ! Q ! ! ! Q ! ! ! ) | *.=.=.=.+X|.[.AXAXAXAXAXAX",
"AXAXAXAXAXAXAXfXfX^.U.ZXZXZXZXW R P J J J J J J J J J J J J J I R Q ^ } %.%.| ].].AXAXAXAXAX",
"AXAXAXAXAXfXfXfXW.H.0.ZXZXZXZXJ J J J J J ZXZXZXZXZXZXZXZXZXZXZXZXZXZXZXZXZXZXZX].].).AXAXAX",
"AXAXAXAXtXiX~.U.e.>.` ZXZXZXZXJ J J J J J ZXZXZXZXZXZXZXZXZXZXZXZXZXZXZXZXZXZXZXZXZXY.R.AXAX",
"AXAXAXAXeXP.H.0.%.! U ZXZXZXZXJ J J J J J ZXZXZXZXZXZXZXZXZXZXZXZXZXZXZXZXZXZXZXZXZXbXY.AXAX",
"AXAXAXeXeXZXZXZXZXZXZXZXZXZXZXZXZXZXZXZXZXJ J J J J J J J J J J J J J J J J J P U J N T.=XAX",
"AXAXeXeXZXZXZXZXZXZXZXZXZXZXZXZXZXZXZXZXZXJ J J J J J J J J J J J J J J J J J J J J J ^ =X,X",
"AXAX7XZXZXZXZXZXZXZXZXZXZXZXZXZXZXZXZXZXZXJ J J J J J J J J J J J J J J J J J J J J U ` 1.t.",
"AX,X1XZXZXZXZXZXZXZXZXZXZXZXZXZXZXZXZXZXZXJ J J J J J J J J J J J J J J J J J J J J U Q ' O.",
"AX=X0.6. .R J J J J J ZXZXZXZXJ J J J J J ZXZXZXZXZXZXZXZXZXZXZXZXZXZXZXZXZXZXZXZXZXZXZXZXzX",
"AX+X>.=.^ P J J J J J ZXZXZXZXJ J J J J J ZXZXZXZXZXZXZXZXZXZXZXZXZXZXZXZXZXZXZXZXZXZXZXZXfX",
"AX|.%.| R J J J J J J ZXZXZXZXJ J J J J J ZXZXZXZXZXZXZXZXZXZXZXZXZXZXZXZXZXZXZXZXZXZXZXZXfX",
"AX|. .' R J J J J J J ZXZXZXZXJ J J J J J J J J J J J J J J J J J J J J J J J J J J J J J b ",
"AX|. .' R J J J J J J ZXZXZXZXJ J J J J J J J J J J J J J J J J J J J J J J J J J J J J J l ",
"AX|. .' R J J J J J J ZXZXZXZXJ J J J J J J J J J J J J J J J J J J J J J J J J J J J J J l ",
"AX|.} ` U J J J J J J ZXZXZXZXJ J J J J J J J J J J J J J J J J J J J J J J J J J J J J J l ",
"AX`.ZXZXZXZXZXZXZXZXZXZXZXZXZXZXZXZXZXZXZXZXZXZXZXZXZXZXZXZXZXZXZXZXZXZXZXZXZXZXZXZXZXZXZXfX",
"AXT.ZXZXZXZXZXZXZXZXZXZXZXZXZXZXZXZXZXZXZXZXZXZXZXZXZXZXZXZXZXZXZXZXZXZXZXZXZXZXZXZXBXMXbXtX",
"AXm.m.zXbXMXBXZXZXZXZXZXZXZXZXZXZXZXZXZXZXZXZXZXZXZXZXZXZXZXZXZXZXZXZXZXZXZXZXZXBXMXkXeX1X. ",
"AXAXn.k l N S J J J J J J J J J J J J J J J J J J J J J J J J J J J J J J J J J S b p 5 ,   ",
"AXAXc.c.g b S J J J J J J J J J J J J J J J J J J J J J J J J J J J J J J J J J N d ; o o.l.",
"AXAXAXc.c.k M N S J J J J J J J J J J J J J J J J J J J J J J J J J J J J J S N g 5 o d.d.AX",
"AXAXAXAXc.p p g b N J J J J J J J J J J J J J J J J J J J J J J J J J J J S l p 2 o o d.AXAX",
"AXAXAXAXc.l.N.(.&XtXbXMXZXZXZXZXZXZXZXZXZXZXZXZXZXZXZXZXZXZXZXZXZXZXZXMXbX7X{.u.r.r.d.d.AXAX",
"AXAXAXAXAXd.d.d.N.{.:XaXzXMXZXZXZXZXZXZXZXZXZXZXZXZXZXZXZXZXZXZXZXMXvXaX&Xb.r.r.d.d.d.AXAXAX",
"AXAXAXAXAXAXAXd.d.h.b._.&XtXzXMXMXZXZXZXZXZXZXZXZXZXZXZXZXZXMXbXkXrX@XN.r.r.r.d.d.AXAXAXAXAX",
"AXAXAXAXAXAXAXAXd.p.p.$ ; 5 r d k b b M N S J J J J J J S N l p 9 ; o o o d.d.d.AXAXAXAXAXAX",
"AXAXAXAXAXAXAXAXAXAXp.p.p.o $ = , 2 6 r d M S J J J J S M a 5 O o o o d.d.d.AXAXAXAXAXAXAXAX",
"AXAXAXAXAXAXAXAXAXAXAXAXp.p.p.X.o o o % q l S J J J J N g 2 o o d.d.d.d.AXAXAXAXAXAXAXAXAXAX",
"AXAXAXAXAXAXAXAXAXAXAXAXAXAXAXp.p.p.p.p.c.N P P J J S l q o d.d.d.AXAXAXAXAXAXAXAXAXAXAXAXAX",
"AXAXAXAXAXAXAXAXAXAXAXAXAXAXAXAXAXAXAXAXV.Q ! U J S M p % o d.AXAXAXAXAXAXAXAXAXAXAXAXAXAXAX",
"AXAXAXAXAXAXAXAXAXAXAXAXAXAXAXAXAXAXAXAX+X=.} R S M p = o o.d.AXAXAXAXAXAXAXAXAXAXAXAXAXAXAX",
"AXAXAXAXAXAXAXAXAXAXAXAXAXAXAXAXAXAXAX1XQ.8.} J l t = o o.d.AXAXAXAXAXAXAXAXAXAXAXAXAXAXAXAX",
"AXAXAXAXAXAXAXAXAXAXAXAXAXAXAXAXAXAXAXeXA.>.P d 6 O o o.d.AXAXAXAXAXAXAXAXAXAXAXAXAXAXAXAXAX",
"AXAXAXAXAXAXAXAXAXAXAXAXAXAXAXAXAXAXiX/.8.J 9 $ o o o.d.AXAXAXAXAXAXAXAXAXAXAXAXAXAXAXAXAXAX",
"AXAXAXAXAXAXAXAXAXAXAXAXAXAXAXAXjXjX4XA.^ r O o o.d.d.AXAXAXAXAXAXAXAXAXAXAXAXAXAXAXAXAXAXAX",
"AXAXAXAXAXAXAXAXAXAXAXAXAXAXfXjX5X~.H.:.M @.l.l.l.AXAXAXAXAXAXAXAXAXAXAXAXAXAXAXAXAXAXAXAXAX",
"AXAXAXAXAXAXAXAXAXAXiXiXiXfX4X~.P.G.y.+.X V.AXAXAXAXAXAXAXAXAXAXAXAXAXAXAXAXAXAXAXAXAXAXAXAX"
};
