/* XPM */
static char *magick[] = {
/* columns rows colors chars-per-pixel */
"48 48 255 2",
"   c Gray0",
".  c #0c0c0c",
"X  c #161616",
"o  c #1b1b1b",
"O  c #272727",
"+  c #2a2a2a",
"@  c Gray19",
"#  c #373737",
"$  c #393939",
"%  c #3c3c3c",
"&  c #3f3f3f",
"*  c #000049",
"=  c #000062",
"-  c #00006c",
";  c #000073",
":  c #00007d",
">  c #400000",
",  c #440000",
"<  c #4e0000",
"1  c #510000",
"2  c #570000",
"3  c #5a0000",
"4  c #620000",
"5  c #6a0000",
"6  c #740000",
"7  c #7b0000",
"8  c #7e0000",
"9  c #404000",
"0  c #424200",
"q  c #505000",
"w  c #595900",
"e  c #5d5d00",
"r  c #636300",
"t  c #6d6d00",
"y  c #727200",
"u  c #757500",
"i  c #787800",
"p  c #414141",
"a  c #464646",
"s  c #494949",
"d  c #515151",
"f  c Gray33",
"g  c #585858",
"h  c #606060",
"j  c Gray39",
"k  c #676767",
"l  c Gray43",
"z  c Gray46",
"x  c #797979",
"c  c #000080",
"v  c #00008e",
"b  c #000092",
"n  c #00009b",
"m  c #0000a1",
"M  c #0000a5",
"N  c #0000b6",
"B  c #0000b9",
"V  c #0000be",
"C  c #0000cd",
"Z  c #0000d1",
"A  c #0000da",
"S  c #0000de",
"D  c #0000e2",
"F  c #0000e7",
"G  c #0000ea",
"H  c #0000ec",
"J  c #0000ef",
"K  c #0000f2",
"L  c #0000f6",
"P  c #0000f8",
"I  c #0000f9",
"U  c #0000fb",
"Y  c #0000fc",
"T  c #0000fe",
"R  c Blue",
"E  c #0101ff",
"W  c #0303ff",
"Q  c #0404ff",
"!  c #0606ff",
"~  c #0909ff",
"^  c #0a0aff",
"/  c #0e0eff",
"(  c #1010ff",
")  c #1313ff",
"_  c #1818ff",
"`  c #1b1bff",
"'  c #1c1cff",
"]  c #1e1eff",
"[  c #2222ff",
"{  c #2424ff",
"}  c #2727ff",
"|  c #2b2bff",
" . c #3030ff",
".. c #3333ff",
"X. c #3434ff",
"o. c #3737ff",
"O. c #3a3aff",
"+. c #3d3dff",
"@. c #4242ff",
"#. c #4646ff",
"$. c #4848ff",
"%. c #4b4bff",
"&. c #4c4cff",
"*. c #5151ff",
"=. c #5555ff",
"-. c #5a5aff",
";. c #6060ff",
":. c #6363ff",
">. c #6464ff",
",. c #6c6cff",
"<. c #6f6fff",
"1. c #7a7aff",
"2. c #7e7eff",
"3. c #7f7fff",
"4. c #810000",
"5. c #860000",
"6. c #890000",
"7. c #920000",
"8. c #960000",
"9. c #9f0000",
"0. c #a20000",
"q. c #a70000",
"w. c #aa0000",
"e. c #ad0000",
"r. c #b40000",
"t. c #ba0000",
"y. c #bd0000",
"u. c #c30000",
"i. c #ca0000",
"p. c #cf0000",
"a. c #d50000",
"s. c #d80000",
"d. c #dd0000",
"f. c #e00000",
"g. c #e30000",
"h. c #e60000",
"j. c #ea0000",
"k. c #ed0000",
"l. c #ef0000",
"z. c #f10000",
"x. c #f50000",
"c. c #f60000",
"v. c #f80000",
"b. c #f90000",
"n. c #fb0000",
"m. c #fc0000",
"M. c #fe0000",
"N. c Red",
"B. c #ff0101",
"V. c #ff0303",
"C. c #ff0404",
"Z. c #ff0707",
"A. c #ff0a0a",
"S. c #ff0d0d",
"D. c #ff0f0f",
"F. c #ff1010",
"G. c #ff1212",
"H. c #ff1616",
"J. c #ff1919",
"K. c #ff1b1b",
"L. c #ff1c1c",
"P. c #ff2222",
"I. c #ff2424",
"U. c #ff2828",
"Y. c #ff2b2b",
"T. c #ff3333",
"R. c #ff3535",
"E. c #ff3c3c",
"W. c #ff4343",
"Q. c #ff4a4a",
"!. c #ff5858",
"~. c #ff5a5a",
"^. c #ff7070",
"/. c #8a8a00",
"(. c #8d8d00",
"). c #989800",
"_. c #9b9b00",
"`. c #9c9c00",
"'. c #a1a100",
"]. c #a8a800",
"[. c #adad00",
"{. c #b2b200",
"}. c #bfbf00",
"|. c #c5c500",
" X c #caca00",
".X c #cece00",
"XX c #d2d200",
"oX c #dbdb00",
"OX c #e3e300",
"+X c #e7e700",
"@X c #e9e900",
"#X c #ecec00",
"$X c #f0f000",
"%X c #f3f300",
"&X c #f5f500",
"*X c #f8f800",
"=X c #f9f900",
"-X c #fbfb00",
";X c #fcfc00",
":X c #fefe00",
">X c Yellow",
",X c #ffff01",
"<X c #ffff03",
"1X c #ffff07",
"2X c #ffff09",
"3X c #ffff0a",
"4X c #ffff0e",
"5X c #ffff14",
"6X c #ffff19",
"7X c #ffff21",
"8X c #ffff26",
"9X c #ffff28",
"0X c #ffff31",
"qX c #ffff33",
"wX c #ffff37",
"eX c #ffff39",
"rX c #ffff3e",
"tX c #ffff4b",
"yX c #ffff55",
"uX c #ffff5d",
"iX c #ffff60",
"pX c #ffff63",
"aX c #ffff67",
"sX c #ffff69",
"dX c #ffff72",
"fX c #ffff76",
"gX c #ffff7c",
"hX c #818181",
"jX c #848484",
"kX c #888888",
"lX c #8b8b8b",
"zX c #8d8d8d",
"xX c #8e8e8e",
"cX c Gray57",
"vX c #939393",
"bX c #979797",
"nX c #9a9a9a",
"mX c #9d9d9d",
"MX c #9f9f9f",
"NX c #a0a0a0",
"BX c Gray64",
"VX c Gray65",
"CX c Gray66",
"ZX c #8181ff",
"AX c #8787ff",
"SX c #8a8aff",
"DX c #8e8eff",
"FX c #9292ff",
"GX c #9494ff",
"HX c #9b9bff",
"JX c #ffff81",
"KX c #ffff82",
"LX c #ffff87",
"PX c #ffff8d",
"IX c None",
/* pixels */
"IXIXIXIXIXIXIXIXIXIXIXIXIXIXIXIXIXIXIXIXIXIXIXIXIXIXIXIXIXIXIXIXIXIXIXIXIXIXIXIXIXIXIXIXIXIXIXIX",
"IXIXIXIXIXIXIXIXIXIXIXIXIXIXIXIXIXIXIXIXIXIXIXIXIXIXIXIXIXIXIXIXIXIXIXIXIXIXIXIXIXIXIXIXIXIXIXIX",
"IXIXIXIXIXIXIXIXIXIXIXIXIXIXIXIXIXIXIXIXIXIXIXIXIXIXIXIXIXIXIXIXIXIXIXIXIXIXIXIXIXIXIXIXIXIXIXIX",
"IXIXIXIXIXIXIXIXIXIXIXIXIXIXIXBXMXbXvXxXxXxXxXxXxXxXxXxXxXlXhXx l IXIXIXIXIXIXIXIXIXIXIXIXIXIXIX",
"IXIXIXIXIXIXIXIXIXIXIXIXVXVXBXMXGXPXLXKXKXKXgXKXKXKXKXKXKXgXfX^.k h h g IXIXIXIXIXIXIXIXIXIXIXIX",
"IXIXIXIXIXIXIXIXIXIXCXVXBXHXFXAX1.dXsXpXpXpXpXpXpXpXpXpXpXpXuX~.~.~.~.f d s IXIXIXIXIXIXIXIXIXIX",
"IXIXIXIXIXIXIXIXCXCXBXHXDX3.<.-.$.rXwXqXqXqXqXqXqXqXqX9XqXqXqXR.E.W.Q.Q.Q.a p & IXIXIXIXIXIXIXIX",
"IXIXIXIXIXIXIXCXVXHXDX1.:.&.o.{ ` 5X4X3X3X3X3X3X3X3X3X3X1X3X4XG.K.P.U.R.E.E.E.# @ IXIXIXIXIXIXIX",
"IXIXIXIXIXBXVXBXGX3.>.$. .' ) ~ ! >X>X>X>X>X>X>X>X>X>X>X>X>X>XV.C.A.S.K.I.U.T.R.@ O o IXIXIXIXIX",
"IXIXIXIXnXMXHXSX<.*.o.' / ! ! W W >X>X>X>X>X>X>X>X>X>X>X>X>X>XV.V.V.C.C.S.H.P.U.U.L..   IXIXIXIX",
"IXIXIXIXbXFXZX>.@.{ ) ~ W W W W W >X>X>X>X>X>X>X>X>X>X>X>X>X>XV.V.V.V.V.C.C.G.K.K.G.V.  IXIXIXIX",
"IXIXIXvXxX3.:.O.' / ! W W W W W W >X>X>X>X>X>X>X>X>X>X>X>X>X>XV.V.V.V.V.V.V.C.S.S.A.b.    IXIXIX",
"IXIXlXlX3.:.+.' ~ ! W W W W W W W >X>X>X>X>X>X>X>X>X>X>X>X>X>XV.V.V.V.V.V.V.V.V.C.C.b.j.    IXIX",
"IXIXjX3.<.$.{ / W W W W W W W W W >X>X>X>X>X>X>X>X>X>X>X>X>X>XV.V.V.V.V.V.V.V.V.V.V.V.k.a.  IXIX",
"IXz z <.=. .) ! W W W W W W W W W >X>X>X>X>X>X>X>X>X>X>X>X>X>XV.V.V.V.V.V.V.V.V.V.V.V.k.p.    IX",
"IXh :.-.+.` ~ W W W W W W W W W W >X>X>X>X>X>X>X>X>X>X>X>X>X>XV.V.V.V.V.V.V.V.V.V.V.V.h.u.0.  IX",
"IXd *.#.| / W W W W W W W W W W W >X>X>X>X>X>X>X>X>X>X>X>X>X>XV.V.V.V.V.V.V.V.V.V.V.b.g.t.7.  IX",
"IXa #.O.[ ! W W W W W W W W W W W >X>X>X>X>X>X>X>X>X>X>X>X>X>XV.V.V.V.V.V.V.V.V.V.V.b.g.r.5.  IX",
"IX& +.o.` ! W W W W W W W W W W W >X>X>X>X>X>X>X>X>X>X>X>X>X>XV.V.V.V.V.V.V.V.V.V.V.b.d.e.4.  IX",
"IX& +. .' ! W W W W W W W W W W W >X>X>X>X>X>X>X>X>X>X>X>X>X>XV.V.V.V.V.V.V.V.V.V.V.b.d.e.4.  IX",
"IX& O.| ` ! W W W W W W W W W W W >X>X>X>X>X>X>X>X>X>X>X>X>X>XV.V.V.V.V.V.V.V.V.V.V.c.d.w.8   IX",
"IX#  .| ` W W W W W W W W W W W W >X>X>X>X>X>X>X>X>X>X>X>X>X>XV.V.V.V.V.V.V.V.V.V.V.c.a.0.6   IX",
"IX+ | [ ) W W W W W W W W W W W W >X>X>X>X>X>X>X>X>X>X>X>X>X>XV.V.V.V.V.V.V.V.V.V.b.z.i.8.5   IX",
"IXX ) ) ! W W W W W W W W W W W W >X>X>X>X>X>X>X>X>X>X>X>X>X>XV.V.V.V.V.V.V.V.V.V.c.g.r.7 1   IX",
"IX    L U U U W W W W W W W W W W >X>X>X>X>X>X>X>X>X>X>X>X>X>XV.V.V.V.V.V.V.V.V.b.k.i.7.2     IX",
"IXIX  D G K U W W W W W W W W W W >X>X>X>X>X>X>X>X>X>X>X>X>X>XV.V.V.V.V.V.V.V.b.z.s.w.5 >   IXIX",
"IXIX    A F K U W W W W W W W W W >X>X>X>X>X>X>X>X>X>X>X>X>X>XV.V.V.V.V.V.V.b.c.g.t.8 ,     IXIX",
"IXIXIX    Z S G K L W W W W W W W >X>X>X>X>X>X>X>X>X>X>X>X>X>XV.V.V.V.V.V.b.z.g.y.6.<     IXIXIX",
"IXIXIXIX  N V C S J L U W W W W W >X>X>X>X>X>X>X>X>X>X>X>X>X>XV.V.V.V.b.c.j.a.r.5.1 >   IXIXIXIX",
"IXIXIXIX    n M B Z D J L U W W W >X>X>X>X>X>X>X>X>X>X>X>X>X>XV.V.b.c.k.d.u.9.6 > >     IXIXIXIX",
"IXIXIXIXIX      v M V Z D J L U W >X>X>X>X>X>X>X>X>X>X>X>X>X-Xb.c.k.g.i.w.4.3 >       IXIXIXIXIX",
"IXIXIXIXIXIXIX    : v m N C A F J $X&X&X-X>X>X>X>X>X>X>X-X&X$Xg.a.u.q.5.4 > >     IXIXIXIXIXIXIX",
"IXIXIXIXIXIXIXIX      ; c b M N V  XXXoX+X$X-X>X>X>X>X-X$XOX.Xr.8.7 3 > >       IXIXIXIXIXIXIXIX",
"IXIXIXIXIXIXIXIXIXIX      = - ; : /._.{.XX@X-X>X>X>X-X&XOX|.`.6 < > >       IXIXIXIXIXIXIXIXIXIX",
"IXIXIXIXIXIXIXIXIXIXIXIX      * * w y _.|.+X-X>X>X>X-X@X X_.r >         IXIXIXIXIXIXIXIXIXIXIXIX",
"IXIXIXIXIXIXIXIXIXIXIXIXIXIXIX            &X1X1X>X>X#XXX'.r       IXIXIXIXIXIXIXIXIXIXIXIXIXIXIX",
"IXIXIXIXIXIXIXIXIXIXIXIXIXIXIXIXIXIXIXIX  5X6X4X>X$XoX[.t 9   IXIXIXIXIXIXIXIXIXIXIXIXIXIXIXIXIX",
"IXIXIXIXIXIXIXIXIXIXIXIXIXIXIXIXIXIXIXIX$ eX9X4X&XoX{.u 9 9   IXIXIXIXIXIXIXIXIXIXIXIXIXIXIXIXIX",
"IXIXIXIXIXIXIXIXIXIXIXIXIXIXIXIXIXIXIXh uXtX8X-XXX].y 9 9   IXIXIXIXIXIXIXIXIXIXIXIXIXIXIXIXIXIX",
"IXIXIXIXIXIXIXIXIXIXIXIXIXIXIXIXIXIXIXhXaXeX-X}.(.e 9 9   IXIXIXIXIXIXIXIXIXIXIXIXIXIXIXIXIXIXIX",
"IXIXIXIXIXIXIXIXIXIXIXIXIXIXIXIXIXIXvXdXrX#X'.t 9 9 9   IXIXIXIXIXIXIXIXIXIXIXIXIXIXIXIXIXIXIXIX",
"IXIXIXIXIXIXIXIXIXIXIXIXIXIXIXIXvXhXuX6X|.i 9 9 9     IXIXIXIXIXIXIXIXIXIXIXIXIXIXIXIXIXIXIXIXIX",
"IXIXIXIXIXIXIXIXIXIXIXIXIXIXx l yX7XoX(.q 9       IXIXIXIXIXIXIXIXIXIXIXIXIXIXIXIXIXIXIXIXIXIXIX",
"IXIXIXIXIXIXIXIXIXIX$ p p & 8X>X X/.        IXIXIXIXIXIXIXIXIXIXIXIXIXIXIXIXIXIXIXIXIXIXIXIXIXIX",
"IXIXIXIXIXIXIXIXIXIXIX              IXIXIXIXIXIXIXIXIXIXIXIXIXIXIXIXIXIXIXIXIXIXIXIXIXIXIXIXIXIX",
"IXIXIXIXIXIXIXIXIXIXIXIXIXIXIXIXIXIXIXIXIXIXIXIXIXIXIXIXIXIXIXIXIXIXIXIXIXIXIXIXIXIXIXIXIXIXIXIX",
"IXIXIXIXIXIXIXIXIXIXIXIXIXIXIXIXIXIXIXIXIXIXIXIXIXIXIXIXIXIXIXIXIXIXIXIXIXIXIXIXIXIXIXIXIXIXIXIX",
"IXIXIXIXIXIXIXIXIXIXIXIXIXIXIXIXIXIXIXIXIXIXIXIXIXIXIXIXIXIXIXIXIXIXIXIXIXIXIXIXIXIXIXIXIXIXIXIX"
};
