/* XPM */
static char *magick[] = {
/* columns rows colors chars-per-pixel */
"48 48 256 2",
"   c Gray0",
".  c #0c0c0c",
"X  c #161616",
"o  c #1b1b1b",
"O  c #272727",
"+  c #2a2a2a",
"@  c Gray18",
"#  c #313131",
"$  c #343434",
"%  c #373737",
"&  c Gray22",
"*  c Gray23",
"=  c #3c3c3c",
"-  c #3f3f3f",
";  c #000040",
":  c #000042",
">  c #000044",
",  c #00004e",
"<  c #000050",
"1  c #000057",
"2  c #00005a",
"3  c #00005d",
"4  c #000062",
"5  c #00006b",
"6  c #00006f",
"7  c #000071",
"8  c #000075",
"9  c #00007a",
"0  c #00007e",
"q  c #490000",
"w  c #590000",
"e  c #620000",
"r  c #6c0000",
"t  c #720000",
"y  c #750000",
"u  c #7e0000",
"i  c #414141",
"p  c #464646",
"a  c #494949",
"s  c #515151",
"d  c Gray33",
"f  c #585858",
"g  c #5f5f5f",
"h  c Gray38",
"j  c #676767",
"k  c #686868",
"l  c Gray42",
"z  c #6d6d6d",
"x  c Gray45",
"c  c #767676",
"v  c Gray47",
"b  c Gray",
"n  c #000084",
"m  c #00008a",
"M  c #00008d",
"N  c #00008f",
"B  c #000092",
"V  c #000096",
"C  c #00009a",
"Z  c #00009c",
"A  c #0000a1",
"S  c #0000a6",
"D  c #0000aa",
"F  c #0000ad",
"G  c #0000b1",
"H  c #0000b4",
"J  c #0000b7",
"K  c #0000ba",
"L  c #0000bd",
"P  c #0000bf",
"I  c #0000c2",
"U  c #0000c5",
"Y  c #0000c6",
"T  c #0000c9",
"R  c #0000cb",
"E  c #0000ce",
"W  c #0000d1",
"Q  c #0000d2",
"!  c #0000d5",
"~  c #0000d8",
"^  c #0000db",
"/  c #0000de",
"(  c #0000e0",
")  c #0000e1",
"_  c #0000e3",
"`  c #0000e4",
"'  c #0000e7",
"]  c #0000e9",
"[  c #0000ea",
"{  c #0000ec",
"}  c #0000ed",
"|  c #0000ef",
" . c #0000f0",
".. c #0000f2",
"X. c #0000f3",
"o. c #0000f5",
"O. c #0000f6",
"+. c #0000f8",
"@. c #0000f9",
"#. c #0000fb",
"$. c #0000fc",
"%. c #0000fe",
"&. c Blue",
"*. c #0101ff",
"=. c #0303ff",
"-. c #0404ff",
";. c #0606ff",
":. c #0707ff",
">. c #0909ff",
",. c #0a0aff",
"<. c #0c0cff",
"1. c #0d0dff",
"2. c #0f0fff",
"3. c #1010ff",
"4. c #1212ff",
"5. c #1313ff",
"6. c #1515ff",
"7. c #1818ff",
"8. c #1919ff",
"9. c #1b1bff",
"0. c #1c1cff",
"q. c #1f1fff",
"w. c #2121ff",
"e. c #2222ff",
"r. c #2424ff",
"t. c #2727ff",
"y. c #2828ff",
"u. c #2b2bff",
"i. c #3030ff",
"p. c #3131ff",
"a. c #3333ff",
"s. c #3434ff",
"d. c #3636ff",
"f. c #3939ff",
"g. c #3c3cff",
"h. c #4343ff",
"j. c #4848ff",
"k. c #4b4bff",
"l. c #5151ff",
"z. c #5555ff",
"x. c #5858ff",
"c. c #5a5aff",
"v. c #5d5dff",
"b. c #6060ff",
"n. c #6363ff",
"m. c #6464ff",
"M. c #6767ff",
"N. c #6c6cff",
"B. c #6f6fff",
"V. c #7070ff",
"C. c #7373ff",
"Z. c #7676ff",
"A. c #7979ff",
"S. c #7c7cff",
"D. c #7e7eff",
"F. c #7f7fff",
"G. c #810000",
"H. c #870000",
"J. c #890000",
"K. c #920000",
"L. c #9b0000",
"P. c #a40000",
"I. c #aa0000",
"U. c #ad0000",
"Y. c #b40000",
"T. c #b90000",
"R. c #bf0000",
"E. c #ca0000",
"W. c #d10000",
"Q. c #d50000",
"!. c #db0000",
"~. c #de0000",
"^. c #e20000",
"/. c #e70000",
"(. c #ef0000",
"). c #f30000",
"_. c #f60000",
"`. c #f90000",
"'. c #fb0000",
"]. c #fe0000",
"[. c Red",
"{. c #ff0101",
"}. c #ff0303",
"|. c #ff0404",
" X c #ff0606",
".X c #ff0909",
"XX c #ff0e0e",
"oX c #ff1212",
"OX c #ff1818",
"+X c #ff1b1b",
"@X c #ff1c1c",
"#X c #ff1e1e",
"$X c #ff2222",
"%X c #ff2727",
"&X c #ff2b2b",
"*X c #ff3131",
"=X c #ff3333",
"-X c #ff3434",
";X c #ff3737",
":X c #ff3a3a",
">X c #ff3d3d",
",X c #ff3f3f",
"<X c #ff4646",
"1X c #ff4c4c",
"2X c #ff5151",
"3X c #ff5b5b",
"4X c #ff6969",
"5X c #ff6c6c",
"6X c #ff7070",
"7X c #ff7b7b",
"8X c #ff7e7e",
"9X c #818181",
"0X c #848484",
"qX c #888888",
"wX c #8b8b8b",
"eX c #8d8d8d",
"rX c #8e8e8e",
"tX c Gray56",
"yX c #929292",
"uX c #959595",
"iX c #979797",
"pX c #9b9b9b",
"aX c #9d9d9d",
"sX c #9f9f9f",
"dX c #a0a0a0",
"fX c #a2a2a2",
"gX c Gray64",
"hX c #a5a5a5",
"jX c Gray65",
"kX c #abaaa5",
"lX c Gray66",
"zX c #a9a9a9",
"xX c Gray70",
"cX c #b6b6b6",
"vX c #8181ff",
"bX c #8a8aff",
"nX c #8e8eff",
"mX c #9494ff",
"MX c #9a9aff",
"NX c #9c9cff",
"BX c #ff8787",
"VX c #ff8d8d",
"CX c #ff9191",
"ZX c #ff9494",
"AX c #ff9a9a",
"SX c #c3c3c3",
"DX c #cbcbcb",
"FX c #dfdfdf",
"GX c #e7e7e7",
"HX c Gray94",
"JX c #f6f6f6",
"KX c #f8f8f8",
"LX c Gray99",
"PX c #fefefe",
"IX c Gray100",
"UX c None",
/* pixels */
"UXUXUXUXUXUXUXUXUXUXUXUXUXUXUXUXUXUXUXUXUXUXUXUXUXUXUXUXUXUXUXUXUXUXUXUXUXUXUXUXUXUXUXUXUXUXUXUX",
"UXUXUXUXUXUXUXUXUXUXUXUXUXUXUXUXUXUXUXUXUXUXUXUXUXUXUXUXUXUXUXUXUXUXUXUXUXUXUXUXUXUXUXUXUXUXUXUX",
"UXUXUXUXUXUXUXUXUXUXUXUXUXUXUXUXUXUXUXUXUXUXUXUXUXUXUXUXUXUXUXUXUXUXUXUXUXUXUXUXUXUXUXUXUXUXUXUX",
"UXUXUXUXUXUXUXUXUXUXUXUXUXUXUXgXpXiXyXrXrXrXrXrXrXrXrXrXrXwX9Xv z UXUXUXUXUXUXUXUXUXUXUXUXUXUXUX",
"UXUXUXUXUXUXUXUXUXUXUXlXjXjXgXsXZXVXBXIXvXvXvXvXvXvXvXvXvXA.Z.V.k h h f UXUXUXUXUXUXUXUXUXUXUXUX",
"UXUXUXUXUXUXUXUXUXUXlXjXgXAXCXBX7X6X4XIXn.n.n.n.n.n.n.n.n.n.v.c.c.c.c.d s a UXUXUXUXUXUXUXUXUXUX",
"UXUXUXUXUXUXUXUXlXlXgXMXIX8X5X3X1X,X;XIXi.i.i.i.i.i.i.i.i.i.i.d.g.h.j.j.j.p - - UXUXUXUXUXUXUXUX",
"UXUXUXUXUXUXUXlXkXNXnXA.IX1X;X%X+XoXXXIX>.>.>.>.>.>.>.>.>.>.1.5.8.w.y.d.g.g.g.% # UXUXUXUXUXUXUX",
"UXUXUXUXUXgXjXgXmXF.m.j.IX#XoX.X|.].].IX=.=.=.=.=.=.=.=.=.=.=.=.;.>.1.8.r.y.i.d.@ O o UXUXUXUXUX",
"UXUXUXUXpXsXMXbXB.l.d.0.IX.X|.].].].].IX=.=.=.=.=.=.=.=.=.=.=.=.=.=.=.;.1.6.w.y.r.0..   UXUXUXUX",
"UXUXUXUXiXmXvXm.h.r.6.>.IX].].].].].].IX=.=.=.=.=.=.=.=.=.=.=.=.=.=.=.=.;.;.5.8.8.5.=.  UXUXUXUX",
"UXUXUXyXrXF.n.f.w.1.;.=.IX].].].].].].IX=.=.=.=.=.=.=.=.=.=.=.=.=.=.=.=.=.=.;.1.1.>.+.    UXUXUX",
"UXUXwXwXF.n.g.0.>.;.=.=.IX].].].].].].IX=.=.=.=.=.=.=.=.=.=.=.=.=.=.=.=.=.=.=.=.;.;.+.]     UXUX",
"UXUX0XF.B.j.r.1.=.=.=.=.IX].].].].].].IX=.=.=.=.=.=.=.=.=.=.=.=.=.=.=.=.=.=.=.=.=.=.=.| !   UXUX",
"UXx c B.z.i.5.;.=.=.=.=.IX].].].].].].IX=.=.=.=.=.=.=.=.=.=.=.=.=.=.=.=.=.=.=.=.=.=.=.| E     UX",
"UXh IXIXIXIXIXIXIXIXIXIXIX].].].].].].IXIXIXIXIXIXIXIXIXIXIXIXIXIXIXIXIXIXIXIXIXIXIXKXGXSXgX  UX",
"UXs 2X<X&XXX].].].].].].].].].].].].].].].].].].].].].].].].].].].].].].].].].].].].'.^.T.K.  UX",
"UXp <X:X$X.X].].].].].].].].].].].].].].].].].].].].].].].].].].].].].].].].].].].].'.^.Y.H.  UX",
"UX- ,X;X#X|.].].].].].].].].].].].].].].].].].].].].].].].].].].].].].].].].].].].].'.~.U.G.  UX",
"UX- ,X=X#X|.].].].].].].].].].].].].].].].].].].].].].].].].].].].].].].].].].].].].'.~.U.G.  UX",
"UX- :X=X+X|.].].].].].].].].].].].].].].].].].].].].].].].].].].].].].].].].].].].].'.!.I.u   UX",
"UX% =X&X+X}.].].].].].].].].].].].].].].].].].].].].].].].].].].].].].].].].].].].]._.Q.P.y   UX",
"UX+ IXIXIXIXIXIXIXIXIXIXIX].].].].].].IXIXIXIXIXIXIXIXIXIXIXIXIXIXIXIXIXIXIXIXIXIXLXHXDXiXl   UX",
"UXX 5.1.;.=.=.=.=.=.=.=.IX].].].].].].IX=.=.=.=.=.=.=.=.=.=.=.=.=.=.=.=.=.=.=.=.=.O._ G 9 <   UX",
"UX    O.+.+.+.=.=.=.=.=.IX].].].].].].IX=.=.=.=.=.=.=.=.=.=.=.=.=.=.=.=.=.=.=.=.+.| R B 1     UX",
"UXUX  _ ] ..+.=.=.=.=.=.IX].].].].].].IX=.=.=.=.=.=.=.=.=.=.=.=.=.=.=.=.=.=.=.+...~ D 5 ;   UXUX",
"UXUX    ~ ` ..+.=.=.=.=.IX].].].].].].IX=.=.=.=.=.=.=.=.=.=.=.=.=.=.=.=.=.=.+.O._ K 0 >     UXUX",
"UXUXUX    W / ] ..O.=.=.IX].].].].].].IX=.=.=.=.=.=.=.=.=.=.=.=.=.=.=.=.=.+..._ L m ,     UXUXUX",
"UXUXUXUX  K L E / | O.+.IX].].].].].].IX=.=.=.=.=.=.=.=.=.=.=.=.=.=.=.+.O.] ! H n < ;   UXUXUXUX",
"UXUXUXUX    C S K W _ | JX'.].].].].].IX=.=.=.=.=.=.=.=.=.=.=.=.=.+.O.| / U A 7 ; ;     UXUXUXUX",
"UXUXUXUXUX      M S L W FX(._.'.].].].IX=.=.=.=.=.=.=.=.=.=.=.+.O.| _ R D n 2 ;       UXUXUXUXUX",
"UXUXUXUXUXUXUX    0 M A cXE.!./.(.)._.KX+.=.=.=.=.=.=.=.+.O.| ` ! I S n 4 ; ;     UXUXUXUXUXUXUX",
"UXUXUXUXUXUXUXUX      7 9XK.P.Y.R.E.W.FX` ..+.=.=.=.=.+..._ E H V 9 2 ; ;       UXUXUXUXUXUXUXUX",
"UXUXUXUXUXUXUXUXUXUX      e r y u J.L.xXW ] +.=.=.=.=.O._ U Z 8 , ; ;       UXUXUXUXUXUXUXUXUXUX",
"UXUXUXUXUXUXUXUXUXUXUXUX      q q w t pXU ` +.=.=.=.+.] R C 4 ;         UXUXUXUXUXUXUXUXUXUXUXUX",
"UXUXUXUXUXUXUXUXUXUXUXUXUXUXUX            O.;.;.=.=...W A 4       UXUXUXUXUXUXUXUXUXUXUXUXUXUXUX",
"UXUXUXUXUXUXUXUXUXUXUXUXUXUXUXUXUXUXUXUX  6.8.1.=...~ F 6 ;   UXUXUXUXUXUXUXUXUXUXUXUXUXUXUXUXUX",
"UXUXUXUXUXUXUXUXUXUXUXUXUXUXUXUXUXUXUXUX% f.y.1.O.~ G 8 ; ;   UXUXUXUXUXUXUXUXUXUXUXUXUXUXUXUXUX",
"UXUXUXUXUXUXUXUXUXUXUXUXUXUXUXUXUXUXUXg v.j.r.+.W S 7 ; ;   UXUXUXUXUXUXUXUXUXUXUXUXUXUXUXUXUXUX",
"UXUXUXUXUXUXUXUXUXUXUXUXUXUXUXUXUXUXUXb m.f.+.L M 3 ; ;   UXUXUXUXUXUXUXUXUXUXUXUXUXUXUXUXUXUXUX",
"UXUXUXUXUXUXUXUXUXUXUXUXUXUXUXUXUXUXrXV.g.| A 5 ; ; ;   UXUXUXUXUXUXUXUXUXUXUXUXUXUXUXUXUXUXUXUX",
"UXUXUXUXUXUXUXUXUXUXUXUXUXUXUXUXrXb v.8.U 9 ; ; ;     UXUXUXUXUXUXUXUXUXUXUXUXUXUXUXUXUXUXUXUXUX",
"UXUXUXUXUXUXUXUXUXUXUXUXUXUXc l z.w.~ M < ;       UXUXUXUXUXUXUXUXUXUXUXUXUXUXUXUXUXUXUXUXUXUXUX",
"UXUXUXUXUXUXUXUXUXUX& - i & r.=.R m         UXUXUXUXUXUXUXUXUXUXUXUXUXUXUXUXUXUXUXUXUXUXUXUXUXUX",
"UXUXUXUXUXUXUXUXUXUXUX              UXUXUXUXUXUXUXUXUXUXUXUXUXUXUXUXUXUXUXUXUXUXUXUXUXUXUXUXUXUX",
"UXUXUXUXUXUXUXUXUXUXUXUXUXUXUXUXUXUXUXUXUXUXUXUXUXUXUXUXUXUXUXUXUXUXUXUXUXUXUXUXUXUXUXUXUXUXUXUX",
"UXUXUXUXUXUXUXUXUXUXUXUXUXUXUXUXUXUXUXUXUXUXUXUXUXUXUXUXUXUXUXUXUXUXUXUXUXUXUXUXUXUXUXUXUXUXUXUX",
"UXUXUXUXUXUXUXUXUXUXUXUXUXUXUXUXUXUXUXUXUXUXUXUXUXUXUXUXUXUXUXUXUXUXUXUXUXUXUXUXUXUXUXUXUXUXUXUX"
};
