/* XPM */
static char *magick[] = {
/* columns rows colors chars-per-pixel */
"48 48 245 2",
"   c Gray0",
".  c #0c0c0c",
"X  c #161616",
"o  c #1b1b1b",
"O  c #272727",
"+  c #2a2a2a",
"@  c Gray18",
"#  c #313131",
"$  c Gray21",
"%  c #373737",
"&  c #393939",
"*  c #3c3c3c",
"=  c Gray24",
"-  c #3f3f3f",
";  c #400000",
":  c #420000",
">  c #440000",
",  c #470000",
"<  c #4a0000",
"1  c #4e0000",
"2  c #500000",
"3  c #510000",
"4  c #570000",
"5  c #590000",
"6  c #5a0000",
"7  c #5d0000",
"8  c #620000",
"9  c #630000",
"0  c #680000",
"q  c #6b0000",
"w  c #6c0000",
"e  c #6f0000",
"r  c #710000",
"t  c #720000",
"y  c #740000",
"u  c #750000",
"i  c #780000",
"p  c #7a0000",
"a  c #7b0000",
"s  c #7d0000",
"d  c #7e0000",
"f  c Gray25",
"g  c Gray26",
"h  c Gray27",
"j  c #464646",
"k  c #494949",
"l  c #515151",
"z  c Gray33",
"x  c #585858",
"c  c #606060",
"v  c Gray39",
"b  c #676767",
"n  c #6d6d6d",
"m  c #6f6f6f",
"M  c Gray45",
"N  c #767676",
"B  c Gray47",
"V  c #797979",
"C  c #800000",
"Z  c #810000",
"A  c #830000",
"S  c #840000",
"D  c #860000",
"F  c #870000",
"G  c #890000",
"H  c #8a0000",
"J  c #8d0000",
"K  c #8f0000",
"L  c #920000",
"P  c #950000",
"I  c #960000",
"U  c #980000",
"Y  c #9b0000",
"T  c #9c0000",
"R  c #9f0000",
"E  c #a10000",
"W  c #a20000",
"Q  c #a50000",
"!  c #a70000",
"~  c #a80000",
"^  c #aa0000",
"/  c #ab0000",
"(  c #ad0000",
")  c #b10000",
"_  c #b30000",
"`  c #b40000",
"'  c #b60000",
"]  c #b70000",
"[  c #b90000",
"{  c #ba0000",
"}  c #bd0000",
"|  c #bf0000",
" . c #c20000",
".. c #c30000",
"X. c #c50000",
"o. c #c60000",
"O. c #c90000",
"+. c #cb0000",
"@. c #ce0000",
"#. c #cf0000",
"$. c #d10000",
"%. c #d20000",
"&. c #d50000",
"*. c #d80000",
"=. c #da0000",
"-. c #db0000",
";. c #dd0000",
":. c #de0000",
">. c #e00000",
",. c #e10000",
"<. c #e30000",
"1. c #e40000",
"2. c #e70000",
"3. c #e90000",
"4. c #ea0000",
"5. c #ec0000",
"6. c #ed0000",
"7. c #ef0000",
"8. c #f00000",
"9. c #f20000",
"0. c #f30000",
"q. c #f50000",
"w. c #f60000",
"e. c #f80000",
"r. c #f90000",
"t. c #fb0000",
"y. c #fc0000",
"u. c #fe0000",
"i. c Red",
"p. c #ff0101",
"a. c #ff0303",
"s. c #ff0404",
"d. c #ff0606",
"f. c #ff0707",
"g. c #ff0909",
"h. c #ff0a0a",
"j. c #ff0c0c",
"k. c #ff0d0d",
"l. c #ff0f0f",
"z. c #ff1010",
"x. c #ff1212",
"c. c #ff1313",
"v. c #ff1515",
"b. c #ff1616",
"n. c #ff1818",
"m. c #ff1919",
"M. c #ff1b1b",
"N. c #ff1c1c",
"B. c #ff1e1e",
"V. c #ff1f1f",
"C. c #ff2121",
"Z. c #ff2222",
"A. c #ff2424",
"S. c #ff2525",
"D. c #ff2727",
"F. c #ff2828",
"G. c #ff2b2b",
"H. c #ff3030",
"J. c #ff3131",
"K. c #ff3333",
"L. c #ff3434",
"P. c #ff3636",
"I. c #ff3737",
"U. c #ff3939",
"Y. c #ff3a3a",
"T. c #ff3c3c",
"R. c #ff3d3d",
"E. c #ff3f3f",
"W. c #ff4242",
"Q. c #ff4343",
"!. c #ff4545",
"~. c #ff4646",
"^. c #ff4848",
"/. c #ff4949",
"(. c #ff4b4b",
"). c #ff4c4c",
"_. c #ff5151",
"`. c #ff5555",
"'. c #ff5858",
"]. c #ff5a5a",
"[. c #ff5b5b",
"{. c #ff5d5d",
"}. c #ff5e5e",
"|. c #ff6060",
" X c #ff6363",
".X c #ff6464",
"XX c #ff6767",
"oX c #ff6969",
"OX c #ff6c6c",
"+X c #ff6f6f",
"@X c #ff7070",
"#X c #ff7373",
"$X c #ff7676",
"%X c #ff7979",
"&X c #ff7b7b",
"*X c #ff7c7c",
"=X c #ff7e7e",
"-X c #ff7f7f",
";X c Yellow",
":X c #ffff01",
">X c #ffff03",
",X c #ffff04",
"<X c #ffff06",
"1X c #ffff09",
"2X c #ffff0a",
"3X c #ffff13",
"4X c #ffff15",
"5X c #ffff1b",
"6X c #ffff30",
"7X c #ffff31",
"8X c #ffff33",
"9X c #ffff37",
"0X c #ffff63",
"qX c #818181",
"wX c Gray51",
"eX c #848484",
"rX c #888888",
"tX c #8b8b8b",
"yX c #8d8d8d",
"uX c #8e8e8e",
"iX c Gray57",
"pX c #939393",
"aX c #979797",
"sX c #9a9a9a",
"dX c Gray61",
"fX c #9d9d9d",
"gX c #9f9f9f",
"hX c #a0a0a0",
"jX c #a2a2a2",
"kX c Gray64",
"lX c #a5a5a5",
"zX c Gray65",
"xX c Gray66",
"cX c #ff8181",
"vX c #ff8282",
"bX c #ff8787",
"nX c #ff8a8a",
"mX c #ff8d8d",
"MX c #ff8e8e",
"NX c #ff9191",
"BX c #ff9393",
"VX c #ff9494",
"CX c #ff9a9a",
"ZX c #ff9c9c",
"AX c None",
/* pixels */
"AXAXAXAXAXAXAXAXAXAXAXAXAXAXAXAXAXAXAXAXAXAXAXAXAXAXAXAXAXAXAXAXAXAXAXAXAXAXAXAXAXAXAXAXAXAXAXAX",
"AXAXAXAXAXAXAXAXAXAXAXAXAXAXAXAXAXAXAXAXAXAXAXAXAXAXAXAXAXAXAXAXAXAXAXAXAXAXAXAXAXAXAXAXAXAXAXAX",
"AXAXAXAXAXAXAXAXAXAXAXAXAXAXAXAXAXAXAXAXAXAXAXAXAXAXAXAXAXAXAXAXAXAXAXAXAXAXAXAXAXAXAXAXAXAXAXAX",
"AXAXAXAXAXAXAXAXAXAXAXAXAXAXAXkXgXaXpXuXuXuXuXuXuXuXuXuXuXtXqXB m AXAXAXAXAXAXAXAXAXAXAXAXAXAXAX",
"AXAXAXAXAXAXAXAXAXAXAXAXzXzXkXgXBXmXbXcXcXcXcXcXcXcXcXcXcX%X$X@Xb c c x AXAXAXAXAXAXAXAXAXAXAXAX",
"AXAXAXAXAXAXAXAXAXAXxXzXkXCXBXbX%X@XoX.X0X X X X X X X X X X{.'.'.'.'.z l k AXAXAXAXAXAXAXAXAXAX",
"AXAXAXAXAXAXAXAXxXxXkXCXmX-X+X'.^.R.9X8X6X6X6XH.H.H.H.H.H.H.H.P.R.Q.^.^.^.j f - AXAXAXAXAXAXAXAX",
"AXAXAXAXAXAXAXxXzXZXmX%X X^.P.A.N.x.k.1X1X1Xh.h.h.h.h.h.h.h.k.x.M.C.G.P.R.R.R.$ # AXAXAXAXAXAXAX",
"AXAXAXAXAXkXzXkXVX-X.X^.H.N.x.h.f.a.a.>Xa.>Xa.a.a.a.a.a.a.a.a.a.f.h.k.M.C.G.H.P.@ O o AXAXAXAXAX",
"AXAXAXAXsXgXCXnX+X_.P.N.k.f.f.a.a.a.a.a.a.a.a.a.a.a.a.a.a.a.a.a.a.a.a.f.k.b.C.A.A.N..   AXAXAXAX",
"AXAXAXAXaXBXcX.XQ.A.4X1Xa.a.a.a.a.a.a.a.a.a.a.a.a.a.a.a.a.a.a.a.a.a.a.a.f.f.k.M.M.x.a.  AXAXAXAX",
"AXAXAXpXuX-X XY.N.k.<X>Xa.a.a.a.a.a.a.a.a.a.>Xa.a.a.a.a.a.a.a.a.a.a.a.a.a.a.f.k.k.h.e.    AXAXAX",
"AXAXtXtX-X XR.N.h.<X>X>X>Xa.a.a.a.a.a.a.>X>X>X>X>Xa.a.a.a.a.a.a.a.a.a.a.a.a.a.a.f.a.e.3.    AXAX",
"AXAXeX-X+X^.A.k.a.>X>X>X>Xa.a.a.a.a.a.a.a.>X>X>Xa.a.a.a.a.a.a.a.a.a.a.a.a.a.a.a.a.a.a.7.&.  AXAX",
"AXM N +X`.6X3X<X>X>X>X>X>X>X>X>X>Xa.a.a.a.>Xa.>Xa.a.a.a.a.a.a.a.a.a.a.a.a.a.a.a.a.a.a.7.@.    AX",
"AXc  X'.R.5X1X>X>X>X>X>X>X>X>X>X>Xa.a.a.a.a.a.a.a.a.a.a.a.a.a.a.a.a.a.a.a.a.a.a.a.a.a.1. .E   AX",
"AXl _.~.G.k.a.>X>X>X>X>X>X>X>Xa.a.a.a.a.a.a.a.a.a.a.a.a.a.a.a.a.a.a.a.a.a.a.a.a.a.a.e.<.[ L   AX",
"AXj ~.Y.C.f.a.a.>X>X>X>X>X>Xa.a.a.a.a.a.a.a.>Xa.a.a.a.a.a.a.a.a.a.a.a.a.a.a.a.a.a.a.e.<.' S   AX",
"AX- R.P.N.f.a.>X>X>X>X>X>X>X>Xa.a.a.a.a.>X>X>X>X>Xa.a.a.a.a.a.a.a.a.a.a.a.a.a.a.a.a.e.:.( C   AX",
"AX- R.H.N.f.a.>X>X>Xa.a.>X>X>Xa.a.a.a.a.a.>X>X>Xa.a.a.a.a.a.a.a.a.a.a.a.a.a.a.a.a.a.e.:.( C   AX",
"AX- Y.H.M.f.a.>X>Xa.a.a.a.>X>Xa.a.a.a.a.a.>Xa.>Xa.a.a.a.a.a.a.a.a.a.a.a.a.a.a.a.a.a.e.-.~ s   AX",
"AX$ H.G.b.a.a.a.a.a.a.a.a.a.a.a.a.a.a.a.a.a.a.a.a.a.a.a.a.a.a.a.a.a.a.a.a.a.a.a.a.a.w.&.E u   AX",
"AX+ A.C.x.a.a.a.a.a.a.a.a.a.a.a.a.a.a.a.a.a.a.a.a.a.a.a.a.a.a.a.a.a.a.a.a.a.a.a.a.e.0.+.P q   AX",
"AXX x.x.f.a.a.a.a.a.a.a.a.a.a.a.a.a.a.a.>Xa.a.a.a.a.a.a.a.a.a.a.a.a.a.a.a.a.a.a.a.w.<._ p 2   AX",
"AX    w.e.e.e.a.a.a.a.a.a.a.a.a.a.a.>X>X>X>X>Xa.a.a.a.a.a.a.a.a.a.a.a.a.a.a.a.a.e.7.+.L 4     AX",
"AXAX  <.3.0.e.a.a.a.a.a.a.a.a.a.a.a.a.>X>X>Xa.a.a.a.a.a.a.a.a.a.a.a.a.a.a.a.a.e.0.-.~ q ;   AXAX",
"AXAX    -.1.0.e.a.a.a.a.a.a.a.a.a.a.a.>Xa.>Xa.a.a.a.a.a.a.a.a.a.a.a.a.a.a.a.e.w.<.[ s ,     AXAX",
"AXAXAX    $.:.3.0.w.a.a.a.a.a.a.a.a.a.a.a.a.a.a.a.a.a.a.a.a.a.a.a.a.a.a.a.e.0.<.} H 1     AXAXAX",
"AXAXAXAX  ' } @.:.7.w.e.a.a.a.a.a.a.a.a.a.a.a.a.a.a.a.a.a.a.a.a.a.a.a.e.w.3.&.' C 2 ;   AXAXAXAX",
"AXAXAXAX    Y Q [ $.<.7.w.e.a.a.a.a.a.a.a.a.a.a.a.a.a.a.a.a.a.a.a.e.w.7.:.X.R r ; ;     AXAXAXAX",
"AXAXAXAXAX      J Q } $.<.7.w.e.a.a.a.a.a.a.a.a.a.a.a.a.a.a.a.e.w.7.<.+.~ S 5 ;       AXAXAXAXAX",
"AXAXAXAXAXAXAX    s J E ' +.-.1.7.0.w.e.e.a.a.a.a.a.a.a.e.w.7.1.&. .Q S 8 ; ;     AXAXAXAXAXAXAX",
"AXAXAXAXAXAXAXAX      r C L Q ' } +.$.-.1.0.e.a.a.a.a.e.0.<.@.' P p 5 ; ;       AXAXAXAXAXAXAXAX",
"AXAXAXAXAXAXAXAXAXAX      8 w u s H Y _ $.3.e.a.a.a.a.w.<.X.Y u 1 ; ;       AXAXAXAXAXAXAXAXAXAX",
"AXAXAXAXAXAXAXAXAXAXAXAX      , < 5 r Y X.1.e.a.a.a.e.3.+.Y 8 ;         AXAXAXAXAXAXAXAXAXAXAXAX",
"AXAXAXAXAXAXAXAXAXAXAXAXAXAXAX            w.f.f.a.a.0.$.E 8       AXAXAXAXAXAXAXAXAXAXAXAXAXAXAX",
"AXAXAXAXAXAXAXAXAXAXAXAXAXAXAXAXAXAXAXAX  b.M.k.a.0.-.( w ;   AXAXAXAXAXAXAXAXAXAXAXAXAXAXAXAXAX",
"AXAXAXAXAXAXAXAXAXAXAXAXAXAXAXAXAXAXAXAX& Y.G.k.w.-._ u ; ;   AXAXAXAXAXAXAXAXAXAXAXAXAXAXAXAXAX",
"AXAXAXAXAXAXAXAXAXAXAXAXAXAXAXAXAXAXAXc {.^.A.e.$.~ r ; ;   AXAXAXAXAXAXAXAXAXAXAXAXAXAXAXAXAXAX",
"AXAXAXAXAXAXAXAXAXAXAXAXAXAXAXAXAXAXAXqX.XY.e.} J 7 ; ;   AXAXAXAXAXAXAXAXAXAXAXAXAXAXAXAXAXAXAX",
"AXAXAXAXAXAXAXAXAXAXAXAXAXAXAXAXAXAXpX@XR.7.E q ; ; ;   AXAXAXAXAXAXAXAXAXAXAXAXAXAXAXAXAXAXAXAX",
"AXAXAXAXAXAXAXAXAXAXAXAXAXAXAXAXpXqX{.M.X.u ; ; ;     AXAXAXAXAXAXAXAXAXAXAXAXAXAXAXAXAXAXAXAXAX",
"AXAXAXAXAXAXAXAXAXAXAXAXAXAXB m `.C.-.J 2 ;       AXAXAXAXAXAXAXAXAXAXAXAXAXAXAXAXAXAXAXAXAXAXAX",
"AXAXAXAXAXAXAXAXAXAX& f f - A.a.+.H         AXAXAXAXAXAXAXAXAXAXAXAXAXAXAXAXAXAXAXAXAXAXAXAXAXAX",
"AXAXAXAXAXAXAXAXAXAXAX              AXAXAXAXAXAXAXAXAXAXAXAXAXAXAXAXAXAXAXAXAXAXAXAXAXAXAXAXAXAX",
"AXAXAXAXAXAXAXAXAXAXAXAXAXAXAXAXAXAXAXAXAXAXAXAXAXAXAXAXAXAXAXAXAXAXAXAXAXAXAXAXAXAXAXAXAXAXAXAX",
"AXAXAXAXAXAXAXAXAXAXAXAXAXAXAXAXAXAXAXAXAXAXAXAXAXAXAXAXAXAXAXAXAXAXAXAXAXAXAXAXAXAXAXAXAXAXAXAX",
"AXAXAXAXAXAXAXAXAXAXAXAXAXAXAXAXAXAXAXAXAXAXAXAXAXAXAXAXAXAXAXAXAXAXAXAXAXAXAXAXAXAXAXAXAXAXAXAX"
};
