/* XPM */
static char * postgres48_xpm[] = {
"32 32 185 2",
"  	c None",
". 	c #C5C5C5",
"+ 	c #9D9D9D",
"@ 	c #8B8B8B",
"# 	c #8D8D8D",
"$ 	c #9B9B9B",
"% 	c #B0B0B0",
"& 	c #646464",
"* 	c #595959",
"= 	c #6A6A6A",
"- 	c #6C6C6C",
"; 	c #8E8E8E",
"> 	c #999999",
", 	c #828282",
"' 	c #838383",
") 	c #B3B3B3",
"! 	c #E1E1E1",
"~ 	c #DEDEDE",
"{ 	c #E9E9E9",
"] 	c #5A5A5A",
"^ 	c #9A9A9A",
"/ 	c #A2A2A2",
"( 	c #A3A3A3",
"_ 	c #797979",
": 	c #626262",
"< 	c #A1A1A1",
"[ 	c #C8C8C8",
"} 	c #C7C7C7",
"| 	c #B6B6B6",
"1 	c #939393",
"2 	c #888888",
"3 	c #979797",
"4 	c #ACACAC",
"5 	c #7F7F7F",
"6 	c #737373",
"7 	c #636363",
"8 	c #7C7C7C",
"9 	c #D2D2D2",
"0 	c #C9C9C9",
"a 	c #676767",
"b 	c #8C8C8C",
"c 	c #EEEEEE",
"d 	c #FBFBFB",
"e 	c #F4F4F4",
"f 	c #AEAEAE",
"g 	c #5F5F5F",
"h 	c #616161",
"i 	c #898989",
"j 	c #B5B5B5",
"k 	c #C0C0C0",
"l 	c #ADADAD",
"m 	c #424242",
"n 	c #343434",
"o 	c #BFBFBF",
"p 	c #969696",
"q 	c #727272",
"r 	c #3A3A3A",
"s 	c #323232",
"t 	c #AAAAAA",
"u 	c #959595",
"v 	c #7B7B7B",
"w 	c #F5F5F5",
"x 	c #A7A7A7",
"y 	c #DCDCDC",
"z 	c #F8F8F8",
"A 	c #9F9F9F",
"B 	c #575757",
"C 	c #C1C1C1",
"D 	c #E7E7E7",
"E 	c #D9D9D9",
"F 	c #D5D5D5",
"G 	c #3D3D3D",
"H 	c #2C2C2C",
"I 	c #BDBDBD",
"J 	c #6D6D6D",
"K 	c #CCCCCC",
"L 	c #6F6F6F",
"M 	c #CBCBCB",
"N 	c #F2F2F2",
"O 	c #ECECEC",
"P 	c #EBEBEB",
"Q 	c #2F2F2F",
"R 	c #777777",
"S 	c #D6D6D6",
"T 	c #FAFAFA",
"U 	c #D8D8D8",
"V 	c #F1F1F1",
"W 	c #F0F0F0",
"X 	c #434343",
"Y 	c #E6E6E6",
"Z 	c #F9F9F9",
"` 	c #B7B7B7",
" .	c #5D5D5D",
"..	c #949494",
"+.	c #656565",
"@.	c #686868",
"#.	c #CFCFCF",
"$.	c #AFAFAF",
"%.	c #EFEFEF",
"&.	c #666666",
"*.	c #BABABA",
"=.	c #767676",
"-.	c #E8E8E8",
";.	c #E2E2E2",
">.	c #8F8F8F",
",.	c #F6F6F6",
"'.	c #696969",
").	c #B9B9B9",
"!.	c #747474",
"~.	c #444444",
"{.	c #B4B4B4",
"].	c #7D7D7D",
"^.	c #545454",
"/.	c #BEBEBE",
"(.	c #DFDFDF",
"_.	c #5E5E5E",
":.	c #D0D0D0",
"<.	c #C2C2C2",
"[.	c #A4A4A4",
"}.	c #4F4F4F",
"|.	c #DADADA",
"1.	c #373737",
"2.	c #707070",
"3.	c #5C5C5C",
"4.	c #7A7A7A",
"5.	c #D3D3D3",
"6.	c #F7F7F7",
"7.	c #3F3F3F",
"8.	c #606060",
"9.	c #C6C6C6",
"0.	c #525252",
"a.	c #A9A9A9",
"b.	c #555555",
"c.	c #BCBCBC",
"d.	c #D1D1D1",
"e.	c #9C9C9C",
"f.	c #505050",
"g.	c #3E3E3E",
"h.	c #818181",
"i.	c #B2B2B2",
"j.	c #848484",
"k.	c #A8A8A8",
"l.	c #909090",
"m.	c #5B5B5B",
"n.	c #F3F3F3",
"o.	c #494949",
"p.	c #6B6B6B",
"q.	c #A6A6A6",
"r.	c #808080",
"s.	c #D7D7D7",
"t.	c #E3E3E3",
"u.	c #333333",
"v.	c #585858",
"w.	c #464646",
"x.	c #B1B1B1",
"y.	c #CACACA",
"z.	c #CDCDCD",
"A.	c #757575",
"B.	c #0C0C0C",
"C.	c #787878",
"D.	c #DBDBDB",
"E.	c #7E7E7E",
"F.	c #989898",
"G.	c #515151",
"H.	c #878787",
"I.	c #E5E5E5",
"J.	c #2A2A2A",
"K.	c #3C3C3C",
"L.	c #353535",
"M.	c #1D1D1D",
"N.	c #414141",
"O.	c #BBBBBB",
"P.	c #CECECE",
"Q.	c #8A8A8A",
"R.	c #C4C4C4",
"S.	c #EAEAEA",
"T.	c #484848",
"U.	c #DDDDDD",
"V.	c #4A4A4A",
"W.	c #868686",
"X.	c #919191",
"Y.	c #454545",
"Z.	c #EDEDED",
"`.	c #4D4D4D",
" +	c #4C4C4C",
"      . + @ # $ % % & * = - ; > , ' * ) ! ~ {                   ",
"    , ] ' ^ / ( _ : < [ } | 1 2 3 4 4 5 6 7 8 2 4 9             ",
"0 a b c d d d d d e f g h i j k l ; m n $ o p q r s : t 9       ",
"u v w d d d d d d d x : y z d d d d y A B C D E F t G H 2 I     ",
"J } d d d d d d d K L D d d d d d d d d M a o N { O P i Q R }   ",
"- E d d d d d d c q S d d d d d d d d d T U g K O V z W X - ,   ",
"6 Y d d d d d d C ; d d d d d d d T d d Z d `  .N T Z d ..+.@.#.",
"R { d d d d d d # $.d d d d d d d z d d d d %.&.C d Z d $ * g *.",
"=.-.d d d d d d & > p p p #.d d d d d d Z ;.9 >.8 ,.d d ' '.g ).",
"!.D d d d d d d ~.'.{.` u q %.d d d d d {.@.].g a W d d @.R ^./.",
"q (.d d d d d d _.:.d <.[.6 ` d d d d e }.*.x |.&.%.d w 1.2.3.U ",
"4.5.d d d d d d _.:.d d 6.1 + d d d d E &.-.Y ^ J ,.d [ 7.8.;   ",
"@ 9.d d d d d e & ~ d d d > 2 T d d d O 0.y V L a.d w & 5 b.c.  ",
"/ % d d d d d d.+.c d d d ; e.T d d d d f.I e L % d #.g.h.h E   ",
"i.2 d d d d d j _ d d d w v S d d d d d e.j.d 2 k.d v _ f.l.    ",
"k 2.d d d d d k _ d d d #.8.e d d d d d 5.m.n.2 > ! o.2 +.C     ",
"y p.E d d d d %.: (.d d 5 e.d d d d z z T 2 b h $.+.3 & p       ",
"k 3 q.d d d d d + r.n.n.m.s.d 6.6.d T z Z t.u.r ..4.4.m.:.      ",
"  M '.P d d d T p o.8.f.v.9 T 6.Z d T z w 6.b w.q x.^.x ;.      ",
"  |.].y.d d d f 3.F z.m a 7 O 6.T z 6.n.6.Z A.B.h A C.2.=.;     ",
"  D.$.E.W z F.G.k.+ &.H.w & % z n.W n.,.Z k 3.I.h.J 8.J.K.f.c.  ",
"    c.< ' 8 L ) L.> F { # M.*.6.,.n.Z z z E.8.j . t v.N.R  .x   ",
"      9.*.x.O.P.# : - h ' b.z.N n.e N n.N : Q.< i _ F.+ 0.= y.  ",
"      #.@ h.!.b i.o R.j D b.|.P n.e W n.S.T.O.$ j.E.= p.i *.    ",
"          E ;.;.i.p r.8 ).T.c W c V ,.V E 1.( '.% K s.          ",
"                    U.U.4 V.N V N n.W V } L.3 E.                ",
"                        / }.W c %.S.O 6.p ~.W.X.                ",
"                        [.Y.D P N Z.O 6.m.=.+.$                 ",
"                        ).`.K %.P N Z R.K.# - k                 ",
"                        d.A.].%.w z S  +# h.2 |.                ",
"                          a.'.: 8 J &.3 h.& `                   ",
"                          ~ ^ e.( ` l # & e.                    "};
