/* XPM */
static char *magick[] = {
/* columns rows colors chars-per-pixel */
"48 48 256 2",
"   c Gray100",
".  c Gray74",
"X  c #c6c6c6",
"o  c Gray87",
"O  c #7b2929",
"+  c #c64242",
"@  c #ad3939",
"#  c #bd3939",
"$  c #942121",
"%  c #4a1010",
"&  c #7b3931",
"*  c #5a1810",
"=  c #b55242",
"-  c #c65242",
";  c #bd4231",
":  c #4a1008",
">  c #390800",
",  c #a53118",
"<  c #bd5239",
"1  c #733121",
"2  c #ad5239",
"3  c #c65a39",
"4  c #843921",
"5  c #210800",
"6  c #c66b4a",
"7  c #8c4a31",
"8  c #9c5231",
"9  c #4a1800",
"0  c #846352",
"q  c #8c4a29",
"w  c #b55a29",
"e  c #a54210",
"r  c #bd4a10",
"t  c #ce7b4a",
"y  c #c66b39",
"u  c #844218",
"i  c #944210",
"p  c #291000",
"a  c #5a3921",
"s  c #b56b39",
"d  c #c65a10",
"f  c #b55208",
"g  c #ad4a00",
"h  c #ffad6b",
"j  c #c6844a",
"k  c #bd5a08",
"l  c #ffb573",
"z  c #de9452",
"x  c #f7a55a",
"c  c #c6a584",
"v  c #d69c63",
"b  c #ce945a",
"n  c #c68c52",
"m  c #ce8c4a",
"M  c #b57331",
"N  c #523110",
"B  c #633910",
"V  c #8c4a08",
"C  c #9c5200",
"Z  c #ad5a00",
"A  c #b5946b",
"S  c #735229",
"D  c #c68c42",
"F  c #6b4a21",
"G  c #ad7329",
"H  c #734a18",
"J  c #4a2900",
"K  c #e7b573",
"L  c #dead6b",
"P  c #ffbd63",
"I  c #bd8439",
"U  c #a57331",
"Y  c #ad8c5a",
"T  c #e7b56b",
"R  c #f7bd63",
"E  c #846331",
"W  c #ffbd5a",
"Q  c #bd7300",
"!  c #c6ad84",
"~  c #efbd6b",
"^  c #c68c31",
"/  c #c68c29",
"(  c #e7bd73",
")  c #ffc65a",
"_  c #c6ad7b",
"`  c #cead6b",
"'  c #947b4a",
"]  c #8c7342",
"[  c #5a4a29",
"{  c #846321",
"}  c #392908",
"|  c #181000",
" . c #ad7300",
".. c #d6b56b",
"X. c #e7bd63",
"o. c #bd8400",
"O. c #c6b58c",
"+. c #b5a57b",
"@. c #84734a",
"#. c #ceb573",
"$. c #ad8c39",
"%. c #947321",
"&. c #392900",
"*. c #846300",
"=. c #9c8c5a",
"-. c #4a4229",
";. c #847b5a",
":. c #635210",
">. c #524208",
",. c #947300",
"<. c #948c6b",
"1. c #736b4a",
"2. c #bdad6b",
"3. c #cebd73",
"4. c #c6b56b",
"5. c #bda542",
"6. c #7b6b29",
"7. c #bda539",
"8. c #a58c29",
"9. c #312908",
"0. c #b59408",
"q. c #a58400",
"w. c #cebd63",
"e. c #b5ad7b",
"r. c #bdad52",
"t. c #847308",
"y. c #ad9400",
"u. c #bdb57b",
"i. c #a59c5a",
"p. c #bdb573",
"a. c #8c8431",
"s. c #524a08",
"d. c #bdb54a",
"f. c #ada542",
"g. c #9c9439",
"h. c #7b7308",
"j. c #a59c00",
"k. c #ada500",
"l. c #bdbdb5",
"z. c #a5a59c",
"x. c #b5b584",
"c. c #b5b57b",
"v. c #adad73",
"b. c #a5a56b",
"n. c #8c8c5a",
"m. c #bdbd73",
"M. c #84844a",
"N. c #bdbd63",
"B. c #b5b55a",
"V. c #636331",
"C. c #636321",
"Z. c #adad39",
"A. c #525218",
"S. c #adad31",
"D. c #bdbd31",
"F. c #b5b529",
"G. c #393908",
"H. c #080800",
"J. c #101000",
"K. c #212100",
"L. c #292900",
"P. c #a5ad00",
"I. c #a5ad39",
"U. c #6b7300",
"Y. c #6b7318",
"T. c #b5bd73",
"R. c #849400",
"E. c #9cb508",
"W. c #313900",
"Q. c #9cb500",
"!. c #8c9463",
"~. c #8c9c31",
"^. c #8cad00",
"/. c #738431",
"(. c #394a00",
"). c #8cb500",
"_. c #8c9473",
"`. c #4a5231",
"'. c #738442",
"]. c #8cbd00",
"[. c #7b8463",
"{. c #8cad39",
"}. c #527300",
"|. c #638c08",
" X c #848c73",
".X c #737b63",
"XX c #8cad4a",
"oX c #84bd08",
"OX c #526b21",
"+X c #84b529",
"@X c #7bbd08",
"#X c #6bad00",
"$X c #84bd29",
"%X c #394a21",
"&X c #7bbd21",
"*X c #73bd10",
"=X c #213900",
"-X c #94ad73",
";X c #7b945a",
":X c #8ca573",
">X c #738c5a",
",X c #4a5a39",
"<X c #8cb563",
"1X c #638442",
"2X c #73b531",
"3X c #426b18",
"4X c #5a6b4a",
"5X c #396b08",
"6X c #182110",
"7X c #7bb54a",
"8X c #295a00",
"9X c #295208",
"0X c #214a00",
"qX c #213118",
"wX c #528c31",
"eX c #8cad7b",
"rX c #9cad94",
"tX c #5a6b52",
"yX c #4a5a42",
"uX c #394a31",
"iX c #314229",
"pX c #296b08",
"aX c #184a00",
"sX c #84ad73",
"dX c #63a54a",
"fX c #738c6b",
"gX c #106300",
"hX c #b5bdb5",
"jX c #adb5ad",
"kX c #9cad9c",
"lX c #8c9c8c",
"zX c #94a594",
"xX c #849484",
"cX c #739473",
"vX c #638463",
"bX c #5a7b5a",
"nX c #73ad73",
"mX c #528c52",
"MX c #294a29",
"NX c #ced6d6",
"BX c #e7e7ef",
"VX c #efeff7",
"CX c #8c1839",
"ZX c #521021",
"AX c #841831",
"SX c #6b1829",
"DX c #9c2139",
"FX c #631021",
"GX c #7b1829",
"HX c #bd3142",
"JX c #ad2939",
"KX c #943139",
"LX c #842931",
"PX c Gray0",
"IX c None",
"UX c Gray0",
/* pixels */
"IXIXIXIXIXIXIXIXIXIXIXIXIXIXIXIXIXIXIXIXX X hXjXz.jX. . . IXIXIXIXIXIXIXIXIXIXIXIXIXIXIXIXIXIXIX",
"IXIXIXIXIXIXIXIXIXIXIXIXIXIXIXIXIX. jXjX' m x x x x x m ] kXzXX X IXIXIXIXIXIXIXIXIXIXIXIXIXIXIX",
"IXIXIXIXIXIXIXIXIXIXIXIXIXIXX X .Xn h P P P W W W P P P h l h z ;.X . IXIXIXIXIXIXIXIXIXIXIXIXIX",
"IXIXIXIXIXIXIXIXIXIXIXIXX X ;.v K T R h h h h h P h h h h P P ~ K L n.. X IXIXIXIXIXIXIXIXIXIXIX",
"IXIXIXIXIXIXIXIXIXIXIXX [.2._ w.K K X.W ) ) ) ) ) W ) W P P l ~ T ..#.p.[.X X IXIXIXIXIXIXIXIXIX",
"IXIXIXIXIXIXIXIXIXIXjX=._ 4._ #.w.X.X.~ P l P P h P h P W ) ) ~ K #.#.p.c.i.kXIXIXIXIXIXIXIXIXIX",
"IXIXIXIXIXIXIXIXIXX c _ _ _ 4.w...3.K h P W W W W W W P h h h T w.w.m.p.v.T.v.. X IXIXIXIXIXIXIX",
"IXIXIXIXIXIXIXIX. =._ _ _ 4.m._ #...X.x W ) ) ) W W W W W P h K 3.m.T.T.v.v.T.b.jXX IXIXIXIXIXIX",
"IXIXIXIXIXIXIXhXA c c _ 4._ #.4.` ..X.~ P P P P P P P P P ) W X..._ p.T.b.T.e.T.+.jXX IXIXIXIXIX",
"IXIXIXIXIXIXX A c c _ _ _ _ 4.w.3.3.3.~ P W W W W W W h P P T w.4.T.v.c.T.T.T.x.v.+.jXIXIXIXIXIX",
"IXIXIXIXIXNX=.A p.c _ c c #.4.4.3.w.X.x h P W W P P h P W R T 3.m.T.T.2.p.T.T.! +.v.i.NXIXIXIXIX",
"IXIXIXIXX M.v r.A p.c c _ _ _ #.` ` ..L P P ) ) ) ) ) ) P ~ L 4.2.T.b.T.2.u.x.T.e.A B.M.NXIXIXIX",
"IXIXIXX '.B.B.r.r.r._ _ ! O._ #.#.3.w...~ W ) ) W ) W P h X.4.T.T.v.v.T.c.m.p.p.d.d.5.5.a.X IXIX",
"IXIXIX. ^ 5.5.B.B.r.r.2.! c _ _ m.4._ w.X.) ) ) ) ) ) ) P .._ T.b.T.2.p.c.c.2.r.B.D.5.5.Y jXIXIX",
"IXIXX %.^ 7.D 5.r.r.r.r._ _ ! ! #.` w.N.X.P W W W P P P R w.T.b.T.T.T.u._ m.N.7.5.d.D n 6 8 X IX",
"IXIX. M ^ ^ 7.^ D r.r.4.r.v ! ! #.p.N.4.L ~ P P P P h h T N.T.N.T.+.T.u.p.r.D.5.D n n 6 I s hXIX",
"IXIXbX%.8.M / / ^ D j r.r.r.2._ _ m._ p.( E J.PX6XPXH.E ..v.T.T.b.m.+.B.r.5.7.b t 6 6 I = 2 V.X ",
"IXX C.6.t.%.%.U y ^ D j r.r.d.r._ ! _ _ PXtX. NXNXNXNXlX6Xb.v.v.T.T.r.5.D.r.n 6 6 3 = 2 8 8 F NX",
"IXhXOXOXOXY.|.h.%.8.D ^ D n r.5.b u.A PXo BXBXVXVXVXVXBXo 6XM.e.p.D.D.5.D j 6 + = @ 7 7 H Y.:.hX",
"IX.XA.3X3X3X3XOX}.U.%.M I D D n r.d.J.hXBXBXo o o o BXVXBXo qXi.f.5.7.D - - HX@ 7 F :.s.}.s.3XbX",
"X %XB >.s.pXpX%X3X3X}.U.{ U I D m L.xXo VXBXo o NXo NXX BXo o PXr.j - + HXKX7 F >.s.(.9X9X9X9XaX",
"X : * * * B >.>.9XpX9XpX5X}.Y.6.q H.BXVXVXVXVXo o o VXVXVXVXo cXO HXJXCX1 a >.s.=XaXaXgX0XaX=XL.",
"X L.K.p > : : : : 9 &.9XgXgXpXpXH.xXo VXVXVXNXX IXX NXVXVXVXo NXH.SXZXN G.9X=XW.=X=XL.} 9.L.9.K.",
"X } p J.J.J.J.J.J.| p p > : } =XPXX BXVXVXo IXIXIXIXIXo VXBXBXo H.9.W.K.K.L.K.9.| J.6XJ.J.J.J.K.",
"X H.PXH.PXH.H.H.PXPXPXPXPXPXPXPXPXX BXBXVXBXIXIXIXIXIXBXVXVXVXNXqXH.H.H.H.J.J.J.PXJ.| | H.H.J.| ",
"X | J.J.J.J.J.J.| 5 p > > > 9 9 PXX BXVXVXVXIXIXIXIXIXBXVXVXBXNXPX5 5 5 | 5 p | | 5 5 | J.| | | ",
"X | 5 5 p p p L.&.J J >.s.B 1 AXH.zXo BXVXVXNXIXIXIXNXVXVXVXo NXPXN } &.L.L.9.p > > > > > > > > ",
"X =XaX0X(.(.(.(.s.H 1 O $ $ , ; : MXNXVXVXVXVXo X NXVXVXVXVXNXz.> KXAXSX* ZX% % % 9.9.L.W.L.&.&.",
". A.(.A.-.a F 4 O 4 i g f d o.k.E.PXjXo VXVXVXVXVXVXVXVXVXo NXH.6 - + JXDXCXAXGXSXSXFXFXSXSXa G.",
"IXuX`.[ a & u i C g Q o.k.Q.].+XI.%X6X. VXVXBXVXVXVXVXVXVXNXtXG.7.j I 3 + # JXDXCXAXAXCXLXLXLXyX",
"IXzXF S V V  . . .o.k.Q.].oX{.XX<X-X6X6Xl.o VXVXVXVXVXo X 4X| ! B.D.F.f.I s I # JXJXJXKXKXKX& zX",
"IXX *.,.q. .y.y.k.P.].].$XXX<Xb.-X-XeXiXqXkX. X l.l.. l.yX%Xu.u.c.B.D.5.S.5.j s s s s 2 @ @ @ X ",
"IX. h.q.j.j.P.Q.].].$XXX<X<X:X<X-X-Xb.T.[ PXH.qXuXiXJ.PX-.T.v.T.u.T.2.d.Z.Z.f.g.$.D $.M s w 7 X ",
"IXIXzX).^.).).].@X2X;X:X<XsX:X-X-Xb.T.T.T P z E E U v l ( m.N.m.T.u.T.b.B.d.Z.Z.f.f.$.$.8.G kXIX",
"IXIXNX#X^.].*X2X7X7XsX:X:X<X<X-X-Xb.T.m.~ h P P P P P h T m.T.T.p.2.T.c.v.2.d.S.Z.f.f.g.~.a.X IX",
"IXIXIX1X&X7X<XnXnXsXsX:X-X<X<X<XT.T.N.3.P P P ) ) ) P P ~ w.m.v.T.T.T.v.v.v.b.d.f.I.~.g.' fXIXIX",
"IXIXIXIXmXnXeX-XeXeX<X<X-X-Xv.T.T.2...T P W W P P P P P ~ w.4.m.T.2.v.v.T.b.b.v.v.r.I.I.1XIXIXIX",
"IXIXIXIXX cXeXeXsXsX:X<X<Xb.v.v.T.3.L ~ P ) ) ) W ) W W R T 3.4.2.2.v.T.b.b.T.v.b.b.i.~.X IXIXIX",
"IXIXIXIXIXlXxXeXeXsX:X-Xb.b.b.v.m...T h h W P P P P P P h X...` 2.T.b.N.T.v.v.b.-Xb.-XkXIXIXIXIX",
"IXIXIXIXIXIXbXeX X<X:Xb.v.T.b.2.w.T X.P P h h W W W W W h ~ L 3.N.N.N.T.v.v.b.-X-Xb.cXIXIXIXIXIX",
"IXIXIXIXIXIX. vX X:X-Xb.b.v.2.4...X.x W W P P P P P P P P ~ L ..w.T.v.v.-Xb.-X-XeX XX IXIXIXIXIX",
"IXIXIXIXIXIXIXX vX:Xb.T.b.2.4.` T ~ ~ P W W ) ) ) ) ) ) ) W X.X.#._ T.T.b.T.v.-XcX. IXIXIXIXIXIX",
"IXIXIXIXIXIXIXIX. cXv.b.2.2.w.L X.x h h h P W W W W W W W h h L #.4.T.T.T.v.-XxXIXIXIXIXIXIXIXIX",
"IXIXIXIXIXIXIXIXIXIX>Xv.2.` #.L ~ R W W W P P h h h h P h P ~ X.w.w.p.p.v.v.fXIXIXIXIXIXIXIXIXIX",
"IXIXIXIXIXIXIXIXIXIXX xXA ` ..~ h h h P W W W ) ) ) ) W ) W X.T K #.4.p.b.zX. IXIXIXIXIXIXIXIXIX",
"IXIXIXIXIXIXIXIXIXIXIXIXX [.T ~ l h h P h h l P P P P P h h h ~ T #.v  XX IXIXIXIXIXIXIXIXIXIXIX",
"IXIXIXIXIXIXIXIXIXIXIXIXIXIXX [.~ W h h h h W W W W W W P h h h v _.X IXIXIXIXIXIXIXIXIXIXIXIXIX",
"IXIXIXIXIXIXIXIXIXIXIXIXIXIXIXIXX . ;.z h P P P h P h P P z _.. . IXIXIXIXIXIXIXIXIXIXIXIXIXIXIX"
};
