/* XPM */
static char * linux_xpm[] = {
"48 20 580 2",
"  	c None",
". 	c #D0D0D0",
"+ 	c #CECECE",
"@ 	c #C7C7C7",
"# 	c #BEBEBE",
"$ 	c #C2C2C2",
"% 	c #CBCBCB",
"& 	c #CFCFCF",
"* 	c #CACACA",
"= 	c #CCCCCC",
"- 	c #D0D0CF",
"; 	c #D3D0C0",
"> 	c #E7D07A",
", 	c #F0C419",
"' 	c #D9B73A",
") 	c #CDC6A7",
"! 	c #CFCFCD",
"~ 	c #ACACAC",
"{ 	c #787878",
"] 	c #363636",
"^ 	c #606060",
"/ 	c #A5A5A5",
"( 	c #CDCDCD",
"_ 	c #B1B1B1",
": 	c #8E8E8E",
"< 	c #AAAAAA",
"[ 	c #7F7F7F",
"} 	c #BFBFBF",
"| 	c #D0D0CE",
"1 	c #D8D0B3",
"2 	c #EDCC55",
"3 	c #F1C30F",
"4 	c #E4BC23",
"5 	c #CEBF8A",
"6 	c #CFCDC7",
"7 	c #B8B8B8",
"8 	c #464645",
"9 	c #161616",
"0 	c #111111",
"a 	c #7D7D7B",
"b 	c #C0C0C0",
"c 	c #C1C1C1",
"d 	c #4A4A4A",
"e 	c #353535",
"f 	c #8A8A8A",
"g 	c #565656",
"h 	c #B7B7B7",
"i 	c #D0CEC8",
"j 	c #E2D192",
"k 	c #F1C725",
"l 	c #F3C206",
"m 	c #EDC013",
"n 	c #D2B961",
"o 	c #CFCCBF",
"p 	c #CBCBCA",
"q 	c #A3A399",
"r 	c #1E1E1C",
"s 	c #1F1F1D",
"t 	c #A9A9A0",
"u 	c #CECECC",
"v 	c #A8A8A8",
"w 	c #9F9F9F",
"x 	c #B5B5B5",
"y 	c #C9C9C9",
"z 	c #C6C6C6",
"A 	c #C8C8C8",
"B 	c #C5C5C5",
"C 	c #C4C4C4",
"D 	c #C6C7C8",
"E 	c #C2C3C5",
"F 	c #C3C4C5",
"G 	c #C4C5C8",
"H 	c #CDCECE",
"I 	c #D3CFBE",
"J 	c #EACE69",
"K 	c #F2C412",
"L 	c #F3C308",
"M 	c #F1C20E",
"N 	c #DBB93D",
"O 	c #D1CAB4",
"P 	c #B9B9AF",
"Q 	c #262624",
"R 	c #3B3B3B",
"S 	c #AEAEAC",
"T 	c #AFAFAF",
"U 	c #828282",
"V 	c #646464",
"W 	c #A4A4A4",
"X 	c #858585",
"Y 	c #696969",
"Z 	c #666666",
"` 	c #6F6F6F",
" .	c #B9B9B9",
"..	c #AEAEAE",
"+.	c #747474",
"@.	c #616161",
"#.	c #9A9A9A",
"$.	c #9F9FA0",
"%.	c #777B85",
"&.	c #535969",
"*.	c #585D6C",
"=.	c #ADAFB4",
"-.	c #B4B6BB",
";.	c #626B85",
">.	c #ACAFB7",
",.	c #CDCDCE",
"'.	c #D1D0CD",
").	c #DCD1A4",
"!.	c #EFC833",
"~.	c #F3C307",
"{.	c #F3C309",
"].	c #F3C30B",
"^.	c #E6BD20",
"/.	c #CFC08B",
"(.	c #CFCDC8",
"_.	c #CDCDCC",
":.	c #A1A19E",
"<.	c #252524",
"[.	c #5A5A5A",
"}.	c #BABABA",
"|.	c #B6B6B6",
"1.	c #393939",
"2.	c #181818",
"3.	c #585858",
"4.	c #2B2B2B",
"5.	c #1E1E1E",
"6.	c #1F1F1F",
"7.	c #8C8C8C",
"8.	c #3D3D3D",
"9.	c #141414",
"0.	c #595959",
"a.	c #2E2E2E",
"b.	c #343434",
"c.	c #7D7E7F",
"d.	c #595E6C",
"e.	c #444C5D",
"f.	c #31394E",
"g.	c #3E465B",
"h.	c #3F4860",
"i.	c #374365",
"j.	c #515B79",
"k.	c #BABCC1",
"l.	c #D2D0C8",
"m.	c #F2C417",
"n.	c #F3C30A",
"o.	c #F4C30A",
"p.	c #EEC014",
"q.	c #D1B961",
"r.	c #CFCBBD",
"s.	c #787873",
"t.	c #6E6E6E",
"u.	c #212121",
"v.	c #020202",
"w.	c #242424",
"x.	c #868686",
"y.	c #1C1C1C",
"z.	c #000000",
"A.	c #101010",
"B.	c #686868",
"C.	c #171717",
"D.	c #151515",
"E.	c #B9BABC",
"F.	c #A4A6AC",
"G.	c #4E5565",
"H.	c #293249",
"I.	c #3D4660",
"J.	c #9FA3AD",
"K.	c #B6B8BE",
"L.	c #CBCBCC",
"M.	c #D5D0BD",
"N.	c #EECB4B",
"O.	c #F2C30B",
"P.	c #F2C209",
"Q.	c #F0C00A",
"R.	c #EFC10F",
"S.	c #DBB93C",
"T.	c #CDC4A7",
"U.	c #727272",
"V.	c #B4B4B4",
"W.	c #080808",
"X.	c #525252",
"Y.	c #9D9D9D",
"Z.	c #040404",
"`.	c #333333",
" +	c #949494",
".+	c #222222",
"++	c #303030",
"@+	c #A3A3A3",
"#+	c #7D7D7D",
"$+	c #313131",
"%+	c #989898",
"&+	c #282828",
"*+	c #B3B3B3",
"=+	c #C0C1C3",
"-+	c #5C6372",
";+	c #384055",
">+	c #9FA2AA",
",+	c #CBCCCD",
"'+	c #D1CEC6",
")+	c #E3D18D",
"!+	c #F0C61F",
"~+	c #F3C304",
"{+	c #F0C208",
"]+	c #DCB218",
"^+	c #CAA421",
"/+	c #E2B816",
"(+	c #E6BD1D",
"_+	c #CDBD81",
":+	c #D0CEC9",
"<+	c #D0D0D1",
"[+	c #A9A9A9",
"}+	c #0C0C0C",
"|+	c #464646",
"1+	c #767676",
"2+	c #191919",
"3+	c #0E0E0E",
"4+	c #7B7B7B",
"5+	c #0A0A0A",
"6+	c #A6A6A6",
"7+	c #4E4E4E",
"8+	c #A2A2A2",
"9+	c #1D1D1D",
"0+	c #515151",
"a+	c #232323",
"b+	c #454545",
"c+	c #BFBFC1",
"d+	c #A7A9AE",
"e+	c #454C5E",
"f+	c #384053",
"g+	c #A7A9AF",
"h+	c #C0C2C5",
"i+	c #CECDCD",
"j+	c #D7D0B8",
"k+	c #EBCD5F",
"l+	c #EFC314",
"m+	c #E6BB10",
"n+	c #CBA929",
"o+	c #8D7839",
"p+	c #7D6C33",
"q+	c #D0AA16",
"r+	c #ECC00E",
"s+	c #D2B95A",
"t+	c #CDC9BB",
"u+	c #D0CFCF",
"v+	c #737373",
"w+	c #121212",
"x+	c #070707",
"y+	c #272727",
"z+	c #9B9B9B",
"A+	c #A0A0A0",
"B+	c #2D2D2D",
"C+	c #202020",
"D+	c #131313",
"E+	c #888888",
"F+	c #1B1B1B",
"G+	c #4B4B4B",
"H+	c #1A1A1A",
"I+	c #838385",
"J+	c #565B68",
"K+	c #494F60",
"L+	c #495060",
"M+	c #4B515F",
"N+	c #41485B",
"O+	c #495471",
"P+	c #B9BABB",
"Q+	c #DFD29E",
"R+	c #E8C431",
"S+	c #C6A42F",
"T+	c #473F24",
"U+	c #221F16",
"V+	c #2A2618",
"W+	c #917923",
"X+	c #DDB50F",
"Y+	c #DBB938",
"Z+	c #CFCECC",
"`+	c #3E3E3E",
" @	c #383838",
".@	c #4F4F4F",
"+@	c #323232",
"@@	c #969696",
"#@	c #636363",
"$@	c #818181",
"%@	c #494949",
"&@	c #424242",
"*@	c #959595",
"=@	c #373737",
"-@	c #414141",
";@	c #6A6A6A",
">@	c #2F2F2F",
",@	c #8D8E90",
"'@	c #4B505C",
")@	c #676970",
"!@	c #ABADB0",
"~@	c #424653",
"{@	c #4F5974",
"]@	c #C0BEB1",
"^@	c #E6CE70",
"/@	c #BEA13A",
"(@	c #524929",
"_@	c #201D17",
":@	c #151412",
"<@	c #100F0F",
"[@	c #12110F",
"}@	c #2A2514",
"|@	c #856F22",
"1@	c #D6B01F",
"2@	c #D0BF80",
"3@	c #CFCDC4",
"4@	c #ADADAD",
"5@	c #999999",
"6@	c #BCBCBC",
"7@	c #AFAEAD",
"8@	c #A6AAAD",
"9@	c #BCBBB9",
"0@	c #ABADAE",
"a@	c #8B9093",
"b@	c #A9A7A2",
"c@	c #BDBCB6",
"d@	c #BFBDB8",
"e@	c #A09E99",
"f@	c #ACAAA5",
"g@	c #B4B3AE",
"h@	c #9E9D97",
"i@	c #ACABA5",
"j@	c #C2C1BB",
"k@	c #B7B6B2",
"l@	c #BEBCB7",
"m@	c #CDCBC3",
"n@	c #CDCBC4",
"o@	c #B7B6B0",
"p@	c #BFBDB0",
"q@	c #E2D290",
"r@	c #E1BE34",
"s@	c #6F602D",
"t@	c #201E18",
"u@	c #514E4D",
"v@	c #797574",
"w@	c #797573",
"x@	c #6D6968",
"y@	c #232322",
"z@	c #2F2815",
"A@	c #AA8D25",
"B@	c #DBBD48",
"C@	c #D3CAA7",
"D@	c #D1CFCA",
"E@	c #D1D0CE",
"F@	c #C3C3C3",
"G@	c #C0BFBE",
"H@	c #C0BBB2",
"I@	c #C0BEBB",
"J@	c #A1B5CA",
"K@	c #9EB4CD",
"L@	c #A3BAD2",
"M@	c #9CB2CB",
"N@	c #9DB3CC",
"O@	c #97B4D4",
"P@	c #91AFCE",
"Q@	c #64A7ED",
"R@	c #6FA8E5",
"S@	c #75AAE5",
"T@	c #60A6EF",
"U@	c #D7C592",
"V@	c #E2D399",
"W@	c #E1D295",
"X@	c #DECF93",
"Y@	c #E0D093",
"Z@	c #E1D194",
"`@	c #DFCE8D",
" #	c #E1CF8E",
".#	c #E4D28F",
"+#	c #E4D28D",
"@#	c #E5D28C",
"##	c #E5D289",
"$#	c #EBD171",
"%#	c #F0C92E",
"&#	c #CEA91F",
"*#	c #443C1D",
"=#	c #343432",
"-#	c #A3A0A0",
";#	c #B4B1B1",
">#	c #B7B4B6",
",#	c #B6B3B4",
"'#	c #545251",
")#	c #1C1911",
"!#	c #887126",
"~#	c #E3BB18",
"{#	c #E6CB5E",
"]#	c #DDD0A3",
"^#	c #D8D1B6",
"/#	c #CECECD",
"(#	c #BAC2C8",
"_#	c #A3B6C9",
":#	c #82ADDB",
"<#	c #6BA2D9",
"[#	c #A1ABAD",
"}#	c #64A7EC",
"|#	c #5FA7F4",
"1#	c #6DA5D9",
"2#	c #D2B456",
"3#	c #E6C135",
"4#	c #F0C623",
"5#	c #F1C621",
"6#	c #F1C61E",
"7#	c #F1C51E",
"8#	c #F2C61D",
"9#	c #F1C51C",
"0#	c #F1C519",
"a#	c #F1C518",
"b#	c #F0C108",
"c#	c #C19E1E",
"d#	c #363019",
"e#	c #403E3C",
"f#	c #918D84",
"g#	c #797568",
"h#	c #7F7A66",
"i#	c #928D81",
"j#	c #58554F",
"k#	c #1C1A13",
"l#	c #7E6A26",
"m#	c #E4BA0A",
"n#	c #F2C518",
"o#	c #F0CA3F",
"p#	c #EECC52",
"q#	c #CFCECD",
"r#	c #A2B7CB",
"s#	c #5FA6F2",
"t#	c #60A7F3",
"u#	c #62A6ED",
"v#	c #62A5EC",
"w#	c #C8B88B",
"x#	c #CEB45C",
"y#	c #E4BB19",
"z#	c #F1C207",
"A#	c #F4C204",
"B#	c #F3C205",
"C#	c #F3C208",
"D#	c #F3C306",
"E#	c #F1C205",
"F#	c #C5A21D",
"G#	c #3C351C",
"H#	c #494430",
"I#	c #AD9E4D",
"J#	c #B9A63C",
"K#	c #BFA92C",
"L#	c #B7A544",
"M#	c #6D6136",
"N#	c #242013",
"O#	c #846E27",
"P#	c #E5BA09",
"Q#	c #F3C407",
"R#	c #F2C30D",
"S#	c #C8C9C7",
"T#	c #60A6F2",
"U#	c #A9B1AF",
"V#	c #C7C0A4",
"W#	c #C9C2A4",
"X#	c #C8C2A7",
"Y#	c #C5C3B9",
"Z#	c #C8C1AA",
"`#	c #CDB767",
" $	c #E1B924",
".$	c #F0C10D",
"+$	c #F3C305",
"@$	c #D6AD10",
"#$	c #483F1E",
"$$	c #292619",
"%$	c #8E7D22",
"&$	c #DABE13",
"*$	c #E3C50E",
"=$	c #A8931B",
"-$	c #3C3619",
";$	c #16140B",
">$	c #826C26",
",$	c #F3C408",
"'$	c #CECDCA",
")$	c #8DABC5",
"!$	c #86AFD8",
"~$	c #A7BDC9",
"{$	c #A9BEC9",
"]$	c #A9BECA",
"^$	c #B1C0CA",
"/$	c #CECCBD",
"($	c #D0D0C0",
"_$	c #CECEC0",
":$	c #CFCEC0",
"<$	c #CDC9AF",
"[$	c #CABA75",
"}$	c #DDB82E",
"|$	c #EEC010",
"1$	c #F4C308",
"2$	c #E2B808",
"3$	c #645523",
"4$	c #14120C",
"5$	c #322E18",
"6$	c #9C8B3A",
"7$	c #B29B3E",
"8$	c #47401F",
"9$	c #0E0D08",
"0$	c #0C0B06",
"a$	c #6D5D26",
"b$	c #E0B709",
"c$	c #F4C408",
"d$	c #BEC6CC",
"e$	c #62A7EF",
"f$	c #66A6E8",
"g$	c #9AB0C0",
"h$	c #A0BBD0",
"i$	c #AEBFC4",
"j$	c #CDCCBB",
"k$	c #D0D0C3",
"l$	c #D0D0CC",
"m$	c #D0D0C4",
"n$	c #D0D0C1",
"o$	c #D0D0C9",
"p$	c #CDCAB2",
"q$	c #C9BA82",
"r$	c #D5B338",
"s$	c #EDBF12",
"t$	c #DBB30F",
"u$	c #5E5227",
"v$	c #171612",
"w$	c #504F4D",
"x$	c #B2ADA3",
"y$	c #BFB9AC",
"z$	c #726F6E",
"A$	c #252424",
"B$	c #0B0A08",
"C$	c #453C1C",
"D$	c #CFA80B",
"E$	c #F2C305",
"F$	c #D0CFBF",
"G$	c #A2BAC9",
"H$	c #63A7EE",
"I$	c #A7B7B8",
"J$	c #B8C1BB",
"K$	c #CECCBC",
"L$	c #D0D0CA",
"M$	c #D0D0CB",
"N$	c #D0D0C2",
"O$	c #D0D0BF",
"P$	c #CDCBB6",
"Q$	c #C9BD8E",
"R$	c #D6B642",
"S$	c #EBBE15",
"T$	c #E5BB12",
"U$	c #907D37",
"V$	c #2B271C",
"W$	c #393733",
"X$	c #BFBEBD",
"Y$	c #F1F0F1",
"Z$	c #F4F4F4",
"`$	c #E1E0E1",
" %	c #908E8E",
".%	c #1D1A10",
"+%	c #897120",
"@%	c #E1B60B",
"#%	c #CFCFBD",
"$%	c #BEC2B5",
"%%	c #C2C2B0",
"&%	c #D0CEBB",
"*%	c #CECCB9",
"=%	c #C9BE95",
"-%	c #D1B041",
";%	c #EDBF11",
">%	c #F4C40A",
",%	c #F4C307",
"'%	c #EEC108",
")%	c #B0963B",
"!%	c #383321",
"~%	c #131211",
"{%	c #726E6C",
"]%	c #E7E7E6",
"^%	c #FFFFFF",
"/%	c #FDFDFD",
"(%	c #E0DFDF",
"_%	c #575656",
":%	c #100F0E",
"<%	c #322C15",
"[%	c #AB8C1F",
"}%	c #EBBE08",
". . + @ # $ % & . + * = @ + . . . . . . . . . . . . . . . . . . . . . . - ; > , ' ) ! . . . . . ",
". % ~ { ] ^ / * ( _ : < [ } . . . . . . . . . . . . . . . . . . . . . . | 1 2 3 4 5 6 . . . . . ",
"& 7 8 9 0 a b & c d e f g h . . . . . . . . . . . . . . . . . . . . . . i j k l m n o . . . . . ",
". p q r s t u . % v w x x y y z A B z + + @ C = + % % D E F + & G H . - I J K L M N O - . . . . ",
". | P Q R S + . = T U V W ~ X Y { Z `  ...+.@.W ..#.$.%.&.*.=.-.;.>.,.'.).!.~.{.].^./.(.. . . . ",
". _.:.<.[.}.+ & |.1.9 2.3.4.9 0 5.0 6.7.8.9.9 0.a.b.c.d.e.f.g.h.i.j.k.l.> m.L n.o.p.q.r.. . . . ",
". @ s.s t.h B + }.u.v.w.x.y.z.A.B.C.9 w B.A.D.7.6.2.W E.F.G.H.I.J.K.L.M.N.O.L P.Q.R.S.T.! . . . ",
". b 8 9.U.h y b V.u.W.X.Y.6.Z.`. +.+++@+#+2.$+%+.+&+*+& =+-+;+>+,+- '+)+!+~+{+]+^+/+(+_+:+<+. . ",
"( [+.+}+Y V.*+|+1+2+3+4+W 6.5+V 6+&+7+8+#+9+0+ +a+b+_ c+d+e+f+g+h+i+j+k+l+m+n+o+p+q+r+s+t+u+. . ",
"} v+w+x+y+z+A+B+{ 5.0 x.%+C+D+E+7..+3.4+{ 2+F+G+H+0.I+J+K+L+M+N+O+P+Q+R+S+p+T+U+V+W+X+Y+T.Z+. . ",
"U `+y. @.@3.b++@@@7+&+#@$@%@&@w t.w.b+*@W =@-@;@>@.@,@'@)@!@!@~@{@]@^@/@(@_@:@<@[@}@|@1@2@3@. . ",
"# < @+[+4@< 6+6+ .4@5@~ 6@7@8@9@0@a@b@c@d@e@f@g@h@i@j@k@l@m@n@o@p@q@r@s@t@u@v@w@x@y@z@A@B@C@D@E@",
". ( F@b G@H@I@J@K@L@M@N@O@P@Q@R@S@T@U@V@W@X@Y@Z@`@ #.#+#.#@#####$#%#&#*#=#-#;#>#,#'#)#!#~#{#]#^#",
". /#(#_#:#<#[#}#|#|#|#|#|#|#|#|#|#1#2#3#4#5#6#7#8#9#9#0#0#0#a#a#K b#c#d#e#f#g#h#i#j#k#l#m#n#o#p#",
"q#r#s#|#|#|#|#|#|#|#|#|#|#|#t#u#u#v#w#x#y#z#A#B#B#A#B#B#B#C#B#B#D#E#F#G#H#I#J#K#L#M#N#O#P#Q#n.R#",
"S#T#|#|#|#|#|#|#|#|#|#|#|#|#U#V#W#X#Y#Z#`# $.${.{.{.{.{.{.n.{.{.{.+$@$#$$$%$&$*$=$-$;$>$P#,${.{.",
"'$)$|#|#|#|#|#|#|#!$~${$]$^$/$($($($_$:$<$[$}$|$n.n.n.n.n.n.n.n.n.1$2$3$4$5$6$7$8$9$0$a$b$c$n.n.",
"d$e$|#|#|#f$g$h$i$j$($($k$l$m$($($($n$o$n$p$q$r$s$].n.n.n.n.n.n.{.+$t$u$v$w$x$y$z$A$B$C$D$E${.n.",
"F$G$|#H$I$J$K$n$($($n$k$L$| M$N$($($($N$($O$P$Q$R$S$].n.n.n.n.{.~+T$U$V$W$X$Y$Z$`$ %y@.%+%@%L n.",
"($#%$%%%&%n$M$l$N$n$M$l$m$k$N$($($($($($($($($*%=%-%;%>%n.n.n.,%'%)%!%~%{%]%^%^%/%(%_%:%<%[%}%{."};
