/* XPM */
static char *magick[] = {
/* columns rows colors chars-per-pixel */
"48 48 256 2",
"   c Gray0",
".  c #010101",
"X  c Gray1",
"o  c #0c0c0c",
"O  c #161616",
"+  c #1b1b1b",
"@  c #320000",
"#  c #350000",
"$  c #360000",
"%  c #380000",
"&  c #390000",
"*  c #3a0000",
"=  c #3c0000",
"-  c #3e0000",
";  c #272727",
":  c #2a2a2a",
">  c Gray19",
",  c #373737",
"<  c #393939",
"1  c #3c3c3c",
"2  c #3f3f3f",
"3  c #400000",
"4  c #410000",
"5  c #420000",
"6  c #470000",
"7  c #480000",
"8  c #4a0000",
"9  c #4d0000",
"0  c #510000",
"q  c #560000",
"w  c #590000",
"e  c #5c0000",
"r  c #5e0000",
"t  c #5c1b1b",
"y  c #610000",
"u  c #630000",
"i  c #650000",
"p  c #680000",
"a  c #6b0000",
"s  c #6f0000",
"d  c #680c08",
"f  c #690d09",
"g  c #6a0f0b",
"h  c #661d1d",
"j  c #710000",
"k  c #730000",
"l  c #750000",
"z  c #790000",
"x  c #7c0000",
"c  c #7e0000",
"v  c #762220",
"b  c #724d35",
"n  c #7f563c",
"m  c #414141",
"M  c #464646",
"N  c #494949",
"B  c #515151",
"V  c Gray33",
"C  c #585858",
"Z  c #606060",
"A  c Gray39",
"S  c #676767",
"D  c Gray43",
"F  c Gray46",
"G  c #797979",
"H  c #810000",
"J  c #860000",
"K  c #880000",
"L  c #8c0000",
"P  c #900000",
"I  c #920000",
"U  c #960000",
"Y  c #980000",
"T  c #9b0000",
"R  c #9d0000",
"E  c #9e0000",
"W  c #882222",
"Q  c #873e3a",
"!  c #9a2929",
"~  c #a20000",
"^  c #a40000",
"/  c #a70000",
"(  c #a90000",
")  c #ab0000",
"_  c #ae0000",
"`  c #b00000",
"'  c #b10000",
"]  c #b20000",
"[  c #b30000",
"{  c #b40000",
"}  c #b70000",
"|  c #b80000",
" . c #ba0000",
".. c #bb0000",
"X. c #bc0000",
"o. c #be0000",
"O. c #bf0000",
"+. c #a62c2c",
"@. c #ae2d2d",
"#. c #bb3232",
"$. c #84593e",
"%. c #a07239",
"&. c #875c40",
"*. c #885c40",
"=. c #885d41",
"-. c #895e42",
";. c #8f664b",
":. c #956d54",
">. c #9b765e",
",. c #9e7b64",
"<. c #c00000",
"1. c #c10000",
"2. c #c30000",
"3. c #c50000",
"4. c #c60000",
"5. c #c70000",
"6. c #c80000",
"7. c #c80101",
"8. c #c90303",
"9. c #c90404",
"0. c #c90606",
"q. c #ca0707",
"w. c #cd0303",
"e. c #ca0909",
"r. c #ca0a0a",
"t. c #cb0d0d",
"y. c #cb0f0f",
"u. c #cb1010",
"i. c #cc1212",
"p. c #cc1313",
"a. c #cd1616",
"s. c #cd1919",
"d. c #ce1b1b",
"f. c #ce1c1c",
"g. c #cf1f1f",
"h. c #d20000",
"j. c #d20404",
"k. c #d50e0e",
"l. c #d71717",
"z. c #d81c1c",
"x. c #cf2222",
"c. c #c63535",
"v. c #d02424",
"b. c #d02727",
"n. c #d12828",
"m. c #d12a2a",
"M. c #d22e2e",
"N. c #db2d2d",
"B. c #d23030",
"V. c #d33131",
"C. c #d33333",
"Z. c #d03636",
"A. c #d33434",
"S. c #d43737",
"D. c #d43939",
"F. c #d53a3a",
"G. c #d53c3c",
"H. c #d63f3f",
"J. c #dd3737",
"K. c #dc3939",
"L. c #d64242",
"P. c #d74545",
"I. c #de4444",
"U. c #d84949",
"Y. c #d84b4b",
"T. c #d94e4e",
"R. c #da5252",
"E. c #da5555",
"W. c #db5858",
"Q. c #dc5b5b",
"!. c #dc5d5d",
"~. c #c86262",
"^. c #dd6060",
"/. c #dd6161",
"(. c #dd6363",
"). c #de6666",
"_. c #df6969",
"`. c #df6c6c",
"'. c #e04545",
"]. c #e35555",
"[. c #e36262",
"{. c #e56666",
"}. c #e06e6e",
"|. c #e66969",
" X c #e07171",
".X c #e17676",
"XX c #e27979",
"oX c #e37b7b",
"OX c #e37c7c",
"+X c #e37f7f",
"@X c #8c8a32",
"#X c #989536",
"$X c #bbb842",
"%X c #c38b46",
"&X c #db9c4e",
"*X c #df9f50",
"=X c #e0a050",
"-X c #e0a051",
";X c #e1a355",
":X c #f8fc02",
">X c #f9fc27",
",X c #cecb49",
"<X c #e0dc4f",
"1X c #e4e051",
"2X c #e9e653",
"3X c #ebe854",
"4X c #eeea55",
"5X c #f1ed56",
"6X c #f4f057",
"7X c #f7f358",
"8X c #f8f458",
"9X c #f8f459",
"0X c #f8f45a",
"qX c #f8f45c",
"wX c #f8f45e",
"eX c #f8f561",
"rX c #f9f56a",
"tX c #f9f677",
"yX c #818181",
"uX c #848484",
"iX c #888888",
"pX c #8b8b8b",
"aX c #8d8d8d",
"sX c #8e8e8e",
"dX c Gray57",
"fX c #939393",
"gX c #979797",
"hX c #9a9a9a",
"jX c #9d9d9d",
"kX c #9f9f9f",
"lX c #a0a0a0",
"zX c Gray64",
"xX c Gray65",
"cX c Gray66",
"vX c #e48181",
"bX c #e48282",
"nX c #e58585",
"mX c #e58787",
"MX c #e58888",
"NX c #e68b8b",
"BX c #e78d8d",
"VX c #e79191",
"CX c #e79393",
"ZX c #e89595",
"AX c #e99a9a",
"SX c #ea9d9d",
"DX c #eba1a1",
"FX c #eba4a4",
"GX c #eca6a6",
"HX c #eda9a9",
"JX c #eeadad",
"KX c #eeb2b2",
"LX c #efb6b6",
"PX c #f0b8b8",
"IX c #f0baba",
"UX c None",
/* pixels */
"UXUXUXUXUXUXUXUXUXUXUXUXUXUXUXUXUXUXUXUXUXUXUXUXUXUXUXUXUXUXUXUXUXUXUXUXUXUXUXUXUXUXUXUXUXUXUXUX",
"UXUXUXUXUXUXUXUXUXUXUXUXUXUXUXUXUXUXUXUXUXUXUXUXUXUXUXUXUXUXUXUXUXUXUXUXUXUXUXUXUXUXUXUXUXUXUXUX",
"UXUXUXUXUXUXUXUXUXUXUXUXUXUXUXUXUXUXUXUXUXUXUXUXUXUXUXUXUXUXUXUXUXUXUXUXUXUXUXUXUXUXUXUXUXUXUXUX",
"UXUXUXUXUXUXUXUXUXUXUXUXUXUXUXzXkXgXfXsXsXsXsXsXsXsXsXsXsXpXyXG D UXUXUXUXUXUXUXUXUXUXUXUXUXUXUX",
"UXUXUXUXUXUXUXUXUXUXUXUXxXxXzXkXLXKXJXHXGXGXGXGXGXGXGXFXDXSXZXBXS Z Z C UXUXUXUXUXUXUXUXUXUXUXUX",
"UXUXUXUXUXUXUXUXUXUXcXxXzXPXPXLXKXZXBXnXvXvXvXvXvXvXvX+X+X.X}.nXnXvX+XV B N UXUXUXUXUXUXUXUXUXUX",
"UXUXUXUXUXUXUXUXcXcXzXPXPXLXAXVXnXoX}.).^.^.^.^.^.^.^.^.!.!.Q.W.W.W.oX.X XM m 2 UXUXUXUXUXUXUXUX",
"UXUXUXUXUXUXUXcXxXPXPXLXAXNXoX_.W.U.H.Q ,.V.V.V.V.V.V.V.V.V.A.D.L.U.U.U.`._.)., > UXUXUXUXUXUXUX",
"UXUXUXUXUXzXxXzXPXPXAXNX.X^.U.A.v.d.u.wXwX0.0.0.0.wX;X0.e.e.t.a.f.m.A.D.H.H.^.!.> ; + UXUXUXUXUX",
"UXUXUXUXhXkXPXPXLXVX+X^.P.tX:.t.e.0.=.0X0X=Xf 6.6.0X0Xf 6.6.6.0.e.u.d.x.m.tXA.Q.E.U.o   UXUXUXUX",
"UXUXUXUXgXKXKXAXNX`.T.V.f.eX;X  =X0X0Xf 6.0X0X8X0X0X0X6.6.6.5.6.6.6.e.t.a.rX>.>Xf.H.A.  UXUXUXUX",
"UXUXUXfXsXJXVX+X^.H.v.i.e.6.6.=.0X6.6.6.6.6.6.0X6.6.6.6.6.6.6.6.5.6.6.6.0.;.rXrXi.6.c.    UXUXUX",
"UXUXpXpXHXGX+XQ.S.d.t.0.6.6.6.6.=.8X6.6.6.6.0X6.6.6.6.6.6.6.6.6.6.6.5.6.f wXwXeXe.5.c.#.    UXUX",
"UXUXuXFXFX+X^.D.v wXf 6.6.6.6.6.6.0X6.6.6.0X=.6.6.6.6.6.6.0X0X  6.6.6.5.0X0X0X0X:X1.{ #.@.  UXUX",
"UXF F SX+X_.P.x.eX0X0X6.6.6.6.6.6.0X6.6.6.0X6.6.6.6.6.6.6.0X0X=X6.6.6.6.:X6.0X  0X=.| ^ +.    UX",
"UXZ VXVX}.R.M.i.0.f 0X6.6.6.6.6.6.6.=.6.6.6.6.6.6.6.6.6.6.0X6.6.6.6.6.  6.6.0X6.6.f | ^ ! W   UX",
"UXB vX^.W.D.d.e.6.f 0X  6.6.6.6.6.6.=X6.6.6.6.6.6.6.6.f 0X8X6.6.6.6.6.6.6.6.f 6.6.5.{ Y c v   UX",
"UXM .XR.P.m.t.6.6.$.0X0X0Xf 6.6.6.6.0X6.f 6.6.6.6.f =X0X=.0X  6.6.6.6.6.6.6.6.5.6.5.' I j h   UX",
"UX2 `.P.D.f.0.6.6.0X6.6.6.6.0X0X8X0X0X6.f 0X0X0X=X6.6.6.6.  0X  6.6.6.6.6.6.6.6.6.5.' L p t   UX",
"UX2 ).H.V.d.0.0X=.=.6.6.6.6.6.=.d f f 6.6.6.6.6.6.6.6.6.6.6.8X0X6.6.6.6.6.6.6.6.5.1._ K i t   UX",
"UX2 J.V.m.a.0.7X0X6.6.6.6.6.6.6.6.6.6.6.6.6.6.6.6.6.6.6.6.6.0X0X6.6.6.6.6.6.6.6.5.1.( H r 0   UX",
"UX, N.x.x.i.6.7X$.=X6.6.6.6.=.=.=X0X=X6.6.0X0X0X0X=.6.6.6.  0X6.6.6.6.6.6.6.6.5.5.o.~ z 0 8   UX",
"UX: z.a.i.e.5.5.5.7X  f 0X0X6.6.6.6.0X6.f 6.6.6.6.f 0X8X$.0X6.6.6.6.6.6.6.6.5.5.1.' I y 3 3   UX",
"UXO j.w.1.1.1.5.5.&.=X0X=.6.6.6.6.6.0X6.f 6.6.6.6.6.6.f 0X0X6.6.6.6.6.6.6.6.6.1.| ~ l 8 3 %   UX",
"UX    o.' | 1.1.5.f 7X6.6.6.6.6.6.6.=.6.6.6.6.6.6.6.6.6.f 0X6.6.6.6.6.6.6.5.5.o.( K q @ %     UX",
"UXUX  ' ' ( { o.5X6X7X5.5.6.6.6.6.=.6.6.6.0X6.6.6.6.6.6.6.0X0X=.6.6.6.5.5.5.1.' U p % = $   UXUX",
"UXUX    ( ( ^ ' 1X3X5X5.5.5.5.6.6.0X6.6.6.0Xd 6.6.6.6.6.6.0X8X  6.6.5.5.1.o.' Y s 3 3 $     UXUX",
"UXUXUX    R L I R b { o.1.5.5.5.$.0X6.6.6.=.0X6.6.6.6.6.6.6.6.6.5.5.5.1.| ( I p 3 @ %     UXUXUX",
"UXUXUXUX  I J j z J Y _ | 1.5.f 7X  6.6.6.6.0X=X6.6.6.6.6.6.5.5.5.1.o.' R H r % @ % $   UXUXUXUX",
"UXUXUXUX    l p s i c I ^ <X2X5X6X*X5.6.6.=X0X8X0X0X0X5.5.5.5.1.o.' ~ L p 8 @ 3 $ $     UXUXUXUX",
"UXUXUXUXUX      r i l j   $X    n 3X4X$.&X6X  5.5.7X7X5.1.o.{ ( Y J s 0 @ @ % $       UXUXUXUXUX",
"UXUXUXUXUXUXUX    c y p i @Xc L Y R   ,X%X| o.5.5.&.&.o.{ ^ I z y 8 @ @ = $ $     UXUXUXUXUXUXUX",
"UXUXUXUXUXUXUXUX      w w y q r i p   #X%.^ | 1.6.5.1.{ R c r 3 @ @ % $ $       UXUXUXUXUXUXUXUX",
"UXUXUXUXUXUXUXUXUXUX      9 8 8 % % 3 q l Y ' 1.6.5.| ^ c q @ 3 % $ $       UXUXUXUXUXUXUXUXUXUX",
"UXUXUXUXUXUXUXUXUXUXUXUX      $ % % 3 w H ( | 6.0.1._ L r 8 = $         UXUXUXUXUXUXUXUXUXUXUXUX",
"UXUXUXUXUXUXUXUXUXUXUXUXUXUXUX            1.0.i.0.| R j 3 =       UXUXUXUXUXUXUXUXUXUXUXUXUXUXUX",
"UXUXUXUXUXUXUXUXUXUXUXUXUXUXUXUXUXUXUXUX  z.v.f.6.^ c 9 @ $   UXUXUXUXUXUXUXUXUXUXUXUXUXUXUXUXUX",
"UXUXUXUXUXUXUXUXUXUXUXUXUXUXUXUXUXUXUXUX< '.H.d.' c 0 @ $ $   UXUXUXUXUXUXUXUXUXUXUXUXUXUXUXUXUX",
"UXUXUXUXUXUXUXUXUXUXUXUXUXUXUXUXUXUXUXZ |.].M.{ z 8 @ $ $   UXUXUXUXUXUXUXUXUXUXUXUXUXUXUXUXUXUX",
"UXUXUXUXUXUXUXUXUXUXUXUXUXUXUXUXUXUXUXyX{.S.{ j % @ $ $   UXUXUXUXUXUXUXUXUXUXUXUXUXUXUXUXUXUXUX",
"UXUXUXUXUXUXUXUXUXUXUXUXUXUXUXUXUXUXfX[.N.( i @ $ $ $   UXUXUXUXUXUXUXUXUXUXUXUXUXUXUXUXUXUXUXUX",
"UXUXUXUXUXUXUXUXUXUXUXUXUXUXUXUXfX~.I.k.I r $ $ $     UXUXUXUXUXUXUXUXUXUXUXUXUXUXUXUXUXUXUXUXUX",
"UXUXUXUXUXUXUXUXUXUXUXUXUXUXG D K.k._ z 8 $       UXUXUXUXUXUXUXUXUXUXUXUXUXUXUXUXUXUXUXUXUXUXUX",
"UXUXUXUXUXUXUXUXUXUX< m m 2 l.h.' J         UXUXUXUXUXUXUXUXUXUXUXUXUXUXUXUXUXUXUXUXUXUXUXUXUXUX",
"UXUXUXUXUXUXUXUXUXUXUX              UXUXUXUXUXUXUXUXUXUXUXUXUXUXUXUXUXUXUXUXUXUXUXUXUXUXUXUXUXUX",
"UXUXUXUXUXUXUXUXUXUXUXUXUXUXUXUXUXUXUXUXUXUXUXUXUXUXUXUXUXUXUXUXUXUXUXUXUXUXUXUXUXUXUXUXUXUXUXUX",
"UXUXUXUXUXUXUXUXUXUXUXUXUXUXUXUXUXUXUXUXUXUXUXUXUXUXUXUXUXUXUXUXUXUXUXUXUXUXUXUXUXUXUXUXUXUXUXUX",
"UXUXUXUXUXUXUXUXUXUXUXUXUXUXUXUXUXUXUXUXUXUXUXUXUXUXUXUXUXUXUXUXUXUXUXUXUXUXUXUXUXUXUXUXUXUXUXUX"
};
