/* XPM */
static char *magick[] = {
/* columns rows colors chars-per-pixel */
"48 48 151 2",
"   c Gray0",
".  c #010101",
"X  c Gray1",
"o  c #040404",
"O  c #060606",
"+  c #070707",
"@  c #090909",
"#  c #0c0c0c",
"$  c #101010",
"%  c #111111",
"&  c Gray7",
"*  c Gray9",
"=  c #1b1b1b",
"-  c Gray15",
";  c #272727",
":  c Gray17",
">  c #2c2c2c",
",  c Gray18",
"<  c #313131",
"1  c Gray21",
"2  c Gray22",
"3  c #3a3a3a",
"4  c Gray23",
"5  c #3c3c3c",
"6  c Gray24",
"7  c #3e3e3e",
"8  c Gray25",
"9  c #414141",
"0  c Gray26",
"q  c #444444",
"w  c Gray27",
"e  c Gray29",
"r  c #4b4b4b",
"t  c Gray30",
"y  c #4e4e4e",
"u  c #505050",
"i  c #515151",
"p  c Gray33",
"a  c Gray34",
"s  c Gray35",
"d  c #5a5a5a",
"f  c Gray36",
"g  c #5f5f5f",
"h  c #606060",
"j  c #626262",
"k  c Gray39",
"l  c Gray40",
"z  c #676767",
"x  c #686868",
"c  c Gray42",
"v  c Gray43",
"b  c #6f6f6f",
"n  c Gray44",
"m  c #717171",
"M  c #727272",
"N  c Gray45",
"B  c #747474",
"V  c Gray46",
"C  c Gray47",
"Z  c #797979",
"A  c Gray48",
"S  c #7b7b7b",
"D  c Gray49",
"F  c Gray",
"G  c Blue",
"H  c Red",
"J  c #808080",
"K  c #818181",
"L  c Gray51",
"P  c #838383",
"I  c #848484",
"U  c Gray52",
"Y  c #868686",
"T  c Gray53",
"R  c #898989",
"E  c Gray54",
"W  c Gray55",
"Q  c #8d8d8d",
"!  c #8e8e8e",
"~  c Gray56",
"^  c Gray57",
"/  c #929292",
"(  c #939393",
")  c #959595",
"_  c Gray59",
"`  c #979797",
"'  c #989898",
"]  c Gray60",
"[  c #9b9b9b",
"{  c Gray61",
"}  c Gray62",
"|  c #9f9f9f",
" . c Gray63",
".. c #a2a2a2",
"X. c #a4a4a4",
"o. c #a5a5a5",
"O. c Gray65",
"+. c #a7a7a7",
"@. c Gray66",
"#. c #a9a9a9",
"$. c #aaaaaa",
"%. c Gray67",
"&. c Gray68",
"*. c #b1b1b1",
"=. c Gray70",
"-. c #b4b4b4",
";. c #b6b6b6",
":. c #b7b7b7",
">. c #b9b9b9",
",. c Gray73",
"<. c Gray74",
"1. c Gray75",
"2. c #c0c0c0",
"3. c Gray76",
"4. c #c3c3c3",
"5. c #c5c5c5",
"6. c Gray79",
"7. c #cbcbcb",
"8. c #cecece",
"9. c Gray81",
"0. c Gray82",
"q. c #d2d2d2",
"w. c Gray83",
"e. c #d5d5d5",
"r. c #d8d8d8",
"t. c #dadada",
"y. c Gray86",
"u. c #dddddd",
"i. c Gray87",
"p. c Gray88",
"a. c #e1e1e1",
"s. c Gray89",
"d. c #e4e4e4",
"f. c #e7e7e7",
"g. c #e9e9e9",
"h. c #eaeaea",
"j. c #ececec",
"k. c Gray93",
"l. c #efefef",
"z. c Gray94",
"x. c Gray95",
"c. c #f3f3f3",
"v. c Gray96",
"b. c #f6f6f6",
"n. c #f8f8f8",
"m. c #f9f9f9",
"M. c #fbfbfb",
"N. c Gray99",
"B. c #fefefe",
"V. c Gray100",
"C. c None",
/* pixels */
"C.C.C.C.C.C.C.C.C.C.C.C.C.C.C.C.C.C.C.C.C.C.C.C.C.C.C.C.C.C.C.C.C.C.C.C.C.C.C.C.C.C.C.C.C.C.C.C.",
"C.C.C.C.C.C.C.C.C.C.C.C.C.C.C.C.C.C.C.C.C.C.C.C.C.C.C.C.C.C.C.C.C.C.C.C.C.C.C.C.C.C.C.C.C.C.C.C.",
"C.C.C.C.C.C.C.C.C.C.C.C.C.C.C.C.C.C.C.C.C.C.C.C.C.C.C.C.C.C.C.C.C.C.C.C.C.C.C.C.C.C.C.C.C.C.C.C.",
"C.C.C.C.C.C.C.C.C.C.C.C.C.C.C. .| ` ( W W W W W W W ( W W E L Z v C.C.C.C.C.C.C.C.C.C.C.C.C.C.C.",
"C.C.C.C.C.C.C.C.C.C.C.@.X.X. .| V.V.V.V.V.V.V.V.V.V.V.V.V.V.V.V.l j j d C.C.C.C.C.C.C.C.C.C.C.C.",
"C.C.C.C.C.C.C.C.C.C.@.X. .V.V.V.V.V.V.V.V.V.V.V.V.V.V.V.V.V.V.V.V.V.V.a u e C.C.C.C.C.C.C.C.C.C.",
"C.C.C.C.C.C.C.C.@.@. .V.V.V.V.V.V.V.V.V.V.V.V.V.V.V.V.V.V.V.V.V.V.V.V.V.V.w 9 7 C.C.C.C.C.C.C.C.",
"C.C.C.C.C.C.C.@.X.V.V.V.V.V.V.V.V.V.V.V.V.V.V.V.V.V.V.V.V.V.V.V.V.V.V.V.V.V.V.4 < C.C.C.C.C.C.C.",
"C.C.C.C.C.X.X.| V.V.V.V.V.V.V.V.V.V.V.V.V.V.V.V.V.V.V.V.V.V.V.V.V.V.$ V.V.V.V.V.> - = C.C.C.C.C.",
"C.C.C.C.[ | V.V.V.V.V.V.$ V.V.V.V.V.V.V.V.V.V.V.V.V.V.V.V.V.V.V.V.  V.O V.V.V.V.V.V.#   C.C.C.C.",
"C.C.C.C.` V.V.V.V.V.V.@ V.  V.V.V.V.V.V.V.V.V.V.V.V.V.V.V.V.V.V.  V.  V.V.V.V.V.V.V.V.  C.C.C.C.",
"C.C.C.( W V.V.V.V.V.O V.  V.  V.V.V.V.V.V.V.V.V.V.V.V.V.V.V.V.V.V.  V.  V.  V.V.V.V.n.    C.C.C.",
"C.C.W E V.V.V.V.V.O V.  V.  V.V.V.V.V.V.V.V.H H H H V.V.V.V.V.V.V.V.V.V.  V.  V.V.V.n.g.    C.C.",
"C.C.I V.V.V.V.V.  V.  V.  V.V.V.V.V.V.V.H H H H H H H H V.V.V.V.V.V.V.  V.  V.V.V.V.V.l.w.  C.C.",
"C.N V V.V.V.V.V.V.  V.  V.V.V.V.V.V.V.H H H H H H H H H H V.V.V.V.V.V.V.  V.V.V.V.V.V.l.9.    C.",
"C.g V.V.V.V.V.V.V.V.  V.V.V.V.V.V.V.H H H H H H H H H H H H V.V.V.V.V.V.V.V.V.V.V.V.V.d.3. .  C.",
"C.u V.V.V.V.V.V.V.V.V.V.V.V.V.V.V.V.H H H H H H H H H H H H V.V.V.V.V.V.V.V.V.V.V.V.n.p.>.(   C.",
"C.w V.V.V.V.V.V.V.V.V.V.V.V.V.V.V.H H H H H H H H H H G G H H V.V.V.V.V.V.V.V.V.V.V.V.p.*.I   C.",
"C.7 V.V.V.V.V.V.V.V.V.V.V.V.V.V.V.H H H H H H H H H G G G G H V.V.V.V.V.V.V.V.V.V.V.n.u.&.L   C.",
"C.7 V.V.V.V.V.V.V.V.V.V.V.V.V.V.V.G H H H H H H H G G G G G G V.V.V.V.V.V.V.V.V.V.V.n.u.&.L   C.",
"C.7 V.V.V.V.V.V.V.V.V.V.V.V.V.V.V.G G H H H H H H G G G G G G V.V.V.V.V.V.V.V.V.V.V.n.r.@.D   C.",
"C.1 V.V.V.V.V.V.V.V.V.V.V.V.V.V.V.V.G G H H H G G G G G G G V.V.V.V.V.V.V.V.V.V.V.V.b.w. .V   C.",
"C.: V.V.V.V.V.V.V.V.V.V.V.V.V.V.V.V.G G G G G G G G G G G G V.V.V.V.V.V.V.V.V.V.V.n.z.6.` c   C.",
"C.* V.V.V.V.V.V.V.V.V.V.V.V.V.V.V.V.V.G G G G G G G G G G V.V.V.V.V.V.  V.V.V.V.V.b.p.:.Z u   C.",
"C.    b.n.n.n.V.V.V.V.  V.V.V.V.V.V.V.V.G G G G G G G G V.V.V.V.V.V.  V.  V.V.V.n.l.6.( a     C.",
"C.C.  p.g.z.n.V.V.V.  V.  V.V.V.V.V.V.V.V.V.G G G G V.V.V.V.V.V.V.V.V.  V.  V.V.z.r.@.c 9   C.C.",
"C.C.    r.g.z.n.V.  V.  V.  V.V.V.V.V.V.V.V.V.V.V.V.V.V.V.V.V.V.  V.V.V.  V.n.b.p.>.D w     C.C.",
"C.C.C.    0.u.g.z.n.  V.V.V.  V.V.V.V.V.V.V.V.V.V.V.V.V.V.V.V.  V.  V.V.V.n.z.p.<.E y     C.C.C.",
"C.C.C.C.  :.<.9.u.l.b.  V.  V.  V.V.V.V.V.V.V.V.V.V.V.V.V.V.V.V.  V.  n.b.g.w.:.I u 9   C.C.C.C.",
"C.C.C.C.    [ X.>.0.p.l.  n.  V.V.V.V.V.V.V.V.V.V.V.V.V.V.V.V.V.V.  b.l.u.5.| N 9 9     C.C.C.C.",
"C.C.C.C.C.      W X.<.0.p.  z.b.n.n.V.V.V.V.V.V.V.V.V.V.V.V.V.n.b.l.p.6.@.L d 9       C.C.C.C.C.",
"C.C.C.C.C.C.C.    D W | *.3.9.u.d.l.b.n.n.V.V.V.V.V.V.V.n.b.l.d.w.3.@.I j 9 9     C.C.C.C.C.C.C.",
"C.C.C.C.C.C.C.C.      v Z I ` @.>.5.0.u.d.z.n.V.V.V.V.n.z.p.9.:.` Z d 9 9       C.C.C.C.C.C.C.C.",
"C.C.C.C.C.C.C.C.C.C.      a g c Z I | :.0.g.n.V.V.V.n.z.u.<.[ N y 7 9       C.C.C.C.C.C.C.C.C.C.",
"C.C.C.C.C.C.C.C.C.C.C.C.      $ y g V [ 3.p.n.V.V.n.z.r.:.E a 9         C.C.C.C.C.C.C.C.C.C.C.C.",
"C.C.C.C.C.C.C.C.C.C.C.C.C.C.C.            l.V.V.V.z.r.:.L y       C.C.C.C.C.C.C.C.C.C.C.C.C.C.C.",
"C.C.C.C.C.C.C.C.C.C.C.C.C.C.C.C.C.C.C.C.  V.V.V.z.r.:.L y 9   C.C.C.C.C.C.C.C.C.C.C.C.C.C.C.C.C.",
"C.C.C.C.C.C.C.C.C.C.C.C.C.C.C.C.C.C.C.C.- V.V.V.u.*.L y 9 $   C.C.C.C.C.C.C.C.C.C.C.C.C.C.C.C.C.",
"C.C.C.C.C.C.C.C.C.C.C.C.C.C.C.C.C.C.C.a L V.V.d.*.D e 9 $   C.C.C.C.C.C.C.C.C.C.C.C.C.C.C.C.C.C.",
"C.C.C.C.C.C.C.C.C.C.C.C.C.C.C.C.C.C.C.V V.V.z.@.v 9 9 $   C.C.C.C.C.C.C.C.C.C.C.C.C.C.C.C.C.C.C.",
"C.C.C.C.C.C.C.C.C.C.C.C.C.C.C.C.C.C.E [ V.l.| d 9 9 $   C.C.C.C.C.C.C.C.C.C.C.C.C.C.C.C.C.C.C.C.",
"C.C.C.C.C.C.C.C.C.C.C.C.C.C.C.C.E Z E V.w.I e 9 9     C.C.C.C.C.C.C.C.C.C.C.C.C.C.C.C.C.C.C.C.C.",
"C.C.C.C.C.C.C.C.C.C.C.C.C.C.N l I V.l.@.c 9       C.C.C.C.C.C.C.C.C.C.C.C.C.C.C.C.C.C.C.C.C.C.C.",
"C.C.C.C.C.C.C.C.C.C.4 9 9 4 j V.u.>         C.C.C.C.C.C.C.C.C.C.C.C.C.C.C.C.C.C.C.C.C.C.C.C.C.C.",
"C.C.C.C.C.C.C.C.C.C.C.              C.C.C.C.C.C.C.C.C.C.C.C.C.C.C.C.C.C.C.C.C.C.C.C.C.C.C.C.C.C.",
"C.C.C.C.C.C.C.C.C.C.C.C.C.C.C.C.C.C.C.C.C.C.C.C.C.C.C.C.C.C.C.C.C.C.C.C.C.C.C.C.C.C.C.C.C.C.C.C.",
"C.C.C.C.C.C.C.C.C.C.C.C.C.C.C.C.C.C.C.C.C.C.C.C.C.C.C.C.C.C.C.C.C.C.C.C.C.C.C.C.C.C.C.C.C.C.C.C.",
"C.C.C.C.C.C.C.C.C.C.C.C.C.C.C.C.C.C.C.C.C.C.C.C.C.C.C.C.C.C.C.C.C.C.C.C.C.C.C.C.C.C.C.C.C.C.C.C."
};
