/* XPM */
static char *magick[] = {
/* columns rows colors chars-per-pixel */
"48 48 239 2",
"   c Gray0",
".  c #0c0c0c",
"X  c #161616",
"o  c #1b1b1b",
"O  c #272727",
"+  c #2a2a2a",
"@  c Gray18",
"#  c #313131",
"$  c Gray21",
"%  c #373737",
"&  c #393939",
"*  c #3c3c3c",
"=  c Gray24",
"-  c #3f3f3f",
";  c #000051",
":  c #000057",
">  c #000068",
",  c #000075",
"<  c #00007b",
"1  c #00007e",
"2  c #400000",
"3  c #420000",
"4  c #440000",
"5  c #470000",
"6  c #4a0000",
"7  c #4e0000",
"8  c #500000",
"9  c #590000",
"0  c #5a0000",
"q  c #5d0000",
"w  c #620000",
"e  c #630000",
"r  c #6b0000",
"t  c #6c0000",
"y  c #6f0000",
"u  c #710000",
"i  c #720000",
"p  c #740000",
"a  c #750000",
"s  c #780000",
"d  c #7a0000",
"f  c #7d0000",
"g  c #7e0000",
"h  c Gray25",
"j  c Gray26",
"k  c Gray27",
"l  c #464646",
"z  c #494949",
"x  c #515151",
"c  c Gray33",
"v  c #585858",
"b  c #606060",
"n  c Gray39",
"m  c #676767",
"M  c #6d6d6d",
"N  c #6f6f6f",
"B  c Gray45",
"V  c #767676",
"C  c Gray47",
"Z  c #797979",
"A  c #000080",
"S  c #000081",
"D  c #000087",
"F  c #000092",
"G  c #000095",
"H  c #0000a1",
"J  c #0000a2",
"K  c #0000aa",
"L  c #0000ad",
"P  c #0000b3",
"I  c #0000b4",
"U  c #0000b9",
"Y  c #0000c3",
"T  c #0000c9",
"R  c #0000cb",
"E  c #0000cf",
"W  c #0000d5",
"Q  c #0000db",
"!  c #0000dd",
"~  c #0000de",
"^  c #0000e0",
"/  c #0000e1",
"(  c #0000e3",
")  c #0000e7",
"_  c #0000ec",
"`  c #0000ed",
"'  c #0000f0",
"]  c #0000f5",
"[  c #0000f6",
"{  c #0000f8",
"}  c #0000f9",
"|  c #0000fb",
" . c #0000fc",
".. c #0000fe",
"X. c Blue",
"o. c #0101ff",
"O. c #0303ff",
"+. c #0404ff",
"@. c #0606ff",
"#. c #0909ff",
"$. c #0f0fff",
"%. c #1010ff",
"&. c #1212ff",
"*. c #1313ff",
"=. c #1515ff",
"-. c #1818ff",
";. c #1b1bff",
":. c #1c1cff",
">. c #2121ff",
",. c #2222ff",
"<. c #2727ff",
"1. c #2b2bff",
"2. c #3030ff",
"3. c #3131ff",
"4. c #3333ff",
"5. c #3434ff",
"6. c #3a3aff",
"7. c #3c3cff",
"8. c #3d3dff",
"9. c #4545ff",
"0. c #4646ff",
"q. c #5151ff",
"w. c #5555ff",
"e. c #5858ff",
"r. c #6363ff",
"t. c #6f6fff",
"y. c #800000",
"u. c #830000",
"i. c #840000",
"p. c #860000",
"a. c #890000",
"s. c #8a0000",
"d. c #8d0000",
"f. c #8f0000",
"g. c #920000",
"h. c #960000",
"j. c #980000",
"k. c #9b0000",
"l. c #9c0000",
"z. c #9f0000",
"x. c #a10000",
"c. c #a50000",
"v. c #a70000",
"b. c #a80000",
"n. c #aa0000",
"m. c #ab0000",
"M. c #ad0000",
"N. c #b10000",
"B. c #b30000",
"V. c #b40000",
"C. c #b60000",
"Z. c #b70000",
"A. c #b90000",
"S. c #ba0000",
"D. c #bd0000",
"F. c #bf0000",
"G. c #c20000",
"H. c #c50000",
"J. c #c60000",
"K. c #c90000",
"L. c #cb0000",
"P. c #ce0000",
"I. c #d10000",
"U. c #d20000",
"Y. c #d50000",
"T. c #d80000",
"R. c #da0000",
"E. c #db0000",
"W. c #de0000",
"Q. c #e00000",
"!. c #e10000",
"~. c #e30000",
"^. c #e40000",
"/. c #e70000",
"(. c #e90000",
"). c #ea0000",
"_. c #ec0000",
"`. c #ed0000",
"'. c #ef0000",
"]. c #f00000",
"[. c #f20000",
"{. c #f30000",
"}. c #f50000",
"|. c #f60000",
" X c #f80000",
".X c #f90000",
"XX c #fb0000",
"oX c #fc0000",
"OX c #fe0000",
"+X c Red",
"@X c #ff0101",
"#X c #ff0303",
"$X c #ff0404",
"%X c #ff0707",
"&X c #ff0d0d",
"*X c #ff0f0f",
"=X c #ff1515",
"-X c #ff1818",
";X c #ff1919",
":X c #ff2121",
">X c #ff2525",
",X c #ff2727",
"<X c #ff2828",
"1X c #ff3939",
"2X c #ff3c3c",
"3X c #ff4b4b",
"4X c #ff5555",
"5X c #ff5d5d",
"6X c #ff5e5e",
"7X c #ff6767",
"8X c #ff7373",
"9X c #818181",
"0X c Gray51",
"qX c #848484",
"wX c #888888",
"eX c #8b8b8b",
"rX c #8d8d8d",
"tX c #8e8e8e",
"yX c Gray57",
"uX c #939393",
"iX c #979797",
"pX c #9a9a9a",
"aX c Gray61",
"sX c #9d9d9d",
"dX c #9f9f9f",
"fX c #a0a0a0",
"gX c #a2a2a2",
"hX c Gray64",
"jX c #a5a5a5",
"kX c Gray65",
"lX c Gray66",
"zX c #d5d5d5",
"xX c #e9e9e9",
"cX c #ececec",
"vX c #f9f9f9",
"bX c #fbfbfb",
"nX c Gray99",
"mX c Gray100",
"MX c None",
/* pixels */
"MXMXMXMXMXMXMXMXMXMXMXMXMXMXMXMXMXMXMXMXMXMXMXMXMXMXMXMXMXMXMXMXMXMXMXMXMXMXMXMXMXMXMXMXMXMXMXMX",
"MXMXMXMXMXMXMXMXMXMXMXMXMXMXMXMXMXMXMXMXMXMXMXMXMXMXMXMXMXMXMXMXMXMXMXMXMXMXMXMXMXMXMXMXMXMXMXMX",
"MXMXMXMXMXMXMXMXMXMXMXMXMXMXMXMXMXMXMXMXMXMXMXMXMXMXMXMXMXMXMXMXMXMXMXMXMXMXMXMXMXMXMXMXMXMXMXMX",
"MXMXMXMXMXMXMXMXMXMXMXMXMXMXMXhXdXiXuXtXtXtXtXtXtXtXtXtXtXeX9XC N MXMXMXMXMXMXMXMXMXMXMXMXMXMXMX",
"MXMXMXMXMXMXMXMXMXMXMXMXkXkXhXaXmXmXmXmXmXmXmXmXmXmXmXmXmXmXmXmXm b b v MXMXMXMXMXMXMXMXMXMXMXMX",
"MXMXMXMXMXMXMXMXMXMXlXkXhXmXmXmXmXmXmXmXmXmXmXmXmXmXmXmXmXmXmXmXmXmXmXc x z MXMXMXMXMXMXMXMXMXMX",
"MXMXMXMXMXMXMXMXlXlXhXmXmXmXmXmXmXmXmXmXmXmXmXmXmXmXmXmXmXmXmXmXmXmXmXmXmXl h - MXMXMXMXMXMXMXMX",
"MXMXMXMXMXMXMXlXkXmXmXmXmXmXmXmXmXmXmXmXmXmXmXmXmXmXmXmXmXmXmXmXmXmXmXmXmXmXmX$ # MXMXMXMXMXMXMX",
"MXMXMXMXMXhXkXhXmXmXmXmXmXmXmXmXmXmXmXmXmXmXmXmXmXmXmXmXmXmXmXmXmXmXmXmXmXmXmXmX@ O o MXMXMXMXMX",
"MXMXMXMXpXdXmXmXmXmXmXmXmXmXmXmXmXmXmXmXmXmXmXmXmXmXmXmXmXmXmXmXmXmXmXmXmXmXmXmXmXmX.   MXMXMXMX",
"MXMXMXMXiXmXmXmXmX,X=.#.O.O.O.O.O.O.O.@XmXmXmXmXmXmXmXmXmXmXmXmXmXmXmXmXmXmXmXmXmXmXmX  MXMXMXMX",
"MXMXMXuXtXmXmXmXmX*X@.O.O.O.O.O.O.O.O.@XmXmXmXmXmXmXmXmXmXmXmXmXmXmXmXmXmXmXmXmXmXmXbX    MXMXMX",
"MXMXeXeXmXmXmXmXmX$XO.O.O.O.O.O.O.O.O.@XmXmXmXmXmXmXmXmXmXmXmXmXmXmXmXmXmXmXmXmXmXmXbXxX    MXMX",
"MXMXqXmXmXmXmXmXmX@XO.O.O.O.mXO.O.O.O.@XmXmXmXmXmXmXmXmXmXmXmXmXmXmXmXmXmXmXmXmXmXmXmXcXzX  MXMX",
"MXB V t.w.2.*.@.O.@XO.O.O.mXmXmXO.O.O.@XO.O.O.O.O.O.O.O.O.O.O.O.O.O.O.O.O.O.O.O.O.O.O._ E     MX",
"MXb r.e.8.;.#.O.O.@XO.mXmXmXmXmXmXmXO.@XO.O.O.O.O.O.O.O.O.O.O.O.O.O.O.O.O.O.O.O.O.O.O.) Y J   MX",
"MXx q.0.1.$.O.O.O.@XmXmXmXmXmXmXmXmXmX@XO.O.O.O.O.O.O.O.O.O.O.O.O.O.O.O.O.O.O.O.O.O.{ ( U F   MX",
"MXl 0.6.>.@.O.O.O.@XmXmXmXmXmXmXmXmXmX@XO.O.O.O.O.O.O.O.O.O.O.O.O.O.O.O.O.O.O.O.O.O.{ ( P D   MX",
"MX- 8.5.:.@.O.O.O.O.@XmXmXmXmXmXmXmX@XO.O.O.O.O.O.O.O.O.O.O.O.O.O.O.O.O.O.O.O.O.O.O.{ ~ L A   MX",
"MX- 8.2.:.@.O.O.O.O.O.@XmXmXmXmXmX@XO.O.O.O.O.O.O.O.O.O.O.O.O.O.O.O.O.O.O.O.O.O.O.O.{ ~ L A   MX",
"MX- 6.2.;.@.O.O.O.O.O.O.@X@X@X@X@XO.O.O.O.O.O.O.O.O.O.O.O.O.O.O.O.O.O.O.O.O.O.O.O.O.{ Q K 1   MX",
"MX$ 2.1.;.O.O.O.O.O.O.O.O.O.O.O.O.O.O.O.O.O.O.O.O.O.O.O.O.O.O.O.O.O.O.O.O.O.O.O.O.O.] W J ,   MX",
"MX+ <.>.*.O.O.O.O.O.O.O.O.O.O.O.O.O.O.O.O.O.O.O.O.O.O.O.O.O.O.O.O.O.O.O.O.O.O.O.O.O._ T G >   MX",
"MXX *.*.@.O.O.O.O.O.O.O.O.O.O.O.O.O.O.O.O.O.O.O.O.O.O.O.O.O.O.O.O.O.O.O.O.O.O.O.O.] ( I < ;   MX",
"MX    ] { { { O.O.O.O.O.O.O.O.O.O.O.O.O.O.O.O.O.O.O.O.O.O.O.O.O.O.O.O.O.O.O.O.O.{ _ T F :     MX",
"MXMX  ~.(.[.XX@X@X@X@X@X@X@X@X@X@X@X@X@X@X@X@X@X@X@X@X@X@X@X@X@X@X@X@X@X@X@X@XXX[.E.b.r 2   MXMX",
"MXMX    E./.[.XX@X@X@X@X@X@X@X@X@X@X@X@X@X@X@X@X@X@X@X@X@X@X@X@X@X@X@X@X@X@XXX|.~.A.f 5     MXMX",
"MXMXMX    I.W.(.[.|.@X@X@X@X@X@X@X@X@X@X@X@X@X@X@X@X@X@X@X@X@X@X@X@X@X@XXX|.`.~.D.s.7     MXMXMX",
"MXMXMXMX  C.D.P.W.`.|.XX@X@X@X@X@X@X@X@X@X@X@X@X@X@X@X@X@X@X@X@X@X@X@XXX|.(.Y.C.i.8 2   MXMXMXMX",
"MXMXMXMX    k.c.A.I.~.`.|.XX@X@X@X@X@X@X@X@X@X@X@X@X@X@X@X@X@X@X@XXX|.`.W.H.z.u 2 2     MXMXMXMX",
"MXMXMXMXMX      d.c.D.I.~.`.|.XX@X@X@X@X@X@X@X@X@X@X@X@X@X@XXXXX|.`.~.L.b.i.9 2       MXMXMXMXMX",
"MXMXMXMXMXMXMX    f d.x.C.L.E./.`.[.|.|.XX@X@X@X@X@X@X@XXX|.`.~.Y.G.c.i.w 2 2     MXMXMXMXMXMXMX",
"MXMXMXMXMXMXMXMX      u y.g.c.C.D.L.I.E./.[.XX@X@X@X@XXX[.~.P.C.h.s 9 2 2       MXMXMXMXMXMXMXMX",
"MXMXMXMXMXMXMXMXMXMX      w t a f s.k.B.I.(.XX@X@X@XXX|.~.H.k.a 7 2 2       MXMXMXMXMXMXMXMXMXMX",
"MXMXMXMXMXMXMXMXMXMXMXMX      5 6 9 u k.H./.XX@X@X@XXX(.L.k.w 2         MXMXMXMXMXMXMXMXMXMXMXMX",
"MXMXMXMXMXMXMXMXMXMXMXMXMXMXMX            |.$X$X@X@X`.I.x.w       MXMXMXMXMXMXMXMXMXMXMXMXMXMXMX",
"MXMXMXMXMXMXMXMXMXMXMXMXMXMXMXMXMXMXMXMX  =X;X*X@X[.E.M.t 2   MXMXMXMXMXMXMXMXMXMXMXMXMXMXMXMXMX",
"MXMXMXMXMXMXMXMXMXMXMXMXMXMXMXMXMXMXMXMX& 1X<X*X|.E.B.a 2 2   MXMXMXMXMXMXMXMXMXMXMXMXMXMXMXMXMX",
"MXMXMXMXMXMXMXMXMXMXMXMXMXMXMXMXMXMXMXb 5X3X,XXXI.b.u 2 2   MXMXMXMXMXMXMXMXMXMXMXMXMXMXMXMXMXMX",
"MXMXMXMXMXMXMXMXMXMXMXMXMXMXMXMXMXMXMX9X7X1XXXD.d.q 2 2   MXMXMXMXMXMXMXMXMXMXMXMXMXMXMXMXMXMXMX",
"MXMXMXMXMXMXMXMXMXMXMXMXMXMXMXMXMXMXuX8X2X`.x.r 2 2 2   MXMXMXMXMXMXMXMXMXMXMXMXMXMXMXMXMXMXMXMX",
"MXMXMXMXMXMXMXMXMXMXMXMXMXMXMXMXuX9X5X;XH.s 2 2 2     MXMXMXMXMXMXMXMXMXMXMXMXMXMXMXMXMXMXMXMXMX",
"MXMXMXMXMXMXMXMXMXMXMXMXMXMXC N 4X:XE.d.8 2       MXMXMXMXMXMXMXMXMXMXMXMXMXMXMXMXMXMXMXMXMXMXMX",
"MXMXMXMXMXMXMXMXMXMX& h h - ,X@XL.s.        MXMXMXMXMXMXMXMXMXMXMXMXMXMXMXMXMXMXMXMXMXMXMXMXMXMX",
"MXMXMXMXMXMXMXMXMXMXMX              MXMXMXMXMXMXMXMXMXMXMXMXMXMXMXMXMXMXMXMXMXMXMXMXMXMXMXMXMXMX",
"MXMXMXMXMXMXMXMXMXMXMXMXMXMXMXMXMXMXMXMXMXMXMXMXMXMXMXMXMXMXMXMXMXMXMXMXMXMXMXMXMXMXMXMXMXMXMXMX",
"MXMXMXMXMXMXMXMXMXMXMXMXMXMXMXMXMXMXMXMXMXMXMXMXMXMXMXMXMXMXMXMXMXMXMXMXMXMXMXMXMXMXMXMXMXMXMXMX",
"MXMXMXMXMXMXMXMXMXMXMXMXMXMXMXMXMXMXMXMXMXMXMXMXMXMXMXMXMXMXMXMXMXMXMXMXMXMXMXMXMXMXMXMXMXMXMXMX"
};
