/* XPM */
static char *magick[] = {
/* columns rows colors chars-per-pixel */
"48 48 256 2",
"   c Gray0",
".  c #0d0300",
"X  c #0c0c0c",
"o  c #001d00",
"O  c Gray9",
"+  c #1b1b1b",
"@  c #002700",
"#  c #002800",
"$  c #003600",
"%  c #003b00",
"&  c #371911",
"*  c #272727",
"=  c Gray17",
"-  c Gray18",
";  c #313131",
":  c #343434",
">  c Gray21",
",  c #3c3c3c",
"<  c Gray24",
"1  c #3e3e3e",
"2  c #004500",
"3  c #004b00",
"4  c #004e00",
"5  c #005100",
"6  c #005600",
"7  c #006100",
"8  c #006400",
"9  c #006700",
"0  c #006e00",
"q  c #007100",
"w  c #007700",
"e  c #007b00",
"r  c #007e00",
"t  c #400000",
"y  c #460000",
"u  c #4a0000",
"i  c #4e0000",
"p  c #510000",
"a  c #570000",
"s  c #5a0000",
"d  c #620000",
"f  c #6b0000",
"g  c #6e0000",
"h  c #720000",
"j  c #750000",
"k  c #7b0000",
"l  c #7e0000",
"z  c Gray25",
"x  c #444444",
"c  c Gray27",
"v  c Gray29",
"b  c #515151",
"n  c #535353",
"m  c Gray35",
"M  c #5f5f5f",
"N  c #7b6159",
"B  c Gray38",
"V  c Gray40",
"C  c #686868",
"Z  c #6d6d6d",
"A  c #727272",
"S  c Gray46",
"D  c #797979",
"F  c Gray49",
"G  c Gray",
"H  c #008100",
"J  c #008600",
"K  c #008900",
"L  c #008d00",
"P  c #009000",
"I  c #009100",
"U  c #009500",
"Y  c #009600",
"T  c #009800",
"R  c #009900",
"E  c #009a00",
"W  c #019a01",
"Q  c #039b03",
"!  c #049c04",
"~  c #069c06",
"^  c #099e09",
"/  c #0a9e0a",
"(  c #0fa00f",
")  c #10a010",
"_  c #12a112",
"`  c #16a316",
"'  c #19a419",
"]  c #1fa61f",
"[  c #389238",
"{  c #22a722",
"}  c #24a824",
"|  c #27a927",
" . c #2bab2b",
".. c #30ad30",
"X. c #33ae33",
"o. c #35af35",
"O. c #3cb23c",
"+. c #43b543",
"@. c #49b749",
"#. c #4bb84b",
"$. c #54a154",
"%. c #51ba51",
"&. c #59be59",
"*. c #64c264",
"=. c #6fc66f",
"-. c #79ca79",
";. c #7fcc7f",
":. c #840000",
">. c #890000",
",. c #920000",
"<. c #960000",
"1. c #980000",
"2. c #9b0000",
"3. c #9c0000",
"4. c #a10000",
"5. c #a60000",
"6. c #ab0000",
"7. c #b30000",
"8. c #b40000",
"9. c #b70000",
"0. c #ba0000",
"q. c #be0000",
"w. c #c30000",
"e. c #c90000",
"r. c #cb0000",
"t. c #ce0000",
"y. c #d10000",
"u. c #d50000",
"i. c #d80000",
"p. c #db0000",
"a. c #de0000",
"s. c #e00000",
"d. c #e10000",
"f. c #e30000",
"g. c #e40000",
"h. c #e70000",
"j. c #e90000",
"k. c #ea0000",
"l. c #ec0000",
"z. c #ed0000",
"x. c #ef0000",
"c. c #f20000",
"v. c #f30000",
"b. c #f50000",
"n. c #f60000",
"m. c #f80000",
"M. c #f90000",
"N. c #fb0000",
"B. c #fc0000",
"V. c #fe0000",
"C. c Red",
"Z. c #ff0101",
"A. c #ff0303",
"S. c #ff0404",
"D. c #ff0606",
"F. c #ff0707",
"G. c #ff0909",
"H. c #ff0a0a",
"J. c #ff0c0c",
"K. c #ff0d0d",
"L. c #ff1010",
"P. c #ff1212",
"I. c #ff1313",
"U. c #ff1919",
"Y. c #ff1b1b",
"T. c #ff1c1c",
"R. c #ff1f1f",
"E. c #ff2121",
"W. c #ff2424",
"Q. c #ff2727",
"!. c #ff2828",
"~. c #ff3030",
"^. c #ff3131",
"/. c #ff3333",
"(. c #ff3434",
"). c #ff3737",
"_. c #ff3a3a",
"`. c #ff3d3d",
"'. c #ff3f3f",
"]. c #ff4848",
"[. c #ff4b4b",
"{. c #ff5555",
"}. c #ff5858",
"|. c #ff5b5b",
" X c #ff5d5d",
".X c #ff6060",
"XX c #ff6363",
"oX c #ff6464",
"OX c #ff6969",
"+X c #ff6c6c",
"@X c #ff6f6f",
"#X c #ff7070",
"$X c #ff7676",
"%X c #ff7b7b",
"&X c #ff7c7c",
"*X c #ff7e7e",
"=X c #ff7f7f",
"-X c #808080",
";X c #838383",
":X c #848484",
">X c Gray53",
",X c Gray54",
"<X c Gray55",
"1X c #8e8e8e",
"2X c #909090",
"3X c #929292",
"4X c #959595",
"5X c #979797",
"6X c #9b9b9b",
"7X c Gray61",
"8X c #9f9f9f",
"9X c Gray63",
"0X c #a2a2a2",
"qX c #a4a4a4",
"wX c Gray65",
"eX c Gray66",
"rX c #a9a9a9",
"tX c #aaaaaa",
"yX c Gray67",
"uX c Gray68",
"iX c Gray70",
"pX c #b7b7b7",
"aX c #b9b9b9",
"sX c #8ad18a",
"dX c #8ed28e",
"fX c #94d594",
"gX c #9ad79a",
"hX c #9cd89c",
"jX c #a2cca2",
"kX c #ff8181",
"lX c #ff8282",
"zX c #ff8787",
"xX c #ff8d8d",
"cX c #ff9393",
"vX c #ff9a9a",
"bX c #c3c3c3",
"nX c #cbcbcb",
"mX c #d2d2d2",
"MX c #d5d5d5",
"NX c Gray86",
"BX c #dddddd",
"VX c Gray88",
"CX c Gray89",
"ZX c #e7e7e7",
"AX c #e9e9e9",
"SX c Gray93",
"DX c Gray94",
"FX c Gray95",
"GX c #f6f6f6",
"HX c #f8f8f8",
"JX c #f9f9f9",
"KX c #fbfbfb",
"LX c Gray99",
"PX c #fefefe",
"IX c Gray100",
"UX c None",
/* pixels */
"UXUXUXUXUXUXUXUXUXUXUXUXUXUXUXUXUXUXUXUXUXUXUXUXUXUXUXUXUXUXUXUXUXUXUXUXUXUXUXUXUXUXUXUXUXUXUXUX",
"UXUXUXUXUXUXUXUXUXUXUXUXUXUXUXUXUXUXUXUXUXUXUXUXUXUXUXUXUXUXUXUXUXUXUXUXUXUXUXUXUXUXUXUXUXUXUXUX",
"UXUXUXUXUXUXUXUXUXUXUXUXUXUXUXUXUXUXUXUXUXUXUXUXUXUXUXUXUXUXUXUXUXUXUXUXUXUXUXUXUXUXUXUXUXUXUXUX",
"UXUXUXUXUXUXUXUXUXUXUXUXUXUXUX9X8X5X3X<X<X<X<X<X<X<X3X<X<X,X;XD Z UXUXUXUXUXUXUXUXUXUXUXUXUXUXUX",
"UXUXUXUXUXUXUXUXUXUXUXeXqXqX9X8XcXxXzXkXIXIXIXIXIXIXIXkXkX=X$X@XC B B m UXUXUXUXUXUXUXUXUXUXUXUX",
"UXUXUXUXUXUXUXUXUXUXeXqX9XvXcXzX%X#XOXoXIXIXIXIXIXIXIXXXXXXX X}.}.&.&.$.b v UXUXUXUXUXUXUXUXUXUX",
"UXUXUXUXUXUXUXUXeXeXjXgXdX=X@X}.].`.).~.IXIXIXIXIXIXIX~.~.~.~._.O.+.@.#.#.c z , UXUXUXUXUXUXUXUX",
"UXUXUXUXUXUXUXeXqXhXdX-.*.#.).W.Y.I.K.G.IXIXIXIXIXIXIXG.G.G.K._ ' {  .o.O.O.O.[ ; UXUXUXUXUXUXUX",
"UXUXUXUXUXqXqX8XfX;.*.@...] _ ^ D.A.A.A.IXIXIXIXIXIXIXA.A.A.Q Q Q ^ / ' |  ...).- * + UXUXUXUXUX",
"UXUXUXUX6X8XvXsX=.%.o.] / ~ ~ Q Q A.A.A.IXIXIXIXIXIXIXA.A.Q Q Q Q Q Q Q ( ` E.Q.W.T.X   UXUXUXUX",
"UXUXUXUX5XcXkXoX+.| ` ^ Q Q Q Q Q Q A.A.IXIXIXIXIXIXIXA.Q Q Q Q Q Q Q Q ~ D.I.Y.Y.I.A.  UXUXUXUX",
"UXUXUX3X<X=XXX_.T.( ~ Q Q Q Q Q Q Q Q A.IXIXIXIXIXIXIXQ Q Q Q Q Q Q Q Q A.A.D.J.K.G.M.    UXUXUX",
"UXUX<X,X=XXX`.T.G.D.A.Q Q Q Q Q Q Q Q Q IXIXIXIXIXIXIXQ Q Q Q Q Q Q Q A.A.A.A.A.D.D.M.j.    UXUX",
"UXUX:X=X@X].W.K.A.A.A.A.Q Q Q Q Q Q Q Q IXIXIXIXIXIXIXQ Q Q Q Q Q Q A.A.A.A.A.A.A.A.A.x.u.  UXUX",
"UXA S @X{.~.I.D.A.A.A.A.A.Q Q Q Q Q Q Q IXIXIXIXIXIXIXQ Q Q Q Q Q A.A.A.A.A.A.A.A.A.A.x.t.    UX",
"UXM XX}.`.Y.G.A.A.A.A.A.A.A.Q Q Q Q Q Q IXIXIXIXIXIXIXQ Q Q Q Q A.A.A.A.A.A.A.A.A.A.M.h.w.4.  UX",
"UXb IXIXIXIXIXIXIXIXIXIXIXIXIXIXIXIXIXIXIXIXIXIXIXIXIXIXIXIXIXIXIXIXIXIXIXIXIXIXIXIXJXCXaX3X  UX",
"UXc IXIXIXIXIXIXIXIXIXIXIXIXIXIXIXIXIXIXIXIXIXIXIXIXIXIXIXIXIXIXIXIXIXIXIXIXIXIXIXIXJXCXiX:X  UX",
"UX1 IXIXIXIXIXIXIXIXIXIXIXIXIXIXIXIXIXIXIXIXIXIXIXIXIXIXIXIXIXIXIXIXIXIXIXIXIXIXIXIXJXBXuX;X  UX",
"UX1 IXIXIXIXIXIXIXIXIXIXIXIXIXIXIXIXIXIXIXIXIXIXIXIXIXIXIXIXIXIXIXIXIXIXIXIXIXIXIXIXJXBXuX;X  UX",
"UX1 IXIXIXIXIXIXIXIXIXIXIXIXIXIXIXIXIXIXIXIXIXIXIXIXIXIXIXIXIXIXIXIXIXIXIXIXIXIXIXIXHXNXeXF   UX",
"UX> IXIXIXIXIXIXIXIXIXIXIXIXIXIXIXIXIXIXIXIXIXIXIXIXIXIXIXIXIXIXIXIXIXIXIXIXIXIXIXIXGXMX9XS   UX",
"UX= IXIXIXIXIXIXIXIXIXIXIXIXIXIXIXIXIXIXIXIXIXIXIXIXIXIXIXIXIXIXIXIXIXIXIXIXIXIXIXLXDXnX5XC   UX",
"UXO I.I.D.A.A.A.A.A.A.A.A.Q Q Q Q Q Q Q IXIXIXIXIXIXIXQ Q Q Q Q Q Q Q A.A.A.A.A.A.n.f.7.k p   UX",
"UX    n.M.M.M.A.A.A.A.A.Q Q Q Q Q Q Q Q IXIXIXIXIXIXIXQ Q Q Q Q Q Q Q Q A.A.A.A.M.j.r.,.a     UX",
"UXUX  f.j.c.M.A.A.A.A.Q Q Q Q Q Q Q Q Q IXIXIXIXIXIXIXA.Q Q Q Q Q Q Q Q Q A.A.M.c.p.6.f t   UXUX",
"UXUX    p.h.c.M.M.A.Q Q Q Q Q Q Q Q Q A.IXIXIXIXIXIXIXA.A.Q Q Q Q Q Q Q U Q M.n.f.0.l y     UXUX",
"UXUXUX    y.a.j.c.U U Q U Q Q Q Q Q A.A.IXIXIXIXIXIXIXA.A.A.Q Q Q Q Q Q U U P f.q.>.i     UXUXUX",
"UXUXUXUX  9.q.t.J P U Q Q Q Q Q Q A.A.A.IXIXIXIXIXIXIXA.A.A.A.Q Q Q Q Q U L H 0 :.p t   UXUXUXUX",
"UXUXUXUX    2.8 q r K P U U Q Q A.A.A.A.IXIXIXIXIXIXIXA.A.A.A.A.Q Q P P J w 7 2 # t     UXUXUXUX",
"UXUXUXUXUX      6 8 q r K L U M.A.A.A.A.IXIXIXIXIXIXIXA.A.A.M.M.n.x.J e 8 4 $ @ o     UXUXUXUXUX",
"UXUXUXUXUXUXUX    3 6 7 0 e p.h.x.c.n.n.HXKXIXIXIXIXIXA.M.n.x.f.u.w.5.5 % @ @     UXUXUXUXUXUXUX",
"UXUXUXUXUXUXUXUX      2 4 ,.5.9.q.r.y.p.ZXFXJXIXIXIXIXM.c.f.t.9.<.l s t @       UXUXUXUXUXUXUXUX",
"UXUXUXUXUXUXUXUXUXUX      d f j l >.2.7.mXAXJXIXIXIXIXn.f.w.2.j i & t       UXUXUXUXUXUXUXUXUXUX",
"UXUXUXUXUXUXUXUXUXUXUXUX      y u a h 2.bXZXJXIXIXIXJXj.r.2.d t         UXUXUXUXUXUXUXUXUXUXUXUX",
"UXUXUXUXUXUXUXUXUXUXUXUXUXUX              FXIXIXIXLXDXy.4.d       UXUXUXUXUXUXUXUXUXUXUXUXUXUXUX",
"UXUXUXUXUXUXUXUXUXUXUXUXUXUXUXUXUXUXUXUX  IXIXIXIXFXNX6.g t   UXUXUXUXUXUXUXUXUXUXUXUXUXUXUXUXUX",
"UXUXUXUXUXUXUXUXUXUXUXUXUXUXUXUXUXUXUX> > IXIXIXSXmXeXh t t   UXUXUXUXUXUXUXUXUXUXUXUXUXUXUXUXUX",
"UXUXUXUXUXUXUXUXUXUXUXUXUXUXUXUXUXUXUXB N IXIXAXbX6XC t t     UXUXUXUXUXUXUXUXUXUXUXUXUXUXUXUXUX",
"UXUXUXUXUXUXUXUXUXUXUXUXUXUXUXUXUXUX<X;XIXIXAXeXF b z t     UXUXUXUXUXUXUXUXUXUXUXUXUXUXUXUXUXUX",
"UXUXUXUXUXUXUXUXUXUXUXUXUXUXUXUXUX8X3X@XIXBX3Xm z z .     UXUXUXUXUXUXUXUXUXUXUXUXUXUXUXUXUXUXUX",
"UXUXUXUXUXUXUXUXUXUXUXUXUXUXUX5X5X;X{.I.pXZ z z &       UXUXUXUXUXUXUXUXUXUXUXUXUXUXUXUXUXUXUXUX",
"UXUXUXUXUXUXUXUXUXUXUXUXUXV F A {.T.u.>.v &         UXUXUXUXUXUXUXUXUXUXUXUXUXUXUXUXUXUXUXUXUXUX",
"UXUXUXUXUXUXUXUXUXUX1 c c 1 W.A.r.>.          UXUXUXUXUXUXUXUXUXUXUXUXUXUXUXUXUXUXUXUXUXUXUXUXUX",
"UXUXUXUXUXUXUXUXUXUXUX                UXUXUXUXUXUXUXUXUXUXUXUXUXUXUXUXUXUXUXUXUXUXUXUXUXUXUXUXUX",
"UXUXUXUXUXUXUXUXUXUXUXUXUXUXUXUXUXUXUXUXUXUXUXUXUXUXUXUXUXUXUXUXUXUXUXUXUXUXUXUXUXUXUXUXUXUXUXUX",
"UXUXUXUXUXUXUXUXUXUXUXUXUXUXUXUXUXUXUXUXUXUXUXUXUXUXUXUXUXUXUXUXUXUXUXUXUXUXUXUXUXUXUXUXUXUXUXUX",
"UXUXUXUXUXUXUXUXUXUXUXUXUXUXUXUXUXUXUXUXUXUXUXUXUXUXUXUXUXUXUXUXUXUXUXUXUXUXUXUXUXUXUXUXUXUXUXUX"
};
