/* XPM */
static char *magick[] = {
/* columns rows colors chars-per-pixel */
"48 48 256 2",
"   c Gray0",
".  c #0c0c0c",
"X  c #161616",
"o  c #1b1b1b",
"O  c #391b04",
"+  c #3c1c00",
"@  c #3e1d00",
"#  c Gray16",
"$  c Gray18",
"%  c #323232",
"&  c #373737",
"*  c Gray22",
"=  c Gray23",
"-  c #3c3c3c",
";  c #3f3f3f",
":  c #000040",
">  c #000051",
",  c #000057",
"<  c #00006a",
"1  c #000075",
"2  c #00007d",
"3  c #411e00",
"4  c #452100",
"5  c #492300",
"6  c #4c2400",
"7  c #532700",
"8  c #542800",
"9  c #5b2b00",
"0  c #632f00",
"q  c #663100",
"w  c #6b3300",
"e  c #6d3300",
"r  c #6e3400",
"t  c #723600",
"y  c #753700",
"u  c #763800",
"i  c #783900",
"p  c #7c3a00",
"a  c #7e3d09",
"s  c #414141",
"d  c #464646",
"f  c #494949",
"g  c #515151",
"h  c Gray33",
"j  c #585858",
"k  c Gray37",
"l  c #606060",
"z  c Gray39",
"x  c #676767",
"c  c #6a6a6a",
"v  c #6d6d6d",
"b  c Gray45",
"n  c #767676",
"m  c Gray47",
"M  c #7c7c7c",
"N  c Gray50",
"B  c #000081",
"V  c #000087",
"C  c #000093",
"Z  c #0000a2",
"A  c #0000aa",
"S  c #0000ad",
"D  c #0000b4",
"F  c #0000b9",
"G  c #0000c3",
"H  c #0000ca",
"J  c #0000d5",
"K  c #0000da",
"L  c #0000de",
"P  c #0000e0",
"I  c #0000e3",
"U  c #0000e7",
"Y  c #0000eb",
"T  c #0000f1",
"R  c #0000f6",
"E  c #0000f8",
"W  c #0000f9",
"Q  c #0000fb",
"!  c #0000fc",
"~  c #0000fe",
"^  c Blue",
"/  c #0101ff",
"(  c #0303ff",
")  c #0404ff",
"_  c #0606ff",
"`  c #0909ff",
"'  c #0f0fff",
"]  c #1010ff",
"[  c #1313ff",
"{  c #1818ff",
"}  c #1b1bff",
"|  c #1c1cff",
" . c #2222ff",
".. c #2727ff",
"X. c #2b2bff",
"o. c #3232ff",
"O. c #3434ff",
"+. c #3a3aff",
"@. c #3d3dff",
"#. c #4646ff",
"$. c #5151ff",
"%. c #5858ff",
"&. c #6363ff",
"*. c #803d00",
"=. c #843e00",
"-. c #874000",
";. c #8d4200",
":. c #914500",
">. c #954600",
",. c #974700",
"<. c #9a4900",
"1. c #9b4900",
"2. c #9e4b00",
"3. c #a24d00",
"4. c #a84f00",
"5. c #a95000",
"6. c #ad5200",
"7. c #b15400",
"8. c #b35500",
"9. c #b75600",
"0. c #b95700",
"q. c #ba5800",
"w. c #bc5900",
"e. c #bf5a00",
"r. c #cf0000",
"t. c #d50000",
"y. c #e90000",
"u. c #ed0000",
"i. c #fa0000",
"p. c #fc0000",
"a. c Red",
"s. c #ff0101",
"d. c #ff0303",
"f. c #ff0404",
"g. c #ff0606",
"h. c #ff0707",
"j. c #ff0909",
"k. c #ff0a0a",
"l. c #ff0c0c",
"z. c #ff0d0d",
"x. c #ff0f0f",
"c. c #ff1010",
"v. c #ff1212",
"b. c #ff1313",
"n. c #ff1616",
"m. c #ff1919",
"M. c #ff1b1b",
"N. c #ff1c1c",
"B. c #ff1e1e",
"V. c #ff2222",
"C. c #ff2424",
"Z. c #ff2727",
"A. c #ff2828",
"S. c #ff2b2b",
"D. c #ff3030",
"F. c #ff3131",
"G. c #ff3333",
"H. c #ff3434",
"J. c #ff3737",
"K. c #ff3a3a",
"L. c #ff3c3c",
"P. c #ff3f3f",
"I. c #c15b00",
"U. c #c25c00",
"Y. c #c45d00",
"T. c #c85e00",
"R. c #ca6000",
"E. c #cd6100",
"W. c #d06200",
"Q. c #d26300",
"!. c #d36400",
"~. c #d56500",
"^. c #d66500",
"/. c #d86600",
"(. c #d96600",
"). c #da6700",
"_. c #db6800",
"`. c #dd6900",
"'. c #e06a00",
"]. c #e16a00",
"[. c #e36b00",
"{. c #e46c00",
"}. c #e66d00",
"|. c #e76d00",
" X c #e86e00",
".X c #e96e00",
"XX c #eb6f00",
"oX c #ec7000",
"OX c #ee7100",
"+X c #ef7100",
"@X c #ef7201",
"#X c #ef7507",
"$X c #f0780d",
"%X c #f07c13",
"&X c #f17e18",
"*X c #ff4343",
"=X c #ff4848",
"-X c #ff4b4b",
";X c #ff4c4c",
":X c #ff5151",
">X c #ff5555",
",X c #ff5858",
"<X c #ff5b5b",
"1X c #ff5d5d",
"2X c #ff6060",
"3X c #ff6363",
"4X c #ff6464",
"5X c #ff6969",
"6X c #ff6c6c",
"7X c #ff6f6f",
"8X c #ff7070",
"9X c #ff7676",
"0X c #ff7a7a",
"qX c #ff7c7c",
"wX c #ff7e7e",
"eX c #ff7f7f",
"rX c #f1801b",
"tX c #e88435",
"yX c #f18422",
"uX c #f18726",
"iX c #f29037",
"pX c #f3923b",
"aX c #ed9e5f",
"sX c #f49a49",
"dX c #eea366",
"fX c #f5aa66",
"gX c #f0ae7b",
"hX c #818181",
"jX c #848484",
"kX c #888888",
"lX c #8b8b8b",
"zX c #8d8d8d",
"xX c #8e8e8e",
"cX c Gray57",
"vX c #939393",
"bX c #979797",
"nX c #9a9a9a",
"mX c #9d9d9d",
"MX c #9f9f9f",
"NX c #a0a0a0",
"BX c #a2a2a2",
"VX c Gray64",
"CX c #a5a5a5",
"ZX c #a6a5a5",
"AX c Gray65",
"SX c Gray66",
"DX c #a9a9a9",
"FX c #ff8181",
"GX c #ff8282",
"HX c #ff8787",
"JX c #ff8a8a",
"KX c #ff8d8d",
"LX c #ff9191",
"PX c #ff9494",
"IX c #ff9b9b",
"UX c None",
/* pixels */
"UXUXUXUXUXUXUXUXUXUXUXUXUXUXUXUXUXUXUXUXUXUXUXUXUXUXUXUXUXUXUXUXUXUXUXUXUXUXUXUXUXUXUXUXUXUXUXUX",
"UXUXUXUXUXUXUXUXUXUXUXUXUXUXUXUXUXUXUXUXUXUXUXUXUXUXUXUXUXUXUXUXUXUXUXUXUXUXUXUXUXUXUXUXUXUXUXUX",
"UXUXUXUXUXUXUXUXUXUXUXUXUXUXUXUXUXUXUXUXUXUXUXUXUXUXUXUXUXUXUXUXUXUXUXUXUXUXUXUXUXUXUXUXUXUXUXUX",
"UXUXUXUXUXUXUXUXUXUXUXUXUXUXUXVXMXbXvXxXxXxXxXxXxXxXxXxXxXlXhXm v UXUXUXUXUXUXUXUXUXUXUXUXUXUXUX",
"UXUXUXUXUXUXUXUXUXUXUXSXAXAXVXMXPXKXJXFXFXFXFXFXFXFXFXFXFX0X9X8Xx l l j UXUXUXUXUXUXUXUXUXUXUXUX",
"UXUXUXUXUXUXUXUXUXUXSXAXVXIXLXHX0X8X5X4X3X3X3X3X3X3X3X3X3X3X1X<X<X<X<Xh g f UXUXUXUXUXUXUXUXUXUX",
"UXUXUXUXUXUXUXUXSXSXVXIXKXeX7X<X=XL.J.D.D.D.D.D.D.D.D.D.D.D.D.J.L.*X=X=X=Xd ; ; UXUXUXUXUXUXUXUX",
"UXUXUXUXUXUXUXSXAXIXKX0X3X;XJ.C.M.b.z.j.j.j.j.j.j.j.j.j.j.j.z.b.M.V.S.J.L.L.L.& % UXUXUXUXUXUXUX",
"UXUXUXUXUXVXAXVXPXeX4X=XD.N.b.j.g.d.d.d.d.d.d.d.d.d.d.d.d.d.d.d.g.j.z.M.C.S.D.J.$ # o UXUXUXUXUX",
"UXUXUXUXnXMXIXJX7X:XJ.N.z.g.g.d.d.d.d.d.d.d.d.d.d.d.d.d.d.d.d.d.d.d.d.g.z.n.V.C.C.N..   UXUXUXUX",
"UXUXUXUXbXPXFX4X*XC.n.j.d.d.d.d.d.d.d.d.d.d.d.d.d.d.d.d.d.d.d.d.d.d.d.d.g.g.b.M.M.b.d.  UXUXUXUX",
"UXUXUXvXxXeX3XK.N.z.g.d.d.d.d.d.d.d.d.d.d.d.d.d.d.d.d.d.d.d.d.d.d.d.d.d.d.d.g.z.z.j.i.    UXUXUX",
"UXUXlXlXeX3XL.N.j.g.d.d.d.d.d.d.d.d.d.d.d.d.d.d.d.d.d.d.d.d.d.d.d.d.d.d.d.d.d.d.g.g.i.y.    UXUX",
"UXUXjXeX7X=XC.z.d.d.d.d.d.d.d.d.d.d.d.d.d.d.d.d.d.d.d.d.d.d.d.d.d.d.d.d.d.d.d.d.d.d.d.u.t.  UXUX",
"UXb n 7X>XD.b.g.d.d.d.d.d.d.d.d.d.d.d.d.d.d.d.d.d.d.d.d.d.d.d.d.d.d.d.d.d.d.d.d.d.d.d.u.r.    UX",
"UXl &.%.@.} ` ( ( ( ( ( ( ( ( ( ( ( ( ( ( ( ( ( ( ( ( ( ( ( ( ( ( ( ( ( ( ( ( ( ( ( E U G Z   UX",
"UXg $.#.X.' ( ( ( ( ( ( ( ( ( ( ( ( ( ( ( ( ( ( ( ( ( ( ( ( ( ( ( ( ( ( ( ( ( ( ( ( E P F C   UX",
"UXd #.+. ._ ( ( ( ( ( ( ( ( ( ( ( ( ( ( ( ( ( ( ( ( ( ( ( ( ( ( ( ( ( ( ( ( ( ( ( ( ( P D V   UX",
"UX; @.O.} _ ( ( ( ( ( ( ( ( ( ( ( ( ( ( ( ( ( ( ( ( ( ( ( ( ( ( ( ( ( ( ( ( ( ( ( ( E L S B   UX",
"UX; @.o.| _ ( ( ( ( ( ( ( ( ( ( ( ( ( ( ( ( ( ( ( ( ( ( ( ( ( ( ( ( ( ( ( ( ( ( ( ( E L S B   UX",
"UX; +.o.} _ ( ( ( ( ( ( ( ( ( ( ( ( ( ( ( ( ( ( ( ( ( ( ( ( ( ( ( ( ( ( ( ( ( ( ( ( E K A 2   UX",
"UX& o.X.} ( ( ( ( ( ( ( ( ( ( ( ( ( ( ( ( ( ( ( ( ( ( ( ( ( ( ( ( ( ( ( ( ( ( ( ( ( R J Z 1   UX",
"UX# .. .[ ( ( ( ( ( ( ( ( ( ( ( ( ( ( ( ( ( ( ( ( ( ( ( ( ( ( ( ( ( ( ( ( ( ( ( ( E T H C <   UX",
"UXX [ ' _ ( ( ( ( ( ( ( ( ( ( ( ( ( ( ( ( ( ( ( ( ( ( ( ( ( ( ( ( ( ( ( ( ( ( ( ( R P D 2 >   UX",
"UX    R E E E ( ( ( ( ( ( ( ( ( ( ( ( ( ( ( ( ( ( ( ( ( ( ( ( ( ( ( ( ( ( ( ( ( E Y H C ,     UX",
"UXUX  P Y T E ( ( ( ( ( ( ( ( ( ( ( ( ( ( ( ( ( ( ( ( ( ( ( ( ( ( ( ( ( ( ( ( ( T K A < :   UXUX",
"UXUX    R./.'. X+X+X+X+XXX+X+X+XXXXX+X+XXX+X+X+XXX+X+X+X+X+XXXXX+X+X+X+XXX+X X|.!.6.u 3     UXUX",
"UXUXUX    Y.W._.'.|.+X+XXX+X+X+X+X+X+X+X+X+X+X+XXX+X+X+X+X+X+X+X+X+X+X+X X X'.W.7.*.5     UXUXUX",
"UXUXUXUX  6.7.I.W.`.|. X+X+X+X+X+X+X+X+X+X+X+X+X+X+X+X+X+X+X+X+X+X+X+X X|._.T.5.p 6 +   UXUXUXUX",
"UXUXUXUX    :.1.6.Y.^.'.|. X+X+X+X+X+X+X+X+X+X+X+X+X+X+X+X+X+X+X+X X|.'.W.0.>.w + +     UXUXUXUX",
"UXUXUXUXUX      -.1.7.Y.!.'.|. XoX+X+X+X+X+X+X+X+X+X+X+X+X+X+X X|.`.W.w.3.p 7 +       UXUXUXUXUX",
"UXUXUXUXUXUXUX    y =.>.6.w.E./.`.|.|. X X+X+X+X+X+X+X+X X|.'.^.T.0.2.p 9 + +     UXUXUXUXUXUXUX",
"UXUXUXUXUXUXUXUX      w i -.1.4.7.w.Y.E./.'. X+X+X+X+X X'.^.I.5.;.t 8 + +       UXUXUXUXUXUXUXUX",
"UXUXUXUXUXUXUXUXUXUX      9 0 r y *.:.4.Y./. X+X+X+X+X|.^.9.:.e 5 + +       UXUXUXUXUXUXUXUXUXUX",
"UXUXUXUXUXUXUXUXUXUXUXUX      3 4 7 w :.0./. X+X+X+X X/.w.;.9 +         UXUXUXUXUXUXUXUXUXUXUXUX",
"UXUXUXUXUXUXUXUXUXUXUXUXUXUXUX            |.#X#X+X X'.Y.>.9       UXUXUXUXUXUXUXUXUXUXUXUXUXUXUX",
"UXUXUXUXUXUXUXUXUXUXUXUXUXUXUXUXUXUXUXUX  %X&X$X+X'.R.2.q +   UXUXUXUXUXUXUXUXUXUXUXUXUXUXUXUXUX",
"UXUXUXUXUXUXUXUXUXUXUXUXUXUXUXUXUXUXUXUX% iXuX$X|.R.3.w + O   UXUXUXUXUXUXUXUXUXUXUXUXUXUXUXUXUX",
"UXUXUXUXUXUXUXUXUXUXUXUXUXUXUXUXUXUXUXk dXsXuX XU.1.q + O   UXUXUXUXUXUXUXUXUXUXUXUXUXUXUXUXUXUX",
"UXUXUXUXUXUXUXUXUXUXUXUXUXUXUXUXUXUXUXN fXpX X7.*.8 + O   UXUXUXUXUXUXUXUXUXUXUXUXUXUXUXUXUXUXUX",
"UXUXUXUXUXUXUXUXUXUXUXUXUXUXUXUXUXUXxXgXpX`.>.0 + + O   UXUXUXUXUXUXUXUXUXUXUXUXUXUXUXUXUXUXUXUX",
"UXUXUXUXUXUXUXUXUXUXUXUXUXUXUXUXvXN dXrXq.t 3 + O     UXUXUXUXUXUXUXUXUXUXUXUXUXUXUXUXUXUXUXUXUX",
"UXUXUXUXUXUXUXUXUXUXUXUXUXUXn c aXyXE.-.6 O       UXUXUXUXUXUXUXUXUXUXUXUXUXUXUXUXUXUXUXUXUXUXUX",
"UXUXUXUXUXUXUXUXUXUX* ; s * tX+Xw.a         UXUXUXUXUXUXUXUXUXUXUXUXUXUXUXUXUXUXUXUXUXUXUXUXUXUX",
"UXUXUXUXUXUXUXUXUXUXUX              UXUXUXUXUXUXUXUXUXUXUXUXUXUXUXUXUXUXUXUXUXUXUXUXUXUXUXUXUXUX",
"UXUXUXUXUXUXUXUXUXUXUXUXUXUXUXUXUXUXUXUXUXUXUXUXUXUXUXUXUXUXUXUXUXUXUXUXUXUXUXUXUXUXUXUXUXUXUXUX",
"UXUXUXUXUXUXUXUXUXUXUXUXUXUXUXUXUXUXUXUXUXUXUXUXUXUXUXUXUXUXUXUXUXUXUXUXUXUXUXUXUXUXUXUXUXUXUXUX",
"UXUXUXUXUXUXUXUXUXUXUXUXUXUXUXUXUXUXUXUXUXUXUXUXUXUXUXUXUXUXUXUXUXUXUXUXUXUXUXUXUXUXUXUXUXUXUXUX"
};
