/* XPM */
static char *xdbx[] = {
/* width height num_colors chars_per_pixel */
"    32    32        4            1",
/* colors */
"  c None",
"# c Red",
"a c #ffffff",
"b c #ff0000",
/* pixels */
"########                      ##",
" ########                     ##",
"  ########                   ## ",
"   ########                 ##  ",
"   ########                ##   ",
"    ########              ##    ",
"     #######             ##     ",
"      #######            ##     ",
"      ########          ##      ",
"       ########        ##       ",
"       #########      ##        ",
"        #########    ##         ",
"         ########   ##          ",
"          ########  ##          ",
"           ####### ##           ",
"            ##### ##            ",
"            #### ####           ",
"             ## #####           ",
"            ## #######          ",
"           ##  ########         ",
"          ###  #########        ",
"         ###    ########        ",
"        ###      ########       ",
"       ###        ########      ",
"       ##         #########     ",
"      ##           ########     ",
"      ##            ########    ",
"     ##              ########   ",
"    ##               ########   ",
"   ##                 ########  ",
"  ##                   ######## ",
" ##                     ########"
};
