/* XPM */
static char *magick[] = {
/* columns rows colors chars-per-pixel */
"48 48 244 2",
"   c Gray0",
".  c #0c0c0c",
"X  c #161616",
"o  c #1b1b1b",
"O  c #272727",
"+  c #2a2a2a",
"@  c Gray18",
"#  c #313131",
"$  c Gray21",
"%  c #373737",
"&  c #3c3c3c",
"*  c Gray24",
"=  c #3e3e3e",
"-  c #3f3f3f",
";  c #111140",
":  c #471212",
">  c Gray25",
",  c #414141",
"<  c Gray26",
"1  c #444444",
"2  c Gray27",
"3  c #464646",
"4  c #494949",
"5  c Gray29",
"6  c #4b4b4b",
"7  c Gray30",
"8  c #4e4e4e",
"9  c #505050",
"0  c #515151",
"q  c Gray33",
"w  c #555555",
"e  c Gray34",
"r  c #585858",
"t  c Gray35",
"y  c #5a5a5a",
"u  c Gray36",
"i  c #5f5f5f",
"p  c #606060",
"a  c #626262",
"s  c Gray39",
"d  c #676767",
"f  c #686868",
"g  c Gray42",
"h  c #6c6c6c",
"j  c #6d6d6d",
"k  c Gray43",
"l  c #6f6f6f",
"z  c #717171",
"x  c #727272",
"c  c Gray45",
"v  c #747474",
"b  c Gray46",
"n  c #767676",
"m  c Gray47",
"M  c Gray48",
"N  c #7b7b7b",
"B  c Gray49",
"V  c Gray",
"C  c #2c2c93",
"Z  c #5f5fff",
"A  c #800000",
"S  c #810000",
"D  c #870000",
"F  c #920000",
"G  c #a10000",
"H  c #ad0000",
"J  c #b30000",
"K  c #b90000",
"L  c #c30000",
"P  c #cf0000",
"I  c #d50000",
"U  c #dd0000",
"Y  c #de0000",
"T  c #e00000",
"R  c #e30000",
"E  c #e70000",
"W  c #e90000",
"Q  c #ec0000",
"!  c #ed0000",
"~  c #f90000",
"^  c #fb0000",
"/  c #fc0000",
"(  c Red",
")  c #ff0101",
"_  c #ff0303",
"`  c #ff0404",
"'  c #ff0606",
"]  c #ff0707",
"[  c #ff0909",
"{  c #ff0a0a",
"}  c #ff0c0c",
"|  c #ff0d0d",
" . c #ff0f0f",
".. c #ff1010",
"X. c #ff1212",
"o. c #ff1313",
"O. c #ff1515",
"+. c #ff1616",
"@. c #ff1818",
"#. c #ff1919",
"$. c #ff1b1b",
"%. c #ff1c1c",
"&. c #ff1e1e",
"*. c #ff1f1f",
"=. c #ff2121",
"-. c #ff2222",
";. c #ff2424",
":. c #ff2727",
">. c #ff2828",
",. c #ff2b2b",
"<. c #ff3030",
"1. c #ff3131",
"2. c #ff3333",
"3. c #ff3434",
"4. c #ff3636",
"5. c #ff3737",
"6. c #ff3a3a",
"7. c #ff3c3c",
"8. c #ff3d3d",
"9. c #ff3f3f",
"0. c #ff4242",
"q. c #ff4343",
"w. c #ff4545",
"e. c #ff4646",
"r. c #ff4848",
"t. c #ff4949",
"y. c #ff4b4b",
"u. c #ff4c4c",
"i. c #ff5151",
"p. c #ff5555",
"a. c #ff5858",
"s. c #ff5a5a",
"d. c #ff5b5b",
"f. c #ff5d5d",
"g. c #ff6060",
"h. c #ff6363",
"j. c #ff6464",
"k. c #ff6969",
"l. c #ff6c6c",
"z. c #ff6f6f",
"x. c #ff7070",
"c. c #ff7676",
"v. c #ff7979",
"b. c #ff7b7b",
"n. c #ff7c7c",
"m. c #ff7e7e",
"M. c #ff7f7f",
"N. c #818181",
"B. c #838383",
"V. c #848484",
"C. c #868686",
"Z. c Gray53",
"A. c #888888",
"S. c #898989",
"D. c #8b8b8b",
"F. c #8d8d8d",
"G. c #8e8e8e",
"H. c Gray56",
"J. c Gray57",
"K. c #929292",
"L. c #939393",
"P. c #959595",
"I. c Gray59",
"U. c #979797",
"Y. c #989898",
"T. c #9a9a9a",
"R. c #9b9b9b",
"E. c Gray61",
"W. c #9d9d9d",
"Q. c Gray62",
"!. c #9f9f9f",
"~. c #a0a0a0",
"^. c #a2a2a2",
"/. c Gray64",
"(. c #a5a5a5",
"). c #a7a6a5",
"_. c Gray65",
"`. c #a7a7a7",
"'. c Gray66",
"]. c #a9a9a9",
"[. c #aaaaaa",
"{. c Gray67",
"}. c #b1b1b1",
"|. c Gray70",
" X c #b4b4b4",
".X c #b6b6b6",
"XX c #b7b7b7",
"oX c #b9b9b9",
"OX c Gray73",
"+X c Gray74",
"@X c Gray75",
"#X c #8181ff",
"$X c #8787ff",
"%X c #8888ff",
"&X c #9797ff",
"*X c #ff8181",
"=X c #ff8282",
"-X c #ff8787",
";X c #ff8a8a",
":X c #ff8d8d",
">X c #ff8e8e",
",X c #ff9191",
"<X c #ff9393",
"1X c #ff9494",
"2X c #ff9a9a",
"3X c #ff9c9c",
"4X c #c0c0c0",
"5X c Gray76",
"6X c #c5c5c5",
"7X c Gray79",
"8X c #cbcbcb",
"9X c #cecece",
"0X c Gray81",
"qX c Gray82",
"wX c #d2d2d2",
"eX c Gray83",
"rX c #d5d5d5",
"tX c #d8d8d8",
"yX c #dadada",
"uX c Gray86",
"iX c #dddddd",
"pX c Gray87",
"aX c Gray88",
"sX c #e1e1e1",
"dX c Gray89",
"fX c #e4e4e4",
"gX c #e7e7e7",
"hX c #e9e9e9",
"jX c #eaeaea",
"kX c #ececec",
"lX c Gray93",
"zX c #efefef",
"xX c Gray94",
"cX c Gray95",
"vX c #f3f3f3",
"bX c Gray96",
"nX c #f6f6f6",
"mX c #f8f8f8",
"MX c #f9f9f9",
"NX c #fbfbfb",
"BX c Gray99",
"VX c #fefefe",
"CX c Gray100",
"ZX c None",
/* pixels */
"ZXZXZXZXZXZXZXZXZXZXZXZXZXZXZXZXZXZXZXZXZXZXZXZXZXZXZXZXZXZXZXZXZXZXZXZXZXZXZXZXZXZXZXZXZXZXZXZX",
"ZXZXZXZXZXZXZXZXZXZXZXZXZXZXZXZXZXZXZXZXZXZXZXZXZXZXZXZXZXZXZXZXZXZXZXZXZXZXZXZXZXZXZXZXZXZXZXZX",
"ZXZXZXZXZXZXZXZXZXZXZXZXZXZXZXZXZXZXZXZXZXZXZXZXZXZXZXZXZXZXZXZXZXZXZXZXZXZXZXZXZXZXZXZXZXZXZXZX",
"ZXZXZXZXZXZXZXZXZXZXZXZXZXZXZX/.!.U.L.G.G.G.G.G.G.G.G.G.G.D.N.m k ZXZXZXZXZXZXZXZXZXZXZXZXZXZXZX",
"ZXZXZXZXZXZXZXZXZXZXZX'._._./.!.<X:X;X*X*X*X*X*X*X*X*X*X*Xv.c.x.d p p y ZXZXZXZXZXZXZXZXZXZXZXZX",
"ZXZXZXZXZXZXZXZXZXZX'._./.2X<X-Xv.x.k.j.h.h.h.h.h.h.h.h.h.h.f.a.a.a.a.e 0 5 ZXZXZXZXZXZXZXZXZXZX",
"ZXZXZXZXZXZXZXZX'.'./.2X:XM.z.a.r.8.4.<.<.<.<.<.<.<.<.<.<.<.<.4.8.q.r.r.r.3 > - ZXZXZXZXZXZXZXZX",
"ZXZXZXZXZXZXZX'._.3X:Xv.h.u.4.;.%.o.| [ [ [ [ [ [ [ [ [ [ [ | o.$.-.,.4.8.8.8.$ # ZXZXZXZXZXZXZX",
"ZXZXZXZXZX/._./.1XM.j.r.<.%.o.[ ' _ _ _ _ _ _ _ _ _ _ _ _ _ _ _ ' [ | $.;.,.<.4.@ O o ZXZXZXZXZX",
"ZXZXZXZXT.!.2X;Xz.i.4.%.| ' ' _ _ _ _ _ _ _ _ _ _ _ _ _ _ _ _ _ _ _ _ ' | O.-.;.;.%..   ZXZXZXZX",
"ZXZXZXZXU.<X*Xj.q.;.O.[ _ _ _ _ _ _ _ _ _ _ _ _ _ _ _ _ _ _ _ _ _ _ _ _ ' ' o.$.$.o._   ZXZXZXZX",
"ZXZXZXL.G.M.h.6.%.| ' _ _ _ _ _ _ _ _ _ _ _ _ _ _ _ _ _ _ _ _ _ _ _ _ _ _ _ ' | | [ ^     ZXZXZX",
"ZXZXD.D.M.h.8.%.[ ' _ _ _ _ _ _ _ _ _ _ _ _ _ _ _ _ _ _ _ _ _ _ _ _ _ _ _ _ _ _ ' ' ^ W     ZXZX",
"ZXZXV.M.z.r.;.| _ _ _ _ _ _ _ _ _ _ _ _ _ _ _ _ _ _ _ _ _ _ _ _ _ _ _ _ _ _ _ _ _ _ _ Q I   ZXZX",
"ZXc n z.p.<.o.' _ _ _ _ _ _ _ _ _ _ _ _ _ _ _ _ _ _ _ _ _ _ _ _ _ _ _ _ _ _ _ _ _ _ _ Q P     ZX",
"ZXp h.a.8.$.[ _ _ _ _ _ _ _ _ _ _ _ _ _ _ _ _ _ _ _ _ _ _ _ _ _ _ _ _ _ _ _ _ _ _ _ _ E L G   ZX",
"ZX0 i.e.,.| _ _ _ _ _ _ _ _ _ _ _ _ _ _ _ _ _ _ _ _ _ _ _ _ _ _ _ _ _ _ _ _ _ _ _ _ ^ R K F   ZX",
"ZX3 e.6.-.' _ _ _ _ _ _ _ _ _ _ _ _ _ _ _ _ _ _ _ _ _ _ _ _ _ _ _ _ _ _ _ _ _ _ _ _ ^ R J D   ZX",
"ZX- 8.4.%.' _ _ _ _ _ _ _ _ _ _ _ _ _ _ _ _ _ _ _ _ _ _ _ _ _ _ _ _ _ _ _ _ _ _ _ _ ^ U H A   ZX",
"ZX- 8.<.%.' _ _ _ _ _ _ _ _ _ _ _ _ _ _ _ _ _ _ _ _ _ _ _ _ _ _ _ _ _ _ _ _ _ _ _ _ ^ U H A   ZX",
"ZX- VXVXVXVXVXVXVXVXVXVXVXVXVXVXVXVXVXVXVXVXVXVXVXVXVXVXVXVXVXVXVXVXVXVXVXVXVXVXVXVXMXtX'.B   ZX",
"ZX$ VXVXVXVXVXVXVXVXVXVXVXVXVXVXVXVXVXVXVXVXVXVXVXVXVXVXVXVXVXVXVXVXVXVXVXVXVXVXVXVXnXeX/.n   ZX",
"ZX+ VXVXVXVXVXVXVXVXVXVXVXVXVXVXVXVXVXVXVXVXVXVXVXVXVXVXVXVXVXVXVXVXVXVXVXVXVXVXVXNXxX7XU.g   ZX",
"ZXX VXVXVXVXVXVXVXVXVXVXVXVXVXVXVXVXVXVXVXVXVXVXVXVXVXVXVXVXVXVXVXVXVXVXVXVXVXVXVXnXaXXXm 0   ZX",
"ZX    nXMXMXMXVXVXVXVXVXVXVXVXVXVXVXVXVXVXVXVXVXVXVXVXVXVXVXVXVXVXVXVXVXVXVXVXVXMXzX7XL.e     ZX",
"ZXZX  aXjXxXMXVXVXVXVXVXVXVXVXVXVXVXVXVXVXVXVXVXVXVXVXVXVXVXVXVXVXVXVXVXVXVXVXVXxXtX'.g >   ZXZX",
"ZXZX    tXjXxXMXVXVXVXVXVXVXVXVXVXVXVXVXVXVXVXVXVXVXVXVXVXVXVXVXVXVXVXVXVXVXMXnXaXoXB 3     ZXZX",
"ZXZXZX    qXiXjXxXMXVXVXVXVXVXVXVXVXVXVXVXVXVXVXVXVXVXVXVXVXVXVXVXVXVXVXVXMXxXaX+XD.8     ZXZXZX",
"ZXZXZXZX  XX+X0XiXzXnXMXVXVXVXVXVXVXVXVXVXVXVXVXVXVXVXVXVXVXVXVXVXVXVXMXnXjXeXXXV.0 >   ZXZXZXZX",
"ZXZXZXZX    T._.oXqXaXzXnXMXVXVXVXVXVXVXVXVXVXVXVXVXVXVXVXVXVXVXVXMXnXzXiX6X!.c > >     ZXZXZXZX",
"ZXZXZXZXZX      G._.+XqXaXjXxXnXMXMXVXVXVXVXVXVXVXVXVXVXVXVXVXMXnXzXaX0X'.V.y >       ZXZXZXZXZX",
"ZXZXZXZXZXZXZX    B G.!.}.5X0XiXfXzXnXMXMXVXVXVXVXVXVXVXMXnXzXfXeX5X_.V.p > >     ZXZXZXZXZXZXZX",
"ZXZXZXZXZXZXZXZX      k m V.U.'.oX6XqXiXfXxXMXVXVXVXVXMXxXaX0XXXU.m y > >       ZXZXZXZXZXZXZXZX",
"ZXZXZXZXZXZXZXZXZXZX      e i g m V.!.XXqXjXMXVXVXVXMXxXiX+XT.c 8 - >       ZXZXZXZXZXZXZXZXZXZX",
"ZXZXZXZXZXZXZXZXZXZXZXZX      : 8 i n T.5XaXMXVXVXMXxXtXXXD.e >         ZXZXZXZXZXZXZXZXZXZXZXZX",
"ZXZXZXZXZXZXZXZXZXZXZXZXZXZXZX            zXVXVXVXxXtXXXN.8       ZXZXZXZXZXZXZXZXZXZXZXZXZXZXZX",
"ZXZXZXZXZXZXZXZXZXZXZXZXZXZXZXZXZXZXZXZX  VXVXVXxXtXXXN.8 >   ZXZXZXZXZXZXZXZXZXZXZXZXZXZXZXZXZX",
"ZXZXZXZXZXZXZXZXZXZXZXZXZXZXZXZXZXZXZXZX+ VXVXVXiX}.N.8 > ;   ZXZXZXZXZXZXZXZXZXZXZXZXZXZXZXZXZX",
"ZXZXZXZXZXZXZXZXZXZXZXZXZXZXZXZXZXZXZXe %XVXVXfX}.B 5 > ;   ZXZXZXZXZXZXZXZXZXZXZXZXZXZXZXZXZXZX",
"ZXZXZXZXZXZXZXZXZXZXZXZXZXZXZXZXZXZXZXn VXVXxX'.k > > ;   ZXZXZXZXZXZXZXZXZXZXZXZXZXZXZXZXZXZXZX",
"ZXZXZXZXZXZXZXZXZXZXZXZXZXZXZXZXZXZXD.&XVXzX!.y > > ;   ZXZXZXZXZXZXZXZXZXZXZXZXZXZXZXZXZXZXZXZX",
"ZXZXZXZXZXZXZXZXZXZXZXZXZXZXZXZXV.m $XVXeXV.5 > ;     ZXZXZXZXZXZXZXZXZXZXZXZXZXZXZXZXZXZXZXZXZX",
"ZXZXZXZXZXZXZXZXZXZXZXZXZXZXk p #XVXzX'.g ;       ZXZXZXZXZXZXZXZXZXZXZXZXZXZXZXZXZXZXZXZXZXZXZX",
"ZXZXZXZXZXZXZXZXZXZX$ - - $ Z VXiXC         ZXZXZXZXZXZXZXZXZXZXZXZXZXZXZXZXZXZXZXZXZXZXZXZXZXZX",
"ZXZXZXZXZXZXZXZXZXZXZX              ZXZXZXZXZXZXZXZXZXZXZXZXZXZXZXZXZXZXZXZXZXZXZXZXZXZXZXZXZXZX",
"ZXZXZXZXZXZXZXZXZXZXZXZXZXZXZXZXZXZXZXZXZXZXZXZXZXZXZXZXZXZXZXZXZXZXZXZXZXZXZXZXZXZXZXZXZXZXZXZX",
"ZXZXZXZXZXZXZXZXZXZXZXZXZXZXZXZXZXZXZXZXZXZXZXZXZXZXZXZXZXZXZXZXZXZXZXZXZXZXZXZXZXZXZXZXZXZXZXZX",
"ZXZXZXZXZXZXZXZXZXZXZXZXZXZXZXZXZXZXZXZXZXZXZXZXZXZXZXZXZXZXZXZXZXZXZXZXZXZXZXZXZXZXZXZXZXZXZXZX"
};
