/* XPM */
static char *magick[] = {
/* columns rows colors chars-per-pixel */
"48 48 255 2",
"   c Gray0",
".  c #0c0c0c",
"X  c #001d00",
"o  c #191919",
"O  c #380200",
"+  c #380400",
"@  c #3c0000",
"#  c #3d0000",
"$  c #3c0201",
"%  c #3e0000",
"&  c #3c0404",
"*  c #272727",
"=  c #2d2d2d",
"-  c #313131",
";  c #353535",
":  c Gray24",
">  c #007b00",
",  c #400000",
"<  c #480000",
"1  c #4e0000",
"2  c #4d0400",
"3  c #4c0505",
"4  c #520300",
"5  c #5a0000",
"6  c #590500",
"7  c #5d0000",
"8  c #620600",
"9  c #610707",
"0  c #640000",
"q  c #670600",
"w  c #680000",
"e  c #6e0000",
"r  c #6f0600",
"t  c #720000",
"y  c #760000",
"u  c #760700",
"i  c #7a0000",
"p  c #673d00",
"a  c #723e00",
"s  c #7a3f00",
"d  c #404000",
"f  c #444400",
"g  c #535300",
"h  c #5e5e00",
"j  c #7c4200",
"k  c #626200",
"l  c #6a6a00",
"z  c #757500",
"x  c #7e7e00",
"c  c Gray25",
"v  c Gray27",
"b  c Gray29",
"n  c #515151",
"m  c Gray35",
"M  c #5f5f5f",
"N  c Gray38",
"B  c #676767",
"V  c Gray43",
"C  c Gray45",
"Z  c #797979",
"A  c Gray",
"S  c Blue",
"D  c #008000",
"F  c #008200",
"G  c #018201",
"H  c #038303",
"J  c #048404",
"K  c #068506",
"L  c #078507",
"P  c #0a870a",
"I  c #0d880d",
"U  c #108a10",
"Y  c #128b12",
"T  c #138b13",
"R  c #168d16",
"E  c #198e19",
"W  c #1c901c",
"Q  c #1e911e",
"!  c #249424",
"~  c #289628",
"^  c #2b972b",
"/  c #2e992e",
"(  c #319a31",
")  c #349b34",
"_  c #369c36",
"`  c #389238",
"'  c #399e39",
"]  c #35a535",
"[  c #3da03d",
"{  c #3fa13f",
"}  c #3da93d",
"|  c #42a242",
" . c #46a446",
".. c #41ab41",
"X. c #4ba74b",
"o. c #49ae49",
"O. c #4fa94f",
"+. c #4eb14e",
"@. c #54a154",
"#. c #58ad58",
"$. c #5baf5b",
"%. c #57b557",
"&. c #5db05d",
"*. c #5cb75c",
"=. c #60b160",
"-. c #64b364",
";. c #67b467",
":. c #6cb76c",
">. c #71b971",
",. c #75bb75",
"<. c #76bc76",
"1. c #78bd78",
"2. c #7cbf7c",
"3. c #7fc07f",
"4. c #800000",
"5. c #850000",
"6. c #890000",
"7. c #8e0000",
"8. c #8f0c0c",
"9. c #920000",
"0. c #940000",
"q. c #980000",
"w. c #9e0000",
"e. c #a20000",
"r. c #a60000",
"t. c #a90000",
"y. c #ad0000",
"u. c #b20000",
"i. c #b70000",
"p. c #ba0000",
"a. c #be0000",
"s. c #bf0e0e",
"d. c #824f0f",
"f. c #8a571b",
"g. c #926129",
"h. c #956832",
"j. c #c60000",
"k. c #c90000",
"l. c #cd0000",
"z. c #d00000",
"x. c #d60000",
"c. c #d90000",
"v. c #de0000",
"b. c #dc0f0f",
"n. c #e10000",
"m. c #e60000",
"M. c #e80000",
"N. c #eb0000",
"B. c #ec0000",
"V. c #ee0000",
"C. c #ef0000",
"Z. c #ef0101",
"A. c #ef0404",
"S. c #ef0707",
"D. c #f11010",
"F. c #f11b1b",
"G. c #f22a2a",
"H. c #f23434",
"J. c #f33d3d",
"K. c #f44040",
"L. c #f54a4a",
"P. c #f55656",
"I. c #ee6e6e",
"U. c #f66666",
"Y. c #f77575",
"T. c #828200",
"R. c #8a8a00",
"E. c #929200",
"W. c #999900",
"Q. c #a2a200",
"!. c #aaaa00",
"~. c #b3b300",
"^. c #b9b900",
"/. c #bdbd00",
"(. c #af885f",
"). c #b18961",
"_. c #b2946d",
"`. c #b89975",
"'. c #bd9f7e",
"]. c #c8987c",
"[. c #c2c200",
"{. c #cece00",
"}. c #d3d300",
"|. c #dada00",
" X c #dede00",
".X c #e5e500",
"XX c #e9e900",
"oX c #eded00",
"OX c #f2f200",
"+X c #f6f600",
"@X c #f9f900",
"#X c #fbfb00",
"$X c #fcfc00",
"%X c #fefe00",
"&X c Yellow",
"*X c #ffff01",
"=X c #ffff03",
"-X c #ffff04",
";X c #ffff0b",
":X c #ffff12",
">X c #ffff19",
",X c #ffff1e",
"<X c #ffff22",
"1X c #ffff29",
"2X c #ffff2e",
"3X c #ffff36",
"4X c #ffff3b",
"5X c #ffff45",
"6X c #ffff57",
"7X c #ffff63",
"8X c #ffff6d",
"9X c #838383",
"0X c Gray54",
"qX c Gray55",
"wX c #8e8e8e",
"eX c #929292",
"rX c Gray59",
"tX c #9b9b9b",
"yX c Gray61",
"uX c #9f9f9f",
"iX c Gray63",
"pX c #a4a4a4",
"aX c Gray65",
"sX c Gray66",
"dX c #81c181",
"fX c #85c385",
"gX c #87c487",
"hX c #8ac68a",
"jX c #8dc78d",
"kX c #8bcd8b",
"lX c #91c991",
"zX c #94cb94",
"xX c #97cc97",
"cX c #9acd9a",
"vX c #92d092",
"bX c #9ad39a",
"nX c #9fd09f",
"mX c #9dd49d",
"MX c #a2cca2",
"NX c #a1d0a1",
"BX c #a1d5a1",
"VX c #c99e82",
"CX c #c3a486",
"ZX c #c9a78b",
"AX c #cea78e",
"SX c #caaa8f",
"DX c #cbaf95",
"FX c #ceaa90",
"GX c #cfb79e",
"HX c #d1ac94",
"JX c #d0b39b",
"KX c #ffff80",
"LX c #ffff87",
"PX c #c5e3c5",
"IX c None",
/* pixels */
"IXIXIXIXIXIXIXIXIXIXIXIXIXIXIXIXIXIXIXIXIXIXIXIXIXIXIXIXIXIXIXIXIXIXIXIXIXIXIXIXIXIXIXIXIXIXIXIX",
"IXIXIXIXIXIXIXIXIXIXIXIXIXIXIXIXIXIXIXIXIXIXIXIXIXIXIXIXIXIXIXIXIXIXIXIXIXIXIXIXIXIXIXIXIXIXIXIX",
"IXIXIXIXIXIXIXIXIXIXIXIXIXIXIXIXIXIXIXIXIXIXIXIXIXIXIXIXIXIXIXIXIXIXIXIXIXIXIXIXIXIXIXIXIXIXIXIX",
"IXIXIXIXIXIXIXIXIXIXIXIXIXIXIXiXuXrXeXqXqXqXqXqXqXqXeXqXqX0X9XZ V IXIXIXIXIXIXIXIXIXIXIXIXIXIXIX",
"IXIXIXIXIXIXIXIXIXIXIXsXsXpXiXyXJXDXSXZXPXPXPXPXPXPXPXCXCX'.`._.B N N m IXIXIXIXIXIXIXIXIXIXIXIX",
"IXIXIXIXIXIXIXIXIXIXsXpXiXGXJXHXAXcXzXjXgXfXfXfXfXfXfXfX3.1.>.).(.*.%.@.n b IXIXIXIXIXIXIXIXIXIX",
"IXIXIXIXIXIXIXIXsXsXMXBXbXHXNXcXlXgX2.>.:.:.:.:.:.:.:.:.;.-.=.&.&.#.+.+.o.v c : IXIXIXIXIXIXIXIX",
"IXIXIXIXIXIXIXsXpXBXbXvXNXxXhX2.:.#.O. .| { { { { { { { { { |  .X.O.O.X...} } ` - IXIXIXIXIXIXIX",
"IXIXIXIXIXpXpXuXmXvXNXxXgX,.=.X.' ^ Q R Y Y Y Y Y Y Y Y Y R Q ! / _ { { { { ] h.= * o IXIXIXIXIX",
"IXIXIXIXtXuXGXbXkXcXjX1.&.| / W Y P K G G G G G G G G G G G K P Y E ! ^ ( _ ) g.g.f..   IXIXIXIX",
"IXIXIXIXrXDXFXnXzXdX;.X./ Q I K G G G G G G G G G G G G G G G G G K I R Q ^ / ! Q d.j   IXIXIXIX",
"IXIXIXeXqXZXxXjX<.#._ Q Y K G G G G G G G G G G G G G G G G G G G G G K I R Q W Y G s     IXIXIX",
"IXIXqX0XZX].hX>.O./ R P K G G G G G G G G G G G G G G G G G G G G G G G K P U U P G s a     IXIX",
"IXIX9XZXVXjX,.O.^ Y K G G G G G G G G G G S S S S G G G G G G G G G G G G G K K K G > a p   IXIX",
"IXC C VXlX2.#.( R K G G G G G G G G G S S S S S S S S G G G G G G G G G G G G G K K G > p     IX",
"IXM KXLXKX7X4X,X;X=X=X=X=X=X=X=X=X=XS S S S S S S S S S =X=X=X=X=X=X=X=X=X=X=X=X-X;X=XXX}./.  IX",
"IXn 8X8X7X5X,X;X=X=X=X=X=X=X=X=X=XS S S S S S S S S S S S =X=X=X=X=X=X=X=X=X=X=X=X;X#X|.^.W.  IX",
"IXv 6X6X5X1X;X=X=X=X=X=X=X=X=X=X=XS S S S S S S S S S S S =X=X=X=X=X=X=X=X=X=X=X=X=XOX{.Q.x   IX",
"IX: 5X5X3X>X=X=X=X=X=X=X=X=X=X=XS S S S S S S S S S S S S S =X=X=X=X=X=X=X=X=X=X=X=XoX/.E.l   IX",
"IX: 4X4X2X:X=X=X=X=X=X=X=X=X=X=XS S S S S S S S S S S S S S =X=X=X=X=X=X=X=X=X=X=X=XXX^.R.k   IX",
"IX: 3X3X1X:X=X=X=X=X=X=X=X=X=X=XS S S S S S S S S S S S S S =X=X=X=X=X=X=X=X=X=X=X=X.X~.T.h   IX",
"IX; 2X1X<X:X=X=X=X=X=X=X=X=X=X=XS S S S S S S S S S S S S S =X=X=X=X=X=X=X=X=X=X=X#X X!.z g   IX",
"IX= >X>X>X;X#X=X=X=X=X=X=X=X=X=X=XS S S S S S S S S S S S =X=X=X=X=X=X=X=X=X=X=X=XOX{.E.h d   IX",
"IXo =X+X#X#X#X=X=X=X=X=X=X=X=X=X=XS S S S S S S S S S S S =X=X=X=X=X=X=X=X=X=X=X+X X!.l d d   IX",
"IX     X.XoXOX#X=X=X=X=X=X=X=X=X=X=XS S S S S S S S S S =X=X=X=X=X=X=X=X=X=X=X#XXX[.T.f d     IX",
"IXIX  {.{. XoX+X=X=X=X=X=X=X=X=X=X=X=XS S S S S S S S =X=X=X=X=X=X=X=X=X=X=X#XoX}.W.g d d   IXIX",
"IXIX    u.a.j.c.n.m.C.C.C.C.C.C.C.C.C.C.C.S S S S C.C.C.C.C.C.C.C.C.C.C.C.m.v.j.q.7 , #     IXIX",
"IXIXIX    y.y.p.k.c.m.N.C.C.C.C.C.C.C.C.C.C.C.C.C.C.C.C.C.C.C.C.C.C.C.N.m.c.a.0.7 # #     IXIXIX",
"IXIXIXIX  w.0.q.r.p.z.v.m.N.C.C.C.C.C.C.C.C.C.C.C.C.C.C.C.C.C.C.C.C.m.v.k.y.5.1 # # #   IXIXIXIX",
"IXIXIXIX    4.r u 7.t.a.z.v.m.N.C.C.C.C.C.C.C.C.C.C.C.C.C.C.C.N.m.v.z.i.9.w # + O #     IXIXIXIX",
"IXIXIXIXIX      8 q i 7.r.a.z.v.m.N.C.N.C.C.C.C.C.C.C.C.C.N.n.x.k.u.0.t < # O O X     IXIXIXIXIX",
"IXIXIXIXIXIXIX    6 6 8 y 7.e.u.a.j.k.z.c.n.m.N.C.C.C.m.n.z.p.e.5.w < # + O O     IXIXIXIXIXIXIX",
"IXIXIXIXIXIXIXIX      2 4 0 e i 4.5.7.w.i.l.v.N.C.C.N.v.k.r.4.7 # # # # O       IXIXIXIXIXIXIXIX",
"IXIXIXIXIXIXIXIXIXIX      1 1 1 < 1 5 t q.a.c.N.C.C.m.l.t.t < , # # #       IXIXIXIXIXIXIXIXIXIX",
"IXIXIXIXIXIXIXIXIXIXIXIX      # # # , 7 8.s.v.S.S.C.c.i.4.< # #         IXIXIXIXIXIXIXIXIXIXIXIX",
"IXIXIXIXIXIXIXIXIXIXIXIXIXIX              b.S.D.S.m.k.q.5 #       IXIXIXIXIXIXIXIXIXIXIXIXIXIXIX",
"IXIXIXIXIXIXIXIXIXIXIXIXIXIXIXIXIXIXIXIX  G.G.F.S.z.t.e # #   IXIXIXIXIXIXIXIXIXIXIXIXIXIXIXIXIX",
"IXIXIXIXIXIXIXIXIXIXIXIXIXIXIXIXIXIXIX; ; P.J.F.c.t.t # # #   IXIXIXIXIXIXIXIXIXIXIXIXIXIXIXIXIX",
"IXIXIXIXIXIXIXIXIXIXIXIXIXIXIXIXIXIXIXN I.U.H.n.w.0 # # #     IXIXIXIXIXIXIXIXIXIXIXIXIXIXIXIXIX",
"IXIXIXIXIXIXIXIXIXIXIXIXIXIXIXIXIXIXqXA Y.J.v.7.1 # & #     IXIXIXIXIXIXIXIXIXIXIXIXIXIXIXIXIXIX",
"IXIXIXIXIXIXIXIXIXIXIXIXIXIXIXIXIXuXeXU.J.l.i # & & #     IXIXIXIXIXIXIXIXIXIXIXIXIXIXIXIXIXIXIX",
"IXIXIXIXIXIXIXIXIXIXIXIXIXIXIXrXrX9XL.D.u.9 & & #       IXIXIXIXIXIXIXIXIXIXIXIXIXIXIXIXIXIXIXIX",
"IXIXIXIXIXIXIXIXIXIXIXIXIXB A C K.F.l.6.3 #         IXIXIXIXIXIXIXIXIXIXIXIXIXIXIXIXIXIXIXIXIXIX",
"IXIXIXIXIXIXIXIXIXIX: v v : F.C.z.w.          IXIXIXIXIXIXIXIXIXIXIXIXIXIXIXIXIXIXIXIXIXIXIXIXIX",
"IXIXIXIXIXIXIXIXIXIXIX                IXIXIXIXIXIXIXIXIXIXIXIXIXIXIXIXIXIXIXIXIXIXIXIXIXIXIXIXIX",
"IXIXIXIXIXIXIXIXIXIXIXIXIXIXIXIXIXIXIXIXIXIXIXIXIXIXIXIXIXIXIXIXIXIXIXIXIXIXIXIXIXIXIXIXIXIXIXIX",
"IXIXIXIXIXIXIXIXIXIXIXIXIXIXIXIXIXIXIXIXIXIXIXIXIXIXIXIXIXIXIXIXIXIXIXIXIXIXIXIXIXIXIXIXIXIXIXIX",
"IXIXIXIXIXIXIXIXIXIXIXIXIXIXIXIXIXIXIXIXIXIXIXIXIXIXIXIXIXIXIXIXIXIXIXIXIXIXIXIXIXIXIXIXIXIXIXIX"
};
