/* XPM */
static char *magick[] = {
/* columns rows colors chars-per-pixel */
"48 48 256 2",
"   c Gray0",
".  c #010101",
"X  c #0c0c0c",
"o  c #161616",
"O  c #1b1b1b",
"+  c #272727",
"@  c #2a2a2a",
"#  c Gray19",
"$  c #373737",
"%  c #393939",
"&  c #3c3c3c",
"*  c #3f3f3f",
"=  c #000040",
"-  c #000044",
";  c #000051",
":  c #000057",
">  c #00006a",
",  c #000075",
"<  c #00007b",
"1  c #00007e",
"2  c #3d3d40",
"3  c #400000",
"4  c #420000",
"5  c #470000",
"6  c #4a0000",
"7  c #4e0000",
"8  c #500000",
"9  c #590000",
"0  c #5d0000",
"q  c #620000",
"w  c #630000",
"e  c #6b0000",
"r  c #6e0000",
"t  c #710000",
"y  c #720000",
"u  c #750000",
"i  c #790000",
"p  c #7d0000",
"a  c Gray25",
"s  c Gray26",
"d  c #464646",
"f  c #494949",
"g  c #515151",
"h  c Gray33",
"j  c #585858",
"k  c #606060",
"l  c Gray39",
"z  c #676767",
"x  c Gray43",
"c  c Gray45",
"v  c #767676",
"b  c #797979",
"n  c #000081",
"m  c #000087",
"M  c #000092",
"N  c #000095",
"B  c #0000a2",
"V  c #0000aa",
"C  c #0000ad",
"Z  c #0000b4",
"A  c #0000ba",
"S  c #0000c3",
"D  c #0000ca",
"F  c #0000cf",
"G  c #0000d5",
"H  c #0000d8",
"J  c #0000db",
"K  c #0000de",
"L  c #0000e0",
"P  c #0000e1",
"I  c #0000e3",
"U  c #0000e7",
"Y  c #0000e9",
"T  c #0000ec",
"R  c #0000f0",
"E  c #0000f2",
"W  c #0000f5",
"Q  c #0000f6",
"!  c #0000f8",
"~  c #0000f9",
"^  c #0000fb",
"/  c #0000fc",
"(  c #0000fe",
")  c Blue",
"_  c #0101ff",
"`  c #0303ff",
"'  c #0404ff",
"]  c #0606ff",
"[  c #0909ff",
"{  c #0a0aff",
"}  c #0d0dff",
"|  c #0f0fff",
" . c #1010ff",
".. c #1313ff",
"X. c #1818ff",
"o. c #1b1bff",
"O. c #1c1cff",
"+. c #1e1eff",
"@. c #2222ff",
"#. c #2424ff",
"$. c #2727ff",
"%. c #2b2bff",
"&. c #3131ff",
"*. c #3333ff",
"=. c #3434ff",
"-. c #3a3aff",
";. c #3c3cff",
":. c #3d3dff",
">. c #4646ff",
",. c #4848ff",
"<. c #5151ff",
"1. c #5555ff",
"2. c #5858ff",
"3. c #6060ff",
"4. c #6363ff",
"5. c #6c6cff",
"6. c #6f6fff",
"7. c #7f7fff",
"8. c #820000",
"9. c #850000",
"0. c #890000",
"q. c #8d0000",
"w. c #8f0000",
"e. c #920000",
"r. c #960000",
"t. c #980000",
"y. c #9b0000",
"u. c #9c0000",
"i. c #9f0000",
"p. c #a10000",
"a. c #a50000",
"s. c #a70000",
"d. c #a80000",
"f. c #ab0000",
"g. c #ad0000",
"h. c #b10000",
"j. c #b40000",
"k. c #b70000",
"l. c #b90000",
"z. c #bd0000",
"x. c #bf0000",
"c. c #c20000",
"v. c #c50000",
"b. c #c60000",
"n. c #c90000",
"m. c #cb0000",
"M. c #ce0000",
"N. c #d10000",
"B. c #d20000",
"V. c #d50000",
"C. c #da0000",
"Z. c #db0000",
"A. c #de0000",
"S. c #e00000",
"D. c #e30000",
"F. c #e40000",
"G. c #e70000",
"H. c #e90000",
"J. c #ea0000",
"K. c #ec0000",
"L. c #ef0000",
"P. c #f00000",
"I. c #f20000",
"U. c #f30000",
"Y. c #f50000",
"T. c #f60000",
"R. c #f80000",
"E. c #f90000",
"W. c #fb0000",
"Q. c #fc0000",
"!. c #fe0000",
"~. c Red",
"^. c #ff0101",
"/. c #ff0303",
"(. c #ff0404",
"). c #ff0606",
"_. c #ff0707",
"`. c #ff0909",
"'. c #ff0a0a",
"]. c #ff0d0d",
"[. c #ff0f0f",
"{. c #ff1010",
"}. c #ff1212",
"|. c #ff1515",
" X c #ff1818",
".X c #ff1919",
"XX c #ff1b1b",
"oX c #ff1c1c",
"OX c #ff1f1f",
"+X c #ff2121",
"@X c #ff2525",
"#X c #ff2727",
"$X c #ff2828",
"%X c #ff2b2b",
"&X c #ff3030",
"*X c #ff3131",
"=X c #ff3333",
"-X c #ff3434",
";X c #ff3636",
":X c #ff3737",
">X c #ff3939",
",X c #ff3c3c",
"<X c #ff3f3f",
"1X c #ff4343",
"2X c #ff4949",
"3X c #ff4b4b",
"4X c #ff4c4c",
"5X c #ff5151",
"6X c #ff5555",
"7X c #ff5858",
"8X c #ff5a5a",
"9X c #ff5b5b",
"0X c #ff5d5d",
"qX c #ff6060",
"wX c #ff6363",
"eX c #ff6464",
"rX c #ff6767",
"tX c #ff6969",
"yX c #ff6c6c",
"uX c #ff6f6f",
"iX c #ff7171",
"pX c #ff7676",
"aX c #ff7a7a",
"sX c #ff7c7c",
"dX c #ff7f7f",
"fX c #818181",
"gX c Gray51",
"hX c #848484",
"jX c #888888",
"kX c #8b8b8b",
"lX c #8d8d8d",
"zX c #8e8e8e",
"xX c Gray57",
"cX c #939393",
"vX c #979797",
"bX c #9a9a9a",
"nX c #9d9d9d",
"mX c #9f9f9f",
"MX c #a0a0a0",
"NX c Gray64",
"BX c #a4a4a2",
"VX c #a5a5a5",
"CX c Gray65",
"ZX c Gray66",
"AX c #a9a9a9",
"SX c #ff8181",
"DX c #ff8282",
"FX c #ff8787",
"GX c #ff8a8a",
"HX c #ff8d8d",
"JX c #ff9292",
"KX c #ff9494",
"LX c #ff9a9a",
"PX c #ff9c9c",
"IX c Gray100",
"UX c None",
/* pixels */
"UXUXUXUXUXUXUXUXUXUXUXUXUXUXUXUXUXUXUXUXUXUXUXUXUXUXUXUXUXUXUXUXUXUXUXUXUXUXUXUXUXUXUXUXUXUXUXUX",
"UXUXUXUXUXUXUXUXUXUXUXUXUXUXUXUXUXUXUXUXUXUXUXUXUXUXUXUXUXUXUXUXUXUXUXUXUXUXUXUXUXUXUXUXUXUXUXUX",
"UXUXUXUXUXUXUXUXUXUXUXUXUXUXUXUXUXUXUXUXUXUXUXUXUXUXUXUXUXUXUXUXUXUXUXUXUXUXUXUXUXUXUXUXUXUXUXUX",
"UXUXUXUXUXUXUXUXUXUXUXUXUXUXUXNXmXvXcXzXzXzXzXzXzXzXzXzXzXkXfXb x UXUXUXUXUXUXUXUXUXUXUXUXUXUXUX",
"UXUXUXUXUXUXUXUXUXUXUXZXCXCXNXmXKXHXGXSXSXSXSXSXSXSXSXSXSXaXpXiXz k k j UXUXUXUXUXUXUXUXUXUXUXUX",
"UXUXUXUXUXUXUXUXUXUXZXCXBXLXJXFXaXiXtXeXwXwXwXwXwXwXwXwXwXwX0X9X9X9X9Xh g f UXUXUXUXUXUXUXUXUXUX",
"UXUXUXUXUXUXUXUXZXZXNXLXHXdXuX9X2X<X;X&X&X&X&X&X&X&X&X&X&X&X&X;X<X1X2X2X2Xd a * UXUXUXUXUXUXUXUX",
"UXUXUXUXUXUXUXZXCXPXHXaXwX4X;X#XXX}.].`.`.`.`.`.`.`.`.`.`.`.].}.XX+X$X&X<X<X<X$ # UXUXUXUXUXUXUX",
"UXUXUXUXUXNXCXNXKXdXeX2X&XOX}.`.(.Q.Q.Q.Q.Q.Q.Q.Q.Q.Q.Q.Q.Q.Q.Q.(.`.}.XX#X$X&X;X# + O UXUXUXUXUX",
"UXUXUXUXbXmXLXGXuX5X;XOX[.`.(.Q.Q.Q.Q.Q.Q.Q.Q.Q.Q.Q.Q.Q.Q.Q.Q.Q.Q.Q.(.(.].|.+X$X#XOXX   UXUXUXUX",
"UXUXUXUXvXJXSXeX1X#X|.`./.Q.Q.Q.Q.Q.Q.Q.Q.Q.Q.Q.Q.Q.Q.Q.Q.Q.Q.Q.Q.Q.Q.Q.(.(.}.XXXX}.Q.  UXUXUXUX",
"UXUXUXcXzX7.4.-.O.} ] ` ` ` ` ` ` ` ` ` ` ` ` ` ` ` ` ` ` ` ` ` ` ` ` ` ` ` ] } } [ !     UXUXUX",
"UXUXkXkX7.4.:.O.[ ] ` ` ` ` ` ` ` ` ` ` ` ` IXIXIXIX` ` ` ` ` ` ` ` ` ` ` ` ` ` ] ] ! Y     UXUX",
"UXUXhX7.6.,.#.} ` ` ` ` ` ` ` ` ` ` ` ` IXIXIXIXIXIXIXIX` ` ` ` ` ` ` ` ` ` ` ` ` ` ` T G   UXUX",
"UXc v 6.1.&...] ` ` ` ` ` ` ` ` ` ` ` IXIXIXIXIXIXIXIXIXIX` ` ` ` ` ` ` ` ` ` ` ` ` ` T F     UX",
"UXk 4.2.:.o.[ ` ` ` ` ` ` ` ` ` ` ` IXIXIXIXIXIXIXIXIXIXIXIX` ` ` ` ` ` ` ` ` ` ` ` ` U S B   UX",
"UXg <.>.%.} ` ` ` ` ` ` ` ` ` ` ` ` IXIXIXIXIXIXIXIXIXIXIXIX` ` ` ` ` ` ` ` ` ` ` ` ! L A M   UX",
"UXd >.-.@.] ` ` ` ` ` ` ` ` ` ` ` IXIXIXIXIXIXIXIXIXIXIXIXIXIX` ` ` ` ` ` ` ` ` ` ` ` L Z m   UX",
"UX* :.=.O.] ` ` ` ` ` ` ` ` ` ` ` IXIXIXIXIXIXIXIXIXIXIXIXIXIX` ` ` ` ` ` ` ` ` ` ` ! K C n   UX",
"UX2 :.&.O.] ` ` ` ` ` ` ` ` ` ` ` IXIXIXIXIXIXIXIXIXIXIXIXIXIX` ` ` ` ` ` ` ` ` ` ` ! K C n   UX",
"UX* -.&.o.] ` ` ` ` ` ` ` ` ` ` ` IXIXIXIXIXIXIXIXIXIXIXIXIXIX` ` ` ` ` ` ` ` ` ` ` ! H V 1   UX",
"UX$ &.%.o.` ` ` ` ` ` ` ` ` ` ` ` ` IXIXIXIXIXIXIXIXIXIXIXIX` ` ` ` ` ` ` ` ` ` ` ` W G B ,   UX",
"UX@ #.@...` ` ` ` ` ` ` ` ` ` ` ` ` IXIXIXIXIXIXIXIXIXIXIXIX` ` ` ` ` ` ` ` ` ` ` ` T D N >   UX",
"UXo ....] ` ` ` ` ` ` ` ` ` ` ` ` ` ` IXIXIXIXIXIXIXIXIXIX` ` ` ` ` ` ` ` ` ` ` ` W L Z 1 ;   UX",
"UX    W ! ! ! ` ` ` ` ` ` ` ` ` ` ` ` ` IXIXIXIXIXIXIXIX` ` ` ` ` ` ` ` ` ` ` ` ! T D M :     UX",
"UXUX  L Y E ! ` ` ` ` ` ` ` ` ` ` ` ` ` ` ` IXIXIXIX` ` ` ` ` ` ` ` ` ` ` ` ` ` E H V > =   UXUX",
"UXUX    H U E ! ` ` ` ` ` ` ` ` ` ` ` ` ` ` ` ` ` ` ` ` ` ` ` ` ` ` ` ` ` ` ! W L A 1 -     UXUX",
"UXUXUX    N.Z.J.P.W.W.Q.Q.Q.Q.Q.Q.Q.Q.Q.Q.Q.Q.Q.Q.Q.Q.Q.Q.Q.Q.Q.Q.Q.Q.Q.W.T.L.D.z.0.7     UXUXUX",
"UXUXUXUX  k.z.M.Z.L.T.W.Q.Q.Q.Q.Q.Q.Q.Q.Q.Q.Q.Q.Q.Q.Q.Q.Q.Q.Q.Q.Q.Q.Q.Q.T.J.V.k.9.8 3   UXUXUXUX",
"UXUXUXUX    y.a.l.N.D.L.W.Q.Q.Q.Q.Q.Q.Q.Q.Q.Q.Q.Q.Q.Q.Q.Q.Q.Q.Q.Q.W.T.P.Z.v.u.t 3 3     UXUXUXUX",
"UXUXUXUXUX      q.a.z.N.D.L.T.Q.Q.Q.Q.Q.Q.Q.Q.Q.Q.Q.Q.Q.Q.Q.Q.W.T.L.D.m.g.8.9 3       UXUXUXUXUX",
"UXUXUXUXUXUXUX    p q.p.k.m.Z.F.P.T.T.W.W.Q.Q.Q.Q.Q.Q.Q.Q.T.P.F.V.c.a.9.q 3 3     UXUXUXUXUXUXUX",
"UXUXUXUXUXUXUXUX      t 8.e.a.k.z.m.N.C.F.P.W.Q.Q.Q.Q.W.P.D.M.k.r.i 9 3 3       UXUXUXUXUXUXUXUX",
"UXUXUXUXUXUXUXUXUXUX      q e u p 0.y.k.N.J.W.Q.Q.Q.Q.T.D.v.u.u 7 3 3       UXUXUXUXUXUXUXUXUXUX",
"UXUXUXUXUXUXUXUXUXUXUXUX      5 6 9 t y.v.F.W.Q.Q.Q.W.J.m.y.q 3         UXUXUXUXUXUXUXUXUXUXUXUX",
"UXUXUXUXUXUXUXUXUXUXUXUXUXUXUX            T.(.(.(.Q.P.N.p.q       UXUXUXUXUXUXUXUXUXUXUXUXUXUXUX",
"UXUXUXUXUXUXUXUXUXUXUXUXUXUXUXUXUXUXUXUX  |.XX].Q.T.C.g.r 3   UXUXUXUXUXUXUXUXUXUXUXUXUXUXUXUXUX",
"UXUXUXUXUXUXUXUXUXUXUXUXUXUXUXUXUXUXUXUX% >X$X].T.C.h.u 3 3   UXUXUXUXUXUXUXUXUXUXUXUXUXUXUXUXUX",
"UXUXUXUXUXUXUXUXUXUXUXUXUXUXUXUXUXUXUXl 0X2X#XW.N.d.t 3 3   UXUXUXUXUXUXUXUXUXUXUXUXUXUXUXUXUXUX",
"UXUXUXUXUXUXUXUXUXUXUXUXUXUXUXUXUXUXUXfXeX>XW.z.q.0 3 3   UXUXUXUXUXUXUXUXUXUXUXUXUXUXUXUXUXUXUX",
"UXUXUXUXUXUXUXUXUXUXUXUXUXUXUXUXUXUXcXiX<XL.p.e 3 3 3   UXUXUXUXUXUXUXUXUXUXUXUXUXUXUXUXUXUXUXUX",
"UXUXUXUXUXUXUXUXUXUXUXUXUXUXUXUXcXfX0XXXv.i 3 3 3     UXUXUXUXUXUXUXUXUXUXUXUXUXUXUXUXUXUXUXUXUX",
"UXUXUXUXUXUXUXUXUXUXUXUXUXUXb x 6X+XC.q.7 3       UXUXUXUXUXUXUXUXUXUXUXUXUXUXUXUXUXUXUXUXUXUXUX",
"UXUXUXUXUXUXUXUXUXUX% a a * #XQ.m.0.        UXUXUXUXUXUXUXUXUXUXUXUXUXUXUXUXUXUXUXUXUXUXUXUXUXUX",
"UXUXUXUXUXUXUXUXUXUXUX              UXUXUXUXUXUXUXUXUXUXUXUXUXUXUXUXUXUXUXUXUXUXUXUXUXUXUXUXUXUX",
"UXUXUXUXUXUXUXUXUXUXUXUXUXUXUXUXUXUXUXUXUXUXUXUXUXUXUXUXUXUXUXUXUXUXUXUXUXUXUXUXUXUXUXUXUXUXUXUX",
"UXUXUXUXUXUXUXUXUXUXUXUXUXUXUXUXUXUXUXUXUXUXUXUXUXUXUXUXUXUXUXUXUXUXUXUXUXUXUXUXUXUXUXUXUXUXUXUX",
"UXUXUXUXUXUXUXUXUXUXUXUXUXUXUXUXUXUXUXUXUXUXUXUXUXUXUXUXUXUXUXUXUXUXUXUXUXUXUXUXUXUXUXUXUXUXUXUX"
};
