/* XPM */
static char *magick[] = {
/* columns rows colors chars-per-pixel */
"48 48 256 2",
"   c Gray0",
".  c #000004",
"X  c #0c0c0c",
"o  c #161616",
"O  c Gray11",
"+  c #232323",
"@  c #272727",
"#  c #2a2a2a",
"$  c Gray18",
"%  c #313131",
"&  c #343434",
"*  c #373737",
"=  c Gray22",
"-  c #3c3c3c",
";  c #3e3e3e",
":  c #000048",
">  c #1d1d40",
",  c #000062",
"<  c #00006c",
"1  c #000071",
"2  c #000075",
"3  c #00007d",
"4  c #400000",
"5  c #420000",
"6  c #440000",
"7  c #4e0000",
"8  c #510000",
"9  c #570000",
"0  c #5a0000",
"q  c #620000",
"w  c #6a0000",
"e  c #720000",
"r  c #750000",
"t  c #7b0000",
"y  c #7e0000",
"u  c Gray25",
"i  c #414141",
"p  c #464646",
"a  c #494949",
"s  c #4b4b4b",
"d  c #4e4e4e",
"f  c #515151",
"g  c Gray33",
"h  c Gray34",
"j  c Gray35",
"k  c #606060",
"l  c Gray39",
"z  c #676767",
"x  c Gray42",
"c  c #6d6d6d",
"v  c #6f6f6f",
"b  c Gray45",
"n  c #777777",
"m  c Gray47",
"M  c Gray49",
"N  c #000080",
"B  c #00008e",
"V  c #000092",
"C  c #00009b",
"Z  c #0000a1",
"A  c #0000a5",
"S  c #0000b6",
"D  c #0000b9",
"F  c #0000be",
"G  c #0000cd",
"H  c #0000d1",
"J  c #0000da",
"K  c #0000de",
"L  c #0000e0",
"P  c #0000e3",
"I  c #0000e7",
"U  c #0000ea",
"Y  c #0000ec",
"T  c #0000ef",
"R  c #0000f2",
"E  c #0000f5",
"W  c #0000f6",
"Q  c #0000f8",
"!  c #0000f9",
"~  c #0000fb",
"^  c #0000fc",
"/  c #0000fe",
"(  c Blue",
")  c #0101ff",
"_  c #0303ff",
"`  c #0404ff",
"'  c #0606ff",
"]  c #0909ff",
"[  c #0a0aff",
"{  c #0d0dff",
"}  c #0f0fff",
"|  c #1010ff",
" . c #1212ff",
".. c #1313ff",
"X. c #1515ff",
"o. c #1818ff",
"O. c #1b1bff",
"+. c #1c1cff",
"@. c #1e1eff",
"#. c #2222ff",
"$. c #2424ff",
"%. c #2727ff",
"&. c #2b2bff",
"*. c #3030ff",
"=. c #3333ff",
"-. c #3434ff",
";. c #3737ff",
":. c #3a3aff",
">. c #3c3cff",
",. c #3d3dff",
"<. c #4d4d95",
"1. c #4242ff",
"2. c #4646ff",
"3. c #4848ff",
"4. c #4b4bff",
"5. c #4c4cff",
"6. c #5151ff",
"7. c #5555ff",
"8. c #5858ff",
"9. c #5b5bff",
"0. c #6060ff",
"q. c #6363ff",
"w. c #6464ff",
"e. c #6c6cff",
"r. c #6f6fff",
"t. c #7a7aff",
"y. c #7e7eff",
"u. c #7f7fff",
"i. c #810000",
"p. c #840000",
"a. c #870000",
"s. c #890000",
"d. c #920000",
"f. c #960000",
"g. c #9f0000",
"h. c #a20000",
"j. c #a70000",
"k. c #aa0000",
"l. c #ad0000",
"z. c #b30000",
"x. c #b40000",
"c. c #ba0000",
"v. c #bd0000",
"b. c #c30000",
"n. c #ca0000",
"m. c #cf0000",
"M. c #d50000",
"N. c #da0000",
"B. c #de0000",
"V. c #e00000",
"C. c #e10000",
"Z. c #e30000",
"A. c #e60000",
"S. c #ea0000",
"D. c #ec0000",
"F. c #ed0000",
"G. c #ef0000",
"H. c #f10000",
"J. c #f50000",
"K. c #f60000",
"L. c #f80000",
"P. c #f90000",
"I. c #fb0000",
"U. c #fc0000",
"Y. c #fe0000",
"T. c Red",
"R. c #ff0101",
"E. c #ff0303",
"W. c #ff0404",
"Q. c #ff0606",
"!. c #ff0707",
"~. c #ff0a0a",
"^. c #ff0d0d",
"/. c #ff0f0f",
"(. c #ff1010",
"). c #ff1212",
"_. c #ff1616",
"`. c #ff1919",
"'. c #ff1b1b",
"]. c #ff1c1c",
"[. c #ff2222",
"{. c #ff2424",
"}. c #ff2727",
"|. c #ff2828",
" X c #ff2b2b",
".X c #ff3333",
"XX c #ff3434",
"oX c #ff3636",
"OX c #ff3c3c",
"+X c #ff4343",
"@X c #ff4949",
"#X c #ff4b4b",
"$X c #ff5858",
"%X c #ff5a5a",
"&X c #ff7070",
"*X c #818181",
"=X c #838383",
"-X c Gray52",
";X c #868686",
":X c #898989",
">X c #8b8b8b",
",X c #8d8d8d",
"<X c #8e8e8e",
"1X c #929292",
"2X c #959595",
"3X c #979797",
"4X c #989898",
"5X c #9a9a9a",
"6X c Gray61",
"7X c #9f9f9f",
"8X c #a0a0a0",
"9X c #a2a2a2",
"0X c Gray64",
"qX c #a5a5a5",
"wX c Gray65",
"eX c Gray66",
"rX c #a9a9a9",
"tX c Gray67",
"yX c #b1b1b1",
"uX c Gray70",
"iX c #b4b4b4",
"pX c #b7b7b7",
"aX c Gray75",
"sX c #8181ff",
"dX c #8787ff",
"fX c #8b8bff",
"gX c #8e8eff",
"hX c #9191ff",
"jX c #9494ff",
"kX c #9b9bff",
"lX c #a7a7ff",
"zX c #b3b3ff",
"xX c #c0c0c0",
"cX c Gray79",
"vX c #cecece",
"bX c Gray82",
"nX c Gray83",
"mX c #d8d8d8",
"MX c Gray86",
"NX c #dddddd",
"BX c Gray89",
"VX c #e7e7e7",
"CX c #e9e9e9",
"ZX c #ececec",
"AX c #efefef",
"SX c Gray94",
"DX c Gray95",
"FX c #f3f3f3",
"GX c #f6f6f6",
"HX c #f8f8f8",
"JX c #f9f9f9",
"KX c #fbfbfb",
"LX c Gray99",
"PX c #fefefe",
"IX c Gray100",
"UX c None",
/* pixels */
"UXUXUXUXUXUXUXUXUXUXUXUXUXUXUXUXUXUXUXUXUXUXUXUXUXUXUXUXUXUXUXUXUXUXUXUXUXUXUXUXUXUXUXUXUXUXUXUX",
"UXUXUXUXUXUXUXUXUXUXUXUXUXUXUXUXUXUXUXUXUXUXUXUXUXUXUXUXUXUXUXUXUXUXUXUXUXUXUXUXUXUXUXUXUXUXUXUX",
"UXUXUXUXUXUXUXUXUXUXUXUXUXUXUXUXUXUXUXUXUXUXUXUXUXUXUXUXUXUXUXUXUXUXUXUXUXUXUXUXUXUXUXUXUXUXUXUX",
"UXUXUXUXUXUXUXUXUXUXUXUXUXUXUX0X7X3X1X<X<X<X<X<X<X<X<X<X<X>X=Xm v UXUXUXUXUXUXUXUXUXUXUXUXUXUXUX",
"UXUXUXUXUXUXUXUXUXUXUXeXwXwX0X7XjXIXIXIXIXIXIXIXIXIXIXIXIXIXIX&Xz k k j UXUXUXUXUXUXUXUXUXUXUXUX",
"UXUXUXUXUXUXUXUXUXUXeXwX0XkXhXdXt.IXIXIXIXIXIXIXIXIXIXIXIXIXIX%X%X%X%Xh f s UXUXUXUXUXUXUXUXUXUX",
"UXUXUXUXUXUXUXUXeXeX0XkXgXu.r.8.3.IXIXIXIXIXIXIXIXIXIXIXIXIXIXoXOX+X#X#X#Xp u ; UXUXUXUXUXUXUXUX",
"UXUXUXUXUXUXUXeXwXkXgXt.q.5.;.$.O.IXIXIXIXIXIXIXIXIXIXIXIXIXIX).'.[. XoXOXOXOX* % UXUXUXUXUXUXUX",
"UXUXUXUXUX0XwX0XjXu.w.3.*.+...] ' IXIXIXIXIXIXIXIXIXIXIXIXIXIXE.W.~.^.'.}. X.X.X$ @ O UXUXUXUXUX",
"UXUXUXUX5X7XkXfXr.6.;.+.{ ' ' _ _ IXIXIXIXIXIXIXIXIXIXIXIXIXIXE.E.E.E.W.^._.[. X}.].X   UXUXUXUX",
"UXUXUXUX3XjXsXw.1.$.X.] _ _ _ _ _ IXIXIXIXIXIXIXIXIXIXIXIXIXIXE.E.E.E.E.W.W.).'.'.).E.  UXUXUXUX",
"UXUXUX1X<Xu.q.:.+.{ ' _ _ _ _ _ _ IXIXIXIXIXIXIXIXIXIXIXIXIXIXE.E.E.E.E.E.E.W.^.^.~.P.    UXUXUX",
"UXUX>X>Xu.q.,.+.] ' _ _ _ _ _ _ _ IXIXIXIXIXIXIXIXIXIXIXIXIXIXE.E.E.E.E.E.E.E.E.W.W.P.S.    UXUX",
"UXUX=Xu.r.3.$.{ _ _ _ _ _ _ _ _ _ IXIXIXIXIXIXIXIXIXIXIXIXIXIXE.E.E.E.E.E.E.E.E.E.E.E.D.M.  UXUX",
"UXb n r.7.*...' _ _ _ _ _ _ _ _ _ IXIXIXIXIXIXIXIXIXIXIXIXIXIXE.E.E.E.E.E.E.E.E.E.E.E.D.m.    UX",
"UXk q.8.,.O.] _ _ _ _ _ _ _ _ _ _ IXIXIXIXIXIXIXIXIXIXIXIXIXIXE.E.E.E.E.E.E.E.E.E.E.E.A.b.h.  UX",
"UXf 6.2.&.{ _ _ _ _ _ _ _ _ _ _ _ IXIXIXIXIXIXIXIXIXIXIXIXIXIXE.E.E.E.E.E.E.E.E.E.E.P.Z.c.d.  UX",
"UXp 2.:.#.' _ _ _ _ _ _ _ _ _ _ _ IXIXIXIXIXIXIXIXIXIXIXIXIXIXE.E.E.E.E.E.E.E.E.E.E.P.Z.z.p.  UX",
"UXu ,.;.+.' _ _ _ _ _ _ _ _ _ _ _ IXIXIXIXIXIXIXIXIXIXIXIXIXIXE.E.E.E.E.E.E.E.E.E.E.P.B.l.i.  UX",
"UX; ,.*.+.' _ _ _ _ _ _ _ _ _ _ _ IXIXIXIXIXIXIXIXIXIXIXIXIXIXE.E.E.E.E.E.E.E.E.E.E.P.B.l.i.  UX",
"UX; :.*.O.' _ _ _ _ _ _ _ _ _ _ _ IXIXIXIXIXIXIXIXIXIXIXIXIXIXE.E.E.E.E.E.E.E.E.E.E.P.N.k.y   UX",
"UX* *.&.O._ _ _ _ _ _ _ _ _ _ _ _ IXIXIXIXIXIXIXIXIXIXIXIXIXIXE.E.E.E.E.E.E.E.E.E.E.K.M.h.r   UX",
"UX# $.#..._ _ _ _ _ _ _ _ _ _ _ _ IXIXIXIXIXIXIXIXIXIXIXIXIXIXE.E.E.E.E.E.E.E.E.E.P.H.n.f.w   UX",
"UXo ....' _ _ _ _ _ _ _ _ _ _ _ _ IXIXIXIXIXIXIXIXIXIXIXIXIXIXE.E.E.E.E.E.E.E.E.E.K.Z.x.t 8   UX",
"UX    W ~ ~ ~ _ _ _ _ _ _ _ _ _ _ IXIXIXIXIXIXIXIXIXIXIXIXIXIXE.E.E.E.E.E.E.E.E.P.D.n.d.9     UX",
"UXUX  P U R ~ _ _ _ _ _ _ _ _ _ _ IXIXIXIXIXIXIXIXIXIXIXIXIXIXE.E.E.E.E.E.E.E.P.H.N.k.w 4   UXUX",
"UXUX    J I R W _ _ _ _ _ _ _ _ _ IXIXIXIXIXIXIXIXIXIXIXIXIXIXE.E.E.E.E.E.E.P.K.Z.c.y 6     UXUX",
"UXUXUX    H K U R W _ _ _ _ _ _ _ IXIXIXIXIXIXIXIXIXIXIXIXIXIXE.E.E.E.E.E.P.H.Z.v.s.7     UXUXUX",
"UXUXUXUX  S F G K T W ~ _ _ _ _ _ IXIXIXIXIXIXIXIXIXIXIXIXIXIXE.E.E.E.P.K.S.M.x.p.8 4   UXUXUXUX",
"UXUXUXUX    C A D H P T W ~ _ _ _ IXIXIXIXIXIXIXIXIXIXIXIXIXIXE.E.P.K.D.B.b.g.e 4 4     UXUXUXUX",
"UXUXUXUXUX      B A F H P T W ~ _ IXIXIXIXIXIXIXIXIXIXIXIXIXKXP.K.D.Z.n.k.p.0 4 .     UXUXUXUXUX",
"UXUXUXUXUXUXUX    3 B Z S G J I T DXGXGXKXIXIXIXIXIXIXIXKXGXAXZ.M.b.j.p.q 4 4     UXUXUXUXUXUXUX",
"UXUXUXUXUXUXUXUX      1 N V A S F cXnXMXVXDXKXIXIXIXIXKXDXBXvXx.f.t 0 4 4       UXUXUXUXUXUXUXUX",
"UXUXUXUXUXUXUXUXUXUX      , < 2 3 >X5XuXnXCXKXIXIXIXKXAXNXaX5Xe 7 4 4       UXUXUXUXUXUXUXUXUXUX",
"UXUXUXUXUXUXUXUXUXUXUXUX      : : h v 3XxXBXGXIXIXKXAXMXpX>Xh 4         UXUXUXUXUXUXUXUXUXUXUXUX",
"UXUXUXUXUXUXUXUXUXUXUXUXUXUX              AXIXIXKXAXMXpX=Xd       UXUXUXUXUXUXUXUXUXUXUXUXUXUXUX",
"UXUXUXUXUXUXUXUXUXUXUXUXUXUXUXUXUXUXUXUX  IXIXIXDXMXpX=Xd u   UXUXUXUXUXUXUXUXUXUXUXUXUXUXUXUXUX",
"UXUXUXUXUXUXUXUXUXUXUXUXUXUXUXUXUXUXUX* + IXIXIXNXuX=Xd u >   UXUXUXUXUXUXUXUXUXUXUXUXUXUXUXUXUX",
"UXUXUXUXUXUXUXUXUXUXUXUXUXUXUXUXUXUXUXf 0XIXIXVXuXM s u >     UXUXUXUXUXUXUXUXUXUXUXUXUXUXUXUXUX",
"UXUXUXUXUXUXUXUXUXUXUXUXUXUXUXUXUXUX<Xb IXIXDXeXv u ; >     UXUXUXUXUXUXUXUXUXUXUXUXUXUXUXUXUXUX",
"UXUXUXUXUXUXUXUXUXUXUXUXUXUXUXUXUX7X;XzXIXAX7Xj u u O     UXUXUXUXUXUXUXUXUXUXUXUXUXUXUXUXUXUXUX",
"UXUXUXUXUXUXUXUXUXUXUXUXUXUXUX3X;Xn lXIXnX;Xs u >       UXUXUXUXUXUXUXUXUXUXUXUXUXUXUXUXUXUXUXUX",
"UXUXUXUXUXUXUXUXUXUXUXUXUXz x k lXIXAXeXx >         UXUXUXUXUXUXUXUXUXUXUXUXUXUXUXUXUXUXUXUXUXUX",
"UXUXUXUXUXUXUXUXUXUX= ; ; * fXIXNX<.          UXUXUXUXUXUXUXUXUXUXUXUXUXUXUXUXUXUXUXUXUXUXUXUXUX",
"UXUXUXUXUXUXUXUXUXUXUX                UXUXUXUXUXUXUXUXUXUXUXUXUXUXUXUXUXUXUXUXUXUXUXUXUXUXUXUXUX",
"UXUXUXUXUXUXUXUXUXUXUXUXUXUXUXUXUXUXUXUXUXUXUXUXUXUXUXUXUXUXUXUXUXUXUXUXUXUXUXUXUXUXUXUXUXUXUXUX",
"UXUXUXUXUXUXUXUXUXUXUXUXUXUXUXUXUXUXUXUXUXUXUXUXUXUXUXUXUXUXUXUXUXUXUXUXUXUXUXUXUXUXUXUXUXUXUXUX",
"UXUXUXUXUXUXUXUXUXUXUXUXUXUXUXUXUXUXUXUXUXUXUXUXUXUXUXUXUXUXUXUXUXUXUXUXUXUXUXUXUXUXUXUXUXUXUXUX"
};
