/* XPM */
static char *magick[] = {
/* columns rows colors chars-per-pixel */
"46 43 212 2",
"   c #df0000",
".  c #f70000",
"X  c Red",
"o  c #fb3000",
"O  c #fb5100",
"+  c #fb7500",
"@  c #9e9e00",
"#  c #a3a300",
"$  c #a4a400",
"%  c #a8a800",
"&  c #a9a900",
"*  c #aeae00",
"=  c #afaf00",
"-  c #b0b000",
";  c #b2b200",
":  c #b6b600",
">  c #b7b700",
",  c #b8b800",
"<  c #baba00",
"1  c #bbbb00",
"2  c #bcbc00",
"3  c #bdbd00",
"4  c #aaaa20",
"5  c #acac20",
"6  c #adad20",
"7  c #afaf20",
"8  c #b2b220",
"9  c #b3b320",
"0  c #b4b420",
"q  c #b6b620",
"w  c #b9b920",
"e  c #baba20",
"r  c #bbbb20",
"t  c #bdbd20",
"y  c #fba600",
"u  c #c0c000",
"i  c #c1c100",
"p  c #c2c200",
"a  c #c3c300",
"s  c #c5c500",
"d  c #c6c600",
"f  c #c7c700",
"g  c #c8c800",
"h  c #c9c900",
"j  c #cccc00",
"k  c #cdcd00",
"l  c #cece00",
"z  c #d0d000",
"x  c #d1d100",
"c  c #d2d200",
"v  c #d4d400",
"b  c #d6d600",
"n  c #dbdb00",
"m  c #dddd00",
"M  c #dede00",
"N  c #dfdf00",
"B  c #c1c120",
"V  c #cbcb20",
"C  c #cccc20",
"Z  c #d4d420",
"A  c #d9d920",
"S  c #dcdc20",
"D  c #dddd20",
"F  c #dede20",
"G  c #dfdf20",
"H  c #ffd300",
"J  c #e0e000",
"K  c #e1e100",
"L  c #e2e200",
"P  c #e3e300",
"I  c #e4e400",
"U  c #e5e500",
"Y  c #e8e800",
"T  c #e9e900",
"R  c #eaea00",
"E  c #ebeb00",
"W  c #ecec00",
"Q  c #eded00",
"!  c #eeee00",
"~  c #efef00",
"^  c #f0f000",
"/  c #f1f100",
"(  c #f3f300",
")  c #f4f400",
"_  c #f6f600",
"`  c #f7f700",
"'  c #f8f800",
"]  c #f9f900",
"[  c #fafa00",
"{  c #fbfb00",
"}  c #fcfc00",
"|  c #fdfd00",
" . c #fefe00",
".. c Yellow",
"X. c #ffff01",
"o. c #ffff03",
"O. c #ffff04",
"+. c #ffff06",
"@. c #ffff07",
"#. c #ffff09",
"$. c #ffff0a",
"%. c #ffff0c",
"&. c #ffff0d",
"*. c #ffff0f",
"=. c #ffff10",
"-. c #ffff13",
";. c #ffff15",
":. c #ffff16",
">. c #ffff19",
",. c #ffff1b",
"<. c #ffff1c",
"1. c #ffff1e",
"2. c #e1e120",
"3. c #e2e220",
"4. c #e5e520",
"5. c #e6e620",
"6. c #eaea20",
"7. c #ebeb20",
"8. c #eded20",
"9. c #eeee20",
"0. c #f0f020",
"q. c #f3f320",
"w. c #f8f820",
"e. c #fafa20",
"r. c #fdfd20",
"t. c #ffff22",
"y. c #ffff24",
"u. c #ffff25",
"i. c #ffff27",
"p. c #ffff28",
"a. c #ffff2b",
"s. c #ffff2d",
"d. c #ffff2e",
"f. c #ffff33",
"g. c #ffff34",
"h. c #ffff39",
"j. c #ffff3a",
"k. c #ffff3b",
"l. c #ffff3c",
"z. c #ffff3d",
"x. c #ffff3f",
"c. c #ffff42",
"v. c #ffff43",
"b. c #ffff45",
"n. c #ffff46",
"m. c #ffff48",
"M. c #ffff49",
"N. c #ffff4a",
"B. c #ffff4b",
"V. c #ffff4d",
"C. c #ffff4e",
"Z. c #ffff4f",
"A. c #ffff51",
"S. c #ffff52",
"D. c #ffff53",
"F. c #ffff54",
"G. c #ffff55",
"H. c #ffff58",
"J. c #ffff5a",
"K. c #ffff5d",
"L. c #ffff60",
"P. c #ffff61",
"I. c #ffff62",
"U. c #ffff63",
"Y. c #ffff64",
"T. c #ffff66",
"R. c #ffff67",
"E. c #ffff69",
"W. c #ffff6c",
"Q. c #ffff6d",
"!. c #ffff70",
"~. c #ffff72",
"^. c #ffff77",
"/. c #ffff79",
"(. c #ffff7a",
"). c #ffff7c",
"_. c #ffff7e",
"`. c #ffff7f",
"'. c #ffff81",
"]. c #ffff82",
"[. c #ffff84",
"{. c #ffff85",
"}. c #ffff86",
"|. c #ffff87",
" X c #ffff8c",
".X c #ffff8d",
"XX c #ffff8e",
"oX c #ffff8f",
"OX c #ffff94",
"+X c #ffff99",
"@X c #ffff9a",
"#X c #ffff9b",
"$X c #ffff9c",
"%X c #ffff9d",
"&X c #ffff9f",
"*X c #ffffa3",
"=X c #ffffa4",
"-X c #ffffa7",
";X c #ffffa8",
":X c #ffffa9",
">X c #ffffaf",
",X c #ffffb1",
"<X c #ffffb3",
"1X c #ffffb6",
"2X c #ffffb8",
"3X c #ffffb9",
"4X c #ffffbc",
"5X c #ffffbd",
"6X c #ffffbe",
"7X c #ffffc0",
"8X c Gray100",
"9X c None",
/* pixels */
"9X9X9X9X9X9X9X9X9X9X9X9X9X9X9X9X9X9X9X9X9X9X9X9X9X9X9X9X9X9X9X9X9X9X9X9X9X9X9X9X9X9X9X9X9X9X",
"9X9X9X9X9X9X9X9X9X9X9X9X9X9X9X9X9X9X9X9X9X9X9X9X9X9X9X9X9X9X9X9X9X9X9X9X9X9X9X9X9X9X9X9X9X9X",
"9X9X9X9X9X9X9X9X9X9X9X9X9X9X9X9X9X9X9X9X9X9X9X9X9X9X9X9X9X9X9X9X9X9X9X9X9X9X9X9X9X9X9X9X9X9X",
"9X9X9X9X9X9X9X9X9X9X9X9X9X9X9X9X3X,X;X*X*X*X*X*X*X*X*X*X*X&X X'.9X9X9X9X9X9X9X9X9X9X9X9X9X9X",
"9X9X9X9X9X9X9X9X9X9X9X9X9X5X3X3X,X#X X|.|.'.|.'.'.|.'.|.'._.~./././.~.9X9X9X9X9X9X9X9X9X9X9X",
"9X9X9X9X9X9X9X9X9X9X9X5X5X1X&X X/.P.A.m.n.n.n.n.n.n.n.n.n.n.n.C.J.K.W.T.P.9X9X9X9X9X9X9X9X9X",
"9X9X9X9X9X9X9X9X9X7X5X1X#X'.P.n.d.<.=.$.$.$.$.$.$.$.$.$.$.$.=.<.p.j.c.m.P.J.A.9X9X9X9X9X9X9X",
"9X9X9X9X9X9X9X9X5X3X&X_.J.j.<.&.O.O.X.X.X.X.X.X.X.X.X.+ X.X.X.O.$.=.>.p.j.j.C.m.9X9X9X9X9X9X",
"9X9X9X9X9X9X5X5X,X XT.j.<.&.O.X.X.X.+ X.X.X.X.X.X.X.X.y y X.X.X.X.X.O.&.>.u.d.C.m.j.9X9X9X9X",
"9X9X9X9X9X,X,X&X/.C.u.&.O.X.X.X.H O . X.X.X.X.X.X.O . X X.X.X.X.X.X.X.X.O.&.<.d.u.u.0.9X9X9X",
"9X9X9X9X9X=X XE.j.<.&.X.X.X.X.X.. . . X.X.X.X.X.H O y H X.X.X.X.X.X.X.X.X.O.&.;.=.{ 8.9X9X9X",
"9X9X9X9X;X&XW.g.=.O.X.X.X.X.X.X.. X H X.X.X.X.X.. . . . . X.X.X.X.X.X.X.X.X.X.O.O.{ 0.6.9X9X",
"9X9X9X=X*X_.m.>.O.X.X.X.X.X.X.X.. O . X.X.X.X.. . O O X.X.y + X.X.X.X.X.X.X.X.X.X.O.{ 8.4.9X",
"9X9X9X#X|.J.u.$.X.X.X.X.X.X.X.X.O o X X.X.X.X.. . . + H X.X.o X.X.X.X.X.X.X.X.X.O.O.X.! S 9X",
"9X9X|. XT.f.&.X.X.X.X.X.X.X.X.X.. O . H X.X.. . . o y + y X.X.X.X.X.X.X.X.X.X.X.X.X.X.! A V ",
"9X9X~.P.m.>.O.X.X.X.X.X.X.X.X.. y + O X.X.X.. o y . y y y . o X.X.X.X.X.X.X.X.X.X.X.X.R h t ",
"9X9XP.C.f.&.X.X.X.X.X.X.X.X.X.. . X.. X.X.X.. + o . . y . . . . X.X.X.X.X.X.X.X.X.X.X.R p 8 ",
"9X9XF.l.p.O.X.X.X.X.X.X.X.X.X.. . . X . O . y . . . . . . X + . y X.X.X.X.X.X.X.X.X.X.U 3 6 ",
"9X9XF.l.u.O.X.X.X.X.X.X.X.X.X.. . . . . . o X y O . . . . o . y   X.X.X.X.X.X.X.X.X.{ J , 6 ",
"9X9XA.l.u.O.X.X.X.X.X.X.X.X.X.  . . . . . o .   y y O . . H . O . X.X.X.X.X.X.X.X.X.X.J , 6 ",
"9X9Xm.d.<.X.X.X.X.X.X.X.X.X.X.X.o O . . . O y . . O X.X.X.. H y . X.X.X.X.X.X.X.X.X.{ N - 4 ",
"9X9Xf.;.=.X.X.X.X.X.X.X.X.X.X.X.X.. H . . O y . . + o X.X.. O X.. X.X.X.X.X.X.X.X.X./ j # 4 ",
"9X9Xe.e.X.{ X.X.X.X.X.X.X.X.X.X.X.X.. . . H . y O . y X.. . X.y . X.X.X.X.X.X.X.X.` J > 4 4 ",
"9X9X9X6.! / { X.X.X.X.X.X.X.X.X.X.X.X.. . O . X O O X.y O H H . . X.X.X.X.X.X.X.` R d @ 4 9X",
"9X9X9X2.2.R ` X.X.X.X.X.X.X.y o + O O o   X.X.o   X.H X.X.X.X.o o X.X.X.X.X.X.{ / b $ 4 4 9X",
"9X9X9X9XS 4./ { { X.X.X.X.O X.X.X.X.X.X.X.X.X.X.  X.X.X.X.X.X.X.X.X.X.X.X.X.X.` J > 4 4 9X9X",
"9X9X9X9X9XS N R / { X.X.X.X.X.X.X.X.X.X.X.X.X.X.y X.X.X.X.X.X.X.X.X.X.X.X.` / N 3 @ 4 9X9X9X",
"9X9X9X9X9XZ C d b R ` X.X.X.X.X.X.X.X.X.X.X.X.o X.X.X.X.X.X.X.X.X.X.X.X.` R z * @ 4 4 9X9X9X",
"9X9X9X9X9X9Xw 0 B j J ! ` { X.X.X.X.X.X.X.X.X.X + X.X.X.X.X.X.X.X.X.` / N p @ 4 4 4 9X9X9X9X",
"9X9X9X9X9X9X9X9X0 w 3 j J ! ` { X.X.X.X.X.H y y X.X.X.X.X.X.X.{ ` ! N h & @ 4 4 9X9X9X9X9X9X",
"9X9X9X9X9X9X9X9X9X6 6 8 , j J ! ` { { { { X.X.X.X.X.X.X.{ { / U b p & @ 4 4 4 9X9X9X9X9X9X9X",
"9X9X9X9X9X9X9X9X9X9X9X4 4 8 > d z b b n U / ` X.X.X.X.{ / J h - @ @ 4 4 4 9X9X9X9X9X9X9X9X9X",
"9X9X9X9X9X9X9X9X9X9X9X9X9X4 4 4 @ @ @ & p N ` X.X.X.X./ N , @ 4 4 4 4 9X9X9X9X9X9X9X9X9X9X9X",
"9X9X9X9X9X9X9X9X9X9X9X9X9X9X9X4 4 4 4 4 w S ` X.X.X.X.R d 4 4 4 9X9X9X9X9X9X9X9X9X9X9X9X9X9X",
"9X9X9X9X9X9X9X9X9X9X9X9X9X9X9X9X9X9X9X9X9X0.$.=.X.X.` N * 4 9X9X9X9X9X9X9X9X9X9X9X9X9X9X9X9X",
"9X9X9X9X9X9X9X9X9X9X9X9X9X9X9X9X9X9X9X9X9Xc.f.<.X.` R p @ 4 9X9X9X9X9X9X9X9X9X9X9X9X9X9X9X9X",
"9X9X9X9X9X9X9X9X9X9X9X9X9X9X9X9X9X9X9X9X9X^.A.r.{ R h @ 4 4 9X9X9X9X9X9X9X9X9X9X9X9X9X9X9X9X",
"9X9X9X9X9X9X9X9X9X9X9X9X9X9X9X9X9X9X9X9XOX XA.O.J 3 @ 4 4 9X9X9X9X9X9X9X9X9X9X9X9X9X9X9X9X9X",
"9X9X9X9X9X9X9X9X9X9X9X9X9X9X9X9X9X9X9X9X#XP.O.j & @ 4 4 9X9X9X9X9X9X9X9X9X9X9X9X9X9X9X9X9X9X",
"9X9X9X9X9X9X9X9X9X9X9X9X9X9X9X9X9X9X9X#XW./ - @ 4 4 4 9X9X9X9X9X9X9X9X9X9X9X9X9X9X9X9X9X9X9X",
"9X9X9X9X9X9X9X9X9X9X9X9X9X9X9X9X9X9X|.c.z 4 4 4 4 9X9X9X9X9X9X9X9X9X9X9X9X9X9X9X9X9X9X9X9X9X",
"9X9X9X9X9X9X9X9X9X9X9X9X9X9X9X9X^.n.4.0 4 4 9X9X9X9X9X9X9X9X9X9X9X9X9X9X9X9X9X9X9X9X9X9X9X9X",
"9X9X9X9X9X9X9X9X9X9X9X9X9X9Xj.r.2.t 9X9X9X9X9X9X9X9X9X9X9X9X9X9X9X9X9X9X9X9X9X9X9X9X9X9X9X9X"
};
