/* XPM */
static char *magick[] = {
/* columns rows colors chars-per-pixel */
"48 48 255 2",
"   c Gray0",
".  c Gray1",
"X  c #080000",
"o  c #0b0b0b",
"O  c #180100",
"+  c #101010",
"@  c #191919",
"#  c #280400",
"$  c #300400",
"%  c #3b0604",
"&  c #3e3501",
"*  c #272727",
"=  c Gray16",
"-  c Gray18",
";  c #313131",
":  c #353535",
">  c Gray22",
",  c #3c3c3c",
"<  c #3e3e3e",
"1  c #3e3f3e",
"2  c #3f3f3f",
"3  c #460705",
"4  c #401918",
"5  c #5f0907",
"6  c #413502",
"7  c #473d03",
"8  c #4a3f02",
"9  c #413737",
"0  c #5e2220",
"q  c #680808",
"w  c #760c09",
"e  c #4c4202",
"r  c #584b03",
"t  c #635503",
"y  c #6d5d04",
"u  c #705e00",
"i  c #756402",
"p  c #7b6901",
"a  c #404140",
"s  c #434443",
"d  c #454645",
"f  c #494a49",
"g  c #4c4d4c",
"h  c #4f504f",
"j  c #515251",
"k  c #545554",
"l  c #575857",
"z  c #585858",
"x  c #5a5c5a",
"c  c #5c5e5c",
"v  c #5f615f",
"b  c #606060",
"n  c Gray39",
"m  c #636563",
"M  c #646464",
"N  c #656765",
"B  c #676767",
"V  c #666866",
"C  c #686a68",
"Z  c #6d6d6d",
"A  c #6e706e",
"S  c #727372",
"D  c #727472",
"F  c #767676",
"G  c #777977",
"H  c #7b7972",
"J  c #797979",
"K  c #7c7e7c",
"L  c #0303f8",
"P  c #0d0df8",
"I  c #1818f9",
"U  c #1f1ff9",
"Y  c #2222f9",
"T  c #2a2af9",
"R  c #3838fa",
"E  c #4949fa",
"W  c #7f817f",
"Q  c #810c09",
"!  c #990f0c",
"~  c #8b2c2b",
"^  c #a5100d",
"/  c #ae110d",
"(  c #a01010",
")  c #b1110e",
"_  c #b8120e",
"`  c #bf120f",
"'  c #b81010",
"]  c #b33634",
"[  c #826f02",
"{  c #947e00",
"}  c #bc7e7c",
"|  c #c1130f",
" . c #c5130f",
".. c #c9130f",
"X. c #ca1310",
"o. c #cb1410",
"O. c #cd1410",
"+. c #ce1410",
"@. c #cf1410",
"#. c #d01410",
"$. c #d01511",
"%. c #d11713",
"&. c #d11a16",
"*. c #d21c18",
"=. c #d3221e",
"-. c #d32521",
";. c #d83c38",
":. c #d94340",
">. c #db4946",
",. c #db4c49",
"<. c #ce7979",
"1. c #e06562",
"2. c #e26c6a",
"3. c #e47674",
"4. c #988200",
"5. c #9b8404",
"6. c #9e8700",
"7. c #a58e02",
"8. c #af9600",
"9. c #b19700",
"0. c #b39905",
"q. c #b59b00",
"w. c #b79c00",
"e. c #bda103",
"r. c #bbae57",
"t. c #c3a700",
"y. c #c5aa03",
"u. c #caad03",
"i. c #cfb105",
"p. c #d3b500",
"a. c #d7bb00",
"s. c #dabb00",
"d. c #dcbc06",
"f. c #e0bf00",
"g. c #e4c300",
"h. c #e8c700",
"j. c #e8c800",
"k. c #ecca00",
"l. c #efcd00",
"z. c #f1ce00",
"x. c #f1cf06",
"c. c #f4d100",
"v. c #f5d200",
"b. c #f7d300",
"n. c #f5d306",
"m. c #f8d400",
"M. c #f8d401",
"N. c #f8d503",
"B. c #f8d506",
"V. c #f8d609",
"C. c #f8d60c",
"Z. c #f8d70f",
"A. c #f8d711",
"S. c #f9d816",
"D. c #f9d818",
"F. c #f9d91d",
"G. c #f9da21",
"H. c #f9da25",
"J. c #f9db2a",
"K. c #f9dc2e",
"L. c #f9dd31",
"P. c #f9dd35",
"I. c #fade3c",
"U. c #fadf41",
"Y. c #fae046",
"T. c #fae049",
"R. c #fae14d",
"E. c #fae252",
"W. c #fae35c",
"Q. c #fbe561",
"!. c #fbe565",
"~. c #fbe76f",
"^. c #fbe773",
"/. c #fbe876",
"(. c #fbe97c",
"). c #808180",
"_. c #858685",
"`. c #888888",
"'. c #898b89",
"]. c #8b8b8b",
"[. c #8b8d8b",
"{. c #8d8d8d",
"}. c #8c8e8c",
"|. c #8e8e8e",
" X c #8e908e",
".X c #919291",
"XX c #939493",
"oX c #979797",
"OX c #979997",
"+X c #9a9a9a",
"@X c #9b9d9b",
"#X c #9d9d9d",
"$X c #9ea09e",
"%X c #a0a29f",
"&X c #a0a0a0",
"*X c #a0a3a0",
"=X c Gray64",
"-X c #a2a5a2",
";X c Gray65",
":X c Gray66",
">X c #a8aba8",
",X c #aeb1ae",
"<X c #b2b5b2",
"1X c #b5b8b5",
"2X c #b8bbb8",
"3X c #bbbebb",
"4X c #bec1be",
"5X c #eb9e9d",
"6X c #eda6a4",
"7X c #fbea82",
"8X c #fcea82",
"9X c #fcea86",
"0X c #fceb8b",
"qX c #fceb8e",
"wX c #fcec8e",
"eX c #fcec90",
"rX c #fced94",
"tX c #fced98",
"yX c #fcee9d",
"uX c #fcefa4",
"iX c #fbeea9",
"pX c #fdf0a7",
"aX c #fdf0aa",
"sX c #c0c3c0",
"dX c #c3c6c3",
"fX c #c6cac6",
"gX c #c8ccc8",
"hX c #ced1ce",
"jX c #d2d5d2",
"kX c #d4d7d4",
"lX c #d5d8d5",
"zX c #d8dbd8",
"xX c #dde0dd",
"cX c #e2dfd0",
"vX c #e3e6e3",
"bX c #e4e7e4",
"nX c #e6eae6",
"mX c #e9ede9",
"MX c #ebefeb",
"NX c #ecf0ec",
"BX c #eef2ee",
"VX c #f2f6f2",
"CX c #f5f9f5",
"ZX c #f7fbf7",
"AX c #f9fbf8",
"SX c #f8fcf8",
"DX c #f9fcf9",
"FX c #f9fdf9",
"GX c #fafcf9",
"HX c #fafdfa",
"JX c #fbfcfa",
"KX c #fbfdfb",
"LX c #fcfefc",
"PX c Gray100",
"IX c None",
/* pixels */
"IXIXIXIXIXIXIXIXIXIXIXIXIXIXIXIXIXIXIXIXIXIXIXIXIXIXIXIXIXIXIXIXIXIXIXIXIXIXIXIXIXIXIXIXIXIXIXIX",
"IXIXIXIXIXIXIXIXIXIXIXIXIXIXIXIXIXIXIXIXIXIXIXIXIXIXIXIXIXIXIXIXIXIXIXIXIXIXIXIXIXIXIXIXIXIXIXIX",
"IXIXIXIXIXIXIXIXIXIXIXIXIXIXIXIXIXIXIXIXIXIXIXIXIXIXIXIXIXIXIXIXIXIXIXIXIXIXIXIXIXIXIXIXIXIXIXIX",
"IXIXIXIXIXIXIXIXIXIXIXIXIXIXIX&X#XoX.X|.|.|.|.|.|.|.|.|.|.].).J Z IXIXIXIXIXIXIXIXIXIXIXIXIXIXIX",
"IXIXIXIXIXIXIXIXIXIXIX:X;X;X&X#XuXyXtXqX9X7XcX6XLXLXLXLXLXLXKXKXM b b z IXIXIXIXIXIXIXIXIXIXIXIX",
"IXIXIXIXIXIXIXIXIXIX:X;X-XaXpXuXyXeX9X(.^.H } 5X6XLXLXKXKXKXKXKXKXKXKXk j f IXIXIXIXIXIXIXIXIXIX",
"IXIXIXIXIXIXIXIX:X:X&XaXpXuXeX0X(.~.!.W.r.1.2.3.3.<.dXKXKXKXKXKXKXKXKXKXKXd a , IXIXIXIXIXIXIXIX",
"IXIXIXIXIXIXIX:XiXaXpXyXeX8X~.W.T.P.K.H.* ;.:.>.,.,.: SXKXKXKXKXKXKXKXE KXKXKX> ; IXIXIXIXIXIXIX",
"IXIXIXIXIX&X;X&XpXyXeX(.!.R.P.H.S.V.B.B.6 *.=.=.-.=.o KXSXSXSXSXKXU T R R R KXSX- * @ IXIXIXIXIX",
"IXIXIXIX+X&XpXuXyX8X!.T.K.F.Z.B.N.N.N.N.6 #.#.#.#.#.  SXSXZXSXSXSXSXP I Y KXKXSXKXKXo   IXIXIXIX",
"IXIXIXIXoXyXyXwX/.R.L.D.V.B.N.N.N.b.N.N.[ #.#.#.#.#.).SXSXSXZXZXZXSXL SXP KXKXKXKXSXBX  IXIXIXIX",
"IXIXIXXX|.tX0X~.T.H.A.B.N.N.N.b.N.N.N.N.j.#.#.#.#.  KXKXSXSXKXSXZXZXZXSXSXSXSXSXKXSXnX    IXIXIX",
"IXIX].].tXqX^.R.H.Z.B.N.N.N.N.N.N.N.N.N.N.#.#.#.#.  SXKXSXSXSXSXSXSXZXZXSXSXSXSXSXZXvXlX    IXIX",
"IXIX_.eX0X/.E.H.Z.N.N.j.6 N.N.N.N.N.N.N.N.N.#.#.#...SXKXSXSXSXSXKXKXSXZXZXZXSXSXSXZXbXjXfX  IXIX",
"IXS F 9X(.Q.P.A.B.N.b.  #.#.^ q q                                       SXZXZXSXSXKXmXjX4X    IX",
"IXb /./.!.Y.F.V.N.N.N.  #.#...#.#.#.#.#.#.#.#.#.#.#.#.#.#.#.#.#.#.#.#.  SXKXZXSXSXKXmXhX<X@X  IX",
"IXj Q.W.R.J.Z.M.N.b.N.N.#.#.#.#.#.#.#.#.#.#.#.#.#.#.#.#.#.#.#.#.#.#.  KXSXSXZXZXKXSXnXdX$X).  IX",
"IXd E.R.I.F.B.M.b.N.N.N._ #.#.#.#.#.#.#.#.#.#.#.#.#.#.#.#.#.#.#.#.#.  KXSXSXSXZXZXSXbX3XXXS   IX",
"IX2 Y.U.P.D.M.M.N.N.N.N.N.                  $ $ q q #.#.#.#.#.#...' SXKXSXSXSXSXZXSXvX2X[.M   IX",
"IX2 U.I.K.S.M.b.N.N.N.N.N.N.N.N.N.N.N.  #.#.#.#.( q     ).      ; SXSXSXSXSXSXSXZXZXvX<X_.v   IX",
"IX2 I.P.J.A.M.b.N.N.N.N.N.N.N.N.N.N.N.#.#.#.#.#.#.#.#.w KXSXSXSXSXSXSXSXSXSXSXSXZXZXxX,XW x   IX",
"IX: L.J.G.A.b.b.b.N.N.N.N.N.N.N.N.N.N.#.#.#.#.#.#.#.#.#.2XKXSXSXSXSXSXSXSXSXSXZXZXZXzX-XD h   IX",
"IX= G.S.S.C.b.b.b.b.N.N.N.N.N.N.N.N.N.#.#.#.#.#.#.#.#.#.1XSXSXSXSXSXSXSXSXSXZXZXZXNXgX Xc a   IX",
"IX@ n.x.b.b.z.b.b.b.N.N.N.N.N.N.N.N.N.#.#.#.#.#.#.#...  KXSXSXSXSXSXSXKXSXSXZXZXBXzX>XC 2 2   IX",
"IX    d.f.h.l.b.b.b.b.N.N.N.N.N.N.N.N.#.#.q     #.#.Q + KXSXSXSXSXSXSXSXSXZXZXZXnXsX).s 2     IX",
"IXIX  u.i.s.h.z.b.b.b.b.b.N.N.N.N.u     $ #.#.#.#.#.#.  KXSXSXSXSXSXSXZXZXZXZXBXhX@Xl 2 2   IXIX",
"IXIX    e.y.p.g.k.z.b.b.b.b.N.N.N.  #.#.#.#.#.#.#.#.#.  SXSXSXSXKXKXZXZXZXVXmXjX-Xm 2 2     IXIX",
"IXIXIX    0.w.t.p.g.l.b.b.b.b.b.N.$ #.#.#.#.#.#.#.#.#.  SXSXSXSXZXZXZXZXBXvXhX&XV 2 2     IXIXIX",
"IXIXIXIX  7.5.6.8.t.s.j.z.b.b.b.b.  (   q #.#.#.#.#.#.  SXKXZXZXZXZXVXmXzX3X.Xx 2 2 2   IXIXIXIX",
"IXIXIXIX    [ p [ { 9.y.s.h.z.b.b.a.X @.(       O $   ZXZXZXZXZXVXmXxXdX$XD s 2 2 2     IXIXIXIX",
"IXIXIXIXIX      y i [ 4.8.y.a.g.k.  ..X.o.@.@.@.@.@.@.# ZXVXBXvXkX4X&XK j 2 2 2       IXIXIXIXIX",
"IXIXIXIXIXIXIX    t t y p { 7.q.e.  ^ / _ | ..@.@.@.@... .xXgX,X.XD h 2 2 2 2     IXIXIXIXIXIXIX",
"IXIXIXIXIXIXIXIX      r r t u i p % w Q ! ) | ..@.#.@. .) <X|.M d 2 2 2 2       IXIXIXIXIXIXIXIX",
"IXIXIXIXIXIXIXIXIXIX      e 8 7 & % 3 5 Q ^ ` ..#.#..._ ! W g 2 2 2 2       IXIXIXIXIXIXIXIXIXIX",
"IXIXIXIXIXIXIXIXIXIXIXIX      & & 9 4 0 ~ ]  .&.&.@.| ^ O f 2 2         IXIXIXIXIXIXIXIXIXIXIXIX",
"IXIXIXIXIXIXIXIXIXIXIXIXIXIXIX            BXKXKXKXVXlX-Xm 2       IXIXIXIXIXIXIXIXIXIXIXIXIXIXIX",
"IXIXIXIXIXIXIXIXIXIXIXIXIXIXIXIXIXIXIXIX  KXKXKXKXvX1XG 2 2   IXIXIXIXIXIXIXIXIXIXIXIXIXIXIXIXIX",
"IXIXIXIXIXIXIXIXIXIXIXIXIXIXIXIXIXIXIXIX= KXKXKXnX1XK a 2 2   IXIXIXIXIXIXIXIXIXIXIXIXIXIXIXIXIX",
"IXIXIXIXIXIXIXIXIXIXIXIXIXIXIXIXIXIXIXk KXKXKXBX>XA 2 2 2   IXIXIXIXIXIXIXIXIXIXIXIXIXIXIXIXIXIX",
"IXIXIXIXIXIXIXIXIXIXIXIXIXIXIXIXIXIXIXF KXKXmXOXk 2 2 2   IXIXIXIXIXIXIXIXIXIXIXIXIXIXIXIXIXIXIX",
"IXIXIXIXIXIXIXIXIXIXIXIXIXIXIXIXIXIX].KXKXkXK 2 2 2 2   IXIXIXIXIXIXIXIXIXIXIXIXIXIXIXIXIXIXIXIX",
"IXIXIXIXIXIXIXIXIXIXIXIXIXIXIXIX`.J AXKX1Xv 2 2 2     IXIXIXIXIXIXIXIXIXIXIXIXIXIXIXIXIXIXIXIXIX",
"IXIXIXIXIXIXIXIXIXIXIXIXIXIXZ M KXKXjX].f 2       IXIXIXIXIXIXIXIXIXIXIXIXIXIXIXIXIXIXIXIXIXIXIX",
"IXIXIXIXIXIXIXIXIXIX> 2 2 > AXKXkX%X        IXIXIXIXIXIXIXIXIXIXIXIXIXIXIXIXIXIXIXIXIXIXIXIXIXIX",
"IXIXIXIXIXIXIXIXIXIXIX              IXIXIXIXIXIXIXIXIXIXIXIXIXIXIXIXIXIXIXIXIXIXIXIXIXIXIXIXIXIX",
"IXIXIXIXIXIXIXIXIXIXIXIXIXIXIXIXIXIXIXIXIXIXIXIXIXIXIXIXIXIXIXIXIXIXIXIXIXIXIXIXIXIXIXIXIXIXIXIX",
"IXIXIXIXIXIXIXIXIXIXIXIXIXIXIXIXIXIXIXIXIXIXIXIXIXIXIXIXIXIXIXIXIXIXIXIXIXIXIXIXIXIXIXIXIXIXIXIX",
"IXIXIXIXIXIXIXIXIXIXIXIXIXIXIXIXIXIXIXIXIXIXIXIXIXIXIXIXIXIXIXIXIXIXIXIXIXIXIXIXIXIXIXIXIXIXIXIX"
};
