/* XPM */
static char *magick[] = {
/* columns rows colors chars-per-pixel */
"48 48 256 2",
"   c Gray0",
".  c #010000",
"X  c #010101",
"o  c #000400",
"O  c Gray5",
"+  c Gray9",
"@  c Gray11",
"#  c #282828",
"$  c Gray17",
"%  c #2f2f2f",
"&  c #323232",
"*  c #343434",
"=  c #373737",
"-  c #393939",
";  c Gray24",
":  c #3e3e3e",
">  c #400000",
",  c #440000",
"<  c #590000",
"1  c #620000",
"2  c #6d0000",
"3  c #7a0000",
"4  c #7d0000",
"5  c #7e0000",
"6  c #404000",
"7  c #424200",
"8  c #4b4b00",
"9  c #4e4e00",
"0  c #505000",
"q  c #5a5a00",
"w  c #5d5d00",
"e  c #636300",
"r  c #686800",
"t  c #6b6b00",
"y  c #6f6f00",
"u  c #727200",
"i  c #747400",
"p  c #757500",
"a  c #787800",
"s  c #7b7b00",
"d  c #414141",
"f  c #434343",
"g  c Gray28",
"h  c Gray29",
"j  c Gray32",
"k  c #555555",
"l  c Gray35",
"z  c Gray38",
"x  c #646464",
"c  c Gray40",
"v  c #686868",
"b  c #6f6f6f",
"n  c #747474",
"m  c #777777",
"M  c Gray48",
"N  c #810000",
"B  c #860000",
"V  c #8e0000",
"C  c #940000",
"Z  c #9f0000",
"A  c #a60000",
"S  c #aa0000",
"D  c #ad0000",
"F  c #b00000",
"G  c #b40000",
"H  c #ba0000",
"J  c #bd0000",
"K  c #c20000",
"L  c #c80000",
"P  c #cb0000",
"I  c #cf0000",
"U  c #d10000",
"Y  c #d50000",
"T  c #d80000",
"R  c #db0000",
"E  c #dd0000",
"W  c #e00000",
"Q  c #e10000",
"!  c #e30000",
"~  c #e40000",
"^  c #e70000",
"/  c #e90000",
"(  c #ec0000",
")  c #ed0000",
"_  c #ef0000",
"`  c #f20000",
"'  c #f30000",
"]  c #f50000",
"[  c #f60000",
"{  c #f80000",
"}  c #f90000",
"|  c #fb0000",
" . c #fc0000",
".. c #fe0000",
"X. c Red",
"o. c #ff0101",
"O. c #ff0303",
"+. c #ff0404",
"@. c #ff0606",
"#. c #ff0909",
"$. c #ff0a0a",
"%. c #ff0d0d",
"&. c #ff1010",
"*. c #ff1212",
"=. c #ff1919",
"-. c #ff1b1b",
";. c #ff1c1c",
":. c #ff2222",
">. c #ff2424",
",. c #ff2727",
"<. c #ff2b2b",
"1. c #ff2d2d",
"2. c #ff3030",
"3. c #ff3131",
"4. c #ff3333",
"5. c #ff3434",
"6. c #ff3636",
"7. c #ff3a3a",
"8. c #ff3c3c",
"9. c #ff3d3d",
"0. c #ff3f3f",
"q. c #ff4444",
"w. c #ff4949",
"e. c #ff4b4b",
"r. c #ff5555",
"t. c #ff5b5b",
"y. c #ff6060",
"u. c #ff6363",
"i. c #ff6a6a",
"p. c #ff6c6c",
"a. c #ff6f6f",
"s. c #ff7676",
"d. c #ff7c7c",
"f. c #ff7f7f",
"g. c #848400",
"h. c #878700",
"j. c #898900",
"k. c #8d8d00",
"l. c #929200",
"z. c #959500",
"x. c #989800",
"c. c #9b9b00",
"v. c #9c9c00",
"b. c #9f9f00",
"n. c #a1a100",
"m. c #a2a200",
"M. c #a5a500",
"N. c #a8a800",
"B. c #adad00",
"V. c #b1b100",
"C. c #b4b400",
"Z. c #b7b700",
"A. c #b9b900",
"S. c #bebe00",
"D. c #c3c300",
"F. c #c5c500",
"G. c #c6c600",
"H. c #c9c900",
"J. c #cbcb00",
"K. c #cece00",
"L. c #d1d100",
"P. c #d2d200",
"I. c #d5d500",
"U. c #dbdb00",
"Y. c #dede00",
"T. c #e0e000",
"R. c #e3e300",
"E. c #e7e700",
"W. c #e9e900",
"Q. c #eaea00",
"!. c #ecec00",
"~. c #efef00",
"^. c #f0f000",
"/. c #f3f300",
"(. c #f5f500",
"). c #f6f600",
"_. c #f8f800",
"`. c #f9f900",
"'. c #fbfb00",
"]. c #fcfc00",
"[. c #fefe00",
"{. c Yellow",
"}. c #ffff01",
"|. c #ffff03",
" X c #ffff04",
".X c #ffff06",
"XX c #ffff07",
"oX c #ffff09",
"OX c #ffff0a",
"+X c #ffff0c",
"@X c #ffff0d",
"#X c #ffff0f",
"$X c #ffff10",
"%X c #ffff12",
"&X c #ffff13",
"*X c #ffff16",
"=X c #ffff18",
"-X c #ffff19",
";X c #ffff1b",
":X c #ffff1e",
">X c #ffff21",
",X c #ffff25",
"<X c #ffff27",
"1X c #ffff28",
"2X c #ffff2b",
"3X c #ffff32",
"4X c #ffff39",
"5X c #ffff3a",
"6X c #ffff3d",
"7X c #ffff42",
"8X c #ffff46",
"9X c #ffff4b",
"0X c #ffff4f",
"qX c #ffff51",
"wX c #ffff55",
"eX c #ffff58",
"rX c #ffff5a",
"tX c #ffff5d",
"yX c #ffff60",
"uX c #ffff63",
"iX c #ffff67",
"pX c #ffff69",
"aX c #ffff6f",
"sX c #ffff70",
"dX c #ffff73",
"fX c #ffff76",
"gX c #ffff7c",
"hX c Gray51",
"jX c Gray52",
"kX c #898989",
"lX c Gray55",
"zX c #8e8e8e",
"xX c Gray57",
"cX c #939393",
"vX c #979797",
"bX c #9a9a9a",
"nX c Gray61",
"mX c #9f9f9f",
"MX c #a0a0a0",
"NX c #a2a2a2",
"BX c #a5a5a5",
"VX c Gray65",
"CX c Gray66",
"ZX c #a9a9a9",
"AX c #ff8d8d",
"SX c #ff9393",
"DX c #ff9999",
"FX c #ff9c9c",
"GX c #ffa3a3",
"HX c #ffff81",
"JX c #ffff82",
"KX c #ffff87",
"LX c #ffff8c",
"PX c #ffff93",
"IX c #ffff9a",
"UX c None",
/* pixels */
"UXUXUXUXUXUXUXUXUXUXUXUXUXUXUXUXUXUXUXUXUXUXUXUXUXUXUXUXUXUXUXUXUXUXUXUXUXUXUXUXUXUXUXUXUXUXUXUX",
"UXUXUXUXUXUXUXUXUXUXUXUXUXUXUXUXUXUXUXUXUXUXUXUXUXUXUXUXUXUXUXUXUXUXUXUXUXUXUXUXUXUXUXUXUXUXUXUX",
"UXUXUXUXUXUXUXUXUXUXUXUXUXUXUXUXUXUXUXUXUXUXUXUXUXUXUXUXUXUXUXUXUXUXUXUXUXUXUXUXUXUXUXUXUXUXUXUX",
"UXUXUXUXUXUXUXUXUXUXUXUXUXUXUXNXmXvXcXlXlXlXlXlXlXlXcXlXlXkXhXM b UXUXUXUXUXUXUXUXUXUXUXUXUXUXUX",
"UXUXUXUXUXUXUXUXUXUXUXCXVXVXNXmXPXLXKXHXHXHXHXHXHXHXHXHXHXgXfXsXv c z l UXUXUXUXUXUXUXUXUXUXUXUX",
"UXUXUXUXUXUXUXUXUXUXCXVXNXIXPXKXgXsXpXuXuXuXuXuXuXuXuXuXuXuXtXeXeXeXeXk j h UXUXUXUXUXUXUXUXUXUX",
"UXUXUXUXUXUXUXUXCXCXGXDXAXf.i.t.w.8.6.6.2.2.2.2.2.2.2.2.2.2.2.6.8.q.w.w.w.g d : UXUXUXUXUXUXUXUX",
"UXUXUXUXUXUXUXCXVXFXAXs.t.w.6.>.-.*.%.$.$.$.$.$.$.$.$.$.$.$.%.*.-.:.<.6.8.8.8.- & UXUXUXUXUXUXUX",
"UXUXUXUXUXNXVXNXSXf.u.q.1.-.*.$.@.o.o.o.o.o.o.o.o.o.o.o.o.o.o.o.@.$.&.-.:.<.2.6.% $ @ UXUXUXUXUX",
"UXUXUXUXbXmXIXLXaX0X3X;XoXXX|.|.|.|.|.|.|.|.|.|.|.|.|.|.|.|.|.|.|.|.|.XX#X*X>X,X,X;XO   UXUXUXUX",
"UXUXUXUXvXPXHXuX7X,X%XXX|.|.|.|.|.|.|.|.|.|.|.|.|.|.|.|.|.|.|.|.|.|.|.|.|.XX#X;X;X%X|.  UXUXUXUX",
"UXUXUXcXlXgXuX5X:X#XXX|.|.|.|.|.|.|.|.|.|.|.|.|.|.|.|.|.|.|.|.|.|.|.|.|.|.|.XX#X#XoX'.    UXUXUX",
"UXUXlXlXf.u.8.;.$.@.o.o.o.o.o.o.o.o.o.o.o.o.o.o.o.o.o.o.o.o.o.o.o.o.o.o.o.o.o.o.@.@.{ (     UXUX",
"UXUXjXf.a.w.>.%.o.o.o.o.o.o.o.o.o.o.o.o.o.o.o.o.o.o.o.o.o.o.o.o.o.o.o.o.o.o.o.o.o.o.{ _ Y   UXUX",
"UXn n a.r.2.*.@.o.o.o.o.o.o.o.o.o.o.o.o.o.o.o.o.o.o.o.o.o.o.o.o.o.o.o.o.o.o.o.o.o.o.o._ I     UX",
"UXz uXeX6X;XoX|.|.|.|.|.|.|.|.|.|.|.|.|.|.|.|.|.|.|.|.|.|.|.|.|.|.|.|.|.|.|.|.|.|.|.|.E.D.n.  UX",
"UXj qX8X2X#X|.|.|.|.|.|.|.|.|.|.|.|.|.|.|.|.|.|.|.|.|.|.|.|.|.|.|.|.|.|.|.|.|.|.|.|.'.R.A.l.  UX",
"UXg 8X5X>XXX|.|.|.|.|.|.|.|.|.|.|.|.|.|.|.|.|.|.|.|.|.|.|.|.|.|.|.|.|.|.|.|.|.|.|.|.'.R.C.g.  UX",
"UXd 8.6.-.@.o.o.o.o.o.o.o.o.o.o.o.o.o.o.o.o.o.o.o.o.o.o.o.o.o.o.o.o.o.o.o.o.o.o.o.o.{ E D N   UX",
"UX: 8.2.;.@.o.o.o.o.o.o.o.o.o.o.o.o.o.o.o.o.o.o.o.o.o.o.o.o.o.o.o.o.o.o.o.o.o.o.o.o.{ E D N   UX",
"UX: 7.2.-.@.o.o.o.o.o.o.o.o.o.o.o.o.o.o.o.o.o.o.o.o.o.o.o.o.o.o.o.o.o.o.o.o.o.o.o.o.{ T S 4   UX",
"UX= 3X2X*X|.|.|.|.|.|.|.|.|.|.|.|.|.|.|.|.|.|.|.|.|.|.|.|.|.|.|.|.|.|.|.|.|.|.|.|.|.).I.n.i   UX",
"UX$ ,X>X%X|.|.|.|.|.|.|.|.|.|.|.|.|.|.|.|.|.|.|.|.|.|.|.|.|.|.|.|.|.|.|.|.|.|.|.|.'./.J.z.t   UX",
"UX+ %X%XXX|.|.|.|.|.|.|.|.|.|.|.|.|.|.|.|.|.|.|.|.|.|.|.|.|.|.|.|.|.|.|.|.|.|.|.|.).Y.C.a 0   UX",
"UX    [ { { { o.o.o.o.o.o.o.o.o.o.o.o.o.o.o.o.o.o.o.o.o.o.o.o.o.o.o.o.o.o.o.o.o.{ _ L C <     UX",
"UXUX  ! ( ` { o.o.o.o.o.o.o.o.o.o.o.o.o.o.o.o.o.o.o.o.o.o.o.o.o.o.o.o.o.o.o.o.{ ` T S 2 >   UXUX",
"UXUX    T ~ ` { o.o.o.o.o.o.o.o.o.o.o.o.o.o.o.o.o.o.o.o.o.o.o.o.o.o.o.o.o.o.{ [ ! H 4 ,     UXUX",
"UXUXUX    L.Y.Q./.).|.|.|.|.|.|.|.|.|.|.|.|.|.|.|.|.|.|.|.|.|.|.|.|.|.|.|.'.~.R.S.j.9     UXUXUX",
"UXUXUXUX  Z.S.K.Y.!.).'.|.|.|.|.|.|.|.|.|.|.|.|.|.|.|.|.|.|.|.|.|.|.|.'.).Q.I.C.g.0 6   UXUXUXUX",
"UXUXUXUX    c.M.A.L.R.!.).'.|.|.|.|.|.|.|.|.|.|.|.|.|.|.|.|.|.|.|.'.).!.Y.F.b.u 6 6     UXUXUXUX",
"UXUXUXUXUX      V A J U ! _ [ { o.o.o.o.o.o.o.o.o.o.o.o.o.o.o.{ [ _ ! L S N < > o     UXUXUXUXUX",
"UXUXUXUXUXUXUX    4 V Z G L T ! ( ` [ { { o.o.o.o.o.o.o.{ [ _ ~ Y K A B 1 > >     UXUXUXUXUXUXUX",
"UXUXUXUXUXUXUXUX      2 4 V Z G J L U E ~ ` { o.o.o.o.{ ` ! I G C 3 < > >       UXUXUXUXUXUXUXUX",
"UXUXUXUXUXUXUXUXUXUX      w r u a j.c.C.L.Q.'.|.|.|.|.).R.F.c.i 9 6 6       UXUXUXUXUXUXUXUXUXUX",
"UXUXUXUXUXUXUXUXUXUXUXUX      o 8 q i c.F.E.'.|.|.|.'.Q.J.c.e 6         UXUXUXUXUXUXUXUXUXUXUXUX",
"UXUXUXUXUXUXUXUXUXUXUXUXUXUX              ).XXXX|.|.!.L.n.e       UXUXUXUXUXUXUXUXUXUXUXUXUXUXUX",
"UXUXUXUXUXUXUXUXUXUXUXUXUXUXUXUXUXUXUXUX  *X;X#X|./.U.B.y 6   UXUXUXUXUXUXUXUXUXUXUXUXUXUXUXUXUX",
"UXUXUXUXUXUXUXUXUXUXUXUXUXUXUXUXUXUXUX= - 5X,X#X).U.V.i 6 6   UXUXUXUXUXUXUXUXUXUXUXUXUXUXUXUXUX",
"UXUXUXUXUXUXUXUXUXUXUXUXUXUXUXUXUXUXUXc tX9X,X'.L.N.u 6 6     UXUXUXUXUXUXUXUXUXUXUXUXUXUXUXUXUX",
"UXUXUXUXUXUXUXUXUXUXUXUXUXUXUXUXUXUXlXhXiX5X'.S.k.w 6 6     UXUXUXUXUXUXUXUXUXUXUXUXUXUXUXUXUXUX",
"UXUXUXUXUXUXUXUXUXUXUXUXUXUXUXUXUXmXcXsX6XQ.n.t 6 6 6     UXUXUXUXUXUXUXUXUXUXUXUXUXUXUXUXUXUXUX",
"UXUXUXUXUXUXUXUXUXUXUXUXUXUXUXvXcXhXtX;XF.a 6 6 6       UXUXUXUXUXUXUXUXUXUXUXUXUXUXUXUXUXUXUXUX",
"UXUXUXUXUXUXUXUXUXUXUXUXUXc M b wX>XU.k.0 6         UXUXUXUXUXUXUXUXUXUXUXUXUXUXUXUXUXUXUXUXUXUX",
"UXUXUXUXUXUXUXUXUXUX- d d : ,X|.J.j.          UXUXUXUXUXUXUXUXUXUXUXUXUXUXUXUXUXUXUXUXUXUXUXUXUX",
"UXUXUXUXUXUXUXUXUXUXUX                UXUXUXUXUXUXUXUXUXUXUXUXUXUXUXUXUXUXUXUXUXUXUXUXUXUXUXUXUX",
"UXUXUXUXUXUXUXUXUXUXUXUXUXUXUXUXUXUXUXUXUXUXUXUXUXUXUXUXUXUXUXUXUXUXUXUXUXUXUXUXUXUXUXUXUXUXUXUX",
"UXUXUXUXUXUXUXUXUXUXUXUXUXUXUXUXUXUXUXUXUXUXUXUXUXUXUXUXUXUXUXUXUXUXUXUXUXUXUXUXUXUXUXUXUXUXUXUX",
"UXUXUXUXUXUXUXUXUXUXUXUXUXUXUXUXUXUXUXUXUXUXUXUXUXUXUXUXUXUXUXUXUXUXUXUXUXUXUXUXUXUXUXUXUXUXUXUX"
};
