/* XPM */
static char *magick[] = {
/* columns rows colors chars-per-pixel */
"32 32 256 2",
"   c Gray0",
".  c #808ec3",
"X  c #041000",
"o  c #9ea8cd",
"O  c #051400",
"+  c #269a00",
"@  c #0c2e00",
"#  c #0f3a00",
"$  c #1b6b00",
"%  c #1e7700",
"&  c #1c7100",
"*  c #1e7a00",
"=  c #279a00",
"-  c #2aa700",
";  c #175e00",
":  c #555d7b",
">  c #7e8bc0",
",  c #5f6991",
"<  c #030201",
"1  c #b8c0e1",
"2  c #8594cb",
"3  c #c4c8db",
"4  c #8795cb",
"5  c #8890b5",
"6  c #787b8e",
"7  c #242223",
"8  c #9ba7d3",
"9  c #66697c",
"0  c #71758b",
"q  c #9ba7d4",
"w  c #b6bfe0",
"e  c #515a7a",
"r  c #c7cce0",
"t  c #c0c4d5",
"y  c #888fb2",
"u  c #6c6f81",
"i  c #cdd2e6",
"p  c #7986b9",
"a  c #636e97",
"s  c #4b4b55",
"d  c #7f8dc2",
"f  c #8590c9",
"g  c #5d6582",
"h  c #201f1f",
"j  c #000200",
"k  c #28a100",
"l  c #c3c8db",
"z  c #7b89bb",
"x  c #020900",
"c  c #8695cc",
"v  c #707587",
"b  c #99a5cf",
"n  c #66719c",
"m  c #bfc3d5",
"M  c #8d8e94",
"N  c #6e7182",
"B  c #bcc3e2",
"V  c #8490c2",
"C  c #65687a",
"Z  c #5b6489",
"A  c #50515c",
"S  c #7c7e91",
"D  c #051200",
"F  c #606780",
"G  c #1d7200",
"H  c #6a7085",
"J  c #5c668c",
"K  c #196200",
"L  c #46474f",
"P  c #565663",
"I  c #010500",
"U  c #8994c3",
"Y  c #5e6890",
"T  c #0c3100",
"R  c #67729d",
"E  c #7e8cc0",
"W  c #092200",
"Q  c #8391c5",
"!  c #666c83",
"~  c #717dac",
"^  c #757989",
"/  c #030d00",
"(  c #606a92",
")  c #8793c3",
"_  c #56657e",
"`  c #7784b4",
"'  c #040200",
"]  c #5b5c69",
"[  c #2aa800",
"{  c #8a96c5",
"}  c #6b7085",
"|  c #8592c3",
" . c #0f3d00",
".. c #7a7d8f",
"X. c #b4bdde",
"o. c #808cbe",
"O. c #646f99",
"+. c #8893c4",
"@. c #555e7c",
"#. c #1f1e1e",
"$. c #616c95",
"%. c #0a2700",
"&. c #717384",
"*. c #606170",
"=. c #c5cbe0",
"-. c #525b7b",
";. c #666379",
":. c #8c8d93",
">. c #8893c1",
",. c #60647e",
"<. c #2d72ad",
"1. c #2673aa",
"2. c #3b383a",
"3. c #363334",
"4. c #73758b",
"5. c #9aa6d2",
"6. c #6873a0",
"7. c #124700",
"8. c #cccfdb",
"9. c #a6afd2",
"0. c #888ea9",
"q. c #8b8d93",
"w. c #615d77",
"e. c #909195",
"r. c #535c7b",
"t. c #8491c1",
"y. c #898c97",
"u. c #249100",
"i. c #bec4da",
"p. c #858799",
"a. c #c7cde1",
"s. c #8b97c8",
"d. c #1f7e00",
"f. c #2bab00",
"g. c #b5bedc",
"h. c #868891",
"j. c #6975a0",
"k. c #6874a0",
"l. c #44446b",
"z. c #909dca",
"x. c #45464e",
"c. c #656b82",
"v. c #222021",
"b. c #8d8f95",
"n. c #000100",
"m. c #5d678d",
"M. c #757a8a",
"N. c #5a617e",
"B. c #66719d",
"V. c #6d6f82",
"C. c #2cb000",
"Z. c #8b95bf",
"A. c #888fb4",
"S. c #9aa6d3",
"D. c #596182",
"F. c #6b6e80",
"G. c #636a82",
"H. c #080604",
"J. c #134a00",
"K. c #bcc4df",
"L. c #030200",
"P. c #67739f",
"I. c #051500",
"U. c #626a93",
"Y. c #adb4cc",
"T. c #211f1f",
"R. c #9aa6d1",
"E. c #8088a9",
"W. c #b5bedf",
"Q. c #717587",
"!. c #030e00",
"~. c #515879",
"^. c #6a677d",
"/. c #144e00",
"(. c #344458",
"). c #134d00",
"_. c #727eae",
"`. c #929ecc",
"'. c #8b94ba",
"]. c #030a00",
"[. c #606b93",
"{. c #555561",
"}. c #6975a1",
"|. c #9197ae",
" X c #8e93ad",
".X c #0c2f00",
"XX c #808397",
"oX c #186100",
"OX c #99a4cb",
"+X c #207f00",
"@X c #5c647f",
"#X c #6d7386",
"$X c #232223",
"%X c #676a7e",
"&X c #010100",
"*X c #218300",
"=X c #8991b4",
"-X c #6d77a0",
";X c #8390c1",
":X c #bcc4e2",
">X c #878fb2",
",X c #7e85bc",
"<X c #051600",
"1X c #797a89",
"2X c #6e7ba8",
"3X c #7f8ec2",
"4X c #828ab1",
"5X c #444449",
"6X c #8190c8",
"7X c Gray60",
"8X c #616b94",
"9X c #214b74",
"0X c #4f505a",
"qX c #30587e",
"wX c #70738a",
"eX c #071e00",
"rX c #76778a",
"tX c #b9c1e1",
"yX c #040f00",
"uX c #6c7598",
"iX c #72758c",
"pX c #797b8e",
"aX c #0e3a00",
"sX c #1d7400",
"dX c #1d7600",
"fX c #bbc3e2",
"gX c #1c6e00",
"hX c #bac2e1",
"jX c #5f6a91",
"kX c #94a0cc",
"lX c #7f84bb",
"zX c #b8c1e0",
"xX c #5e6990",
"cX c #1a6700",
"vX c #596087",
"bX c #1b6c00",
"nX c #7b8299",
"mX c #103e00",
"MX c #155500",
"NX c #185f00",
"BX c #acadb3",
"VX c #020100",
"CX c #838fc6",
"ZX c #279c00",
"AX c #a7b1d6",
"SX c #828ec0",
"DX c #808ec0",
"FX c #2b3153",
"GX c #6d79a6",
"HX c #bfc4d7",
"JX c #1f7b00",
"KX c #595967",
"LX c #736f81",
"PX c #3c3c42",
"IX c #5c7595",
"UX c None",
/* pixels */
"UXUXUXUXUXUXUXUXUXUXUXUXUXUXUXUXUXUXUXUXUXUXUXUXUXUXUXUXUXUXUXUX",
"UXUXUXUXUXUXUXUXUXUXUXUXUXUXUXUXUXUXUXUXUXUXUXUXUXUXUXUXUXUXUXUX",
"UXUXUXUXUXUXUXUXUXUXUXUXUXUXUXUXUXUXUXUXUXUXUXUXUXUXUXUXUXUXUXUX",
"BX8.i a.r r r r r =.l l 3 3 3 3 3 3 3 3 3 3 l HXm t t t t m Y.|.",
"i.i K.X.W.w w w W.w w zX1 1 1 1 1 1 1 1 1 1 1 tXfX:XB B hXg.`.-X",
"9.AXz.0.&.F.u u u N N rXpX6 6 6 6 6 6 6 6 6 6 ..S S XXp. Xs.~ D.",
"o 5.'.3.              &X' < < < < < < < < < < < < L.H.' 5X>.}.@.",
"o S.A.v.@ C.[ - - - - - - - - - - - - - - - - [ f.aX    PXU k.@X",
"o 8 5 7 I O O O O O O O O O O O O O O O O O O O <Xx     x.{ 6.N.",
"o 8 5 7 j j                                             x.{ P.N.",
"o 8 5 7 mXu.dX% % % % % % % % % % % % % % % % % JX/.    L U B.@X",
"o 8 5 7 x D X X X X X X X X X X X X X X X X X X X /     s +.n F ",
"o 8 5 7 O  .# # # # # # # # # # # # # # # # # #  .I.    s +.n F ",
"o 8 5 7 T k + + + + + + + + + + + + + + + + + + k J.    s ) O.F ",
"o 8 5 7                                                 0X| a G.",
"o 8 5 7 !.K sX& & & & & & & & & & & & & & & & sXG W     A | a ! ",
"o 8 5 7 yXNXgX$ $ $ $ $ $ $ $ $ $ $ $ $ $ $ $ bX$ eX    A | a c.",
"o q =X$X                                                {.t.$.! ",
"o q y h X *Xk = = = = = = = = = = = = = = = = ZX+ W     P V 8XH ",
"o q y h I %..X@ @ @ @ @ @ @ @ @ @ @ @ @ @ @ @ .X@ ].    P V [.} ",
"o q y h x ).oX; ; ; ; ; ; ; ; ; ; ; ; ; ; ; ; K 7.j     KX;X( H ",
"o q >X#.n.MX+X* * * * * * * * * * * * * * * * d.cX/     ] SXxX#X",
"o q y T.                                                ] DXY v ",
"o R.Z.2.                                              VX*.DXY Q.",
"o b | E.4.0 0 0 0 0 0 0 0 iXwX%X9 9 9 9 9 9 9 9 9 9 C V.4X` m.v ",
"o b Q 6X2 2 2 2 2 2 2 2 2 2 2 c 4 4 4 4 4 4 4 4 4 4 4 s.6X` J ^ ",
"OXkX. d d d . . . . . . . . . . . . . . . . . . 3XCXf ,XlX` Z M.",
"o._.R R j.~ p E . . . . . . . . . . . . . . d z p IX_ <.1.U.~.^ ",
"nXe e e e D.2Xz > > > > > > > > > > > > > > z GXvXFX(.qX9Xl.: h.",
"7Xe.q.:.M b.uXO.( , , , , , , , , , , , , jXJ e ,.w.1X^.LX;.M UX",
"UXUXUXUXUXy.g r.: : : : : : : : : : : : : : : -.} UXUXUXUXUXUXUX",
"UXUXUXUXUXUXUXUXUXUXUXUXUXUXUXUXUXUXUXUXUXUXUXUXUXUXUXUXUXUXUXUX"
};
