/* XPM */
static char * bulle_blank_xpm[] = {
"48 48 283 2",
"  	c None",
". 	c #000000",
"+ 	c #FA0002",
"@ 	c #F5302C",
"# 	c #F41C18",
"$ 	c #F90506",
"% 	c #F6302C",
"& 	c #F5302E",
"* 	c #F71216",
"= 	c #F61F1C",
"- 	c #080000",
"; 	c #060000",
"> 	c #FC494A",
", 	c #FE494D",
"' 	c #220000",
") 	c #F30001",
"! 	c #C4070F",
"~ 	c #180404",
"{ 	c #1A0000",
"] 	c #F90001",
"^ 	c #A52226",
"/ 	c #120606",
"( 	c #AF070A",
"_ 	c #F70303",
": 	c #F20401",
"< 	c #FF330E",
"[ 	c #F30501",
"} 	c #FF4511",
"| 	c #E91C00",
"1 	c #FF3810",
"2 	c #F30601",
"3 	c #AE2632",
"4 	c #893136",
"5 	c #F46263",
"6 	c #FE6C6D",
"7 	c #FC6A6A",
"8 	c #F76565",
"9 	c #FD6B6B",
"0 	c #F96865",
"a 	c #FB6A67",
"b 	c #FA6966",
"c 	c #FE6D6A",
"d 	c #FF6D69",
"e 	c #FE6A66",
"f 	c #FE6965",
"g 	c #FF6C68",
"h 	c #FF6B68",
"i 	c #FF6961",
"j 	c #FF6952",
"k 	c #FF704B",
"l 	c #FF703B",
"m 	c #FF8946",
"n 	c #FF6F20",
"o 	c #FF8C39",
"p 	c #FF6C1B",
"q 	c #FF803C",
"r 	c #FF6A3A",
"s 	c #FF6D4F",
"t 	c #FF6C60",
"u 	c #FF6A69",
"v 	c #FF6A6E",
"w 	c #FE6D72",
"x 	c #FC6D71",
"y 	c #F76B6C",
"z 	c #F76B6E",
"A 	c #FA696E",
"B 	c #FF676C",
"C 	c #FE676C",
"D 	c #FA696C",
"E 	c #FB6872",
"F 	c #FF6777",
"G 	c #F96F7F",
"H 	c #D9737E",
"I 	c #9A484E",
"J 	c #FEE9E3",
"K 	c #FBFFFB",
"L 	c #FDF6ED",
"M 	c #FFEDD6",
"N 	c #FFE3B1",
"O 	c #FFDC94",
"P 	c #FFD175",
"Q 	c #FFD061",
"R 	c #FFB93B",
"S 	c #FFC542",
"T 	c #FFBA3D",
"U 	c #FFCD5F",
"V 	c #FFD680",
"W 	c #FFDF9E",
"X 	c #FFE7BF",
"Y 	c #FFEAD0",
"Z 	c #866765",
"` 	c #FFFCE0",
" .	c #FFFAB9",
"..	c #FFE988",
"+.	c #FAD560",
"@.	c #EAC539",
"#.	c #E3BB1D",
"$.	c #E5BB17",
"%.	c #EABE1F",
"&.	c #F5C83B",
"*.	c #F8CA5A",
"=.	c #FFD983",
"-.	c #FFEBB1",
";.	c #FFF4D0",
">.	c #FEFBE4",
",.	c #FCFEF5",
"'.	c #6C5E5D",
").	c #FFF5DF",
"!.	c #FED993",
"~.	c #FACB5F",
"{.	c #F0BF3C",
"].	c #F0BB21",
"^.	c #F8C10F",
"/.	c #F4B800",
"(.	c #F7B808",
"_.	c #F1B113",
":.	c #F6B638",
"<.	c #FFC86A",
"[.	c #FFDEA3",
"}.	c #FFEDC9",
"|.	c #725158",
"1.	c #FFEED6",
"2.	c #FFE293",
"3.	c #FFD55C",
"4.	c #F3BF2D",
"5.	c #FAC217",
"6.	c #FFCA07",
"7.	c #FFC400",
"8.	c #FFC602",
"9.	c #FFBB0B",
"0.	c #F9B428",
"a.	c #FFC45B",
"b.	c #FFD896",
"c.	c #FFE8C3",
"d.	c #7B5C64",
"e.	c #FFF4D2",
"f.	c #FFE68B",
"g.	c #FFDC54",
"h.	c #E5B815",
"i.	c #F0BD00",
"j.	c #F5BC00",
"k.	c #F9BB00",
"l.	c #FFC300",
"m.	c #FEBB00",
"n.	c #FFC024",
"o.	c #FFCD59",
"p.	c #FFDF92",
"q.	c #FFEFC3",
"r.	c #FFFDE7",
"s.	c #F3FFFD",
"t.	c #685C5E",
"u.	c #FAF0CC",
"v.	c #F0D97C",
"w.	c #FCDB56",
"x.	c #E4BC1C",
"y.	c #FDCD11",
"z.	c #FCC500",
"A.	c #FFC200",
"B.	c #FBBC00",
"C.	c #F3BB20",
"D.	c #F5C652",
"E.	c #F9D78D",
"F.	c #FBE9BB",
"G.	c #FBF9E2",
"H.	c #F0FFFC",
"I.	c #706A6A",
"J.	c #FFFFE1",
"K.	c #F8ED9E",
"L.	c #F7E26F",
"M.	c #F1CE40",
"N.	c #F3C41C",
"O.	c #F9BE00",
"P.	c #FFC000",
"Q.	c #FFBF00",
"R.	c #FABD14",
"S.	c #F1C03D",
"T.	c #F7D373",
"U.	c #FFEDB0",
"V.	c #FFFFDA",
"W.	c #FEFFED",
"X.	c #F8FFF3",
"Y.	c #6A6164",
"Z.	c #F9FFE1",
"`.	c #FBFEB9",
" +	c #F3EE8A",
".+	c #F1DC5F",
"++	c #EBC733",
"@+	c #F6C61C",
"#+	c #F7C00E",
"$+	c #FBC51B",
"%+	c #F1C42D",
"&+	c #F1D25D",
"*+	c #F1DF89",
"=+	c #F4F2B9",
"-+	c #F7FFD8",
";+	c #F7FFE6",
">+	c #F6FFED",
",+	c #F6FFE6",
"'+	c #F5FFE6",
")+	c #F7FFF5",
"!+	c #F9FFF9",
"~+	c #6A6663",
"{+	c #F0FFE1",
"]+	c #EDFFC2",
"^+	c #E6F49C",
"/+	c #F0F284",
"(+	c #E3D956",
"_+	c #FCE450",
":+	c #F0D337",
"<+	c #F9DE47",
"[+	c #EAD64F",
"}+	c #FFFB8D",
"|+	c #F7FFA9",
"1+	c #F1FFC6",
"2+	c #EDFFDA",
"3+	c #EDFFE6",
"4+	c #EBFFE8",
"5+	c #EDFFE4",
"6+	c #EAFFE3",
"7+	c #E9FFE3",
"8+	c #EAFFE1",
"9+	c #EBFFE1",
"0+	c #EDFFE1",
"a+	c #EEFFE1",
"b+	c #F1FFE1",
"c+	c #F2FFE3",
"d+	c #F7FFED",
"e+	c #EBF7E1",
"f+	c #77806F",
"g+	c #588B48",
"h+	c #5F924F",
"i+	c #639653",
"j+	c #609350",
"k+	c #5E914E",
"l+	c #5D904D",
"m+	c #5F914A",
"n+	c #709F4F",
"o+	c #6D9638",
"p+	c #8BA739",
"q+	c #839316",
"r+	c #A5AC20",
"s+	c #929402",
"t+	c #9CA00E",
"u+	c #87930B",
"v+	c #7F9820",
"w+	c #71962F",
"x+	c #63933D",
"y+	c #5B9348",
"z+	c #5B9450",
"A+	c #5C9455",
"B+	c #5F9353",
"C+	c #5D914F",
"D+	c #59904D",
"E+	c #59904C",
"F+	c #59914A",
"G+	c #599148",
"H+	c #5B9146",
"I+	c #5C9046",
"J+	c #5D8F48",
"K+	c #608D4A",
"L+	c #61894D",
"M+	c #668855",
"N+	c #738E65",
"O+	c #425A36",
"P+	c #2A6507",
"Q+	c #289000",
"R+	c #528F10",
"S+	c #4A7E00",
"T+	c #6E9806",
"U+	c #598200",
"V+	c #638F00",
"W+	c #518400",
"X+	c #4E8C00",
"Y+	c #38572B",
"Z+	c #040E00",
"`+	c #070C05",
" @	c #051200",
".@	c #071004",
"+@	c #000300",
"@@	c #010300",
"#@	c #010400",
"$@	c #010500",
"%@	c #3C9319",
"                                                                                                ",
"                                                                                                ",
"                              . . . . . . . . . . . . . . . . . .                               ",
"                        . . . . + + + + + + + + + + + + + + + + . . . .                         ",
"                    . . . + + + + + + + @ # + + + + $ + + + + + + + + . . .                     ",
"                . . . + + + % + + + + + + + + + + + + + + + + + + & + + + . . .                 ",
"              . . + + * + + + + + + + + + + + + + + + + + + + + + + + + = + + . .               ",
"          . . - + + + + + + + + + + + + + + + + + + + + + + + + + + + + + + + + - . .           ",
"        . . + + + + + + + + + + + + + + + + + + + + + + + + + + + + + + + + + + + + . .         ",
"        ; > + + + + + + + + + + + + + + + + + + + + + + + + + + + + + + + + + + + + , ;         ",
"      ' ) + + + + + + + + + + + + + + + + + + + + + + + + + + + + + + + + + + + + + + ! ~       ",
"    { + + + + + + + + + + + + + + + + + + + ] ] ] ] + + + + + + + + + + + + + + + + + + ^ /     ",
"    ( + + + + + + + + + + + + + + + + _ : < [ } | 1 2 + + + + + + + + + + + + + + + + + 3 4     ",
"  . 5 6 7 8 9 9 0 a b c d e f g h i j k l m n o p q r s t u v w x y z A B C D y A E F G H I .   ",
"  . J K K K K K K K K K K K L K K M N O P Q R S T U V W X Y K K K K K K K K K K K K K K K Z .   ",
"  . K K K K K K K K K K K K K K K `  ...+.@.#.$.%.&.*.=.-.;.>.,.K K K K K K K K K K K K K '..   ",
"  . K K K K K K K K K K K K K K K ).!.~.{.].^./.(._.:.<.[.}.K K K K K K K K K K K K K K K |..   ",
"  . K K K K K K K K K K K K K K K 1.2.3.4.5.6.7.8.9.0.a.b.c.K K K K K K K K K K K K K K K d..   ",
"  . K K K K K K K K K K K K K K K e.f.g.h.i.j.k.l.m.n.o.p.q.r.K K K K K K K K K s.K K K K t..   ",
"  . K K K K K K K K K K K K K K K u.v.w.x.y.z.A.7.B.C.D.E.F.G.K K H.K K K K K K K K K K K I..   ",
"  . K K K K K K K K K K K K K K K J.K.L.M.N.O.P.Q.R.S.T.U.V.W.K X.K K K K K K K K K K K K Y..   ",
"  . K K K K K K K K K K K K K K K Z.`. +.+++@+#+$+%+&+*+=+-+;+>+,+'+)+!+K K K K K K K K K ~+.   ",
"  . K K K K K K K K K K K K K K K {+]+^+/+(+_+:+<+[+}+|+1+2+3+4+3+5+6+7+8+9+0+a+b+c+'+d+e+f+.   ",
"  . g+h+i+j+k+j+j+l+k+k+k+k+k+k+k+m+n+o+p+q+r+s+t+u+v+w+x+y+z+A+B+C+D+E+F+G+H+I+J+K+L+M+N+O+.   ",
"    P+Q+Q+Q+Q+Q+Q+Q+Q+Q+Q+Q+Q+Q+Q+Q+Q+Q+R+S+T+U+V+W+X+Q+Q+Q+Q+Q+Q+Q+Q+Q+Q+Q+Q+Q+Q+Q+Q+Q+Q+Y+    ",
"    Z+Q+Q+Q+Q+Q+Q+Q+Q+Q+Q+Q+Q+Q+Q+Q+Q+Q+Q+Q+Q+Q+Q+Q+Q+Q+Q+Q+Q+Q+Q+Q+Q+Q+Q+Q+Q+Q+Q+Q+Q+Q+Q+`+    ",
"       @Q+Q+Q+Q+Q+Q+Q+Q+Q+Q+Q+Q+Q+Q+Q+Q+Q+Q+Q+Q+Q+Q+Q+Q+Q+Q+Q+Q+Q+Q+Q+Q+Q+Q+Q+Q+Q+Q+Q+Q+.@      ",
"        +@Q+Q+Q+Q+Q+Q+Q+Q+Q+Q+Q+Q+Q+Q+Q+Q+Q+Q+Q+Q+Q+Q+Q+Q+Q+Q+Q+Q+Q+Q+Q+Q+Q+Q+Q+Q+Q+Q+@@        ",
"        . . Q+Q+Q+Q+Q+Q+Q+Q+Q+Q+Q+Q+Q+Q+Q+Q+Q+Q+Q+Q+Q+Q+Q+Q+Q+Q+Q+Q+Q+Q+Q+Q+Q+Q+Q+Q+. .         ",
"          . . #@Q+Q+Q+Q+Q+Q+Q+Q+Q+Q+Q+Q+Q+Q+Q+Q+Q+Q+Q+Q+Q+Q+Q+Q+Q+Q+Q+Q+Q+Q+Q+Q+$@. .           ",
"              . . Q+Q+Q+Q+Q+Q+Q+Q+Q+Q+Q+Q+Q+Q+Q+Q+Q+Q+Q+Q+Q+Q+Q+Q+Q+Q+Q+%@Q+Q+. .               ",
"                . . . Q+Q+Q+Q+Q+Q+Q+Q+Q+Q+Q+Q+Q+Q+Q+Q+Q+Q+Q+Q+Q+Q+Q+Q+Q+Q+. . .                 ",
"                    . . . Q+Q+Q+Q+Q+Q+Q+Q+Q+Q+Q+Q+Q+Q+Q+Q+Q+Q+Q+Q+Q+Q+. . .                     ",
"                        . . . Q+Q+Q+Q+Q+Q+Q+Q+Q+Q+Q+Q+Q+Q+Q+Q+Q+. . . .                         ",
"                              . . . . . . Q+Q+Q+Q+Q+Q+Q+Q+Q+. . .                               ",
"                                        . Q+Q+Q+Q+Q+Q+Q+Q+Q+.                                   ",
"                                        . Q+Q+Q+Q+Q+Q+Q+Q+Q+.                                   ",
"                                      . Q+Q+Q+Q+Q+Q+Q+Q+Q+.                                     ",
"                                      . Q+Q+Q+Q+Q+Q+Q+Q+.                                       ",
"                                    . Q+Q+Q+Q+Q+Q+Q+Q+.                                         ",
"                                . . Q+Q+Q+Q+Q+Q+Q+. .                                           ",
"                            . . Q+Q+Q+Q+Q+Q+. . .                                               ",
"                    . . . . Q+Q+Q+Q+. . . .                                                     ",
"                      . . . . . . .                                                             ",
"                                                                                                ",
"                                                                                                ",
"                                                                                                ",
"                                                                                                "};
