/* XPM */
static char *magick[] = {
/* columns rows colors chars-per-pixel */
"48 48 257 2",
"   c Gray0",
".  c #000040",
"X  c #000042",
"o  c #000045",
"O  c #000047",
"+  c #00004b",
"@  c #000050",
"#  c #000053",
"$  c #000054",
"%  c #000056",
"&  c #000059",
"*  c #00005d",
"=  c #000062",
"-  c #000066",
";  c #000069",
":  c #00006b",
">  c #00006c",
",  c #00006f",
"<  c #000071",
"1  c #000075",
"2  c #000077",
"3  c #00007b",
"4  c #00007e",
"5  c #404000",
"6  c #424200",
"7  c #505000",
"8  c #515100",
"9  c #545400",
"0  c #5d5d00",
"q  c #5f5f00",
"w  c #606000",
"e  c #636300",
"r  c #686800",
"t  c #747400",
"y  c #757500",
"u  c #787800",
"i  c #7e7e00",
"p  c #000081",
"a  c #000083",
"s  c #000084",
"d  c #000086",
"f  c #000087",
"g  c #00008c",
"h  c #000091",
"j  c #000096",
"k  c #000098",
"l  c #00009b",
"z  c #00009e",
"x  c #00009f",
"c  c #0000a4",
"v  c #0000a5",
"b  c #0000a7",
"n  c #0000a9",
"m  c #0000ad",
"M  c #0000b4",
"N  c #0000b7",
"B  c #0000ba",
"V  c #0000bc",
"C  c #0000c0",
"Z  c #0000c2",
"A  c #0000c5",
"S  c #0000c6",
"D  c #0000c9",
"F  c #0000cb",
"G  c #0000cc",
"H  c #0000cf",
"J  c #0000d1",
"K  c #0000d2",
"L  c #0000d4",
"P  c #0000d7",
"I  c #0000d8",
"U  c #0000da",
"Y  c #0000db",
"T  c #0000dd",
"R  c #0000de",
"E  c #0000e1",
"W  c #0000e3",
"Q  c #0000e6",
"!  c #0000e9",
"~  c #0000ea",
"^  c #0000ec",
"/  c #0000ed",
"(  c #0000ef",
")  c #0000f0",
"_  c #0000f2",
"`  c #0000f3",
"'  c #0000f5",
"]  c #0000f6",
"[  c #0000f8",
"{  c #0000f9",
"}  c #0000fb",
"|  c #0000fc",
" . c #0000fe",
".. c Blue",
"X. c #0101ff",
"o. c #0303ff",
"O. c #0404ff",
"+. c #0606ff",
"@. c #0707ff",
"#. c #0909ff",
"$. c #0c0cff",
"%. c #0d0dff",
"&. c #1010ff",
"*. c #1212ff",
"=. c #1313ff",
"-. c #1616ff",
";. c #1919ff",
":. c #1b1bff",
">. c #1c1cff",
",. c #1e1eff",
"<. c #1f1fff",
"1. c #2222ff",
"2. c #2424ff",
"3. c #2525ff",
"4. c #2727ff",
"5. c #2828ff",
"6. c #2a2aff",
"7. c #2e2eff",
"8. c #3131ff",
"9. c #3333ff",
"0. c #3434ff",
"q. c #3636ff",
"w. c #3939ff",
"e. c #3a3aff",
"r. c #3c3cff",
"t. c #3f3fff",
"y. c #4040ff",
"u. c #4242ff",
"i. c #4646ff",
"p. c #4949ff",
"a. c #4c4cff",
"s. c #4f4fff",
"d. c #5252ff",
"f. c #5454ff",
"g. c #5555ff",
"h. c #5757ff",
"j. c #5858ff",
"k. c #5a5aff",
"l. c #5e5eff",
"z. c #6161ff",
"x. c #6363ff",
"c. c #6767ff",
"v. c #6d6dff",
"b. c #6f6fff",
"n. c #7070ff",
"m. c #7272ff",
"M. c #7373ff",
"N. c #7676ff",
"B. c #7878ff",
"V. c #7b7bff",
"C. c #7c7cff",
"Z. c #828200",
"A. c #858500",
"S. c #8a8a00",
"D. c #8c8c00",
"F. c #8f8f00",
"G. c #929200",
"H. c #969600",
"J. c #999900",
"K. c #9c9c00",
"L. c #9f9f00",
"P. c #a2a200",
"I. c #a8a800",
"U. c #adad00",
"Y. c #b2b200",
"T. c #b6b600",
"R. c #b9b900",
"E. c #bcbc00",
"W. c #c0c000",
"Q. c #c7c700",
"!. c #cece00",
"~. c #d1d100",
"^. c #d4d400",
"/. c #d8d800",
"(. c #dede00",
"). c #e3e300",
"_. c #e6e600",
"`. c #eaea00",
"'. c #eded00",
"]. c #f0f000",
"[. c #f3f300",
"{. c #f9f900",
"}. c #fbfb00",
"|. c #fcfc00",
" X c #fefe00",
".X c Yellow",
"XX c #ffff01",
"oX c #ffff03",
"OX c #ffff04",
"+X c #ffff07",
"@X c #ffff0a",
"#X c #ffff0c",
"$X c #ffff0d",
"%X c #ffff10",
"&X c #ffff12",
"*X c #ffff13",
"=X c #ffff16",
"-X c #ffff18",
";X c #ffff1b",
":X c #ffff1c",
">X c #ffff22",
",X c #ffff25",
"<X c #ffff2a",
"1X c #ffff2b",
"2X c #ffff2e",
"3X c #ffff30",
"4X c #ffff33",
"5X c #ffff34",
"6X c #ffff36",
"7X c #ffff37",
"8X c #ffff3c",
"9X c #ffff40",
"0X c #ffff43",
"qX c #ffff46",
"wX c #ffff4c",
"eX c #ffff4e",
"rX c #ffff58",
"tX c #ffff5b",
"yX c #ffff5d",
"uX c #ffff63",
"iX c #ffff66",
"pX c #ffff6d",
"aX c #ffff73",
"sX c #ffff7b",
"dX c #ffff7f",
"fX c #8181ff",
"gX c #8484ff",
"hX c #8888ff",
"jX c #8b8bff",
"kX c #8d8dff",
"lX c #8e8eff",
"zX c #9393ff",
"xX c #9494ff",
"cX c #9797ff",
"vX c #9d9dff",
"bX c #9f9fff",
"nX c #a0a0ff",
"mX c #a3a3ff",
"MX c #a6a6ff",
"NX c #a8a8ff",
"BX c #a9a9ff",
"VX c #ababff",
"CX c #ffff82",
"ZX c #ffff87",
"AX c #ffff88",
"SX c #ffff8e",
"DX c #ffff91",
"FX c #ffff93",
"GX c #ffff94",
"HX c #ffff97",
"JX c #ffff99",
"KX c #ffff9c",
"LX c #ffffa0",
"PX c #ffffa3",
"IX c #ffffa6",
"UX c #ffffa9",
"YX c None",
/* pixels */
"YXYXYXYXYXYXYXYXYXYXYXYXYXYXYXYXYXYXYXYXYXYXYXYXYXYXYXYXYXYXYXYXYXYXYXYXYXYXYXYXYXYXYXYXYXYXYXYX",
"YXYXYXYXYXYXYXYXYXYXYXYXYXYXYXYXYXYXYXYXYXYXYXYXYXYXYXYXYXYXYXYXYXYXYXYXYXYXYXYXYXYXYXYXYXYXYXYX",
"YXYXYXYXYXYXYXYXYXYXYXYXYXYXYXYXYXYXYXYXYXYXYXYXYXYXYXYXYXYXYXYXYXYXYXYXYXYXYXYXYXYXYXYXYXYXYXYX",
"YXYXYXYXYXYXYXYXYXYXYXYXYXYXYXYXYXYXYXYXYXYXYXYXYXYXYXYXYXYXYXYXYXYXYXYXYXYXYXYXYXYXYXYXYXYXYXYX",
"YXYXYXYXYXYXYXYXYXYXYXYXYXYXYXYXLXKXGXFXkXkXkXkXkXkXkXkXjXgXC.m.YXYXYXYXYXYXYXYXYXYXYXYXYXYXYXYX",
"YXYXYXYXYXYXYXYXYXYXYXYXYXUXIXLXJXSXZXdXV.V.V.V.V.V.V.V.V.m.v.c.z.z.j.YXYXYXYXYXYXYXYXYXYXYXYXYX",
"YXYXYXYXYXYXYXYXYXYXYXNXIXLXGXAXsXpXuXyXj.j.j.j.j.j.j.j.g.g.g.g.g.g.d.d.s.YXYXYXYXYXYXYXYXYXYXYX",
"YXYXYXYXYXYXYXYXYXNXNXmXFXCXpXrXqX5X1X,X1.1.1.1.1.1.1.1.1.1.6.9.w.u.i.p.i.u.t.YXYXYXYXYXYXYXYXYX",
"YXYXYXYXYXYXYXYXNXmXxXfXiXwX5X>X*X@X+X XX.X.X.X.X.X.X.X.X.X.@.%.*.<.6.q.w.w.w.9.YXYXYXYXYXYXYXYX",
"YXYXYXYXYXYXNXMXbXjXv.s.3X;X$X+X X X X XX.X.X.X.X.X.X.X.X.X.X.X.X.@.%.;.1.7.q.7.3.;.YXYXYXYXYXYX",
"YXYXYXYXYXbXbXzXV.j.w.<.$X+X X X X X X XX.X.X.X.X.X.X.X.X.X.X.X.X.X.X.@.%.-.3.3.<.%.' YXYXYXYXYX",
"YXYXYXYXYXxXkXm.s.6.*.@. X X X X X X X XX.X.X.X.X.X.X.X.X.X.X.X.X.X.X.X.X.@.*.-.*.@.( YXYXYXYXYX",
"YXYXYXYXxXjXm.p.3.%.@.X. X X X X X X X XX.X.X.X.X.X.X.X.X.X.X.X.X.X.X.X.X.X.@.#.#.X.~ R YXYXYXYX",
"YXYXYXkXjXN.s.3.%.X.X.X. X X X X X X X XX.X.X.X.X.X.X.X.X.X.X.X.X.X.X.X.X.X.X.X.X.X.~ Y H YXYXYX",
"YXYXYXgXV.l.9.*.@.X.X.X. X X X X X X X XX.X.X.X.X.X.X.X.X.X.X.X.X.X.X.X.X.X.X.X.@.X._ L C YXYXYX",
"YXYXaXaXiX0X:X+X X X X X X X X X X X X X X X X X X X X X X X X X X X X X X X X X X+X].^.T.K.YXYX",
"YXYXyXrXwX1X$X X X X X X X X X X X X X X X X X X X X X X X X X X X X X X X X X X X X'.Q.P.A.YXYX",
"YXYXwXwX8X:X+X X X X X X X X X X X X X X X X X X X X X X X X X X X X X X X X X X X X'.W.H.y YXYX",
"YXYX0X0X3X=X X X X X X X X X X X X X X X X X X X X X X X X X X X X X X X X X X X X X`.E.D.r YXYX",
"YXYX8X8X2X*X X X X X X X X X X X X X X X X X X X X X X X X X X X X X X X X X X X X X`.R.S.w YXYX",
"YXYX5X5X1X*X X X X X X X X X X X X X X X X X X X X X X X X X X X X X X X X X X X X X_.Y.Z.0 YXYX",
"YXYX2X1X>X*X X X X X X X X X X X X X X X X X X X X X X X X X X X X X X X X X X X X{.(.I.y 7 YXYX",
"YXYX;X;X=X@X X X X X X X X X X X X X X X X X X X X X X X X X X X X X X X X X X X X[.!.G.w 5 YXYX",
"YXYXX.} } X.} X.X.X.X.X. X X X X X X X XX.X.X.X.X.X.X.X.X.X.X.X.X.X.X.X.X.X.X.X.} W m , . . YXYX",
"YXYXYXW Q _ ' } X.X.X.X. X X X X X X X XX.X.X.X.X.X.X.X.X.X.X.X.X.X.X.X.X.X.X.} ( S f O . YXYXYX",
"YXYXYXJ L W ( } X.X.X.X. X X X X X X X XX.X.X.X.X.X.X.X.X.X.X.X.X.X.X.X.X.X.X._ L z & . . YXYXYX",
"YXYXYXYXC F Y ~ _ } X.X. X X X X X X X XX.X.X.X.X.X.X.X.X.X.X.X.X.X.X.X.X.} _ Y n ; . . YXYXYXYX",
"YXYXYXYXYXM B F Y ~ ' X. X X X X X X X XX.X.X.X.X.X.X.X.X.X.X.X.X.X.X.X.} ~ J c ; . . YXYXYXYXYX",
"YXYXYXYXYXn z c M F W _ {. X X X X X X XX.X.X.X.X.X.X.X.X.X.X.X.X.X.} _ R C j * . . . YXYXYXYXYX",
"YXYXYXYXYXYXf 4 f l M J ).].{. X X X X XX.X.X.X.X.X.X.X.X.X.X.X.} _ W F c 1 O . . . YXYXYXYXYXYX",
"YXYXYXYXYXYXYXYX, 1 f z T.!.).].{. X X XX.X.X.X.X.X.X.X.X.} ' ~ Y S c p % . . . YXYXYXYXYXYXYXYX",
"YXYXYXYXYXYXYXYXYX= - , Z.J.Y.Q.~./.(.).~ _ } X.X.X.X.} _ W H M j 3 @ . . . . YXYXYXYXYXYXYXYXYX",
"YXYXYXYXYXYXYXYXYXYXYX% 0 r u A.D.G.K.U.S R ( } X.X.} ( Y M h ; O . . . . YXYXYXYXYXYXYXYXYXYXYX",
"YXYXYXYXYXYXYXYXYXYXYXYXYX7 7 7 7 9 w i c H ( X.X.X.' W V p @ . . . . YXYXYXYXYXYXYXYXYXYXYXYXYX",
"YXYXYXYXYXYXYXYXYXYXYXYXYXYXYX5 5 5 5 w l F ( X.X.X.( F h + . . YXYXYXYXYXYXYXYXYXYXYXYXYXYXYXYX",
"YXYXYXYXYXYXYXYXYXYXYXYXYXYXYXYXYXYXYXYXYX~ @.*.@.} R c - . YXYXYXYXYXYXYXYXYXYXYXYXYXYXYXYXYXYX",
"YXYXYXYXYXYXYXYXYXYXYXYXYXYXYXYXYXYXYXYXYX<.3.<.@.Q V 3 . . YXYXYXYXYXYXYXYXYXYXYXYXYXYXYXYXYXYX",
"YXYXYXYXYXYXYXYXYXYXYXYXYXYXYXYXYXYXYXYXYXs.t.<.( B p . . . YXYXYXYXYXYXYXYXYXYXYXYXYXYXYXYXYXYX",
"YXYXYXYXYXYXYXYXYXYXYXYXYXYXYXYXYXYXYXYXm.z.q.' m < . . . YXYXYXYXYXYXYXYXYXYXYXYXYXYXYXYXYXYXYX",
"YXYXYXYXYXYXYXYXYXYXYXYXYXYXYXYXYXYXYXYXv.t.( l % . . . YXYXYXYXYXYXYXYXYXYXYXYXYXYXYXYXYXYXYXYX",
"YXYXYXYXYXYXYXYXYXYXYXYXYXYXYXYXYXYXYXc.9.Y p . . . . YXYXYXYXYXYXYXYXYXYXYXYXYXYXYXYXYXYXYXYXYX",
"YXYXYXYXYXYXYXYXYXYXYXYXYXYXYXYXYXYXs.*.B = . . . YXYXYXYXYXYXYXYXYXYXYXYXYXYXYXYXYXYXYXYXYXYXYX",
"YXYXYXYXYXYXYXYXYXYXYXYXYXYXYXYXu.;.Y g + . YXYXYXYXYXYXYXYXYXYXYXYXYXYXYXYXYXYXYXYXYXYXYXYXYXYX",
"YXYXYXYXYXYXYXYXYXYXYXYXYXYX-.X.Y c YXYXYXYXYXYXYXYXYXYXYXYXYXYXYXYXYXYXYXYXYXYXYXYXYXYXYXYXYXYX",
"YXYXYXYXYXYXYXYXYXYXYXYXYXYXYXYXYXYXYXYXYXYXYXYXYXYXYXYXYXYXYXYXYXYXYXYXYXYXYXYXYXYXYXYXYXYXYXYX",
"YXYXYXYXYXYXYXYXYXYXYXYXYXYXYXYXYXYXYXYXYXYXYXYXYXYXYXYXYXYXYXYXYXYXYXYXYXYXYXYXYXYXYXYXYXYXYXYX",
"YXYXYXYXYXYXYXYXYXYXYXYXYXYXYXYXYXYXYXYXYXYXYXYXYXYXYXYXYXYXYXYXYXYXYXYXYXYXYXYXYXYXYXYXYXYXYXYX",
"YXYXYXYXYXYXYXYXYXYXYXYXYXYXYXYXYXYXYXYXYXYXYXYXYXYXYXYXYXYXYXYXYXYXYXYXYXYXYXYXYXYXYXYXYXYXYXYX"
};
