/* XPM */
static char *magick[] = {
/* columns rows colors chars-per-pixel */
"48 48 256 2",
"   c Gray0",
".  c #0c0c0c",
"X  c #161616",
"o  c #1b1b1b",
"O  c #272727",
"+  c #2a2a2a",
"@  c Gray18",
"#  c #313131",
"$  c #373737",
"%  c #393939",
"&  c #3c3c3c",
"*  c Gray24",
"=  c #3f3f3f",
"-  c #000040",
";  c #000042",
":  c #000044",
">  c #000047",
",  c #00004a",
"<  c #00004e",
"1  c #000050",
"2  c #000059",
"3  c #00005a",
"4  c #00005d",
"5  c #000062",
"6  c #000063",
"7  c #00006b",
"8  c #00006c",
"9  c #00006f",
"0  c #000071",
"q  c #000072",
"w  c #000074",
"e  c #000075",
"r  c #000079",
"t  c #00007d",
"y  c #00007e",
"u  c Gray25",
"i  c Gray26",
"p  c #464646",
"a  c #494949",
"s  c #515151",
"d  c Gray33",
"f  c Gray34",
"g  c #585858",
"h  c #606060",
"j  c Gray39",
"k  c #676767",
"l  c #686868",
"z  c Gray42",
"x  c #6d6d6d",
"c  c #6f6f6f",
"v  c Gray45",
"b  c #767676",
"n  c #797979",
"m  c #7b7b7b",
"M  c Gray",
"N  c #000080",
"B  c #000083",
"V  c #000085",
"C  c #000089",
"Z  c #00008a",
"A  c #00008d",
"S  c #00008f",
"D  c #000092",
"F  c #000096",
"G  c #000098",
"H  c #00009b",
"J  c #00009c",
"K  c #00009f",
"L  c #0000a1",
"P  c #0000a5",
"I  c #0000a7",
"U  c #0000a8",
"Y  c #0000ab",
"T  c #0000ad",
"R  c #0000b1",
"E  c #0000b4",
"W  c #0000b7",
"Q  c #0000ba",
"!  c #0000bd",
"~  c #0000bf",
"^  c #0000c2",
"/  c #0000c5",
"(  c #0000c6",
")  c #0000c9",
"_  c #0000cb",
"`  c #0000ce",
"'  c #0000d1",
"]  c #0000d2",
"[  c #0000d5",
"{  c #0000d8",
"}  c #0000da",
"|  c #0000db",
" . c #0000de",
".. c #0000e0",
"X. c #0000e1",
"o. c #0000e3",
"O. c #0000e4",
"+. c #0000e7",
"@. c #0000e9",
"#. c #0000ea",
"$. c #0000ec",
"%. c #0000ed",
"&. c #0000ef",
"*. c #0000f0",
"=. c #0000f2",
"-. c #0000f3",
";. c #0000f5",
":. c #0000f6",
">. c #0000f8",
",. c #0000f9",
"<. c #0000fb",
"1. c #0000fc",
"2. c #0000fe",
"3. c Blue",
"4. c #0101ff",
"5. c #0303ff",
"6. c #0707ff",
"7. c #0e0eff",
"8. c #1515ff",
"9. c #1919ff",
"0. c #2424ff",
"q. c #2828ff",
"w. c #3939ff",
"e. c #3c3cff",
"r. c #4b4bff",
"t. c #5555ff",
"y. c #5e5eff",
"u. c #6d6dff",
"i. c #cf0000",
"p. c #d50000",
"a. c #e90000",
"s. c #ed0000",
"d. c #fa0000",
"f. c #fc0000",
"g. c Red",
"h. c #ff0101",
"j. c #ff0303",
"k. c #ff0404",
"l. c #ff0606",
"z. c #ff0707",
"x. c #ff0909",
"c. c #ff0a0a",
"v. c #ff0c0c",
"b. c #ff0d0d",
"n. c #ff0f0f",
"m. c #ff1010",
"M. c #ff1212",
"N. c #ff1313",
"B. c #ff1515",
"V. c #ff1616",
"C. c #ff1818",
"Z. c #ff1919",
"A. c #ff1b1b",
"S. c #ff1c1c",
"D. c #ff1e1e",
"F. c #ff1f1f",
"G. c #ff2222",
"H. c #ff2424",
"J. c #ff2727",
"K. c #ff2828",
"L. c #ff2b2b",
"P. c #ff3030",
"I. c #ff3131",
"U. c #ff3333",
"Y. c #ff3434",
"T. c #ff3636",
"R. c #ff3737",
"E. c #ff3a3a",
"W. c #ff3c3c",
"Q. c #ff3f3f",
"!. c #ff4343",
"~. c #ff4848",
"^. c #ff4949",
"/. c #ff4b4b",
"(. c #ff4c4c",
"). c #ff5151",
"_. c #ff5555",
"`. c #ff5858",
"'. c #ff5a5a",
"]. c #ff5b5b",
"[. c #ff5d5d",
"{. c #ff6060",
"}. c #ff6363",
"|. c #ff6464",
" X c #ff6969",
".X c #ff6c6c",
"XX c #ff6f6f",
"oX c #ff7070",
"OX c #ff7676",
"+X c #ff7a7a",
"@X c #ff7c7c",
"#X c #ff7e7e",
"$X c #ff7f7f",
"%X c #808080",
"&X c #818181",
"*X c #878080",
"=X c #848484",
"-X c Gray53",
";X c #888888",
":X c #8b8b8b",
">X c #8d8d8d",
",X c #8e8e8e",
"<X c Gray57",
"1X c #929292",
"2X c #939393",
"3X c #959595",
"4X c #979797",
"5X c #9a9a9a",
"6X c #9d9d9d",
"7X c #9f9f9f",
"8X c #a0a0a0",
"9X c Gray63",
"0X c #a2a2a2",
"qX c Gray64",
"wX c #a5a5a5",
"eX c Gray65",
"rX c Gray66",
"tX c #aaaaaa",
"yX c Gray68",
"uX c Gray70",
"iX c #b4b4b4",
"pX c #b9b9b9",
"aX c #ff8181",
"sX c #ff8282",
"dX c #ff8787",
"fX c #ff8a8a",
"gX c #ff8d8d",
"hX c #ff8e8e",
"jX c #ff9191",
"kX c #ff9494",
"lX c #ff9a9a",
"zX c #ff9c9c",
"xX c #c3c3c3",
"cX c Gray79",
"vX c #cbcbcb",
"bX c #d5d5d5",
"nX c #d8d8d8",
"mX c Gray86",
"MX c Gray87",
"NX c Gray88",
"BX c #e1e1e1",
"VX c Gray89",
"CX c #e7e7e7",
"ZX c #e9e9e9",
"AX c #ececec",
"SX c Gray94",
"DX c Gray95",
"FX c Gray96",
"GX c #f6f6f6",
"HX c #f8f8f8",
"JX c #f9f9f9",
"KX c #fbfbfb",
"LX c Gray99",
"PX c #fefefe",
"IX c Gray100",
"UX c None",
/* pixels */
"UXUXUXUXUXUXUXUXUXUXUXUXUXUXUXUXUXUXUXUXUXUXUXUXUXUXUXUXUXUXUXUXUXUXUXUXUXUXUXUXUXUXUXUXUXUXUXUX",
"UXUXUXUXUXUXUXUXUXUXUXUXUXUXUXUXUXUXUXUXUXUXUXUXUXUXUXUXUXUXUXUXUXUXUXUXUXUXUXUXUXUXUXUXUXUXUXUX",
"UXUXUXUXUXUXUXUXUXUXUXUXUXUXUXUXUXUXUXUXUXUXUXUXUXUXUXUXUXUXUXUXUXUXUXUXUXUXUXUXUXUXUXUXUXUXUXUX",
"UXUXUXUXUXUXUXUXUXUXUXUXUXUXUXqX7X4X2X,X,X,X,X,X,X,X,X,X,X:X&Xn c UXUXUXUXUXUXUXUXUXUXUXUXUXUXUX",
"UXUXUXUXUXUXUXUXUXUXUXUXeXeXqX7XkXgXfXaXaXaXaXaXaXaXaXaXaX+XOXoXk h h f UXUXUXUXUXUXUXUXUXUXUXUX",
"UXUXUXUXUXUXUXUXUXUXrXeXqXlXjXdX+XoX X|.}.}.}.}.}.}.}.}.}.}.[.].].].].f s a UXUXUXUXUXUXUXUXUXUX",
"UXUXUXUXUXUXUXUXrXrXqXlXgX$XXX].~.W.T.P.P.P.P.P.P.P.P.P.P.P.P.T.W.!.~.~.~.p u = UXUXUXUXUXUXUXUX",
"UXUXUXUXUXUXUXrXeXzXgX+X}.(.T.H.A.N.b.x.x.x.x.x.x.x.x.x.x.x.b.N.A.G.L.T.W.W.W.$ # UXUXUXUXUXUXUX",
"UXUXUXUXUXqXeXqXkX$X|.~.P.S.N.x.l.j.j.j.j.j.j.j.j.j.j.j.j.j.j.j.l.x.b.A.H.L.P.T.@ O o UXUXUXUXUX",
"UXUXUXUX5X7XlXfXXX).T.S.b.l.l.j.j.j.j.j.j.j.j.j.j.j.j.j.j.j.j.j.j.j.j.l.b.B.G.H.H.S..   UXUXUXUX",
"UXUXUXUX4XkXaX|.!.H.B.x.j.j.j.j.j.j.j.j.j.j.j.j.j.j.j.j.j.j.j.j.j.j.j.j.l.l.N.A.A.N.j.  UXUXUXUX",
"UXUXUX2X,X$X}.E.S.b.l.j.j.j.j.j.j.j.j.j.j.j.j.j.j.j.j.j.j.j.j.j.j.j.j.j.j.j.l.b.b.x.d.    UXUXUX",
"UXUX:X:X$X}.W.S.x.l.j.j.j.j.j.j.j.j.j.j.j.j.j.j.j.j.j.j.j.j.j.j.j.j.j.j.j.j.j.j.l.l.d.a.    UXUX",
"UXUX=X$XXX~.H.b.j.j.j.j.j.j.j.j.j.j.j.j.j.j.j.j.j.j.j.j.j.j.j.j.j.j.j.j.j.j.j.j.j.j.j.s.p.  UXUX",
"UXv b XX_.P.N.l.j.j.j.j.j.j.j.j.j.j.j.j.j.j.j.j.j.j.j.j.j.j.j.j.j.j.j.j.j.j.j.j.j.j.j.s.i.    UX",
"UXh IXIXIXIXIXIXIXIXIXIXIXIXIXIXIXIXIXIXIXIXIXIXIXIXIXIXIXIXIXIXIXIXIXIXIXIXIXIXIXIXKXCXxXqX  UX",
"UXs IXIXIXIXIXIXIXIXIXIXIXIXIXIXIXIXIXIXIXIXIXIXIXIXIXIXIXIXIXIXIXIXIXIXIXIXIXIXIXIXHXNXpX2X  UX",
"UXp IXIXIXIXIXIXIXIXIXIXIXIXIXIXIXIXIXIXIXIXIXIXIXIXIXIXIXIXIXIXIXIXIXIXIXIXIXIXIXIXIXNXuX=X  UX",
"UX= IXIXIXIXIXIXIXIXIXIXIXIXIXIXIXIXIXIXIXIXIXIXIXIXIXIXIXIXIXIXIXIXIXIXIXIXIXIXIXIXHXMXyX&X  UX",
"UX= IXIXIXIXIXIXIXIXIXIXIXIXIXIXIXIXIXIXIXIXIXIXIXIXIXIXIXIXIXIXIXIXIXIXIXIXIXIXIXIXHXMXyX&X  UX",
"UX= IXIXIXIXIXIXIXIXIXIXIXIXIXIXIXIXIXIXIXIXIXIXIXIXIXIXIXIXIXIXIXIXIXIXIXIXIXIXIXIXHXnXrXM   UX",
"UX$ IXIXIXIXIXIXIXIXIXIXIXIXIXIXIXIXIXIXIXIXIXIXIXIXIXIXIXIXIXIXIXIXIXIXIXIXIXIXIXIXFXbXqXb   UX",
"UX+ IXIXIXIXIXIXIXIXIXIXIXIXIXIXIXIXIXIXIXIXIXIXIXIXIXIXIXIXIXIXIXIXIXIXIXIXIXIXIXIXAXcX4Xz   UX",
"UXX IXIXIXIXIXIXIXIXIXIXIXIXIXIXIXIXIXIXIXIXIXIXIXIXIXIXIXIXIXIXIXIXIXIXIXIXIXIXIXFXNXiXn s   UX",
"UX    FXHXHXHXIXIXIXIXIXIXIXIXIXIXIXIXIXIXIXIXIXIXIXIXIXIXIXIXIXIXIXIXIXIXIXIXIXHXAXcX2Xf     UX",
"UXUX  NXZXDXHXIXIXIXIXIXIXIXIXIXIXIXIXIXIXIXIXIXIXIXIXIXIXIXIXIXIXIXIXIXIXIXIXLXDXnXrXz u   UXUX",
"UXUX    | O.-.>.3.3.3.3.3.3.3.3.3.3.3.3.3.3.3.3.3.3.3.3.3.3.3.3.3.3.3.3.3.3.>.:.o.Q t >     UXUX",
"UXUXUX    '  .#.-.:.3.3.3.3.3.3.3.3.3.3.3.3.3.3.3.3.3.3.3.3.3.3.3.3.3.3.3.>.-.o.! Z <     UXUXUX",
"UXUXUXUX  W ! `  .&.:.>.3.3.3.3.3.3.3.3.3.3.3.3.3.3.3.3.3.3.3.3.3.3.3.>.:.#.[ W V 1 -   UXUXUXUX",
"UXUXUXUX    H P Q ' o.&.:.>.3.3.3.3.3.3.3.3.3.3.3.3.3.3.3.3.3.3.3.>.:.&. ./ K 0 - -     UXUXUXUX",
"UXUXUXUXUX      A P ! ' o.&.:.>.3.3.3.3.3.3.3.3.3.3.3.3.3.3.3.>.:.&.o.` U N 2 -       UXUXUXUXUX",
"UXUXUXUXUXUXUX    t A L W _ | O.&.-.:.>.>.3.3.3.3.3.3.3.>.:.&.O.[ ^ P V 5 - -     UXUXUXUXUXUXUX",
"UXUXUXUXUXUXUXUX      0 N D P W ! _ ' | O.-.>.3.3.3.3.>.-.o.` W F r 2 - -       UXUXUXUXUXUXUXUX",
"UXUXUXUXUXUXUXUXUXUX      5 8 e t Z H W ' #.>.3.3.3.3.:.o./ H e < - -       UXUXUXUXUXUXUXUXUXUX",
"UXUXUXUXUXUXUXUXUXUXUXUX      > , 2 0 H / O.>.3.3.3.>.#._ H 5 -         UXUXUXUXUXUXUXUXUXUXUXUX",
"UXUXUXUXUXUXUXUXUXUXUXUXUXUXUX            :.6.6.3.>.-.' L 5       UXUXUXUXUXUXUXUXUXUXUXUXUXUXUX",
"UXUXUXUXUXUXUXUXUXUXUXUXUXUXUXUXUXUXUXUX  8.9.7.3.-.| T 8 -   UXUXUXUXUXUXUXUXUXUXUXUXUXUXUXUXUX",
"UXUXUXUXUXUXUXUXUXUXUXUXUXUXUXUXUXUXUXUX% w.q.7.:.| R e - -   UXUXUXUXUXUXUXUXUXUXUXUXUXUXUXUXUX",
"UXUXUXUXUXUXUXUXUXUXUXUXUXUXUXUXUXUXUXh y.r.0.>.' U 0 - -   UXUXUXUXUXUXUXUXUXUXUXUXUXUXUXUXUXUX",
"UXUXUXUXUXUXUXUXUXUXUXUXUXUXUXUXUXUXUX&Xu.w.>.! A 4 - -   UXUXUXUXUXUXUXUXUXUXUXUXUXUXUXUXUXUXUX",
"UXUXUXUXUXUXUXUXUXUXUXUXUXUXUXUXUXUX2Xu.e.&.L 7 - - -   UXUXUXUXUXUXUXUXUXUXUXUXUXUXUXUXUXUXUXUX",
"UXUXUXUXUXUXUXUXUXUXUXUXUXUXUXUX2X*Xy.9./ r - - -     UXUXUXUXUXUXUXUXUXUXUXUXUXUXUXUXUXUXUXUXUX",
"UXUXUXUXUXUXUXUXUXUXUXUXUXUXn c t.0.| A 1 -       UXUXUXUXUXUXUXUXUXUXUXUXUXUXUXUXUXUXUXUXUXUXUX",
"UXUXUXUXUXUXUXUXUXUX% u u = q.3._ Z         UXUXUXUXUXUXUXUXUXUXUXUXUXUXUXUXUXUXUXUXUXUXUXUXUXUX",
"UXUXUXUXUXUXUXUXUXUXUX              UXUXUXUXUXUXUXUXUXUXUXUXUXUXUXUXUXUXUXUXUXUXUXUXUXUXUXUXUXUX",
"UXUXUXUXUXUXUXUXUXUXUXUXUXUXUXUXUXUXUXUXUXUXUXUXUXUXUXUXUXUXUXUXUXUXUXUXUXUXUXUXUXUXUXUXUXUXUXUX",
"UXUXUXUXUXUXUXUXUXUXUXUXUXUXUXUXUXUXUXUXUXUXUXUXUXUXUXUXUXUXUXUXUXUXUXUXUXUXUXUXUXUXUXUXUXUXUXUX",
"UXUXUXUXUXUXUXUXUXUXUXUXUXUXUXUXUXUXUXUXUXUXUXUXUXUXUXUXUXUXUXUXUXUXUXUXUXUXUXUXUXUXUXUXUXUXUXUX"
};
