/* XPM */
static char *magick[] = {
/* columns rows colors chars-per-pixel */
"46 43 254 2",
"   c #05350e",
".  c #03380e",
"X  c #04380e",
"o  c #04390e",
"O  c #05380f",
"+  c #05390f",
"@  c #053a10",
"#  c #073910",
"$  c #053c10",
"%  c #063d11",
"&  c #063f11",
"*  c #073f12",
"=  c #0f3712",
"-  c #103913",
";  c #004a02",
":  c #004d05",
">  c #004e08",
",  c #004f09",
"<  c #054311",
"1  c #064011",
"2  c #064112",
"3  c #064212",
"4  c #064312",
"5  c #064412",
"6  c #064713",
"7  c #054912",
"8  c #074914",
"9  c #074b14",
"0  c #074c14",
"q  c #074d15",
"w  c #064f14",
"e  c #074e15",
"r  c #074f15",
"t  c #094014",
"y  c #094c16",
"u  c #0c4a18",
"i  c #00500a",
"p  c #00510a",
"a  c #00510b",
"s  c #00510c",
"d  c #00520c",
"f  c #00520d",
"g  c #00520e",
"h  c #00530e",
"j  c #01520f",
"k  c #00540e",
"l  c #005410",
"z  c #015410",
"x  c #015511",
"c  c #015612",
"v  c #035410",
"b  c #025512",
"n  c #025612",
"m  c #025613",
"M  c #035613",
"N  c #035713",
"B  c #035714",
"V  c #045014",
"C  c #075015",
"Z  c #075216",
"A  c #075316",
"S  c #065513",
"D  c #045714",
"F  c #055716",
"G  c #065415",
"H  c #075416",
"J  c #065714",
"K  c #075716",
"L  c #045814",
"P  c #045815",
"I  c #055815",
"U  c #055816",
"Y  c #055916",
"T  c #075815",
"R  c #065916",
"E  c #065917",
"W  c #075817",
"Q  c #075916",
"!  c #075917",
"~  c #075a17",
"^  c #075a18",
"/  c #085417",
"(  c #085517",
")  c #085617",
"_  c #085717",
"`  c #0a5619",
"'  c #085817",
"]  c #085818",
"[  c #085918",
"{  c #085a18",
"}  c #085a19",
"|  c #085b19",
" . c #095b19",
".. c #095b1a",
"X. c #0a5a19",
"o. c #0a5b1a",
"O. c #0b5a1a",
"+. c #0b5b1a",
"@. c #0b5c1b",
"#. c #0c5d1c",
"$. c #0d5d1d",
"%. c #0e5c1c",
"&. c #0e5e1d",
"*. c #0f5e1f",
"=. c #154919",
"-. c #135e1e",
";. c #18541c",
":. c #19561d",
">. c #19571e",
",. c #136021",
"<. c #146123",
"1. c #156224",
"2. c #176326",
"3. c #176426",
"4. c #1b6326",
"5. c #196427",
"6. c #1a6629",
"7. c #1d672c",
"8. c #1d682c",
"9. c #246029",
"0. c #216a2f",
"q. c #2a642f",
"w. c #226b30",
"e. c #236c31",
"r. c #266b30",
"t. c #256d33",
"y. c #276e35",
"u. c #2b6e36",
"i. c #287037",
"p. c #2b7038",
"a. c #2c723a",
"s. c #2f743c",
"d. c #31743c",
"f. c #337640",
"g. c #367943",
"h. c #3a7842",
"j. c #397844",
"k. c #397b45",
"l. c #397b46",
"z. c #3b7a46",
"x. c #3a7c47",
"c. c #3e7b46",
"v. c #3d7e4a",
"b. c #3f7f4c",
"n. c #6f6d55",
"m. c #726f57",
"M. c #78735d",
"N. c #7a7660",
"B. c #40804d",
"V. c #42814e",
"C. c #468352",
"Z. c #498555",
"A. c #4a8454",
"S. c #4b8757",
"D. c #4c8757",
"F. c #4f895a",
"G. c #528759",
"H. c #528a5c",
"J. c #558d60",
"K. c #578f62",
"L. c #5a8f63",
"P. c #5a9165",
"I. c #5c9267",
"U. c #5f9268",
"Y. c #609369",
"T. c #60956b",
"R. c #63976d",
"E. c #66976f",
"W. c #6b9b74",
"Q. c #6b9c74",
"!. c #6e9d76",
"~. c #729f7a",
"^. c #6fa07a",
"/. c #71a07a",
"(. c #74a27d",
"). c #76a47f",
"_. c #77a480",
"`. c #7ba684",
"'. c #7da886",
"]. c #847d6a",
"[. c #8f8977",
"{. c #8b938d",
"}. c #83ac8b",
"|. c #85ad8d",
" X c #87ae8f",
".X c #89ae8e",
"XX c #88af90",
"oX c #8bb192",
"OX c #8db092",
"+X c #8db395",
"@X c #9ca59e",
"#X c #92b699",
"$X c #95b99c",
"%X c #98ba9f",
"&X c #99bb9f",
"*X c #9abaa1",
"=X c #9abca1",
"-X c #9cbba0",
";X c #9cbca2",
":X c #9fbfa5",
">X c #a6998b",
",X c Gray68",
"<X c #a0bea6",
"1X c #a7c3ac",
"2X c #a9c5ae",
"3X c #aac5ae",
"4X c #abc6af",
"5X c #acc7b1",
"6X c #afc9b4",
"7X c #b0cab4",
"8X c #b1cbb6",
"9X c #b2cbb7",
"0X c #b5cdb9",
"qX c #b7cfbc",
"wX c #b8c3bb",
"eX c #bad1bf",
"rX c #bed4c3",
"tX c #c6c6c6",
"yX c #cdcdcd",
"uX c #c2d6c6",
"iX c #c7d9ca",
"pX c #c9dacb",
"aX c #cbdcce",
"sX c #ccd8cf",
"dX c #ceded1",
"fX c Gray83",
"gX c #d7d7d7",
"hX c #d0dfd3",
"jX c Gray85",
"kX c #d4e1d7",
"lX c #d5e3d8",
"zX c #d7e4d9",
"xX c #dae6dd",
"cX c Gray88",
"vX c Gray89",
"bX c #e0e9e1",
"nX c #e6eee8",
"mX c Gray91",
"MX c #e8efe9",
"NX c Gray93",
"BX c #e9f1eb",
"VX c #ebf2ed",
"CX c #eff4f1",
"ZX c #f1f5f1",
"AX c #f3f7f4",
"SX c #f4f4f4",
"DX c #f6f8f6",
"FX c #f8faf7",
"GX c #f9fafa",
"HX c #fbfcfc",
"JX c #fdfdfd",
"KX c #fefefe",
"LX c Gray100",
"PX c None",
/* pixels */
"PXPXPXPXPXPXPXPXPXPXPXPXPXPXPXPXPXPXPXPXPXPXPXPXPXPXPXPXPXPXPXPXPXPXPXPXPXPXPXPXPXPXPXPXPXPX",
"PXPXPXPXPXPXPXPXPXPXPXPXPXPXPX7X2X:X%X%X%X%X%X%X%X%X%X%X%X%X#X|.(.PXPXPXPXPXPXPXPXPXPXPXPXPX",
"PXPXPXPXPXPXPXPXPXPXPXPXqX7X6X1X*XoX}.}.}.}.}.}.}.}.}.}.}.}.'.(.Q.Q.!.R.PXPXPXPXPXPXPXPXPXPX",
"PXPXPXPXPXPXPXPXPXPXeX0X5X=XXX/.L.Z.V.V.B.B.B.B.V.V.V.V.B.V.V.V.D.J.T.I.J.J.PXPXPXPXPXPXPXPX",
"PXPXPXPXPXPXPXPXeX0X5X$X_.J.x.t.2.#.+.^ +.U U +.^ +.^ +.^ +.+.#.3.t.g.V.D.F.Z.b.PXPXPXPXPXPX",
"PXPXPXPXPXPXPXAX7X%X).F.a.2.#.U ^ +.U +.^ +.+.+.+.U +.U +.^ +.^ ^ +.#.3.i.v.b.x.g.PXPXPXPXPX",
"PXPXPXPXPXLXLXCXXXJ.a.2.#.+.^ +.+.^ +.^ +.+.+.U U +.^ +.^ +.^ ^ +.^ ^ +.#.3.e.s.z.g.t.PXPXPX",
"PXPXPXPXLXLXLXnXV.7.@.^ +.^ +.U U +.U +.U U f #.+.^ +.U +.^ ^ +.^ ^ +.^ +.+.#.8.s.a.#.( PXPX",
"PXPXPXPXLXLXLXcX2.+.+.^ ^ +.U +.+.^ ^ +.M > R.!.U U +.U +.U +.U +.^ +.+.^ +.+.#.3.3.+.C PXPX",
"PXPXPXLXLXLXLXzX+.U ^ +.+.U +.^ ^ ^ +.f 4.2XpX4.M +.^ +.^ +.+.M U +.B U ^ ^ U +.^ +.+.H C PX",
"PXPXLXLXLXLXLXkX+.U ^ +.^ +.^ +.+.U M r.dXnXu.k +.U +.U +.U -.U.+.i ,.#.U ^ +.^ ^ +.@.( e u ",
"PXPXLXLXLXLXLXkX+.U ^ ^ +.U +.U +.M ,.xXLXW.: +.^ +.^ +.^ N M iXOXH.7X5.U +.U +.^ +.#.( 8 t ",
"PXLXLXLXLXLXLXkX+.U U +.^ +.^ +.^ i .XLXFXa.M +.^ +.+.^ U #.i.aXLXAXx.M U +.^ ^ ^ ^ +.C 6   ",
"PXLXLXLXLXLXLXkX+.U +.^ +.U +.U M s.DXLXuXU U ' +.^ ^ ^ U G.aXLXLXLXZ.f +.^ +.+.+.^ ^ C <   ",
"PXLXLXLXLXLXLXkX+.U +.+.^ +.^ +.> E.LXLX+Xi ^ +.U +.^ +.+.S -.2XZX-X1Xt.M ^ ^ ^ ^ ^ +.C <   ",
"PXLXLXLXLXLXLXkX+.U +.U +.U +.U f 5XLXLX'.> +.U +.^ ^ +.^ +.: $X<X; M #.U +.+.^ +.+.^ C <   ",
"PXLXLXLXLXLXLXkX+.U +.U +.^ ^ U #.zXLXLX|.> +.^ +.U +.^ +.^ S v.8.U ^ U +.+.U +.^ +.^ C <   ",
"PXLXLXLXLXLXLXkX+.U ^ +.^ ^ +.M 7.BXLXLXrXU U +.^ +.U +.U +.+.M B +.+.^ +.U +.^ +.U +.C <   ",
"PXLXLXLXLXLXLXkX+.U +.^ +.U +.M 6.nXLXLXAXw.M +.+.^ +.^ +.^ ^ +.+.^ +.U ^ +.^ +.^ +.^ C <   ",
"PXLXLXLXLXLXLXkX+.U U +.^ +.+.U +.hXLXLXLXU.: +.U +.U +.U +.^ ^ U +.^ +.+.U +.U ^ ^ +.C <   ",
"PXLXLXLXLXLXLXkX+.U +.+.^ +.U U f *XLXLXLXkX4.M ^ +.^ +.+.U +.^ +.^ +.+.^ +.^ +.+.^ ^ C <   ",
"PXLXLXLXLXLXLXkX+.U +.U +.U +.^ i L.LXLXLXLX1Xi U U +.U ^ +.U +.U +.U U U U +.U U +.+.C <   ",
"PXmXSXLXLXLXLXkX+.U ^ +.^ +.^ +.M 0.BXLXLXLXLX`.f M +.+.U +.+.^ +.^ M ' y.U ^ +.+.U +.C <   ",
"PXPXcXNXAXHXLXkX+.U +.U +.U +.U +.i W.LXLXLXLXLX5Xj.i f M U U M f i d.=Xz.M +.^ ^ +.H 8 +   ",
"PXPXgXcXNXDXLXkX+.U ^ +.^ ^ ^ +.^ U +.7XLXLXLXLXLXDX|.c.w.<.<.0.j.|.GX).i +.+.^ +.' e & +   ",
"PXPXPXgXcXSXLXkX+.U +.^ ^ +.+.U +.+.M H *XLXLXLXLXLXLXLXBXbXbXBXLXLX~.M U +.^ +.+.C 6 + + PX",
"PXPXPXPXjXcXNXsX+.U ^ +.^ +.U +.^ +.^ B f ~.DXLXLXLXLXLXLXLXLXLXnXz.> U ' +.^ ( C 6 + + PXPX",
"PXPXPXPXyXtXyXwX` H ^ ^ +.^ +.^ +.U +.+.U f f.OXkXHXLXLXLXDXrX~.t.f +.+.+.U ( e < + + + PXPX",
"PXPXPXPXPX,X,X@Xy C ( +.^ +.+.^ ^ +.^ +.U ^ M > %.s.T.^.J.y.S > M ^ ^ ^ ( C 7 # + + + PXPXPX",
"PXPXPXPXPXPXPX{.& < 8 C ( ^ ^ +.+.U +.U +.^ U +.B M f i f M U +.+.+.+.C e < + + + PXPXPXPXPX",
"PXPXPXPXPXPXPXPX# . & < 8 e C ( +.^ ^ +.^ +.+.U +.U +.^ ^ +.+.^ ( C e 6 + + + + PXPXPXPXPXPX",
"PXPXPXPXPXPXPXPXPXPX  + + & < 7 e e C C H +.^ +.^ +.^ ^ +.' ( C 8 < # + + + PXPXPXPXPXPXPXPX",
"PXPXPXPXPXPXPXPXPXPXPXPX+ + + + + # & 6 C ( +.+.+.+.+.U ( C 8 & + + + + ].[.PXPXPXPXPXPXPXPX",
"PXPXPXPXPXPXPXPXPXPXPXPXPXPXPX+ + + + < C H U U U U U U C 7 + + + m.n.M.N.PXPXPXPXPXPXPXPXPX",
"PXPXPXPXPXPXPXPXPXPXPXPXPXPXPXPXPXPXPXPX:.q.9.>.:.:.:.:.=.- = [.M.m.PXPXPXPXPXPXPXPXPXPXPXPX",
"PXPXPXPXPXPXPXPXPXPXPXPXPXPXPXPXPXPXPXPXZ.V.0.#.#.+.( e & + + >XPXPXPXPXPXPXPXPXPXPXPXPXPXPX",
"PXPXPXPXPXPXPXPXPXPXPXPXPXPXPXPXPXPXPX'.).F.0.#.+.( e &   + PXPXPXPXPXPXPXPXPXPXPXPXPXPXPXPX",
"PXPXPXPXPXPXPXPXPXPXPXPXPXPXPXPXPXPXPX=X'.C.<.' C 8 # + + PXPXPXPXPXPXPXPXPXPXPXPXPXPXPXPXPX",
"PXPXPXPXPXPXPXPXPXPXPXPXPXPXPXPXPXPX6X#XP.#.C 8 < + + + PXPXPXPXPXPXPXPXPXPXPXPXPXPXPXPXPXPX",
"PXPXPXPXPXPXPXPXPXPXPXPXPXPXPXPXqX6X#XC.C 6 # + + + + PXPXPXPXPXPXPXPXPXPXPXPXPXPXPXPXPXPXPX",
"PXPXPXPXPXPXPXPXPXPXPXPXPXPX7X2X+XC.C <   + + + + PXPXPXPXPXPXPXPXPXPXPXPXPXPXPXPXPXPXPXPXPX",
"PXPXPXPXPXPXPXPXPXPXR.(._.Q.Z.+.6 + + + + + PXPXPXPXPXPXPXPXPXPXPXPXPXPXPXPXPXPXPXPXPXPXPXPX",
"PXPXPXPXPXPXPXPXPXPXPXe 6 & + + + + PXPXPXPXPXPXPXPXPXPXPXPXPXPXPXPXPXPXPXPXPXPXPXPXPXPXPXPX"
};
