/* XPM */
static char *magick[] = {
/* columns rows colors chars-per-pixel */
"48 48 238 2",
"   c Gray0",
".  c #0c0c0c",
"X  c #161616",
"o  c #1b1b1b",
"O  c #272727",
"+  c #2a2a2a",
"@  c Gray18",
"#  c #313131",
"$  c Gray21",
"%  c #373737",
"&  c #393939",
"*  c #3c3c3c",
"=  c Gray24",
"-  c #3f3f3f",
";  c #000051",
":  c #000057",
">  c #000068",
",  c #000075",
"<  c #00007b",
"1  c #00007e",
"2  c #400000",
"3  c #420000",
"4  c #440000",
"5  c #470000",
"6  c #4a0000",
"7  c #4e0000",
"8  c #500000",
"9  c #590000",
"0  c #5a0000",
"q  c #5d0000",
"w  c #620000",
"e  c #630000",
"r  c #6b0000",
"t  c #6c0000",
"y  c #6f0000",
"u  c #710000",
"i  c #720000",
"p  c #740000",
"a  c #750000",
"s  c #780000",
"d  c #7a0000",
"f  c #7d0000",
"g  c #7e0000",
"h  c Gray25",
"j  c Gray26",
"k  c Gray27",
"l  c #464646",
"z  c #494949",
"x  c #515151",
"c  c Gray33",
"v  c #585858",
"b  c #606060",
"n  c Gray39",
"m  c #676767",
"M  c #6d6d6d",
"N  c #6f6f6f",
"B  c Gray45",
"V  c #767676",
"C  c Gray47",
"Z  c #797979",
"A  c #000080",
"S  c #000081",
"D  c #000087",
"F  c #000092",
"G  c #000095",
"H  c #0000a1",
"J  c #0000a2",
"K  c #0000aa",
"L  c #0000ad",
"P  c #0000b3",
"I  c #0000b4",
"U  c #0000b9",
"Y  c #0000c3",
"T  c #0000c9",
"R  c #0000cb",
"E  c #0000cf",
"W  c #0000d5",
"Q  c #0000db",
"!  c #0000dd",
"~  c #0000de",
"^  c #0000e0",
"/  c #0000e1",
"(  c #0000e3",
")  c #0000e7",
"_  c #0000ec",
"`  c #0000ed",
"'  c #0000f0",
"]  c #0000f5",
"[  c #0000f6",
"{  c #0000f8",
"}  c #0000f9",
"|  c #0000fb",
" . c #0000fc",
".. c #0000fe",
"X. c Blue",
"o. c #0101ff",
"O. c #0303ff",
"+. c #0404ff",
"@. c #0606ff",
"#. c #0909ff",
"$. c #0f0fff",
"%. c #1010ff",
"&. c #1212ff",
"*. c #1313ff",
"=. c #1818ff",
"-. c #1b1bff",
";. c #1c1cff",
":. c #2121ff",
">. c #2222ff",
",. c #2727ff",
"<. c #2b2bff",
"1. c #3030ff",
"2. c #3131ff",
"3. c #3333ff",
"4. c #3434ff",
"5. c #3a3aff",
"6. c #3c3cff",
"7. c #3d3dff",
"8. c #4545ff",
"9. c #4646ff",
"0. c #5151ff",
"q. c #5555ff",
"w. c #5858ff",
"e. c #6363ff",
"r. c #6f6fff",
"t. c #800000",
"y. c #830000",
"u. c #840000",
"i. c #860000",
"p. c #890000",
"a. c #8a0000",
"s. c #8d0000",
"d. c #8f0000",
"f. c #920000",
"g. c #960000",
"h. c #980000",
"j. c #9b0000",
"k. c #9c0000",
"l. c #9f0000",
"z. c #a10000",
"x. c #a50000",
"c. c #a70000",
"v. c #a80000",
"b. c #aa0000",
"n. c #ab0000",
"m. c #ad0000",
"M. c #b10000",
"N. c #b30000",
"B. c #b40000",
"V. c #b60000",
"C. c #b70000",
"Z. c #b90000",
"A. c #ba0000",
"S. c #bd0000",
"D. c #bf0000",
"F. c #c20000",
"G. c #c50000",
"H. c #c60000",
"J. c #c90000",
"K. c #cb0000",
"L. c #ce0000",
"P. c #d10000",
"I. c #d20000",
"U. c #d50000",
"Y. c #d80000",
"T. c #da0000",
"R. c #db0000",
"E. c #de0000",
"W. c #e00000",
"Q. c #e10000",
"!. c #e30000",
"~. c #e40000",
"^. c #e70000",
"/. c #e90000",
"(. c #ea0000",
"). c #ec0000",
"_. c #ed0000",
"`. c #ef0000",
"'. c #f00000",
"]. c #f20000",
"[. c #f30000",
"{. c #f50000",
"}. c #f60000",
"|. c #f80000",
" X c #f90000",
".X c #fb0000",
"XX c #fc0000",
"oX c #fe0000",
"OX c Red",
"+X c #ff0101",
"@X c #ff0303",
"#X c #ff0404",
"$X c #ff0707",
"%X c #ff0d0d",
"&X c #ff0f0f",
"*X c #ff1515",
"=X c #ff1818",
"-X c #ff1919",
";X c #ff2121",
":X c #ff2525",
">X c #ff2727",
",X c #ff2828",
"<X c #ff3939",
"1X c #ff3c3c",
"2X c #ff4b4b",
"3X c #ff5555",
"4X c #ff5d5d",
"5X c #ff5e5e",
"6X c #ff6767",
"7X c #ff7373",
"8X c #818181",
"9X c Gray51",
"0X c #848484",
"qX c #888888",
"wX c #8b8b8b",
"eX c #8d8d8d",
"rX c #8e8e8e",
"tX c Gray57",
"yX c #939393",
"uX c #979797",
"iX c #9a9a9a",
"pX c Gray61",
"aX c #9d9d9d",
"sX c #9f9f9f",
"dX c #a0a0a0",
"fX c #a2a2a2",
"gX c Gray64",
"hX c #a5a5a5",
"jX c Gray65",
"kX c Gray66",
"lX c #d5d5d5",
"zX c #e9e9e9",
"xX c #ececec",
"cX c #f9f9f9",
"vX c #fbfbfb",
"bX c Gray99",
"nX c Gray100",
"mX c None",
/* pixels */
"mXmXmXmXmXmXmXmXmXmXmXmXmXmXmXmXmXmXmXmXmXmXmXmXmXmXmXmXmXmXmXmXmXmXmXmXmXmXmXmXmXmXmXmXmXmXmXmX",
"mXmXmXmXmXmXmXmXmXmXmXmXmXmXmXmXmXmXmXmXmXmXmXmXmXmXmXmXmXmXmXmXmXmXmXmXmXmXmXmXmXmXmXmXmXmXmXmX",
"mXmXmXmXmXmXmXmXmXmXmXmXmXmXmXmXmXmXmXmXmXmXmXmXmXmXmXmXmXmXmXmXmXmXmXmXmXmXmXmXmXmXmXmXmXmXmXmX",
"mXmXmXmXmXmXmXmXmXmXmXmXmXmXmXgXsXuXyXrXrXrXrXrXrXrXrXrXrXwX8XC N mXmXmXmXmXmXmXmXmXmXmXmXmXmXmX",
"mXmXmXmXmXmXmXmXmXmXmXmXjXjXgXsXnXnXnXnXnXnXnXnXnXnXnXnXnXnXnXnXm b b v mXmXmXmXmXmXmXmXmXmXmXmX",
"mXmXmXmXmXmXmXmXmXmXkXjXgXnXnXnXnXnXnXnXnXnXnXnXnXnXnXnXnXnXnXnXnXnXnXc x z mXmXmXmXmXmXmXmXmXmX",
"mXmXmXmXmXmXmXmXkXkXgXnXnXnXnXnXnXnXnXnXnXnXnXnXnXnXnXnXnXnXnXnXnXnXnXnXnXl h - mXmXmXmXmXmXmXmX",
"mXmXmXmXmXmXmXkXjXnXnXnXnXnXnXnXnXnXnXnXnXnXnXnXnXnXnXnXnXnXnXnXnXnXnXnXnXnXnX$ # mXmXmXmXmXmXmX",
"mXmXmXmXmXgXjXgXnXnXnXnXnXnXnXnXnXnXnXnXnXnXnXnXnXnXnXnXnXnXnXnXnXnXnXnXnXnXnXnX@ O o mXmXmXmXmX",
"mXmXmXmXiXsXnXnXnXnXnXnXnXnXnXnXnXnXnXnXnXnXnXnXnXnXnXnXnXnXnXnXnXnXnXnXnXnXnXnXnXnX.   mXmXmXmX",
"mXmXmXmXuXnXnXnXnXnXnXnX#XXXXXXXXXXXXXnXnXXXXXXXXXXXXXXXnXnXnXnXnXnXnXnXnXnXnXnXnXnXnX  mXmXmXmX",
"mXmXmXyXrXnXnXnXnXnXnXnXXXXXXXXXXXXXXXnXnXXXXXXXXXXXXXXXnXnXnXnXnXnXnXnXnXnXnXnXnXnXvX    mXmXmX",
"mXmXwXwXnXnXnXnXnXnXnXnXXXXXXXXXnXnXnXnXnXnXnXnXXXXXXXXXnXnXnXnXnXnXnXnXnXnXnXnXnXnXvXzX    mXmX",
"mXmX0XnXnXnXnXnXnXnXnXnXXXXXXXXXnXnXnXnXnXnXnXnXXXXXXXXXnXnXnXnXnXnXnXnXnXnXnXnXnXnXnXxXlX  mXmX",
"mXB V r.q.1.*.@.O.O.O.nXXXXXXXXXXXXXXXnXnXXXXXXXXXXXXXXXnXO.O.O.O.O.O.O.O.O.O.O.O.O.O._ E     mX",
"mXb e.w.7.-.#.O.O.O.O.nXXXXXXXXXXXXXXXnXnXXXXXXXXXXXXXXXnXO.O.O.O.O.O.O.O.O.O.O.O.O.O.) Y J   mX",
"mXx 0.9.<.$.O.O.O.O.O.nXXXXXXXnXnXnXnXnXnXnXnXnXnXXXXXXXnXO.O.O.O.O.O.O.O.O.O.O.O.O.{ ( U F   mX",
"mXl 9.5.:.@.O.O.O.O.O.nXXXXXXXnXnXnXnXnXnXnXnXnXnXXXXXXXnXO.O.O.O.O.O.O.O.O.O.O.O.O.{ ( P D   mX",
"mX- 7.4.;.@.O.O.O.O.O.nXXXXXXXXXXXXXXXnXnXXXXXXXXXXXXXXXnXO.O.O.O.O.O.O.O.O.O.O.O.O.{ ~ L A   mX",
"mX- 7.1.;.@.O.O.O.O.O.nXXXXXXXXXXXXXXXnXnXXXXXXXXXXXXXXXnXO.O.O.O.O.O.O.O.O.O.O.O.O.{ ~ L A   mX",
"mX- 5.1.-.@.O.O.O.O.O.O.nXXXXXXXXXXXXXnXnXXXXXXXXXXXXXnXO.O.O.O.O.O.O.O.O.O.O.O.O.O.{ Q K 1   mX",
"mX$ 1.<.-.O.O.O.O.O.O.O.nXXXXXXXXXO.O.O.O.O.O.XXXXXXXXnXO.O.O.O.O.O.O.O.O.O.O.O.O.O.] W J ,   mX",
"mX+ ,.:.*.O.O.O.O.O.O.O.O.nXXXXXO.O.O.O.O.O.O.O.XXXXnXO.O.O.O.O.O.O.O.O.O.O.O.O.O.O._ T G >   mX",
"mXX *.*.@.O.O.O.O.O.O.O.O.O.nXO.O.O.O.O.O.O.O.O.O.nXO.O.O.O.O.O.O.O.O.O.O.O.O.O.O.] ( I < ;   mX",
"mX    ] { { { O.O.O.O.O.O.O.O.nXO.O.O.O.O.O.O.O.nXO.O.O.O.O.O.O.O.O.O.O.O.O.O.O.{ _ T F :     mX",
"mXmX  !./.'..XXXXXXXXXXXXXXXXXXXnXO.O.O.O.O.O.nXXXXXXXXXXXXXXXXXXXXXXXXXXXXXXXXX'.Y.v.r 2   mXmX",
"mXmX    Y./.'..XXXXXXXXXXXXXXXXXXXnXO.O.O.O.nXXXXXXXXXXXXXXXXXXXXXXXXXXXXXXX.X}.!.Z.f 5     mXmX",
"mXmXmX    P.R./.'..XXXXXXXXXXXXXXXXXnXO.O.nXXXXXXXXXXXXXXXXXXXXXXXXXXXXXXX.X'.!.S.a.7     mXmXmX",
"mXmXmXmX  V.S.L.R.`.}..XXXXXXXXXXXXXXXnXnXXXXXXXXXXXXXXXXXXXXXXXXXXXXX.X}./.U.V.u.8 2   mXmXmXmX",
"mXmXmXmX    j.x.Z.P.!.`..XXXXXXXXXXXXXXXXXXXXXXXXXXXXXXXXXXXXXXXXX.X.X`.R.G.k.u 2 2     mXmXmXmX",
"mXmXmXmXmX      s.x.S.P.!.`.}.XXXXXXXXXXXXXXXXXXXXXXXXXXXXXXXX.X}.`.!.L.m.t.9 2       mXmXmXmXmX",
"mXmXmXmXmXmXmX    f s.z.V.K.R.~.'.}.}..X.XXXXXXXXXXXXXXXXX}.'.~.U.F.x.u.w 2 2     mXmXmXmXmXmXmX",
"mXmXmXmXmXmXmXmX      u t.f.x.V.S.K.P.Y.~.'..XXXXXXXXX.X'.!.L.V.g.d 9 2 2       mXmXmXmXmXmXmXmX",
"mXmXmXmXmXmXmXmXmXmX      w t a f a.j.N.P./..XXXXXXXXX}.!.G.k.a 7 2 2       mXmXmXmXmXmXmXmXmXmX",
"mXmXmXmXmXmXmXmXmXmXmXmX      5 6 9 u j.G.~.XXXXXXXX.X/.K.j.w 2         mXmXmXmXmXmXmXmXmXmXmXmX",
"mXmXmXmXmXmXmXmXmXmXmXmXmXmXmX            }.#X#X#XXX'.P.z.w       mXmXmXmXmXmXmXmXmXmXmXmXmXmXmX",
"mXmXmXmXmXmXmXmXmXmXmXmXmXmXmXmXmXmXmXmX  *X-X&XXX}.Y.m.t 2   mXmXmXmXmXmXmXmXmXmXmXmXmXmXmXmXmX",
"mXmXmXmXmXmXmXmXmXmXmXmXmXmXmXmXmXmXmXmX& <X,X&X}.Y.N.a 2 2   mXmXmXmXmXmXmXmXmXmXmXmXmXmXmXmXmX",
"mXmXmXmXmXmXmXmXmXmXmXmXmXmXmXmXmXmXmXb 4X2X>X.XP.v.u 2 2   mXmXmXmXmXmXmXmXmXmXmXmXmXmXmXmXmXmX",
"mXmXmXmXmXmXmXmXmXmXmXmXmXmXmXmXmXmXmX8X6X<X.XS.s.q 2 2   mXmXmXmXmXmXmXmXmXmXmXmXmXmXmXmXmXmXmX",
"mXmXmXmXmXmXmXmXmXmXmXmXmXmXmXmXmXmXyX7X1X`.z.r 2 2 2   mXmXmXmXmXmXmXmXmXmXmXmXmXmXmXmXmXmXmXmX",
"mXmXmXmXmXmXmXmXmXmXmXmXmXmXmXmXyX8X4X-XG.a 2 2 2     mXmXmXmXmXmXmXmXmXmXmXmXmXmXmXmXmXmXmXmXmX",
"mXmXmXmXmXmXmXmXmXmXmXmXmXmXC N 3X;XY.s.8 2       mXmXmXmXmXmXmXmXmXmXmXmXmXmXmXmXmXmXmXmXmXmXmX",
"mXmXmXmXmXmXmXmXmXmX& h h - >XXXK.a.        mXmXmXmXmXmXmXmXmXmXmXmXmXmXmXmXmXmXmXmXmXmXmXmXmXmX",
"mXmXmXmXmXmXmXmXmXmXmX              mXmXmXmXmXmXmXmXmXmXmXmXmXmXmXmXmXmXmXmXmXmXmXmXmXmXmXmXmXmX",
"mXmXmXmXmXmXmXmXmXmXmXmXmXmXmXmXmXmXmXmXmXmXmXmXmXmXmXmXmXmXmXmXmXmXmXmXmXmXmXmXmXmXmXmXmXmXmXmX",
"mXmXmXmXmXmXmXmXmXmXmXmXmXmXmXmXmXmXmXmXmXmXmXmXmXmXmXmXmXmXmXmXmXmXmXmXmXmXmXmXmXmXmXmXmXmXmXmX",
"mXmXmXmXmXmXmXmXmXmXmXmXmXmXmXmXmXmXmXmXmXmXmXmXmXmXmXmXmXmXmXmXmXmXmXmXmXmXmXmXmXmXmXmXmXmXmXmX"
};
