/* XPM */
static char *magick[] = {
/* columns rows colors chars-per-pixel */
"46 43 253 2",
"   c #00009e",
".  c #0000a2",
"X  c #0000a6",
"o  c #0000af",
"O  c #0000b2",
"+  c #0000b4",
"@  c #0000ba",
"#  c #0000bc",
"$  c #0000c7",
"%  c #0000cd",
"&  c #0000d7",
"*  c #0000da",
"=  c #0000db",
"-  c #0000e0",
";  c #0000e3",
":  c #0000e7",
">  c #0000ed",
",  c #0000f0",
"<  c #0000f5",
"1  c #0000f6",
"2  c #0000f7",
"3  c #0000f8",
"4  c #0000f9",
"5  c #0000fa",
"6  c #0000fc",
"7  c #0000fd",
"8  c #0000fe",
"9  c Blue",
"0  c #0101ff",
"q  c #0303ff",
"w  c #0404ff",
"e  c #0606ff",
"r  c #0909ff",
"t  c #0a0aff",
"y  c #0c0cff",
"u  c #0d0dff",
"i  c #1212ff",
"p  c #1b1bff",
"a  c #1e1eff",
"s  c #2121ff",
"d  c #2828ff",
"f  c #2b2bff",
"g  c #3030ff",
"h  c #3434ff",
"j  c #3939ff",
"k  c #3d3dff",
"l  c #4242ff",
"z  c #4343ff",
"x  c #4f4fff",
"c  c #5252ff",
"v  c #5b5bff",
"b  c #6969ff",
"n  c #7676ff",
"m  c #9e0000",
"M  c #a10000",
"N  c #a60000",
"B  c #a70000",
"V  c #a80000",
"C  c #a90000",
"Z  c #ac0000",
"A  c #ad0000",
"S  c #ae0000",
"D  c #b00000",
"F  c #b10000",
"G  c #b20000",
"H  c #b40000",
"J  c #b70000",
"K  c #b80000",
"L  c #bc0000",
"P  c #bd0000",
"I  c #be0000",
"U  c #bf0000",
"Y  c #aa3131",
"T  c #af3232",
"R  c #c00000",
"E  c #c40000",
"W  c #c60000",
"Q  c #c80000",
"!  c #ca0000",
"~  c #cc0000",
"^  c #cf0000",
"/  c #d00000",
"(  c #d10000",
")  c #d20000",
"_  c #d30000",
"`  c #d40000",
"'  c #d50000",
"]  c #dd0000",
"[  c #df0000",
"{  c #e00000",
"}  c #e10000",
"|  c #e20000",
" . c #e30000",
".. c #e40000",
"X. c #e60000",
"o. c #e80000",
"O. c #e90000",
"+. c #eb0000",
"@. c #ec0000",
"#. c #ee0000",
"$. c #f10000",
"%. c #f20000",
"&. c #f30000",
"*. c #f40000",
"=. c #f50000",
"-. c #f60000",
";. c #f70000",
":. c #f80000",
">. c #f90000",
",. c #fb0000",
"<. c #fc0000",
"1. c #fd0000",
"2. c #fe0000",
"3. c Red",
"4. c #ff0101",
"5. c #ff0303",
"6. c #ff0404",
"7. c #ff0606",
"8. c #ff0707",
"9. c #ff0909",
"0. c #ff0a0a",
"q. c #ff0c0c",
"w. c #ff0d0d",
"e. c #ff0f0f",
"r. c #ff1515",
"t. c #ff1818",
"y. c #ff1b1b",
"u. c #ff1c1c",
"i. c #ff1e1e",
"p. c #ff1f1f",
"a. c #ff2222",
"s. c #ff2424",
"d. c #ff2525",
"f. c #ff2727",
"g. c #ff2d2d",
"h. c #ff2e2e",
"j. c #ff3030",
"k. c #ff3636",
"l. c #ff3939",
"z. c #ff3a3a",
"x. c #ff3c3c",
"c. c #ff3f3f",
"v. c #ff4040",
"b. c #ff4848",
"n. c #ff4b4b",
"m. c #ff4c4c",
"M. c #ff5151",
"N. c #ff5555",
"B. c #ff5a5a",
"V. c #ff5b5b",
"C. c #ff5d5d",
"Z. c #ff6060",
"A. c #ff6363",
"S. c #ff6666",
"D. c #ff6c6c",
"F. c #ff7272",
"G. c #ff7b7b",
"H. c #ff7e7e",
"J. c #ff7f7f",
"K. c Gray52",
"L. c #868686",
"P. c #888888",
"I. c #898989",
"U. c Gray54",
"Y. c #8b8b8b",
"T. c #8e8e8e",
"R. c Gray56",
"E. c Gray57",
"W. c #939393",
"Q. c Gray58",
"!. c Gray59",
"~. c #979797",
"^. c Gray60",
"/. c #9b9b9b",
"(. c Gray62",
"). c #a0a0a0",
"_. c #a2a2a2",
"`. c Gray64",
"'. c Gray66",
"]. c #acacac",
"[. c #aeaeae",
"{. c #afafaf",
"}. c Gray69",
"|. c #b1b1b1",
" X c #b2b2b2",
".X c Gray70",
"XX c #b4b4b4",
"oX c Gray71",
"OX c #b7b7b7",
"+X c #b9b9b9",
"@X c Gray73",
"#X c #bcbcbc",
"$X c Gray74",
"%X c #bebebe",
"&X c Gray75",
"*X c #ff8282",
"=X c #ff8888",
"-X c #ff8b8b",
";X c #ff8e8e",
":X c #ff9696",
">X c #ff9797",
",X c #ff9999",
"<X c #ff9c9c",
"1X c #ff9f9f",
"2X c #ffa3a3",
"3X c #ffa6a6",
"4X c #ffa8a8",
"5X c #ffabab",
"6X c #c0c0c0",
"7X c #c3c3c3",
"8X c Gray77",
"9X c #c6c6c6",
"0X c #c8c8c8",
"qX c #cacaca",
"wX c #cbcbcb",
"eX c Gray80",
"rX c #cdcdcd",
"tX c Gray82",
"yX c #d3d3d3",
"uX c #d5d5d5",
"iX c Gray84",
"pX c #d7d7d7",
"aX c #d8d8d8",
"sX c Gray85",
"dX c #dadada",
"fX c gainsboro",
"gX c #dddddd",
"hX c #dfdfdf",
"jX c Gray88",
"kX c #e1e1e1",
"lX c #e2e2e2",
"zX c Gray89",
"xX c #e4e4e4",
"cX c #e6e6e6",
"vX c #e7e7e7",
"bX c #e9e9e9",
"nX c #eaeaea",
"mX c Gray92",
"MX c Gray93",
"NX c #eeeeee",
"BX c #f1f1f1",
"VX c Gray95",
"CX c #f4f4f4",
"ZX c #f6f6f6",
"AX c Gray97",
"SX c #f8f8f8",
"DX c Gray98",
"FX c #fbfbfb",
"GX c Gray99",
"HX c #fdfdfd",
"JX c #fefefe",
"KX c Gray100",
"LX c None",
/* pixels */
"LXLXLXLXLXLXLXLXLXLXLXLXLXLXhXhXaXiXiXiXiXiXiXiXiXiXiXiXiXyXwX9XLXLXLXLXLXLXLXLXLXLXLXLXLXLX",
"LXLXLXLXLXLXLXLXLXLXLXkXkXhXhX2X:X;X-X-X-X-X-X-X-X-X-X-X-XJ.F.7X9X9X&XLXLXLXLXLXLXLXLXLXLXLX",
"LXLXLXLXLXLXLXLXLXkXkXkX3X1X;XJ.D.Z.B.B.B.B.B.B.B.B.B.B.B.N.N.B.Z.Z.&X&X@XLXLXLXLXLXLXLXLXLX",
"LXLXLXLXLXLXLXkXkXkX3X:XJ.S.n.k.s.t.t.t.t.t.t.t.t.t.t.t.t.t.a.j.x.b.n.m.@XXX.XLXLXLXLXLXLXLX",
"LXLXLXLXLXLXkXkX4X:XG.B.z.s.r.q.7.3.3.3.3.3.3.3.3.3.3.3.3.3.9.q.r.a.h.z.v.z..X{.LXLXLXLXLXLX",
"LXLXLXLXkXkXhX1X*XC.z.p.q.7.3.3.3.3.3.3.3.3.3.3.3.3.3.3.3.3.3.3.3.7.q.p.s.h.h..X{.'.LXLXLXLX",
"LXLXLXaXhXKXKXKXKXKXKXKXKXKXKXKXKXKXKXKXKXKXKXKXKXKXKXKXKXKXKXKXKXKXKXKXKXKXKXKXKX(./.LXLXLX",
"LXLXLXaXKXKXKXKXKXKXKXKXKXKXKXKXKXKXKXKXKXKXKXKXKXKXKXKXKXKXKXKXKXKXKXKXKXKXKXKXKXAXQ.LXLXLX",
"LXLXaXiXKXKXKXKXKXKXKXKXKXKXKXKXKXKXKXKXKXKXKXKXKXKXKXKXKXKXKXKXKXKXKXKXKXKXKXKXKXAX/.Q.LXLX",
"LXiXiXKXKXKXKXKXKXKXKXKXKXKXKXKXKXKXKXKXKXKXKXKXKXKXKXKXKXKXKXKXKXKXKXKXKXKXKXKXKXKXAXQ.Q.LX",
"LXyXKXKXKXKXKXKXKXKXKXKXKXKXKXKXKXKXKXKXKXKXKXKXKXKXKXKXKXKXKXKXKXKXKXKXKXKXKXKXKXKXFXnXQ.LX",
"wXrXn x s r 0 0 0 0 0 0 0 0 0 0 0 0 0 0 0 0 0 0 0 0 0 0 0 0 0 0 0 0 0 0 0 0 0 0 0 0 5 : E.T.",
"7Xb v g u 0 0 0 0 0 0 0 0 0 0 0 0 0 0 0 0 0 0 0 0 0 0 0 0 0 0 0 0 0 0 0 0 0 0 0 0 0 5 ; $ U.",
"@Xc l p e 0 0 0 0 0 0 0 0 0 0 0 0 0 0 0 0 0 0 0 0 0 0 0 0 0 0 0 0 0 0 0 0 0 0 0 0 0 5 = # U.",
"XXl h i 0 0 0 0 0 0 0 0 0 0 0 0 0 0 0 0 0 0 0 0 0 0 0 0 0 0 0 0 0 0 0 0 0 0 0 0 0 0 5 * + K.",
".Xk g u 0 0 0 0 0 0 0 0 0 0 0 0 0 0 0 0 0 0 0 0 0 0 0 0 0 0 0 0 0 0 0 0 0 0 0 0 0 0 1 * O K.",
".Xk g u 0 0 0 0 0 0 0 0 0 0 0 0 0 0 0 0 0 0 0 0 0 0 0 0 0 0 0 0 0 0 0 0 0 0 0 0 0 0 1 * O K.",
".Xk g u 0 0 0 0 0 0 0 0 0 0 0 0 0 0 0 0 0 0 0 0 0 0 0 0 0 0 0 0 0 0 0 0 0 0 0 0 0 0 1 * O K.",
".Xj f u 0 0 0 0 0 0 0 0 0 0 0 0 0 0 0 0 0 0 0 0 0 0 0 0 0 0 0 0 0 0 0 0 0 0 0 0 0 0 1 & o K.",
"].f a r 0 0 0 0 0 0 0 0 0 0 0 0 0 0 0 0 0 0 0 0 0 0 0 0 0 0 0 0 0 0 0 0 0 0 0 0 0 0 , % X K.",
"_.r r 0 0 0 0 0 0 0 0 0 0 0 0 0 0 0 0 0 0 0 0 0 0 0 0 0 0 0 0 0 0 0 0 0 0 0 0 0 0 5 ; @   K.",
"/./.1 5 5 0 0 0 0 0 0 0 0 0 0 0 0 0 0 0 0 0 0 0 0 0 0 0 0 0 0 0 0 0 0 0 0 0 0 0 5 > % . K.K.",
"LXQ.vXMXAXKXKXKXKXKXKXKXKXKXKXKXKXKXKXKXKXKXKXKXKXKXKXKXKXKXKXKXKXKXKXKXKXKXKXKXVXaX{.(.K.LX",
"LXQ.Q.vXVXFXKXKXKXKXKXKXKXKXKXKXKXKXKXKXKXKXKXKXKXKXKXKXKXKXKXKXKXKXKXKXKXKXKXFXkX&X(.K.K.LX",
"LXLXE.Q.nXAXAXFXKXKXKXKXKXKXKXKXKXKXKXKXKXKXKXKXKXKXKXKXKXKXKXKXKXKXKXKXKXGXAXnXwX_.K.K.LXLX",
"LXLXLXE.aXhXvXVXFXKXKXKXKXKXKXKXKXKXKXKXKXKXKXKXKXKXKXKXKXKXKXKXKXKXKXKXFXVXkX9X_.(.K.LXLXLX",
"LXLXLXE.T.&XwXaXMXAXFXKXKXKXKXKXKXKXKXKXKXKXKXKXKXKXKXKXKXKXKXKXKXKXKXAXnXiXXX(.(.K.K.LXLXLX",
"LXLXLXLXU.U.U.R / } #.;.:.3.3.3.3.3.3.3.3.3.3.3.3.3.3.3.3.3.3.3.3.;.#.] E B m K.K.K.LXLXLXLX",
"LXLXLXLXLXLXU.U.H I ~ } o.;.:.:.3.3.3.3.3.3.3.3.3.3.3.3.3.3.:.;.#.] Q A m m K.K.LXLXLXLXLXLX",
"LXLXLXLXLXLXLXU.K.K.A K E / } o.&.&.;.;.:.3.3.3.3.3.3.:.;.#.} / I V m m K.K.K.LXLXLXLXLXLXLX",
"LXLXLXLXLXLXLXLXLXK.K.K.m B H I E Q ` ..&.3.3.3.3.3.3.;...~ F m m m K.K.K.LXLXLXLXLXLXLXLXLX",
"LXLXLXLXLXLXLXLXLXLXLXK.K.K.K.m m m F / #.3.3.3.3.3.:.o.Q M m K.K.K.K.LXLXLXLXLXLXLXLXLXLXLX",
"LXLXLXLXLXLXLXLXLXLXLXLXLXLXK.K.K.K.U.E.;.7.7.3.3.3.&./ V K.K.K.LXLXLXLXLXLXLXLXLXLXLXLXLXLX",
"LXLXLXLXLXLXLXLXLXLXLXLXLXLXLXLXLXLXLX/.p.p.9.3.3.;.} H m K.LXLXLXLXLXLXLXLXLXLXLXLXLXLXLXLX",
"LXLXLXLXLXLXLXLXLXLXLXLXLXLXLXLXLXLXLX@Xm.h.q.3.;.} I m Y K.LXLXLXLXLXLXLXLXLXLXLXLXLXLXLXLX",
"LXLXLXLXLXLXLXLXLXLXLXLXLXLXLXLXLXLXrX,XZ.h.3.&.} I m Y K.LXLXLXLXLXLXLXLXLXLXLXLXLXLXLXLXLX",
"LXLXLXLXLXLXLXLXLXLXLXLXLXLXLXLXLXLXiX*XM.9.o./ F m Y K.LXLXLXLXLXLXLXLXLXLXLXLXLXLXLXLXLXLX",
"LXLXLXLXLXLXLXLXLXLXLXLXLXLXLXLXLXhX4XB.3./ F m m Y K.LXLXLXLXLXLXLXLXLXLXLXLXLXLXLXLXLXLXLX",
"LXLXLXLXLXLXLXLXLXLXLXLXLXLXLXhXhX2Xx.} A m m Y K.K.LXLXLXLXLXLXLXLXLXLXLXLXLXLXLXLXLXLXLXLX",
"LXLXLXLXLXLXLXLXLXLXLXLXLXaXiX1Xx.o.H m Y K.K.K.LXLXLXLXLXLXLXLXLXLXLXLXLXLXLXLXLXLXLXLXLXLX",
"LXLXLXLXLXLXLXLXLXXX&X&X@XS.3./ T K.K.K.K.LXLXLXLXLXLXLXLXLXLXLXLXLXLXLXLXLXLXLXLXLXLXLXLXLX",
"LXLXLXLXLXLXLXLXLXLXQ.Q.T.U.K.K.K.LXLXLXLXLXLXLXLXLXLXLXLXLXLXLXLXLXLXLXLXLXLXLXLXLXLXLXLXLX",
"LXLXLXLXLXLXLXLXLXLXLXLXLXLXLXLXLXLXLXLXLXLXLXLXLXLXLXLXLXLXLXLXLXLXLXLXLXLXLXLXLXLXLXLXLXLX"
};
