/* XPM */
static char *magick[] = {
/* columns rows colors chars-per-pixel */
"48 48 256 2",
"   c Gray0",
".  c #0c0c0c",
"X  c #1b1b1b",
"o  c #340c00",
"O  c #360c00",
"+  c #390d00",
"@  c #3c0e00",
"#  c #3f0e00",
"$  c #272727",
"%  c Gray18",
"&  c #323232",
"*  c #343434",
"=  c #373737",
"-  c #393939",
";  c Gray24",
":  c #420f00",
">  c #441000",
",  c #4b1200",
"<  c #401918",
"1  c #551400",
"2  c #5c1500",
"3  c #611600",
"4  c #631700",
"5  c #641700",
"6  c #691800",
"7  c #6a1900",
"8  c #6e1900",
"9  c #721b00",
"0  c #761b00",
"q  c #7a1c00",
"w  c #7f1d00",
"e  c #6a2a29",
"r  c Gray25",
"t  c #434343",
"y  c Gray27",
"u  c Gray28",
"i  c #4c4c4c",
"p  c #4e4e4e",
"a  c #594848",
"s  c #535353",
"d  c #5a5a5a",
"f  c Gray37",
"g  c #626262",
"h  c #676767",
"j  c #6c6c6c",
"k  c Gray44",
"l  c Gray45",
"z  c Gray46",
"x  c Gray47",
"c  c #7c7c7c",
"v  c Gray50",
"b  c #309900",
"n  c #309a00",
"m  c #319a01",
"M  c #329b03",
"N  c #339c04",
"B  c #359c06",
"V  c #369d07",
"C  c #379e09",
"Z  c #389e0a",
"A  c #3a9f0c",
"S  c #3b9f0d",
"D  c #309a30",
"F  c #3fa112",
"G  c #3fa213",
"H  c #598d2c",
"J  c #42a316",
"K  c #43a418",
"L  c #46a51b",
"P  c #47a51c",
"I  c #49a61f",
"U  c #4ca722",
"Y  c #4da824",
"T  c #4ea925",
"R  c #50aa28",
"E  c #52ab2a",
"W  c #55ac2d",
"Q  c #57ad30",
"!  c #5aaf34",
"~  c #5caf36",
"^  c #5eb139",
"/  c #60982f",
"(  c #619a30",
")  c #629a31",
"_  c #639b32",
"`  c #639c33",
"'  c #52ae52",
"]  c #68b545",
"[  c #6bb749",
"{  c #6eb84d",
"}  c #78a94e",
"|  c #74bb54",
" . c #75bc55",
".. c #77bc57",
"X. c #77bd58",
"o. c #7bbf5d",
"O. c #62d032",
"+. c #61cf61",
"@. c #63d063",
"#. c #72d472",
"$. c #831e00",
"%. c #851f00",
"&. c #8d2100",
"*. c #912200",
"=. c #922200",
"-. c #952200",
";. c #992400",
":. c #9d2500",
">. c #a12500",
",. c #a32600",
"<. c #a52600",
"1. c #a92700",
"2. c #ad2800",
"3. c #b12900",
"4. c #b22900",
"5. c #b32a00",
"6. c #b42a00",
"7. c #b72a00",
"8. c #b82b00",
"9. c #bb2b00",
"0. c #be2c00",
"q. c #9f6063",
"w. c #a56466",
"e. c #aa6769",
"r. c #bc7274",
"t. c #c02c00",
"y. c #c32d00",
"u. c #c42e00",
"i. c #c52e00",
"p. c #c72e00",
"a. c #c82e00",
"s. c #ca2f00",
"d. c #cc2f00",
"f. c #cd2f00",
"g. c #ce3000",
"h. c #cf3000",
"j. c #cf3101",
"k. c #d03304",
"l. c #d03607",
"z. c #d13709",
"x. c #d23c0f",
"c. c #d23d10",
"v. c #c92f2f",
"b. c #cf3030",
"n. c #ff3030",
"m. c #d5481e",
"M. c #d64d24",
"N. c #d7532b",
"B. c #d85730",
"V. c #d95c36",
"C. c #db633f",
"Z. c #ff6530",
"A. c #d25350",
"S. c #da5753",
"D. c #db6440",
"F. c #df7757",
"G. c #cb7b7e",
"H. c #ea5d59",
"J. c #e0795a",
"K. c #f8625f",
"L. c #e17f61",
"P. c #fc6460",
"I. c #fe6561",
"U. c #ff6561",
"Y. c #92b970",
"T. c #96c45c",
"R. c #82c265",
"E. c #88c56d",
"W. c #8ac66f",
"Q. c #8dc772",
"!. c #9ecf61",
"~. c #9ecf62",
"^. c #91ca78",
"/. c #94cb7b",
"(. c #97cc7f",
"). c #a1d065",
"_. c #f3935c",
"`. c #fb985f",
"'. c #e28164",
"]. c #e59076",
"[. c #fe9961",
"{. c #ff9a61",
"}. c #838383",
"|. c #848484",
" X c #868686",
".X c #888888",
"XX c Gray54",
"oX c #8b8b8b",
"OX c #8d8d8d",
"+X c #8e8e8e",
"@X c #929292",
"#X c Gray58",
"$X c Gray59",
"%X c #979797",
"&X c Gray60",
"*X c Gray61",
"=X c #9d9d9d",
"-X c #9f9f9f",
";X c #a0a0a0",
":X c Gray64",
">X c Gray65",
",X c Gray66",
"<X c #a9a9a9",
"1X c Gray67",
"2X c Gray68",
"3X c Gray70",
"4X c #b9b9b9",
"5X c #bcbcbc",
"6X c #83c283",
"7X c #81d981",
"8X c #9acd82",
"9X c #9ecf87",
"0X c #9ecf9e",
"qX c #9ed088",
"wX c #9be19b",
"eX c #aac990",
"rX c #a3d28e",
"tX c #a7d493",
"yX c #a9d595",
"uX c #b7dc8b",
"iX c #a5d2a5",
"pX c #ade6ad",
"aX c #d88286",
"sX c #e1888b",
"dX c #ea8d91",
"fX c #f09195",
"gX c #fc989c",
"hX c #fe999d",
"jX c #ff9a9e",
"kX c #f9ca9a",
"lX c #ffcf9e",
"zX c #c0c0c0",
"xX c #c6c6c6",
"cX c #c8c8c8",
"vX c #cecece",
"bX c #dfdfdf",
"nX c #f3c5c5",
"mX c #fecece",
"MX c #ffcfcf",
"NX c #ededc0",
"BX c #ffffcf",
"VX c #ffffd7",
"CX c #e1e1e1",
"ZX c #e6e6e6",
"AX c #e9e9e9",
"SX c #ececec",
"DX c #efefef",
"FX c Gray94",
"GX c #f3f3f3",
"HX c #f6f6f6",
"JX c #f9f9f9",
"KX c #fbfbfb",
"LX c Gray99",
"PX c #fefefe",
"IX c Gray100",
"UX c None",
/* pixels */
"UXUXUXUXUXUXUXUXUXUXUXUXUXUXUXUXUXUXUXUXUXUXUXUXUXUXUXUXUXUXUXUXUXUXUXUXUXUXUXUXUXUXUXUXUXUXUXUX",
"UXUXUXUXUXUXUXUXUXUXUXUXUXUXUXUXUXUXUXUXUXUXUXUXUXUXUXUXUXUXUXUXUXUXUXUXUXUXUXUXUXUXUXUXUXUXUXUX",
"UXUXUXUXUXUXUXUXUXUXUXUXUXUXUXUXUXUXUXUXUXUXUXUXUXUXUXUXUXUXUXUXUXUXUXUXUXUXUXUXUXUXUXUXUXUXUXUX",
"UXUXUXUXUXUXUXUXUXUXUXUXUXUXUX;X=X#X@XOXOXOXOXOXOXOXOXOXOX.X|.c l UXUXUXUXUXUXUXUXUXUXUXUXUXUXUX",
"UXUXUXUXUXUXUXUXUXUXUX<X<X>X;X&XrX9X(././././././././././.^.Q.E.h g g d UXUXUXUXUXUXUXUXUXUXUXUX",
"UXUXUXUXUXUXUXUXUXUX<X>X;XyXqX/.E.R.o.X.X.X.X.X.X.X.X.X.X.......| ....s s p UXUXUXUXUXUXUXUXUXUX",
"UXUXUXUXUXUXUXUX<X<X;XtX8XE.X.] ~ E Y U U U U U U U U U U U Y E Q ^ ] ] [ y t ; UXUXUXUXUXUXUXUX",
"UXUXUXUXUXUXUX<X;XyX8XR.{ ! U G Z N m m m m m m m m m m m m m V A G I E ~ ^ ^ - & UXUXUXUXUXUXUX",
"UXUXUXUXUX<X>X=XqXE.{ Q L A N m m m m m m m m m m m m m m m m m m m V A K U W ! % $ X UXUXUXUXUX",
"UXUXUXUX=X;XtX/.X.^ I A N m m m m m m m m m m m m m m m m m m m m m m m V A J Y Y P .   UXUXUXUX",
"UXUXUXUX#XrXQ.{ E G V m m m m m m m m m m m m m m m m m m m m m m m m m m m V G J G N   UXUXUXUX",
"UXUXUX#X.XQ.[ Y A N m m m m m m m m m m m m m m m m m m m m m m m m m m m m m V C C m     UXUXUX",
"UXUXOX.XeXY.} A ) ) ) ) ) ) D ) ) ) ) m ) ) ) ) ) ) D D ) ) ) ) D ) ) ) ) ) ) ) ) m / H     UXUX",
"UXUX|.pXwX7XiXO.+.!.+.+.) !.!.+.+.+.0XO.+.!.+.+.) !.!.!.+.+.+.0X!.+.+.+.0X+.+.+.0XO.@.T.'   UXUX",
"UXl l 6XuX#.).) ) !.+.) +.+.!.D !.+.!.) ) !.+.) +.+.!.+.) !.) !.+.D !.+.!.D !.+.!.) ` T.'     UX",
"UXf IXIXVXIXIXDXIXBXIXBXIXIXbXIXBXIXIXDXIXBXIXBXIXIXbXIXIXDXIXBXIXIXBXIXIXIXBXIXIXDXIXNXcX;X  UX",
"UXp IXIXIXIXIXIXIXIXIXIXIXIXIXIXIXIXIXIXIXIXMXjXDXIXIXIXIXIXIXIXIXIXIXIXIXIXIXIXIXIXIXDXzX#X  UX",
"UXt IXIXIXIXIXIXIXIXIXIXIXIXIXIXIXIXIXIXMXMXlXjXMXMXDXIXIXIXIXIXIXIXIXIXIXIXIXIXIXIXIXAX5XOX  UX",
"UX; IXIXIXIXIXIXIXIXIXIXIXIXIXIXIXIXIXU.jXIXMXU.IXjX{.DXIXIXIXIXIXIXIXIXIXIXIXIXIXIXIXAX4X.X  UX",
"UX; IXIXIXIXIXIXIXIXIXIXIXIXIXIXIXIXMXjXU.IXMXU.IXjXjXU.IXIXIXIXIXIXIXIXIXIXIXIXIXIXIXAX4X.X  UX",
"UX; IXIXIXIXIXIXIXIXIXIXIXIXIXIXIXIXU.MXb.IXMXU.IX{.MXh.IXIXIXIXIXIXIXIXIXIXIXIXIXIXIXAX4X.X  UX",
"UX= IXIXIXIXIXIXIXIXIXIXIXIXIXIXIXIXU.MXb.MXMXU.IXb.MXh.IXIXIXIXIXIXIXIXIXIXIXIXIXIXIXZX3X}.  UX",
"UX% IXIXIXIXIXIXIXIXIXIXIXIXIXIXIXIXjXjXjXU.MXU.lXn.MXb.IXIXIXIXIXIXIXIXIXIXIXIXIXIXJXbX<Xz   UX",
"UXX IXIXIXIXIXIXIXIXIXIXIXIXIXIXIXIXDXU.IXU.Z.b.b.MX{.MXIXIXIXIXIXIXIXIXIXIXIXIXIXIXGXvX@Xf   UX",
"UX    IXIXJXJXIXIXIXIXIXIXIXIXIXIXIXIXMXlXDXb.h.MXMXjXIXIXIXIXIXIXIXIXIXIXIXIXIXIXJXCX2Xj     UX",
"UXUX  ZXDXHXJXIXIXIXIXDXDXMXDXIXIXIXIXIXIXIXIXMXDXIXIXIXIXIXIXIXDXDXMXDXIXIXIXIXJXDXxX|.y   UXUX",
"UXUX    sXfXkXjXMXlXjXjXMXlXlXjXlXMXjXMXjXjXMXlXlXjXjXlXjXMXlXjXjXMXlXlXjXlXMXjXnXaXq.a     UXUX",
"UXUXUX    aXH._.K.gX{.U.jXU.{.jXU.{.{.U.jXU.jXU.{.jXjXU.{.U.jX{.U.jXU.{.jXU.`._.S.e.e     UXUXUX",
"UXUXUXUX  r.G.S.H.K.U.jXU.U.U.U.jXU.b.jXU.jXU.U.jXjXU.U.U.U.jXU.U.U.U.jXU.v.dXA.w.e <   UXUXUXUX",
"UXUXUXUX    %.*.<.8.p.s.d.h.h.h.h.h.h.h.h.h.h.h.h.h.h.h.h.h.h.h.h.h.h.d.p.7.:.q , o     UXUXUXUX",
"UXUXUXUXUX      w -.1.8.y.s.d.h.h.h.h.h.h.h.h.h.h.h.h.h.h.h.h.h.h.s.p.7.<.%.4 +       UXUXUXUXUX",
"UXUXUXUXUXUXUX    8 w *.,.4.0.p.s.d.h.h.h.h.h.h.h.h.h.h.h.h.d.p.0.4.,.%.7 > o     UXUXUXUXUXUXUX",
"UXUXUXUXUXUXUXUX      4 0 $.*.,.1.4.8.y.p.s.d.h.h.h.h.h.d.p.8.1.*.q 4 > o       UXUXUXUXUXUXUXUX",
"UXUXUXUXUXUXUXUXUXUX      1 4 7 9 w &.,.4.y.d.h.h.h.h.d.y.4.-.0 1 + o       UXUXUXUXUXUXUXUXUXUX",
"UXUXUXUXUXUXUXUXUXUXUXUX      # > 1 8 &.2.y.h.h.h.h.h.p.4.*.5 #         UXUXUXUXUXUXUXUXUXUXUXUX",
"UXUXUXUXUXUXUXUXUXUXUXUXUXUX              s.l.k.h.h.s.7.-.4       UXUXUXUXUXUXUXUXUXUXUXUXUXUXUX",
"UXUXUXUXUXUXUXUXUXUXUXUXUXUXUXUXUXUXUXUX  x.c.l.h.s.8.;.7 o   UXUXUXUXUXUXUXUXUXUXUXUXUXUXUXUXUX",
"UXUXUXUXUXUXUXUXUXUXUXUXUXUXUXUXUXUXUX= & B.m.z.s.8.:.8 + o   UXUXUXUXUXUXUXUXUXUXUXUXUXUXUXUXUX",
"UXUXUXUXUXUXUXUXUXUXUXUXUXUXUXUXUXUXUXf F.D.m.d.7.-.7 + o     UXUXUXUXUXUXUXUXUXUXUXUXUXUXUXUXUX",
"UXUXUXUXUXUXUXUXUXUXUXUXUXUXUXUXUXUXOXc '.V.d.<.$.2 o o     UXUXUXUXUXUXUXUXUXUXUXUXUXUXUXUXUXUX",
"UXUXUXUXUXUXUXUXUXUXUXUXUXUXUXUXUX=X#X].C.p.&.4 # o o     UXUXUXUXUXUXUXUXUXUXUXUXUXUXUXUXUXUXUX",
"UXUXUXUXUXUXUXUXUXUXUXUXUXUXUX#X=X.XL.m.,.7 # o o       UXUXUXUXUXUXUXUXUXUXUXUXUXUXUXUXUXUXUXUX",
"UXUXUXUXUXUXUXUXUXUXUXUXUXh |.x J.M.4.9 : o         UXUXUXUXUXUXUXUXUXUXUXUXUXUXUXUXUXUXUXUXUXUX",
"UXUXUXUXUXUXUXUXUXUXy p p y N.h.,.7           UXUXUXUXUXUXUXUXUXUXUXUXUXUXUXUXUXUXUXUXUXUXUXUXUX",
"UXUXUXUXUXUXUXUXUXUXUX                UXUXUXUXUXUXUXUXUXUXUXUXUXUXUXUXUXUXUXUXUXUXUXUXUXUXUXUXUX",
"UXUXUXUXUXUXUXUXUXUXUXUXUXUXUXUXUXUXUXUXUXUXUXUXUXUXUXUXUXUXUXUXUXUXUXUXUXUXUXUXUXUXUXUXUXUXUXUX",
"UXUXUXUXUXUXUXUXUXUXUXUXUXUXUXUXUXUXUXUXUXUXUXUXUXUXUXUXUXUXUXUXUXUXUXUXUXUXUXUXUXUXUXUXUXUXUXUX",
"UXUXUXUXUXUXUXUXUXUXUXUXUXUXUXUXUXUXUXUXUXUXUXUXUXUXUXUXUXUXUXUXUXUXUXUXUXUXUXUXUXUXUXUXUXUXUXUX"
};
