/* XPM */
static char *magick[] = {
/* columns rows colors chars-per-pixel */
"48 48 256 2",
"   c Gray0",
".  c Gray1",
"X  c #030403",
"o  c #070303",
"O  c #040404",
"+  c Gray2",
"@  c #060606",
"#  c #070707",
"$  c Gray3",
"%  c #090909",
"&  c Gray4",
"*  c #0b0b0b",
"=  c #0c0c0c",
"-  c #181818",
";  c Gray13",
":  c Gray15",
">  c #313131",
",  c #343434",
"<  c Gray22",
"1  c Gray23",
"2  c #3f3f3f",
"3  c #400000",
"4  c #420000",
"5  c #440000",
"6  c #4e0000",
"7  c #500000",
"8  c #510000",
"9  c #570000",
"0  c #590000",
"q  c #5a0000",
"w  c #5d0000",
"e  c #620000",
"r  c #630000",
"t  c #680000",
"y  c #6b0000",
"u  c #6e0000",
"i  c #6f0000",
"p  c #710000",
"a  c #720000",
"s  c #740000",
"d  c #750000",
"f  c #780000",
"g  c #7a0000",
"h  c #7b0000",
"j  c #7d0000",
"k  c #7e0000",
"l  c #474712",
"z  c Gray26",
"x  c #444444",
"c  c Gray27",
"v  c #464646",
"b  c #484848",
"n  c #494949",
"m  c #4b4b4b",
"M  c Gray30",
"N  c #4e4e4e",
"B  c Gray31",
"V  c #515151",
"C  c Gray34",
"Z  c Gray35",
"A  c #5f5f5f",
"S  c #675c5c",
"D  c #606060",
"F  c Gray40",
"G  c #686868",
"H  c Gray42",
"J  c Gray43",
"K  c #747474",
"L  c #767676",
"P  c Gray47",
"I  c Gray48",
"U  c #7c7c7c",
"Y  c Gray",
"T  c Gray50",
"R  c #830000",
"E  c #840000",
"W  c #860000",
"Q  c #870000",
"!  c #8a0000",
"~  c #8d0000",
"^  c #8f0000",
"/  c #920000",
"(  c #960000",
")  c #980000",
"_  c #9b0000",
"`  c #9c0000",
"'  c #9e0000",
"]  c #9f0000",
"[  c #a10000",
"{  c #a50000",
"}  c #a70000",
"|  c #a80000",
" . c #aa0000",
".. c #ab0000",
"X. c #ad0000",
"o. c #b10000",
"O. c #b40000",
"+. c #b70000",
"@. c #b90000",
"#. c #ba0000",
"$. c #bd0000",
"%. c #bf0000",
"&. c #c20000",
"*. c #c30000",
"=. c #c50000",
"-. c #c60000",
";. c #c90000",
":. c #cb0000",
">. c #ce0000",
",. c #cf0000",
"<. c #d10000",
"1. c #d20000",
"2. c #d50000",
"3. c #d80000",
"4. c #db0000",
"5. c #dd0000",
"6. c #de0000",
"7. c #e00000",
"8. c #e10000",
"9. c #e30000",
"0. c #e40000",
"q. c #e70000",
"w. c #e90000",
"e. c #ea0000",
"r. c #ec0000",
"t. c #ed0000",
"y. c #ef0000",
"u. c #f00000",
"i. c #f20000",
"p. c #f30000",
"a. c #f50000",
"s. c #f60000",
"d. c #f80000",
"f. c #f90000",
"g. c #fb0000",
"h. c #fc0000",
"j. c #fe0000",
"k. c Red",
"l. c #ff0101",
"z. c #ff0303",
"x. c #ff0404",
"c. c #ff0606",
"v. c #ff0707",
"b. c #ff0909",
"n. c #ff0a0a",
"m. c #ff0c0c",
"M. c #ff0d0d",
"N. c #ff0f0f",
"B. c #ff1010",
"V. c #ff1212",
"C. c #ff1313",
"Z. c #ff1515",
"A. c #ff1616",
"S. c #ff1818",
"D. c #ff1919",
"F. c #ff1b1b",
"G. c #ff1c1c",
"H. c #ff1e1e",
"J. c #ff1f1f",
"K. c #ff2121",
"L. c #ff2222",
"P. c #ff2424",
"I. c #ff2525",
"U. c #ff2727",
"Y. c #ff2828",
"T. c #ff2b2b",
"R. c #ff3030",
"E. c #ff3131",
"W. c #ff3333",
"Q. c #ff3434",
"!. c #ff3636",
"~. c #ff3737",
"^. c #ff3939",
"/. c #ff3a3a",
"(. c #ff3c3c",
"). c #ff3d3d",
"_. c #ff3f3f",
"`. c #ff4242",
"'. c #ff4343",
"]. c #ff4848",
"[. c #ff4949",
"{. c #ff4b4b",
"}. c #ff5151",
"|. c #ff5555",
" X c #ff5858",
".X c #ff5a5a",
"XX c #ff5b5b",
"oX c #ff5d5d",
"OX c #ff5e5e",
"+X c #ff6060",
"@X c #ff6363",
"#X c #ff6464",
"$X c #ff6767",
"%X c #ff6969",
"&X c #ff6c6c",
"*X c #ff6f6f",
"=X c #ff7070",
"-X c #ff7373",
";X c #ff7676",
":X c #ff7979",
">X c #ff7c7c",
",X c #ff7e7e",
"<X c #ff7f7f",
"1X c #808080",
"2X c #818181",
"3X c Gray53",
"4X c #888888",
"5X c Gray54",
"6X c #8e8e8e",
"7X c Gray57",
"8X c #929292",
"9X c #939393",
"0X c Gray59",
"qX c #989898",
"wX c Gray61",
"eX c #9f9f9f",
"rX c Gray63",
"tX c #a2a2a2",
"yX c #a4a4a4",
"uX c #a5a5a5",
"iX c Gray65",
"pX c #a7a7a7",
"aX c #ada7a7",
"sX c Gray66",
"dX c #a9a9a9",
"fX c #aaaaaa",
"gX c #acacac",
"hX c Gray68",
"jX c #b1b1b1",
"kX c Gray70",
"lX c #b9b9b9",
"zX c #ff8181",
"xX c #ff8282",
"cX c #ff8787",
"vX c #ff8a8a",
"bX c #ff8e8e",
"nX c #ff9494",
"mX c #ff9a9a",
"MX c #ff9c9c",
"NX c Gray76",
"BX c Gray81",
"VX c Gray86",
"CX c #dddddd",
"ZX c Gray87",
"AX c Gray88",
"SX c Gray89",
"DX c #e7e7e7",
"FX c #eaeaea",
"GX c Gray94",
"HX c #f6f6f6",
"JX c #f8f8f8",
"KX c #f9f9f9",
"LX c #fbfbfb",
"PX c #fefefe",
"IX c Gray100",
"UX c None",
/* pixels */
"UXUXUXUXUXUXUXUXUXUXUXUXUXUXUXUXUXUXUXUXUXUXUXUXUXUXUXUXUXUXUXUXUXUXUXUXUXUXUXUXUXUXUXUXUXUXUXUX",
"UXUXUXUXUXUXUXUXUXUXUXUXUXUXUXUXUXUXUXUXUXUXUXUXUXUXUXUXUXUXUXUXUXUXUXUXUXUXUXUXUXUXUXUXUXUXUXUX",
"UXUXUXUXUXUXUXUXUXUXUXUXUXUXUXUXUXUXUXUXUXUXUXUXUXUXUXUXUXUXUXUXUXUXUXUXUXUXUXUXUXUXUXUXUXUXUXUX",
"UXUXUXUXUXUXUXUXUXUXUXUXUXUXUXyXtXwX0X7X0X7X7X7X7X7X0X7X7X6X3XU L UXUXUXUXUXUXUXUXUXUXUXUXUXUXUX",
"UXUXUXUXUXUXUXUXUXUXUXfXfXfXyXtXPXbXvXzXzXzXzXzXzXzXzXzXzX<X;X*XJ G G D UXUXUXUXUXUXUXUXUXUXUXUX",
"UXUXUXUXUXUXUXUXUXUXgXfXyXPXPXPXPX=X%X#X@X@X@X@X@X@X@X@X@X@XoX X X X XS Z V UXUXUXUXUXUXUXUXUXUX",
"UXUXUXUXUXUXUXUXgXgXaXmXPXPXPXPXPX).!.R.R.R.R.R.R.R.R.R.R.R.R.!.).'.].].].B b v UXUXUXUXUXUXUXUX",
"UXUXUXUXUXUXUXgXfXMXbX:XPXPXPXPXPXC.M.b.b.b.b.b.b.b.b.b.b.b.M.C.F.K.T.!.).).).v < UXUXUXUXUXUXUX",
"UXUXUXUXUXpXfXyXnX<X#X].PXPXPXPXPXz.z.z.z.z.z.z.z.z.z.z.z.z.z.z.c.b.M.F.P.T.R.!.< > : UXUXUXUXUX",
"UXUXUXUXwXyXmXvX*X}.!.G.PXPXPXPXPXz.z.z.z.z.z.z.z.z.z.z.z.z.z.z.z.z.z.c.M.Z.K.P.P.G.- = UXUXUXUX",
"UXUXUXUXwXnXzX#X'.P.Z.b.PXPXPXPXPXz.z.z.z.z.z.z.z.z.z.z.z.z.z.z.z.z.z.z.c.c.C.F.F.C.z.& UXUXUXUX",
"UXUXUXqX7X<X@X/.G.M.c.z.PXPXPXPXPXz.z.z.z.z.z.z.z.z.z.z.z.z.z.z.z.z.z.z.z.z.c.M.M.b.d.& & UXUXUX",
"UXUX7X7X<X@X).G.b.c.z.z.PXPXPXPXPXz.z.z.z.z.z.z.z.z.z.z.z.z.z.z.z.z.z.z.z.z.z.z.c.c.d.w.& & UXUX",
"UXUX5X<X*X].P.M.z.z.z.z.PXPXPXPXPXz.z.z.z.z.z.z.z.z.z.z.z.z.z.z.z.z.z.z.z.z.z.z.z.z.z.y.2.& UXUX",
"UXI U *X|.R.C.c.z.z.z.z.PXPXPXPXPXz.z.z.z.z.z.z.z.z.z.z.z.z.z.z.z.z.z.z.z.z.z.z.z.z.z.y.>.& & UX",
"UXG @X X).F.b.z.z.z.z.z.PXPXPXPXPXz.z.z.z.z.z.z.z.z.z.z.z.z.z.z.z.z.z.z.z.z.z.z.z.z.z.0.&.[ @ UX",
"UXZ PXPXPXPXPXPXPXPXPXPXPXPXPXPXPXPXPXPXPXPXPXPXPXPXPXPXPXPXPXPXPXPXPXPXPXPXPXPXPXPXKXDXlX7X@ UX",
"UXB PXPXPXPXPXPXPXPXPXPXPXPXPXPXPXPXPXPXPXPXPXPXPXPXPXPXPXPXPXPXPXPXPXPXPXPXPXPXPXPXKXAXjX3X@ UX",
"UXb PXPXPXPXPXPXPXPXPXPXPXPXPXPXPXPXPXPXPXPXPXPXPXPXPXPXPXPXPXPXPXPXPXPXPXPXPXPXPXPXKXZXgX1X@ UX",
"UXv PXPXPXPXPXPXPXPXPXPXPXPXPXPXPXPXPXPXPXPXPXPXPXPXPXPXPXPXPXPXPXPXPXPXPXPXPXPXPXPXKXZXgX1X@ UX",
"UXv PXPXPXPXPXPXPXPXPXPXPXPXPXPXPXPXPXPXPXPXPXPXPXPXPXPXPXPXPXPXPXPXPXPXPXPXPXPXPXPXJXVXfXU @ UX",
"UX2 R.T.F.z.z.z.z.z.z.z.PXPXPXPXPXz.z.z.z.z.z.z.z.z.z.z.z.z.z.z.z.z.z.z.z.z.z.z.z.z.s.2.[ d @ UX",
"UX, T.K.C.z.z.z.z.z.z.z.PXPXPXPXPXz.z.z.z.z.z.z.z.z.z.z.z.z.z.z.z.z.z.z.z.z.z.z.z.d.i.:.( y @ UX",
"UX; C.C.c.z.z.z.z.z.z.z.PXPXPXPXPXz.z.z.z.z.z.z.z.z.z.z.z.z.z.z.z.z.z.z.z.z.z.z.z.s.9.+.f 7   UX",
"UX= = s.d.d.d.z.z.z.z.z.PXPXPXPXPXz.z.z.z.z.z.z.z.z.z.z.z.z.z.z.z.z.z.z.z.z.z.z.d.y.:./ 9 @   UX",
"UXUX& 9.w.i.d.z.z.z.z.z.PXPXPXPXPXz.z.z.z.z.z.z.z.z.z.z.z.z.z.z.z.z.z.z.z.z.z.d.i.3.| y 3   UXUX",
"UXUX& & 3.0.i.d.z.z.z.z.PXPXPXPXPXz.z.z.z.z.z.z.z.z.z.z.z.z.z.z.z.z.z.z.z.z.d.s.9.@.j 5 X   UXUX",
"UXUXUX& & <.6.w.i.s.z.z.PXPXPXPXPXz.z.z.z.z.z.z.z.z.z.z.z.z.z.z.z.z.z.z.z.d.i.9.$.! 6   @ UXUXUX",
"UXUXUXUX& +.$.>.6.y.s.d.PXPXPXPXPXz.z.z.z.z.z.z.z.z.z.z.z.z.z.z.z.z.z.d.s.w.2.+.Q 7 3   UXUXUXUX",
"UXUXUXUX& # _ { @.<.9.y.HXKXPXPXPXz.z.z.z.z.z.z.z.z.z.z.z.z.z.z.z.d.s.y.6.=.' p 3 3 @   UXUXUXUX",
"UXUXUXUXUX@ @ @ ~ { $.<.AXFXGXHXKXd.z.z.z.z.z.z.z.z.z.z.z.z.z.d.s.y.9.:.| Q q 3 . @   UXUXUXUXUX",
"UXUXUXUXUXUXUX@ @ j ~ ' jXNXBXVXDXy.s.d.d.z.z.z.z.z.z.z.d.s.y.0.2.&.{ Q r 3 3 . . UXUXUXUXUXUXUX",
"UXUXUXUXUXUXUXUX@ @ @ u I 3X0XfXlX=.<.6.0.i.d.z.z.z.z.d.i.9.>.+.( f q 3 3 @ . . UXUXUXUXUXUXUXUX",
"UXUXUXUXUXUXUXUXUXUX@ @ X C A G I Q ' +.<.w.d.z.z.z.z.s.9.=.' d 6 3 3       UXUXUXUXUXUXUXUXUXUX",
"UXUXUXUXUXUXUXUXUXUXUXUX@     l B w f ' =.0.d.z.z.z.d.w.:._ r 3 X     @ UXUXUXUXUXUXUXUXUXUXUXUX",
"UXUXUXUXUXUXUXUXUXUXUXUXUXUX  @     @ $ & s.c.c.z.z.i.<.[ r   . . UXUXUXUXUXUXUXUXUXUXUXUXUXUXUX",
"UXUXUXUXUXUXUXUXUXUXUXUXUXUXUXUXUXUXUXUX* Z.F.M.z.i.3.X.u 3 . UXUXUXUXUXUXUXUXUXUXUXUXUXUXUXUXUX",
"UXUXUXUXUXUXUXUXUXUXUXUXUXUXUXUXUXUXUX, z /.T.C.s.3.o.d 3 3 . UXUXUXUXUXUXUXUXUXUXUXUXUXUXUXUXUX",
"UXUXUXUXUXUXUXUXUXUXUXUXUXUXUXUXUXUXUXG oX].P.d.<.| p 3 3 .   UXUXUXUXUXUXUXUXUXUXUXUXUXUXUXUXUX",
"UXUXUXUXUXUXUXUXUXUXUXUXUXUXUXUXUXUX6X3X#X/.d.$.~ w 3 3     UXUXUXUXUXUXUXUXUXUXUXUXUXUXUXUXUXUX",
"UXUXUXUXUXUXUXUXUXUXUXUXUXUXUXUXUXwX0X=X).y.[ u 3 3 3     UXUXUXUXUXUXUXUXUXUXUXUXUXUXUXUXUXUXUX",
"UXUXUXUXUXUXUXUXUXUXUXUXUXUXUX0XqX5XoXF.=.f 3 3 3 @     UXUXUXUXUXUXUXUXUXUXUXUXUXUXUXUXUXUXUXUX",
"UXUXUXUXUXUXUXUXUXUXUXUXUXF U L |.K.6.~ 7 3 @       UXUXUXUXUXUXUXUXUXUXUXUXUXUXUXUXUXUXUXUXUXUX",
"UXUXUXUXUXUXUXUXUXUXz b b v P.z.:.! @         UXUXUXUXUXUXUXUXUXUXUXUXUXUXUXUXUXUXUXUXUXUXUXUXUX",
"UXUXUXUXUXUXUXUXUXUXUX= & & & @ @     UXUXUXUXUXUXUXUXUXUXUXUXUXUXUXUXUXUXUXUXUXUXUXUXUXUXUXUXUX",
"UXUXUXUXUXUXUXUXUXUXUXUXUXUXUXUXUXUXUXUXUXUXUXUXUXUXUXUXUXUXUXUXUXUXUXUXUXUXUXUXUXUXUXUXUXUXUXUX",
"UXUXUXUXUXUXUXUXUXUXUXUXUXUXUXUXUXUXUXUXUXUXUXUXUXUXUXUXUXUXUXUXUXUXUXUXUXUXUXUXUXUXUXUXUXUXUXUX",
"UXUXUXUXUXUXUXUXUXUXUXUXUXUXUXUXUXUXUXUXUXUXUXUXUXUXUXUXUXUXUXUXUXUXUXUXUXUXUXUXUXUXUXUXUXUXUXUX"
};
