/* XPM */
static char *magick[] = {
/* columns rows colors chars-per-pixel */
"46 43 253 2",
"   c #000568",
".  c #00096a",
"X  c #000c6b",
"o  c #000e6d",
"O  c #02116f",
"+  c #001373",
"@  c #041470",
"#  c #061571",
"$  c #071772",
"%  c #021875",
"&  c #061873",
"*  c #071873",
"=  c #071974",
"-  c #081871",
";  c #081872",
":  c #081873",
">  c #081973",
",  c #091973",
"<  c #0a1872",
"1  c #091974",
"2  c #0c1c75",
"3  c #0e1d76",
"4  c #0f1e77",
"5  c #142077",
"6  c #122178",
"7  c #14237a",
"8  c #15247a",
"9  c #17267c",
"0  c #1c277b",
"q  c #1a297e",
"w  c #252d7f",
"e  c #142881",
"r  c #233182",
"t  c #293786",
"y  c #2c3a87",
"u  c #2f3c89",
"i  c #323f8b",
"p  c #36438d",
"a  c #3a4790",
"s  c #3c4991",
"d  c #404d93",
"f  c #414c92",
"g  c #434f94",
"h  c #465296",
"j  c #485497",
"k  c #4b5699",
"l  c #4f5a9b",
"z  c #515c9d",
"x  c #5761a0",
"c  c #5b64a1",
"v  c #626ca5",
"b  c #727aad",
"n  c #727bb0",
"m  c #7680b2",
"M  c #7585b8",
"N  c #7b84b4",
"B  c #891e19",
"V  c #8b1e19",
"C  c #8b1f1a",
"Z  c #8e1f1a",
"A  c #901712",
"S  c #991f18",
"D  c #93201b",
"F  c #9a221c",
"G  c #9e231d",
"H  c #a2231e",
"J  c #a8251f",
"K  c #aa2620",
"L  c #af2720",
"P  c #a72234",
"I  c #aa2b3b",
"U  c #b12721",
"Y  c #b62721",
"T  c #b42821",
"R  c #ba2922",
"E  c #be2a23",
"W  c #ba2e28",
"Q  c #9c534f",
"!  c #a25452",
"~  c #a85653",
"^  c #ba5a56",
"/  c #ae6765",
"(  c #c91f18",
")  c #dc2119",
"_  c #dc221b",
"`  c #dc251c",
"'  c #dc261d",
"]  c #dd271f",
"[  c #c22a23",
"{  c #c22b24",
"}  c #c42a23",
"|  c #c52b24",
" . c #c72c25",
".. c #cb2b24",
"X. c #c92c25",
"o. c #cc2d26",
"O. c #ce2c25",
"+. c #ce2d26",
"@. c #cf2e26",
"#. c #d12d25",
"$. c #d12e27",
"%. c #d32d26",
"&. c #d32f27",
"*. c #d52b24",
"=. c #d42f27",
"-. c #d62f28",
";. c #dd2a22",
":. c #dd2c23",
">. c #dd2d25",
",. c #d73028",
"<. c #de3027",
"1. c #da3028",
"2. c #dc3129",
"3. c #de3128",
"4. c #de3129",
"5. c #de312a",
"6. c #de322a",
"7. c #df352e",
"8. c #df3931",
"9. c #e72c1f",
"0. c #ea3225",
"q. c #eb3325",
"w. c #e03831",
"e. c #e13b34",
"r. c #e03d36",
"t. c #e1433c",
"y. c #cb5f5b",
"u. c #c35760",
"i. c #d6625d",
"p. c #da635e",
"a. c #e14740",
"s. c #e24942",
"d. c #e34b47",
"f. c #e34e47",
"g. c #e3514a",
"h. c #e55853",
"j. c #e6615b",
"k. c #e7635f",
"l. c #e6655f",
"z. c #e76761",
"x. c #e76a64",
"c. c #e86c68",
"v. c #e97670",
"b. c #eb7d79",
"n. c #eb837f",
"m. c #ffd300",
"M. c #ffd401",
"N. c #ffd504",
"B. c #ffd608",
"V. c #ffd70e",
"C. c #ffd916",
"Z. c #ffdd32",
"A. c #ffe039",
"S. c #ffe03c",
"D. c #ffe240",
"F. c #ffe34a",
"G. c #ffe34e",
"H. c #ffe355",
"J. c #ffe451",
"K. c #ffe456",
"L. c #ffe45a",
"P. c #ffe65e",
"I. c #ffe663",
"U. c #ffe976",
"Y. c #ffea7a",
"T. c #ffeb7d",
"R. c #828ab9",
"E. c #8991bc",
"W. c #a99797",
"Q. c #aeaeae",
"!. c #979ec4",
"~. c #9ca2c5",
"^. c #9da3c9",
"/. c #a2a8c8",
"(. c #abb0cf",
"). c #acb0d0",
"_. c #b5bad4",
"`. c #b7bcd6",
"'. c #babfd8",
"]. c #bec1da",
"[. c #ec8682",
"{. c #ec8a86",
"}. c #ed8e8a",
"|. c #ee928e",
" X c #ee9290",
".X c #f0a19e",
"XX c #f3b7b4",
"oX c #f4bcba",
"OX c #f5bfc2",
"+X c #ffec83",
"@X c #ffec89",
"#X c #ffef91",
"$X c #ffee94",
"%X c #ffef99",
"&X c #fff1a3",
"*X c #fff1aa",
"=X c #fff3b1",
"-X c #fff4b6",
";X c #fff5bc",
":X c #c6c6c6",
">X c #cdcccb",
",X c #d7d7d7",
"<X c Gray86",
"1X c #c4c9e0",
"2X c #cdd1e3",
"3X c #d1d4e4",
"4X c #d4d8e7",
"5X c #dadeeb",
"6X c #e1cac9",
"7X c #e6cfcd",
"8X c #eccccb",
"9X c #e5d0cf",
"0X c #e7d1d0",
"qX c #e8d3d2",
"wX c #eddddc",
"eX c #f5c2c1",
"rX c #f7cac9",
"tX c #fadada",
"yX c #fff6c4",
"uX c #fff7ca",
"iX c #fff7ce",
"pX c #fff8cd",
"aX c #fffad2",
"sX c #fffada",
"dX c #fffadd",
"fX c #e2e2e2",
"gX c Gray91",
"hX c Gray93",
"jX c #e6e7f1",
"kX c #fce5e3",
"lX c #fffbe3",
"zX c #ffffe2",
"xX c #fffce7",
"cX c #fffcec",
"vX c Gray96",
"bX c #f4f6f9",
"nX c #fef2f3",
"mX c #fffef2",
"MX c #fdfcf7",
"NX c #fffdf5",
"BX c #fffef7",
"VX c #f9f9f9",
"CX c #fef9f9",
"ZX c #fdfdfb",
"AX c #fefdfa",
"SX c #fffef8",
"DX c #fffefa",
"FX c Gray99",
"GX c #fffffc",
"HX c #fefefe",
"JX c #fffffe",
"KX c Gray100",
"LX c None",
/* pixels */
"LXLXLXLXLXLXLXLXLXLXLXLXLXLXLXLXLXLXLXLXLXLXLXLXLXLXLXLXLXLXLXLXLXLXLXLXLXLXLXLXLXLXLXLXLXLX",
"LXLXLXLXLXLXLXLXLXLXLXLXLXLXLXLXLXLXLXLXLXLXLXLXLXLXLXLXLXLXLXLXLXLXLXLXLXLXLXLXLXLXLXLXLXLX",
"LXLXLXLXLXLXLXLXLXLXLXLX`.(./.~.~.~.~.~.~.~.~.~.~.~.~.~.~.~.~.~.~.!.E.b LXLXLXLXLXLXLXLXLXLX",
"LXLXLXLXLXLXLXLXLXLX`._.(.^.E.R.R.R.R.R.R.R.R.R.R.R.R.R.R.R.R.R.R.R.n v x z LXLXLXLXLXLXLXLX",
"LXLXLXLXLXLXLXLX'._.).!.N x j d d d d d d d d d d d d d d d d d d d g h k l j s LXLXLXLXLXLX",
"LXLXLXLXLXLXLX].(.!.m l y 8 2 : : : : : : : : : : : : : : : : : : 1 2 9 t s d a p LXLXLXLXLX",
"LXLXLXLXLXKXKXbX`.c w 2 2 : : : : : : : : : : : : : : : : : : : : : : 1 2 9 r i a p t LXLXLX",
"LXLXLXLXKXKXKXKXKX2Xx # o : : : : : : : : : : : : : : : : : : : : : : : : 1 2 r u y 2 6 LXLX",
"LXLXLXLXKXKXKXKXKXKXKX_.y   O : : : : : : : : : : : : : : : : : : : : : : : 1 2 9 9 : 1 LXLX",
"LXLXLXKXKXKXKXKXKXKXKXKXjXb 5 . # : : : : : : : : : : : : : : : : : : : : : : : 1 1 : 8 z LX",
"LXLXKXKXKXKXKXKXKXsXNXKXKXKX3Xv # . # : : : : : : : : : : : : : : : : : : : : : : 1 2 w k b ",
"LXLXKXKXKXKXKXKXdXU.%XKXKXKXKXKX`.d X O : : : : : : : : : : : : : : : : : : : : : 1 2 q i g ",
"LXKXKXKXKX;XyXKXiXG.T.KXxX=XuXKXKXvXE.8 . # : : : : : : : : : : : : : : : : : : : : 1 2 7 9 ",
"LXKXKXKXDXI.D.=XcXH.%XKXY.Z.%XKXKXKXKX4Xv : . % : : : : : : : : : : : : : : : : : : : : : : ",
"LXKXKXKXKX-XH.J.H.V.Z.I.F.Y.dXKXKXKXKXKXKX1Xz X o & : : : : : : : : : : : : : : : : : : : : ",
"LXKXKXKXKXKXyXC.m.N.M.m.L.NXKXKXKXKXKXKXKXKXDX^.0 . # = & & & & & & & & & & & & & & & & & & ",
"LXKXKXiX+X@XU.B.B.B.B.M.Z.#XT.$XcXKXKXKXuXL.#XDX5XM e + % % % % % % % % % % % % % % % % % % ",
"LXKXKX*XG.J.S.N.B.B.B.N.C.J.F.P.sXKXKXKX-XV.H.mXKXkXu.P I I I I I I I I I I I I I I I I I I ",
"LXKXKXKXiXsX-XV.N.B.B.m.H.lXiXdXKXKXKXKXxXaXzXkX{.e.9.q.q.q.q.q.q.q.q.q.q.q.q.q.q.q.q.q.q.q.",
"LXKXKXKXKXxX+XA.V.N.B.C.G.;XKXKXKXKXKXKXKXKXOXd._ :.4.4.4.4.4.4.4.4.4.4.4.4.4.4.4.4.4.4.4.4.",
"LXKXKXKXDXU.A.+X;XZ.U.yXL.S.=XKXKXKXKXKXrXc.>.` 4.4.4.4.4.4.4.4.4.4.4.4.4.4.4.4.4.4.4.4.4.4.",
"LXKXKXKXMXT.Y.lXlXL.$XKX-XP.&XKXKXKXkX[.7._ >.4.4.4.4.4.4.4.4.4.4.4.4.4.4.4.4.4.4.4.4.4.4.4.",
"LXVXVXKXDXNXKXKXuXG.T.NXKXNXNXKXCX.Xt._ >.4.4.4.4.4.4.4.4.4.4.4.4.4.4.4.4.4.4.4.4.4.4.1.-.-.",
"LXLXgXhXvXDXKXKXDX&XpXKXKXKXKXrXk.` ` 4.4.4.4.4.4.4.4.4.4.4.4.4.4.4.4.4.4.4.4.4.4.4.$. .E { ",
"LXLX<X<XhXVXKXKXKXKXKXKXKXtXb.7.` <.4.4.4.4.4.4.4.4.4.4.4.4.4.4.4.4.4.4.4.4.4.4.4.,.{ J F J ",
"LXLXLX,XfXvXKXKXKXKXKXnX Xw._ >.4.4.4.4.4.4.4.4.4.4.4.4.4.4.4.4.4.4.4.4.4.4.4.4.1.@.J B V LX",
"LXLXLXLX<XfXhXvXKXKXeXh._ ;.4.4.4.4.4.4.4.4.4.4.4.4.4.4.4.4.4.4.4.4.4.4.4.4.4.,.X.L V V LXLX",
"LXLXLXLX>X:X>XfX8Xv.>.` 4.4.4.4.4.4.4.4.4.4.4.4.4.4.4.4.4.4.4.4.4.4.4.4.4.4.$.{ H V V V LXLX",
"LXLXLXLXLXQ.W./ W ( *.1.4.4.4.4.4.4.4.4.4.4.4.4.4.4.4.4.4.4.4.4.4.4.4.4.,.@.U Z V V V LXLXLX",
"LXLXLXLXLXLXLXA S K Y  .$.%.-.,.,.,.,.,.,.1.,.,.,.,.,.,.,.,.,.,.,.,.$.X.R H V B V LXLXLXLXLX",
"LXLXLXLXLXLXLXLXV V D G K T { X.@.$.$.$.$.$.$.$.$.$.$.$.$.$.@.@. .E Y G V V B B LXLXLXLXLXLX",
"LXLXLXLXLXLXLXLXLXLXV V V Z F J U Y R [ ..$.%.%.$.$.$.$.$.@.} Y H D V V V V LXLXLXLXLXLXLXLX",
"LXLXLXLXLXLXLXLXLXLXLXLXQ Q Q Q Q Q ~ ^ y.y.p.p.p.p.p.p.i.y.^ ! Q Q Q Q 6X9XLXLXLXLXLXLXLXLX",
"LXLXLXLXLXLXLXLXLXLXLXLXLXLXLXV V V V L $.t.s.a.a.a.a.a.1.E D V V 7X7X0XqXLXLXLXLXLXLXLXLXLX",
"LXLXLXLXLXLXLXLXLXLXLXLXLXLXLXLXLXLXLXLX8.g.g.s.a.a.t.7.{ F V wX0X7XLXLXLXLXLXLXLXLXLXLXLXLX",
"LXLXLXLXLXLXLXLXLXLXLXLXLXLXLXLXLXLXLXLXc.x.f.r.r.8.1.{ S B V wXLXLXLXLXLXLXLXLXLXLXLXLXLXLX",
"LXLXLXLXLXLXLXLXLXLXLXLXLXLXLXLXLXLXLX|.{.x.t.4.4.$.R Z B B LXLXLXLXLXLXLXLXLXLXLXLXLXLXLXLX",
"LXLXLXLXLXLXLXLXLXLXLXLXLXLXLXLXLXLXLXXX|.j.8.,.@.T Z B B LXLXLXLXLXLXLXLXLXLXLXLXLXLXLXLXLX",
"LXLXLXLXLXLXLXLXLXLXLXLXLXLXLXLXLXLXoX.Xv.4. .U G V B B LXLXLXLXLXLXLXLXLXLXLXLXLXLXLXLXLXLX",
"LXLXLXLXLXLXLXLXLXLXLXLXLXLXLXLXeXoX.Xl.@.J Z B V V B LXLXLXLXLXLXLXLXLXLXLXLXLXLXLXLXLXLXLX",
"LXLXLXLXLXLXLXLXLXLXLXLXLXLXoXXX.Xl.X.G V V B B V LXLXLXLXLXLXLXLXLXLXLXLXLXLXLXLXLXLXLXLXLX",
"LXLXLXLXLXLXLXLXLXLXb.}.}.n.z.4.U V V V B B LXLXLXLXLXLXLXLXLXLXLXLXLXLXLXLXLXLXLXLXLXLXLXLX",
"LXLXLXLXLXLXLXLXLXLXLX{ L F V V V V LXLXLXLXLXLXLXLXLXLXLXLXLXLXLXLXLXLXLXLXLXLXLXLXLXLXLXLX"
};
