/* XPM */
static char *magick[] = {
/* columns rows colors chars-per-pixel */
"48 48 256 2",
"   c Gray0",
".  c #0c0c0c",
"X  c #161616",
"o  c #1b1b1b",
"O  c #272727",
"+  c #2a2a2a",
"@  c Gray18",
"#  c #313131",
"$  c #373737",
"%  c #393939",
"&  c #3c3c3c",
"*  c Gray24",
"=  c #3f3f3f",
"-  c #000049",
";  c #00005e",
":  c #00006c",
">  c #000072",
",  c #000075",
"<  c #00007e",
"1  c #400000",
"2  c #420000",
"3  c #440000",
"4  c #4e0000",
"5  c #500000",
"6  c #570000",
"7  c #5a0000",
"8  c #5d0000",
"9  c #620000",
"0  c #6b0000",
"q  c #6f0000",
"w  c #710000",
"e  c #750000",
"r  c #7a0000",
"t  c #7e0000",
"y  c Gray25",
"u  c Gray26",
"i  c #464646",
"p  c #494949",
"a  c #515151",
"s  c Gray33",
"d  c #585858",
"f  c #606060",
"g  c Gray39",
"h  c #676767",
"j  c #686868",
"k  c Gray43",
"l  c Gray45",
"z  c #767676",
"x  c #797979",
"c  c #000081",
"v  c #000087",
"b  c #000089",
"n  c #000092",
"m  c #0000a1",
"M  c #0000aa",
"N  c #0000ad",
"B  c #0000b4",
"V  c #0000b9",
"C  c #0000bf",
"Z  c #0000ca",
"A  c #0000d1",
"S  c #0000d5",
"D  c #0000db",
"F  c #0000de",
"G  c #0000e2",
"H  c #0000e7",
"J  c #0000ef",
"K  c #0000f3",
"L  c #0000f6",
"P  c #0000f9",
"I  c #0000fb",
"U  c #0000fe",
"Y  c Blue",
"T  c #0101ff",
"R  c #0303ff",
"E  c #0404ff",
"W  c #0606ff",
"Q  c #0909ff",
"!  c #0a0aff",
"~  c #0e0eff",
"^  c #1212ff",
"/  c #1818ff",
"(  c #1b1bff",
")  c #1c1cff",
"_  c #1e1eff",
"`  c #2222ff",
"'  c #2727ff",
"]  c #2b2bff",
"[  c #3131ff",
"{  c #3333ff",
"}  c #3434ff",
"|  c #3737ff",
" . c #3a3aff",
".. c #3d3dff",
"X. c #3f3fff",
"o. c #4646ff",
"O. c #4c4cff",
"+. c #5151ff",
"@. c #5b5bff",
"#. c #6969ff",
"$. c #6c6cff",
"%. c #7070ff",
"&. c #7b7bff",
"*. c #7e7eff",
"=. c #840000",
"-. c #8a0000",
";. c #8d0000",
":. c #8f0000",
">. c #920000",
",. c #960000",
"<. c #980000",
"1. c #9c0000",
"2. c #a10000",
"3. c #a50000",
"4. c #a90000",
"5. c #ad0000",
"6. c #b10000",
"7. c #b40000",
"8. c #b70000",
"9. c #ba0000",
"0. c #bd0000",
"q. c #bf0000",
"w. c #947a7a",
"e. c #c20000",
"r. c #c50000",
"t. c #c60000",
"y. c #c90000",
"u. c #cb0000",
"i. c #ce0000",
"p. c #cf0000",
"a. c #d10000",
"s. c #d20000",
"d. c #d50000",
"f. c #d80000",
"g. c #da0000",
"h. c #db0000",
"j. c #de0000",
"k. c #e00000",
"l. c #e10000",
"z. c #e30000",
"x. c #e40000",
"c. c #e70000",
"v. c #e90000",
"b. c #ea0000",
"n. c #ec0000",
"m. c #ed0000",
"M. c #ef0000",
"N. c #f00000",
"B. c #f20000",
"V. c #f30000",
"C. c #f50000",
"Z. c #f60000",
"A. c #f80000",
"S. c #f90000",
"D. c #fb0000",
"F. c #fc0000",
"G. c #fe0000",
"H. c Red",
"J. c #ff0101",
"K. c #ff0303",
"L. c #ff0404",
"P. c #ff0606",
"I. c #ff0707",
"U. c #ff0909",
"Y. c #ff0a0a",
"T. c #ff0c0c",
"R. c #ff0d0d",
"E. c #ff0f0f",
"W. c #ff1010",
"Q. c #ff1212",
"!. c #ff1313",
"~. c #ff1515",
"^. c #ff1818",
"/. c #ff1919",
"(. c #ff1b1b",
"). c #ff1c1c",
"_. c #ff1f1f",
"`. c #ff2121",
"'. c #ff2424",
"]. c #ff2525",
"[. c #ff2727",
"{. c #ff2828",
"}. c #ff2b2b",
"|. c #ff3030",
" X c #ff3131",
".X c #ff3333",
"XX c #ff3434",
"oX c #ff3636",
"OX c #ff3939",
"+X c #ff3c3c",
"@X c #ff4343",
"#X c #ff4848",
"$X c #ff4949",
"%X c #ff4b4b",
"&X c #ff5151",
"*X c #ff5555",
"=X c #ff5858",
"-X c #ff5a5a",
";X c #ff5d5d",
":X c #ff6060",
">X c #ff6363",
",X c #ff6464",
"<X c #ff6767",
"1X c #ff6c6c",
"2X c #ff6f6f",
"3X c #ff7070",
"4X c #ff7373",
"5X c #ff7676",
"6X c #ff7979",
"7X c #ff7c7c",
"8X c #ff7e7e",
"9X c #ff7f7f",
"0X c #818181",
"qX c #848484",
"wX c #888888",
"eX c #8b8b8b",
"rX c #8d8d8d",
"tX c #8e8e8e",
"yX c Gray57",
"uX c #939393",
"iX c #959595",
"pX c #979797",
"aX c #9b9b9b",
"sX c #9d9d9d",
"dX c #9f9f9f",
"fX c #a0a0a0",
"gX c #a2a2a2",
"hX c Gray64",
"jX c #a5a5a5",
"kX c Gray65",
"lX c Gray66",
"zX c Gray70",
"xX c #b6b6b6",
"cX c #8787ff",
"vX c #8d8dff",
"bX c #9191ff",
"nX c #9494ff",
"mX c #9a9aff",
"MX c #ff8181",
"NX c #ff8a8a",
"BX c #ff8e8e",
"VX c #ff9494",
"CX c #ff9a9a",
"ZX c #ff9c9c",
"AX c #c3c3c3",
"SX c #cbcbcb",
"DX c Gray86",
"FX c Gray89",
"GX c #e7e7e7",
"HX c Gray94",
"JX c #f6f6f6",
"KX c #f8f8f8",
"LX c Gray99",
"PX c #fefefe",
"IX c Gray100",
"UX c None",
/* pixels */
"UXUXUXUXUXUXUXUXUXUXUXUXUXUXUXUXUXUXUXUXUXUXUXUXUXUXUXUXUXUXUXUXUXUXUXUXUXUXUXUXUXUXUXUXUXUXUXUX",
"UXUXUXUXUXUXUXUXUXUXUXUXUXUXUXUXUXUXUXUXUXUXUXUXUXUXUXUXUXUXUXUXUXUXUXUXUXUXUXUXUXUXUXUXUXUXUXUX",
"UXUXUXUXUXUXUXUXUXUXUXUXUXUXUXUXUXUXUXUXUXUXUXUXUXUXUXUXUXUXUXUXUXUXUXUXUXUXUXUXUXUXUXUXUXUXUXUX",
"UXUXUXUXUXUXUXUXUXUXUXUXUXUXUXhXaXpXuXtXtXtXtXtXtXtXtXtXtXeX0Xx k UXUXUXUXUXUXUXUXUXUXUXUXUXUXUX",
"UXUXUXUXUXUXUXUXUXUXUXUXkXkXhXdXnXvXcXIXMXMXMXMXMXMXMXMXMX6X5X3Xh f f d UXUXUXUXUXUXUXUXUXUXUXUX",
"UXUXUXUXUXUXUXUXUXUXlXkXhXmXbXcX&.%.#.IX>X>X>X>X>X>X>X>X>X>X;X-X-X-X-Xs a p UXUXUXUXUXUXUXUXUXUX",
"UXUXUXUXUXUXUXUXlXlXhXCXIX*.$.@.O.X.| IX|.|.|.|.|.|.|.|.|.|.|.oX+X@X#X#X#Xi y = UXUXUXUXUXUXUXUX",
"UXUXUXUXUXUXUXlXkXZXBX6XIXO.| ' ( ^ ~ IXU.U.U.U.U.U.U.U.U.U.R.!./.`.{.oX+X+X+X$ # UXUXUXUXUXUXUX",
"UXUXUXUXUXhXkXhXVX9X,X#XIX_ ^ Q E U U IXK.K.K.K.K.K.K.K.K.K.K.K.P.U.R./.'.{.|.oX@ O o UXUXUXUXUX",
"UXUXUXUXaXdXCXNX2X&XoX).IXQ E U U U U IXK.K.K.K.K.K.K.K.K.K.K.K.K.K.K.P.R.~.`.{.'.)..   UXUXUXUX",
"UXUXUXUXpXVXMX,X@X'.~.U.IXU U U U U U IXK.K.K.K.K.K.K.K.K.K.K.K.K.K.K.K.P.P.!././.!.K.  UXUXUXUX",
"UXUXUXuXtX9X>XOX`.R.P.K.IXU U U U U U IXK.K.K.K.K.K.K.K.K.K.K.K.K.K.K.K.K.K.P.R.R.U.A.    UXUXUX",
"UXUXeXeX9X>X+X).U.P.K.K.IXU U U U U U IXK.K.K.K.K.K.K.K.K.K.K.K.K.K.K.K.K.K.K.K.P.P.A.v.    UXUX",
"UXUXqX9X2X#X'.R.K.K.K.K.IXU U U U U U IXK.K.K.K.K.K.K.K.K.K.K.K.K.K.K.K.K.K.K.K.K.K.K.M.d.  UXUX",
"UXl z 2X*X|.!.P.K.K.K.K.IXU U U U U U IXK.K.K.K.K.K.K.K.K.K.K.K.K.K.K.K.K.K.K.K.K.K.K.M.i.    UX",
"UXf IXIXIXIXIXIXIXIXIXIXIXU U U U U U IXIXIXIXIXIXIXIXIXIXIXIXIXIXIXIXIXIXIXIXIXIXIXKXGXAXhX  UX",
"UXa +.o.] ~ U U U U U U U U U U U U U U U U U U U U U U U U U U U U U U U U U U U U I G V n   UX",
"UXi o. .` Q U U U U U U U U U U U U U U U U U U U U U U U U U U U U U U U U U U U U I G B v   UX",
"UX= X.| _ E U U U U U U U U U U U U U U U U U U U U U U U U U U U U U U U U U U U U I F N c   UX",
"UX= X.{ _ E U U U U U U U U U U U U U U U U U U U U U U U U U U U U U U U U U U U U I F N c   UX",
"UX=  .{ ( E U U U U U U U U U U U U U U U U U U U U U U U U U U U U U U U U U U U U I D M <   UX",
"UX$ { ] ( R U U U U U U U U U U U U U U U U U U U U U U U U U U U U U U U U U U U U L S m ,   UX",
"UX+ IXIXIXIXIXIXIXIXIXIXIXU U U U U U IXIXIXIXIXIXIXIXIXIXIXIXIXIXIXIXIXIXIXIXIXIXLXHXSXpXj   UX",
"UXX !.R.P.K.K.K.K.K.K.K.IXU U U U U U IXK.K.K.K.K.K.K.K.K.K.K.K.K.K.K.K.K.K.K.K.K.Z.z.6.r 5   UX",
"UX    Z.A.A.A.K.K.K.K.K.IXU U U U U U IXK.K.K.K.K.K.K.K.K.K.K.K.K.K.K.K.K.K.K.K.A.M.u.>.6     UX",
"UXUX  z.v.B.A.K.K.K.K.K.IXU U U U U U IXK.K.K.K.K.K.K.K.K.K.K.K.K.K.K.K.K.K.K.A.B.f.4.0 1   UXUX",
"UXUX    f.x.B.A.K.K.K.K.IXU U U U U U IXK.K.K.K.K.K.K.K.K.K.K.K.K.K.K.K.K.K.A.Z.z.9.t 3     UXUX",
"UXUXUX    a.j.v.B.Z.K.K.IXU U U U U U IXK.K.K.K.K.K.K.K.K.K.K.K.K.K.K.K.K.A.B.z.0.-.4     UXUXUX",
"UXUXUXUX  9.0.i.j.M.Z.A.IXU U U U U U IXK.K.K.K.K.K.K.K.K.K.K.K.K.K.K.A.Z.v.d.7.=.5 1   UXUXUXUX",
"UXUXUXUX    1.3.9.a.z.M.JXI U U U U U IXK.K.K.K.K.K.K.K.K.K.K.K.K.A.Z.M.j.r.2.w 1 1     UXUXUXUX",
"UXUXUXUXUX      ;.3.0.a.FXJ L I U U U IXK.K.K.K.K.K.K.K.K.K.K.A.Z.M.z.u.4.=.7 1       UXUXUXUXUX",
"UXUXUXUXUXUXUX    t ;.2.xXZ D H J K L KXA.K.K.K.K.K.K.K.A.Z.M.x.d.e.4.=.9 1 1     UXUXUXUXUXUXUX",
"UXUXUXUXUXUXUXUX      w 0Xn m B C Z A DXx.B.A.K.K.K.K.A.B.z.i.7.,.r 7 1 1       UXUXUXUXUXUXUXUX",
"UXUXUXUXUXUXUXUXUXUX      ; : , < b m zXa.v.A.K.K.K.K.Z.z.r.1.e 4 1 1       UXUXUXUXUXUXUXUXUXUX",
"UXUXUXUXUXUXUXUXUXUXUXUX      - - ; > aXr.x.A.K.K.K.A.v.u.<.9 1         UXUXUXUXUXUXUXUXUXUXUXUX",
"UXUXUXUXUXUXUXUXUXUXUXUXUXUXUX            Z.P.P.K.K.B.a.2.9       UXUXUXUXUXUXUXUXUXUXUXUXUXUXUX",
"UXUXUXUXUXUXUXUXUXUXUXUXUXUXUXUXUXUXUXUX  ~./.R.K.B.f.5.q 1   UXUXUXUXUXUXUXUXUXUXUXUXUXUXUXUXUX",
"UXUXUXUXUXUXUXUXUXUXUXUXUXUXUXUXUXUXUXUX% OX{.R.Z.f.6.e 1 1   UXUXUXUXUXUXUXUXUXUXUXUXUXUXUXUXUX",
"UXUXUXUXUXUXUXUXUXUXUXUXUXUXUXUXUXUXUXg ;X#X'.A.a.4.w 1 1   UXUXUXUXUXUXUXUXUXUXUXUXUXUXUXUXUXUX",
"UXUXUXUXUXUXUXUXUXUXUXUXUXUXUXUXUXUXUX0X,XOXA.0.;.8 1 1   UXUXUXUXUXUXUXUXUXUXUXUXUXUXUXUXUXUXUX",
"UXUXUXUXUXUXUXUXUXUXUXUXUXUXUXUXUXUXuX3X+XM.2.0 1 1 1   UXUXUXUXUXUXUXUXUXUXUXUXUXUXUXUXUXUXUXUX",
"UXUXUXUXUXUXUXUXUXUXUXUXUXUXUXUXuXw.;X/.r.r 1 1 1     UXUXUXUXUXUXUXUXUXUXUXUXUXUXUXUXUXUXUXUXUX",
"UXUXUXUXUXUXUXUXUXUXUXUXUXUXx k *X`.f.;.4 1       UXUXUXUXUXUXUXUXUXUXUXUXUXUXUXUXUXUXUXUXUXUXUX",
"UXUXUXUXUXUXUXUXUXUX% y y = '.K.u.-.        UXUXUXUXUXUXUXUXUXUXUXUXUXUXUXUXUXUXUXUXUXUXUXUXUXUX",
"UXUXUXUXUXUXUXUXUXUXUX              UXUXUXUXUXUXUXUXUXUXUXUXUXUXUXUXUXUXUXUXUXUXUXUXUXUXUXUXUXUX",
"UXUXUXUXUXUXUXUXUXUXUXUXUXUXUXUXUXUXUXUXUXUXUXUXUXUXUXUXUXUXUXUXUXUXUXUXUXUXUXUXUXUXUXUXUXUXUXUX",
"UXUXUXUXUXUXUXUXUXUXUXUXUXUXUXUXUXUXUXUXUXUXUXUXUXUXUXUXUXUXUXUXUXUXUXUXUXUXUXUXUXUXUXUXUXUXUXUX",
"UXUXUXUXUXUXUXUXUXUXUXUXUXUXUXUXUXUXUXUXUXUXUXUXUXUXUXUXUXUXUXUXUXUXUXUXUXUXUXUXUXUXUXUXUXUXUXUX"
};
