/* XPM */
static char *magick[] = {
/* columns rows colors chars-per-pixel */
"48 48 256 2",
"   c Gray0",
".  c #010101",
"X  c #020101",
"o  c #020202",
"O  c Gray1",
"+  c Gray6",
"@  c #001000",
"#  c #191919",
"$  c #1e1e1e",
"%  c #2a2a2a",
"&  c #2d2d2d",
"*  c #313131",
"=  c #343434",
"-  c Gray22",
";  c #3a3a3a",
":  c Gray23",
">  c #3e3e3e",
",  c #3f3f3f",
"<  c #400000",
"1  c #420000",
"2  c #440000",
"3  c #4b0000",
"4  c #4e0000",
"5  c #500000",
"6  c #510000",
"7  c #570000",
"8  c #590000",
"9  c #5a0000",
"0  c #5d0000",
"q  c #620000",
"w  c #630000",
"e  c #680000",
"r  c #6b0000",
"t  c #6f0000",
"y  c #710000",
"u  c #720000",
"i  c #740000",
"p  c #750000",
"a  c #780000",
"s  c #7a0000",
"d  c #7b0000",
"f  c #7d0000",
"g  c #7e0000",
"h  c #414141",
"j  c Gray26",
"k  c #444444",
"l  c Gray28",
"z  c #484848",
"x  c #4b4b4b",
"c  c #535353",
"v  c #595656",
"b  c #5a5a5a",
"n  c #626262",
"m  c #656565",
"M  c Gray40",
"N  c Gray41",
"B  c #6f6f6f",
"V  c #717171",
"C  c Gray46",
"Z  c Gray47",
"A  c Gray48",
"S  c #7b7b7b",
"D  c #00009b",
"F  c #0000b7",
"G  c #0000bf",
"H  c #0000ce",
"J  c #0000d1",
"K  c #0000d8",
"L  c #0000de",
"P  c #0000e0",
"I  c #0000e7",
"U  c #0000e9",
"Y  c #0000ea",
"T  c #0000f2",
"R  c #0000f3",
"E  c #0000f5",
"W  c #0000f8",
"Q  c #0000f9",
"!  c #0000fb",
"~  c #0000fc",
"^  c #0000fe",
"/  c Blue",
"(  c #0101ff",
")  c #0303ff",
"_  c #0404ff",
"`  c #0606ff",
"'  c #0909ff",
"]  c #0a0aff",
"[  c #0d0dff",
"{  c #0f0fff",
"}  c #1010ff",
"|  c #1212ff",
" . c #1313ff",
".. c #1818ff",
"X. c #1b1bff",
"o. c #1c1cff",
"O. c #1e1eff",
"+. c #2121ff",
"@. c #2222ff",
"#. c #2424ff",
"$. c #2727ff",
"%. c #2b2bff",
"&. c #3030ff",
"*. c #3131ff",
"=. c #3333ff",
"-. c #3434ff",
";. c #3a3aff",
":. c #3c3cff",
">. c #3d3dff",
",. c #4545ff",
"<. c #4646ff",
"1. c #4848ff",
"2. c #5151ff",
"3. c #5555ff",
"4. c #5858ff",
"5. c #6060ff",
"6. c #6363ff",
"7. c #6464ff",
"8. c #6c6cff",
"9. c #6f6fff",
"0. c #7e7eff",
"q. c #7f7fff",
"w. c #830000",
"e. c #840000",
"r. c #860000",
"t. c #890000",
"y. c #8a0000",
"u. c #8d0000",
"i. c #8f0000",
"p. c #920000",
"a. c #950000",
"s. c #960000",
"d. c #980000",
"f. c #9b0000",
"g. c #9c0000",
"h. c #9f0000",
"j. c #a10000",
"k. c #a20000",
"l. c #a50000",
"z. c #a70000",
"x. c #a80000",
"c. c #aa0000",
"v. c #ab0000",
"b. c #ad0000",
"n. c #b00000",
"m. c #b10000",
"M. c #b40000",
"N. c #b90000",
"B. c #ba0000",
"V. c #bd0000",
"C. c #bf0000",
"Z. c #c20000",
"A. c #c50000",
"S. c #c60000",
"D. c #c80000",
"F. c #c90000",
"G. c #cb0000",
"H. c #ce0000",
"J. c #d10000",
"K. c #d20000",
"L. c #d50000",
"P. c #d70000",
"I. c #d80000",
"U. c #da0000",
"Y. c #db0000",
"T. c #dd0000",
"R. c #de0000",
"E. c #e00000",
"W. c #e10000",
"Q. c #e30000",
"!. c #e40000",
"~. c #e70000",
"^. c #e90000",
"/. c #ea0000",
"(. c #ec0000",
"). c #ed0000",
"_. c #ef0000",
"`. c #f00000",
"'. c #f20000",
"]. c #f30000",
"[. c #f50000",
"{. c #f60000",
"}. c #f80000",
"|. c #f90000",
" X c #fb0000",
".X c #fc0000",
"XX c #fe0000",
"oX c Red",
"OX c #ff0101",
"+X c #ff0303",
"@X c #ff0707",
"#X c #ff0d0d",
"$X c #ff0f0f",
"%X c #ff1515",
"&X c #ff1818",
"*X c #ff1919",
"=X c #ff2121",
"-X c #ff2525",
";X c #ff2727",
":X c #ff2828",
">X c #ff3939",
",X c #ff3c3c",
"<X c #ff4b4b",
"1X c #ff5555",
"2X c #ff5d5d",
"3X c #ff5e5e",
"4X c #ff6767",
"5X c #ff7373",
"6X c #808080",
"7X c #818181",
"8X c #838383",
"9X c #848484",
"0X c #868686",
"qX c Gray53",
"wX c Gray54",
"eX c #8d8d8d",
"rX c #8e8e8e",
"tX c Gray56",
"yX c #929292",
"uX c Gray58",
"iX c Gray59",
"pX c #989898",
"aX c #9b9b9b",
"sX c Gray61",
"dX c #9d9d9d",
"fX c Gray62",
"gX c #a0a0a0",
"hX c Gray63",
"jX c Gray64",
"kX c #a4a4a4",
"lX c #a6a4a4",
"zX c Gray65",
"xX c #a7a7a7",
"cX c #a9a9a9",
"vX c Gray68",
"bX c Gray70",
"nX c #b9b9b9",
"mX c #8181ff",
"MX c #9393ff",
"NX c #9a9aff",
"BX c #c3c3c3",
"VX c Gray81",
"CX c #d5d5d5",
"ZX c #dddddd",
"AX c Gray87",
"SX c Gray88",
"DX c Gray89",
"FX c #e7e7e7",
"GX c #e9e9e9",
"HX c #ececec",
"JX c Gray93",
"KX c #f9f9f9",
"LX c #fbfbfb",
"PX c Gray99",
"IX c Gray100",
"UX c None",
/* pixels */
"UXUXUXUXUXUXUXUXUXUXUXUXUXUXUXUXUXUXUXUXUXUXUXUXUXUXUXUXUXUXUXUXUXUXUXUXUXUXUXUXUXUXUXUXUXUXUXUX",
"UXUXUXUXUXUXUXUXUXUXUXUXUXUXUXUXUXUXUXUXUXUXUXUXUXUXUXUXUXUXUXUXUXUXUXUXUXUXUXUXUXUXUXUXUXUXUXUX",
"UXUXUXUXUXUXUXUXUXUXUXUXUXUXUXUXUXUXUXUXUXUXUXUXUXUXUXUXUXUXUXUXUXUXUXUXUXUXUXUXUXUXUXUXUXUXUXUX",
"UXUXUXUXUXUXUXUXUXUXUXUXUXUXUXgXdXpXyXeXyXeXeXeXeXeXyXeXeXwX8XZ B UXUXUXUXUXUXUXUXUXUXUXUXUXUXUX",
"UXUXUXUXUXUXUXUXUXUXUXcXkXkXgXdXIXIXIXIXIXIXIXIXIXIXIXIXIXIXIXIXN M n b UXUXUXUXUXUXUXUXUXUXUXUX",
"UXUXUXUXUXUXUXUXUXUXcXkXkXIXIXIXIXIXIXIXIXIXIXIXIXIXIXIXIXIXIXIXIXIXIXv c z UXUXUXUXUXUXUXUXUXUX",
"UXUXUXUXUXUXUXUXcXcXkXIXIXIXIXIXIXIXIXIXIXIXIXIXIXIXIXIXIXIXIXIXIXIXIXIXIXk h , UXUXUXUXUXUXUXUX",
"UXUXUXUXUXUXUXcXkXIXIXIXIXIXIXIXIXIXIXIXIXIXIXIXIXIXIXIXIXIXIXIXIXIXIXIXIXIXIX- = UXUXUXUXUXUXUX",
"UXUXUXUXUXkXxXgXIXIXIXIXIXIXIXIXIXIXIXIXIXIXIXIXIXIXIXIXIXIXIXIXIXIXIXIXIXIXIXIX* % $ UXUXUXUXUX",
"UXUXUXUXpXgXNXIXIXIXIXIXIXIXIXIXIXIXIXIXIXIXIXIXIXIXIXIXIXIXIXIXIXIXIXIXIXIXIXIXIXIX+   UXUXUXUX",
"UXUXUXUXpXMXmX7.IXIXIXIXIXIXIXIXIXIXIXIXIXIXIXIXIXIXIXIXIXIXIXIXIXIXIXIXIXIXIXIXIXIXIX  UXUXUXUX",
"UXUXUXuXeXq.6.;.o.IXIXIXIXIXIXIXIXIXIXIXIXIXIXIXIXIXIXIXIXIXIXIXIXIXIXIXIXIXIXIXIXIXIXO   UXUXUX",
"UXUXeXeXq.6.>.o.' ` IXIXIXIXIXIXIXIXIXIXIXIXIXIXIXIXIXIXIXIXIXIXIXIXIXIXIXIXIXIXIXIXLXGX  O UXUX",
"UXUX0Xq.9.1.#.[ ) ) ) IXIXIXIXIXIXIXIXIXIXIXIXIXIXIXIXIXIXIXIXIXIXIXIXIXIXIXIXIXIXIXIXHXCX  UXUX",
"UXC Z 9.3.&. .` ) ) ) ) IXIXIXIXIXIXIXIXIXIXIXIXIXIXIXIXIXIXIXIXIXIXIXIXIXIXIXIXIXIXIXHXCX    UX",
"UXn 6.4.>.X.' ) ) ) ) ) ) IXIXIXIXIXIXIXIXIXIXIXIXIXIXIXIXIXIXIXIXIXIXIXIXIXIXIXIXIXIXFXBXgX  UX",
"UXc 2.<.%.[ ) ) ) ) ) ) ) ) IXIXIXIXIXIXIXIXIXIXIXIXIXIXIXIXIXIXIXIXIXIXIXIXIXIXIXIXLXDXnXyX  UX",
"UXz <.;.@.` ) ) ) ) ) ) ) ) ) IXIXIXIXIXIXIXIXIXIXIXIXIXIXIXIXIXIXIXIXIXIXIXIXIXIXIXLXDXbX0X  UX",
"UXh >.-.o.` ) ) ) ) ) ) ) ) ) ) IXIXIXIXIXIXIXIXIXIXIXIXIXIXIXIXIXIXIXIXIXIXIXIXIXIXLXZXvX8X  UX",
"UX, >.&.o.` ) ) ) ) ) ) ) ) ) ) ) IXIXIXIXIXIXIXIXIXIXIXIXIXIXIXIXIXIXIXIXIXIXIXIXIXLXZXvX8X  UX",
"UX, ;.&.X.` ) ) ) ) ) ) ) ) ) ) oXoXoXoXoXoXoXoXoXoXoXoXoXoXoXoXoXoXoXoXoXoXoXoXoXoX}.U.x.f   UX",
"UX- &.%.X.) ) ) ) ) ) ) ) ) ) oXoXoXoXoXoXoXoXoXoXoXoXoXoXoXoXoXoXoXoXoXoXoXoXoXoXoX{.P.j.i   UX",
"UX& %.@. .) ) ) ) ) ) ) ) ) oXoXoXoXoXoXoXoXoXoXoXoXoXoXoXoXoXoXoXoXoXoXoXoXoXoXoX}.'.D.s.e   UX",
"UX#  . .` ) ) ) ) ) ) ) ) oXoXoXoXoXoXoXoXoXoXoXoXoXoXoXoXoXoXoXoXoXoXoXoXoXoXoXoX{.W.M.a 5   UX",
"UX  O E Q Q Q ) ) ) ) ) oXoXoXoXoXoXoXoXoXoXoXoXoXoXoXoXoXoXoXoXoXoXoXoXoXoXoXoX}._.D.p.7     UX",
"UXUXO P U T Q ) ) ) ) oXoXoXoXoXoXoXoXoXoXoXoXoXoXoXoXoXoXoXoXoXoXoXoXoXoXoXoXoX'.U.x.e <   UXUX",
"UXUX  O K I T Q ) ) oXoXoXoXoXoXoXoXoXoXoXoXoXoXoXoXoXoXoXoXoXoXoXoXoXoXoXoX}.{.W.B.f 2     UXUX",
"UXUXUX    J L U T {.oXoXoXoXoXoXoXoXoXoXoXoXoXoXoXoXoXoXoXoXoXoXoXoXoXoXoX}.'.W.V.y.4     UXUXUX",
"UXUXUXUX  F H H R._.{.}.oXoXoXoXoXoXoXoXoXoXoXoXoXoXoXoXoXoXoXoXoXoXoX}.{./.P.M.e.5 <   UXUXUXUX",
"UXUXUXUX    D l.B.J.W._.{.}.oXoXoXoXoXoXoXoXoXoXoXoXoXoXoXoXoXoXoX}.{._.R.A.h.u < <     UXUXUXUX",
"UXUXUXUXUX  O   u.l.V.J.W._.{.}.oXoXoXoXoXoXoXoXoXoXoXoXoXoXoX}.{._.W.D.x.w.9 < @     UXUXUXUXUX",
"UXUXUXUXUXUXUXO   f u.h.M.D.P.!./.'.{.}.}.oXoXoXoXoXoXoX}.{._.!.P.Z.x.e.q < <     UXUXUXUXUXUXUX",
"UXUXUXUXUXUXUXUX      t f u.h.n.V.D.J.R.!.'.}.oXoXoXoX}.'.W.H.M.s.a 9 < <       UXUXUXUXUXUXUXUX",
"UXUXUXUXUXUXUXUXUXUX      0 e u a y.f.M.J./.}.oXoXoXoX{.W.A.h.i 4 < <       UXUXUXUXUXUXUXUXUXUX",
"UXUXUXUXUXUXUXUXUXUXUXUX      @ 3 9 i f.A.!.oXoXoXoX}./.D.f.q <         UXUXUXUXUXUXUXUXUXUXUXUX",
"UXUXUXUXUXUXUXUXUXUXUXUXUXUX              {.@X@XoXoX'.J.j.q       UXUXUXUXUXUXUXUXUXUXUXUXUXUXUX",
"UXUXUXUXUXUXUXUXUXUXUXUXUXUXUXUXUXUXUXUX  %X*X$XoX'.U.b.t <   UXUXUXUXUXUXUXUXUXUXUXUXUXUXUXUXUX",
"UXUXUXUXUXUXUXUXUXUXUXUXUXUXUXUXUXUXUX= - >X:X$X{.U.n.i < <   UXUXUXUXUXUXUXUXUXUXUXUXUXUXUXUXUX",
"UXUXUXUXUXUXUXUXUXUXUXUXUXUXUXUXUXUXUXM 2X<X-X}.J.x.u < <     UXUXUXUXUXUXUXUXUXUXUXUXUXUXUXUXUX",
"UXUXUXUXUXUXUXUXUXUXUXUXUXUXUXUXUXUXeX9X4X>X}.Z.u.0 < <     UXUXUXUXUXUXUXUXUXUXUXUXUXUXUXUXUXUX",
"UXUXUXUXUXUXUXUXUXUXUXUXUXUXUXUXUXdXyX5X,X_.j.e < < <     UXUXUXUXUXUXUXUXUXUXUXUXUXUXUXUXUXUXUX",
"UXUXUXUXUXUXUXUXUXUXUXUXUXUXUXuXuX0X2X*XA.a < < <       UXUXUXUXUXUXUXUXUXUXUXUXUXUXUXUXUXUXUXUX",
"UXUXUXUXUXUXUXUXUXUXUXUXUXM Z V 1X=XU.u.5 <         UXUXUXUXUXUXUXUXUXUXUXUXUXUXUXUXUXUXUXUXUXUX",
"UXUXUXUXUXUXUXUXUXUX- h k , :XoXD.y.          UXUXUXUXUXUXUXUXUXUXUXUXUXUXUXUXUXUXUXUXUXUXUXUXUX",
"UXUXUXUXUXUXUXUXUXUXUX        O       UXUXUXUXUXUXUXUXUXUXUXUXUXUXUXUXUXUXUXUXUXUXUXUXUXUXUXUXUX",
"UXUXUXUXUXUXUXUXUXUXUXUXUXUXUXUXUXUXUXUXUXUXUXUXUXUXUXUXUXUXUXUXUXUXUXUXUXUXUXUXUXUXUXUXUXUXUXUX",
"UXUXUXUXUXUXUXUXUXUXUXUXUXUXUXUXUXUXUXUXUXUXUXUXUXUXUXUXUXUXUXUXUXUXUXUXUXUXUXUXUXUXUXUXUXUXUXUX",
"UXUXUXUXUXUXUXUXUXUXUXUXUXUXUXUXUXUXUXUXUXUXUXUXUXUXUXUXUXUXUXUXUXUXUXUXUXUXUXUXUXUXUXUXUXUXUXUX"
};
