/* XPM */
static char *magick[] = {
/* columns rows colors chars-per-pixel */
"48 48 256 2",
"   c Gray0",
".  c #0c0c0c",
"X  c #000010",
"o  c #111111",
"O  c Gray9",
"+  c #1b1b1b",
"@  c #3c1c00",
"#  c #3e1d00",
"$  c #272727",
"%  c Gray17",
"&  c Gray18",
"*  c #313131",
"=  c #353535",
"-  c Gray22",
";  c #3a3a3a",
":  c #3c3c3c",
">  c #3e3e3e",
",  c #111140",
"<  c #004800",
"1  c #006200",
"2  c #006c00",
"3  c #007100",
"4  c #007500",
"5  c #007d00",
"6  c #401e00",
"7  c #492300",
"8  c #4b2300",
"9  c #4c2400",
"0  c #532700",
"q  c #5c2b00",
"w  c #632f00",
"e  c #6b3300",
"r  c #6e3400",
"t  c #733700",
"y  c #763800",
"u  c #793900",
"i  c #7b3a00",
"p  c #7d3b00",
"a  c #7f3c00",
"s  c Gray25",
"d  c #414141",
"f  c Gray27",
"g  c Gray29",
"h  c #4e4e4e",
"j  c #515151",
"k  c Gray33",
"l  c Gray34",
"z  c #5a5a5a",
"x  c #5f5f5f",
"c  c #606060",
"v  c Gray39",
"b  c Gray40",
"n  c Gray42",
"m  c #6f6f6f",
"M  c Gray44",
"N  c Gray45",
"B  c Gray46",
"V  c Gray48",
"C  c Gray49",
"Z  c #2c2c8d",
"A  c #6262ff",
"S  c #008000",
"D  c #008e00",
"F  c #009200",
"G  c #009b00",
"H  c #00a100",
"J  c #00a500",
"K  c #00b600",
"L  c #00b900",
"P  c #00be00",
"I  c #00cd00",
"U  c #00d100",
"Y  c #00da00",
"T  c #00de00",
"R  c #00e000",
"E  c #00e300",
"W  c #00e700",
"Q  c #00ea00",
"!  c #00ec00",
"~  c #00ef00",
"^  c #00f200",
"/  c #00f500",
"(  c #00f600",
")  c #00f800",
"_  c #00f900",
"`  c #00fb00",
"'  c #00fc00",
"]  c #00fe00",
"[  c Green",
"{  c #01ff01",
"}  c #03ff03",
"|  c #04ff04",
" . c #06ff06",
".. c #09ff09",
"X. c #0aff0a",
"o. c #0dff0d",
"O. c #0fff0f",
"+. c #10ff10",
"@. c #12ff12",
"#. c #13ff13",
"$. c #15ff15",
"%. c #18ff18",
"&. c #1bff1b",
"*. c #1cff1c",
"=. c #1eff1e",
"-. c #22ff22",
";. c #24ff24",
":. c #27ff27",
">. c #2bff2b",
",. c #30ff30",
"<. c #33ff33",
"1. c #34ff34",
"2. c #37ff37",
"3. c #3aff3a",
"4. c #3cff3c",
"5. c #3dff3d",
"6. c #42ff42",
"7. c #46ff46",
"8. c #48ff48",
"9. c #4bff4b",
"0. c #4cff4c",
"q. c #51ff51",
"w. c #57ff57",
"e. c #5bff5b",
"r. c #60ff60",
"t. c #63ff63",
"y. c #64ff64",
"u. c #6cff6c",
"i. c #6fff6f",
"p. c #7aff7a",
"a. c #7eff7e",
"s. c #7fff7f",
"d. c #803d00",
"f. c #894100",
"g. c #8d4200",
"h. c #964700",
"j. c #984800",
"k. c #9e4b00",
"l. c #a14d00",
"z. c #a84f00",
"x. c #a95000",
"c. c #ae5200",
"v. c #b15400",
"b. c #b75600",
"n. c #b95700",
"m. c #bd5a00",
"M. c #c25c00",
"N. c #c85e00",
"B. c #ca6000",
"V. c #cd6100",
"C. c #d06200",
"Z. c #d26300",
"A. c #d36400",
"S. c #d66500",
"D. c #da6700",
"F. c #db6800",
"G. c #dd6900",
"H. c #de6900",
"J. c #e06a00",
"K. c #e16a00",
"L. c #e36b00",
"P. c #e66d00",
"I. c #e76d00",
"U. c #e86e00",
"Y. c #e96e00",
"T. c #eb6f00",
"R. c #ec7000",
"E. c #ee7100",
"W. c #ef7100",
"Q. c #ef7201",
"!. c #ef7303",
"~. c #ef7304",
"^. c #ef7406",
"/. c #ef7507",
"(. c #f0770a",
"). c #f0780d",
"_. c #f0790f",
"`. c #f07a10",
"'. c #f07b12",
"]. c #f07d16",
"[. c #f17f19",
"{. c #f1811c",
"}. c #f18321",
"|. c #f18422",
" X c #f18524",
".X c #f28728",
"XX c #f2892b",
"oX c #f28d33",
"OX c #f28e35",
"+X c #f3923c",
"@X c #f39643",
"#X c #f49b4a",
"$X c #f5a359",
"%X c #f5a45b",
"&X c #f6af70",
"*X c Gray51",
"=X c #838383",
"-X c Gray52",
";X c #898989",
":X c Gray54",
">X c Gray55",
",X c #8e8e8e",
"<X c #929292",
"1X c #959595",
"2X c #979797",
"3X c #989898",
"4X c #9b9b9b",
"5X c Gray61",
"6X c #9f9f9f",
"7X c Gray63",
"8X c #a2a2a2",
"9X c #a4a4a4",
"0X c Gray65",
"qX c Gray66",
"wX c #a9a9a9",
"eX c Gray67",
"rX c #b1b1b1",
"tX c Gray70",
"yX c #b4b4b4",
"uX c #b7b7b7",
"iX c Gray75",
"pX c #8585ff",
"aX c #8a8aff",
"sX c #9999ff",
"dX c #81ff81",
"fX c #87ff87",
"gX c #8aff8a",
"hX c #8eff8e",
"jX c #92ff92",
"kX c #94ff94",
"lX c #9aff9a",
"zX c #9cff9c",
"xX c #c0c0c0",
"cX c Gray79",
"vX c #cecece",
"bX c Gray82",
"nX c Gray83",
"mX c #d8d8d8",
"MX c Gray86",
"NX c #dddddd",
"BX c Gray89",
"VX c #e7e7e7",
"CX c #e9e9e9",
"ZX c #ececec",
"AX c #efefef",
"SX c Gray94",
"DX c Gray95",
"FX c #f3f3f3",
"GX c #f6f6f6",
"HX c #f8f8f8",
"JX c #f9f9f9",
"KX c #fbfbfb",
"LX c Gray99",
"PX c #fefefe",
"IX c Gray100",
"UX c None",
/* pixels */
"UXUXUXUXUXUXUXUXUXUXUXUXUXUXUXUXUXUXUXUXUXUXUXUXUXUXUXUXUXUXUXUXUXUXUXUXUXUXUXUXUXUXUXUXUXUXUXUX",
"UXUXUXUXUXUXUXUXUXUXUXUXUXUXUXUXUXUXUXUXUXUXUXUXUXUXUXUXUXUXUXUXUXUXUXUXUXUXUXUXUXUXUXUXUXUXUXUX",
"UXUXUXUXUXUXUXUXUXUXUXUXUXUXUXUXUXUXUXUXUXUXUXUXUXUXUXUXUXUXUXUXUXUXUXUXUXUXUXUXUXUXUXUXUXUXUXUX",
"UXUXUXUXUXUXUXUXUXUXUXUXUXUXUX7X6X2X<X>X>X>X>X>X>X>X<X>X>X:X*XV m UXUXUXUXUXUXUXUXUXUXUXUXUXUXUX",
"UXUXUXUXUXUXUXUXUXUXUXqX9X9X7X6XkXIXIXIXIXIXIXIXIXIXIXIXIXIXIX&Xb v v z UXUXUXUXUXUXUXUXUXUXUXUX",
"UXUXUXUXUXUXUXUXUXUXqX9X7XlXjXfXp.IXIXIXIXIXIXIXIXIXIXIXIXIXIX%X$X$X$Xk j g UXUXUXUXUXUXUXUXUXUX",
"UXUXUXUXUXUXUXUXqXqX7XlXhXs.i.e.8.IXIXIXIXIXIXIXIXIXIXIXIXIXIXOX+X@X#X#X#Xf d > UXUXUXUXUXUXUXUX",
"UXUXUXUXUXUXUXqX9XzXhXp.t.0.2.;.&.IXIXIXIXIXIXIXIXIXIXIXIXIXIX'.[.|.XXOX+X+X+X; * UXUXUXUXUXUXUX",
"UXUXUXUXUX9X9X6XkXs.y.8.,.*.#... .IXIXIXIXIXIXIXIXIXIXIXIXIXIX!.^.(.'.[. XXXoXOX& $ + UXUXUXUXUX",
"UXUXUXUX4X6XlXgXi.q.2.*.o. . .} } IXIXIXIXIXIXIXIXIXIXIXIXIXIX!.!.!.~.^.).].}..X.X{..   UXUXUXUX",
"UXUXUXUX2XjXdXy.6.;.$...} } } } } IXIXIXIXIXIXIXIXIXIXIXIXIXIX!.W.W.W.W.~.^.'.[.{.'.!.  UXUXUXUX",
"UXUXUX<X>Xs.t.3.*.o. .} } } } } } IXIXIXIXIXIXIXIXIXIXIXIXIXIX!.W.W.W.W.!.!.^.).).(.Y.    UXUXUX",
"UXUX>X:Xs.t.5.*... .} } } } } } } IXIXIXIXIXIXIXIXIXIXIXIXIXIX!.W.W.W.W.W.W.W.W.~.~.Y.D.    UXUX",
"UXUX-Xs.i.8.;.o.} } } } } } } } } IXIXIXIXIXIXIXIXIXIXIXIXIXIX!.W.W.W.W.W.W.W.W.!.!.!.G.N.  UXUX",
"UXN B i.w.,.#. .} } } } } } } } } IXIXIXIXIXIXIXIXIXIXIXIXIXIXT.!.T.W.W.W.W.T.W.!.!.!.G.M.    UX",
"UXx t.w.5.&...} } } } } } } } } } IXIXIXIXIXIXIXIXIXIXIXIXIXIXW.!.!.!.W.W.W.!.!.!.!.!.D.b.h.  UX",
"UXj q.7.>.o.} } } } } } } } } } } IXIXIXIXIXIXIXIXIXIXIXIXIXIX!.T.W.W.W.W.W.T.W.W.W.T.S.c.f.  UX",
"UXf 7.3.-. .} } } } } } } } } } } IXIXIXIXIXIXIXIXIXIXIXIXIXIX!.!.!.W.W.W.W.!.!.W.W.T.C.z.a   UX",
"UX> 5.2.*. .} } } } } } } } } } } IXIXIXIXIXIXIXIXIXIXIXIXIXIX!.W.!.W.W.W.W.W.!.W.W.Y.C.l.i   UX",
"UX> 5.,.*. .} } } } } } } } } } } IXIXIXIXIXIXIXIXIXIXIXIXIXIX!.W.W.W.W.W.W.W.W.W.W.Y.C.l.i   UX",
"UX> 3.,.&. .} } } } } } } } } } } IXIXIXIXIXIXIXIXIXIXIXIXIXIXT.W.W.W.W.W.W.W.W.W.!.Y.V.k.y   UX",
"UX= ,.>.&.} } } } } } } } } } } } IXIXIXIXIXIXIXIXIXIXIXIXIXIXW.W.W.W.W.W.W.W.W.!.!.I.N.j.r   UX",
"UX% ;.-.#.} } } } } } } } } } } } IXIXIXIXIXIXIXIXIXIXIXIXIXIX!.T.W.W.W.W.W.T.W.!.T.L.m.g.w   UX",
"UXO #.#. .} } } } } } } } } } } } IXIXIXIXIXIXIXIXIXIXIXIXIXIX!.!.!.!.W.W.W.!.!.T.I.A.x.t 9   UX",
"UX    ( ` ` ` } } } } } } } } } } IXIXIXIXIXIXIXIXIXIXIXIXIXIX!.W.W.W.W.W.W.!.T.Y.G.m.f.0     UX",
"UXUX  E Q ^ ` } } } } } } } } } } IXIXIXIXIXIXIXIXIXIXIXIXIXIX!.W.W.W.W.W.W.!.!.L.B.k.w @   UXUX",
"UXUX    Y W ^ ( } } } } } } } } } IXIXIXIXIXIXIXIXIXIXIXIXIXIX!.W.W.T.!.!.!.Y.I.A.c.y 6     UXUX",
"UXUXUX    U T Q ^ ( } } } } } } } IXIXIXIXIXIXIXIXIXIXIXIXIXIX!.T.!.!.!.T.Y.L.C.v.d.7     UXUXUX",
"UXUXUXUX  K P I T ~ ( ` } } } } } IXIXIXIXIXIXIXIXIXIXIXIXIXIXT.!.!.!.Y.I.F.N.x.i 7 @   UXUXUXUX",
"UXUXUXUX    G J L U E ~ ( ` } } } IXIXIXIXIXIXIXIXIXIXIXIXIXIX!.!.Y.I.L.C.n.h.e @ @     UXUXUXUX",
"UXUXUXUXUX      D J P U E ~ ( ` } IXIXIXIXIXIXIXIXIXIXIXIXIXKXY.I.G.C.m.l.i 0 @ X     UXUXUXUXUX",
"UXUXUXUXUXUXUX    5 D H K I Y W ~ DXGXGXKXLXIXIXIXIXIXIXKXGXAXS.N.b.k.p q @ @     UXUXUXUXUXUXUX",
"UXUXUXUXUXUXUXUX      3 S F J K P cXnXMXVXDXKXIXIXIXIXKXDXBXvXx.g.t 0 @ @       UXUXUXUXUXUXUXUX",
"UXUXUXUXUXUXUXUXUXUX      1 2 4 5 :X4XtXnXCXKXIXIXIXKXAXNXiX4Xe 7 @ @       UXUXUXUXUXUXUXUXUXUX",
"UXUXUXUXUXUXUXUXUXUXUXUX      < < k m 2XxXBXGXIXIXKXAXMXuX:Xk @         UXUXUXUXUXUXUXUXUXUXUXUX",
"UXUXUXUXUXUXUXUXUXUXUXUXUXUX              AXIXIXKXAXMXuX*Xh       UXUXUXUXUXUXUXUXUXUXUXUXUXUXUX",
"UXUXUXUXUXUXUXUXUXUXUXUXUXUXUXUXUXUXUXUX  IXIXIXDXMXuX*Xh d   UXUXUXUXUXUXUXUXUXUXUXUXUXUXUXUXUX",
"UXUXUXUXUXUXUXUXUXUXUXUXUXUXUXUXUXUXUX= $ IXIXIXNXtX*Xh d ,   UXUXUXUXUXUXUXUXUXUXUXUXUXUXUXUXUX",
"UXUXUXUXUXUXUXUXUXUXUXUXUXUXUXUXUXUXUXk *XIXIXVXtXC g d ,     UXUXUXUXUXUXUXUXUXUXUXUXUXUXUXUXUX",
"UXUXUXUXUXUXUXUXUXUXUXUXUXUXUXUXUXUX>XB IXIXDXqXm d > ,     UXUXUXUXUXUXUXUXUXUXUXUXUXUXUXUXUXUX",
"UXUXUXUXUXUXUXUXUXUXUXUXUXUXUXUXUX6X:XsXIXAX6Xz d d o     UXUXUXUXUXUXUXUXUXUXUXUXUXUXUXUXUXUXUX",
"UXUXUXUXUXUXUXUXUXUXUXUXUXUXUX2X:XV aXIXnX-Xg d ,       UXUXUXUXUXUXUXUXUXUXUXUXUXUXUXUXUXUXUXUX",
"UXUXUXUXUXUXUXUXUXUXUXUXUXb N b pXIXAXqXn ,         UXUXUXUXUXUXUXUXUXUXUXUXUXUXUXUXUXUXUXUXUXUX",
"UXUXUXUXUXUXUXUXUXUX> d d ; A IXNXZ           UXUXUXUXUXUXUXUXUXUXUXUXUXUXUXUXUXUXUXUXUXUXUXUXUX",
"UXUXUXUXUXUXUXUXUXUXUX                UXUXUXUXUXUXUXUXUXUXUXUXUXUXUXUXUXUXUXUXUXUXUXUXUXUXUXUXUX",
"UXUXUXUXUXUXUXUXUXUXUXUXUXUXUXUXUXUXUXUXUXUXUXUXUXUXUXUXUXUXUXUXUXUXUXUXUXUXUXUXUXUXUXUXUXUXUXUX",
"UXUXUXUXUXUXUXUXUXUXUXUXUXUXUXUXUXUXUXUXUXUXUXUXUXUXUXUXUXUXUXUXUXUXUXUXUXUXUXUXUXUXUXUXUXUXUXUX",
"UXUXUXUXUXUXUXUXUXUXUXUXUXUXUXUXUXUXUXUXUXUXUXUXUXUXUXUXUXUXUXUXUXUXUXUXUXUXUXUXUXUXUXUXUXUXUXUX"
};
