/* XPM */
static char *magick[] = {
/* columns rows colors chars-per-pixel */
"48 48 256 2",
"   c Gray0",
".  c #0c0c0c",
"X  c #161616",
"o  c #1b1b1b",
"O  c #272727",
"+  c #2a2a2a",
"@  c Gray18",
"#  c #313131",
"$  c #373737",
"%  c #393939",
"&  c #3c3c3c",
"*  c Gray24",
"=  c #3f3f3f",
"-  c #004900",
";  c #006200",
":  c #006c00",
">  c #007300",
",  c #007d00",
"<  c #400000",
"1  c #420000",
"2  c #440000",
"3  c #4e0000",
"4  c #500000",
"5  c #570000",
"6  c #590000",
"7  c #5d0000",
"8  c #620000",
"9  c #680000",
"0  c #6b0000",
"q  c #6f0000",
"w  c #720000",
"e  c #750000",
"r  c #7a0000",
"t  c #7e0000",
"y  c Gray25",
"u  c Gray26",
"i  c #464646",
"p  c #494949",
"a  c #515151",
"s  c Gray33",
"d  c #585858",
"f  c #606060",
"g  c Gray39",
"h  c #676767",
"j  c Gray43",
"k  c Gray45",
"l  c #767676",
"z  c #797979",
"x  c #008000",
"c  c #008e00",
"v  c #009200",
"b  c #009b00",
"n  c #00a100",
"m  c #00a500",
"M  c #00b400",
"N  c #00b700",
"B  c #00b900",
"V  c #00bd00",
"C  c #00bf00",
"Z  c #00cd00",
"A  c #00d100",
"S  c #00da00",
"D  c #00de00",
"F  c #00e000",
"G  c #00e300",
"H  c #00e700",
"J  c #00ea00",
"K  c #00ec00",
"L  c #00ef00",
"P  c #00f200",
"I  c #00f300",
"U  c #00f500",
"Y  c #00f600",
"T  c #00f800",
"R  c #00f900",
"E  c #00fb00",
"W  c #00fc00",
"Q  c #00fe00",
"!  c Green",
"~  c #01ff01",
"^  c #03ff03",
"/  c #04ff04",
"(  c #06ff06",
")  c #09ff09",
"_  c #0aff0a",
"`  c #0dff0d",
"'  c #0fff0f",
"]  c #10ff10",
"[  c #12ff12",
"{  c #13ff13",
"}  c #15ff15",
"|  c #18ff18",
" . c #1bff1b",
".. c #1cff1c",
"X. c #1eff1e",
"o. c #22ff22",
"O. c #24ff24",
"+. c #27ff27",
"@. c #2bff2b",
"#. c #30ff30",
"$. c #33ff33",
"%. c #34ff34",
"&. c #37ff37",
"*. c #3aff3a",
"=. c #3cff3c",
"-. c #3dff3d",
";. c #42ff42",
":. c #46ff46",
">. c #48ff48",
",. c #4bff4b",
"<. c #4cff4c",
"1. c #51ff51",
"2. c #55ff55",
"3. c #58ff58",
"4. c #5bff5b",
"5. c #60ff60",
"6. c #63ff63",
"7. c #64ff64",
"8. c #6cff6c",
"9. c #6fff6f",
"0. c #7aff7a",
"q. c #7eff7e",
"w. c #7fff7f",
"e. c Cyan",
"r. c #810000",
"t. c #830000",
"y. c #850000",
"u. c #890000",
"i. c #8d0000",
"p. c #920000",
"a. c #960000",
"s. c #980000",
"d. c #9b0000",
"f. c #9e0000",
"g. c #a10000",
"h. c #a20000",
"j. c #a70000",
"k. c #a80000",
"l. c #aa0000",
"z. c #ad0000",
"x. c #b20000",
"c. c #b40000",
"v. c #ba0000",
"b. c #be0000",
"n. c #c30000",
"m. c #c50000",
"M. c #c60000",
"N. c #c90000",
"B. c #cb0000",
"V. c #cf0000",
"C. c #d10000",
"Z. c #d20000",
"A. c #d50000",
"S. c #d80000",
"D. c #da0000",
"F. c #db0000",
"G. c #de0000",
"H. c #e00000",
"J. c #e10000",
"K. c #e30000",
"L. c #e40000",
"P. c #e70000",
"I. c #e90000",
"U. c #ea0000",
"Y. c #ec0000",
"T. c #ed0000",
"R. c #ef0000",
"E. c #f00000",
"W. c #f20000",
"Q. c #f30000",
"!. c #f50000",
"~. c #f60000",
"^. c #f80000",
"/. c #f90000",
"(. c #fb0000",
"). c #fc0000",
"_. c #fe0000",
"`. c Red",
"'. c #ff0101",
"]. c #ff0303",
"[. c #ff0404",
"{. c #ff0606",
"}. c #ff0707",
"|. c #ff0909",
" X c #ff0a0a",
".X c #ff0c0c",
"XX c #ff0d0d",
"oX c #ff0f0f",
"OX c #ff1010",
"+X c #ff1212",
"@X c #ff1616",
"#X c #ff1818",
"$X c #ff1919",
"%X c #ff1b1b",
"&X c #ff1c1c",
"*X c #ff2121",
"=X c #ff2525",
"-X c #ff2727",
";X c #ff2828",
":X c #ff2b2b",
">X c #ff3131",
",X c #ff3333",
"<X c #ff3434",
"1X c #ff3737",
"2X c #ff3939",
"3X c #ff3c3c",
"4X c #ff3f3f",
"5X c #ff4343",
"6X c #ff4949",
"7X c #ff4b4b",
"8X c #ff5555",
"9X c #ff5858",
"0X c #ff5a5a",
"qX c #ff5d5d",
"wX c #ff5e5e",
"eX c #ff6060",
"rX c #ff6363",
"tX c #ff6464",
"yX c #ff6767",
"uX c #ff6969",
"iX c #ff7070",
"pX c #ff7373",
"aX c #ff7676",
"sX c #ff7c7c",
"dX c Yellow",
"fX c #818181",
"gX c #848484",
"hX c #888888",
"jX c #8b8b8b",
"kX c #8d8d8d",
"lX c #8e8e8e",
"zX c Gray57",
"xX c #939393",
"cX c #979797",
"vX c Gray61",
"bX c #9f9f9f",
"nX c #a0a0a0",
"mX c #a2a2a2",
"MX c Gray64",
"NX c #a5a5a5",
"BX c Gray65",
"VX c Gray66",
"CX c #81ff81",
"ZX c #87ff87",
"AX c #8aff8a",
"SX c #8eff8e",
"DX c #91ff91",
"FX c #94ff94",
"GX c #9aff9a",
"HX c #9cff9c",
"JX c #ff8181",
"KX c #ff8282",
"LX c #ff8787",
"PX c #ff8d8d",
"IX c Gray100",
"UX c None",
/* pixels */
"UXUXUXUXUXUXUXUXUXUXUXUXUXUXUXUXUXUXUXUXUXUXUXUXUXUXUXUXUXUXUXUXUXUXUXUXUXUXUXUXUXUXUXUXUXUXUXUX",
"UXUXUXUXUXUXUXUXUXUXUXUXUXUXUXUXUXUXUXUXUXUXUXUXUXUXUXUXUXUXUXUXUXUXUXUXUXUXUXUXUXUXUXUXUXUXUXUX",
"UXUXUXUXUXUXUXUXUXUXUXUXUXUXUXUXUXUXUXUXUXUXUXUXUXUXUXUXUXUXUXUXUXUXUXUXUXUXUXUXUXUXUXUXUXUXUXUX",
"UXUXUXUXUXUXUXUXUXUXUXUXUXUXUXMXbXcXxXlXlXlXlXlXlXlXlXlXlXjXfXz j UXUXUXUXUXUXUXUXUXUXUXUXUXUXUX",
"UXUXUXUXUXUXUXUXUXUXUXUXBXBXMXbXFXPXLXKXKXKXKXKXKXKXKXKXKXsXaXuXh f f d UXUXUXUXUXUXUXUXUXUXUXUX",
"UXUXUXUXUXUXUXUXUXUXVXBXMXGXFXZX0.uXuXtXrXrXrXrXrXrXrXrXrXrXwX0X0X0X0Xs a p UXUXUXUXUXUXUXUXUXUX",
"UXUXUXUXUXUXUXUXVXVXMXGXSXw.9.3.,.4X1X,X>X>X>X>X>X>X>X>X>X>X>X2X3X5X7X7X7Xi y = UXUXUXUXUXUXUXUX",
"UXUXUXUXUXUXUXVXBXHXSX0.6.>.&.O. .+XXX X X X X X X X X X X XXX+X$X*X;X<X3X3X3X$ # UXUXUXUXUXUXUX",
"UXUXUXUXUXMXBXMXFXw.6.>.#...{ ) ( _._._._._._._._._._._._._._._.}. X+X$X-X;X>X<X@ O o UXUXUXUXUX",
"UXUXUXUXbXbXGXAX9.1.&...` ( ( ^ ^ _._._._._._._._._._._._._._._._._.}.}.XX@X*X;X-X&X.   UXUXUXUX",
"UXUXUXUXcXFXCX7.;.O.} ) ^ ^ ^ ^ ^ _._._._._._._._._._._._._._._._._._._.}.}.+X$X$X+X_.  UXUXUXUX",
"UXUXUXxXlXw.6.*...` ( ^ ^ ^ ^ dX  dXdX_._._._._._._._._._._._._._._._._._._.}.XXXX X/.    UXUXUX",
"UXUXjXjXw.6.-...) ( ^ ^ ^   dX^ dXdX_.dX  _._._._._._._._._._._._._._._._._._.}.}.}./.I.    UXUX",
"UXUXgXw.9.>.O.` ^ ^ ^ ^ dXdX_.  _._.  _.dXdX_._._._._._._._._._._._._._._._._._._._._.R.A.  UXUX",
"UXk l 9.2.#.{ ( ^ ^ ^   ^ ^ _.IXe.e.IX_.dXdX  _._._._._._._._._._._._._._._._._._._._.R.V.    UX",
"UXf 6.3.-. .) ^ ^ ^ ^ dXdXdX  IX    IX  dX_.dX_._._._._._._._._._._._._._._._._._._._.L.n.g.  UX",
"UXa 1.:.@.` ^ ^ ^ ^ dX^ ^ dX_.IXe.e.IX_.dX_._.dX_._._._._._._._._._._._._._._._._._./.L.v.p.  UX",
"UXi :.*.o.( ^ ^ ^ ^   dXdXdX_.e.  e.e._.dXdXdX  _._._._._._._._._._._._._._._._._._./.J.x.u.  UX",
"UX= -.&...( ^ ^ ^ ^ dX^ ^ dX_.IXe.  IX_.dX_._.dX_._._._._._._._._._._._._._._._._._./.G.z.t.  UX",
"UX= -.#...( ^ ^ ^ ^ dXdXdXdX  IXe.e.IX  dXdXdX  _._._._._._._._._._._._._._._._._._./.G.z.t.  UX",
"UX= *.@. .( ^ ^ ^ ^ ^   ^ dX_.IX    IX_.dX_.dX_._._._._._._._._._._._._._._._._._._./.D.k.t   UX",
"UX$ #.@. .^ ^ ^ ^ ^ ^ dXdXdX_.IXe.e.IX_.dX_.  _._._._._._._._._._._._._._._._._._._.~.A.g.e   UX",
"UX+ @.o.{ ^ ^ ^ ^ ^ ^ ^   ^ _._._._._._.dXdX_._._._._._._._._._._._._._._._._._._._.Q.B.a.0   UX",
"UXX { { ( ^ ^ ^ ^ ^ ^ ^ ^ dXdX^ dXdXdXdX  _._._._._._._._._._._._._._._._._._._._.~.J.x.r 4   UX",
"UX    Y E E E ^ ^ ^ ^ ^ ^ ^ ^   dXdX  _._._._._._._._._._._._._._._._._._._._._./.R.B.p.5     UX",
"UXUX  G J P E ^ ^ ^ ^ ^ ^ ^ ^ ^ ^ _._._._._._._._._._._._._._._._._._._._._._._.Q.D.k.0 <   UXUX",
"UXUX    S H P E ^ ^ ^ ^ ^ ^ ^ ^ ^ _._._._._._._._._._._._._._._._._._._._._./.~.J.v.t 2     UXUX",
"UXUXUX    Z D J P Y ^ ^ ^ ^ ^ ^ ^ _._._._._._._._._._._._._._._._._._._._./.Q.J.b.u.3     UXUXUX",
"UXUXUXUX  N V Z D L Y E ^ ^ ^ ^ ^ _._._._._._._._._._._._._._._._._._./.~.I.A.c.y.4 <   UXUXUXUX",
"UXUXUXUX    b m B A G L Y E ^ ^ ^ _._._._._._._._._._._._._._._._./.~.R.G.m.f.w < <     UXUXUXUX",
"UXUXUXUXUX      c m V A G L Y E ^ _._._._._._._._._._._._._._./.~.R.J.B.k.t.6 <       UXUXUXUXUX",
"UXUXUXUXUXUXUX    , c n N Z S H L Q.~././._._._._._._._./.~.R.L.A.n.j.y.8 < <     UXUXUXUXUXUXUX",
"UXUXUXUXUXUXUXUX      > x v m N V B.C.D.L.Q./._._._._./.Q.J.V.c.a.r 6 < <       UXUXUXUXUXUXUXUX",
"UXUXUXUXUXUXUXUXUXUX      ; : > , u.d.x.C.I./._._._._.~.J.m.d.e 3 < <       UXUXUXUXUXUXUXUXUXUX",
"UXUXUXUXUXUXUXUXUXUXUXUX      - - 6 w d.m.L./._._._./.I.B.d.8 <         UXUXUXUXUXUXUXUXUXUXUXUX",
"UXUXUXUXUXUXUXUXUXUXUXUXUXUXUX            ~.}.}._._.Q.C.g.8       UXUXUXUXUXUXUXUXUXUXUXUXUXUXUX",
"UXUXUXUXUXUXUXUXUXUXUXUXUXUXUXUXUXUXUXUX  @X$XXX_.Q.D.z.q <   UXUXUXUXUXUXUXUXUXUXUXUXUXUXUXUXUX",
"UXUXUXUXUXUXUXUXUXUXUXUXUXUXUXUXUXUXUXUX% 2X;XXX~.D.x.e < <   UXUXUXUXUXUXUXUXUXUXUXUXUXUXUXUXUX",
"UXUXUXUXUXUXUXUXUXUXUXUXUXUXUXUXUXUXUXf wX7X-X/.C.k.w < <   UXUXUXUXUXUXUXUXUXUXUXUXUXUXUXUXUXUX",
"UXUXUXUXUXUXUXUXUXUXUXUXUXUXUXUXUXUXUXfXtX2X/.b.i.7 < <   UXUXUXUXUXUXUXUXUXUXUXUXUXUXUXUXUXUXUX",
"UXUXUXUXUXUXUXUXUXUXUXUXUXUXUXUXUXUXxXpX3XR.g.0 < < <   UXUXUXUXUXUXUXUXUXUXUXUXUXUXUXUXUXUXUXUX",
"UXUXUXUXUXUXUXUXUXUXUXUXUXUXUXUXxXfXwX$Xm.r < < <     UXUXUXUXUXUXUXUXUXUXUXUXUXUXUXUXUXUXUXUXUX",
"UXUXUXUXUXUXUXUXUXUXUXUXUXUXz j 8X*XD.i.3 <       UXUXUXUXUXUXUXUXUXUXUXUXUXUXUXUXUXUXUXUXUXUXUX",
"UXUXUXUXUXUXUXUXUXUX% y y = -X_.B.u.        UXUXUXUXUXUXUXUXUXUXUXUXUXUXUXUXUXUXUXUXUXUXUXUXUXUX",
"UXUXUXUXUXUXUXUXUXUXUX              UXUXUXUXUXUXUXUXUXUXUXUXUXUXUXUXUXUXUXUXUXUXUXUXUXUXUXUXUXUX",
"UXUXUXUXUXUXUXUXUXUXUXUXUXUXUXUXUXUXUXUXUXUXUXUXUXUXUXUXUXUXUXUXUXUXUXUXUXUXUXUXUXUXUXUXUXUXUXUX",
"UXUXUXUXUXUXUXUXUXUXUXUXUXUXUXUXUXUXUXUXUXUXUXUXUXUXUXUXUXUXUXUXUXUXUXUXUXUXUXUXUXUXUXUXUXUXUXUX",
"UXUXUXUXUXUXUXUXUXUXUXUXUXUXUXUXUXUXUXUXUXUXUXUXUXUXUXUXUXUXUXUXUXUXUXUXUXUXUXUXUXUXUXUXUXUXUXUX"
};
