/* XPM */
static char *magick[] = {
/* columns rows colors chars-per-pixel */
"48 48 238 2",
"   c Gray0",
".  c #0c0c0c",
"X  c #1b1b1b",
"o  c #272727",
"O  c #2d2d2d",
"+  c Gray18",
"@  c #313131",
"#  c Gray20",
"$  c #343434",
"%  c #373737",
"&  c #393939",
"*  c #3c3c3c",
"=  c Gray24",
"-  c #000040",
";  c #000042",
":  c #000045",
">  c #000047",
",  c #00004a",
"<  c #00004d",
"1  c #00004e",
"2  c #000051",
"3  c #000053",
"4  c #000056",
"5  c #000059",
"6  c #00005d",
"7  c #00005f",
"8  c #000068",
"9  c #000069",
"0  c #00006b",
"q  c #00006c",
"w  c #000071",
"e  c #000075",
"r  c #000077",
"t  c #00007a",
"y  c #00007b",
"u  c Gray25",
"i  c #434343",
"p  c Gray27",
"a  c #464646",
"s  c #4c4c4c",
"d  c #4e4e4e",
"f  c Gray32",
"g  c Gray33",
"h  c Gray34",
"j  c #5a5a5a",
"k  c #5d5d5d",
"l  c Gray38",
"z  c Gray39",
"x  c Gray40",
"c  c #676767",
"v  c Gray44",
"b  c #727272",
"n  c Gray45",
"m  c #777777",
"M  c Gray47",
"N  c Gray48",
"B  c #7c7c7c",
"V  c Gray50",
"C  c #000081",
"Z  c #000083",
"A  c #000084",
"S  c #000086",
"D  c #000087",
"F  c #00008a",
"G  c #00008d",
"H  c #00008f",
"J  c #000092",
"K  c #000095",
"L  c #000096",
"P  c #00009b",
"I  c #00009c",
"U  c #00009f",
"Y  c #0000a1",
"T  c #0000a2",
"R  c #0000a4",
"E  c #0000a5",
"W  c #0000a8",
"Q  c #0000aa",
"!  c #0000ad",
"~  c #0000ae",
"^  c #0000b0",
"/  c #0000b3",
"(  c #0000b4",
")  c #0000b6",
"_  c #0000b7",
"`  c #0000b9",
"'  c #0000ba",
"]  c #0000bc",
"[  c #0000bd",
"{  c #0000c0",
"}  c #0000c3",
"|  c #0000c5",
" . c #0000c6",
".. c #0000c8",
"X. c #0000c9",
"o. c #0000cb",
"O. c #0000cc",
"+. c #0000ce",
"@. c #0000cf",
"#. c #0000d1",
"$. c #0000d2",
"%. c #0000d4",
"&. c #0000d5",
"*. c #0000d7",
"=. c #0000d8",
"-. c #0000da",
";. c #0000db",
":. c #0000dd",
">. c #0000de",
",. c #0000e1",
"<. c #0000e3",
"1. c #0000e6",
"2. c #0000e9",
"3. c #0000ea",
"4. c #0000ec",
"5. c #0000ed",
"6. c #0000f0",
"7. c #0000f2",
"8. c #0000f3",
"9. c #0000f5",
"0. c #0000f6",
"q. c #0000f8",
"w. c #0000f9",
"e. c #0000fb",
"r. c #0000fc",
"t. c #0000fe",
"y. c Blue",
"u. c #0101ff",
"i. c #0303ff",
"p. c #0404ff",
"a. c #0606ff",
"s. c #0707ff",
"d. c #0909ff",
"f. c #0c0cff",
"g. c #0d0dff",
"h. c #0f0fff",
"j. c #1010ff",
"k. c #1212ff",
"l. c #1313ff",
"z. c #1616ff",
"x. c #1818ff",
"c. c #1c1cff",
"v. c #1e1eff",
"b. c #1f1fff",
"n. c #2222ff",
"m. c #2424ff",
"M. c #2525ff",
"N. c #2828ff",
"B. c #2a2aff",
"V. c #2b2bff",
"C. c #2d2dff",
"Z. c #2e2eff",
"A. c #3030ff",
"S. c #3333ff",
"D. c #3434ff",
"F. c #3636ff",
"G. c #3939ff",
"H. c #3a3aff",
"J. c #3c3cff",
"K. c #3f3fff",
"L. c #4040ff",
"P. c #4343ff",
"I. c #4949ff",
"U. c #4c4cff",
"Y. c #4e4eff",
"T. c #4f4fff",
"R. c #5454ff",
"E. c #5555ff",
"W. c #5757ff",
"Q. c #5858ff",
"!. c #5a5aff",
"~. c #5b5bff",
"^. c #5d5dff",
"/. c #5e5eff",
"(. c #6161ff",
"). c #6363ff",
"_. c #6464ff",
"`. c #6666ff",
"'. c #6d6dff",
"]. c #6f6fff",
"[. c #7272ff",
"{. c #7373ff",
"}. c #7676ff",
"|. c #7878ff",
" X c #7b7bff",
".X c #7f7fff",
"XX c #818181",
"oX c #848484",
"OX c Gray52",
"+X c Gray53",
"@X c #888888",
"#X c Gray54",
"$X c #8b8b8b",
"%X c #8d8d8d",
"&X c #8e8e8e",
"*X c Gray56",
"=X c Gray57",
"-X c Gray58",
";X c Gray59",
":X c #979797",
">X c Gray60",
",X c Gray61",
"<X c #9d9d9d",
"1X c #9f9f9f",
"2X c #a0a0a0",
"3X c Gray63",
"4X c Gray64",
"5X c #a4a4a4",
"6X c #a5a5a5",
"7X c Gray65",
"8X c Gray66",
"9X c #a9a9a9",
"0X c Gray67",
"qX c Gray70",
"wX c #8181ff",
"eX c #8787ff",
"rX c #8888ff",
"tX c #8d8dff",
"yX c #8e8eff",
"uX c #9393ff",
"iX c #9696ff",
"pX c #c0c0c0",
"aX c Gray79",
"sX c #cbcbcb",
"dX c Gray82",
"fX c Gray86",
"gX c Gray87",
"hX c Gray89",
"jX c #e9e9e9",
"kX c Gray94",
"lX c Gray95",
"zX c #f8f8f8",
"xX c #f9f9f9",
"cX c #fbfbfb",
"vX c Gray99",
"bX c #fefefe",
"nX c Gray100",
"mX c None",
/* pixels */
"mXmXmXmXmXmXmXmXmXmXmXmXmXmXmXmXmXmXmXmXmXmXmXmXmXmXmXmXmXmXmXmXmXmXmXmXmXmXmXmXmXmXmXmXmXmXmXmX",
"mXmXmXmXmXmXmXmXmXmXmXmXmXmXmXmXmXmXmXmXmXmXmXmXmXmXmXmXmXmXmXmXmXmXmXmXmXmXmXmXmXmXmXmXmXmXmXmX",
"mXmXmXmXmXmXmXmXmXmXmXmXmXmXmXmXmXmXmXmXmXmXmXmXmXmXmXmXmXmXmXmXmXmXmXmXmXmXmXmXmXmXmXmXmXmXmXmX",
"mXmXmXmXmXmXmXmXmXmXmXmXmXmXmX2X<X-X=X%X%X%X%X%X%X%X%X%X%X@XoXB b mXmXmXmXmXmXmXmXmXmXmXmXmXmXmX",
"mXmXmXmXmXmXmXmXmXmXmX9X9X7X1X>XyXeX.X X X X X X X X X X X X[.'.x z z j mXmXmXmXmXmXmXmXmXmXmXmX",
"mXmXmXmXmXmXmXmXmXmX9X7X2XnXnX X'.)./.~.~.W.~.W.W.~.W.~.~.W.W.W.R.W.W.h f d mXmXmXmXmXmXmXmXmXmX",
"mXmXmXmXmXmXmXmX9X9X2XnXnXnXnXnXF.B.M.n.n.n.n.n.n.n.n.n.n.n.n.B.S.G.nXnXnXa i * mXmXmXmXmXmXmXmX",
"mXmXmXmXmXmXmX9X2XiXwXnXnXnXnXnXnXs.u.u.u.u.u.u.u.u.u.u.u.u.u.s.f.nXnXnXnXnXnX& # mXmXmXmXmXmXmX",
"mXmXmXmXmX9X7X<XrX'.U.S.nXnXnXnXnXnXu.u.u.u.u.u.u.u.u.u.u.u.u.u.nXnXnXnXnXnXZ.F.O o X mXmXmXmXmX",
"mXmXmXmX<X2XuX X~.G.c.f.s.nXnXnXnXnXnXu.u.u.u.u.u.u.u.u.u.u.u.nXnXnXnXnXnXf.z.M.M.c..   mXmXmXmX",
"mXmXmXmX-XyX[.U.B.j.s.u.u.u.nXnXnXnXnXnXu.u.u.u.u.u.u.u.u.u.nXnXnXnXnXnXu.u.s.j.z.j.s.  mXmXmXmX",
"mXmXmX-X@X[.I.M.f.s.u.u.u.u.u.nXnXnXnXnXnXu.u.u.u.u.u.u.u.nXnXnXnXnXnXu.u.u.u.s.d.d.u.    mXmXmX",
"mXmX%X@X}.U.M.f.u.u.u.u.u.u.u.u.nXnXnXnXnXnXu.u.u.u.u.u.nXnXnXnXnXnXu.u.u.u.u.u.u.u.u.3.    mXmX",
"mXmXoX X/.S.j.s.u.u.u.u.u.u.u.u.u.nXnXnXnXnXnXu.u.u.u.nXnXnXnXnXnXu.u.u.u.u.u.u.u.u.u.7.;.  mXmX",
"mXb b `.P.c.s.u.u.u.u.u.u.u.u.u.u.u.nXnXnXnXnXnXu.u.nXnXnXnXnXnXu.u.u.u.u.u.u.u.u.u.s.7.*.    mX",
"mXk ~.U.B.f.u.u.u.u.u.u.u.u.u.u.u.u.u.nXnXnXnXnXnXnXnXnXnXnXnXu.u.u.u.u.u.u.u.u.u.u.u.5.o.Y   mX",
"mXd U.J.c.s.u.u.u.u.u.u.u.u.u.u.u.u.u.u.nXnXnXnXnXnXnXnXnXnXu.u.u.u.u.u.u.u.u.u.u.u.u.5.} L   mX",
"mXi P.S.z.u.u.u.u.u.u.u.u.u.u.u.u.u.u.u.u.nXnXnXnXnXnXnXnXu.u.u.u.u.u.u.u.u.u.u.u.u.u.3.] G   mX",
"mX= G.Z.j.u.u.u.u.u.u.u.u.u.u.u.u.u.u.u.u.u.nXnXnXnXnXnXu.u.u.u.u.u.u.u.u.u.u.u.u.u.u.3.' F   mX",
"mX= G.Z.j.u.u.u.u.u.u.u.u.u.u.u.u.u.u.u.u.nXnXnXnXnXnXnXnXu.u.u.u.u.u.u.u.u.u.u.u.u.u.3.' F   mX",
"mX= G.Z.j.u.u.u.u.u.u.u.u.u.u.u.u.u.u.u.nXnXnXnXnXnXnXnXnXnXu.u.u.u.u.u.u.u.u.u.u.u.u.3.' F   mX",
"mX% F.B.j.u.u.u.u.u.u.u.u.u.u.u.u.u.u.nXnXnXnXnXnXnXnXnXnXnXnXu.u.u.u.u.u.u.u.u.u.u.u.1.^ Z   mX",
"mXO B.n.j.u.u.u.u.u.u.u.u.u.u.u.u.u.nXnXnXnXnXnXu.u.nXnXnXnXnXnXu.u.u.u.u.u.u.u.u.u.e.>.Q r   mX",
"mXX c.z.f.u.u.u.u.u.u.u.u.u.u.u.u.nXnXnXnXnXnXu.u.u.u.nXnXnXnXnXnXu.u.u.u.u.u.u.u.u.7.O.J 6   mX",
"mX    u.u.e.u.u.u.u.u.u.u.u.u.u.nXnXnXnXnXnXu.u.u.u.u.u.nXnXnXnXnXnXu.u.u.u.u.u.u.e.<.! q     mX",
"mXmX  1.5.9.e.u.u.u.u.u.u.u.u.nXnXnXnXnXnXu.u.u.u.u.u.u.u.nXnXnXnXnXnXu.u.u.u.u.e.5.| D :   mXmX",
"mXmX    <.5.e.u.u.u.u.u.u.u.nXnXnXnXnXnXu.u.u.u.u.u.u.u.u.u.nXnXnXnXnXnXu.u.u.u.7.*.I 5     mXmX",
"mXmXmX    *.3.7.e.u.u.u.u.nXnXnXnXnXnXu.u.u.u.u.u.u.u.u.u.u.u.nXnXnXnXnXnXu.e.7.;.Q 8     mXmXmX",
"mXmXmXmX  ] o.;.3.9.u.u.nXnXnXnXnXnXu.u.u.u.u.u.u.u.u.u.u.u.u.u.nXnXnXnXnXxX3.#.R 8 -   mXmXmXmX",
"mXmXmXmX    R _ o.<.7.xXvXnXnXnXnXu.u.u.u.u.u.u.u.u.u.u.u.u.u.u.u.nXnXxXlXgXpXL 6 -     mXmXmXmX",
"mXmXmXmXmX      P _ dXhXkXxXvXnXu.u.u.u.u.u.u.u.u.u.u.u.u.u.u.u.u.e.lXhXaX7Xm a -     mXmXmXmXmX",
"mXmXmXmXmXmXmX    oX,XqXaXfXjX7.e.u.u.u.u.u.u.u.u.u.u.u.u.u.e.9.3.;.| 7XXXh i     mXmXmXmXmXmXmX",
"mXmXmXmXmXmXmXmX      N %X2X_ | #.;.<.5.7.e.u.u.u.u.u.u.e.7.<.O._ L r 2 i       mXmXmXmXmXmXmXmX",
"mXmXmXmXmXmXmXmXmXmX      8 r Z G I ! | >.7.e.u.u.u.u.e.5.;._ J 8 : -       mXmXmXmXmXmXmXmXmXmX",
"mXmXmXmXmXmXmXmXmXmXmXmX      < 4 8 D ^ *.7.u.u.u.u.u.7.>._ t ,         mXmXmXmXmXmXmXmXmXmXmXmX",
"mXmXmXmXmXmXmXmXmXmXmXmXmXmX              9.s.s.u.u.9.<._ t       mXmXmXmXmXmXmXmXmXmXmXmXmXmXmX",
"mXmXmXmXmXmXmXmXmXmXmXmXmXmXmXmXmXmXmXmX  f.j.s.u.e.1.] Z -   mXmXmXmXmXmXmXmXmXmXmXmXmXmXmXmXmX",
"mXmXmXmXmXmXmXmXmXmXmXmXmXmXmXmXmXmXmX% # S.c.d.9.1.} D : -   mXmXmXmXmXmXmXmXmXmXmXmXmXmXmXmXmX",
"mXmXmXmXmXmXmXmXmXmXmXmXmXmXmXmXmXmXmXk h P.c.e.>.' D : -     mXmXmXmXmXmXmXmXmXmXmXmXmXmXmXmXmX",
"mXmXmXmXmXmXmXmXmXmXmXmXmXmXmXmXmXmX%XB `.F.u.O.Y w - -     mXmXmXmXmXmXmXmXmXmXmXmXmXmXmXmXmXmX",
"mXmXmXmXmXmXmXmXmXmXmXmXmXmXmXmXmX<X-X}.J.7.! t < -       mXmXmXmXmXmXmXmXmXmXmXmXmXmXmXmXmXmXmX",
"mXmXmXmXmXmXmXmXmXmXmXmXmXmXmX-X<X@X).c.o.Z < - -       mXmXmXmXmXmXmXmXmXmXmXmXmXmXmXmXmXmXmXmX",
"mXmXmXmXmXmXmXmXmXmXmXmXmXx oXN ~.M.;.G 2 -         mXmXmXmXmXmXmXmXmXmXmXmXmXmXmXmXmXmXmXmXmXmX",
"mXmXmXmXmXmXmXmXmXmXa d d a B.u.| Z           mXmXmXmXmXmXmXmXmXmXmXmXmXmXmXmXmXmXmXmXmXmXmXmXmX",
"mXmXmXmXmXmXmXmXmXmXmX                mXmXmXmXmXmXmXmXmXmXmXmXmXmXmXmXmXmXmXmXmXmXmXmXmXmXmXmXmX",
"mXmXmXmXmXmXmXmXmXmXmXmXmXmXmXmXmXmXmXmXmXmXmXmXmXmXmXmXmXmXmXmXmXmXmXmXmXmXmXmXmXmXmXmXmXmXmXmX",
"mXmXmXmXmXmXmXmXmXmXmXmXmXmXmXmXmXmXmXmXmXmXmXmXmXmXmXmXmXmXmXmXmXmXmXmXmXmXmXmXmXmXmXmXmXmXmXmX",
"mXmXmXmXmXmXmXmXmXmXmXmXmXmXmXmXmXmXmXmXmXmXmXmXmXmXmXmXmXmXmXmXmXmXmXmXmXmXmXmXmXmXmXmXmXmXmXmX"
};
