/* XPM */
static char *magick[] = {
/* columns rows colors chars-per-pixel */
"48 48 231 2",
"   c Gray0",
".  c #0c0c0c",
"X  c #161616",
"o  c #1b1b1b",
"O  c #272727",
"+  c #2a2a2a",
"@  c Gray18",
"#  c #313131",
"$  c Gray21",
"%  c #373737",
"&  c #393939",
"*  c #3c3c3c",
"=  c Gray24",
"-  c #3f3f3f",
";  c #400000",
":  c #420000",
">  c #440000",
",  c #470000",
"<  c #4a0000",
"1  c #4e0000",
"2  c #500000",
"3  c #510000",
"4  c #570000",
"5  c #590000",
"6  c #5a0000",
"7  c #5d0000",
"8  c #620000",
"9  c #630000",
"0  c #680000",
"q  c #6b0000",
"w  c #6c0000",
"e  c #6f0000",
"r  c #710000",
"t  c #720000",
"y  c #740000",
"u  c #750000",
"i  c #780000",
"p  c #7a0000",
"a  c #7b0000",
"s  c #7d0000",
"d  c #7e0000",
"f  c Gray25",
"g  c Gray26",
"h  c Gray27",
"j  c #464646",
"k  c #494949",
"l  c #515151",
"z  c Gray33",
"x  c #585858",
"c  c #606060",
"v  c Gray39",
"b  c #676767",
"n  c #6d6d6d",
"m  c #6f6f6f",
"M  c Gray45",
"N  c #767676",
"B  c Gray47",
"V  c #797979",
"C  c #800000",
"Z  c #810000",
"A  c #830000",
"S  c #840000",
"D  c #860000",
"F  c #870000",
"G  c #890000",
"H  c #8a0000",
"J  c #8d0000",
"K  c #8f0000",
"L  c #920000",
"P  c #950000",
"I  c #960000",
"U  c #980000",
"Y  c #9b0000",
"T  c #9c0000",
"R  c #9f0000",
"E  c #a10000",
"W  c #a20000",
"Q  c #a50000",
"!  c #a70000",
"~  c #a80000",
"^  c #aa0000",
"/  c #ab0000",
"(  c #ad0000",
")  c #b10000",
"_  c #b30000",
"`  c #b40000",
"'  c #b60000",
"]  c #b70000",
"[  c #b90000",
"{  c #ba0000",
"}  c #bd0000",
"|  c #bf0000",
" . c #c20000",
".. c #c30000",
"X. c #c50000",
"o. c #c60000",
"O. c #c90000",
"+. c #cb0000",
"@. c #ce0000",
"#. c #cf0000",
"$. c #d10000",
"%. c #d20000",
"&. c #d50000",
"*. c #d80000",
"=. c #da0000",
"-. c #db0000",
";. c #dd0000",
":. c #de0000",
">. c #e00000",
",. c #e10000",
"<. c #e30000",
"1. c #e40000",
"2. c #e70000",
"3. c #e90000",
"4. c #ea0000",
"5. c #ec0000",
"6. c #ed0000",
"7. c #ef0000",
"8. c #f00000",
"9. c #f20000",
"0. c #f30000",
"q. c #f50000",
"w. c #f60000",
"e. c #f80000",
"r. c #f90000",
"t. c #fb0000",
"y. c #fc0000",
"u. c #fe0000",
"i. c Red",
"p. c #ff0101",
"a. c #ff0303",
"s. c #ff0404",
"d. c #ff0606",
"f. c #ff0707",
"g. c #ff0909",
"h. c #ff0a0a",
"j. c #ff0c0c",
"k. c #ff0d0d",
"l. c #ff0f0f",
"z. c #ff1010",
"x. c #ff1212",
"c. c #ff1313",
"v. c #ff1515",
"b. c #ff1616",
"n. c #ff1818",
"m. c #ff1919",
"M. c #ff1b1b",
"N. c #ff1c1c",
"B. c #ff1e1e",
"V. c #ff1f1f",
"C. c #ff2121",
"Z. c #ff2222",
"A. c #ff2424",
"S. c #ff2525",
"D. c #ff2727",
"F. c #ff2828",
"G. c #ff2b2b",
"H. c #ff3030",
"J. c #ff3131",
"K. c #ff3333",
"L. c #ff3434",
"P. c #ff3636",
"I. c #ff3737",
"U. c #ff3939",
"Y. c #ff3a3a",
"T. c #ff3c3c",
"R. c #ff3d3d",
"E. c #ff3f3f",
"W. c #ff4242",
"Q. c #ff4343",
"!. c #ff4545",
"~. c #ff4646",
"^. c #ff4848",
"/. c #ff4949",
"(. c #ff4b4b",
"). c #ff4c4c",
"_. c #ff5151",
"`. c #ff5555",
"'. c #ff5858",
"]. c #ff5a5a",
"[. c #ff5b5b",
"{. c #ff5d5d",
"}. c #ff5e5e",
"|. c #ff6060",
" X c #ff6363",
".X c #ff6464",
"XX c #ff6767",
"oX c #ff6969",
"OX c #ff6c6c",
"+X c #ff6f6f",
"@X c #ff7070",
"#X c #ff7373",
"$X c #ff7676",
"%X c #ff7979",
"&X c #ff7b7b",
"*X c #ff7c7c",
"=X c #ff7e7e",
"-X c #ff7f7f",
";X c #818181",
":X c Gray51",
">X c #848484",
",X c #888888",
"<X c #8b8b8b",
"1X c #8d8d8d",
"2X c #8e8e8e",
"3X c Gray57",
"4X c #939393",
"5X c #979797",
"6X c #9a9a9a",
"7X c Gray61",
"8X c #9d9d9d",
"9X c #9f9f9f",
"0X c #a0a0a0",
"qX c #a2a2a2",
"wX c Gray64",
"eX c #a5a5a5",
"rX c Gray65",
"tX c Gray66",
"yX c #ff8181",
"uX c #ff8282",
"iX c #ff8787",
"pX c #ff8a8a",
"aX c #ff8d8d",
"sX c #ff8e8e",
"dX c #ff9191",
"fX c #ff9393",
"gX c #ff9494",
"hX c #ff9a9a",
"jX c #ff9c9c",
"kX c Gray100",
"lX c None",
/* pixels */
"lXlXlXlXlXlXlXlXlXlXlXlXlXlXlXlXlXlXlXlXlXlXlXlXlXlXlXlXlXlXlXlXlXlXlXlXlXlXlXlXlXlXlXlXlXlXlXlX",
"lXlXlXlXlXlXlXlXlXlXlXlXlXlXlXlXlXlXlXlXlXlXlXlXlXlXlXlXlXlXlXlXlXlXlXlXlXlXlXlXlXlXlXlXlXlXlXlX",
"lXlXlXlXlXlXlXlXlXlXlXlXlXlXlXlXlXlXlXlXlXlXlXlXlXlXlXlXlXlXlXlXlXlXlXlXlXlXlXlXlXlXlXlXlXlXlXlX",
"lXlXlXlXlXlXlXlXlXlXlXlXlXlXlXwX9X5X4X2X2X2X2X2X2X2X2X2X2X<X;XB m lXlXlXlXlXlXlXlXlXlXlXlXlXlXlX",
"lXlXlXlXlXlXlXlXlXlXlXlXrXrXwX9XfXaXpXyXyXyXyXyXyXyXyXyXyX%X$X@Xb c c x lXlXlXlXlXlXlXlXlXlXlXlX",
"lXlXlXlXlXlXlXlXlXlXtXrXwXhXfXiX%X@XoX.X X X X X X X X X X X{.'.'.'.'.z l k lXlXlXlXlXlXlXlXlXlX",
"lXlXlXlXlXlXlXlXtXtXwXhXaX-X+X'.^.R.P.H.H.H.H.H.H.H.H.H.H.H.H.P.R.Q.^.^.^.j f - lXlXlXlXlXlXlXlX",
"lXlXlXlXlXlXlXtXrXjXaX%X X^.Y.A.N.c.k.g.g.g.g.g.g.g.g.g.g.g.k.c.M.Z.G.P.R.R.R.$ # lXlXlXlXlXlXlX",
"lXlXlXlXlXwXrXwXgX-X.X^.G.N.c.g.d.i.i.i.i.i.i.i.i.i.i.i.i.i.i.i.d.g.c.M.A.G.H.P.@ O o lXlXlXlXlX",
"lXlXlXlX6X9XhXpX+X_.P.N.c.g.d.i.i.i.i.i.i.i.i.i.i.i.i.i.i.i.i.i.i.i.d.d.k.v.Z.A.A.N..   lXlXlXlX",
"lXlXlXlX5XfXyX.XQ.A.v.g.d.kXkXkXkXkXi.i.i.i.i.i.i.i.i.i.i.i.i.i.i.i.i.i.d.g.c.M.M.c.i.  lXlXlXlX",
"lXlXlX4X2X-X XY.N.k.d.kXkXkXkXi.i.i.i.i.i.i.i.i.i.i.i.kXi.i.i.i.i.i.i.i.i.i.d.k.k.g.e.    lXlXlX",
"lXlX<X<X-X XR.N.g.kXkXkXkXi.i.i.i.i.i.i.i.i.i.i.i.i.i.kXi.i.i.i.i.i.i.i.i.i.i.d.d.d.e.3.    lXlX",
"lXlX>X-X+X^.A.k.kXkXkXkXi.i.i.i.i.i.i.i.i.i.i.i.i.i.i.kXi.i.i.i.i.i.i.i.i.i.i.i.i.i.i.7.&.  lXlX",
"lXM N +X`.H.c.kXkXkXkXi.i.i.i.i.i.i.i.i.i.i.kXkXkXkXkXkXkXkXkXkXkXi.i.i.i.i.i.i.i.i.i.7.@.    lX",
"lXc  X'.R.M.g.kXkXkXkXi.i.i.i.i.i.i.i.i.i.i.i.i.kXkXkXkXkXkXkXi.i.i.i.i.i.i.i.i.i.i.i.1. .E   lX",
"lXl _.~.G.k.kXkXkXkXi.i.i.i.i.i.i.i.i.i.i.i.i.i.i.i.kXkXkXi.i.i.i.i.i.i.i.i.i.i.i.i.e.<.[ L   lX",
"lXj ~.Y.Z.g.kXkXkXkXi.i.i.i.i.i.i.i.i.i.i.i.i.i.i.i.kXkXkXi.i.i.i.i.i.i.i.i.i.i.i.i.e.<.' S   lX",
"lX- R.P.N.d.kXkXkXkXi.i.i.i.i.i.i.i.i.i.i.i.i.i.i.kXkXkXkXkXi.i.i.i.i.i.i.i.i.i.i.i.e.:.( C   lX",
"lX- R.H.N.d.kXkXkXkXi.i.i.i.i.i.i.i.i.i.i.i.i.i.kXkXi.i.i.kXkXi.i.i.i.i.i.i.i.i.i.i.e.:.( C   lX",
"lX- Y.H.M.d.i.kXkXkXkXi.i.i.i.i.i.i.i.i.i.i.i.kXkXi.i.i.i.i.kXkXi.i.i.i.i.i.i.i.i.i.e.-.~ s   lX",
"lX$ H.G.M.d.i.kXkXkXkXi.i.i.i.i.i.i.i.i.i.i.i.i.i.i.i.i.i.i.i.i.i.i.i.i.i.i.i.i.i.i.w.&.E u   lX",
"lX+ A.Z.c.i.i.i.kXkXkXkXi.i.i.i.i.i.i.i.i.i.i.i.i.i.i.i.i.i.i.i.i.i.i.i.i.i.i.i.i.e.0.+.P q   lX",
"lXX c.c.g.i.i.i.i.kXkXkXkXi.i.i.i.i.i.i.i.i.i.i.i.i.i.i.i.i.i.i.i.i.i.i.i.i.i.i.i.w.<._ p 2   lX",
"lX    w.e.e.e.i.i.i.i.kXkXkXkXi.i.i.i.i.i.i.i.i.i.i.i.i.i.i.i.i.i.i.i.i.i.i.i.i.e.7.+.L 4     lX",
"lXlX  <.3.0.e.i.i.i.i.i.i.kXkXkXkXkXi.i.i.i.i.i.i.i.i.i.i.i.i.i.i.i.i.i.i.i.i.e.0.-.~ q ;   lXlX",
"lXlX    -.1.0.e.i.i.i.i.i.i.i.i.i.i.i.i.i.i.i.i.i.i.i.i.i.i.i.i.i.i.i.i.i.i.e.w.<.[ s ,     lXlX",
"lXlXlX    $.:.3.0.w.i.i.i.i.i.i.i.i.i.i.i.i.i.i.i.i.i.i.i.i.i.i.i.i.i.i.i.e.0.<.} H 1     lXlXlX",
"lXlXlXlX  ' } @.:.7.w.e.i.i.i.i.i.i.i.i.i.i.i.i.i.i.i.i.i.i.i.i.i.i.i.e.w.3.&.' C 2 ;   lXlXlXlX",
"lXlXlXlX    Y Q [ $.<.7.w.e.i.i.i.i.i.i.i.i.i.i.i.i.i.i.i.i.i.i.i.e.w.7.:.X.R r ; ;     lXlXlXlX",
"lXlXlXlXlX      J Q } $.<.7.w.e.i.i.i.i.i.i.i.i.i.i.i.i.i.i.i.e.w.7.<.+.~ S 5 ;       lXlXlXlXlX",
"lXlXlXlXlXlXlX    s J E ' +.-.1.7.0.w.e.e.i.i.i.i.i.i.i.e.w.7.1.&. .Q S 8 ; ;     lXlXlXlXlXlXlX",
"lXlXlXlXlXlXlXlX      r C L Q ' } +.$.-.1.0.e.i.i.i.i.e.0.<.@.' P p 5 ; ;       lXlXlXlXlXlXlXlX",
"lXlXlXlXlXlXlXlXlXlX      8 w u s H Y _ $.3.e.i.i.i.i.w.<.X.Y u 1 ; ;       lXlXlXlXlXlXlXlXlXlX",
"lXlXlXlXlXlXlXlXlXlXlXlX      , < 5 r Y X.1.e.i.i.i.e.3.+.Y 8 ;         lXlXlXlXlXlXlXlXlXlXlXlX",
"lXlXlXlXlXlXlXlXlXlXlXlXlXlXlX            w.d.d.i.i.0.$.E 8       lXlXlXlXlXlXlXlXlXlXlXlXlXlXlX",
"lXlXlXlXlXlXlXlXlXlXlXlXlXlXlXlXlXlXlXlX  v.M.k.i.0.-.( w ;   lXlXlXlXlXlXlXlXlXlXlXlXlXlXlXlXlX",
"lXlXlXlXlXlXlXlXlXlXlXlXlXlXlXlXlXlXlXlX& Y.G.k.w.-._ u ; ;   lXlXlXlXlXlXlXlXlXlXlXlXlXlXlXlXlX",
"lXlXlXlXlXlXlXlXlXlXlXlXlXlXlXlXlXlXlXv {.^.A.e.$.~ r ; ;   lXlXlXlXlXlXlXlXlXlXlXlXlXlXlXlXlXlX",
"lXlXlXlXlXlXlXlXlXlXlXlXlXlXlXlXlXlXlX;X.XY.e.} J 7 ; ;   lXlXlXlXlXlXlXlXlXlXlXlXlXlXlXlXlXlXlX",
"lXlXlXlXlXlXlXlXlXlXlXlXlXlXlXlXlXlX4X@XR.7.E q ; ; ;   lXlXlXlXlXlXlXlXlXlXlXlXlXlXlXlXlXlXlXlX",
"lXlXlXlXlXlXlXlXlXlXlXlXlXlXlXlX4X;X{.M.X.u ; ; ;     lXlXlXlXlXlXlXlXlXlXlXlXlXlXlXlXlXlXlXlXlX",
"lXlXlXlXlXlXlXlXlXlXlXlXlXlXB m `.Z.-.J 2 ;       lXlXlXlXlXlXlXlXlXlXlXlXlXlXlXlXlXlXlXlXlXlXlX",
"lXlXlXlXlXlXlXlXlXlX& f f - A.i.+.H         lXlXlXlXlXlXlXlXlXlXlXlXlXlXlXlXlXlXlXlXlXlXlXlXlXlX",
"lXlXlXlXlXlXlXlXlXlXlX              lXlXlXlXlXlXlXlXlXlXlXlXlXlXlXlXlXlXlXlXlXlXlXlXlXlXlXlXlXlX",
"lXlXlXlXlXlXlXlXlXlXlXlXlXlXlXlXlXlXlXlXlXlXlXlXlXlXlXlXlXlXlXlXlXlXlXlXlXlXlXlXlXlXlXlXlXlXlXlX",
"lXlXlXlXlXlXlXlXlXlXlXlXlXlXlXlXlXlXlXlXlXlXlXlXlXlXlXlXlXlXlXlXlXlXlXlXlXlXlXlXlXlXlXlXlXlXlXlX",
"lXlXlXlXlXlXlXlXlXlXlXlXlXlXlXlXlXlXlXlXlXlXlXlXlXlXlXlXlXlXlXlXlXlXlXlXlXlXlXlXlXlXlXlXlXlXlXlX"
};
