/* XPM */
static char *magick[] = {
/* columns rows colors chars-per-pixel */
"48 48 238 2",
"   c Gray0",
".  c #0c0c0c",
"X  c #161616",
"o  c #1b1b1b",
"O  c #272727",
"+  c #2a2a2a",
"@  c Gray18",
"#  c #313131",
"$  c Gray21",
"%  c #373737",
"&  c #393939",
"*  c #3c3c3c",
"=  c Gray24",
"-  c #3f3f3f",
";  c #000040",
":  c #000051",
">  c #000057",
",  c #000068",
"<  c #00006b",
"1  c #000075",
"2  c #00007b",
"3  c #00007e",
"4  c #400000",
"5  c #420000",
"6  c #440000",
"7  c #470000",
"8  c #4a0000",
"9  c #4e0000",
"0  c #500000",
"q  c #590000",
"w  c #5a0000",
"e  c #5d0000",
"r  c #620000",
"t  c #630000",
"y  c #6b0000",
"u  c #6c0000",
"i  c #6f0000",
"p  c #710000",
"a  c #720000",
"s  c #740000",
"d  c #750000",
"f  c #780000",
"g  c #7a0000",
"h  c #7d0000",
"j  c #7e0000",
"k  c Gray25",
"l  c Gray26",
"z  c Gray27",
"x  c #464646",
"c  c #494949",
"v  c #515151",
"b  c Gray33",
"n  c #585858",
"m  c #606060",
"M  c Gray39",
"N  c #676767",
"B  c #6d6d6d",
"V  c #6f6f6f",
"C  c Gray45",
"Z  c #767676",
"A  c Gray47",
"S  c #797979",
"D  c #000080",
"F  c #000081",
"G  c #000087",
"H  c #000092",
"J  c #000095",
"K  c #0000a1",
"L  c #0000a2",
"P  c #0000aa",
"I  c #0000ad",
"U  c #0000b3",
"Y  c #0000b4",
"T  c #0000b9",
"R  c #0000c3",
"E  c #0000c9",
"W  c #0000cb",
"Q  c #0000d5",
"!  c #0000d8",
"~  c #0000db",
"^  c #0000dd",
"/  c #0000de",
"(  c #0000e0",
")  c #0000e1",
"_  c #0000e3",
"`  c #0000e7",
"'  c #0000e9",
"]  c #0000ec",
"[  c #0000f0",
"{  c #0000f2",
"}  c #0000f5",
"|  c #0000f6",
" . c #0000f8",
".. c #0000f9",
"X. c #0000fb",
"o. c #0000fc",
"O. c #0000fe",
"+. c Blue",
"@. c #0101ff",
"#. c #0303ff",
"$. c #0404ff",
"%. c #0606ff",
"&. c #0909ff",
"*. c #0f0fff",
"=. c #1010ff",
"-. c #1212ff",
";. c #1313ff",
":. c #1818ff",
">. c #1b1bff",
",. c #1c1cff",
"<. c #2121ff",
"1. c #2222ff",
"2. c #2727ff",
"3. c #2b2bff",
"4. c #3131ff",
"5. c #3333ff",
"6. c #3434ff",
"7. c #3a3aff",
"8. c #3c3cff",
"9. c #3d3dff",
"0. c #4545ff",
"q. c #4646ff",
"w. c #5151ff",
"e. c #5858ff",
"r. c #6363ff",
"t. c #800000",
"y. c #830000",
"u. c #840000",
"i. c #860000",
"p. c #890000",
"a. c #8a0000",
"s. c #8d0000",
"d. c #8f0000",
"f. c #920000",
"g. c #960000",
"h. c #980000",
"j. c #9b0000",
"k. c #9c0000",
"l. c #9f0000",
"z. c #a10000",
"x. c #a50000",
"c. c #a70000",
"v. c #a80000",
"b. c #ab0000",
"n. c #ad0000",
"m. c #b10000",
"M. c #b30000",
"N. c #b40000",
"B. c #b60000",
"V. c #b70000",
"C. c #b90000",
"Z. c #ba0000",
"A. c #bd0000",
"S. c #bf0000",
"D. c #c20000",
"F. c #c50000",
"G. c #c60000",
"H. c #c90000",
"J. c #cb0000",
"K. c #ce0000",
"L. c #d10000",
"P. c #d20000",
"I. c #d50000",
"U. c #d80000",
"Y. c #da0000",
"T. c #db0000",
"R. c #de0000",
"E. c #e00000",
"W. c #e10000",
"Q. c #e30000",
"!. c #e40000",
"~. c #e70000",
"^. c #e90000",
"/. c #ea0000",
"(. c #ec0000",
"). c #ed0000",
"_. c #ef0000",
"`. c #f00000",
"'. c #f20000",
"]. c #f30000",
"[. c #f50000",
"{. c #f60000",
"}. c #f80000",
"|. c #f90000",
" X c #fb0000",
".X c #fc0000",
"XX c #fe0000",
"oX c Red",
"OX c #ff0101",
"+X c #ff0303",
"@X c #ff0707",
"#X c #ff0d0d",
"$X c #ff0f0f",
"%X c #ff1515",
"&X c #ff1818",
"*X c #ff1919",
"=X c #ff2121",
"-X c #ff2525",
";X c #ff2727",
":X c #ff2828",
">X c #ff3939",
",X c #ff3c3c",
"<X c #ff4b4b",
"1X c #ff5555",
"2X c #ff5d5d",
"3X c #ff5e5e",
"4X c #ff6767",
"5X c #ff7373",
"6X c #818181",
"7X c Gray51",
"8X c #848484",
"9X c #888888",
"0X c #8b8b8b",
"qX c #8d8d8d",
"wX c #8e8e8e",
"eX c Gray57",
"rX c #939393",
"tX c #979797",
"yX c #9a9a9a",
"uX c Gray61",
"iX c #9d9d9d",
"pX c #9f9f9f",
"aX c #a0a0a0",
"sX c #a2a2a2",
"dX c Gray64",
"fX c #a5a5a5",
"gX c Gray65",
"hX c Gray66",
"jX c Gray81",
"kX c #d5d5d5",
"lX c #e9e9e9",
"zX c #ececec",
"xX c Gray93",
"cX c #f9f9f9",
"vX c #fbfbfb",
"bX c Gray99",
"nX c Gray100",
"mX c None",
/* pixels */
"mXmXmXmXmXmXmXmXmXmXmXmXmXmXmXmXmXmXmXmXmXmXmXmXmXmXmXmXmXmXmXmXmXmXmXmXmXmXmXmXmXmXmXmXmXmXmXmX",
"mXmXmXmXmXmXmXmXmXmXmXmXmXmXmXmXmXmXmXmXmXmXmXmXmXmXmXmXmXmXmXmXmXmXmXmXmXmXmXmXmXmXmXmXmXmXmXmX",
"mXmXmXmXmXmXmXmXmXmXmXmXmXmXmXmXmXmXmXmXmXmXmXmXmXmXmXmXmXmXmXmXmXmXmXmXmXmXmXmXmXmXmXmXmXmXmXmX",
"mXmXmXmXmXmXmXmXmXmXmXmXmXmXmXdXpXtXrXwXwXwXwXwXwXwXwXwXwX0X6XA V mXmXmXmXmXmXmXmXmXmXmXmXmXmXmX",
"mXmXmXmXmXmXmXmXmXmXmXmXgXgXdXpXnXnXnXnXnXnXnXnXnXnXnXnXnXnXnXnXN m m n mXmXmXmXmXmXmXmXmXmXmXmX",
"mXmXmXmXmXmXmXmXmXmXhXgXdXnXnXnXnXnXnXnXnXnXnXnXnXnXnXnXnXnXnXnXnXnXnXb v c mXmXmXmXmXmXmXmXmXmX",
"mXmXmXmXmXmXmXmXhXhXdXnXnXnXnXnXnXnXnXnXnXnXnXnXnXnXnXnXnXnXnXnXnXnXnXnXnXx k - mXmXmXmXmXmXmXmX",
"mXmXmXmXmXmXmXhXgXnXnXnXnXnXnXnXnXnXnXnXnXnXnXnXnXnXnXnXnXnXnXnXnXnXnXnXnXnXnX$ # mXmXmXmXmXmXmX",
"mXmXmXmXmXdXgXdXnXnXnXnXnXnXnXnXnXnXnXnXnXnXnXnXnXnXnXnXnXnXnXnXnXnXnXnXnXnXnXnX@ O o mXmXmXmXmX",
"mXmXmXmXyXpXnXnXnXnXnXnXnXnXnXnXnXnXnXnXnXnXnXnXnXnXnXnXnXnXnXnXnXnXnXnXnXnXnXnXnXnX.   mXmXmXmX",
"mXmXmXmXtXnXnXnXnXnXnXnXnXnXnXnXnXnXnXnXnXnXnXnXnXnXnXnXnXnXnXnXnXnXnXnXnXnXnXnXnXnXnX  mXmXmXmX",
"mXmXmXrXwXnXnXnXnXnXnXnXnXnXnXnXnXnXnXnXnXnXnXnXnXnXnXnXnXnXnXnXnXnXnXnXnXnXnXnXnXnXvX    mXmXmX",
"mXmX0X0XnXnXnXnXnXnXnXnXnXnXnXnXnXnXnXnXnXnXnXnXnXnXnXnXnXnXnXnXnXnXnXnXnXnXnXnXnXnXvXlX    mXmX",
"mXmX8XnXnXnXnXnXnXnXnXnXnXnXnXnXnXnXnXnXnXnXnXnXnXnXnXnXnXnXnXnXnXnXnXnXnXnXnXnXnXnXnXzXkX  mXmX",
"mXC Z nXnXnXnXnXnXnXnXnXnXnXnXnXnXnXnXnXnXnXnXnXnXnXnXnXnXnXnXnXnXnXnXnXnXnXnXnXnXnXnXzXjX    mX",
"mXm r.e.9.>.&.#.#.#.#.#.#.#.#.#.#.#.#.#.#.#.#.#.#.#.#.#.#.#.#.#.#.#.#.#.#.#.#.#.#.#.#.` R L   mX",
"mXv w.q.3.*.#.#.#.#.#.#.#.#.#.#.#.#.#.#.#.#.#.#.#.#.#.#.#.#.#.#.#.#.#.#.#.#.#.#.#.#. .( T H   mX",
"mXx q.7.<.%.#.#.#.#.#.#.#.#.#.#.#.#.#.#.#.#.#.#.#.#.#.#.#.#.#.#.#.#.#.#.#.#.#.#.#.#.#.( U G   mX",
"mX- 9.6.,.%.#.#.#.#.#.#.#.#.#.#.#.#.#.#.#.#.#.#.#.#.#.#.#.#.#.#.#.#.#.#.#.#.#.#.#.#. ./ I D   mX",
"mX- 9.5.,.%.#.#.#.#.#.#.#.#.#.#.#.#.#.#.#.#.#.#.#.#.#.#.#.#.#.#.#.#.#.#.#.#.#.#.#.#. ./ I D   mX",
"mX- 7.5.>.%.#.#.#.#.#.#.#.#.#.#.#.#.#.#.#.#.#.#.#.#.#.#.#.#.#.#.#.#.#.#.#.#.#.#.#.#. .! P 3   mX",
"mX$ 5.3.>.#.#.#.#.#.#.#.#.#.#.#.#.#.#.#.#.#.#.#.#.#.#.#.#.#.#.#.#.#.#.#.#.#.#.#.#.#.} Q L 1   mX",
"mX+ 2.<.-.#.#.#.#.#.#.#.#.#.#.#.#.#.#.#.#.#.#.#.#.#.#.#.#.#.#.#.#.#.#.#.#.#.#.#.#.#.] E J <   mX",
"mXX -.*.%.#.#.#.#.#.#.#.#.#.#.#.#.#.#.#.#.#.#.#.#.#.#.#.#.#.#.#.#.#.#.#.#.#.#.#.#.} ( Y 3 :   mX",
"mX    }  . . .#.#.#.#.#.#.#.#.#.#.#.#.#.#.#.#.#.#.#.#.#.#.#.#.#.#.#.#.#.#.#.#.#. .] E H >     mX",
"mXmX  ( ' {  .#.#.#.#.#.#.#.#.#.#.#.#.#.#.#.#.#.#.#.#.#.#.#.#.#.#.#.#.#.#.#.#.#.{ ! P < ;   mXmX",
"mXmX    U.!.`. X.X.X.X.X.X.X.X.X.X.X.X.X.X.X.X.X.X.X.X.X.X.X.X.X.X.X.X.X.X.X X{.Q.C.h 7     mXmX",
"mXmXmX    L.T./.`. X.X.X.X.X.X.X.X.X.X.X.X.X.X.X.X.X.X.X.X.X.X.X.X.X.X.X X X_.Q.A.a.9     mXmXmX",
"mXmXmXmX  C.A.K.T._.{. X.X.X.X.X.X.X.X.X.X.X.X.X.X.X.X.X.X.X.X.X.X.X.X X{./.I.B.u.0 4   mXmXmXmX",
"mXmXmXmX    j.x.C.L.Q._. X.X.X.X.X.X.X.X.X.X.X.X.X.X.X.X.X.X.X.X.X X X_.T.F.k.p 4 4     mXmXmXmX",
"mXmXmXmXmX      s.x.A.L.Q._.{..X.X.X.X.X.X.X.X.X.X.X.X.X.X.X.X X{._.Q.K.n.t.q 4       mXmXmXmXmX",
"mXmXmXmXmXmXmX    h s.z.B.J.T.!.`.{.{. X X.X.X.X.X.X.X.X.X{.`.!.I.D.x.u.r 4 4     mXmXmXmXmXmXmX",
"mXmXmXmXmXmXmXmX      p t.f.x.B.A.J.L.U.!.`. X.X.X.X.X X`.Q.K.B.g.g q 4 4       mXmXmXmXmXmXmXmX",
"mXmXmXmXmXmXmXmXmXmX      r u d h a.j.M.L./. X.X.X.X.X{.Q.F.k.d 9 4 4       mXmXmXmXmXmXmXmXmXmX",
"mXmXmXmXmXmXmXmXmXmXmXmX      7 8 q p j.F.!..X.X.X.X X/.J.j.r 4         mXmXmXmXmXmXmXmXmXmXmXmX",
"mXmXmXmXmXmXmXmXmXmXmXmXmXmXmX            {.@X@X.X.X`.L.z.r       mXmXmXmXmXmXmXmXmXmXmXmXmXmXmX",
"mXmXmXmXmXmXmXmXmXmXmXmXmXmXmXmXmXmXmXmX  %X*X$X.X{.U.n.u 4   mXmXmXmXmXmXmXmXmXmXmXmXmXmXmXmXmX",
"mXmXmXmXmXmXmXmXmXmXmXmXmXmXmXmXmXmXmXmX& >X:X$X{.T.M.d 4 4   mXmXmXmXmXmXmXmXmXmXmXmXmXmXmXmXmX",
"mXmXmXmXmXmXmXmXmXmXmXmXmXmXmXmXmXmXmXm 2X<X;X XL.v.p 4 4   mXmXmXmXmXmXmXmXmXmXmXmXmXmXmXmXmXmX",
"mXmXmXmXmXmXmXmXmXmXmXmXmXmXmXmXmXmXmX6X4X>X XA.s.e 4 4   mXmXmXmXmXmXmXmXmXmXmXmXmXmXmXmXmXmXmX",
"mXmXmXmXmXmXmXmXmXmXmXmXmXmXmXmXmXmXrX5X,X_.z.y 4 4 4   mXmXmXmXmXmXmXmXmXmXmXmXmXmXmXmXmXmXmXmX",
"mXmXmXmXmXmXmXmXmXmXmXmXmXmXmXmXrX6X2X*XF.d 4 4 4     mXmXmXmXmXmXmXmXmXmXmXmXmXmXmXmXmXmXmXmXmX",
"mXmXmXmXmXmXmXmXmXmXmXmXmXmXA V 1X=XU.s.0 4       mXmXmXmXmXmXmXmXmXmXmXmXmXmXmXmXmXmXmXmXmXmXmX",
"mXmXmXmXmXmXmXmXmXmX& k k - ;X.XJ.a.        mXmXmXmXmXmXmXmXmXmXmXmXmXmXmXmXmXmXmXmXmXmXmXmXmXmX",
"mXmXmXmXmXmXmXmXmXmXmX              mXmXmXmXmXmXmXmXmXmXmXmXmXmXmXmXmXmXmXmXmXmXmXmXmXmXmXmXmXmX",
"mXmXmXmXmXmXmXmXmXmXmXmXmXmXmXmXmXmXmXmXmXmXmXmXmXmXmXmXmXmXmXmXmXmXmXmXmXmXmXmXmXmXmXmXmXmXmXmX",
"mXmXmXmXmXmXmXmXmXmXmXmXmXmXmXmXmXmXmXmXmXmXmXmXmXmXmXmXmXmXmXmXmXmXmXmXmXmXmXmXmXmXmXmXmXmXmXmX",
"mXmXmXmXmXmXmXmXmXmXmXmXmXmXmXmXmXmXmXmXmXmXmXmXmXmXmXmXmXmXmXmXmXmXmXmXmXmXmXmXmXmXmXmXmXmXmXmX"
};
