/* XPM */
static char *magick[] = {
/* columns rows colors chars-per-pixel */
"48 48 203 2",
"   c #400000",
".  c #420000",
"X  c #450000",
"o  c #470000",
"O  c #4a0000",
"+  c #4b0000",
"@  c #500000",
"#  c #510000",
"$  c #530000",
"%  c #540000",
"&  c #560000",
"*  c #590000",
"=  c #5c0000",
"-  c #5d0000",
";  c #5f0000",
":  c #600000",
">  c #620000",
",  c #630000",
"<  c #650000",
"1  c #660000",
"2  c #680000",
"3  c #690000",
"4  c #6b0000",
"5  c #6c0000",
"6  c #6f0000",
"7  c #710000",
"8  c #740000",
"9  c #750000",
"0  c #770000",
"q  c #780000",
"w  c #7b0000",
"e  c #7e0000",
"r  c #810000",
"t  c #830000",
"y  c #840000",
"u  c #860000",
"i  c #870000",
"p  c #8a0000",
"a  c #8c0000",
"s  c #8f0000",
"d  c #900000",
"f  c #920000",
"g  c #950000",
"h  c #960000",
"j  c #980000",
"k  c #990000",
"l  c #9b0000",
"z  c #9c0000",
"x  c #9e0000",
"c  c #9f0000",
"v  c #a20000",
"b  c #a40000",
"n  c #a50000",
"m  c #a70000",
"M  c #a80000",
"N  c #aa0000",
"B  c #ad0000",
"V  c #b10000",
"C  c #b30000",
"Z  c #b40000",
"A  c #b60000",
"S  c #b70000",
"D  c #b90000",
"F  c #ba0000",
"G  c #bc0000",
"H  c #c00000",
"J  c #c20000",
"K  c #c50000",
"L  c #c60000",
"P  c #c80000",
"I  c #c90000",
"U  c #cb0000",
"Y  c #cc0000",
"T  c #ce0000",
"R  c #cf0000",
"E  c #d10000",
"W  c #d20000",
"Q  c #d40000",
"!  c #d70000",
"~  c #d80000",
"^  c #da0000",
"/  c #db0000",
"(  c #dd0000",
")  c #de0000",
"_  c #e10000",
"`  c #e30000",
"'  c #e60000",
"]  c #e90000",
"[  c #ea0000",
"{  c #ec0000",
"}  c #ed0000",
"|  c #ef0000",
" . c #f00000",
".. c #f20000",
"X. c #f30000",
"o. c #f50000",
"O. c #f60000",
"+. c #f80000",
"@. c #f90000",
"#. c #fb0000",
"$. c #fc0000",
"%. c #fe0000",
"&. c Red",
"*. c #ff0101",
"=. c #ff0303",
"-. c #ff0404",
";. c #ff0606",
":. c #ff0707",
">. c #ff0909",
",. c #ff0a0a",
"<. c #ff0c0c",
"1. c #ff0d0d",
"2. c #ff1010",
"3. c #ff1212",
"4. c #ff1313",
"5. c #ff1616",
"6. c #ff1818",
"7. c #ff1919",
"8. c #ff1b1b",
"9. c #ff1c1c",
"0. c #ff1e1e",
"q. c #ff1f1f",
"w. c #ff2222",
"e. c #ff2424",
"r. c #ff2525",
"t. c #ff2727",
"y. c #ff2828",
"u. c #ff2a2a",
"i. c #ff2b2b",
"p. c #ff2d2d",
"a. c #ff2e2e",
"s. c #ff3030",
"d. c #ff3131",
"f. c #ff3333",
"g. c #ff3434",
"h. c #ff3636",
"j. c #ff3737",
"k. c #ff3939",
"l. c #ff3a3a",
"z. c #ff3c3c",
"x. c #ff3d3d",
"c. c #ff3f3f",
"v. c #ff4040",
"b. c #ff4242",
"n. c #ff4343",
"m. c #ff4545",
"M. c #ff4646",
"N. c #ff4949",
"B. c #ff4c4c",
"V. c #ff4e4e",
"C. c #ff4f4f",
"Z. c #ff5252",
"A. c #ff5454",
"S. c #ff5555",
"D. c #ff5757",
"F. c #ff5858",
"G. c #ff5a5a",
"H. c #ff5b5b",
"J. c #ff5d5d",
"K. c #ff5e5e",
"L. c #ff6060",
"P. c #ff6161",
"I. c #ff6363",
"U. c #ff6666",
"Y. c #ff6767",
"T. c #ff6d6d",
"R. c #ff6f6f",
"E. c #ff7070",
"W. c #ff7272",
"Q. c #ff7373",
"!. c #ff7676",
"~. c #ff7878",
"^. c #ff7b7b",
"/. c #ff7c7c",
"(. c #ff7f7f",
"). c Yellow",
"_. c #ffff22",
"`. c #ff8181",
"'. c #ff8282",
"]. c #ff8484",
"[. c #ff8787",
"{. c #ff8888",
"}. c #ff8a8a",
"|. c #ff8b8b",
" X c #ff8d8d",
".X c #ff8e8e",
"XX c #ff9191",
"oX c #ff9393",
"OX c #ff9494",
"+X c #ff9696",
"@X c #ff9797",
"#X c #ff9999",
"$X c #ff9c9c",
"%X c #ff9d9d",
"&X c #ff9f9f",
"*X c #ffa0a0",
"=X c #ffa3a3",
"-X c #ffa5a5",
";X c #ffa6a6",
":X c #ffa8a8",
">X c #ffa9a9",
",X c #ffabab",
"<X c None",
/* pixels */
"<X<X<X<X<X<X<X<X<X<X<X<X<X<X<X<X<X<X<X<X<X<X<X<X<X<X<X<X<X<X<X<X<X<X<X<X<X<X<X<X<X<X<X<X<X<X<X<X",
"<X<X<X<X<X<X<X<X<X<X<X<X<X<X<X<X<X<X<X<X<X<X<X<X<X<X<X<X<X<X<X<X<X<X<X<X<X<X<X<X<X<X<X<X<X<X<X<X",
"<X<X<X<X<X<X<X<X<X<X<X<X<X<X<X<X<X<X<X<X<X<X<X<X<X<X<X<X<X<X<X<X<X<X<X<X<X<X<X<X<X<X<X<X<X<X<X<X",
"<X<X<X<X<X<X<X<X<X<X<X<X<X<X<X<X<X<X<X<X<X<X<X<X<X<X<X<X<X<X<X<X<X<X<X<X<X<X<X<X<X<X<X<X<X<X<X<X",
"<X<X<X<X<X<X<X<X<X<X<X<X<X<X<X<X=X&XOXoX X X X X X X X X|.].(.T.<X<X<X<X<X<X<X<X<X<X<X<X<X<X<X<X",
"<X<X<X<X<X<X<X<X<X<X<X<X<X:X;X&X#X X].(.^.^.^.^.^.^.^.^.^.W.T.U.I.I.F.<X<X<X<X<X<X<X<X<X<X<X<X<X",
"<X<X<X<X<X<X<X<X<X<X<X:X;X=XOX|.^.T.I.K.F.F.F.F.F.F.F.F.S.S.S.S.S.S.Z.Z.C.<X<X<X<X<X<X<X<X<X<X<X",
"<X<X<X<X<X<X<X<X<X:X:X=XoX`.T.F.M.g.u.r.w.w.w._.w.w.w.w.w.w.u.f.k.n.M.N.M.n.x.<X<X<X<X<X<X<X<X<X",
"<X<X<X<X<X<X<X<X:X=XOX`.U.N.g.w.3.>.:.*.*.*.*.).*.*.*.*.*.*.:.1.3.9.u.g.k.k.k.f.<X<X<X<X<X<X<X<X",
"<X<X<X<X<X<X:X;X&X|.T.C.f.7.1.:.*.*.*.*.*.*.).).).*.*.*.*.*.*.*.*.:.1.7.w.a.g.a.r.7.<X<X<X<X<X<X",
"<X<X<X<X<X&X&XoX^.F.k.9.1.:.*.*.*.*.*.*.*.*.).).).*.*.*.*.*.*.*.*.*.*.:.1.5.r.r.9.1.o.<X<X<X<X<X",
"<X<X<X<X<XOX XW.C.u.3.:.*.*.*.*.*.*.*.*.*.).).).).*.*.*.*.*.*.*.*.*.*.*.*.:.3.5.3.:.| <X<X<X<X<X",
"<X<X<X<XOX|.W.N.r.1.*.*.*.*.*.*.*.*.*.*.*.).).).).).*.*.*.*.*.*.*.*.*.*.*.*.:.>.>.*.[ ) <X<X<X<X",
"<X<X<X X|.!.C.r.1.*.*.*.*.*.*.*.*.*.*.*.*.).).).).).*.*.*.*.*.*.*.*.*.*.*.*.*.*.*.*.[ ~ R <X<X<X",
"<X<X<X].^.K.f.3.:.*.*.*.*.*.*.*.*.*.*.*.).).).).).).*.*.*.*.*.*.*.*.*.*.*.*.*.*.*.*...~ H <X<X<X",
"<X<XW.W.U.n.9.:.*.*.*.*.).).).).).).).).).).).).).).).).).).).).).).).*.*.*.*.*.*.:...Q Z x <X<X",
"<X<XK.F.C.u.1.*.*.*.*.*.*.).).).).).).).).).).).).).).).).).).).).).*.*.*.*.*.*.*.*.| U v i <X<X",
"<X<XC.C.k.7.:.*.*.*.*.*.*.*.*.).).).).).).).).).).).).).).).).).*.*.*.*.*.*.*.*.*.*.| G g 9 <X<X",
"<X<Xn.n.f.5.*.*.*.*.*.*.*.*.*.*.).).).).).).).).).).).).).).).*.*.*.*.*.*.*.*.*.*.*.[ G a 2 <X<X",
"<X<Xx.k.a.3.*.*.*.*.*.*.*.*.*.*.*.*.).).).).).).).).).).).*.*.*.*.*.*.*.*.*.*.*.*.*.[ F p > <X<X",
"<X<Xg.g.u.3.*.*.*.*.*.*.*.*.*.*.*.*.).).).).).).).).).).).*.*.*.*.*.*.*.*.*.*.*.*.*.' V r = <X<X",
"<X<Xa.u.w.3.*.*.*.*.*.*.*.*.*.*.*.).).).).).).).).).).).).*.*.*.*.*.*.*.*.*.*.*.*.#.) M 9 @ <X<X",
"<X<X7.7.5.1.*.*.*.*.*.*.*.*.*.*.*.).).).).).).).).).).).).*.*.*.*.*.*.*.*.*.*.*.*...R f >   <X<X",
"<X<X*.#.#.#.#.*.*.*.*.*.*.*.*.*.*.).).).).).).*.).).).).).).*.*.*.*.*.*.*.*.*.*.#.` B 2     <X<X",
"<X<X<X` ' ..o.#.*.*.*.*.*.*.*.*.).).).).).*.*.*.*.).).).).).*.*.*.*.*.*.*.*.*.#.| K i o   <X<X<X",
"<X<X<XE Q ` | #.*.*.*.*.*.*.*.*.).).).*.*.*.*.*.*.*.*.).).).*.*.*.*.*.*.*.*.*...Q x *     <X<X<X",
"<X<X<X<XH U ~ [ ..#.*.*.*.*.*.).).).*.*.*.*.*.*.*.*.*.*.).).).*.*.*.*.*.*.#...~ M 2     <X<X<X<X",
"<X<X<X<X<XZ G U ~ [ o.*.*.*.*.).*.*.*.*.*.*.*.*.*.*.*.*.*.*.).*.*.*.*.*.#.[ E b 2     <X<X<X<X<X",
"<X<X<X<X<XM x b Z U ` ..#.#.*.*.*.*.*.*.*.*.*.*.*.*.*.*.*.*.*.*.*.*.#...) H g =       <X<X<X<X<X",
"<X<X<X<X<X<Xi e i k Z E ` | #.*.*.*.*.*.*.*.*.*.*.*.*.*.*.*.*.*.*...` U b 9 o       <X<X<X<X<X<X",
"<X<X<X<X<X<X<X<X6 9 i x Z R ` | #.*.*.*.*.*.*.*.*.*.*.*.*.#.o.[ ~ K b r &       <X<X<X<X<X<X<X<X",
"<X<X<X<X<X<X<X<X<X> < 6 r k V K E ~ ) ` [ ..#.*.*.*.*.#...` R Z g q @         <X<X<X<X<X<X<X<X<X",
"<X<X<X<X<X<X<X<X<X<X<X& = 2 q i a f x B K ) | #.*.*.#.| ~ Z f 2 O         <X<X<X<X<X<X<X<X<X<X<X",
"<X<X<X<X<X<X<X<X<X<X<X<X<X@ @ @ @ & > e b R | *.*.*.o.` G r @         <X<X<X<X<X<X<X<X<X<X<X<X<X",
"<X<X<X<X<X<X<X<X<X<X<X<X<X<X<X        > k U | *.*.*.| U f O     <X<X<X<X<X<X<X<X<X<X<X<X<X<X<X<X",
"<X<X<X<X<X<X<X<X<X<X<X<X<X<X<X<X<X<X<X<X<X[ :.3.:.#.) b <   <X<X<X<X<X<X<X<X<X<X<X<X<X<X<X<X<X<X",
"<X<X<X<X<X<X<X<X<X<X<X<X<X<X<X<X<X<X<X<X<X9.u.9.:.' G q     <X<X<X<X<X<X<X<X<X<X<X<X<X<X<X<X<X<X",
"<X<X<X<X<X<X<X<X<X<X<X<X<X<X<X<X<X<X<X<X<XC.x.9.| F r       <X<X<X<X<X<X<X<X<X<X<X<X<X<X<X<X<X<X",
"<X<X<X<X<X<X<X<X<X<X<X<X<X<X<X<X<X<X<X<XW.I.g.o.B 7       <X<X<X<X<X<X<X<X<X<X<X<X<X<X<X<X<X<X<X",
"<X<X<X<X<X<X<X<X<X<X<X<X<X<X<X<X<X<X<X<XT.x.| k &       <X<X<X<X<X<X<X<X<X<X<X<X<X<X<X<X<X<X<X<X",
"<X<X<X<X<X<X<X<X<X<X<X<X<X<X<X<X<X<X<XU.f.~ r         <X<X<X<X<X<X<X<X<X<X<X<X<X<X<X<X<X<X<X<X<X",
"<X<X<X<X<X<X<X<X<X<X<X<X<X<X<X<X<X<XC.3.F >       <X<X<X<X<X<X<X<X<X<X<X<X<X<X<X<X<X<X<X<X<X<X<X",
"<X<X<X<X<X<X<X<X<X<X<X<X<X<X<X<Xn.7.~ a O   <X<X<X<X<X<X<X<X<X<X<X<X<X<X<X<X<X<X<X<X<X<X<X<X<X<X",
"<X<X<X<X<X<X<X<X<X<X<X<X<X<X5.*.~ b <X<X<X<X<X<X<X<X<X<X<X<X<X<X<X<X<X<X<X<X<X<X<X<X<X<X<X<X<X<X",
"<X<X<X<X<X<X<X<X<X<X<X<X<X<X<X<X<X<X<X<X<X<X<X<X<X<X<X<X<X<X<X<X<X<X<X<X<X<X<X<X<X<X<X<X<X<X<X<X",
"<X<X<X<X<X<X<X<X<X<X<X<X<X<X<X<X<X<X<X<X<X<X<X<X<X<X<X<X<X<X<X<X<X<X<X<X<X<X<X<X<X<X<X<X<X<X<X<X",
"<X<X<X<X<X<X<X<X<X<X<X<X<X<X<X<X<X<X<X<X<X<X<X<X<X<X<X<X<X<X<X<X<X<X<X<X<X<X<X<X<X<X<X<X<X<X<X<X",
"<X<X<X<X<X<X<X<X<X<X<X<X<X<X<X<X<X<X<X<X<X<X<X<X<X<X<X<X<X<X<X<X<X<X<X<X<X<X<X<X<X<X<X<X<X<X<X<X"
};
