/* XPM */
static char * postgres16_xpm[] = {
"16 16 101 2",
"  	c None",
". 	c #8B8B8B",
"+ 	c #919191",
"@ 	c #9B9B9B",
"# 	c #8F8F8F",
"$ 	c #8A8A8A",
"% 	c #959595",
"& 	c #909090",
"* 	c #929292",
"= 	c #8E8E8E",
"- 	c #A5A5A5",
"; 	c #A4A4A4",
"> 	c #BFBFBF",
", 	c #DADADA",
"' 	c #FBFBFB",
") 	c #F9F9F9",
"! 	c #868686",
"~ 	c #B0B0B0",
"{ 	c #DBDBDB",
"] 	c #CCCCCC",
"^ 	c #7C7C7C",
"/ 	c #9C9C9C",
"( 	c #B2B2B2",
"_ 	c #7B7B7B",
": 	c #5D5D5D",
"< 	c #9E9E9E",
"[ 	c #CACACA",
"} 	c #C1C1C1",
"| 	c #B7B7B7",
"1 	c #ECECEC",
"2 	c #D7D7D7",
"3 	c #555555",
"4 	c #AEAEAE",
"5 	c #A3A3A3",
"6 	c #FAFAFA",
"7 	c #9A9A9A",
"8 	c #EAEAEA",
"9 	c #949494",
"0 	c #6A6A6A",
"a 	c #A6A6A6",
"b 	c #F8F8F8",
"c 	c #BEBEBE",
"d 	c #737373",
"e 	c #A8A8A8",
"f 	c #979797",
"g 	c #EDEDED",
"h 	c #D2D2D2",
"i 	c #F1F1F1",
"j 	c #969696",
"k 	c #C0C0C0",
"l 	c #525252",
"m 	c #A9A9A9",
"n 	c #EFEFEF",
"o 	c #C7C7C7",
"p 	c #C6C6C6",
"q 	c #F7F7F7",
"r 	c #B1B1B1",
"s 	c #D4D4D4",
"t 	c #6E6E6E",
"u 	c #BABABA",
"v 	c #F0F0F0",
"w 	c #717171",
"x 	c #828282",
"y 	c #DDDDDD",
"z 	c #989898",
"A 	c #939393",
"B 	c #D8D8D8",
"C 	c #565656",
"D 	c #888888",
"E 	c #747474",
"F 	c #B3B3B3",
"G 	c #A7A7A7",
"H 	c #E8E8E8",
"I 	c #848484",
"J 	c #707070",
"K 	c #7D7D7D",
"L 	c #F5F5F5",
"M 	c #898989",
"N 	c #797979",
"O 	c #A2A2A2",
"P 	c #838383",
"Q 	c #858585",
"R 	c #ABABAB",
"S 	c #818181",
"T 	c #D6D6D6",
"U 	c #F3F3F3",
"V 	c #F6F6F6",
"W 	c #494949",
"X 	c #585858",
"Y 	c #E1E1E1",
"Z 	c #F4F4F4",
"` 	c #F2F2F2",
" .	c #A0A0A0",
"..	c #808080",
"+.	c #E2E2E2",
"@.	c #7E7E7E",
"#.	c #767676",
"$.	c #EEEEEE",
"%.	c #6B6B6B",
"&.	c #B8B8B8",
"*.	c #C4C4C4",
"  . + @ # $ % & * = - ; >       ",
"& , ' ' ) ! ~ { ] ^ / ( _ : (   ",
"< ' ' ' [ [ ' ' ' ' } | 1 2 3 ; ",
"4 ' ' ' 5 ' ' ' 6 ' 6 7 8 6 _ 9 ",
"4 ' ' ' 0 a @ b ' ' c # ( ' d $ ",
"e ' ' ' f g e h ' i j k 4 g l j ",
"m ' ' n - ' o p ' q # r s 7 t [ ",
"7 ' ' { u ' e v ' ' 9 k o w x   ",
"e y ' b z q A 6 6 b B C D E F   ",
"h G ' H I J K L 6 q q 3 M N O   ",
"  O u P Q R S T U V ] j f W X ( ",
"  [ < O z * Q Y Z ` O  .S x ..  ",
"      +.; 4 @.v i ` P D c       ",
"            #.1 $.` %.!         ",
"            A [ ` &.#.;         ",
"            *...+ = N           "};
