/* XPM */
static char *magick[] = {
/* columns rows colors chars-per-pixel */
"48 48 256 2",
"   c gray0",
".  c #808ec3",
"X  c #2fbc00",
"o  c #1b6a00",
"O  c #145200",
"+  c #0a2900",
"@  c #98a4cf",
"#  c #9ea8ce",
"$  c #29a300",
"%  c #33cc00",
"&  c #0a0908",
"*  c #535c7b",
"=  c #85889e",
"-  c #7e8cc0",
";  c #606a92",
":  c #898ca5",
">  c #1a1919",
",  c #050403",
"<  c #b6bedd",
"1  c #8190c5",
"2  c #8b98ca",
"3  c #8391c6",
"4  c #8e98c4",
"5  c #8592c7",
"6  c #c2c7d9",
"7  c #76788a",
"8  c #525057",
"9  c #8190c6",
"0  c #b0b9da",
"q  c #8190c7",
"w  c #c8cde0",
"e  c #bbc2df",
"r  c #9099c3",
"t  c #4f5879",
"y  c #bdc1d1",
"u  c #7d808d",
"i  c #8694c8",
"p  c #4a494e",
"a  c #7582b2",
"s  c #949497",
"d  c #8d90ac",
"f  c #6b76a2",
"g  c #5d678d",
"h  c #8290c6",
"j  c #232121",
"k  c #66719c",
"l  c #747889",
"z  c #061500",
"x  c #8a93bd",
"c  c #2b2929",
"v  c #596181",
"b  c #373535",
"n  c #909ccd",
"m  c #596388",
"M  c #8290c4",
"N  c #353463",
"B  c #808fc7",
"V  c #848790",
"C  c #7784b6",
"Z  c #8a8ea9",
"A  c #7b89bc",
"S  c #5d637f",
"D  c #8a8eac",
"F  c #888ca7",
"G  c #121110",
"H  c #68739f",
"J  c #8e9acb",
"K  c #646f98",
"L  c #7986b9",
"P  c #020600",
"I  c #8b90b0",
"U  c #646a82",
"Y  c #134a00",
"T  c #030a00",
"R  c #7c7e8c",
"E  c #878aa3",
"W  c #7d8bbe",
"Q  c #868890",
"!  c #95a1cc",
"~  c #86889e",
"^  c #7f8ec4",
"/  c #8996c7",
"(  c #606b93",
")  c #818fc4",
"_  c #1a1918",
"`  c #8593c8",
"'  c #7c7d8f",
"]  c #0e3600",
"[  c #b9bece",
"{  c #1b1a19",
"}  c #2db600",
"|  c #626d95",
" . c #7885b6",
".. c #6c78a4",
"X. c #070605",
"o. c #0b2d00",
"O. c #848690",
"+. c #808ec4",
"@. c #7581b2",
"#. c #767789",
"$. c #515a7a",
"%. c #2eba00",
"&. c #7a88ba",
"*. c #8291c6",
"=. c #626981",
"-. c #8290c5",
";. c #8789a0",
":. c #8492c7",
">. c #7f8dc1",
",. c #7f8dc2",
"<. c #31c400",
"1. c #b6bedc",
"2. c #5b658a",
"3. c #566084",
"4. c #165900",
"5. c #888ba5",
"6. c #6d7386",
"7. c #707caa",
"8. c #555e7c",
"9. c #95979f",
"0. c #8592c5",
"q. c #040f00",
"w. c #4a4567",
"e. c #b9c1de",
"r. c #7d8abe",
"t. c #7380af",
"y. c #5e6891",
"u. c #7a87b9",
"i. c #8a97c9",
"p. c #262424",
"a. c #808dc1",
"s. c #161414",
"d. c #080706",
"f. c #8392c8",
"g. c #9093ae",
"h. c #676d83",
"j. c #6c7185",
"k. c #7d7e91",
"l. c #626da0",
"z. c #58607f",
"x. c #2f2353",
"c. c #9699a4",
"v. c #b9bbc3",
"b. c #454267",
"n. c #c1c6d9",
"m. c #8182b9",
"M. c #bdc2d4",
"N. c #7680a7",
"B. c #134d00",
"V. c #6e7084",
"C. c #269700",
"Z. c #8795c8",
"A. c #1b6e00",
"S. c #196400",
"D. c #7d8bbf",
"F. c #7f8197",
"G. c #818fc5",
"H. c #279e00",
"J. c #bcc1d1",
"K. c #7b85bb",
"L. c #52678b",
"P. c #6e7aa8",
"I. c #6a7aab",
"U. c #6b7185",
"Y. c #b1bada",
"T. c #7480b0",
"R. c #b2badb",
"E. c #5d647f",
"W. c #4b4a4f",
"Q. c #b3bcdb",
"!. c #26537c",
"~. c #b4bddc",
"^. c #0e723e",
"/. c #bbc0d0",
"(. c #7a7e8b",
"). c #979798",
"_. c #535057",
"`. c #808fc4",
"'. c #00aadf",
"]. c #595775",
"[. c #8f99c3",
"{. c #292726",
"}. c #595d79",
"|. c #ccd1e3",
" X c #0c0b09",
".X c #647ab6",
"XX c #1c84c2",
"oX c #165700",
"OX c #8e9bcc",
"+X c #100f0e",
"@X c #8f9ccd",
"#X c #9d9d9e",
"$X c #191817",
"%X c #757fa5",
"&X c #7c89bd",
"*X c #c1c5d8",
"=X c #c8cee5",
"-X c #8591bf",
";X c #8289bf",
":X c #7d8ac0",
">X c #a5abbf",
",X c #2a70b5",
"<X c #3a537a",
"1X c #185f00",
"2X c #6c7186",
"3X c #4f5678",
"4X c #545d7b",
"5X c #c6cce1",
"6X c #b1b9d7",
"7X c #8491c7",
"8X c #3971ac",
"9X c #071e00",
"0X c #44476d",
"qX c #a1abd0",
"wX c #2d3456",
"eX c #888ba1",
"rX c #2aa600",
"tX c #868a9b",
"yX c #868fbb",
"uX c #8391c7",
"iX c #c8cee2",
"pX c #8290c7",
"aX c #1c1a1a",
"sX c #4b75b6",
"dX c #818fc3",
"fX c #1a1818",
"gX c #0f3b00",
"hX c #565f83",
"jX c #696e84",
"kX c #767889",
"lX c #838fc3",
"zX c #8492c6",
"xX c #828dc1",
"cX c #8592c6",
"vX c #9da7ce",
"bX c #7d88b5",
"nX c #6c6a7f",
"mX c #777ba9",
"MX c #9da8d1",
"NX c #d4d8eb",
"BX c #1a6800",
"VX c #0f0e0d",
"CX c #82879a",
"ZX c #434042",
"AX c #514f56",
"SX c #6f7ca9",
"DX c #c2c8dc",
"FX c #8a8ca5",
"GX c #5c5a61",
"HX c #5c6688",
"JX c #99a5cf",
"KX c #8f9cca",
"LX c #535c7e",
"PX c #515056",
"IX c #7683b4",
"UX c None",
/* pixels */
"UXUXUXUXUXUXUXUXUXUXUXUXUXUXUXUXUXUXUXUXUXUXUXUXUXUXUXUXUXUXUXUXUXUXUXUXUXUXUXUXUXUXUXUXUXUXUXUX",
"UXUXUXUXUXUXUXUXUXUXUXUXUXUXUXUXUXUXUXUXUXUXUXUXUXUXUXUXUXUXUXUXUXUXUXUXUXUXUXUXUXUXUXUXUXUXUXUX",
"UXUXUXUXUXUXUXUXUXUXUXUXUXUXUXUXUXUXUXUXUXUXUXUXUXUXUXUXUXUXUXUXUXUXUXUXUXUXUXUXUXUXUXUXUXUXUXUX",
"UXUXUXUXUXUXUXUXUXUXUXUXUXUXUXUXUXUXUXUXUXUXUXUXUXUXUXUXUXUXUXUXUXUXUXUXUXUXUXUXUXUXUXUXUXUXUXUX",
"UXUXUXUXUXUXUXUXUXUXUXUXUXUXUXUXUXUXUXUXUXUXUXUXUXUXUXUXUXUXUXUXUXUXUXUXUXUXUXUXUXUXUXUXUXUXUXUX",
"UX#Xv.w |.iXw iXw w w iXw w 5XDX*X6 6 6 6 6 6 6 6 6 6 6 6 6 6 6 6 n.M./.y y y y y y y J.[ >Xc.UX",
"UX[ NX=Xe.R.0 0 0 0 0 0 0 0 0 Y.Q.1.< < < < < < < < < < < < < < < 1.< e.e e e e e e e e < ! N.UX",
"UX6X~.JX/ zXf.` i i i i i i Z.i.i.2 2 2 2 2 2 2 2 2 2 2 2 2 2 2 2 2 J OXn ! @Xn n @XOXKXJ a HXUX",
"UXqXMX-X^ -Xg.;.= = = = = = = = = 5.FX: : : : : : : : : : : : : : : : : : : F d d I yX^ >...4XUX",
"UX# @ -.0.R b +X& & & & & & & & & s.{ > > > > > > > > > > > > > > > > > > fX{ c {.b eX9 - f * UX",
"UX# @ 1 4 _.                                                                        kX5 D.H 8.UX",
"UX# @ 1 4 AX    <.% % % % % % % % % % % % % % % % % % % % % % % % % % % % } z     X.' :.W H S UX",
"UX# @ 1 4 8     Y O O O O O O O O O O O O O O O O O O O O O O O O O O O O O q.    & ~ 3 W k S UX",
"UX# @ 1 4 8                                                                       & = 3 W H E.UX",
"UX# @ 1 4 8                                                                       & = 3 r.k S UX",
"UX# @ 1 4 8   T Y o.+ + + + + + + + + + + + + + + + + + + + + + + + + + + + z     & = 3 &Xk S UX",
"UX# @ 1 4 8   9X<.rX$ $ $ $ $ $ $ $ $ $ $ $ $ $ $ $ $ $ $ $ $ $ $ $ $ $ $ $ 4.    VX;.*.A | =.UX",
"UX# @ 1 4 8                                                                       G E h A K U UX",
"UX# @ 1 4 8                                                                       G E h A K U UX",
"UX# @ 1 4 8   T BXo o o o o o o o o o o o o o o o o o o o o o o o o o o o S.q.    G E h A K U UX",
"UX# @ 1 4 8   T } X X X X X X X X X X X X X X X X X X X X X X X X X X X X %.gX    G E h &.| U UX",
"UX# @ 1 4 8                                                                       $X5.pXu.( h.UX",
"UX# @ 1 4 8                                                                       _ F q L ; 2XUX",
"UX# @ 1 4 8     ] o o o o o o o o o o o o o o o o o o o o o o o o o o o o 1XP     _ F q L ( j.UX",
"UX# @ 1 4 8     A.X X X X X X X X X X X X X X X X X X X X X X X X X X X X H.T     _ F q L ( 2XUX",
"UX# @ 1 4 8                                                                       aXF q L ; U.UX",
"UX# @ 9 [.PX                                                                      j D q  .g 6.UX",
"UX# @ 9 r p     ] o o o o o o o o o o o o o o o o o o o o o o o o o o o o 4.      j D q C g l UX",
"UX# @ 9 r p     oXX X X X X X X X X X X X X X X X X X X X X X X X X X X X C.      j D q C g l UX",
"UX# @ 9 r p                                                                       j D q C g l UX",
"UX# @ 9 r p     z + + + + + + + + + + + + + + + + + + + + + + + + + + + +         p.d q C 2.l UX",
"UX# @ 9 r p     Y %.X X X X X X X X X X X X X X X X X X X X X X X X X X X B.      c I B IX2.l UX",
"UX# @ 9 r p       Y O O O O O O O O O O O O O O O O O O O O O O O O O O O o.      c I B @.m R UX",
"UX# @ 9 r W.                                                                      c I B a m u UX",
"UX# @ 1 4 GX                                                                      {.I B @.m u UX",
"UX# @ M cX' j  X& & & & & & & & & & & & & & d., , , , , , , , , , , , , , , , , X.ZXx B a HXu UX",
"UX# @ M ^ -XZ ~ = = = = = = = = = = = = = = F.7 7 7 7 7 7 7 7 7 7 7 7 7 7 7 7 #.k.Z dX+.@.3.R UX",
"UX# @ M . +.9 *.3 3 3 3 3 3 3 3 3 3 3 3 3 h uX` 5 5 5 5 5 5 5 5 5 5 5 5 5 5 5 ` :.G.. . T.3.u UX",
"UX# @ M . . . . . . . . . . . . . . . . . . . . . . . . . . . . . . . . . . . . `.) . . t.hXV UX",
"UXvX@ M . . . . . . . . . . . . . . . . . . . . . . . . . . . . . . . . . ) 7X-.;Xm.lX. t.3.V UX",
"UXr KX. . . . . . . . . . . . . . . . . . . . . . . . . . . . . . . . . ) :XI.K.sX,X.XxXSXLXO.UX",
"UXbX7.f f ..f ..7. .r.,.. . . . . . . . . . . . . . . . . . . . . . >.W a.l.^.L.XX'.8XmX2.t Q UX",
"UXtXz.t t t t t t ( a - . . . . . . . . . . . . . . . . . . . . . . &XP.y.N wX3X<X!.N 0X$.U ).UX",
"UXUXs Q O.V V V V CXu.,.- - - - - - - - - - - - - - - - - - - - - - @.g }.x.].V.b.nXw.w.(.).UXUX",
"UXUXUXUXUXUXUXUXUXd  .H ; ; ; ; ; ; ; ; ; ; ; ; ; ; ; ; ; ; ; ; ; ; m $.Q s UXUXs UXUXUXUXUXUXUX",
"UXUXUXUXUXUXUXUX9.%Xv * * * * * * * * * * * * * * * * * * * * * * * * 4XjXUXUXUXUXUXUXUXUXUXUXUX",
"UXUXUXUXUXUXUXUXUXUXUXUXUXUXUXUXUXUXUXUXUXUXUXUXUXUXUXUXUXUXUXUXUXUXUXUXUXUXUXUXUXUXUXUXUXUXUXUX",
"UXUXUXUXUXUXUXUXUXUXUXUXUXUXUXUXUXUXUXUXUXUXUXUXUXUXUXUXUXUXUXUXUXUXUXUXUXUXUXUXUXUXUXUXUXUXUXUX"
};
