/* XPM */
static char *magick[] = {
/* columns rows colors chars-per-pixel */
"16 16 256 2",
"   c Gray0",
".  c #144e00",
"X  c #165900",
"o  c #0a2900",
"O  c #0f3e00",
"+  c #a4aed4",
"@  c #175b00",
"#  c #155300",
"$  c #124a00",
"%  c #575f7d",
"&  c #5d678d",
"*  c #93959e",
"=  c #c6cbde",
"-  c #1d580a",
";  c #757889",
":  c #53586e",
">  c #186100",
",  c #185e00",
"<  c #585e76",
"1  c #155200",
"2  c #575f7c",
"3  c #0e2a05",
"4  c #8493ca",
"5  c #595e76",
"6  c #c4c9db",
"7  c #8593c9",
"8  c #020100",
"9  c #1d5709",
"0  c #969798",
"q  c #515a7b",
"w  c #53576e",
"e  c #103405",
"r  c #93949d",
"t  c #6f7286",
"y  c #51566c",
"u  c #5a6489",
"i  c #717284",
"p  c #586286",
"a  c #8392c8",
"s  c #7683b0",
"d  c #7f8dc1",
"f  c #656c86",
"g  c #5d647f",
"h  c #55576d",
"j  c #58617d",
"k  c #0e2805",
"l  c #0c3200",
"z  c #1e5b0a",
"x  c #555a73",
"c  c #5e6583",
"v  c #7683b4",
"b  c #90919a",
"n  c #8b94b8",
"m  c #9da7ce",
"M  c #949597",
"N  c #606783",
"B  c #51576e",
"V  c #535972",
"C  c #c8cde1",
"Z  c #848bac",
"A  c #646981",
"S  c #626984",
"D  c #575d74",
"F  c #53576d",
"G  c #0d3200",
"H  c #525870",
"J  c #c7cce0",
"K  c #8e8f98",
"L  c #060606",
"P  c #555a74",
"I  c #616883",
"U  c #6a759e",
"Y  c #565f7d",
"T  c #394f74",
"R  c #61749e",
"E  c #737685",
"W  c #8d8f98",
"Q  c #104200",
"!  c #7b7d8b",
"~  c #0f2c05",
"^  c #304c6a",
"/  c #a7b1d5",
"(  c #8493c9",
")  c #636a84",
"_  c #636a83",
"`  c #5c6582",
"'  c #0f3c00",
"]  c #61688a",
"[  c #c5cadd",
"{  c #0b2b00",
"}  c #909195",
"|  c #5e6683",
" . c #767988",
".. c #0f2f05",
"X. c #c1c3cf",
"o. c #545973",
"O. c #a3add4",
"+. c #94949e",
"@. c #8a8c92",
"#. c #565b72",
"$. c #0a2a00",
"%. c #747786",
"&. c #535971",
"*. c #104100",
"=. c #cacee2",
"-. c #747687",
";. c #7683b5",
":. c #8491c6",
">. c #d2d5e6",
",. c #818fc0",
"<. c #123c04",
"1. c #0b2e00",
"2. c #5d6686",
"3. c #4d5b7e",
"4. c #8f97b8",
"5. c #94969f",
"6. c #1a400e",
"7. c #c5cbde",
"8. c #1a3e0e",
"9. c #85848d",
"0. c #b3bad3",
"q. c Gray4",
"w. c #737b9a",
"e. c #bbc2de",
"r. c #7d8abe",
"t. c #010000",
"y. c #010100",
"u. c #165800",
"i. c #082200",
"p. c #444b69",
"a. c #52576f",
"s. c #1b5608",
"d. c #1c5a07",
"f. c #bec2d2",
"g. c #82818b",
"h. c #0c2f00",
"j. c None",
"k. c Gray0",
"l. c Gray0",
"z. c Gray0",
"x. c Gray0",
"c. c Gray0",
"v. c Gray0",
"b. c Gray0",
"n. c Gray0",
"m. c Gray0",
"M. c Gray0",
"N. c Gray0",
"B. c Gray0",
"V. c Gray0",
"C. c Gray0",
"Z. c Gray0",
"A. c Gray0",
"S. c Gray0",
"D. c Gray0",
"F. c Gray0",
"G. c Gray0",
"H. c Gray0",
"J. c Gray0",
"K. c Gray0",
"L. c Gray0",
"P. c Gray0",
"I. c Gray0",
"U. c Gray0",
"Y. c Gray0",
"T. c Gray0",
"R. c Gray0",
"E. c Gray0",
"W. c Gray0",
"Q. c Gray0",
"!. c Gray0",
"~. c Gray0",
"^. c Gray0",
"/. c Gray0",
"(. c Gray0",
"). c Gray0",
"_. c Gray0",
"`. c Gray0",
"'. c Gray0",
"]. c Gray0",
"[. c Gray0",
"{. c Gray0",
"}. c Gray0",
"|. c Gray0",
" X c Gray0",
".X c Gray0",
"XX c Gray0",
"oX c Gray0",
"OX c Gray0",
"+X c Gray0",
"@X c Gray0",
"#X c Gray0",
"$X c Gray0",
"%X c Gray0",
"&X c Gray0",
"*X c Gray0",
"=X c Gray0",
"-X c Gray0",
";X c Gray0",
":X c Gray0",
">X c Gray0",
",X c Gray0",
"<X c Gray0",
"1X c Gray0",
"2X c Gray0",
"3X c Gray0",
"4X c Gray0",
"5X c Gray0",
"6X c Gray0",
"7X c Gray0",
"8X c Gray0",
"9X c Gray0",
"0X c Gray0",
"qX c Gray0",
"wX c Gray0",
"eX c Gray0",
"rX c Gray0",
"tX c Gray0",
"yX c Gray0",
"uX c Gray0",
"iX c Gray0",
"pX c Gray0",
"aX c Gray0",
"sX c Gray0",
"dX c Gray0",
"fX c Gray0",
"gX c Gray0",
"hX c Gray0",
"jX c Gray0",
"kX c Gray0",
"lX c Gray0",
"zX c Gray0",
"xX c Gray0",
"cX c Gray0",
"vX c Gray0",
"bX c Gray0",
"nX c Gray0",
"mX c Gray0",
"MX c Gray0",
"NX c Gray0",
"BX c Gray0",
"VX c Gray0",
"CX c Gray0",
"ZX c Gray0",
"AX c Gray0",
"SX c Gray0",
"DX c Gray0",
"FX c Gray0",
"GX c Gray0",
"HX c Gray0",
"JX c Gray0",
"KX c Gray0",
"LX c Gray0",
"PX c Gray0",
"IX c Gray0",
"UX c Gray0",
/* pixels */
"j.j.j.j.j.j.j.j.j.j.j.j.j.j.j.j.",
"X.>.=.C J 7.= = = = = [ 6 6 0.n ",
"e.f.r W K b * * * * * * 5.+.Z U ",
"/ ! 8.d.s.9 9 - - - - z 6.q.y 2.",
"O.-.k { o o o o o o o $.i.  B ` ",
"+ ; e Q O O O O O O O *.h.  a.c ",
"+ ; <.X # # # # # # # u.'   H | ",
"+ ; ~ 1 . . . . . . . 1 l t.&.N ",
"+ ; 3 . $ $ $ $ $ $ $ . 1.8 V I ",
"+ %..., X X X X X X X , G 8 o.S ",
"+ E 3 > @ @ @ @ @ @ @ > o y.P ) ",
"+  .L                       x f ",
"m 4.5 D < < 5 #.w : : : F h ] _ ",
",.;.v d a 4 4 ( 7 7 :.r.s R 3.A ",
"w.Y 2 p & & & & & & u q p.^ T t ",
"0 } @.g 2 % % % % % % j i 9.g.M "
};
