/* XPM */
static char *magick[] = {
/* columns rows colors chars-per-pixel */
"48 48 126 2",
"   c Gray0",
".  c #010101",
"X  c Gray1",
"o  c #040404",
"O  c #060606",
"+  c #070707",
"@  c #090909",
"#  c Gray4",
"$  c #0c0c0c",
"%  c Gray5",
"&  c Gray7",
"*  c #131313",
"=  c #161616",
"-  c #181818",
";  c #1b1b1b",
":  c Gray11",
">  c Gray12",
",  c #222222",
"<  c Gray14",
"1  c #252525",
"2  c #272727",
"3  c #282828",
"4  c #2a2a2a",
"5  c Gray17",
"6  c #2d2d2d",
"7  c Gray18",
"8  c Gray19",
"9  c #313131",
"0  c Gray20",
"q  c #343434",
"w  c Gray21",
"e  c #373737",
"r  c #393939",
"t  c #3a3a3a",
"y  c #3c3c3c",
"u  c Gray24",
"i  c #3f3f3f",
"p  c Gray25",
"a  c Gray26",
"s  c #434343",
"d  c Gray27",
"f  c #464646",
"g  c #494949",
"h  c #4c4c4c",
"j  c Gray30",
"k  c #4e4e4e",
"l  c Gray31",
"z  c Gray32",
"x  c Gray33",
"c  c #555555",
"v  c Gray34",
"b  c #585858",
"n  c #5a5a5a",
"m  c #5b5b5b",
"M  c #5d5d5d",
"N  c Gray37",
"B  c Gray38",
"V  c Gray39",
"C  c #646464",
"Z  c Gray40",
"A  c #676767",
"S  c #6d6d6d",
"D  c #6f6f6f",
"F  c Gray44",
"G  c #717171",
"H  c #727272",
"J  c Gray45",
"K  c Gray46",
"L  c #767676",
"P  c Gray47",
"I  c Gray48",
"U  c #7b7b7b",
"Y  c #7c7c7c",
"T  c Gray50",
"R  c #818181",
"E  c Gray51",
"W  c #838383",
"Q  c #848484",
"!  c Gray52",
"~  c Gray53",
"^  c #888888",
"/  c Gray54",
"(  c #8b8b8b",
")  c #8d8d8d",
"_  c #8e8e8e",
"`  c Gray56",
"'  c Gray57",
"]  c #939393",
"[  c Gray58",
"{  c Gray59",
"}  c #979797",
"|  c Gray60",
" . c Gray61",
".. c #9d9d9d",
"X. c #9f9f9f",
"o. c #a0a0a0",
"O. c Gray63",
"+. c Gray64",
"@. c #a5a5a5",
"#. c Gray65",
"$. c Gray66",
"%. c #a9a9a9",
"&. c Gray67",
"*. c Gray68",
"=. c Gray70",
"-. c #b9b9b9",
";. c Gray73",
":. c #bcbcbc",
">. c #c0c0c0",
",. c #c3c3c3",
"<. c Gray80",
"1. c Gray87",
"2. c #e6e6e6",
"3. c #e9e9e9",
"4. c #eaeaea",
"5. c #ececec",
"6. c Gray94",
"7. c Gray95",
"8. c #f6f6f6",
"9. c #f8f8f8",
"0. c #f9f9f9",
"q. c #fbfbfb",
"w. c Gray99",
"e. c #fefefe",
"r. c Gray100",
"t. c None",
/* pixels */
"t.t.t.t.t.t.t.t.t.t.t.t.t.t.t.t.t.t.t.t.t.t.t.t.t.t.t.t.t.t.t.t.t.t.t.t.t.t.t.t.t.t.t.t.t.t.t.t.",
"t.t.t.t.t.t.t.t.t.t.t.t.t.t.t.t.t.t.t.t.t.t.t.t.t.t.t.t.t.t.t.t.t.t.t.t.t.t.t.t.t.t.t.t.t.t.t.t.",
"t.t.t.t.t.t.t.t.t.t.t.t.t.t.t.t.t.t.t.t.t.t.t.t.t.t.t.t.t.t.t.t.t.t.t.t.t.t.t.t.t.t.t.t.t.t.t.t.",
"t.t.t.t.t.t.t.t.t.t.t.t.t.t.t.o...[ ] ) ) ) ) ) ) ) ) ) ) ^ Q T H t.t.t.t.t.t.t.t.t.t.t.t.t.t.t.",
"t.t.t.t.t.t.t.t.t.t.t.%.%.#.o.| ) Q T U U r.r.r.r.r.r.U U U H S Z B B m t.t.t.t.t.t.t.t.t.t.t.t.",
"t.t.t.t.t.t.t.t.t.t.%.#.o.[ ^ U S Z M m m r.r.r.r.r.r.m m v v v v v v v z h t.t.t.t.t.t.t.t.t.t.",
"t.t.t.t.t.t.t.t.*.%.o.] E S m f q 4 1 , , r.r.r.r.r.r., , , , 4 0 r s f g f s u t.t.t.t.t.t.t.t.",
"t.t.t.t.t.t.t.%.o.[ E Z h q , & # +       r.r.r.r.r.r.        + $ & : 4 q r r r 0 t.t.t.t.t.t.t.",
"t.t.t.t.t.%.#...^ S h 0 ; $ +             r.r.r.r.r.r.              + $ ; , 6 q 6 1 ; t.t.t.t.t.",
"t.t.t.t...o.] U m r : $ +                 r.r.r.r.r.r.                  + $ = 1 1 : $   t.t.t.t.",
"t.t.t.t.[ ) H h 4 & +                     r.r.r.r.r.r.                      # & = & +   t.t.t.t.",
"t.t.t.[ ^ H g 1 $ +                       r.r.r.r.r.r.                        + # #       t.t.t.",
"t.t.) ^ L h 1 $                           r.r.r.r.r.r.                            +         t.t.",
"t.t.Q U M 0 & +                           r.r.r.r.r.r.                                      t.t.",
"t.H H Z s : +                             r.r.r.r.r.r.                              +         t.",
"t.M m h 4 $                               r.r.r.r.r.r.                                        t.",
"t.h r.r.r.r.r.r.r.r.r.r.r.r.r.r.r.r.r.r.r.r.r.r.r.r.r.r.r.r.r.r.r.r.r.r.r.r.r.r.r.r.r.5.,.[   t.",
"t.s r.r.r.r.r.r.r.r.r.r.r.r.r.r.r.r.r.r.r.r.r.r.r.r.r.r.r.r.r.r.r.r.r.r.r.r.r.r.r.r.r.4.:.)   t.",
"t.u r.r.r.r.r.r.r.r.r.r.r.r.r.r.r.r.r.r.r.r.r.r.r.r.r.r.r.r.r.r.r.r.r.r.r.r.r.r.r.r.r.4.;.^   t.",
"t.u r.r.r.r.r.r.r.r.r.r.r.r.r.r.r.r.r.r.r.r.r.r.r.r.r.r.r.r.r.r.r.r.r.r.r.r.r.r.r.r.r.4.;.^   t.",
"t.u r.r.r.r.r.r.r.r.r.r.r.r.r.r.r.r.r.r.r.r.r.r.r.r.r.r.r.r.r.r.r.r.r.r.r.r.r.r.r.r.r.4.;.^   t.",
"t.q r.r.r.r.r.r.r.r.r.r.r.r.r.r.r.r.r.r.r.r.r.r.r.r.r.r.r.r.r.r.r.r.r.r.r.r.r.r.r.r.r.2.=.E   t.",
"t.6 r.r.r.r.r.r.r.r.r.r.r.r.r.r.r.r.r.r.r.r.r.r.r.r.r.r.r.r.r.r.r.r.r.r.r.r.r.r.r.r.0.1.%.L   t.",
"t.; ; = $                                 r.r.r.r.r.r.                                        t.",
"t.                                        r.r.r.r.r.r.                                        t.",
"t.t.                                      r.r.r.r.r.r.                                      t.t.",
"t.t.                                      r.r.r.r.r.r.                                      t.t.",
"t.t.t.                                    r.r.r.r.r.r.                                    t.t.t.",
"t.t.t.t.                                  r.r.r.r.r.r.                                  t.t.t.t.",
"t.t.t.t.                                  r.r.r.r.r.r.                                  t.t.t.t.",
"t.t.t.t.t.                                r.r.r.r.r.r.                                t.t.t.t.t.",
"t.t.t.t.t.t.t.                            r.r.r.r.r.r.                            t.t.t.t.t.t.t.",
"t.t.t.t.t.t.t.t.                          0.r.r.r.r.r.                          t.t.t.t.t.t.t.t.",
"t.t.t.t.t.t.t.t.t.t.                      7.0.r.r.r.r.                      t.t.t.t.t.t.t.t.t.t.",
"t.t.t.t.t.t.t.t.t.t.t.t.                  7.r.r.r.r.r.                  t.t.t.t.t.t.t.t.t.t.t.t.",
"t.t.t.t.t.t.t.t.t.t.t.t.t.t.t.            8.r.r.r.r.0.            t.t.t.t.t.t.t.t.t.t.t.t.t.t.t.",
"t.t.t.t.t.t.t.t.t.t.t.t.t.t.t.t.t.t.t.t.  r.r.r.r.0.2.        t.t.t.t.t.t.t.t.t.t.t.t.t.t.t.t.t.",
"t.t.t.t.t.t.t.t.t.t.t.t.t.t.t.t.t.t.t.t.0 r.r.r.0.2.,.        t.t.t.t.t.t.t.t.t.t.t.t.t.t.t.t.t.",
"t.t.t.t.t.t.t.t.t.t.t.t.t.t.t.t.t.t.t.M v r.r.0.1.;.Q       t.t.t.t.t.t.t.t.t.t.t.t.t.t.t.t.t.t.",
"t.t.t.t.t.t.t.t.t.t.t.t.t.t.t.t.t.t.t.T Z r.r.<.o.H s     t.t.t.t.t.t.t.t.t.t.t.t.t.t.t.t.t.t.t.",
"t.t.t.t.t.t.t.t.t.t.t.t.t.t.t.t.t.t.[ L u 7.*.U h s     t.t.t.t.t.t.t.t.t.t.t.t.t.t.t.t.t.t.t.t.",
"t.t.t.t.t.t.t.t.t.t.t.t.t.t.t.t...^ B :   E h s s     t.t.t.t.t.t.t.t.t.t.t.t.t.t.t.t.t.t.t.t.t.",
"t.t.t.t.t.t.t.t.t.t.t.t.t.t.Q U m 1       s       t.t.t.t.t.t.t.t.t.t.t.t.t.t.t.t.t.t.t.t.t.t.t.",
"t.t.t.t.t.t.t.t.t.t.f h h f 4               t.t.t.t.t.t.t.t.t.t.t.t.t.t.t.t.t.t.t.t.t.t.t.t.t.t.",
"t.t.t.t.t.t.t.t.t.t.t.              t.t.t.t.t.t.t.t.t.t.t.t.t.t.t.t.t.t.t.t.t.t.t.t.t.t.t.t.t.t.",
"t.t.t.t.t.t.t.t.t.t.t.t.t.t.t.t.t.t.t.t.t.t.t.t.t.t.t.t.t.t.t.t.t.t.t.t.t.t.t.t.t.t.t.t.t.t.t.t.",
"t.t.t.t.t.t.t.t.t.t.t.t.t.t.t.t.t.t.t.t.t.t.t.t.t.t.t.t.t.t.t.t.t.t.t.t.t.t.t.t.t.t.t.t.t.t.t.t.",
"t.t.t.t.t.t.t.t.t.t.t.t.t.t.t.t.t.t.t.t.t.t.t.t.t.t.t.t.t.t.t.t.t.t.t.t.t.t.t.t.t.t.t.t.t.t.t.t."
};
