/* XPM */
static char * bulle_tt_xpm[] = {
"48 48 5 1",
".	c None",
"+	c #000000",
"@	c #006B21",
"#	c #FFFFFF",
"$	c #D61810",
"................................................",
"................................................",
"...............++++++++++++++++++...............",
"............++++@@@@@@@@@@@@@@@@++++............",
"..........+++@@@@@@@@@@@@@@@@@@@@@@+++..........",
"........+++@@@@@@@@@@@@@@@@@@@@@@@@@@+++........",
".......++@@@@@@@@@@@@@@@@@@@@@@@@@@@@@@++.......",
".....+++@@@@@@@@@@@@@@@@@@@@@@@@@@@@@@@@+++.....",
"....++@@@@@@@@@@@@@@@@@@@@@@@@@@@@@@@@@@@@++....",
"....+@@@@@@@@@@@@@@@@@@@@@@@@@@@@@@@@@@@@@@+....",
"...++@@@@@@@@@@@@@@@@@@@@@@@@@@@@@@@@@@@@@@++...",
"..++@@@@@@@@@@@@@@@@@@@@@@@@@@@@@@@@@@@@@@@@++..",
"..+@@@@@@@@@@@@@@@@@@@@@@@@@@@@@@@@@@@@@@@@@@+..",
".++@@@@@@@@@@@@@@@@@@@@@@@@@@@@@@@@@@@@@@@@@@++.",
".+@@@@@@@@@@@@@@@@@@@@@@@@@@@@@@@@@@@@@@@@@@@@+.",
".+@@@@@@@@@@@@@@@@@@@@@@@@@@@@@@@@@@@@@@@@@@@@+.",
".+############################################+.",
".+############################################+.",
".+############################################+.",
".+$$$$$$$$$$$$$$$$$$$$$$$$$$$$$$$$$$$$$$$$$$$$+.",
".+$$$$$$$$$$$$$$$$$$$$$$$$$$$$$$$$$$$$$$$$$$$$+.",
".+$$$$$$$$$$$$$$$$$$$$$$$$$$$$$$$$$$$$$$$$$$$$+.",
".+$$$$$$$$$$$$$$$$$$$$$$$$$$$$$$$$$$$$$$$$$$$$+.",
".++$$$$$$$$$$$$$$$$$$$$$$$$$$$$$$$$$$$$$$$$$$++.",
"..+$$$$$$$$$$$$$$$$$$$$$$$$$$$$$$$$$$$$$$$$$$+..",
"..++$$$$$$$$$$$$$$$$$$$$$$$$$$$$$$$$$$$$$$$$++..",
"...++$$$$$$$$$$$$$$$$$$$$$$$$$$$$$$$$$$$$$$++...",
"....+$$$$$$$$$$$$$$$$$$$$$$$$$$$$$$$$$$$$$$+....",
"....++$$$$$$$$$$$$$$$$$$$$$$$$$$$$$$$$$$$$++....",
".....+++$$$$$$$$$$$$$$$$$$$$$$$$$$$$$$$$+++.....",
".......++$$$$$$$$$$$$$$$$$$$$$$$$$$$$$$++.......",
"........+++$$$$$$$$$$$$$$$$$$$$$$$$$$+++........",
"..........+++$$$$$$$$$$$$$$$$$$$$$$+++..........",
"............+++$$$$$$$$$$$$$$$$$++++............",
"...............++++++$$$$$$$$$+++...............",
"....................+$$$$$$$$$+.................",
"....................+$$$$$$$$$+.................",
"...................+$$$$$$$$$+..................",
"...................+$$$$$$$$+...................",
"..................+$$$$$$$$+....................",
"................++$$$$$$$++.....................",
"..............++$$$$$$+++.......................",
"..........++++$$$$++++..........................",
"...........+++++++..............................",
"................................................",
"................................................",
"................................................",
"................................................"};
