/* XPM */
static char *magick[] = {
/* columns rows colors chars-per-pixel */
"48 48 221 2",
"   c Gray0",
".  c #000100",
"X  c #0c0c0c",
"o  c #161616",
"O  c #1b1b1b",
"+  c #002a00",
"@  c #0c2a00",
"#  c #033001",
"$  c #003400",
"%  c #003600",
"&  c #003700",
"*  c #003d00",
"=  c #272727",
"-  c #2a2a2a",
";  c Gray18",
":  c #313131",
">  c Gray20",
",  c #343434",
"<  c Gray21",
"1  c #373937",
"2  c #393939",
"3  c #3a3a3a",
"4  c #3c3c3c",
"5  c Gray24",
"6  c #3f3f3f",
"7  c #004000",
"8  c #004100",
"9  c #004200",
"0  c #004600",
"q  c #004900",
"w  c #004c00",
"e  c #004d00",
"r  c #005000",
"t  c #005300",
"y  c #005500",
"u  c #005600",
"i  c #005700",
"p  c #005800",
"a  c #005b00",
"s  c #005d00",
"d  c #005f00",
"f  c #006400",
"g  c #006600",
"h  c #006700",
"j  c #006800",
"k  c #006900",
"l  c #006b00",
"z  c #006c00",
"x  c #006d00",
"c  c #006e00",
"v  c #007000",
"b  c #007300",
"n  c #007500",
"m  c #007700",
"M  c #007a00",
"N  c #007d00",
"B  c #007e00",
"V  c #007f00",
"C  c #1a6100",
"Z  c Gray25",
"A  c Gray27",
"S  c #464646",
"D  c #494949",
"F  c #515151",
"G  c #545554",
"H  c #585858",
"J  c Gray37",
"K  c #606060",
"L  c Gray39",
"P  c Gray40",
"I  c #676767",
"U  c Gray42",
"Y  c #6d6d6d",
"T  c Gray45",
"R  c Gray46",
"E  c #767676",
"W  c Gray47",
"Q  c Gray",
"!  c Gray50",
"~  c #008200",
"^  c #008300",
"/  c #008400",
"(  c #008700",
")  c #008800",
"_  c #008b00",
"`  c #008d00",
"'  c #009000",
"]  c #009200",
"[  c #009300",
"{  c #009400",
"}  c #009500",
"|  c #009700",
" . c #009800",
".. c #009a00",
"X. c #009c00",
"o. c #009e00",
"O. c #009f00",
"+. c #00a100",
"@. c #00a300",
"#. c #00a400",
"$. c #00a600",
"%. c #00a800",
"&. c #00a900",
"*. c #00aa00",
"=. c #00ab00",
"-. c #00ae00",
";. c #00b000",
":. c #00b200",
">. c #00b300",
",. c #00b400",
"<. c #00b500",
"1. c #00b700",
"2. c #00b800",
"3. c #00b900",
"4. c #00ba00",
"5. c #00bc00",
"6. c #00be00",
"7. c #00bf00",
"8. c #00c100",
"9. c #00c300",
"0. c #00c400",
"q. c #00c500",
"w. c #00c600",
"e. c #00c800",
"r. c #00c900",
"t. c #00ca00",
"y. c #00cb00",
"u. c #00cd00",
"i. c #00ce00",
"p. c #00cf00",
"a. c #00d000",
"s. c #01d001",
"d. c #03d103",
"f. c #04d104",
"g. c #06d106",
"h. c #07d107",
"j. c #09d209",
"k. c #0ad20a",
"l. c #0cd20c",
"z. c #0dd20d",
"x. c #0fd30f",
"c. c #10d310",
"v. c #12d312",
"b. c #13d413",
"n. c #15d415",
"m. c #16d416",
"M. c #18d418",
"N. c #19d519",
"B. c #1bd51b",
"V. c #1cd51c",
"C. c #1ed61e",
"Z. c #1fd61f",
"A. c #21d621",
"S. c #22d622",
"D. c #24d724",
"F. c #25d725",
"G. c #27d727",
"H. c #28d728",
"J. c #2bd82b",
"K. c #30d930",
"L. c #31d931",
"P. c #33d933",
"I. c #34da34",
"U. c #36da36",
"Y. c #37da37",
"T. c #3adb3a",
"R. c #3cdb3c",
"E. c #3ddb3d",
"W. c #4eb625",
"Q. c #42dc42",
"!. c #43dc43",
"~. c #45dd45",
"^. c #46dd46",
"/. c #49dd49",
"(. c #4bde4b",
"). c #4cde4c",
"_. c #51df51",
"`. c #58e058",
"'. c #5ae15a",
"]. c #5be15b",
"[. c #5de15d",
"{. c #73c553",
"}. c #79c85b",
"|. c #7ac85b",
" X c #60e260",
".X c #63e263",
"XX c #64e264",
"oX c #6ce46c",
"OX c #6fe46f",
"+X c #70e570",
"@X c #76e676",
"#X c #7ce77c",
"$X c #7ee77e",
"%X c #8bd071",
"&X c #818181",
"*X c #848484",
"=X c #888888",
"-X c #8b8b8b",
";X c #8d8d8d",
":X c #8e8e8e",
">X c #909090",
",X c Gray57",
"<X c #939393",
"1X c Gray59",
"2X c #979797",
"3X c #9a9a9a",
"4X c Gray61",
"5X c #9d9d9d",
"6X c #9f9f9f",
"7X c #a0a0a0",
"8X c #a2a2a2",
"9X c Gray64",
"0X c #a3a4a3",
"qX c #a5a5a5",
"wX c Gray65",
"eX c Gray66",
"rX c #a9a9a9",
"tX c #81e881",
"yX c #91eb91",
"uX c Gray100",
"iX c None",
/* pixels */
"iXiXiXiXiXiXiXiXiXiXiXiXiXiXiXiXiXiXiXiXiXiXiXiXiXiXiXiXiXiXiXiXiXiXiXiXiXiXiXiXiXiXiXiXiXiXiXiX",
"iXiXiXiXiXiXiXiXiXiXiXiXiXiXiXiXiXiXiXiXiXiXiXiXiXiXiXiXiXiXiXiXiXiXiXiXiXiXiXiXiXiXiXiXiXiXiXiX",
"iXiXiXiXiXiXiXiXiXiXiXiXiXiXiXiXiXiXiXiXiXiXiXiXiXiXiXiXiXiXiXiXiXiXiXiXiXiXiXiXiXiXiXiXiXiXiXiX",
"iXiXiXiXiXiXiXiXiXiXiXiXiXiXiX9X6X2X<X:X:X:X:X:X:X:X:X:X:X-X&XW Y iXiXiXiXiXiXiXiXiXiXiXiXiXiXiX",
"iXiXiXiXiXiXiXiXiXiXiXeXwXwX9X6XuXuXuXuXuXuXuXtXtXtXtXtXtX#X@XOXP K K H iXiXiXiXiXiXiXiXiXiXiXiX",
"iXiXiXiXiXiXiXiXiXiXeXwX9XuXyXuXuXuXuXuXuXuXuX.X.X.X.X.X.X.X[.].].].].G F D iXiXiXiXiXiXiXiXiXiX",
"iXiXiXiXiXiXiXiXeXeX0XuXuX$XOXuXuXuXuXuXuXuXuXL.L.L.L.L.L.L.L.U.R.Q.(.(.(.S Z 6 iXiXiXiXiXiXiXiX",
"iXiXiXiXiXiXiXeXwXuXuXuX.X).U.G.uXuXuXuXuXuXuXj.j.j.j.j.j.j.x.v.M.A.J.U.R.R.R.1 > iXiXiXiXiXiXiX",
"iXiXiXiXiX9XwX9XuXuXuXuXJ.Z.v.j.uXuXuXuXuXuXuXd.d.d.d.d.d.d.d.d.g.j.x.M.G.J.L.U.; = O iXiXiXiXiX",
"iXiXiXiX3X6XuXuXOX_.U.Z.x.g.g.d.d.d.d.d.uXuXuXd.d.d.d.d.d.d.d.d.d.d.d.g.x.n.A.H.G.Z.X   iXiXiXiX",
"iXiXiXiX2XuXuXuXQ.G.n.j.d.d.d.d.d.d.d.d.uXuXuXd.d.d.d.d.d.d.d.d.d.d.d.d.g.g.v.M.M.v.d.  iXiXiXiX",
"iXiXiX<X:XuXuXuXuXuXg.d.d.d.d.d.d.d.uXuXuXuXuXd.d.d.d.d.d.d.d.d.d.d.d.d.d.d.g.j.x.j.p.    iXiXiX",
"iXiX-X-XuXuXuXuXuXuXuXd.d.d.d.d.d.uXuXuXuXuXuXd.d.d.d.d.d.d.d.d.d.d.d.d.d.d.d.d.g.d.y.6.    iXiX",
"iXiX*XuXuXuXuXuXuXuXd.d.d.d.d.d.d.d.uXuXuXuXuXd.d.d.d.d.d.d.d.d.d.d.d.d.d.d.d.d.d.d.p.9.-.  iXiX",
"iXT E uXuXuXuXuXuXuXd.d.d.uXuXd.d.d.uXuXuXuXuXd.d.d.d.d.d.d.d.d.d.d.d.d.d.d.d.d.d.d.d.9.*.    iX",
"iXK uXuXuXuXuXuXuXuXd.d.uXuXuXuXd.d.uXuXuXuXuXd.d.d.d.d.d.d.d.d.d.d.d.d.d.d.d.d.d.d.p.4.X.~   iX",
"iXF uXuXuXuXuXuXuXuXuXuXuXuXuXuXuXuXuXuXuXuXuXd.d.d.d.d.d.d.d.d.d.d.d.d.d.d.d.d.d.d.p.4.| n   iX",
"iXS ~.T.A.g.d.d.d.d.d.d.d.d.d.d.d.d.d.d.d.d.d.d.d.d.d.d.d.d.d.d.d.d.d.d.d.d.d.d.d.d.p.<.[ x   iX",
"iX6 R.U.Z.g.d.d.d.d.d.d.d.d.d.d.d.d.d.d.d.d.d.d.d.d.d.d.d.d.d.d.d.d.d.d.d.d.d.d.d.d.y.<.` j   iX",
"iX6 R.L.M.g.d.d.d.d.d.d.d.d.d.d.d.d.d.d.d.d.d.d.d.d.d.d.d.d.d.d.d.d.d.d.d.d.d.d.d.d.y.;.` j   iX",
"iX6 T.L.M.g.p.d.d.d.d.d.d.d.d.d.d.d.d.d.d.d.d.d.d.d.d.d.d.d.d.d.d.d.d.d.d.d.d.d.d.p.y.;._ g   iX",
"iX< L.H.M.g.p.d.d.d.d.d.d.d.d.d.d.d.d.d.d.d.d.d.d.d.d.d.d.d.d.d.d.d.d.d.d.d.d.d.d.p.y.-.( d   iX",
"iX- G.A.b.d.p.p.d.d.d.d.d.d.d.d.d.d.d.d.d.d.d.d.d.d.d.d.d.d.d.d.d.d.d.d.d.d.d.d.p.p.9.$.M u   iX",
"iXo v.v.j.p.p.p.p.d.d.d.d.d.d.d.d.d.d.d.d.d.d.d.d.d.d.d.d.d.d.d.d.d.d.d.d.d.d.p.p.y.4.| g 7   iX",
"iX    y.y.y.p.p.p.p.d.d.d.d.d.d.d.d.d.d.d.d.d.d.d.d.d.d.d.d.d.d.d.d.d.d.d.d.d.p.y.9.$.n q     iX",
"iXiX  <.6.0.y.p.p.p.d.d.d.d.d.d.d.d.d.d.d.d.d.d.d.d.d.d.d.d.d.d.d.d.d.d.d.d.p.p.0.;._ a $   iXiX",
"iXiX    ;.6.0.y.p.p.p.p.d.d.d.d.d.d.d.d.d.d.d.d.d.d.d.d.d.d.d.d.d.d.p.p.p.p.p.y.4...j $ +   iXiX",
"iXiXiX    *.<.6.0.y.p.p.p.d.d.d.d.d.d.d.d.d.d.d.d.d.d.d.d.d.d.d.d.d.d.p.p.y.0.<...b 7     iXiXiX",
"iXiXiXiX  | X.*.<.9.y.p.p.p.p.p.d.d.d.d.d.d.d.d.d.d.d.d.d.d.d.d.p.p.p.p.y.6.-.[ j 7 $   iXiXiXiX",
"iXiXiXiX    B ( | *.4.9.y.p.p.p.p.d.d.d.d.d.d.d.d.d.d.d.d.d.d.p.p.p.y.9.<.+.~ d $ $     iXiXiXiX",
"iXiXiXiXiX      n ( ..*.4.9.y.y.p.p.p.p.d.d.d.d.d.d.d.d.p.p.p.y.y.9.<.$._ j q $       iXiXiXiXiX",
"iXiXiXiXiXiXiX    g b ~ [ +.-.4.9.0.y.y.y.p.p.p.p.d.p.p.p.y.9.4.-.X._ x t $ $     iXiXiXiXiXiXiX",
"iXiXiXiXiXiXiXiX      a g n ~ [ ..+.*.<.6.0.y.p.p.d.p.y.0.4.*.[ M g q $ $       iXiXiXiXiXiXiXiX",
"iXiXiXiXiXiXiXiXiXiX      e u d g b B [ *.6.y.p.d.p.p.0.4.X.B d 7 $ $       iXiXiXiXiXiXiXiXiXiX",
"iXiXiXiXiXiXiXiXiXiXiXiX      # * q d B +.6.y.d.p.p.y.6.+.M e $         iXiXiXiXiXiXiXiXiXiXiXiX",
"iXiXiXiXiXiXiXiXiXiXiXiXiXiX              0.g.g.d.y.9.$.B e       iXiXiXiXiXiXiXiXiXiXiXiXiXiXiX",
"iXiXiXiXiXiXiXiXiXiXiXiXiXiXiXiXiXiXiXiX  v.m.j.p.9.*.( t $   iXiXiXiXiXiXiXiXiXiXiXiXiXiXiXiXiX",
"iXiXiXiXiXiXiXiXiXiXiXiXiXiXiXiXiXiXiX< > U.G.x.9.*.( u $ @   iXiXiXiXiXiXiXiXiXiXiXiXiXiXiXiXiX",
"iXiXiXiXiXiXiXiXiXiXiXiXiXiXiXiXiXiXiXJ }.~.G.y.+.B u $ @     iXiXiXiXiXiXiXiXiXiXiXiXiXiXiXiXiX",
"iXiXiXiXiXiXiXiXiXiXiXiXiXiXiXiXiXiX:X! XXU.y...x 0 $ @     iXiXiXiXiXiXiXiXiXiXiXiXiXiXiXiXiXiX",
"iXiXiXiXiXiXiXiXiXiXiXiXiXiXiXiXiX6X:X%XT.9.~ t $ $ @     iXiXiXiXiXiXiXiXiXiXiXiXiXiXiXiXiXiXiX",
"iXiXiXiXiXiXiXiXiXiXiXiXiXiXiX2X<X! }.B.+.g $ $ @       iXiXiXiXiXiXiXiXiXiXiXiXiXiXiXiXiXiXiXiX",
"iXiXiXiXiXiXiXiXiXiXiXiXiXP E U {.A.<.M 0 @         iXiXiXiXiXiXiXiXiXiXiXiXiXiXiXiXiXiXiXiXiXiX",
"iXiXiXiXiXiXiXiXiXiX2 Z Z 2 W.d.*.C           iXiXiXiXiXiXiXiXiXiXiXiXiXiXiXiXiXiXiXiXiXiXiXiXiX",
"iXiXiXiXiXiXiXiXiXiXiX                iXiXiXiXiXiXiXiXiXiXiXiXiXiXiXiXiXiXiXiXiXiXiXiXiXiXiXiXiX",
"iXiXiXiXiXiXiXiXiXiXiXiXiXiXiXiXiXiXiXiXiXiXiXiXiXiXiXiXiXiXiXiXiXiXiXiXiXiXiXiXiXiXiXiXiXiXiXiX",
"iXiXiXiXiXiXiXiXiXiXiXiXiXiXiXiXiXiXiXiXiXiXiXiXiXiXiXiXiXiXiXiXiXiXiXiXiXiXiXiXiXiXiXiXiXiXiXiX",
"iXiXiXiXiXiXiXiXiXiXiXiXiXiXiXiXiXiXiXiXiXiXiXiXiXiXiXiXiXiXiXiXiXiXiXiXiXiXiXiXiXiXiXiXiXiXiXiX"
};
