/* XPM */
static char *magick[] = {
/* columns rows colors chars-per-pixel */
"48 48 256 2",
"   c Gray0",
".  c #0c0c0c",
"X  c #161616",
"o  c #1b1b1b",
"O  c Gray14",
"+  c #272727",
"@  c #2a2a2a",
"#  c Gray18",
"$  c #313131",
"%  c Gray21",
"&  c #373737",
"*  c #3c3c3c",
"=  c Gray24",
"-  c #3f3f3f",
";  c #004000",
":  c #004200",
">  c #004400",
",  c #004e00",
"<  c #005100",
"1  c #005700",
"2  c #005a00",
"3  c #006200",
"4  c #006a00",
"5  c #007200",
"6  c #007500",
"7  c #007b00",
"8  c #007e00",
"9  c #480000",
"0  c #620000",
"q  c #6c0000",
"w  c #710000",
"e  c #750000",
"r  c #7d0000",
"t  c Gray25",
"y  c #414141",
"u  c #464646",
"i  c #494949",
"p  c #4b4b4b",
"a  c #4e4e4e",
"s  c #515151",
"d  c Gray33",
"f  c Gray34",
"g  c #585858",
"h  c #5a5a5a",
"j  c #606060",
"k  c Gray39",
"l  c #676767",
"z  c Gray42",
"x  c #6d6d6d",
"c  c #6f6f6f",
"v  c Gray45",
"b  c #777777",
"n  c Gray47",
"m  c Gray49",
"M  c #008100",
"N  c #008500",
"B  c #008900",
"V  c #009200",
"C  c #009600",
"Z  c #009f00",
"A  c #00a200",
"S  c #00a700",
"D  c #00aa00",
"F  c #00ad00",
"G  c #00b400",
"H  c #00ba00",
"J  c #00bd00",
"K  c #00c300",
"L  c #00ca00",
"P  c #00cf00",
"I  c #00d500",
"U  c #00d800",
"Y  c #00dd00",
"T  c #00e000",
"R  c #00e100",
"E  c #00e300",
"W  c #00e600",
"Q  c #00ea00",
"!  c #00ec00",
"~  c #00ed00",
"^  c #00ef00",
"/  c #00f100",
"(  c #00f500",
")  c #00f600",
"_  c #00f800",
"`  c #00f900",
"'  c #00fb00",
"]  c #00fc00",
"[  c #00fe00",
"{  c Green",
"}  c #01ff01",
"|  c #03ff03",
" . c #04ff04",
".. c #06ff06",
"X. c #07ff07",
"o. c #0aff0a",
"O. c #0dff0d",
"+. c #0fff0f",
"@. c #10ff10",
"#. c #12ff12",
"$. c #16ff16",
"%. c #19ff19",
"&. c #1bff1b",
"*. c #1cff1c",
"=. c #22ff22",
"-. c #24ff24",
";. c #27ff27",
":. c #28ff28",
">. c #2bff2b",
",. c #33ff33",
"<. c #34ff34",
"1. c #36ff36",
"2. c #3cff3c",
"3. c #43ff43",
"4. c #49ff49",
"5. c #4bff4b",
"6. c #58ff58",
"7. c #60ff60",
"8. c #800000",
"9. c #8e0000",
"0. c #920000",
"q. c #9b0000",
"w. c #a10000",
"e. c #a50000",
"r. c #b60000",
"t. c #b90000",
"y. c #be0000",
"u. c #cd0000",
"i. c #d10000",
"p. c #da0000",
"a. c #de0000",
"s. c #e00000",
"d. c #e30000",
"f. c #e70000",
"g. c #ea0000",
"h. c #ec0000",
"j. c #ef0000",
"k. c #f20000",
"l. c #f50000",
"z. c #f60000",
"x. c #f80000",
"c. c #f90000",
"v. c #fb0000",
"b. c #fc0000",
"n. c #fe0000",
"m. c Red",
"M. c #ff0101",
"N. c #ff0303",
"B. c #ff0404",
"V. c #ff0606",
"C. c #ff0909",
"Z. c #ff0a0a",
"A. c #ff0d0d",
"S. c #ff0f0f",
"D. c #ff1010",
"F. c #ff1212",
"G. c #ff1313",
"H. c #ff1515",
"J. c #ff1818",
"K. c #ff1b1b",
"L. c #ff1c1c",
"P. c #ff1e1e",
"I. c #ff1f1f",
"U. c #ff2222",
"Y. c #ff2424",
"T. c #ff2727",
"R. c #ff2b2b",
"E. c #ff3030",
"W. c #ff3333",
"Q. c #ff3434",
"!. c #ff3737",
"~. c #ff3a3a",
"^. c #ff3c3c",
"/. c #ff3d3d",
"(. c #ff4242",
"). c #ff4646",
"_. c #ff4848",
"`. c #ff4b4b",
"'. c #ff4c4c",
"]. c #ff5151",
"[. c #ff5555",
"{. c #ff5858",
"}. c #ff5b5b",
"|. c #ff6060",
" X c #ff6363",
".X c #ff6464",
"XX c #ff6c6c",
"oX c #ff6f6f",
"OX c #ff7a7a",
"+X c #ff7e7e",
"@X c #ff7f7f",
"#X c #818181",
"$X c #838383",
"%X c Gray52",
"&X c #868686",
"*X c #898989",
"=X c #8b8b8b",
"-X c #8d8d8d",
";X c #8e8e8e",
":X c #929292",
">X c #959595",
",X c #979797",
"<X c #989898",
"1X c #9a9a9a",
"2X c Gray61",
"3X c Gray62",
"4X c #a0a0a0",
"5X c #a2a2a2",
"6X c Gray64",
"7X c #a3a4a2",
"8X c #a5a5a5",
"9X c Gray65",
"0X c Gray66",
"qX c #a9a9a9",
"wX c Gray67",
"eX c #bbb7a6",
"rX c #b1b1b1",
"tX c Gray70",
"yX c #b4b4b4",
"uX c #b7b7b7",
"iX c Gray75",
"pX c #ff8181",
"aX c #ff8787",
"sX c #ff8a8a",
"dX c #ff8e8e",
"fX c #ff9191",
"gX c #ff9494",
"hX c #ff9a9a",
"jX c #ff9c9c",
"kX c #c0c0c0",
"lX c Gray79",
"zX c #cecece",
"xX c Gray82",
"cX c Gray83",
"vX c #d8d8d8",
"bX c Gray86",
"nX c #dddddd",
"mX c Gray89",
"MX c #e7e7e7",
"NX c #e9e9e9",
"BX c #ececec",
"VX c #efefef",
"CX c Gray94",
"ZX c Gray95",
"AX c #f3f3f3",
"SX c #f6f6f6",
"DX c #f8f8f8",
"FX c #f9f9f9",
"GX c #fbfbfb",
"HX c #fbfcfa",
"JX c #fbfdfb",
"KX c #fcfdfb",
"LX c Gray99",
"PX c #fefefe",
"IX c Gray100",
"UX c None",
/* pixels */
"UXUXUXUXUXUXUXUXUXUXUXUXUXUXUXUXUXUXUXUXUXUXUXUXUXUXUXUXUXUXUXUXUXUXUXUXUXUXUXUXUXUXUXUXUXUXUXUX",
"UXUXUXUXUXUXUXUXUXUXUXUXUXUXUXUXUXUXUXUXUXUXUXUXUXUXUXUXUXUXUXUXUXUXUXUXUXUXUXUXUXUXUXUXUXUXUXUX",
"UXUXUXUXUXUXUXUXUXUXUXUXUXUXUXUXUXUXUXUXUXUXUXUXUXUXUXUXUXUXUXUXUXUXUXUXUXUXUXUXUXUXUXUXUXUXUXUX",
"UXUXUXUXUXUXUXUXUXUXUXUXUXUXUX4X2X,X:X;X;X;X;X;X;X;X;X;X;X=X#Xn c UXUXUXUXUXUXUXUXUXUXUXUXUXUXUX",
"UXUXUXUXUXUXUXUXUXUXUX0X9X9X4X2XgXIXIXIXIXIXIXIXIXIXIXIXIXIXIX7.l j j h UXUXUXUXUXUXUXUXUXUXUXUX",
"UXUXUXUXUXUXUXUXUXUX0X9X4XhXfXaXOXIXIXIXIXIXIXIXIXIXIXIXIXIXIX7.7.6.6.f s p UXUXUXUXUXUXUXUXUXUX",
"UXUXUXUXUXUXUXUX0X0X4XhXdX@XoX{._.IXIXIXIXIXIXIXIXIXIXIXIXIXIX1.2.3.5.5.5.u t - UXUXUXUXUXUXUXUX",
"UXUXUXUXUXUXUX0XeXjXdXOX X'.!.Y.K.IXIXIXIXIXIXIXIXIXIXIXIXIXIX#.&.=.>.1.2.2.2.% $ UXUXUXUXUXUXUX",
"UXUXUXUXUX4X9X4XgX@X.X_.E.L.G.C.V.IXIXIXIXIXIXIXIXIXIXIXIXIXIX|  .o.O.&.;.>.,.,.# O o UXUXUXUXUX",
"UXUXUXUX1X4XhXsXoX].!.L.A.V.V.N.N.IXIXIXIXIXIXIXIXIXIXIXIXIXIX| | | |  .O.$.=.>.;.*..   UXUXUXUX",
"UXUXUXUX,XgXpX.X(.Y.H.C.N.N.N.N.N.IXIXIXIXIXIXIXIXIXIXIXIXIXIX| | | | |  . .#.&.&.#.|   UXUXUXUX",
"UXUXUX:X;X@X X~.L.A.V.N.N.N.N.N.N.IXIXIXIXIXIXIXIXIXIXIXIXIXIX| | | | | | |  .O.O.o.`     UXUXUX",
"UXUX=X=X@X X/.L.C.V.N.N.N.N.N.N.N.IXIXIXIXIXIXIXIXIXIXIXIXIXIX| | | | | | | | |  . .` Q     UXUX",
"UXUX%X@XoX_.Y.A.N.N.N.N.N.N.N.N.N.IXIXIXIXIXIXIXIXIXIXIXIXIXIX| | | | | | | | | | | | ! I   UXUX",
"UXv b oX[.E.G.V.N.N.N.N.N.N.N.N.N.IXIXIXIXIXIXIXIXIXIXIXIXIXIX| | | | | | | | | | | | ! P     UX",
"UXj  X{./.K.C.N.N.N.N.N.N.N.N.N.N.IXIXIXIXIXIXIXIXIXIXIXIXIXIX| | | | | | | | | | | | W K A   UX",
"UXs ].).R.A.N.N.N.N.N.N.N.N.N.N.N.IXIXIXIXIXIXIXIXIXIXIXIXIXIX| | | | | | | | | | | ` E H V   UX",
"UXu ).~.U.V.N.N.N.N.N.N.N.N.N.N.N.IXIXIXIXIXIXIXIXIXIXIXIXIXIX| | | | | | | | | | | ` E G N   UX",
"UX- /.!.L.V.N.N.N.N.N.N.N.N.N.N.N.IXIXIXIXIXIXIXIXIXIXIXIXIXIX| | | | | | | | | | | ` Y F M   UX",
"UX- /.E.L.V.N.N.N.N.N.N.N.N.N.N.N.IXIXIXIXIXIXIXIXIXIXIXIXIXIX| | | | | | | | | | | ` Y F M   UX",
"UX- ~.R.K.V.N.N.N.N.N.N.N.N.N.N.N.IXIXIXIXIXIXIXIXIXIXIXIXIXIX| | | | | | | | | | | ` Y D 8   UX",
"UX% E.R.K.N.N.N.N.N.N.N.N.N.N.N.N.IXIXIXIXIXIXIXIXIXIXIXIXIXIX| | | | | | | | | | | ) I A 6   UX",
"UX@ R.U.G.N.N.N.N.N.N.N.N.N.N.N.N.IXIXIXIXIXIXIXIXIXIXIXIXIXIX| | | | | | | | | | ` / L C 4   UX",
"UXX G.G.V.N.N.N.N.N.N.N.N.N.N.N.N.IXIXIXIXIXIXIXIXIXIXIXIXIXIX| | | | | | | | | | ) E G 7 <   UX",
"UX    z.v.v.v.N.N.N.N.N.N.N.N.N.N.IXIXIXIXIXIXIXIXIXIXIXIXIXIX| | | | | | | | | ` ! L V 1     UX",
"UXUX  d.g.k.v.N.N.N.N.N.N.N.N.N.N.IXIXIXIXIXIXIXIXIXIXIXIXIXIX| | | | | | | | ` / U D 4 ;   UXUX",
"UXUX    p.f.k.z.N.N.N.N.N.N.N.N.N.IXIXIXIXIXIXIXIXIXIXIXIXIXIX| | | | | | | ` ) E H 8 >     UXUX",
"UXUXUX    i.a.g.k.z.N.N.N.N.N.N.N.IXIXIXIXIXIXIXIXIXIXIXIXIXIX| | | | | | ` / E J B ,     UXUXUX",
"UXUXUXUX  r.y.u.a.j.z.v.N.N.N.N.N.IXIXIXIXIXIXIXIXIXIXIXIXIXIX| | | | ` ) Q I G N < ;   UXUXUXUX",
"UXUXUXUX    q.e.t.i.d.j.z.v.N.N.N.IXIXIXIXIXIXIXIXIXIXIXIXIXIX| | ` ) ! Y K Z 5 ; ;     UXUXUXUX",
"UXUXUXUXUX      9.e.y.i.d.j.z.v.N.IXIXIXIXIXIXIXIXIXIXIXIXIXHX` ) ! E L D N 2 ;       UXUXUXUXUX",
"UXUXUXUXUXUXUX    r 9.w.r.u.p.f.j.ZXSXSXGXIXIXIXIXIXIXIXGXSXVXE I K S N 3 ; ;     UXUXUXUXUXUXUX",
"UXUXUXUXUXUXUXUX      w 8.0.e.r.y.lXxXbXMXZXGXIXIXIXIXGXZXmXzXG C 7 2 ; ;       UXUXUXUXUXUXUXUX",
"UXUXUXUXUXUXUXUXUXUX      0 q e r =X2XtXxXNXSXIXIXIXGXVXnXiX1X5 , ; ;       UXUXUXUXUXUXUXUXUXUX",
"UXUXUXUXUXUXUXUXUXUXUXUX      9 9 f c ,XkXmXGXIXIXGXVXbXuX=Xf ;         UXUXUXUXUXUXUXUXUXUXUXUX",
"UXUXUXUXUXUXUXUXUXUXUXUXUXUXUX            VXIXIXGXVXbXuX#Xa       UXUXUXUXUXUXUXUXUXUXUXUXUXUXUX",
"UXUXUXUXUXUXUXUXUXUXUXUXUXUXUXUXUXUXUXUX  IXIXIXZXbXuX#Xa t   UXUXUXUXUXUXUXUXUXUXUXUXUXUXUXUXUX",
"UXUXUXUXUXUXUXUXUXUXUXUXUXUXUXUXUXUXUXUXO IXIXIXnXtX#Xa t -   UXUXUXUXUXUXUXUXUXUXUXUXUXUXUXUXUX",
"UXUXUXUXUXUXUXUXUXUXUXUXUXUXUXUXUXUXUXs KXIXIXMXtXm p t -   UXUXUXUXUXUXUXUXUXUXUXUXUXUXUXUXUXUX",
"UXUXUXUXUXUXUXUXUXUXUXUXUXUXUXUXUXUXUXv IXIXZX0Xc t - -   UXUXUXUXUXUXUXUXUXUXUXUXUXUXUXUXUXUXUX",
"UXUXUXUXUXUXUXUXUXUXUXUXUXUXUXUXUXUX%XKXIXVX2Xh t t -   UXUXUXUXUXUXUXUXUXUXUXUXUXUXUXUXUXUXUXUX",
"UXUXUXUXUXUXUXUXUXUXUXUXUXUXUXUX%Xb HXIXcX%Xp t -     UXUXUXUXUXUXUXUXUXUXUXUXUXUXUXUXUXUXUXUXUX",
"UXUXUXUXUXUXUXUXUXUXUXUXUXUXz j HXIXVX0Xz -       UXUXUXUXUXUXUXUXUXUXUXUXUXUXUXUXUXUXUXUXUXUXUX",
"UXUXUXUXUXUXUXUXUXUX% - - % HXIXnX7X        UXUXUXUXUXUXUXUXUXUXUXUXUXUXUXUXUXUXUXUXUXUXUXUXUXUX",
"UXUXUXUXUXUXUXUXUXUXUX              UXUXUXUXUXUXUXUXUXUXUXUXUXUXUXUXUXUXUXUXUXUXUXUXUXUXUXUXUXUX",
"UXUXUXUXUXUXUXUXUXUXUXUXUXUXUXUXUXUXUXUXUXUXUXUXUXUXUXUXUXUXUXUXUXUXUXUXUXUXUXUXUXUXUXUXUXUXUXUX",
"UXUXUXUXUXUXUXUXUXUXUXUXUXUXUXUXUXUXUXUXUXUXUXUXUXUXUXUXUXUXUXUXUXUXUXUXUXUXUXUXUXUXUXUXUXUXUXUX",
"UXUXUXUXUXUXUXUXUXUXUXUXUXUXUXUXUXUXUXUXUXUXUXUXUXUXUXUXUXUXUXUXUXUXUXUXUXUXUXUXUXUXUXUXUXUXUXUX"
};
