/* XPM */
static char *magick[] = {
/* columns rows colors chars-per-pixel */
"48 48 217 2",
"   c Gray0",
".  c #010101",
"X  c Gray1",
"o  c #030403",
"O  c #070303",
"+  c #040404",
"@  c Gray2",
"#  c #060606",
"$  c #070707",
"%  c Gray3",
"&  c #090909",
"*  c Gray4",
"=  c #0b0b0b",
"-  c #0c0c0c",
";  c #181818",
":  c #320000",
">  c Gray13",
",  c Gray15",
"<  c #313131",
"1  c #343434",
"2  c Gray22",
"3  c Gray23",
"4  c #3f3f3f",
"5  c #004000",
"6  c #004200",
"7  c #004400",
"8  c #004700",
"9  c #004a00",
"0  c #004b00",
"q  c #005000",
"w  c #005100",
"e  c #005300",
"r  c #005400",
"t  c #005600",
"y  c #005900",
"u  c #005c00",
"i  c #005d00",
"p  c #005f00",
"a  c #006000",
"s  c #006200",
"d  c #006300",
"f  c #006500",
"g  c #006600",
"h  c #006800",
"j  c #006900",
"k  c #006c00",
"l  c #006e00",
"z  c #006f00",
"x  c #007100",
"c  c #007500",
"v  c #007700",
"b  c #007800",
"n  c #007a00",
"m  c #007b00",
"M  c #007e00",
"N  c Gray26",
"B  c #444444",
"V  c Gray27",
"C  c #464646",
"Z  c #484848",
"A  c #494949",
"S  c #4b4b4b",
"D  c Gray30",
"F  c Gray31",
"G  c #515151",
"H  c Gray35",
"J  c #675c5c",
"K  c #606060",
"L  c #626262",
"P  c Gray40",
"I  c #686868",
"U  c Gray42",
"Y  c Gray43",
"T  c #747474",
"R  c #767676",
"E  c Gray48",
"W  c #7c7c7c",
"Q  c Gray50",
"!  c #008100",
"~  c #008300",
"^  c #008400",
"/  c #008600",
"(  c #008700",
")  c #008c00",
"_  c #009000",
"`  c #009200",
"'  c #009600",
"]  c #009800",
"[  c #009900",
"{  c #009b00",
"}  c #009c00",
"|  c #009e00",
" . c #009f00",
".. c #00a400",
"X. c #00a500",
"o. c #00a700",
"O. c #00a800",
"+. c #00ad00",
"@. c #00b100",
"#. c #00b300",
"$. c #00b400",
"%. c #00b600",
"&. c #00b700",
"*. c #00ba00",
"=. c #00bc00",
"-. c #00c000",
";. c #00c500",
":. c #00c600",
">. c #00c900",
",. c #00cb00",
"<. c #00ce00",
"1. c #00cf00",
"2. c #00d100",
"3. c #00d400",
"4. c #00d700",
"5. c #00d800",
"6. c #00da00",
"7. c #00db00",
"8. c #00dd00",
"9. c #00de00",
"0. c #00e100",
"q. c #00e300",
"w. c #00e600",
"e. c #00e900",
"r. c #00ea00",
"t. c #00ec00",
"y. c #00ed00",
"u. c #00ef00",
"i. c #00f000",
"p. c #00f200",
"a. c #00f300",
"s. c #00f500",
"d. c #00f600",
"f. c #00f800",
"g. c #00f900",
"h. c #00fb00",
"j. c #00fc00",
"k. c #00fe00",
"l. c Green",
"z. c #01ff01",
"x. c #03ff03",
"c. c #06ff06",
"v. c #07ff07",
"b. c #0cff0c",
"n. c #10ff10",
"m. c #12ff12",
"M. c #16ff16",
"N. c #18ff18",
"B. c #19ff19",
"V. c #1bff1b",
"C. c #1eff1e",
"Z. c #1fff1f",
"A. c #22ff22",
"S. c #27ff27",
"D. c #2aff2a",
"F. c #2dff2d",
"G. c #33ff33",
"H. c #36ff36",
"J. c #37ff37",
"K. c #3fff3f",
"L. c #42ff42",
"P. c #4cff4c",
"I. c #60ff60",
"U. c #66ff66",
"Y. c #6fff6f",
"T. c #72ff72",
"R. c #900000",
"E. c #990000",
"W. c #990101",
"Q. c #cc0000",
"!. c #f20000",
"~. c #fb0000",
"^. c #fe0000",
"/. c Red",
"(. c #ff0101",
"). c #848484",
"_. c Gray53",
"`. c #888888",
"'. c Gray54",
"]. c #8e8e8e",
"[. c Gray56",
"{. c Gray57",
"}. c #939393",
"|. c Gray59",
" X c #989898",
".X c Gray61",
"XX c #9f9f9f",
"oX c Gray63",
"OX c #a2a2a2",
"+X c #a4a4a4",
"@X c #a5a5a5",
"#X c Gray65",
"$X c #a7a7a7",
"%X c #ada7a7",
"&X c #a9a9a9",
"*X c #aaaaaa",
"=X c #acacac",
"-X c #b6b6b6",
";X c #b9b9b9",
":X c #bcbcbc",
">X c #c0c0c0",
",X c Gray76",
"<X c #c8c8c8",
"1X c Gray80",
"2X c Gray83",
"3X c #d8d8d8",
"4X c Gray87",
"5X c #e9e9e9",
"6X c #eaeaea",
"7X c #ececec",
"8X c Gray93",
"9X c Gray95",
"0X c Gray96",
"qX c Gray99",
"wX c #fefefe",
"eX c Gray100",
"rX c None",
/* pixels */
"rXrXrXrXrXrXrXrXrXrXrXrXrXrXrXrXrXrXrXrXrXrXrXrXrXrXrXrXrXrXrXrXrXrXrXrXrXrXrXrXrXrXrXrXrXrXrXrX",
"rXrXrXrXrXrXrXrXrXrXrXrXrXrXrXrXrXrXrXrXrXrXrXrXrXrXrXrXrXrXrXrXrXrXrXrXrXrXrXrXrXrXrXrXrXrXrXrX",
"rXrXrXrXrXrXrXrXrXrXrXrXrXrXrXrXrXrXrXrXrXrXrXrXrXrXrXrXrXrXrXrXrXrXrXrXrXrXrXrXrXrXrXrXrXrXrXrX",
"rXrXrXrXrXrXrXrXrXrXrXrXrXrXrX+XOX.X|.{.|.{.{.{.{.{.|.{.{.]._.W R rXrXrXrXrXrXrXrXrXrXrXrXrXrXrX",
"rXrXrXrXrXrXrXrXrXrXrX&X&X&X+XOXeXeXeXeXeXeXeXeXeXeXeXeXeXeXeXeXY I I L rXrXrXrXrXrXrXrXrXrXrXrX",
"rXrXrXrXrXrXrXrXrXrX=X&X+XeXeXeXeXeXeXeXeXeXeXeXeXeXeXeXeXeXeXeXeXeXeXJ H G rXrXrXrXrXrXrXrXrXrX",
"rXrXrXrXrXrXrXrX=X=X%XeXeXeXeXeXeXeXeXeXeXeXeXeXeXeXeXeXeXeXeXeXeXeXeXeXeXF Z C rXrXrXrXrXrXrXrX",
"rXrXrXrXrXrXrX=X&XeXeXeXeXeXeXeXeXeXeXeXeXeXeXeXeXeXeXeXeXeXeXeXeXeXeXeXeXeXeXC 2 rXrXrXrXrXrXrX",
"rXrXrXrXrX&X&X+XeXeXeXeXeXeXeXeXeXeXeXeXeXeXeXeXeXeXeXeXeXeXeXeXeXeXeXeXeXeXeXeX2 < , rXrXrXrXrX",
"rXrXrXrX.X+XeXeXeXeXeXeXeXeXeXeXeXeXeXeXeXeXeXeXeXeXeXeXeXeXeXeXeXeXeXeXeXeXeXeXeXeX; - rXrXrXrX",
"rXrXrXrX.XeXeXeXeXeXeXeXeXeXeXeXeXeXeXeXeXeXeXeXeXeXeXeXeXeXeXeXeXeXeXeXeXeXeXeXeXeX0X* rXrXrXrX",
"rXrXrX X{.eXeXeXeXeXeXeXeXeXeXeXeXeXeXeX  eXeXeXeXeXeXeXeXeXeXeXeXeXeXeXeXeXeXeXeXeX8X* * rXrXrX",
"rXrX{.{.eXeXeXeXeXeXeXeXeXeXeXeXE.    E././.eXeXeXeXeXeXeXeX/./.eXeXeXE.E.eXeXeXeXeX6X4X* * rXrX",
"rXrX'.eXeXeXeXeXeXeXeXeXeXeXeX  /././.    eXeXeXeXeXeXeXE././.E.eXeX/./.eXeXeXeXeXeX6X3X1X* rXrX",
"rXE W eXeXeXeXeXeXeX/.E.  eX    E././.  /./.eXeXeXeX/.E././.E.E./././.eXeXeXeX/.eXeX9X3X>X* * rX",
"rXI eXeXeXeXeXeXeXeXE.E.E.E.E./.E././.  /./.eXeXeX/.E././.E./././././.eXeXeXeX/.eXeX9X2X-X.X# rX",
"rXH eXeXeXeXeXeXeXeXeXeX  eX  E./././././.eXeXeX/.E./.E././.E.E.  E.eXeXeXeX/.    eX8X<XOX_.# rX",
"rXF eXeXeXeXeXeXeXeX  /.E.eXeXeXeX/././.E.eXeXeX/.    E.E./././.Q.eXeX/././.E.eXeXeX8X>X|.R # rX",
"rXZ eXeXeXeXeXeXeXeX  E./.eXeXeX  /./././.eXeXeX/.  Q.Q.Q.E.    /.eXeX/.E././.eXeXeX6X:X].I # rX",
"rXC eXeXeXeXeXeXeXeXE.E.E.eXeX  /.  /./.  eXeX  /./././././././.E.eXeXE.eXE./.eXeXeX6X;X'.L # rX",
"rXC J.J.D.n.l.l.l.l./././.l.    /././.E.        /./././.E.E./././.      E././.l.l.l.w.@.! u # rX",
"rX4 F.D.A.n.l.l.l.l.  /./.l.  /./././././.E.  /././.E./././.E././././././.E.g l.l.h.9.O.c q # rX",
"rX1 V.V.M.b.l.l.l.  l././.    E./.  /./././.  /./././.  /./././././././.  l.l.l.l.p.1.` s 5 # rX",
"rX> l.h.h.h.h.l.l.l.l.l.l./.    /./.E./.  /./././.E./././.  /./././.E././.l.l.l.h.q.+.h 5 5   rX",
"rX- - q.w.p.s.h.l.l.l.l.l././././.E././.E.E./.E././././.g l.E.E./././././.E.l.h.u.;.( 8 5 #   rX",
"rXrX* 2.3.q.u.h.l.l.l.l.l.l./.    /./.  /.E.l.l././././.    l.l.l.l.l.E./.l.l.p.3.| y 5 5   rXrX",
"rXrX* * -.,.5.r.p.h.l.l.l.l.l.l.  /.l.l.l.g l.l.l.l.E.E./.  l.g l.l.l.E./.l.h.q.@.z 5 5 o   rXrX",
"rXrXrX* * $.=.,.5.r.s.l.  l.l.  E.  l.l.l.E./.  l.  E.E.  l.l.l.  l.l./.  p.9.$.b 5 5   # rXrXrX",
"rXrXrXrX* o.| o.$.,.q.p.      E./.l.l.l.l.    /.E./././.l.l.l.  /./.  !.  ,.o.x 5 5 5   rXrXrXrX",
"rXrXrXrX* % ! M ( [ $.2.  R.    l.    l.l.    g l.l.l.    l.l.l.~.p.w.,.8   : 5 5 5 #   rXrXrXrX",
"rXrXrXrXrX# # # z c ( | $.1.q.u.h.l.l.l.l.l.l.l.l.l.l.l.l.h.s.r.5.;.o.! y 5 5 5 5 #   rXrXrXrXrX",
"rXrXrXrXrXrXrX# # s g z ! [ @.;.2.5.9.q.r.p.h.l.l.l.l.h.p.q.1.$.' c q 5 5 5 5     rXrXrXrXrXrXrX",
"rXrXrXrXrXrXrXrX# # # r u h b ( ) ` | +.;.9.u.h.l.l.h.u.5.*.` h 8 5 5 5 5 # O   rXrXrXrXrXrXrXrX",
"rXrXrXrXrXrXrXrXrXrX# # # q q q q r s M o.1.u.l.l.l.s.q.=.! q 5 5 5 5       rXrXrXrXrXrXrXrXrXrX",
"rXrXrXrXrXrXrXrXrXrXrXrX#     5 5 5 5 s [ ,.u.l.v.l.u.,.` 9 5 5   # +   rXrXrXrXrXrXrXrXrXrXrXrX",
"rXrXrXrXrXrXrXrXrXrXrXrXrXrX  o     # # * r.v.n.v.s.9.o.g 5   o + rXrXrXrXrXrXrXrXrXrXrXrXrXrXrX",
"rXrXrXrXrXrXrXrXrXrXrXrXrXrXrXrXrXrXrXrX- Z.S.Z.v.w.=.b 5 5   rXrXrXrXrXrXrXrXrXrXrXrXrXrXrXrXrX",
"rXrXrXrXrXrXrXrXrXrXrXrXrXrXrXrXrXrXrX1 N P.K.Z.u.*.! 5 5 5 o rXrXrXrXrXrXrXrXrXrXrXrXrXrXrXrXrX",
"rXrXrXrXrXrXrXrXrXrXrXrXrXrXrXrXrXrXrXI T.I.J.s.+.x 5 5 5     rXrXrXrXrXrXrXrXrXrXrXrXrXrXrXrXrX",
"rXrXrXrXrXrXrXrXrXrXrXrXrXrXrXrXrXrX]._.Y.K.u.[ r 5 5 5 o   rXrXrXrXrXrXrXrXrXrXrXrXrXrXrXrXrXrX",
"rXrXrXrXrXrXrXrXrXrXrXrXrXrXrXrXrX.X|.U.G.5.! 5 5 5 5     rXrXrXrXrXrXrXrXrXrXrXrXrXrXrXrXrXrXrX",
"rXrXrXrXrXrXrXrXrXrXrXrXrXrXrX|. X'.P.n.*.s 5 5 5 #     rXrXrXrXrXrXrXrXrXrXrXrXrXrXrXrXrXrXrXrX",
"rXrXrXrXrXrXrXrXrXrXrXrXrXP W R L.V.5.) 9 5   #     rXrXrXrXrXrXrXrXrXrXrXrXrXrXrXrXrXrXrXrXrXrX",
"rXrXrXrXrXrXrXrXrXrXN Z Z C M.l.5.o.#     o   rXrXrXrXrXrXrXrXrXrXrXrXrXrXrXrXrXrXrXrXrXrXrXrXrX",
"rXrXrXrXrXrXrXrXrXrXrX- * * * # #     rXrXrXrXrXrXrXrXrXrXrXrXrXrXrXrXrXrXrXrXrXrXrXrXrXrXrXrXrX",
"rXrXrXrXrXrXrXrXrXrXrXrXrXrXrXrXrXrXrXrXrXrXrXrXrXrXrXrXrXrXrXrXrXrXrXrXrXrXrXrXrXrXrXrXrXrXrXrX",
"rXrXrXrXrXrXrXrXrXrXrXrXrXrXrXrXrXrXrXrXrXrXrXrXrXrXrXrXrXrXrXrXrXrXrXrXrXrXrXrXrXrXrXrXrXrXrXrX",
"rXrXrXrXrXrXrXrXrXrXrXrXrXrXrXrXrXrXrXrXrXrXrXrXrXrXrXrXrXrXrXrXrXrXrXrXrXrXrXrXrXrXrXrXrXrXrXrX"
};
