/* XPM */
static char *magick[] = {
/* columns rows colors chars-per-pixel */
"48 48 241 2",
"   c Gray0",
".  c #010101",
"X  c Gray1",
"o  c #000700",
"O  c #040404",
"+  c #060606",
"@  c #090909",
"#  c #0c0c0c",
"$  c Gray6",
"%  c #101010",
"&  c Gray7",
"*  c #131313",
"=  c #161616",
"-  c #181818",
";  c #1b1b1b",
":  c Gray11",
">  c #3b1111",
",  c #3d1111",
"<  c #3d1211",
"1  c Gray13",
"2  c #222222",
"3  c #272727",
"4  c #2a2a2a",
"5  c Gray17",
"6  c Gray18",
"7  c Gray19",
"8  c #313131",
"9  c Gray20",
"0  c #343434",
"q  c Gray21",
"w  c Gray22",
"e  c #3a3a3a",
"r  c #3c3c3c",
"t  c Gray24",
"y  c #3f3f3f",
"u  c #374e37",
"i  c #401212",
"p  c Gray25",
"a  c #414141",
"s  c Gray26",
"d  c #444444",
"f  c Gray27",
"g  c #464646",
"h  c #494949",
"j  c Gray29",
"k  c #4b4b4b",
"l  c Gray30",
"z  c #4e4e4e",
"x  c #505050",
"c  c #515151",
"v  c #555555",
"b  c Gray34",
"n  c #585858",
"m  c Gray35",
"M  c #5a5a5a",
"N  c Gray36",
"B  c #5f5f5f",
"V  c #546754",
"C  c #606060",
"Z  c #626262",
"A  c Gray39",
"S  c #646464",
"D  c Gray40",
"F  c #676767",
"G  c Gray42",
"H  c #6d6d6d",
"J  c Gray43",
"K  c #6f6f6f",
"L  c #717171",
"P  c #727272",
"I  c Gray45",
"U  c #747474",
"Y  c Gray46",
"T  c #767676",
"R  c Gray47",
"E  c #797979",
"W  c Gray48",
"Q  c Gray49",
"!  c Gray",
"~  c #0000d5",
"^  c #0000e9",
"/  c #0000ec",
"(  c #0000f9",
")  c #0000fb",
"_  c #0000fc",
"`  c Blue",
"'  c #0101ff",
"]  c #0303ff",
"[  c #0404ff",
"{  c #0606ff",
"}  c #0707ff",
"|  c #0909ff",
" . c #0a0aff",
".. c #0c0cff",
"X. c #0d0dff",
"o. c #0f0fff",
"O. c #1010ff",
"+. c #1212ff",
"@. c #1515ff",
"#. c #1616ff",
"$. c #1818ff",
"%. c #1919ff",
"&. c #1b1bff",
"*. c #1c1cff",
"=. c #1e1eff",
"-. c #1f1fff",
";. c #2121ff",
":. c #2222ff",
">. c #2424ff",
",. c #2727ff",
"<. c #2828ff",
"1. c #2b2bff",
"2. c #3030ff",
"3. c #3131ff",
"4. c #3333ff",
"5. c #3434ff",
"6. c #3636ff",
"7. c #3737ff",
"8. c #3a3aff",
"9. c #3c3cff",
"0. c #3f3fff",
"q. c #4242ff",
"w. c #4343ff",
"e. c #4848ff",
"r. c #4949ff",
"t. c #4b4bff",
"y. c #4c4cff",
"u. c #5151ff",
"i. c #5858ff",
"p. c #5a5aff",
"a. c #5b5bff",
"s. c #5d5dff",
"d. c #6060ff",
"f. c #6363ff",
"g. c #6464ff",
"h. c #6969ff",
"j. c #6c6cff",
"k. c #6f6fff",
"l. c #7070ff",
"z. c #7676ff",
"x. c #7979ff",
"c. c #7b7bff",
"v. c #7c7cff",
"b. c #7e7eff",
"n. c #7f7fff",
"m. c #a12c2c",
"M. c #f55353",
"N. c #f77171",
"B. c #f87979",
"V. c #818181",
"C. c #838383",
"Z. c #848484",
"A. c #868686",
"S. c Gray53",
"D. c #888888",
"F. c #898989",
"G. c #8b8b8b",
"H. c #8d8d8d",
"J. c #8e8e8e",
"K. c Gray56",
"L. c Gray57",
"P. c #939393",
"I. c Gray59",
"U. c #979797",
"Y. c #989898",
"T. c #9a9a9a",
"R. c #9b9b9b",
"E. c Gray61",
"W. c #9d9d9d",
"Q. c Gray62",
"!. c #9f9f9f",
"~. c #a0a0a0",
"^. c #a2a2a2",
"/. c Gray64",
"(. c #a5a5a5",
"). c Gray65",
"_. c #a7a7a7",
"`. c #a3ada3",
"'. c Gray66",
"]. c #a9a9a9",
"[. c #aaaaaa",
"{. c Gray67",
"}. c #b1b1b1",
"|. c Gray70",
" X c #b4b4b4",
".X c #b6b6b6",
"XX c #b7b7b7",
"oX c #b9b9b9",
"OX c Gray73",
"+X c Gray74",
"@X c Gray75",
"#X c #8181ff",
"$X c #8282ff",
"%X c #8787ff",
"&X c #8a8aff",
"*X c #8d8dff",
"=X c #8e8eff",
"-X c #9191ff",
";X c #9393ff",
":X c #9494ff",
">X c #9a9aff",
",X c #9c9cff",
"<X c #f88c8c",
"1X c #f29494",
"2X c #c0c0c0",
"3X c Gray76",
"4X c #c5c5c5",
"5X c #cbcbcb",
"6X c #cecece",
"7X c Gray81",
"8X c Gray82",
"9X c #d2d2d2",
"0X c Gray83",
"qX c #d5d5d5",
"wX c #d8d8d8",
"eX c #dadada",
"rX c Gray86",
"tX c #dddddd",
"yX c Gray87",
"uX c Gray88",
"iX c #e1e1e1",
"pX c Gray89",
"aX c #e4e4e4",
"sX c #e7e7e7",
"dX c #e9e9e9",
"fX c #eaeaea",
"gX c #ececec",
"hX c Gray93",
"jX c #efefef",
"kX c Gray94",
"lX c Gray95",
"zX c #f3f3f3",
"xX c Gray96",
"cX c #f6f6f6",
"vX c #f8f8f8",
"bX c #f9f9f9",
"nX c #fbfbfb",
"mX c Gray99",
"MX c #fefefe",
"NX c Gray100",
"BX c None",
/* pixels */
"BXBXBXBXBXBXBXBXBXBXBXBXBXBXBXBXBXBXBXBXBXBXBXBXBXBXBXBXBXBXBXBXBXBXBXBXBXBXBXBXBXBXBXBXBXBXBXBX",
"BXBXBXBXBXBXBXBXBXBXBXBXBXBXBXBXBXBXBXBXBXBXBXBXBXBXBXBXBXBXBXBXBXBXBXBXBXBXBXBXBXBXBXBXBXBXBXBX",
"BXBXBXBXBXBXBXBXBXBXBXBXBXBXBXBXBXBXBXBXBXBXBXBXBXBXBXBXBXBXBXBXBXBXBXBXBXBXBXBXBXBXBXBXBXBXBXBX",
"BXBXBXBXBXBXBXBXBXBXBXBXBXBXBX/.!.U.P.J.J.J.J.J.J.J.J.J.J.G.V.R K BXBXBXBXBXBXBXBXBXBXBXBXBXBXBX",
"BXBXBXBXBXBXBXBXBXBXBX'.).)./.!.;X*X&X#X#X#X#X#X#X#X#X#X#Xx.z.l.S C C n BXBXBXBXBXBXBXBXBXBXBXBX",
"BXBXBXBXBXBXBXBXBXBX'.)./.>X;X%Xx.l.h.g.f.f.f.f.f.f.f.f.f.f.s.a.a.a.a.V c j BXBXBXBXBXBXBXBXBXBX",
"BXBXBXBXBXBXBXBX'.'.`.>X*Xn.j.a.e.9.8.2.2.2.2.2.2.2.2.2.2.2.2.7.9.w.e.e.e.g p t BXBXBXBXBXBXBXBX",
"BXBXBXBXBXBXBX'.).,X*Xx.f.e.7.>.*.+.X.| | | | | | | | | | | X.+.&.;.1.7.9.9.9.u 7 BXBXBXBXBXBXBX",
"BXBXBXBXBX/.)./.:Xn.g.e.2.*.+.| { ] ] ] ] ] ] ] ] ] ] ] ] ] ] ] { | X.&.>.1.2.7.6 3 ; BXBXBXBXBX",
"BXBXBXBXT.!.>X&Xj.u.7.*.X.{ { ] ] ] ] ] ] ] ] ] ] ] ] ] ] ] ] ] ] ] ] { X.@.;.>.>.*.#   BXBXBXBX",
"BXBXBXBXU.;X#Xg.w.>.@.| ] ] ] ] ] ] ] ] ] ] ] ] ] ] ] ] ] ] ] ] ] ] ] ] { { +.&.&.+.]   BXBXBXBX",
"BXBXBXP.J.n.f.8.*.X.{ ] ] ] ] ] ] ] ] ] ] ] ] ] ] ] ] ] ] ] ] ] ] ] ] ] ] ] { X.X.| )     BXBXBX",
"BXBXG.G.n.f.9.*.| { ] ] ] ] ] ] ] ] ] ] ] ] ] ] ] ] ] ] ] ] ] ] ] ] ] ] ] ] ] ] { { ) ^     BXBX",
"BXBXZ.n.j.e.>.X.] ] ] ] ] ] ] ] ] ] ] ] ] ] ] ] ] ] ] ] ] ] ] ] ] ] ] ] ] ] ] ] ] ] ] / ~   BXBX",
"BXI T K v 7 * +                                                                               BX",
"BXC C n t ; @                                                                                 BX",
"BXc c g 5 *                                                                                   BX",
"BXg g e 2 @                                                                                   BX",
"BXt t 0 : +                                                                                   BX",
"BXt t 7 : +                                                                                   BX",
"BXt e 7 ; +                                                                                   BX",
"BX0 7 5 ; +                                                                                   BX",
"BX5 5 2 *                                                                                     BX",
"BX= * * @                                                                                     BX",
"BX                                                                                            BX",
"BXBX  uXfXkXvXNXNXNXNXNXNXNXNXNXNXNXNXNXNXNXNXNXNXNXNXNXNXNXNXNXNXNXNXNXNXNXNXNXkXwX'.G p   BXBX",
"BXBX    wXfXkXvXNXNXNXNXNXNXNXNXNXNXNXNXNXNXNXNXNXNXNXNXNXNXNXNXNXNXNXNXNXNXvXcXuXoXQ g     BXBX",
"BXBXBX    8XtXfXkXcXNXNXNXNXNXNXNXNXNXNXNXNXNXNXNXNXNXNXNXNXNXNXNXNXNXNXNXvXkXuX+XG.z     BXBXBX",
"BXBXBXBX  XX+X7XtXjXcXvXNXNXNXNXNXNXNXNXNXNXNXNXNXNXNXNXNXNXNXNXNXNXNXvXcXfX0XXXZ.c p   BXBXBXBX",
"BXBXBXBX    T.).oX8XuXjXcXvXNXNXNXNXNXNXNXNXNXNXNXNXNXNXNXNXNXNXNXvXcXjXtX4X!.I p p     BXBXBXBX",
"BXBXBXBXBX      J.).+X8XuXfXkXcXvXvXNXNXNXNXNXNXNXNXNXNXNXNXNXvXcXjXuX7X'.Z.n p o     BXBXBXBXBX",
"BXBXBXBXBXBXBX    Q J.!.}.3X7XtXaXjXcXvXvXNXNXNXNXNXNXNXvXcXjXaX0X3X).Z.C p p     BXBXBXBXBXBXBX",
"BXBXBXBXBXBXBXBX      K R Z.U.'.oX4X8XtXaXkXvXNXNXNXNXvXkXuX7XXXU.R n p p       BXBXBXBXBXBXBXBX",
"BXBXBXBXBXBXBXBXBXBX      v B K R Z.!.XX8XfXvXNXNXNXvXkXtX+XT.I z t p       BXBXBXBXBXBXBXBXBXBX",
"BXBXBXBXBXBXBXBXBXBXBXBX      i z B T T.3XuXvXNXNXvXkXwXXXG.v p         BXBXBXBXBXBXBXBXBXBXBXBX",
"BXBXBXBXBXBXBXBXBXBXBXBXBXBX              jXNXNXNXkXwXXXV.z       BXBXBXBXBXBXBXBXBXBXBXBXBXBXBX",
"BXBXBXBXBXBXBXBXBXBXBXBXBXBXBXBXBXBXBXBX  NXNXNXkXwXXXV.z p   BXBXBXBXBXBXBXBXBXBXBXBXBXBXBXBXBX",
"BXBXBXBXBXBXBXBXBXBXBXBXBXBXBXBXBXBXBX0 3 NXNXNXtX}.V.z p <   BXBXBXBXBXBXBXBXBXBXBXBXBXBXBXBXBX",
"BXBXBXBXBXBXBXBXBXBXBXBXBXBXBXBXBXBXBXv 1XNXNXaX}.Q j p <     BXBXBXBXBXBXBXBXBXBXBXBXBXBXBXBXBX",
"BXBXBXBXBXBXBXBXBXBXBXBXBXBXBXBXBXBXJ.T NXNXkX'.K p p <     BXBXBXBXBXBXBXBXBXBXBXBXBXBXBXBXBXBX",
"BXBXBXBXBXBXBXBXBXBXBXBXBXBXBXBXBX!.Z.<XNXjX!.n p p >     BXBXBXBXBXBXBXBXBXBXBXBXBXBXBXBXBXBXBX",
"BXBXBXBXBXBXBXBXBXBXBXBXBXBXBXU.G.R B.NX0XZ.j p <       BXBXBXBXBXBXBXBXBXBXBXBXBXBXBXBXBXBXBXBX",
"BXBXBXBXBXBXBXBXBXBXBXBXBXS K S N.NXjX'.G <         BXBXBXBXBXBXBXBXBXBXBXBXBXBXBXBXBXBXBXBXBXBX",
"BXBXBXBXBXBXBXBXBXBXe t t e M.NXtXm.          BXBXBXBXBXBXBXBXBXBXBXBXBXBXBXBXBXBXBXBXBXBXBXBXBX",
"BXBXBXBXBXBXBXBXBXBXBX                BXBXBXBXBXBXBXBXBXBXBXBXBXBXBXBXBXBXBXBXBXBXBXBXBXBXBXBXBX",
"BXBXBXBXBXBXBXBXBXBXBXBXBXBXBXBXBXBXBXBXBXBXBXBXBXBXBXBXBXBXBXBXBXBXBXBXBXBXBXBXBXBXBXBXBXBXBXBX",
"BXBXBXBXBXBXBXBXBXBXBXBXBXBXBXBXBXBXBXBXBXBXBXBXBXBXBXBXBXBXBXBXBXBXBXBXBXBXBXBXBXBXBXBXBXBXBXBX",
"BXBXBXBXBXBXBXBXBXBXBXBXBXBXBXBXBXBXBXBXBXBXBXBXBXBXBXBXBXBXBXBXBXBXBXBXBXBXBXBXBXBXBXBXBXBXBXBX"
};
