/* XPM */
static char *magick[] = {
/* columns rows colors chars-per-pixel */
"48 48 256 2",
"   c Gray0",
".  c #010101",
"X  c Gray1",
"o  c #040404",
"O  c #060606",
"+  c #070707",
"@  c #090909",
"#  c Gray4",
"$  c #0c0c0c",
"%  c Gray5",
"&  c #0c0f0c",
"*  c #0e0e0e",
"=  c Gray6",
"-  c #1c0c0c",
";  c #101010",
":  c #111111",
">  c Gray7",
",  c #131313",
"<  c Gray8",
"1  c #161616",
"2  c Gray9",
"3  c #181818",
"4  c #191919",
"5  c Gray10",
"6  c #1b1b1b",
"7  c Gray11",
"8  c #1e1e1e",
"9  c Gray12",
"0  c #202020",
"q  c #222222",
"w  c Gray14",
"e  c #252525",
"r  c #272727",
"t  c #282828",
"y  c Gray16",
"u  c #2a2a2a",
"i  c Gray17",
"p  c #2c2c2c",
"a  c Gray18",
"s  c #2f2f2f",
"d  c Gray19",
"f  c #313131",
"g  c Gray20",
"h  c #343434",
"j  c Gray21",
"k  c #373737",
"l  c #3a3a3a",
"z  c #3c3c3c",
"x  c #3f3f3f",
"c  c #510000",
"v  c #570000",
"b  c #680000",
"n  c #750000",
"m  c #7d0000",
"M  c #404000",
"N  c #424200",
"B  c #444400",
"V  c #474700",
"C  c #4a4a00",
"Z  c #4e4e00",
"A  c #505000",
"S  c #595900",
"D  c #5d5d00",
"F  c #626200",
"G  c #636300",
"H  c #6b6b00",
"J  c #6c6c00",
"K  c #6f6f00",
"L  c #717100",
"P  c #727200",
"I  c #757500",
"U  c #797900",
"Y  c #7d7d00",
"T  c #414141",
"R  c #434343",
"E  c Gray28",
"W  c #484848",
"Q  c #4b4b4b",
"!  c #4c4c4c",
"~  c #515151",
"^  c Gray32",
"/  c #565656",
"(  c #585858",
")  c #5a5a5a",
"_  c #5b5b5b",
"`  c #5d5d5d",
"'  c #606060",
"]  c Gray38",
"[  c #626262",
"{  c Gray39",
"}  c #646464",
"|  c #656565",
" . c Gray40",
".. c #686868",
"X. c #6a6a6a",
"o. c #6c6c6c",
"O. c #6f6f6f",
"+. c Gray44",
"@. c #727272",
"#. c #777777",
"$. c Gray48",
"%. c #7c7c7c",
"&. c Gray",
"*. c Gray50",
"=. c #810000",
"-. c #870000",
";. c #920000",
":. c #950000",
">. c #a20000",
",. c #aa0000",
"<. c #ad0000",
"1. c #b40000",
"2. c #b90000",
"3. c #9f7474",
"4. c #c30000",
"5. c #ca0000",
"6. c #cf0000",
"7. c #d50000",
"8. c #dd0000",
"9. c #e10000",
"0. c #e70000",
"q. c #ed0000",
"w. c #f00000",
"e. c #f60000",
"r. c #f80000",
"t. c #f90000",
"y. c #fb0000",
"u. c #fc0000",
"i. c #fe0000",
"p. c Red",
"a. c #ff0101",
"s. c #ff0303",
"d. c #ff0404",
"f. c #ff0606",
"g. c #ff0909",
"h. c #ff0f0f",
"j. c #ff1010",
"k. c #ff1313",
"l. c #ff1818",
"z. c #ff1b1b",
"x. c #ff1c1c",
"c. c #ff2222",
"v. c #ff2727",
"b. c #ff2b2b",
"n. c #ff3131",
"m. c #ff3333",
"M. c #ff3434",
"N. c #ff3a3a",
"B. c #ff3d3d",
"V. c #ff4646",
"C. c #ff5151",
"Z. c #ff5555",
"A. c #ff5858",
"S. c #ff6363",
"D. c #ff6f6f",
"F. c #808000",
"G. c #838300",
"H. c #858500",
"J. c #898900",
"K. c #8d8d00",
"L. c #8f8f00",
"P. c #929200",
"I. c #969600",
"U. c #989800",
"Y. c #9b9b00",
"T. c #9c9c00",
"R. c #9f9f00",
"E. c #a1a100",
"W. c #a5a500",
"Q. c #a7a700",
"!. c #a8a800",
"~. c #abab00",
"^. c #adad00",
"/. c #b1b100",
"(. c #b4b400",
"). c #b7b700",
"_. c #baba00",
"`. c #bdbd00",
"'. c #bfbf00",
"]. c #c2c200",
"[. c #c5c500",
"{. c #c6c600",
"}. c #c9c900",
"|. c #cbcb00",
" X c #cece00",
".X c #d1d100",
"XX c #d2d200",
"oX c #d5d500",
"OX c #d8d800",
"+X c #dada00",
"@X c #dbdb00",
"#X c #dede00",
"$X c #e0e000",
"%X c #e1e100",
"&X c #e3e300",
"*X c #e4e400",
"=X c #e7e700",
"-X c #e9e900",
";X c #eaea00",
":X c #ecec00",
">X c #efef00",
",X c #f0f000",
"<X c #f2f200",
"1X c #f3f300",
"2X c #f5f500",
"3X c #f6f600",
"4X c #f8f800",
"5X c #f9f900",
"6X c #fbfb00",
"7X c #fcfc00",
"8X c #fefe00",
"9X c Yellow",
"0X c #ffff01",
"qX c #ffff03",
"wX c #ffff07",
"eX c #ffff0e",
"rX c #ffff15",
"tX c #ffff19",
"yX c #ffff21",
"uX c #ffff26",
"iX c #ffff28",
"pX c #ffff39",
"aX c #ffff3c",
"sX c #ffff4b",
"dX c #ffff55",
"fX c #ffff5e",
"gX c #ffff67",
"hX c #ffff73",
"jX c #808080",
"kX c #818181",
"lX c Gray51",
"zX c #848484",
"xX c Gray53",
"cX c Gray54",
"vX c #8d8d8d",
"bX c #8e8e8e",
"nX c #929292",
"mX c Gray58",
"MX c Gray59",
"NX c Gray60",
"BX c #9a9a9a",
"VX c #9b9b9b",
"CX c #9d9d9d",
"ZX c Gray63",
"AX c Gray64",
"SX c Gray65",
"DX c #a7a7a7",
"FX c #aaaaaa",
"GX c #aeaeae",
"HX c Gray69",
"JX c #b2b2b2",
"KX c #b4b4b4",
"LX c #b6b6b6",
"PX c Gray72",
"IX c #c2b7b7",
"UX c None",
/* pixels */
"UXUXUXUXUXUXUXUXUXUXUXUXUXUXUXUXUXUXUXUXUXUXUXUXUXUXUXUXUXUXUXUXUXUXUXUXUXUXUXUXUXUXUXUXUXUXUXUX",
"UXUXUXUXUXUXUXUXUXUXUXUXUXUXUXUXUXUXUXUXUXUXUXUXUXUXUXUXUXUXUXUXUXUXUXUXUXUXUXUXUXUXUXUXUXUXUXUX",
"UXUXUXUXUXUXUXUXUXUXUXUXUXUXUXUXUXUXUXUXUXUXUXUXUXUXUXUXUXUXUXUXUXUXUXUXUXUXUXUXUXUXUXUXUXUXUXUX",
"UXUXUXUXUXUXUXUXUXUXUXUXUXUXUXJXGXFXDXZXDXZXZXZXZXZXDXZXZXCXVXnXcXUXUXUXUXUXUXUXUXUXUXUXUXUXUXUX",
"UXUXUXUXUXUXUXUXUXUXUXFXKXKXJXJXmXvXcXkXkXkXkXkXkXkXkXkXkX&.#.o.xXkX&.#.UXUXUXUXUXUXUXUXUXUXUXUX",
"UXUXUXUXUXUXUXUXUXUXPXKXJXVXnXxX$.+.X.} { { { { { { { { { { ` _ _ _ / 3.+.X.UXUXUXUXUXUXUXUXUXUX",
"UXUXUXUXUXUXUXUXPXPXIXVXvX&.o._ W R k d d d d d d d d d d d d k l R W W W } { { UXUXUXUXUXUXUXUX",
"UXUXUXUXUXUXUXPXKXCXvX$.{ ! l w 6 ; % @ @ @ @ @ @ @ @ @ @ @ % ; 6 q s k z z z X._ UXUXUXUXUXUXUX",
"UXUXUXUXUXKXKXJXmX&.} W d 7 ; @ +                               + @ ; 6 w t d k / ~ E UXUXUXUXUX",
"UXUXUXUXGXJXVXcXo.~ k 7 ; @ +                                       + + % 1 q t w 7 l s UXUXUXUX",
"UXUXUXUXFXnXkX} R t 1 @ +                                               + + ; 6 6 ;   s UXUXUXUX",
"UXUXUXDXZX&.{ l 7 % +                                                       + % % @   t t UXUXUX",
"UXUXZXZX&.{ z 7 @ +                                                             + +     t t UXUX",
"UXUXVX&.o.W w %                                                                           w UXUX",
"UXvXvXD.Z.n.k.f.s.s.s.s.s.s.s.s.s.s.s.s.s.s.s.s.s.s.s.s.s.s.s.s.s.s.s.s.s.s.s.s.s.s.s.q.6.q 7 UX",
"UX&.S.A.B.z.g.s.s.s.s.s.s.s.s.s.s.s.s.s.s.s.s.s.s.s.s.s.s.s.s.s.s.s.s.s.s.s.s.s.s.s.s.0.4.>.6 UX",
"UX+.C.V.b.h.s.s.s.s.s.s.s.s.s.s.s.s.s.s.s.s.s.s.s.s.s.s.s.s.s.s.s.s.s.s.s.s.s.s.s.s.r.9.2.;.1 UX",
"UXX.V.N.c.f.s.s.s.s.s.s.s.s.s.s.s.s.s.s.s.s.s.s.s.s.s.s.s.s.s.s.s.s.s.s.s.s.s.s.s.s.r.9.1.-.1 UX",
"UX{ B.M.z.f.s.s.s.s.s.s.s.s.s.s.s.s.s.s.s.s.s.s.s.s.s.s.s.s.s.s.s.s.s.s.s.s.s.s.s.s.r.8.<.=.1 UX",
"UX{ B.n.x.f.s.s.s.s.s.s.s.s.s.s.s.s.s.s.s.s.s.s.s.s.s.s.s.s.s.s.s.s.s.s.s.s.s.s.s.s.r.8.<.=.; UX",
"UX{ N.n.z.f.s.s.s.s.s.s.s.s.s.s.s.s.s.s.s.s.s.s.s.s.s.s.s.s.s.s.s.s.s.s.s.s.s.s.s.s.r.8.,.m ; UX",
"UX_ n.b.z.s.s.s.s.s.s.s.s.s.s.s.s.s.s.s.s.s.s.s.s.s.s.s.s.s.s.s.s.s.s.s.s.s.s.s.s.s.e.7.>.n ; UX",
"UX~ v.c.k.s.s.s.s.s.s.s.s.s.s.s.s.s.s.s.s.s.s.s.s.s.s.s.s.s.s.s.s.s.s.s.s.s.s.s.s.r.w.5.:.b % UX",
"UXR k.k.f.s.s.s.s.s.s.s.s.s.s.s.s.s.s.s.s.s.s.s.s.s.s.s.s.s.s.s.s.s.s.s.s.s.s.s.s.e.9.1.m c % UX",
"UXs s e.r.r.r.s.s.s.s.s.s.s.s.s.s.s.s.s.s.s.s.s.s.s.s.s.s.s.s.s.s.s.s.s.s.s.s.s.r.q.5.;.v % % UX",
"UXUXt &X-X1X5X8X8X8X8X8X8X8X8X8X8X8X8X8X8X8X8X8X8X8X8X8X8X8X8X8X8X8X8X8X8X8X8X5X1X@X!.H M % UXUX",
"UXUXw w @X*X1X5X8X8X8X8X8X8X8X8X8X8X8X8X8X8X8X8X8X8X8X8X8X8X8X8X8X8X8X8X8X8X5X3X&X_.Y V % % UXUX",
"UXUXUXw w .X#X-X1X5X8X8X8X8X8X8X8X8X8X8X8X8X8X8X8X8X8X8X8X8X8X8X8X8X8X8X6X5X1X&X`.J.Z % % UXUXUX",
"UXUXUXUXq ).`. X#X>X3X5X8X8X8X8X8X8X8X8X8X8X8X8X8X8X8X8X8X8X8X8X8X8X8X5X3X-XoX).H.A M % UXUXUXUX",
"UXUXUXUXq 7 Y.W._..X&X>X3X5X8X8X8X8X8X8X8X8X8X8X8X8X8X8X8X8X8X8X8X5X3X>X#X[.R.L M M % % UXUXUXUX",
"UXUXUXUXUX6 6 6 K.W.`..X&X>X3X5X8X8X8X8X8X8X8X8X8X8X8X8X8X8X8X5X3X>X&X X!.F.S M - % % UXUXUXUXUX",
"UXUXUXUXUXUXUX1 1 Y K.E.).|.@X*X>X1X3X5X5X8X8X8X8X8X8X8X5X3X>X*XoX].W.H.F M M % % UXUXUXUXUXUXUX",
"UXUXUXUXUXUXUXUX; ; 1 L F.P.W.).`.|..X@X*X1X5X8X8X8X8X5X1X&X X).I.U S M M ; - % UXUXUXUXUXUXUXUX",
"UXUXUXUXUXUXUXUXUXUX; ; ; F J I Y J.Y.)..X-X5X8X8X8X8X3X&X[.Y.I Z M M $ % % UXUXUXUXUXUXUXUXUXUX",
"UXUXUXUXUXUXUXUXUXUXUXUX% % % V C S L Y.[.*X8X8X8X8X5X-X|.Y.F M % % $ $ UXUXUXUXUXUXUXUXUXUXUXUX",
"UXUXUXUXUXUXUXUXUXUXUXUXUXUX  % % % ; 7 w 3XwXwX8X8X1X.XE.F % % % UXUXUXUXUXUXUXUXUXUXUXUXUXUXUX",
"UXUXUXUXUXUXUXUXUXUXUXUXUXUXUXUXUXUXUXUXs rXtXeX8X1X@X^.J M % UXUXUXUXUXUXUXUXUXUXUXUXUXUXUXUXUX",
"UXUXUXUXUXUXUXUXUXUXUXUXUXUXUXUXUXUXUXk ` pXiXeX3X@X/.I M M % UXUXUXUXUXUXUXUXUXUXUXUXUXUXUXUXUX",
"UXUXUXUXUXUXUXUXUXUXUXUXUXUXUXUXUXUXUXkXfXsXuX5X.X!.L M M %   UXUXUXUXUXUXUXUXUXUXUXUXUXUXUXUXUX",
"UXUXUXUXUXUXUXUXUXUXUXUXUXUXUXUXUXUXvXVXgXpX5X`.K.D M M %   UXUXUXUXUXUXUXUXUXUXUXUXUXUXUXUXUXUX",
"UXUXUXUXUXUXUXUXUXUXUXUXUXUXUXUXUXCXDXhXaX>XE.H M M M %   UXUXUXUXUXUXUXUXUXUXUXUXUXUXUXUXUXUXUX",
"UXUXUXUXUXUXUXUXUXUXUXUXUXUXUXmXDXVXfXtX[.U M M M % %   UXUXUXUXUXUXUXUXUXUXUXUXUXUXUXUXUXUXUXUX",
"UXUXUXUXUXUXUXUXUXUXUXUXUX} nXcXdXyX@XK.Z M % % %   UXUXUXUXUXUXUXUXUXUXUXUXUXUXUXUXUXUXUXUXUXUX",
"UXUXUXUXUXUXUXUXUXUX` } } { uX8X|.J.; % % %   UXUXUXUXUXUXUXUXUXUXUXUXUXUXUXUXUXUXUXUXUXUXUXUXUX",
"UXUXUXUXUXUXUXUXUXUXUXs t w 7 1 ; %   UXUXUXUXUXUXUXUXUXUXUXUXUXUXUXUXUXUXUXUXUXUXUXUXUXUXUXUXUX",
"UXUXUXUXUXUXUXUXUXUXUXUXUXUXUXUXUXUXUXUXUXUXUXUXUXUXUXUXUXUXUXUXUXUXUXUXUXUXUXUXUXUXUXUXUXUXUXUX",
"UXUXUXUXUXUXUXUXUXUXUXUXUXUXUXUXUXUXUXUXUXUXUXUXUXUXUXUXUXUXUXUXUXUXUXUXUXUXUXUXUXUXUXUXUXUXUXUX",
"UXUXUXUXUXUXUXUXUXUXUXUXUXUXUXUXUXUXUXUXUXUXUXUXUXUXUXUXUXUXUXUXUXUXUXUXUXUXUXUXUXUXUXUXUXUXUXUX"
};
