/* XPM */
static char *magick[] = {
/* columns rows colors chars-per-pixel */
"48 48 213 2",
"   c Gray0",
".  c #010101",
"X  c #090909",
"o  c #0c0c0c",
"O  c Gray9",
"+  c #1b1b1b",
"@  c #272727",
"#  c Gray17",
"$  c Gray18",
"%  c #313131",
"&  c #343434",
"*  c Gray21",
"=  c Gray22",
"-  c #3c3c3c",
";  c Gray24",
":  c #3e3e3e",
">  c #0d3740",
",  c #0d3942",
"<  c #0e3a44",
"1  c #10434e",
"2  c #104550",
"3  c #124c59",
"4  c #165c6b",
"5  c #176272",
"6  c #1a6c7e",
"7  c Gray25",
"8  c Gray27",
"9  c #464646",
"0  c Gray29",
"q  c #4b4b4b",
"w  c #4e4e4e",
"e  c #505050",
"r  c #515151",
"t  c Gray33",
"y  c Gray34",
"u  c Gray35",
"i  c #5a5a5a",
"p  c #5f5f5f",
"a  c #606060",
"s  c #626262",
"d  c Gray39",
"f  c #646464",
"g  c Gray40",
"h  c #676767",
"j  c #686868",
"k  c Gray43",
"l  c #727272",
"z  c Gray45",
"x  c #747474",
"c  c Gray46",
"v  c #777777",
"b  c #797979",
"n  c Gray48",
"m  c #7b7b7b",
"M  c Gray49",
"N  c Gray",
"B  c Gray50",
"V  c Blue",
"C  c #0909ff",
"Z  c #3131ff",
"A  c #1b7183",
"S  c #1b7184",
"D  c #1c7689",
"F  c #1e7d92",
"G  c #20899f",
"H  c #2392aa",
"J  c #2393ab",
"K  c #259bb4",
"L  c #26a0ba",
"P  c #27a2bd",
"I  c #28a9c5",
"U  c #29adc9",
"Y  c #29aecb",
"T  c #2bb7d5",
"R  c #2cbad8",
"E  c #2dbfde",
"W  c #2ec0e0",
"Q  c #2ec1e1",
"!  c #30c9ea",
"~  c #30cbec",
"^  c #31cdef",
"/  c #31cef0",
"(  c #31d0f2",
")  c #32d2f5",
"_  c #32d3f6",
"`  c #33d6f9",
"'  c #33d8fb",
"]  c #33d8fc",
"[  c #34dafe",
"{  c #34dbff",
"}  c #35dbff",
"|  c #36dbff",
" . c #37dcff",
".. c #39dcff",
"X. c #3bdcff",
"o. c #3cdcff",
"O. c #3eddff",
"+. c #40ddff",
"@. c #41ddff",
"#. c #42deff",
"$. c #45deff",
"%. c #4adfff",
"&. c #4cdfff",
"*. c #4ddfff",
"=. c #51e0ff",
"-. c #53e1ff",
";. c #5ae2ff",
":. c #5fe3ff",
">. c #60e3ff",
",. c #62e3ff",
"<. c #64e3ff",
"1. c #69e4ff",
"2. c #6de5ff",
"3. c #71e6ff",
"4. c #74e6ff",
"5. c Red",
"6. c Yellow",
"7. c #808080",
"8. c #818181",
"9. c Gray51",
"0. c #838383",
"q. c #848484",
"w. c #868686",
"e. c Gray53",
"r. c #898989",
"t. c Gray54",
"y. c Gray55",
"u. c #8d8d8d",
"i. c #8e8e8e",
"p. c Gray56",
"a. c Gray57",
"s. c #929292",
"d. c #939393",
"f. c #959595",
"g. c Gray59",
"h. c #979797",
"j. c Gray60",
"k. c #9b9b9b",
"l. c Gray61",
"z. c Gray62",
"x. c #9f9f9f",
"c. c Gray63",
"v. c #a2a2a2",
"b. c #a4a4a4",
"n. c #a5a5a5",
"m. c Gray65",
"M. c #a7a7a7",
"N. c Gray66",
"B. c #a9a9a9",
"V. c #aaaaaa",
"C. c Gray67",
"Z. c Gray68",
"A. c Gray69",
"S. c Gray70",
"D. c #b4b4b4",
"F. c #b7b7b7",
"G. c #b9b9b9",
"H. c Gray73",
"J. c #bcbcbc",
"K. c Gray74",
"L. c Gray75",
"P. c #80e9ff",
"I. c #83e9ff",
"U. c #84e9ff",
"Y. c #8cebff",
"T. c #94ecff",
"R. c #98edff",
"E. c #99edff",
"W. c #9bedff",
"Q. c #a2eeff",
"!. c #a4efff",
"~. c #a5efff",
"^. c #a9f0ff",
"/. c #aaf0ff",
"(. c #aff1ff",
"). c #b0f1ff",
"_. c Gray76",
"`. c #c3c3c3",
"'. c #c5c5c5",
"]. c #c6c6c6",
"[. c #cbcbcb",
"{. c Gray80",
"}. c #cecece",
"|. c Gray81",
" X c Gray82",
".X c #d2d2d2",
"XX c #d5d5d5",
"oX c #d8d8d8",
"OX c Gray86",
"+X c #dddddd",
"@X c Gray87",
"#X c Gray88",
"$X c #e1e1e1",
"%X c Gray89",
"&X c #e4e4e4",
"*X c #e7e7e7",
"=X c #e9e9e9",
"-X c #eaeaea",
";X c #ececec",
":X c Gray93",
">X c #efefef",
",X c Gray94",
"<X c Gray95",
"1X c #f3f3f3",
"2X c Gray96",
"3X c #f6f6f6",
"4X c #f8f8f8",
"5X c #f9f9f9",
"6X c #fbfbfb",
"7X c Gray99",
"8X c #fefefe",
"9X c Gray100",
"0X c None",
/* pixels */
"0X0X0X0X0X0X0X0X0X0X0X0X0X0X0X0X0X0X0X0X0X0X0X0X0X0X0X0X0X0X0X0X0X0X0X0X0X0X0X0X0X0X0X0X0X0X0X0X",
"0X0X0X0X0X0X0X0X0X0X0X0X0X0X0X0X0X0X0X0X0X0X0X0X0X0X0X0X0X0X0X0X0X0X0X0X0X0X0X0X0X0X0X0X0X0X0X0X",
"0X0X0X0X0X0X0X0X0X0X0X0X0X0X0X0X0X0X0X0X0X0X0X0X0X0X0X0X0X0X0X0X0X0X0X0X0X0X0X0X0X0X0X0X0X0X0X0X",
"0X0X0X0X0X0X0X0X0X0X0X0X0X0X0Xc.x.h.d.y.y.y.y.y.y.y.d.y.y.t.9.b k 0X0X0X0X0X0X0X0X0X0X0X0X0X0X0X",
"0X0X0X0X0X0X0X0X0X0X0XN.b.b.c.x.9X9X9X9X9X9X9X9X9X9X9X9X9X9X9X9Xg s s i 0X0X0X0X0X0X0X0X0X0X0X0X",
"0X0X0X0X0X0X0X0X0X0XN.b.c.9X9X9X9X9X9X9X9X9X9X9X9X9X9X9X9X9X9X9X9X9X9Xt e q 0X0X0X0X0X0X0X0X0X0X",
"0X0X0X0X0X0X0X0XN.N.c.(.!.9X9X9X9X9X9X9X9X9X9X9XZ 9X9X9X9X9X9X9X9X9X9X9X9X8 7 : 0X0X0X0X0X0X0X0X",
"0X0X0X0X0X0X0XN.b.).!.T.I.3.,.9X9X9X9X9X9X9X9XC C C 9X9X9X9X9X9X9X9X9X9X9X9X9X= % 0X0X0X0X0X0X0X",
"0X0X0X0X0Xb.b.x.^.W.U.2.;.*.+.O.X.9X9X9X  9X  9XV 9X  9X  9X9X9X9X9X9X9X9X9X9X9X$ @ + 0X0X0X0X0X",
"0X0X0X0Xk.x.(.Q.Y.4.:.*.+.X. .| | | 9X  9X  9X9X  9X9X  9X  9X9X9X9X9X9X9X9X9X9X9X9Xo   0X0X0X0X",
"0X0X0X0Xh.^.W.U.1.=.$.X. .| | { | { { { 5.5.9X5.9X5.9X5.5.9X9X9X9X9X9X9X9X9X9X9X9X9X9X  0X0X0X0X",
"0X0X0Xd.y.W.I.,.*.+.X.| | { { | { { | | 5.5.5.5.5.5.5.5.5.9X9X9X9X9X9X9X9X9X9X9X9X9X4X    0X0X0X",
"0X0Xy.t.9XI.<.%.O. .| | { { { { { { { {   6.  6.  6.  6.  9X9X9X9X9X9X9X9X9X9X9X9X9X4X=X    0X0X",
"0X0Xq.9X9X9X=.O.| | { { { { { { { { { { |   9X9X9X9X9X  9X9X9X9X9X9X9X9X9X9X9X9X9X9X9X>XXX  0X0X",
"0Xz c 9X9X9X9X9X| | | { { { { { { { { V V V V V V V V V V V 9X9X9X9X9X9X9X9X9X9X9X9X9X>X}.    0X",
"0Xp 9X9X9X9X9X9X9X9X{ { { { { { { | | V V V V 9X9X9XV V V V 9X9X9X9X9X9X9X9X9X9X9X9X9X&X`.c.  0X",
"0Xe 9X9X9X9X9X9X9X9X9X| { { { { { { { V V V V V V V V V V V 9X9X9X9X9X9X9X9X9X9X9X9X4X#XH.d.  0X",
"0X8 9X9X9X9X9X9X9X9X9X9X9X{ { | { { | V 9X9XV V 9XV V 9X9XV | | 9X9X9X9X9X9X9X9X9X9X9X#XA.q.  0X",
"0X: 9X9X9X9X9X9X9X9X9X9X9X9X9X| { { | V V V V 9X9X9XV V V V { { { { 9X9X9X9X9X9X9X9X4X@XZ.9.  0X",
"0X: 9X9X9X9X9X9X9X9X9X9X9X9X9X9X{ { | V V V V 9X9X9XV V V V { { { { { 9X9X9X9X9X9X9X4X@XZ.9.  0X",
"0X: 9X9X9X9X9X9X9X9X9X9X9X9X9X9X9X9X| V 9X9XV V 9XV V 9X9XV | | { { { { { 9X9X9X9X9X4XoXN.N   0X",
"0X* 9X9X9X9X9X9X9X9X9X9X9X9X9X9X9X9X9XV V V 6.6.6.6.6.V V V { { { { { | { { { 9X9X9X3XXXc.c   0X",
"0X# 9X9X9X9X9X9X9X9X9X9X9X9X9X9X9X9X9XV V V V 6.6.6.V V V V { { { { { { { | { { 9X6X<X[.h.j   0X",
"0XO 9X9X9X9X9X9X9X9X9X9X9X9X9X9X9X9X9XV 9X9XV 6.6.6.V 9X9XV { { { { { { { { { { { _ #XD.b e   0X",
"0X    3X4X4X4X9X9X9X9X9X9X9X9X9X9X9X9XV V V V V 6.V V V V V | | { | { { { { { { ` ~ U F t     0X",
"0X0X  #X=X<X4X9X9X9X9X9X9X9X9X9X9X9X9XV V V V 6.6.6.V V V V { { { { { { { { { { ( R H 4 >   0X0X",
"0X0X    oX&X<X4X9X9X9X9X9X9X9X9X9X9X9X9XV V 6.6.6.6.6.V V { { { { { { { { { ` _ Q L 6 <     0X0X",
"0X0X0X     X@X=X<X3X9X9X9X9X9X9X9X9X9X9X9XV V V V V V V 9X9X{ { { { { { { ` / Q P D 1     0X0X0X",
"0X0X0X0X  H.K.}.@X>X3X4X9X9X9X9X9X9X9X9X9X9XV V V V V 9X9X9X9X9X| { { ' _ ! T K S 2 >   0X0X0X0X",
"0X0X0X0X    k.b.H. X#X>X3X4X9X9X9X9X9X9X9X9X9X9X9X9X9X9X9X9X9X9X9X' _ ^ E I G 5 , >     0X0X0X0X",
"0X0X0X0X0X      y.b.K. X#X>X3X4X9X9X9X9X9X9X9X9X9X9X9X9X9X9X9X4X3X>X#XU H A 3 >       0X0X0X0X0X",
"0X0X0X0X0X0X0X    N y.c.H. X#X>X<X3X3X4X4X9X9X9X9X9X9X9X4X3X>X&XXX`.M.q.s > >     0X0X0X0X0X0X0X",
"0X0X0X0X0X0X0X0X      c t.x.A.K.].[. XoX&X<X4X9X9X9X9X4X<X#X}.D.h.b i 7 7       0X0X0X0X0X0X0X0X",
"0X0X0X0X0X0X0X0X0X0X      k c N 9.y.x.H.XX=X3X9X9X9X9X3X#X].x.c w 7 7       0X0X0X0X0X0X0X0X0X0X",
"0X0X0X0X0X0X0X0X0X0X0X0X      q w p N b. X>X9X9X9X9X4X>X}.x.g 7         0X0X0X0X0X0X0X0X0X0X0X0X",
"0X0X0X0X0X0X0X0X0X0X0X0X0X0X              4X9X9X9X4X3X@XA.c       0X0X0X0X0X0X0X0X0X0X0X0X0X0X0X",
"0X0X0X0X0X0X0X0X0X0X0X0X0X0X0X0X0X0X0X0XX 9X9X9X9X4X=X`.y.e   0X0X0X0X0X0X0X0X0X0X0X0X0X0X0X0X0X",
"0X0X0X0X0X0X0X0X0X0X0X0X0X0X0X0X0X0X0X* : 9X9X9X4X=X}.k.s 7   0X0X0X0X0X0X0X0X0X0X0X0X0X0X0X0X0X",
"0X0X0X0X0X0X0X0X0X0X0X0X0X0X0X0X0X0X0Xg 9X9X9X9X#X`.k.s 7     0X0X0X0X0X0X0X0X0X0X0X0X0X0X0X0X0X",
"0X0X0X0X0X0X0X0X0X0X0X0X0X0X0X0X0X0Xy.N 9X9X4X}.N.9.t 7     0X0X0X0X0X0X0X0X0X0X0X0X0X0X0X0X0X0X",
"0X0X0X0X0X0X0X0X0X0X0X0X0X0X0X0X0Xx.y.9X9X=XN.N i 7 7     0X0X0X0X0X0X0X0X0X0X0X0X0X0X0X0X0X0X0X",
"0X0X0X0X0X0X0X0X0X0X0X0X0X0X0Xh.d.N 9X9XK.N e 7 7       0X0X0X0X0X0X0X0X0X0X0X0X0X0X0X0X0X0X0X0X",
"0X0X0X0X0X0X0X0X0X0X0X0X0Xg z j 9X9X].9.e 7         0X0X0X0X0X0X0X0X0X0X0X0X0X0X0X0X0X0X0X0X0X0X",
"0X0X0X0X0X0X0X0X0X0X8 w w % 9X<XH.N           0X0X0X0X0X0X0X0X0X0X0X0X0X0X0X0X0X0X0X0X0X0X0X0X0X",
"0X0X0X0X0X0X0X0X0X0X0X                0X0X0X0X0X0X0X0X0X0X0X0X0X0X0X0X0X0X0X0X0X0X0X0X0X0X0X0X0X",
"0X0X0X0X0X0X0X0X0X0X0X0X0X0X0X0X0X0X0X0X0X0X0X0X0X0X0X0X0X0X0X0X0X0X0X0X0X0X0X0X0X0X0X0X0X0X0X0X",
"0X0X0X0X0X0X0X0X0X0X0X0X0X0X0X0X0X0X0X0X0X0X0X0X0X0X0X0X0X0X0X0X0X0X0X0X0X0X0X0X0X0X0X0X0X0X0X0X",
"0X0X0X0X0X0X0X0X0X0X0X0X0X0X0X0X0X0X0X0X0X0X0X0X0X0X0X0X0X0X0X0X0X0X0X0X0X0X0X0X0X0X0X0X0X0X0X0X"
};
