/* XPM */
static char *magick[] = {
/* columns rows colors chars-per-pixel */
"48 48 203 2",
"   c Gray0",
".  c #0c0c0c",
"X  c #161616",
"o  c #1b1b1b",
"O  c #272727",
"+  c #2a2a2a",
"@  c Gray18",
"#  c #313131",
"$  c #343434",
"%  c Gray21",
"&  c #373737",
"*  c #3a3a3a",
"=  c Gray23",
"-  c #3c3c3c",
";  c Gray24",
":  c #3f3f3f",
">  c #400000",
",  c #420000",
"<  c #440000",
"1  c #470000",
"2  c #4a0000",
"3  c #4e0000",
"4  c #500000",
"5  c #510000",
"6  c #570000",
"7  c #590000",
"8  c #5a0000",
"9  c #5d0000",
"0  c #620000",
"q  c #630000",
"w  c #680000",
"e  c #6b0000",
"r  c #6c0000",
"t  c #6f0000",
"y  c #710000",
"u  c #720000",
"i  c #740000",
"p  c #750000",
"a  c #780000",
"s  c #7a0000",
"d  c #7b0000",
"f  c #7d0000",
"g  c #7e0000",
"h  c Gray25",
"j  c Gray26",
"k  c Gray27",
"l  c #464646",
"z  c #494949",
"x  c #515151",
"c  c Gray33",
"v  c #585858",
"b  c #5f5f5f",
"n  c #606060",
"m  c Gray39",
"M  c #676767",
"N  c #6d6d6d",
"B  c Gray45",
"V  c #767676",
"C  c #777777",
"Z  c Gray47",
"A  c Gray",
"S  c #800000",
"D  c #830000",
"F  c #840000",
"G  c #860000",
"H  c #890000",
"J  c #8a0000",
"K  c #8d0000",
"L  c #8f0000",
"P  c #920000",
"I  c #950000",
"U  c #960000",
"Y  c #980000",
"T  c #9b0000",
"R  c #9c0000",
"E  c #9f0000",
"W  c #a10000",
"Q  c #a20000",
"!  c #a50000",
"~  c #a70000",
"^  c #a80000",
"/  c #aa0000",
"(  c #ab0000",
")  c #ad0000",
"_  c #b10000",
"`  c #b30000",
"'  c #b40000",
"]  c #b60000",
"[  c #b70000",
"{  c #b90000",
"}  c #ba0000",
"|  c #bd0000",
" . c #bf0000",
".. c #c20000",
"X. c #c50000",
"o. c #c60000",
"O. c #c90000",
"+. c #cb0000",
"@. c #ce0000",
"#. c #d10000",
"$. c #d20000",
"%. c #d50000",
"&. c #d80000",
"*. c #da0000",
"=. c #db0000",
"-. c #dd0000",
";. c #de0000",
":. c #e00000",
">. c #e10000",
",. c #e30000",
"<. c #e40000",
"1. c #e70000",
"2. c #e90000",
"3. c #ea0000",
"4. c #ec0000",
"5. c #ed0000",
"6. c #ef0000",
"7. c #f00000",
"8. c #f20000",
"9. c #f30000",
"0. c #f50000",
"q. c #f60000",
"w. c #f80000",
"e. c #f90000",
"r. c #fb0000",
"t. c #fc0000",
"y. c #fe0000",
"u. c Red",
"i. c #ff0101",
"p. c #ff0303",
"a. c #ff0404",
"s. c #ff0606",
"d. c #ff0707",
"f. c #ff0909",
"g. c #ff0d0d",
"h. c #ff0f0f",
"j. c #ff1010",
"k. c #ff1212",
"l. c #ff1313",
"z. c #ff1515",
"x. c #ff1818",
"c. c #ff1919",
"v. c #ff1b1b",
"b. c #ff1c1c",
"n. c #ff2121",
"m. c #ff2525",
"M. c #ff2727",
"N. c #ff2828",
"B. c #ff2b2b",
"V. c #ff3131",
"C. c #ff3333",
"Z. c #ff3939",
"A. c #ff3a3a",
"S. c #ff3c3c",
"D. c #ff4b4b",
"F. c #ff5555",
"G. c #ff5d5d",
"H. c #ff5e5e",
"J. c #ff6767",
"K. c #ff7373",
"L. c #808080",
"P. c #818181",
"I. c #848484",
"U. c Gray53",
"Y. c #888888",
"T. c #8b8b8b",
"R. c #8d8d8d",
"E. c #8e8e8e",
"W. c Gray56",
"Q. c Gray57",
"!. c #929292",
"~. c #939393",
"^. c #979797",
"/. c #9a9a9a",
"(. c Gray61",
"). c #9d9d9d",
"_. c #9f9f9f",
"`. c #a0a0a0",
"'. c Gray63",
"]. c #a2a2a2",
"[. c Gray64",
"{. c #a5a5a5",
"}. c Gray65",
"|. c Gray66",
" X c #a9a9a9",
".X c Gray68",
"XX c Gray70",
"oX c #b9b9b9",
"OX c #c3c3c3",
"+X c Gray81",
"@X c #d5d5d5",
"#X c Gray87",
"$X c Gray88",
"%X c Gray89",
"&X c #e7e7e7",
"*X c #e9e9e9",
"=X c #ececec",
"-X c Gray93",
";X c #f9f9f9",
":X c #fbfbfb",
">X c Gray99",
",X c Gray100",
"<X c None",
/* pixels */
"<X<X<X<X<X<X<X<X<X<X<X<X<X<X<X<X<X<X<X<X<X<X<X<X<X<X<X<X<X<X<X<X<X<X<X<X<X<X<X<X<X<X<X<X<X<X<X<X",
"<X<X<X<X<X<X<X<X<X<X<X<X<X<X<X<X<X<X<X<X<X<X<X<X<X<X<X<X<X<X<X<X<X<X<X<X<X<X<X<X<X<X<X<X<X<X<X<X",
"<X<X<X<X<X<X<X<X<X<X<X<X<X<X<X<X<X<X<X<X<X<X<X<X<X<X<X<X<X<X<X<X<X<X<X<X<X<X<X<X<X<X<X<X<X<X<X<X",
"<X<X<X<X<X<X<X<X<X<X<X<X<X<X<X[._.^.~.E.E.E.E.E.E.E.E.E.E.T.P.Z N <X<X<X<X<X<X<X<X<X<X<X<X<X<X<X",
"<X<X<X<X<X<X<X<X<X<X<X|.}.}.[._.,X,X,X,X,X,X,X,X,X,X,X,X,X,X,X,XM n n v <X<X<X<X<X<X<X<X<X<X<X<X",
"<X<X<X<X<X<X<X<X<X<X|.}.[.,X,X,X,X,X,X,X,X,X,X,X,X,X,X,X,X,X,X,X,X,X,Xc x z <X<X<X<X<X<X<X<X<X<X",
"<X<X<X<X<X<X<X<X|.|.[.,X,X,X,X,X,X,X,X,X,X,X,X,X,X,X,X,X,X,X,X,X,X,X,X,X,Xl h : <X<X<X<X<X<X<X<X",
"<X<X<X<X<X<X<X|.}.,X,X,X,X,X,X,X,X,X,X,X,X,X,X,X,X,X,X,X,X,X,X,X,X,X,X,X,X,X,X% # <X<X<X<X<X<X<X",
"<X<X<X<X<X[.}.[.,X,X,X,X,X,X,X,X,X,X,X,X,X,X,X,X,X,X,X,X,X,X,X,X,X,X,X,X,X,X,X,X@ O o <X<X<X<X<X",
"<X<X<X<X/._.,X,X,X,X,X,X,X,X,X,Xu.u.u.u.u.,X,X,X,X,X,X,X,X,X,X,X,X,X,X,X,X,X,X,X,X,X.   <X<X<X<X",
"<X<X<X<X^.,X,X,X,X,X,X,X,X,Xu.u.u.u.u.u.u.u.u.,X,X,X,X,X,X,X,X,X,X,X,X,X,X,X,X,X,X,X,X  <X<X<X<X",
"<X<X<X~.E.,X,X,X,X,X,X,X,Xu.u.u.u.u.u.u.u.u.u.u.,X,X,X,X,X,X,X,X,X,X,X,X,X,X,X,X,X,X:X    <X<X<X",
"<X<XT.T.,X,X,X,X,X,X,X,Xu.u.u.u.u.u.u.u.u.u.u.u.u.,X,X,X,X,X,X,X,X,X,X,X,X,X,X,X,X,X:X*X    <X<X",
"<X<XI.,X,X,X,X,X,X,X,Xu.u.u.u.u.u.u.u.u.u.u.u.u.u.u.,X,X,X,X,X,X,X,X,X,X,X,X,X,X,X,X,X=X@X  <X<X",
"<XB V ,X,X,X,X,X,X,X,Xu.u.u.u.u.u.u.u.u.u.u.u.u.u.u.,X,X,X,X,X,X,X,X,X,X,X,X,X,X,X,X,X=X+X    <X",
"<Xn ,X,X,X,X,X,X,X,Xu.u.u.u.u.u.u.u.u.u.u.u.u.u.u.u.u.,X,X,X,X,X,X,X,X,X,X,X,X,X,X,X,X&XOX[.  <X",
"<Xx ,X,X,X,X,X,X,Xu.u.u.u.u.u.u.u.u.u.u.u.u.u.u.u.u.u.u.,X,X,X,X,X,X,X,X,X,X,X,X,X,X:X%XoX~.  <X",
"<Xl ,X,X,X,X,X,X,Xu.u.u.u.u.u.u.u.u.u.u.u.u.u.u.u.u.u.u.,X,X,X,X,X,X,X,X,X,X,X,X,X,X:X%XXXI.  <X",
"<X: ,X,X,X,X,X,X,Xu.u.u.u.u.u.u.u.u.u.u.u.u.u.u.u.u.u.u.,X,X,X,X,X,X,X,X,X,X,X,X,X,X:X#X.XP.  <X",
"<X: S.C.b.a.u.u.u.,X,X,X,X,X,X,X,X,X,X,X,X,X,X,X,X,X,X,Xu.u.u.u.u.u.u.u.u.u.u.u.u.u.w.;.) S   <X",
"<X: Z.C.x.a.u.u.u.,X,X,X,X,X,X,X,X,X,X,X,X,X,X,X,X,X,X,Xu.u.u.u.u.u.u.u.u.u.u.u.u.u.w.=.^ f   <X",
"<X% C.B.x.a.u.u.u.,X,X,X,X,X,X,X,X,X,X,X,X,X,X,X,X,X,X,Xu.u.u.u.u.u.u.u.u.u.u.u.u.u.q.%.W p   <X",
"<X+ m.n.l.u.u.u.u.u.,X,X,X,X,X,X,X,X,X,X,X,X,X,X,X,X,Xu.u.u.u.u.u.u.u.u.u.u.u.u.u.w.9.+.I e   <X",
"<XX l.l.f.u.u.u.u.u.u.,X,X,X,X,X,X,X,X,X,X,X,X,X,X,Xu.u.u.u.u.u.u.u.u.u.u.u.u.u.u.q.,.` a 4   <X",
"<X    q.w.w.w.u.u.u.u.,X,X,X,X,X,X,X,X,X,X,X,X,X,X,Xu.u.u.u.u.u.u.u.u.u.u.u.u.u.w.6.+.P 6     <X",
"<X<X  ,.2.9.w.u.u.u.u.u.,X,X,X,X,X,X,X,X,X,X,X,X,Xu.u.u.u.u.u.u.u.u.u.u.u.u.u.w.9.=.^ e >   <X<X",
"<X<X    =.<.9.w.u.u.u.u.u.,X,X,X,X,X,X,X,X,X,X,Xu.u.u.u.u.u.u.u.u.u.u.u.u.u.w.q.,.{ f 1     <X<X",
"<X<X<X    #.;.2.9.q.u.u.u.u.,X,X,X,X,X,X,X,X,Xu.u.u.u.u.u.u.u.u.u.u.u.u.u.w.9.,.| J 3     <X<X<X",
"<X<X<X<X  ] | @.;.6.q.w.u.u.u.u.,X,X,X,X,Xu.u.u.u.u.u.u.u.u.u.u.u.u.u.w.q.2.%.] S 4 >   <X<X<X<X",
"<X<X<X<X    T ! { #.,.6.q.w.u.u.u.u.u.u.u.u.u.u.u.u.u.u.u.u.u.u.u.w.q.6.;.X.E y > >     <X<X<X<X",
"<X<X<X<X<X      K ! | #.,.6.q.w.u.u.u.u.u.u.u.u.u.u.u.u.u.u.u.w.q.6.,.+.^ F 7 >       <X<X<X<X<X",
"<X<X<X<X<X<X<X    f K W ] +.=.<.6.9.q.w.w.u.u.u.u.u.u.u.w.q.6.<.%...! F 0 > >     <X<X<X<X<X<X<X",
"<X<X<X<X<X<X<X<X      y S P ! ] | +.#.=.<.9.w.u.u.u.u.w.9.,.@.] I a 7 > >       <X<X<X<X<X<X<X<X",
"<X<X<X<X<X<X<X<X<X<X      0 r p f J T ` #.2.w.u.u.u.u.q.,.X.T p 3 > >       <X<X<X<X<X<X<X<X<X<X",
"<X<X<X<X<X<X<X<X<X<X<X<X      1 2 7 y T X.<.w.u.u.u.w.2.+.T 0 >         <X<X<X<X<X<X<X<X<X<X<X<X",
"<X<X<X<X<X<X<X<X<X<X<X<X<X<X<X            q.a.a.a.u.9.#.W 0       <X<X<X<X<X<X<X<X<X<X<X<X<X<X<X",
"<X<X<X<X<X<X<X<X<X<X<X<X<X<X<X<X<X<X<X<X  z.x.h.u.9.=.) r >   <X<X<X<X<X<X<X<X<X<X<X<X<X<X<X<X<X",
"<X<X<X<X<X<X<X<X<X<X<X<X<X<X<X<X<X<X<X<X% Z.B.h.q.=.` p > >   <X<X<X<X<X<X<X<X<X<X<X<X<X<X<X<X<X",
"<X<X<X<X<X<X<X<X<X<X<X<X<X<X<X<X<X<X<Xb G.D.m.w.#.^ y > >   <X<X<X<X<X<X<X<X<X<X<X<X<X<X<X<X<X<X",
"<X<X<X<X<X<X<X<X<X<X<X<X<X<X<X<X<X<X<XA J.Z.w.| K 9 > >   <X<X<X<X<X<X<X<X<X<X<X<X<X<X<X<X<X<X<X",
"<X<X<X<X<X<X<X<X<X<X<X<X<X<X<X<X<X<XE.K.S.6.W e > > >   <X<X<X<X<X<X<X<X<X<X<X<X<X<X<X<X<X<X<X<X",
"<X<X<X<X<X<X<X<X<X<X<X<X<X<X<X<X~.P.G.x.X.a > > >     <X<X<X<X<X<X<X<X<X<X<X<X<X<X<X<X<X<X<X<X<X",
"<X<X<X<X<X<X<X<X<X<X<X<X<X<XV N F.n.=.K 4 >       <X<X<X<X<X<X<X<X<X<X<X<X<X<X<X<X<X<X<X<X<X<X<X",
"<X<X<X<X<X<X<X<X<X<X* h h * m.u.+.J         <X<X<X<X<X<X<X<X<X<X<X<X<X<X<X<X<X<X<X<X<X<X<X<X<X<X",
"<X<X<X<X<X<X<X<X<X<X<X              <X<X<X<X<X<X<X<X<X<X<X<X<X<X<X<X<X<X<X<X<X<X<X<X<X<X<X<X<X<X",
"<X<X<X<X<X<X<X<X<X<X<X<X<X<X<X<X<X<X<X<X<X<X<X<X<X<X<X<X<X<X<X<X<X<X<X<X<X<X<X<X<X<X<X<X<X<X<X<X",
"<X<X<X<X<X<X<X<X<X<X<X<X<X<X<X<X<X<X<X<X<X<X<X<X<X<X<X<X<X<X<X<X<X<X<X<X<X<X<X<X<X<X<X<X<X<X<X<X",
"<X<X<X<X<X<X<X<X<X<X<X<X<X<X<X<X<X<X<X<X<X<X<X<X<X<X<X<X<X<X<X<X<X<X<X<X<X<X<X<X<X<X<X<X<X<X<X<X"
};
